<?xml version="1.0" encoding="UTF-8"?><svg id="b" xmlns="http://www.w3.org/2000/svg" viewBox="0 0 891.75 376.19"><defs><style>.d{fill:none;stroke:#010101;stroke-miterlimit:10;stroke-width:1.7px;}</style></defs><g id="c"><path class="d" d="M466.93,29.76c-29.82-13.47-125.21-3.66-158.64,10.67-25.1,9.68-45.71,29.03-68.11,23.84-26.66-16.64-63.15-46.61-91.25-63.35-25.52-2.16-51.63,45.25-73.33,54.46-16.04-3.49-33.17,21.16-45,4.23-14.81-11.9-2.15,11.72,6.08,11.85,19.24,4.45-13.77,6.24-18.83,5.46-.88-.42-9.13-4.65-10.23-1.6,3.3,11.24,16.83,9.91,27.01,9.96"/><path class="d" d="M64.21,74.88c-1.13-2.05-45.82,12.57-28.54,16.28,5.06-1.11,12.21-2.08,16.82-1.39"/><path class="d" d="M31.9,87.33c-5.92,4.92-33.92-4.72-30.81,7.08,7.52,9.09,58.99-11.18,32.78,6.37-56.07,12.95,1.75,19.36,20.2-.57,85.62-86.14,113.9-67,181.02,21.75-10.21,28.55-21.95-10.34-42.2,21.26-14.33-3.99-9.82,10.59-7.25,18.67-23.72,32.51,20.73,88.45,56.37,51.4,24.78-23.24-5.38-65.44,35.38-59.21,36.53,30.06,83.94,11.22,127.67,17.69"/><path class="d" d="M398.97,170.14c-5.07,17.1-.3,75.13-20.28,90.06-5.22,5.68-2.07,39.02,4.69,20-.01-9.31-2.83-11.16,3.86-12.76,5.5,13.4-.32,37,8.56,48.29,5.64-1.6,1.29-27.48.41-27.67,2.9-21.57,10.2,29.02,6.72,29.74,16.29,12.39-1.05-37.01,5.77-38.59,5.24-1.19,7.13,25.48,7.04,27.04,11.43,6.77,2.41-30.38-1.39-32.62-.96-12.9,10.4,22.71,13.1,11.74,3.29-12.71-13.82-28.65-17.01-39.01,5.44-56.06,68.32-103.58-33.17-101.99-87.54,9.41-.04-30.14,22.51-42.05,35.14-1.37,91.07,34.39,124.87,12.69,91.09,1.29,141.99,60.44,235.85,84.11,22.18,2.94,37.77,7.67,52.71,28.94,34.12,3.03,38.63,9.91,56.67,35.15,11.78,17.28,26.62-2.62,7.49-10.16,1.23-3.82,2.88-1.27,6.98-.32,7.16,1.45,7.13-4.56-1.45-8.27-11.42-5.8,5.98.37,7.15-.52,4.35-5.74-10.52-7.31-7.77-10.36.62,1.74,9.28.53,5.37-3.47-2.72-1.22-5.76-1.27-6.15-3.64,5.04.05,14.92-3.13,5.46-6.03C729.74,181.33,587.86,5.1,414.28,36.84"/><path class="d" d="M415.24,104.57c133.27,76.5,58.22-12.75,175.26,75.36,12.91,5.42,55.82,30.97,58.33,34.06,4.4,20.79,68.17,78.89,76.86,94.69-3.99,17.23,2.16,32.97,21.36,33.68,8.09,13.74,23.23,33.01,39.89,32.99,4.43-4.99,16.28-2.18,14.17-9.4-2.88-2.17-.12-3.85,2.97-.6,4,3.36,14.38-6.05,4.86-8.42-84.85-48.24-100.4-164.35-184.04-219.16"/><path class="d" d="M236.31,160.87c11.75,2.99,9.32,37.54-5.41,22.43"/></g></svg>
