<?xml version="1.0" encoding="UTF-8"?><svg id="b" xmlns="http://www.w3.org/2000/svg" viewBox="0 0 1124.93 625.23"><defs><style>.d{fill:none;stroke:#010101;stroke-miterlimit:10;}</style></defs><g id="c"><circle class="d" cx="562.46" cy="376.24" r="62.85"/><circle class="d" cx="189.53" cy="376.24" r="62.85"/><path class="d" d="M271.44.54c-2.9.78-5.95.66-8.84,1.67-6.08,2.12-9.4,6.61-10.75,12.57-2.03,8.9-1.32,17.99-1.5,27.02-.08,4.06-.36,8.06-1.9,11.98-1.95,4.98-5.46,7.5-10.6,8.24-9.93,1.42-19.92.9-29.88,1.2-4.37.13-8.8.17-12.85,2.7-4.28,2.67-5.89,6.59-6.48,11.17-1.18,9.17-.35,18.4-.6,27.59-.1,3.67-.67,7.3-1.72,10.8-1.68,5.59-5.82,8.19-11.36,9.13-8.71,1.49-17.46.32-26.19.61-4.61.15-9.17.66-13.7,2.09-5.38,1.7-7.42,5.54-8.48,10.37-1.54,7.05-1.21,14.18-.94,21.33.26,6.83.12,13.62-2.42,20.23-2.16,5.62-6.69,7.16-11.76,7.89-9.54,1.37-19.16.27-28.74.64-3.8.15-7.53.77-11.11,2.23-4.89,2-6.81,5.98-7.69,10.83-1.53,8.42-.32,16.88-.59,25.32-.14,4.4-.49,8.78-1.62,13.1-1.51,5.79-5.22,8.86-10.87,9.94-8.86,1.69-17.82,1.04-26.75,1.13-4.32.04-8.54.69-12.51,2.32-6.28,2.59-9.48,7.42-10.33,14.18-.78,6.17-.47,12.34-.48,18.5-.05,49.12.2,98.25-.11,147.37-.2,31.39-.26,62.78-.11,94.17.08,16.69,0,33.38.2,50.07.11,9.2-.04,18.43.67,27.59.69,8.85,4.81,15.4,15.54,18.49,4.26,1.23,8.68,1.71,13.09,1.69,109-.57,218.01-.42,327.01-.18,176.17.39,352.34.18,528.51.12,49.81-.02,99.61.02,149.42-.23,4.74-.02,9.39-.73,13.98-2.42,6.9-2.54,10.14-7.66,11.61-14.33.95-4.3,1.18-8.68,1.18-13.08-.02-107.25-.02-214.51-.01-321.76,0-3.55.27-7.14,1.22-10.5,1.73-6.17,6.6-9.23,12.45-10.79,2.86-.76,5.82-1.23,8.81-1.17,7.31.15,14.62-.1,21.91-.63,4.03-.29,7.89-1.51,11.39-3.65,4.58-2.8,5.75-7.43,6.21-12.24.43-4.53.37-9.09.44-13.65.16-10.15.17-20.3.17-30.44,0-6.26-.38-12.52-.21-18.78.19-7.21-.31-14.41.17-21.63.3-4.51-.19-8.99-1.62-13.38-2.33-7.17-7.61-9.13-13.13-9.63-20.37-1.87-40.79-.43-61.19-.89-9.96-.23-19.93.71-29.88-.29-3.83-.39-7.63-.93-11.11-2.81-4.34-2.35-6.38-6.14-7.11-10.83-1.55-10.01-1.01-20.09-1.16-30.16-.05-3.64-.65-7.24-2.29-10.51-2.31-4.62-6.36-6.64-11.35-7.14-11.17-1.12-22.42-.05-33.58-1.17-8.34-.84-13.38-4.42-14.31-14.17-.84-8.82-.35-17.67-1.12-26.46-.38-4.28-1-8.55-3.02-12.55-2.84-5.61-7.85-7.39-13.43-8.19-6.13-.87-12.32-.61-18.49-.61-209.94,0-419.89,0-629.83,0"/><path class="d" d="M225.42,597.52s1.12.84,1.7.4,1.39-.91,1.72-1.76.11.68.33.94,1.06.54,1.83-.13,1.46-3.56,2.23-4.8,4.5-6.87,5.52-7.05,9.34-7.88,11.4-10.12,9.12-4.02,10.64-5.54c1.52-1.52,9.93-3.4,11.27-4.02s12.88-5.46,15.47-10.73c2.59-5.28,8.59-11.98,9.03-12.25s17.84-8.52,19.39-9.21,7.13-5.35,10.64-7.25,8.86-1.21,14.21-6.04c5.35-4.83,14.5-11.74,15.19-12.77.69-1.04,10.36-5.7,11.39-5.7s13.81-2.93,15.19-4.66c1.38-1.73,10.01-5.52,10.7-5.52s5.18.35,5.01,1.38-4.66,6.21-7.08,7.77c-2.42,1.55-8.98,7.08-11.05,9.67-2.07,2.59-5.01,6.04-6.73,6.9s-12.6,5.87-14.33,6.73-12.77,7.94-14.67,8.46-4.1,1.39-4.87,1.39-1.48-.7-3.02-1.19-2.04-1.48-3.87-1.05-3.55.49-4,.3-3.41-.76-4.03-1.1-2-.17-1.98,0,1.45,2.07,2.88,2.6,4.26,1.26,4.26,1.26c0,0,1.05.62-.21.71s-5.62.52-6.88-.19-3.5-1.41-3.5-1.41l-1.02.29s.87,1.52,1.79,1.91,4.7,1.26,4.7,1.26c0,0-.82.44-1.7.58s-5.14.29-5.14.29c0,0-3.3-1.41-4.51-.87s-1.11.87-1.11.87c0,0,.97.48,2.76,1.16,1.79.68,4.17.73,4.17.73,0,0,3.64-.1,3.78-.1s.34.34.15.48-5.19,1.02-5.19,1.02c0,0-5.9-.34-6.05.15s-.15,1.31.82,1.55,4.56.63,4.56.63l5.09-.53s2.52-.44,2.62-.19.15.78-.53,1.07-4.85,2.04-4.85,2.04c0,0-5.57.44-6.54.87s-.53.87-.34.92,4.12.73,4.12.73c0,0,5.53-.24,6.16-.53s5.38-1.55,5.38-1.55c0,0,6.35-5.19,6.88-5.28s5.19-1.07,6.45-.87,2.76-.44,2.76-.44l1.55-1.84s3.1-1.75,4.07-2.04,8.92-2.68,12.05-4.34,15.13-6.64,15.62-6.74,7.03-4.1,11.03-7.42c4-3.32,18.65-13.47,18.65-13.47l8.3-7.91s2.34-1.76,2.44-5.66c.1-3.91.08-3.96,0-4.42s-1.91-2.86-1-4.92c.92-2.06,1.26-3.81,1.87-3.81s4.27-.65,4.92-.27,6.67,2.14,7.13,2.71"/><path class="d" d="M431.45,477.8c.08.08,1.18,2.15,2.02,3.13.84.97,1.86,2.29,2.73,1.89s2.13-1.21,2.29-1.86.34-1.31.34-1.31c0,0,3.71-1.4,4.35-1.84s3.46-.98,4.6-4.79c1.14-3.81,1.98-8.16,1.14-9.94s-3.86-6.03-8.11-6.58-7.52-.69-8.21-.99-3.86-.49-4.25,0-4.9,2.37-5.04,2.72-2.18,3.16-2.08,4.05-.25,1.83-.54,1.88-1.68,1.83-6.33-.15-4.35-8.81-4.35-8.81c0,0-.4-1.08-1.14-1.83s-2.47-2.32-2.82-2.92-2.01-2.87-8.36-4.63-12.23-4.26-15.41-4.8-13.38-3.24-14.46-4.32-12.7-6.08-17.97-10.34c-5.27-4.26-6.63-4.26-6.95-5.4-.31-1.13-.66-2.17,0-3.02s1.82-1.86,1.92-2.08.47-1.16.5-1.64.5-2.01.6-2.33,2.33-2.61,2.83-3.08,1.82-2.14,1.95-2.48.72-1.29-.03-1.64-3.27.06-3.96.47-1.2.88-1.57,1.6-.75,1.89-1.54,2.2-2.61.53-3.43,1.89-1.2,4.34-1.2,4.34"/><path class="d" d="M341.42,409.77s-1.63-6.15-2.79-7.44-5.22-4.12-6.48-4.97-5.54-2.23-5.54-2.23c0,0-.81.5,1.51,2.14,2.33,1.64,6.51,5.47,6.7,6.51s.31,1.54-.28,1.67-3.11-.88-3.9-1.51-2.52-2.01-2.86-2.04-2.77-.66-4.34-.16-1.54.75-1.26,1.01,3.3.98,4.43,1.45,4.16,2.71,4.19,3.3-.03,1.16-1.07.85-7.13-1.29-7.7-1.32-5.39.09-6.14.85,0,1.26.53,1.42,3.27.09,4.72,0,5.82.69,6.2,1.04,1.31,1.2,1.16,1.86.16,1.13-2.79,1.16-2.67-.85-6.26.69c-3.59,1.54-3.72,2.42-3.87,2.83s0,1.23.95,1.16,4.66-1.48,4.81-1.57,3.21-1.51,4.15-1.1,1.23.98,3.68,2.42c2.45,1.45,3.43,3.02,3.43,3.02,0,0,.81,1.5,2.15,2.95s3,2.68,3.37,2.94,6.53,8.72,7.38,10.11,8.85,6.75,11.12,7.6,18.02,5.53,18.02,5.53c0,0,13.9,1.99,14.04,3.55s.43,1.84-3.26,2.7-12.48,3.26-15.32,4.82-9.93,4.82-12.91,5.96-11.35,2.84-13.48,3.26-11.35,2.27-11.77,2.27-3.97,1.84-7.52,2.41-13.34,2.26-14.04,1.84-16.46,5.25-21.71,8.8c-5.25,3.55-12.06,6.81-12.77,7.66s-3.97,4.11-4.26,4.54-7.8,3.26-12.77,6.53c-4.97,3.26-12.77,12.2-14.61,14.19-1.84,1.99-6.53,8.09-7.52,8.8s-5.25,3.12-6.38,3.69-6.46,2.05-8.96,2.34-10.65,2.49-11.03,2.45-5.07,1.23-5.79,1.67-1.35,1.2-.84,1.5,1.23.17,1.65.21,1.31-.46,1.23,0-.34.97-.89,1.27-1.72.38-2.17.59-.92,1.01-.58,1.27,1.82.17,2.75,0,1.01.17.93.46-.38,1.01-.97,1.18-2.03.21-2.41.63-.41,1.06-.41,1.06c0,0-.22.46,1.17.3s1.31.34,1.31.34c0,0-1.82.42-2.28.76s-.68,1.61.55,1.69,1.23-.13,2.15-.55"/><path class="d" d="M208.13,546.7s-2.66,2.41-4.18,2.87-.46,2.87.46,3.34,3.08.25,3.08.25c0,0,3.84-1.73,6-3.72,2.15-1.99,6.38-3.13,6.59-3.13s6.25-2.32,6.97-1.94,4.27,1.06,5.41.17,2.58-3.93,3.59-6.93c1.01-3,4.8-4.92,7.21-6.57,2.42-1.64,17.2-9.09,22.81-11.4,5.61-2.32,10.34-3.87,12.56-7.44,2.22-3.58,3.29-6.67,5.7-7.83s18.94-5.41,20.97-5.99,16.33-.77,18.27-1.35,5.12-1.64,5.8-.77-.87,4.69-2.78,6.31-9.7,7.94-11.46,9.11-11.02,6.61-13.23,8.23c-2.2,1.62-14.4,11.9-16.02,12.93s-3.38,2.62-6.03,4.54c-2.65,1.93-12.05,7.07-12.49,7.36s-10.29,16.75-14.4,17.93c-4.12,1.18-8.97,3.38-10.29,3.38s-4.56.22-6.97,3.8c0,0-1.06,1.32-1.32,2.71s-1.46,3.48-2.93,4.02-4.87,2.71-6.29,3.69c-1.43.99-4.72,4.17-5.12,4.61s-3.66,4.79-4.06,5.23-.95,1.57-.88,2.34-.04,1.02.55,1.43,2.27.59,3.26-.62,1.57-3.15,2.01-3.15.95.73.95,1.21-2.3,3.37-2.12,3.84,1.02,1.87,2.45.51c1.43-1.35,1.28-1.98,1.65-2.27s.77-.15.88.04.84.51-.33,1.79c-1.17,1.28-1.21,1.83-.99,2.12s.48.55,1.06.55,1.21-.59,1.5-.99,1.02-1.54,1.02-1.54"/><path class="d" d="M429.97,474.47s-1.97-5.16-1.72-7.04,1.04-7.04.85-7.37-1.59-.9-4.04-.33"/><path class="d" d="M463.47,381.8s1.45.54,2.63.38,2.63-.3,3.11.05,1.26,1.06.61,2.76c-.66,1.71-2.01,4.37-4.91,3.02s-3.39-.75-4.34-1.01-4.34-.58-5.68-4.94-3.69-4.27-4.53-5.44c-.84-1.18-3.62-2.96-4.41-2.76s-7.14,1.09-7.86-3.47.31-7.3,1.54-11.02c1.22-3.72-4.08-11.93-4.08-11.93,0,0-16.48-25.97-16.99-29.06s-1.35-16.56-2.49-18.65-18.76-14.92-21.15-16.16-21.18-15.01-21.9-15.2-1.91.93-2,1.3,12.79,16.62,13.39,18.32,14.34,23.2,14.34,23.2c0,0,1.57,1.43,1.5,5.79-.07,4.36-.1,6.51-.1,6.51,0,0,3.18,9.33,3.62,13.18.44,3.85,2.18,11.24,2.38,13.99.2,2.76,6.09,18.66,7.69,19.97s7.13,4.38,8.97,6.26,10.34,5.96,11.88,7,7.53,2.81,8.41,2.9,5.23,1.2,6.72.93,1.59,1.8,1.72,2.37-.48,2.16-1.41,2.13-.82-.21-1.61.8-.81,2.68-2.63,2.42c-1.82-.26-4.1-.77-4.8-1.21"/><path class="d" d="M447.29,395.06l-.75,1.85c-.75,1.85-1.9.54-3.11.52s-2.16-.83-2.02-.51,1.62,1.03,1.76,1.36-.76.77-1.49,1.16-3.01-.93-3.27-.77.61.72.68,1.37.11.71-.93,1.41-2.73-.69-3.57-1.64c-.84-.95-4.92-3.69-4.92-3.69,0,0-6.1-3.53-8.77-4.66-2.67-1.13-7.61,3.99-11.28-7.57-3.67-11.56-11.98-19.18-12.36-19.73s-13-15.36-15.2-26.99c-2.2-11.62-2-16.82-2.95-17.95s-26.17-28.19-27.72-30.03c-1.55-1.84-12.07-3.69-15.86-18.5-3.79-14.8-7.53-28.98-7.53-28.98,0,0-7.48-13.9-9-16.73-1.52-2.83-2.26-11.97-3.46-13.7-1.19-1.73-6.26-5.04-6.26-5.04,0,0-1.91-2.11-2.88,1.72s-4.13,21.96-4.13,21.96c0,0-.51,10.05.64,11.97,1.14,1.92,13.96,20.75,13.51,21.63-.45.88,1.59,8.6,3.33,9.59s5.56,4.29,7.57,4.68,4.01,1.24,4.55,2.15,1,3.68,2.79,5.15c1.79,1.47,3.98,3.61,3.92,3.86s-1.53,3.45-4.93-.06c-3.39-3.5-3.46-3.92-4.66-4.58s-1.96-1.16-2.2-.73-.33,1.46,1.86,3.12c2.18,1.65,6.24,5.33,6.63,5.51s4.78,2.71,5.42,3.67.59,2.04-.14,2.13-2.13.74-4.65-1.84c-2.52-2.58-8.22-6.22-8.17-6.39s2.53,3.07,4.63,5.76c2.1,2.69,6.92,4.88,5.69,6.6-1.23,1.72-5.8-3.76-5.8-3.76,0,0-5.19-5.11-6.38-5.63-1.19-.52-.41,1.09-.41,1.09,0,0,4.84,5.81,5.67,6.68s3.27,2.24,3.21,3.19-1.7,1.33-2.64.66-5.37-4.4-5.81-5.44c-.44-1.04-2.49-3.41-3.14-4.32s-.98-.12-.98-.12l1.77,5.21s1.03,1.5,3.44,3.3,2,1.7,1.78,2.04-4.23,1.89-8.15-4.57c-3.92-6.46-3.5-10.3-3.85-10.96s-2.02-6.26-3.27-7.94c-1.25-1.67-7.69-10.57-7.69-10.57,0,0-12.34-19.65-12.95-21.37-.61-1.72-5.14-11.06-5.05-12.47.1-1.41-1.78-32.08-1.19-34.93.59-2.84,3.41-14.5,3.96-15.66.55-1.16,13.04-9.85,16.72-12.56s9.73-8.08,9.97-9.58c.25-1.5,1.97-5.82,1.29-9.38-.68-3.55-1.52-5.27-1.52-5.27"/><path class="d" d="M320.15,149.46s-6.3,1.71-8.47-3.95c-2.18-5.66.11-6.66.11-6.66l3.76-.02,1.86.09"/><path class="d" d="M314.04,138.84s1.75-12.2,9.42-14.32c7.68-2.12,17.67.26,20.91,5.29s2.8,15.06,2.8,15.06c0,0-2.72,6.6-2.69,7.96s-.98,3.28-2.63,4.75-4.11,3.77-4.11,3.77c0,0-2.39,1.12-3.75.56s0,5.64,0,5.64c0,0,.73,3.94,3.06,4.53s9.59,1.6,10.72,1.89,5.63,1.03,7.35,1.78,9.48,11,11.12,12.69c1.64,1.69,16.34,21.02,17.84,22.03s3.92,3.38,9.12,6.13c5.2,2.75,17.17,8.32,17.17,8.32,0,0,8.79,4.93,10.96,5.16s9.2,1.45,10.65,1.09,5.86-.24,6.69-.66,2.86-3.08,3.51-3.46,2.39.24,2.83,1.35c.44,1.11-.42,4.88-1.23,4.86s-2.95,2.34-4.89,2.48-3.78,1.31-4.14,1.67-2.2,1.53-4.29,1.18"/><path class="d" d="M436.46,236.39s2.51,3.12,5.61,3.61,7.97,1.72,8.48,1.77,1.59.53,2.23.96-1.01,2.8-5.12,2.13c-4.11-.66-9.62-2.88-9.62-2.88,0,0-1.02-.44-1.33.21s8.03,5.61,10.63,6.34c2.59.73,3.72.71,3.71,1.92,0,1.2-3.55,1.28-7.25-.41s-8.21-4.33-8.21-4.33c0,0-1.11-.06-.62.67.49.72,7.66,5.61,8.08,5.72s4.65.88,5.02,1.8-2.27,2.73-5.31,1.43c-3.05-1.3-10.21-7.08-10.21-7.08,0,0-1.02-.71-1.76-.45s.31,1.43.31,1.43c0,0,6.73,5.9,7.63,6.28s3.5.74,3.31,1.81c-.2,1.08-3.25,1.88-6.4-.19-3.15-2.07-5.32-2.4-8.59-6.67-3.27-4.28-5.08-7.21-6.31-8.27s-5.28-3.14-5.28-3.14c0,0-12.67-4.48-15.89-6.27-3.22-1.79-14.8-5.25-16.91-7.58s-8.73-8.81-9.6-9.78-10.28-12.27-12.64-13.53"/><path class="d" d="M351.16,185.37l9.69,18.76s6.01,19.57,6.98,22.09,13.81,18.87,13.81,18.87c0,0,23.27,21.13,27.1,23.97s17.32,13.47,19.79,17.97c2.47,4.5,8.55,23.29,8.55,23.29,0,0,5.06,20.53,6.73,26.44,1.67,5.9,3.71,17.79,4.1,18.15s4.15,4.53,4.65,6.79,3.63,6.27,5.98,8.6c2.35,2.33,3.32,4.46,4,4.74s2.45.73,3.16.48,1.43.32,1.58.78c0,0,.39.44.26.97s.79.93,1.15,1.71,1.18,2.51,1.08,2.91-.09.77-.09.77"/><path class="d" d="M607.2,156.94s-21.55-4.12-29.48-3.41c-7.93.71-31.2,6.27-36.5,7.84-5.3,1.57-16.64,9.08-18.9,9.47s-8.1.81-9.43.45-12.53-8.7-12.53-8.7c0,0-9.61-7.34-13.95-9.8-4.34-2.47-9.63-7.77-11.47-7.84s-5.27.43-7,1.53c-1.73,1.1-9.95,9.76-13.37,12.84-3.41,3.08-8.61,7.97-10.12,8.28s-4.52.01-6.84,1.07-3.74,2.09-4.35,2.33-1.3,1.13-1.91,1.16-2.81-.46-3.19-.57-1.85-1.63-2.43-2.24-1.87-2.24-2.63-1.24.11,2.21.47,2.57,1.83,1.96,2.27,2.31,2.33,1.23,2.43,1.3,2.86.55,2.9.94-.75.7-.96.75-3.66.32-4.67.46-4.74.29-5.1.12-3.8-1.93-4.25-.67c-.46,1.27,2.26,2.87,2.26,2.87l2.88,1.16s5.3.27,6.09.11"/><path class="d" d="M439.71,175.7s-2.11-.68-5.94,1.54-6.43,1.82-7.33,3.34.75,1.82,1.4,1.88,2.71-.58,2.88-.65,4.11.07,4.11.07"/><path class="d" d="M426.27,180.88s-3.81.8-4.78.77-3.22-.16-3.48-.19-4.01-.45-4.63.73.08,1.64.08,1.64c0,0,3.26,1.26,4.3,1.17s4.8-.39,4.8-.39l7.05-1.59s.71.28.84.5-2.22,2.63-3.36,2.96-5.98,1.64-6.66,1.76-4.07.55-3.42,2.6c.64,2.05,8.31.26,8.31.26,0,0,2.94-.59,4.02-1.12s5.05-2.84,6.16-3.74,10.36-9.77,10.36-9.77l12.72-8.53s10.94-5.51,11.75-6.19,2.37-1.52,3.21-1.29,9.96,5.22,10.28,5.86,6.63,4.87,6.78,5.12,15.19,18.86,16.12,19.04,4.64,2.72,4.07,4.81c-.57,2.08-2.18,4.43-2.77,4.55s-3.52.37-4.39-.28-2.76-2.7-5.18-.71-4.2,4.93-5.21,5.29-2.16-.52-3.2-.03-1.49,2.39-.83,4.59,1.17,1.85,1.01,3.21-3.09,5.72-3,10.01c.09,4.28,5.27,14.77,9.6,15.03,4.33.27,11.93,3.38,16.84-3.66,4.91-7.04,4.25-7.15,4.7-10.1.45-2.95-.41-7.23.44-10.35.85-3.12,4.44-4.52,4.93-4.53s2.53-.85,4.65.36c2.12,1.2,10.5,6.06,12.91,6.44s18.13,2.13,21.68,1.14,13.2-2.25,18.51-.22"/><path class="d" d="M578.94,215.32s-2.53,14.64-2.13,19.64-.12,8.37-1.31,10.58c-1.19,2.22-4.47,6.02-4.99,7.24s-1.1,3.09-1.02,3.69.23,2.95.21,4.04c-.02,1.09-.03,2.64.45,2.91s2.33.29,2.32-2.33-.41-3.93-.21-4.29,1.47-1.18,1.82-1.02.69,3.45.69,3.45l.72,6.83s.73,4.29.53,6.26c-.19,1.98.91,3.72,1.62,3.53s.74-.93,1.19-3.63-1.02-7.88-1.02-7.88c0,0-.35-2.64.47-2.49s2.06,2.28,1.91,4.51c-.16,2.23,1.15,8.43,1.01,8.7s-.75,1.36-.59,1.65,1.42,2.35,2.15.83,1.26-2.99.89-4.05-.44-4.07-.72-5.56c-.28-1.49-.54-6.37-.76-6.84s.84-.43.84-.43c0,0,2.58,2.42,2.67,5.74s-.11,4.96.26,5.5.87.99,1.47.54,1.12-5.89.61-7.81-2.66-6.29-2.66-6.29c0,0-.51-.41-.27-1.04s1.37.78,1.72,1.5,2.13,4.05,2.09,4.32.57.81.57.81c0,0,.63.86,1.33-.71s-1.48-7.97-2.89-9.38-4.02-5.56-4.19-6.85c-.17-1.28,2.65-13.71,4.15-16.33,1.5-2.62,4.83-8.57,5.3-10.29.47-1.72,1.07-9.46-.14-11.24-1.2-1.78-8.76-3.43-8.76-3.43,0,0-11.21-1.07-14.35-1.13s-13.77.74-14.93.16-1.65-2.16-1.65-2.16c0,0,2.65-2.01,5.27-3.89,2.62-1.88,18.82-11.57,20.67-11.6s17.65,2.95,22.2,3.66c4.55.71,11.04,5.92,14.64,5.3s13.27-1.81,15.1-3.68c1.83-1.88,11.69,1.59,11.69,1.59,0,0,25.09,7.09,28.13,7.51s8.66,2.09,10.19,2.77,10.77,8.85,12.18,9.5,24.6,12.81,35.91,13.61c0,0,13.39,2.57,14.51,3.94s2.61,1.78,3.42,2.74.43,3.53,3.99,5.35,7.52.23,8.97,1.16c1.46.93,6.49,2.42,7.09,3.38s4.2,5.77,4.2,5.77c0,0,2.22,4.02,3.31,4.32s1.13,2.12,2.13,2.39,4.8,1.2,4.95-1.32c.15-2.52-1.16-3.35-1.9-4.02s-1.97-.84-2.06-1.28.7-.88.7-.88c0,0,1.31.46,2.2.75s1.81-.07,2.04-.37-.03-2.16-2.65-3.07c-2.62-.92-1.31-1.02-1.31-1.02,0,0,1.94.02,2.77.55s1.32.61,1.52.26.87-2.27-1.78-2.89c-2.65-.62-1.46-1.42-1.46-1.42,0,0,1.52.62,2.07.31s.49-1.61.17-1.75-2.27-.87-2.27-.87c0,0-.38-.31-.29-.64s2.71-.18,2.71-.18c0,0,2.87-1.88-.44-2.32-3.31-.44-5.07-.35-5.07-.35,0,0-7.42-5.09-8.87-5.02s-6.65-2.44-8.71-3-6.43-1.89-8.33-2.26-15.8-7.73-21.15-11.76c-5.35-4.03-25.42-16.07-25.79-16.31s-8.19-7.81-11.48-9.42c-3.29-1.61-30.92-14.27-38.62-16.5-7.7-2.23-39.76-14.95-44.09-14.84s-22.17,2-24.47,3.09"/><path class="d" d="M585.71,188.05s14.34,7.43,15.26,8.1,15.5,6.29,16.58,6.58,12.74-1.3,13.99-1.39,3.39.98,3.67,1.3,18.02,14.49,23.39,16.75,23.21,12.88,24.26,14.16,6.68,13.58,12.93,18.46c6.25,4.89,18.33,19.13,19.04,20.92.71,1.79-1.15,4.3-.3,7.47s1.64,4.28,3.82,5.08,5,1.01,5.36,1.45,3.11,4.95,4.3,6.37,2.76,2.19,3.48,3.07c.72.88,2.31,2.07,2.64,2.63s1.8,1.45,2.46,1.28,1.01-.63,1.63-.43,1.63.7,2.09.79,1.63-.89,2.28-1.59,2.18.43,3.06-.27.63-1.97.56-2.05-.6-.65-.56-.8,1.03-.46,1.8.55,2.96-.4,3.23-1.16,1.18-1.59-1.21-2.34-4.2-2.34-4.2-2.34c0,0-1.86-2.45-3.15-2.74s-4.66-2.76-6.02-3.39-4.36-4.53-4.97-5.59c-.61-1.06-3.67-6.08-4.37-7.47-.7-1.39-2.86-3.11-4.25-4.62s-5.26-9.51-6.19-10.24-4.56-8.12-5.15-9.24-6.97-10.93-8.55-12.79-5.64-9.85-8.05-12.66c-2.41-2.81-18.75-17.69-21.64-20.08"/><path class="d" d="M511.28,211.47c.39.11,1.84.5,2.06,1.76s.7,3.15,1.02,4.02.09,4.33-1.27,4.66-3.2.89-4.07-1.11"/><path class="d" d="M466.18,574.98s3.46-2.94,5.7-3.68,6.81-.25,7.54-.52,7.4-.74,8.49-.93,6.45-1.43,7.59-1.06,3.79-.23,3.79-.23c0,0,3.42-2.21,4.99-1.5s6.63.57,6.91.38,25.59-10.26,25.59-10.26c0,0,7.83-3.74,10.57-3.63,2.74.11,18.52-.36,19.05-.71s23.38-10.43,24.66-11.26,11.12-5.35,12.08-6.38,4.31-4.61,4.19-5.74-15.41-10.7-20.69-14.17c-5.28-3.47-22.03-19.38-22.87-19.44s-6.56.19-7.74.55-20.54,7.39-27.01,8.33c-6.48.94-13.87,9.56-14.55,11.01-.68,1.45-2.97,4.44-3.39,4.63s-4.43,1.93-6.13,1.7c-1.7-.22-12.53,2.03-13.07,2.53s-7.23,4.82-8.13,5.24-4.89,2.3-5.44,2.89-2.22,1.68-2.79,1.75-2.48-.31-2.68-.74-1.05-1.83-.43-2.39,1.7-1.3,2.35-1.69,1.52-.75,1.62-.94-.09-.53-.55-.43-3.25.3-3.49-.18-.67-1.19-.17-1.56,2.45-.32,2.51-.66-1.55-.8-1.43-1.31.3-.52,1.62-1.3-.78-.97-.98-1.4-.51-1.26.28-1.73,1.95-.48,2.15-1.39,6.02-1.52,6.42-1.35,11.86-6.83,14.81-7.66,9.17-4.07,9.37-4.2,17.14-11.99,18.43-13.18c1.29-1.19,21.05-13.27,21.05-13.27,0,0,7.8-7.53,13.18-6.68,5.38.86,7.58,4.77,10.12,6.13,2.54,1.36,11.15,4.63,12.26,5.58s23.42,12.53,29.1,19.53c5.68,6.99,10.08,7.82,12.83,7.21s10.72-3.75,13.56-4.26c2.84-.5,10.4-5.05,11.75-7.08,1.35-2.04,9.56-13.83,12.42-15.85,2.86-2.01,7.82-7.49,8.34-9.27s12.12-22.26,13-23.99c.88-1.73,4.53-7.42,7.8-8.04s11.42-.37,13.12-.31,19.46,1.76,24.41,2.73,7.37.57,9.63-.05,7.03-1.61,9.26-1.49,7.53-.38,8.98.16,5.58,1.51,5.25,2.23-.92.93-1.58,1.02-3.69-1-4.07-1.01-4.51.29-4.72.81,1.77.97,2.68,1.01,6.86,1.4,7.97,1.54,2.8.77,2.75,1.14-.16.78-.39.89-5.79.27-6.48.04-5.21-1.2-5.57-1.1-.62.36-.57.49,8.85,1.73,9.71,2.01,4.49,1.79,4.47,2.48-.2.93-.52,1.1-2.7,0-3.46-.39-3.39-1.32-3.68-1.38-5.82-1.23-6.42-.84-.47.64-.47.64c0,0,3.88,1.3,4.93,2.01s3.07,1.87,3.81,2.57c.75.7,1.43,1.1,1.6,1.63s-.35,1.03-.73,1.1-.97.2-1.69-.26-2.76-2.19-3.3-2.43-5.48-2.72-6.33-2.93-2.37-.67-2.96-.92-1.13.01-1.16.16,1.09,2.34,1.31,2.75,2.69,2.07,2.7,2.74-.24,1.93-.69,1.88-1.91-.33-2.3-.75-2.04-2.57-2.1-2.79-4.43-5.42-5.33-6.03-3.94-1.52-5.05-1.6-17.19.61-18.51.33-14.79,2.1-16.01,1.96-2.41.11-3.3,1.3-5.08,7.83-5.73,9.39c-.65,1.56-6.72,13.96-8.33,15.62-1.62,1.66-2.47,2.42-2.52,3.8-.04,1.37.35,7.12-.97,8.59-1.32,1.48-.99,3.43,1,4.43s5.66-1.48,7.47-2.85,5.3-4.77,5.48-5.3.17-4.87.39-5.32.48-3.42,2.53-3.29,1.52.33,2.16-.15,3.11-6.4,4.56-6.74,4.88-2.39,9.17-2.41c4.29-.02,10.62,5.34,11.4,8.78.78,3.44,1.53,7.38.77,8.23s-4.95,5.11-4.69,6.25c.26,1.15.38,4.3.18,4.54s-.82,1.13-1.35.87-2.63-1.29-3.03-.43-2.73,5.59-3.21,6.14-1.71.87-3.02.87-7.22-1.19-7.22-1.19c0,0-5.54.11-7.83,5.65-2.28,5.54,18.07.77,18.07.77,0,0,11.47.36,17.29.31,5.82-.05,9.95-2,9.95-2,0,0,16.38-11.29,18.29-12.4,1.91-1.11,17.46-8.88,17.46-8.88,0,0,1.5-1.08,1.69-3.69s-.12-2.24.49-3.68-1.09-5.02-1.09-5.02c0,0-.88-1.19-.67-1.72s.6-1.38,1.38-1.61,3.26,1.04,3.45,2.62.54,3.73.87,4.34.21,1.52,1.6.68,4.12-5.31,4.17-5.67,2.08-4.98,2.15-5.63.84-2.03,1.46-2.26,1.06.53,1.09,1-1.92,7.52-2.33,8.17-.95,1.77-.88,2.05,1.01.62,2.96-1.47c1.96-2.09,4.23-4.55,4.92-6.37.69-1.83,1.56-2.71,1.56-2.71,0,0,1.69-1.14,2.07,1.75.38,2.89-5.35,8.52-5.35,8.52,0,0-1.44.93-1.42,1.64s1.72.1,3.7-1.01c1.98-1.11,4.08-5.11,5.05-4.64s.4,2.66-.02,3.21-2.31,3.42-3.02,3.77-5.32,2-5.39,2.66,2.29.39,2.85.14,3.74-1.64,4.2-1.77,2.42-1.89,2.92-1.88,1.35-.38,1.12.54-2.21,3.58-3.44,3.98-8.03,2.92-8.41,3.11-4.74,3.33-5.64,3.64-4.32,2.95-5.66,3.27-7.03,3.27-8.52,4.73-10.97,9.12-10.97,9.12c0,0-8.45,8.43-11.28,9.76s-12.2,6.12-12.2,6.12c0,0-4.88,1.67-7.02,1.91s-6.46-.69-8.46-.42c-2,.27-4.72.62-5.89.99s-7.13,2.43-10.76,2.34-7.1.49-8.81,1.21-9.81,2.63-12.79,4.16-20.34,8.52-25.3,12.07-12.8,5.85-15.79,7.09c-3,1.24-10.22,5.56-13.95,7.28-3.73,1.72-13.1,4.31-17.12,4.49s-24.9,2.61-31.19,3.56c-6.29.95-11.53,1.92-13.15,2.62s-14.46,3.81-18.17,4.48c-3.71.67-10.67,2.72-12.62,2.54s-7.06-1.2-9.22-1.11-11.48-.96-12.95-.8-2.18.48-3.4.82-2.62-.2-3.54.39-3.17,1.78-4.31,2.65-3.26,1.84-4.72,1.61-3.05-.26-5.02-.68-6.97,1.36-7.9,1.96-3.91,2.66-4.93,3.31-1.57,1.3-2.36.89-1.23-1.01-.51-2.23c.72-1.22-1.07-.76-1.07-.76,0,0-1.14.85-1.97.46s.38-1.93.31-2.41-2.01.49-2.78.75-1.28-1.27-.78-1.65,1.33-.92,1.12-1.42-2.36,1.76-2.93,1.6-1.7-.83-1.4-1.36,4.16-2.39,4.41-3.54-2.41.33-2.41.33c0,0-1.68,1.9-2.44,1.81s-2.16.17-2.54-1.5c-.38-1.67.92-2.19.92-2.19Z"/><path class="d" d="M694.69,490.15s.3,3.16,2.45,5.7c2.15,2.54,6.49,4.76,6.49,4.76"/><path class="d" d="M897.83,518.37s-3.54,1.28-3.91,2.29-2.41,10.32-2.74,11.19.2,4.1.35,4.29,2.39,4.22,1.97,5.14-1.44,1.51-1.97,1.2-2.54-3.15-3.07-4.08-1.12-5.15-1-5.54.88-7.61.3-7.99-1.67,2.91-1.67,2.91c0,0-2.51,5.42-2.61,6.64-.1,1.22.38,3.74-.49,4.31s-1.95-.67-2.22-1.38-.69-3.63-.69-3.63c0,0,1.33-5.23,1.86-6.05s1.69-3.66,1.41-3.89-3.88,2.22-4.14,3.39c-.26,1.17-2.35,5.69-2.7,6.14s-2.27,2.16-2.95,1.67-.91-.91-.73-2.39c.18-1.48,2.96-6.2,3.38-6.9s3.76-4.07,3.76-4.07c0,0,2.42-2.39,1.88-3.04s-2.36-.17-2.54.19-3.48,3.6-3.89,4.24-2.02,2.72-2.95,2.57-1.05-1.58-1.05-1.58c0,0,1.31-4.26,3.3-5.74s5.18-4.14,5.15-4.28.6-2.17,1.17-2.9,1.15-2.15,1.29-3.51c.14-1.35.88-3.08.84-3.85s-.08-8.11-.03-8.72,2.53-13.65,3.27-15.58,2.42-18.7,1.79-23.43-.61-10.26.22-14.96c.83-4.7,1.53-8.97,1.53-8.97,0,0,1.72-4.58,2.01-6.5s10-8.84,14.22-10.48c4.22-1.64,8.84-6.57,8.84-6.57,0,0,2.25-2.31,3.79-4.9,1.54-2.59,4.57-7.66,5.27-8.47.7-.8,4.21-6.87,4.79-7.99"/><path class="d" d="M930.12,385.73s1.35-2.26,1.29-3.26-.14-9.28.39-10.38,2.98-5.55,4.35-6.82,7.47-4.92,8.59-5.51,3.65-8.21,6.52-10.43c2.87-2.22,3.57-3.71,4.52-5.07s3.97-4.85,5.06-5.53,4.94-5.32,5.61-6.87c.67-1.54,1.04-5.27,1.04-5.27,0,0-.68-4.24-.9-5.91s1.85-9.81,2.59-11.51c.74-1.7,2.59-8.41,2.64-9.03s.78-3.31.78-3.31c0,0,.25-12.2.23-13.01-.02-.82.69-5.72.01-6.61s-2.84-4.79-3.41-6.45-.94-3.53.29-5.31c1.22-1.78,8.58-4.64,8.78-4.85s1.32-1.37,1.84-4.51c.52-3.14,1.33-3.81,1.9-3.99s2.37-1.4,2.43-1.82.42-3.11.75-3.45,1.21-1.34,1.71-1.31,1.48-.05,1.65-.19.53-1.11,1.09-1.47.78-.58,1.38-.37.74.67,1.23.95.92-.32,1.25-.34.48-.01.87.27.54.71.71.69,1.05-.53,1.78-.4,1.49.11,1.19,1.07-1.07,1.19-1.24,1.65.35.52.35.52c0,0,1.56-1.14,2.78-.98s3.09-.25,3.13,1.38-1.73,2.61-3,2.95-2.48-.1-2.7.21-.91,2.23-1.43,2.48-4.51,9.05-7.93,12.96c-3.42,3.91-3.27,4.58-3.31,5.27s.49,2.72-.6,5.4c-1.09,2.68.25,14.44.31,14.81s-.09,12.65.35,14.38.4,12.8.92,13.41,2.02,4.97,1.27,7.39-2.56,5.15-4.17,8.91c-1.6,3.76-.38,4.4-2.04,6.91-1.66,2.5-4.13,5.91-5.09,8.18s-4.62,12.41-6.55,14.65c-1.93,2.24-16.33,34.18-18.12,37.39s-4.93,11.22-6.46,13.56c-1.53,2.34-4.49,6.93-6.11,8.17s-6.1,5.36-6.77,6.22-7.9,9.09-12.81,10.66c-4.91,1.57-14.3,9-15.44,10.52s-4.95,8.66-4.78,12.47-.98,19.27-1.82,23.3c-.84,4.03-3.66,17.07-3.31,18.18.35,1.11,3.78,5.27,3.91,5.63s5.53,3.25,6.39,4.17,5.27,2.77,5.35,4.1-.21,1.73-.82,2.12-8.42-3.66-10.21-4.21-5.4-.66-6.37-1.31-1.63-1.32-1.8-2.11"/><path class="d" d="M960.24,336.11s-5.43-12.02-6.33-14.44-2.53-4.99-4.02-5.02-2.21,1.6-5.07,2.08-4.47-.09-5.04-1.48c-.57-1.39-1.73-4.81-1.17-6.86.56-2.04,2.61-4.76,2.27-5.51-.34-.75-1.52-4.32-2.14-6.01-.62-1.69-.62-5.62-1.41-6.07s-1.92-.95-2.16-1.81-.52-1.09.22-1.86,1.7-1.23,2-1.14.85.1.92-.73.2-1.94.42-2.14,1.12.08,1.4-.21.03-1.99.81-2.63,1.74-1.41,2.25-.99,1.04,1.57,1.04,1.57c0,0,.36.48.63-.84.28-1.33.49-2.2,1.67-2.58s3.61-.11,3.8,1.17c.19,1.29-.21,2.25-1.43,4.2-1.21,1.95-.93,3.87-.93,3.87,0,0,1.19,4.26,1.31,5.79.12,1.53.29,6.25.8,7.34.52,1.09,1.6,4.15,3.43,5.91,1.83,1.76,2.52,3.81,4.05,4.93s6.29,4.25,7.03,5.4c.74,1.15,1.98,2.22,1.98,2.22"/><path class="d" d="M982.63,337.44s5.97,6.4,8.5,9.14,2.18,4.91,2.18,4.91c0,0-2.28,4.09-2.98,4.58s-12.23,14.21-15.05,16.48c-2.82,2.27-9.49,8.62-11.29,9.63"/><path class="d" d="M928.99,384.11s.1-10.25.32-10.97,2.37-5.16,3.32-5.81,1.5-1,1.65-1.13"/><path class="d" d="M890.98,429.15s-1.95,3.42-3.12,3.47-3.5-1.14-4.52-1.74-6.24-3.25-10.54-1.06c-4.3,2.18-8.68,8.19-9.22,10.32-.54,2.13.02,10.93,6.04,13.99,6.01,3.06,7.1,1.96,8.66,2.32s3.83,2.64,4.9,2.86,1.96-.08,2.18-.44.5-1.53.81-1.71,2.13-.23,2.13-.23"/><path class="d" d="M882.25,441.24s-3.17-1.18-3.24-2.69.48-2.69.95-3.09,2.74-.3,3.96.34,1.69,2.42,2.85,2.84.93,2.25.72,2.93"/><path class="d" d="M894.28,507.76s.86-1.17,1.05-1.24.75-.29,1.23-.01,3.48,3.48,4,4.03,1.96,1.17,2.96.91.33-2.36-.6-3.01-2.68-3.64-3.23-4.69c-.55-1.05-.89-2.64-1.62-3.82-.73-1.19,1-9.36,1.34-12.01s2.85-16.35,3.13-17.67.04-4.1.15-6.86,1.93-11.13,2.86-12.5"/><path class="d" d="M763.26,92.64s-.78.9-.45,1.43.69,1.24,1.39,1.58-.58.05-.82.22-.53.87,0,1.57,2.94,1.47,3.95,2.2,5.57,4.27,5.66,5.15,6.13,8.45,7.91,10.35,2.86,8.03,4.06,9.42,2.27,8.67,2.72,9.86,3.84,11.32,8.18,13.86,9.67,8.07,9.88,8.47,6.14,15.74,6.63,17.11,4.11,6.41,5.51,9.52.47,7.63,4.26,12.49c3.78,4.86,9.09,13.09,9.93,13.75s4.21,9.18,4.14,10.07,1.64,11.95,3.02,13.24,4.08,8.88,4.04,9.47-.62,4.39-1.49,4.18-5-4.36-6.18-6.52c-1.17-2.16-5.47-8.09-7.55-10.02s-4.83-4.64-5.46-6.17c-.63-1.53-4.21-11.11-4.84-12.63-.63-1.53-5.97-11.38-6.29-13.03-.32-1.65-.93-3.58-.88-4.24s.69-1.21,1.21-2.5c.52-1.29,1.39-1.64,1.14-3.23-.24-1.58-.19-3.06,0-3.43s.86-2.85,1.19-3.36.27-1.69.12-1.68-1.86,1.11-2.39,2.29-1.34,3.55-1.34,3.55c0,0-.59.85-.6-.23s-.09-4.82.59-5.85,1.42-2.9,1.42-2.9l-.18-.89s-1.35.65-1.74,1.41-1.37,3.93-1.37,3.93c0,0-.32-.73-.39-1.48s.07-4.4.07-4.4c0,0,1.4-2.72,1.03-3.79-.38-1.07-.67-1-.67-1,0,0-.47.8-1.16,2.28s-.88,3.51-.88,3.51c0,0-.15,3.1-.15,3.23s-.31.27-.42.09-.54-4.48-.54-4.48c0,0,.66-5,.26-5.17s-1.11-.21-1.37.6-.82,3.84-.82,3.84l.14,4.37s.21,2.18,0,2.24-.67.08-.88-.52-1.43-4.26-1.43-4.26c0,0-.02-4.78-.33-5.63s-.71-.51-.76-.35-.88,3.47-.88,3.47c0,0-.14,4.72.07,5.28s.98,4.68.98,4.68c0,0,4.02,5.74,4.07,6.2s.58,4.49.34,5.55.2,2.38.2,2.38l1.47,1.44s1.29,2.75,1.48,3.6,1.73,7.77,2.95,10.54c1.22,2.77,4.71,13.31,4.76,13.73s3.05,6.25,5.63,9.87c2.58,3.62,10.31,16.74,10.31,16.74l6.22,7.57s1.35,2.11,4.67,2.44c3.32.33,3.37.32,3.77.28s2.56-1.45,4.25-.54,3.17,1.31,3.13,1.83.28,3.68-.08,4.21-2.24,5.55-2.75,5.91"/><path class="d" d="M852.37,275.74c-.07.06-1.91.87-2.79,1.53-.88.66-2.06,1.45-1.78,2.21s.9,1.89,1.45,2.06,1.1.37,1.1.37c0,0,.96,3.25,1.29,3.82s.62,3.01,3.79,4.22,6.83,2.2,8.4,1.59,5.38-2.91,6.11-6.5c.73-3.59,1.06-6.36,1.36-6.93s.66-3.26.27-3.62-1.72-4.32-2-4.47-2.56-2.05-3.33-2.02-1.54-.33-1.57-.58-1.45-1.55.52-5.38,7.78-3.16,7.78-3.16c0,0,.95-.27,1.63-.85s2.14-1.96,2.66-2.22,2.57-1.53,4.47-6.83c1.9-5.3,4.39-10.16,5.05-12.83s3.6-11.2,4.59-12.05,5.98-10.44,9.94-14.67c3.96-4.22,4.05-5.39,5.04-5.58s1.89-.43,2.57.19,1.47,1.67,1.65,1.77.96.48,1.36.53,1.68.56,1.95.66,2.08,2.15,2.45,2.61,1.71,1.69,2,1.82,1.05.7,1.4.08.15-2.79-.15-3.41-.68-1.07-1.27-1.44-1.56-.76-1.78-1.45-.29-2.26-1.39-3.04-3.62-1.29-3.62-1.29"/><path class="d" d="M916,203.27s5.34-1,6.52-1.91,3.84-4.19,4.64-5.21c.8-1.02,2.25-4.58,2.25-4.58,0,0-.38-.73-1.92,1.16s-5.07,5.21-5.97,5.3-1.33.17-1.4-.35.95-2.6,1.53-3.23,1.87-2.02,1.92-2.31.74-2.32.41-3.69c-.33-1.37-.55-1.36-.78-1.14s-1.04,2.75-1.51,3.69-2.57,3.37-3.08,3.36-.99-.1-.66-.96,1.55-5.99,1.61-6.48.26-4.6-.34-5.29-1.07-.08-1.24.37-.29,2.78-.3,4.02-.95,4.92-1.27,5.22-1.1,1.04-1.65.87-.98.07-.82-2.45c.16-2.52.89-2.23-.2-5.38s-1.83-3.32-2.17-3.48-1.05-.07-1.05.73.97,4.06,1.04,4.2,1.09,2.83.68,3.61-.91.98-2.29,2.98-2.79,2.73-2.79,2.73c0,0-1.33.6-2.65,1.65-1.32,1.05-2.47,2.39-2.72,2.69s-7.84,5.02-9.08,5.66-6.31,7.12-7.17,9c-.87,1.88-5.84,15.01-5.84,15.01,0,0-2.56,11.72-3.9,11.75s-1.6.25-2.09-2.95-2-10.84-3.15-13.36c-1.15-2.52-3.49-8.77-4.27-11.38s-1.71-9.85-1.94-11.69-1.22-9.81-1.2-10.18-1.32-3.5-1.58-6.56c-.26-3.06-1.09-11.51-.69-12.08s-3.45-14.35-6.14-19.05c-2.69-4.7-5.05-10.7-5.73-11.36s-3.26-3.64-3.6-3.91-2.29-6.85-4.76-11.29c-2.47-4.44-9.6-11.65-11.17-13.34-1.58-1.7-6.48-6.07-7.02-6.96s-2.33-4.67-2.74-5.67-1.34-5.64-1.43-7.78-1.46-9.23-1.4-9.55-.73-4.4-1.06-5.04-.94-1.23-1.22-.81-.22,1.03-.28,1.39.31,1.15-.08,1.04-.81-.35-1.02-.84-.22-1.49-.37-1.88-.81-.84-1.04-.57-.26,1.54-.17,2.34-.21.85-.45.76-.84-.39-.95-.9-.05-1.74-.39-2.09-.87-.42-.87-.42c0,0-.38-.22-.33.98s-.37,1.09-.37,1.09c0,0-.25-1.57-.5-1.99s-1.33-.68-1.47.36.03,1.05.33,1.87"/><path class="d" d="M807.65,81.1s-1.89-2.42-2.19-3.74c-.3-1.33-2.42-.58-2.87.19s-.41,2.61-.41,2.61c0,0,1.24,3.38,2.79,5.35s2.26,5.63,2.25,5.81,1.59,5.47,1.22,6.06-1.17,3.57-.48,4.6,3.19,2.44,5.68,3.49,3.89,4.4,5.14,6.56c1.25,2.16,6.66,15.23,8.29,20.15s2.65,9.06,5.55,11.17c2.91,2.12,5.48,3.22,6.31,5.35s3.42,16.48,3.79,18.25-.37,13.97,0,15.65c.37,1.68,1.08,4.47.3,4.99s-3.95-1.04-5.2-2.76c-1.26-1.73-6.16-8.76-7.05-10.34-.89-1.58-4.95-9.81-6.18-11.79s-9.24-13.02-10.02-14.46c-.78-1.44-2.02-3.04-3.49-5.42-1.47-2.38-5.27-10.71-5.49-11.11s-13.63-9.82-14.38-13.4c-.74-3.58-2.32-7.85-2.24-8.98s.09-3.9-2.8-6.18c0,0-1.06-.99-2.22-1.29s-2.87-1.46-3.25-2.75c-.38-1.28-2-4.32-2.75-5.59-.75-1.28-3.26-4.28-3.61-4.65s-3.85-3.42-4.2-3.79-1.28-.91-1.94-.89-.87-.1-1.25.38-.64,1.9.33,2.81,2.58,1.54,2.55,1.91-.68.76-1.09.73-2.72-2.17-3.14-2.05-1.65.76-.59,2.06,1.6,1.21,1.83,1.55.08.66-.09.75-.49.68-1.51-.39c-1.02-1.08-1.48-1.14-1.75-.97s-.5.37-.53.87.42,1.07.75,1.34,1.25.97,1.25.97"/><path class="d" d="M855.31,274.69s4.52-1.35,6.11-1.02,5.94,1.33,6.23,1.19.87-1.3.53-3.42"/><path class="d" d="M797.46,512.96s2.08,1.49,8.63-3.57,15.77-6.62,16.36-14.02c.59-7.4-1.19-31.8,5.65-37.75,6.84-5.95,11.01-5.75,14.58-6.74"/><path class="d" d="M820.07,33.1c6.5,11.87,16.15,11.87,17.63,26.72,1.48,14.84,13.71,40.07,16.13,42.3"/><path class="d" d="M510.42,120.67c19.3-20.04,25.23-34.88,40.82-40.82,15.58-5.94,31.91-6.91,37.11-3.45"/><path class="d" d="M699.17,344.06c13.65-10.65,5.66-11.54,14.09-15.53,8.43-3.99,7.54-3.55,13.31-5.77s39.12-8.46,39.94-14.3"/><path class="d" d="M691.74,362.7c6.37,1.8,15.35,4.08,21.22,0s14.2-18.45,20.9-17.8,40.32-4.08,43.26-7.84,11.92-13.71,18.77-16.49"/><path class="d" d="M688.74,378.03c5.71,2.22,9.2,8.24,16.17,6.66,6.98-1.59,14.9-2.85,21.88-8.88,6.98-6.02,17.44-5.49,18.39-10.83.95-5.34,2.22-7.25,5.39-7.56s14.95,3.81,19.37-1.59"/><path class="d" d="M644.03,478.23c.63-7.61,2.22-14.27,5.71-19.03,3.49-4.76,4.76-10.78,4.12-15.22"/><path class="d" d="M628.49,487.11c-1.9-7.93-1.59-14.27,1.59-26s1.59-15.85,1.59-15.85"/><path class="d" d="M232.42,163.18s-1.64,2.92-3.01,4.02c-1.37,1.09-4.65,1.92-5.09,2.3s-4.94,2.41-5.65,2.83-4.1,2.65-4.99,2.69-2.57,1.13-2.57,1.13c0,0-1.81,2.41-3.07,2.32-1.27-.09-4.74,1.31-4.89,1.51s-15.11,13.68-15.11,13.68c0,0-4.47,4.6-6.4,5.23s-12.75,5-13.03,5.38-13.53,13.24-14.21,14.14c-.68.91-6.34,6.57-6.74,7.52s-1.81,4.3-1.43,5.06,13.43,3.47,17.98,4.52c4.55,1.05,20.25,7.79,20.85,7.61s4.5-1.81,5.23-2.37,12.35-10.39,16.59-12.71c4.25-2.32,7.16-10.19,7.26-11.37.1-1.18.92-3.84,1.16-4.08s2.58-2.47,3.82-2.76,8.17-4.62,8.41-5.1,3.78-5.2,4.29-5.72,2.8-2.85,3.03-3.4,1.11-1.74,1.48-1.93,1.8-.42,2.05-.18,1.2,1,.91,1.54-.84,1.33-1.2,1.78-.86.91-.88,1.07.2.34.49.15,2.18-1.04,2.46-.77.77.65.52,1.04-1.62.85-1.57,1.1,1.28.15,1.33.54-.07.44-.79,1.32.79.47,1.04.72.68.75.25,1.27-1.23.83-1.13,1.51-3.79,2.6-4.1,2.58-6.48,7.78-8.3,9.11c-1.83,1.33-5.31,5.18-5.42,5.32s-8.81,12.71-9.4,13.87-11.19,14.61-11.19,14.61c0,0-3.47,7.22-7.43,8.01-3.95.79-6.48-1.36-8.59-1.65s-8.92-.35-9.93-.72-19.45-2.68-25.19-6.07-8.99-2.84-10.75-1.71c-1.75,1.13-6.47,5.35-8.31,6.43s-5.92,6.17-6.33,7.93-3.08,12.05-4.55,14.18-3.5,7.2-3.4,8.57c.1,1.37-2.69,18.54-2.86,19.97-.17,1.43-1.24,6.31-3.35,7.58s-7.82,3.19-9.02,3.58-13.95,3.77-17.63,4.37-5.26,1.49-6.66,2.51c-1.41,1.01-4.46,2.92-6.04,3.41s-5.12,2.2-6.27,2.19-4.26.38-4.21-.2.4-.88.83-1.11,2.81-.25,3.08-.35,3.05-1.36,3.07-1.77-1.48-.22-2.12-.01-5.12.79-5.92.98-2.14.19-2.2-.08-.09-.58.04-.72,3.94-1.67,4.48-1.69,3.92-.51,4.14-.67.34-.4.27-.49-6.58,1.07-7.25,1.09-3.58-.09-3.74-.57-.1-.7.08-.89,1.87-.7,2.5-.62,2.69.05,2.91.01,4.35-.64,4.67-1.06.16-.57.16-.57c0,0-3.02.1-3.94-.13s-2.6-.51-3.3-.8-1.28-.4-1.53-.72-.02-.8.22-.95.62-.39,1.24-.25,2.48.81,2.91.84,4.5.48,5.14.41,1.82-.15,2.29-.12.78-.3.77-.41-1.36-1.34-1.61-1.57-2.39-.74-2.57-1.21-.33-1.4,0-1.48,1.41-.26,1.79-.07,2.07,1.26,2.17,1.4,4.46,2.62,5.24,2.81,3.12.04,3.91-.19,11.77-4.84,12.75-4.98,9.72-5.25,10.6-5.47,1.64-.69,1.95-1.75,1.51-6.74,1.57-7.98c.05-1.25,1.08-11.4,1.77-12.97.69-1.57,1.09-2.31.77-3.28s-2.07-4.84-1.53-6.21-.19-2.63-1.83-2.81-3.55,2.48-4.45,3.9-2.45,4.67-2.44,5.08,1.13,3.42,1.09,3.79.54,2.49-.91,2.93-1.14.16-1.46.66-.51,5.23-1.43,5.84-2.77,2.91-5.74,4.03-8.73-.98-10.16-3.16c-1.43-2.18-2.96-4.72-2.65-5.51s2.12-4.81,1.65-5.54-1.37-2.88-1.29-3.1.28-1,.71-.95,2.15.22,2.21-.48.46-4.57.65-5.08.96-1.04,1.87-1.38,5.32-1.03,5.32-1.03c0,0,3.82-1.5,3.98-5.93.16-4.43-12.73,4.1-12.73,4.1,0,0-8.05,2.69-12.07,4.22-4.02,1.53-6.38,3.94-6.38,3.94,0,0-8.46,12.03-9.5,13.29s-9.83,10.64-9.83,10.64c0,0-.76,1.14-.23,2.99.53,1.86.66,1.52.6,2.68-.05,1.16,2.05,3.2,2.05,3.2,0,0,.92.6.9,1.02s-.06,1.11-.55,1.47-2.53.12-3.07-.93-1.33-2.45-1.72-2.79-.53-1-1.28-.06c-.75.94-1.5,4.74-1.44,5s-.16,3.98-.05,4.46-.06,1.62-.43,1.94-.87-.1-1.01-.42-.6-5.71-.48-6.26.2-1.47.08-1.65-.86-.17-1.68,1.78-1.76,4.24-1.78,5.68c-.01,1.44-.38,2.28-.38,2.28,0,0-.88,1.23-1.88-.68s1.52-7.29,1.52-7.29c0,0,.76-1.01.57-1.5s-1.22.37-2.31,1.65-1.52,4.59-2.31,4.51-.96-1.75-.81-2.23.72-2.96,1.13-3.39,3.18-2.75,3.06-3.23-1.69.32-2.01.63-2.17,2.1-2.46,2.31-1.19,1.93-1.54,2.05-.84.61-.92-.09.62-3.05,1.36-3.64,4.82-4.09,5.03-4.32,2.43-3.53,2.98-3.97,2.24-3.16,3.09-3.72,4.04-4.08,4.69-5.47c.66-1.39,5.27-9.14,5.27-9.14,0,0,3.69-8.01,5.32-9.66s6.89-7.38,6.89-7.38c0,0,2.95-2.41,4.38-3.13s4.66-1.18,5.97-1.88,3.11-1.64,3.83-2.19,4.32-3.51,6.86-4.39,4.8-2.16,5.8-3.1c1-.94,6.13-4.34,7.8-6.17,1.67-1.83,11.92-11.13,14.45-14.86,2.53-3.73,7.38-7.34,9.13-8.97s5.66-6.48,7.8-8.63,7.98-6.35,10.72-7.51c2.75-1.16,16.6-8.2,20.72-10.47,4.12-2.28,7.51-4.29,8.45-5.19s9.05-6.35,11.45-7.77,6.7-4.62,8.1-5,5.2-.98,6.68-1.6,8.21-2.28,9.18-2.77,1.38-.89,2.15-1.44c.76-.55,1.87-.53,2.36-1.18s1.74-2.05,2.31-2.94,1.79-2.11,2.86-2.33,2.18-.6,3.66-.81,4.49-2.73,4.97-3.38,2.03-2.85,2.57-3.56.75-1.31,1.41-1.22,1.11.38.93,1.42.94.25.94.25c0,0,.57-.88,1.25-.82s.23,1.44.41,1.75,1.27-.85,1.74-1.23,1.22.55.96.95-.69.98-.41,1.27,1.19-1.82,1.62-1.86,1.39.14,1.32.59-2.27,2.73-2.15,3.59,1.58-.85,1.58-.85c0,0,.68-1.75,1.23-1.88s1.45-.67,2.15.39-.07,1.75-.07,1.75Z"/><path class="d" d="M95.73,280.65s-1.02-2.11-3.16-3.32-5.72-1.64-5.72-1.64"/><path class="d" d="M530.88,468.78s-14.84,14.19-41.99,18.33-33.93-3.06-44.53,6.27"/><path class="d" d="M530.88,453.51c-11.03,2.54-23.75,16.74-36.05,13.46s-17.31-16.83-24.77-21.72-24.85-22.28-34.6-19.73"/><path class="d" d="M908.73,263.25s-10.22,4.76-8.58,16.03c1.64,11.28,5.25,12.42,4.2,16.92-1.05,4.5,1.2,2.63.83,9.19-.38,6.56,6.94,17.44,6.94,17.44,0,0-.19,22.31-2.44,26.63s-8.51,8.81-19.54,24.38"/><path class="d" d="M917.14,299.99s-5.05-10.34-3.03-17.79c2.02-7.44,2.14-10.85,6.31-15.01,4.16-4.16,4.04-9.97,4.04-9.97"/><path class="d" d="M930.13,277.41s6.94-3.91,8.58-12.87c1.64-8.96-1.39-13.75,1.26-21.95,2.65-8.2,7.69-13.12,7.69-13.12,0,0,2.53-3.78,3.09-10.47"/><path class="d" d="M746.72,539.88s-3.37-.63-13.89,2.32-6.11,11.58-5.05,11.79,4.21,4.63,18.95,1.47,19.16-8.84,20-12.42-20-3.16-20-3.16Z"/><path class="d" d="M645.66,573.35s15.58-4.42,17.68,0,5.26,4.63,3.37,9.26-12.7,11.58-12.7,11.58c0,0-21.03,7.58-21.96-2.95-.92-10.53,4.97-11.16,13.6-17.9Z"/><path class="d" d="M702.72,565.98c-2.27,1.21-6.95,5.68-5.05,8.84s8.84,9.89,12.42,6.11c3.58-3.79,5.89-3.72,5.68-6.91s-3.16-13.3-13.05-8.04Z"/><path class="d" d="M274.5,214.55c-2.8.23-12.15,6.54-14.48,8.18"/><path class="d" d="M275.91,220.39s-9.81,7.6-12.15,9.76"/><line class="d" x1="274.5" y1="230.14" x2="263.76" y2="241.41"/><path class="d" d="M274.5,241.41s-5.61,11.21-5.37,17.99c.23,6.77,0,8.95,0,8.95"/><path class="d" d="M281.51,251.92l-3.04,8.64s-.23,3.27,0,5.14"/><path class="d" d="M287.59,263.6s-.21,5.37-1.04,7.48-2.47,9.11-1.53,11.21,1.14,8.64,1.14,8.64"/><polyline class="d" points="294.36 272.25 295.29 279.72 297.16 290.93"/></g></svg>