<svg xmlns="http://www.w3.org/2000/svg" width="2000mm" height="1000mm" viewBox="0 0 2000 1000"><g id="outline"><rect x="0" y="0" width="2000" height="1000" fill="none" stroke="#000" stroke-width="1"/></g><g id="channels"><path d="M 1657.1 0.0 L 1654.2 1.0 L 1649.3 2.8 L 1644.3 4.4 L 1639.4 6.1 L 1634.5 7.9 L 1629.5 9.6 L 1624.6 11.3 L 1619.7 12.9 L 1614.8 14.6 L 1614.8 14.6 L 1609.8 16.3 L 1604.8 18.0 L 1599.9 19.7 L 1595.0 21.4 L 1590.1 23.1 L 1585.1 24.9 L 1580.2 26.5 L 1575.3 28.2 L 1570.3 30.0 L 1565.4 31.6 L 1560.5 33.3 L 1555.5 34.9 L 1550.5 36.4 L 1545.5 37.9 L 1540.5 39.3 L 1535.5 40.7 L 1535.5 40.7 L 1530.5 42.1 L 1525.5 43.3 L 1520.3 44.6 L 1515.3 45.8 L 1510.3 47.0 L 1505.1 48.0 L 1500.0 49.1 L 1494.9 50.2 L 1489.8 51.2 L 1484.7 52.2 L 1479.6 53.2 L 1474.4 54.2 L 1469.3 55.1 L 1464.1 56.0 L 1459.0 56.9 L 1453.9 57.9 L 1453.9 57.9 L 1448.8 58.7 L 1443.6 59.6 L 1438.4 60.3 L 1433.3 61.1 L 1428.1 61.8 L 1423.0 62.5 L 1417.8 63.2 L 1412.7 63.8 L 1407.4 64.5 L 1402.2 65.1 L 1397.1 65.8 L 1391.9 66.4 L 1386.8 67.1 L 1381.6 67.8 L 1376.4 68.5 L 1371.2 69.3 L 1371.2 69.3 L 1366.1 70.1 L 1360.9 70.8 L 1355.8 71.6 L 1350.7 72.4 L 1345.5 73.2 L 1340.3 73.9 L 1335.2 74.8 L 1330.0 75.5 L 1324.9 76.4 L 1319.7 77.2 L 1314.5 77.9 L 1309.4 78.8 L 1304.3 79.6 L 1299.1 80.4 L 1294.0 81.2 L 1288.8 82.1 L 1288.8 82.1 L 1283.6 82.8 L 1278.5 83.7 L 1273.4 84.6 L 1268.3 85.4 L 1263.0 86.3 L 1257.9 87.2 L 1252.8 88.0 L 1247.7 89.0 L 1242.6 89.8 L 1237.3 90.6 L 1232.2 91.5 L 1227.1 92.3 L 1221.9 93.1 L 1216.8 93.8 L 1211.6 94.5 L 1206.4 95.3 L 1206.4 95.3 L 1201.2 95.8 L 1196.1 96.4 L 1190.9 96.9 L 1185.7 97.4 L 1180.5 97.9 L 1175.3 98.3 L 1170.1 98.7 L 1164.9 99.1 L 1159.7 99.5 L 1154.5 100.0 L 1149.3 100.4 L 1144.1 100.9 L 1138.9 101.3 L 1133.7 101.8 L 1128.6 102.4 L 1123.4 103.0 L 1123.4 103.0 L 1118.2 103.7 L 1113.0 104.3 L 1107.8 104.9 L 1102.7 105.6 L 1097.5 106.3 L 1092.3 106.9 L 1087.2 107.7 L 1081.9 108.4 L 1076.8 109.2 L 1071.7 110.0 L 1066.5 110.8 L 1061.4 111.7 L 1056.2 112.6 L 1051.2 113.6 L 1046.1 114.7 L 1041.0 115.8 L 1041.0 115.8 L 1035.9 117.0 L 1030.9 118.3 L 1025.8 119.5 L 1020.8 120.9 L 1015.8 122.3 L 1010.7 123.7 L 1005.8 125.2 L 1000.7 126.7 L 995.8 128.3 L 990.8 129.9 L 985.8 131.5 L 980.9 133.1 L 975.9 134.8 L 971.0 136.5 L 966.1 138.3 L 961.2 140.0 L 961.2 140.0 L 956.3 141.8 L 951.4 143.6 L 946.5 145.5 L 941.7 147.4 L 936.9 149.3 L 932.1 151.4 L 927.2 153.4 L 922.4 155.4 L 917.6 157.5 L 912.9 159.6 L 908.1 161.7 L 903.4 163.8 L 898.6 166.0 L 893.9 168.1 L 889.1 170.3 L 884.4 172.4 L 884.4 172.4 L 879.7 174.6 L 874.9 176.9 L 870.2 179.1 L 865.5 181.4 L 860.9 183.6 L 856.2 186.0 L 851.4 188.2 L 846.8 190.6 L 842.1 192.9 L 837.5 195.4 L 832.9 197.7 L 828.3 200.2 L 823.6 202.6 L 819.0 205.1 L 814.5 207.6 L 810.0 210.1 L 810.0 210.1 L 805.3 212.7 L 800.9 215.3 L 796.3 217.9 L 791.9 220.6 L 787.4 223.4 L 783.1 226.1 L 778.6 228.9 L 774.2 231.7 L 769.8 234.4 L 765.3 237.2 L 761.0 240.0 L 756.5 242.8 L 752.1 245.4 L 747.6 248.1 L 743.1 250.8 L 738.6 253.4 L 738.6 253.4 L 734.1 256.0 L 729.6 258.5 L 725.0 261.1 L 720.4 263.6 L 715.9 266.1 L 711.3 268.5 L 706.7 271.1 L 702.1 273.5 L 697.5 275.9 L 692.9 278.4 L 688.2 280.8 L 683.6 283.2 L 679.0 285.7 L 674.5 288.1 L 669.8 290.6 L 665.2 293.0 L 665.2 293.0 L 660.6 295.4 L 656.0 297.8 L 651.3 300.1 L 646.7 302.4 L 642.0 304.7 L 637.2 307.0 L 632.5 309.4 L 627.8 311.6 L 623.2 314.0 L 618.5 316.3 L 613.9 318.8 L 609.4 321.2 L 604.7 323.7 L 600.3 326.3 L 595.8 328.9 L 591.4 331.6 L 591.4 331.6 L 587.0 334.5 L 582.6 337.3 L 578.4 340.2 L 574.1 343.2 L 569.8 346.2 L 565.6 349.3 L 561.4 352.4 L 557.2 355.5 L 553.1 358.7 L 549.0 361.9 L 544.8 365.1 L 540.7 368.3 L 536.7 371.6 L 532.7 375.0 L 528.6 378.2 L 524.6 381.6 L 524.6 381.6 L 520.6 384.9 L 516.6 388.3 L 512.8 391.8 L 508.8 395.2 L 504.9 398.7 L 501.2 402.2 L 497.3 405.8 L 493.5 409.3 L 489.7 412.9 L 486.0 416.6 L 482.1 420.1 L 478.3 423.7 L 474.5 427.3 L 470.8 430.8 L 467.0 434.4 L 463.1 438.0 L 463.1 438.0 L 459.3 441.6 L 455.6 445.2 L 451.9 448.8 L 448.1 452.5 L 444.4 456.2 L 440.7 459.9 L 437.0 463.6 L 433.3 467.3 L 429.5 470.9 L 425.7 474.6 L 422.0 478.1 L 418.1 481.7 L 414.2 485.1 L 410.3 488.5 L 406.3 491.7 L 402.2 494.9 L 402.2 494.9 L 398.1 498.1 L 393.9 501.2 L 389.7 504.2 L 385.4 507.3 L 381.1 510.3 L 376.8 513.2 L 372.5 516.2 L 368.1 518.9 L 363.7 521.7 L 359.1 524.4 L 354.7 527.0 L 350.1 529.5 L 345.5 532.0 L 340.9 534.2 L 336.2 536.5 L 331.5 538.6 L 331.5 538.6 L 326.7 540.5 L 321.9 542.4 L 317.0 544.1 L 312.2 545.7 L 307.1 547.3 L 302.2 548.8 L 297.1 550.1 L 292.1 551.5 L 287.0 552.6 L 281.8 553.8 L 276.7 555.0 L 271.6 556.1 L 266.5 557.2 L 261.3 558.3 L 256.2 559.4 L 251.2 560.4 L 251.2 560.4 L 246.1 561.5 L 240.9 562.4 L 235.7 563.2 L 230.6 564.0 L 225.4 564.6 L 220.2 565.3 L 215.0 565.9 L 209.8 566.5 L 204.6 567.2 L 199.4 567.8 L 194.2 568.5 L 189.0 569.3 L 183.9 570.1 L 178.8 571.1 L 173.7 572.1 L 168.7 573.3 L 168.7 573.3 L 163.7 574.6 L 158.4 575.7 L 153.1 576.8 L 147.7 577.9 L 142.2 579.1 L 136.8 580.3 L 131.4 581.5 L 126.1 582.9 L 120.9 584.4 L 115.9 586.0 L 111.1 587.8 L 106.5 589.8 L 102.1 592.1 L 98.1 594.7 L 94.4 597.5 L 91.0 600.7 L 91.0 600.7 L 88.1 604.4 L 85.5 608.7 L 83.1 613.4 L 81.1 618.7 L 79.3 624.2 L 77.7 630.0 L 76.4 636.0 L 75.1 641.9 L 74.1 647.9 L 73.2 653.7 L 72.3 659.1 L 71.6 664.4 L 70.9 669.1 L 70.3 673.3 L 69.7 677.0 L 69.0 679.8 L 79.2 700.5 L 81.8 700.8 L 84.9 701.2 L 88.6 701.8 L 92.6 702.5 L 97.0 703.2 L 101.7 704.0 L 106.7 704.8 L 111.9 705.5 L 117.3 706.2 L 122.7 706.9 L 128.3 707.4 L 133.8 707.7 L 139.4 707.9 L 144.8 707.9 L 150.2 707.6 L 155.4 707.1 L 155.4 707.1 L 160.5 706.4 L 165.7 705.3 L 170.9 704.1 L 176.2 702.6 L 181.5 701.0 L 186.9 699.2 L 192.3 697.4 L 197.8 695.4 L 203.2 693.3 L 208.7 691.3 L 214.1 689.2 L 219.7 687.2 L 225.1 685.3 L 230.6 683.3 L 236.1 681.5 L 241.4 679.8 L 241.4 679.8 L 246.9 678.3 L 252.4 677.0 L 257.9 675.7 L 263.5 674.5 L 269.2 673.3 L 274.8 672.2 L 280.4 671.2 L 286.0 670.0 L 291.6 668.8 L 297.0 667.5 L 302.5 666.0 L 307.9 664.4 L 313.1 662.7 L 318.2 660.7 L 323.3 658.5 L 328.0 656.0 L 328.0 656.0 L 332.7 653.1 L 337.3 650.0 L 341.6 646.5 L 345.9 642.9 L 349.9 639.1 L 353.9 635.1 L 357.9 631.0 L 361.8 626.8 L 365.7 622.6 L 369.6 618.3 L 373.5 614.1 L 377.4 609.9 L 381.5 605.8 L 385.6 601.9 L 389.8 598.1 L 394.2 594.5 L 394.2 594.5 L 398.6 591.1 L 403.1 587.7 L 407.6 584.3 L 412.1 581.0 L 416.7 577.7 L 421.4 574.6 L 426.0 571.4 L 430.7 568.3 L 435.5 565.1 L 440.3 562.1 L 445.1 559.2 L 449.8 556.2 L 454.7 553.4 L 459.6 550.5 L 464.5 547.8 L 469.4 545.1 L 469.4 545.1 L 474.4 542.5 L 479.4 539.9 L 484.5 537.4 L 489.6 535.0 L 494.7 532.6 L 499.9 530.4 L 505.1 528.1 L 510.3 525.9 L 515.5 523.7 L 520.7 521.6 L 526.0 519.5 L 531.3 517.4 L 536.5 515.3 L 541.8 513.1 L 547.0 511.0 L 552.3 508.9 L 552.3 508.9 L 557.5 506.7 L 562.7 504.6 L 568.0 502.6 L 573.3 500.5 L 578.6 498.5 L 583.8 496.4 L 589.1 494.4 L 594.4 492.4 L 599.7 490.4 L 605.0 488.5 L 610.3 486.4 L 615.6 484.4 L 620.9 482.4 L 626.2 480.4 L 631.5 478.4 L 636.7 476.3 L 636.7 476.3 L 642.0 474.3 L 647.2 472.2 L 652.6 470.3 L 658.0 468.4 L 663.3 466.5 L 668.7 464.6 L 674.0 462.7 L 679.4 460.7 L 684.7 458.7 L 690.0 456.7 L 695.2 454.6 L 700.4 452.4 L 705.5 450.1 L 710.6 447.7 L 715.6 445.1 L 720.5 442.4 L 720.5 442.4 L 725.3 439.6 L 730.1 436.6 L 734.7 433.4 L 739.2 430.2 L 743.8 426.8 L 748.2 423.4 L 752.6 419.8 L 756.9 416.3 L 761.3 412.7 L 765.7 409.0 L 770.1 405.4 L 774.4 401.8 L 778.8 398.2 L 783.2 394.7 L 787.7 391.3 L 792.2 387.9 L 792.2 387.9 L 796.8 384.5 L 801.2 381.2 L 805.8 377.7 L 810.2 374.2 L 814.7 370.8 L 819.1 367.2 L 823.6 363.8 L 828.2 360.4 L 832.7 357.0 L 837.3 353.7 L 841.9 350.5 L 846.6 347.5 L 851.3 344.6 L 856.2 341.8 L 861.0 339.2 L 866.1 336.8 L 866.1 336.8 L 871.1 334.6 L 876.3 332.6 L 881.5 330.7 L 886.9 328.9 L 892.3 327.3 L 897.7 325.8 L 903.3 324.5 L 908.7 323.1 L 914.4 321.9 L 919.9 320.8 L 925.5 319.6 L 931.2 318.5 L 936.8 317.5 L 942.3 316.4 L 948.0 315.3 L 953.5 314.2 L 953.5 314.2 L 959.0 313.1 L 964.5 312.1 L 970.1 311.0 L 975.7 310.0 L 981.2 309.1 L 986.9 308.2 L 992.4 307.3 L 998.0 306.4 L 1003.7 305.7 L 1009.2 304.8 L 1014.8 304.2 L 1020.5 303.5 L 1026.1 302.8 L 1031.7 302.2 L 1037.3 301.6 L 1042.9 301.1 L 1042.9 301.1 L 1048.5 300.6 L 1054.2 300.2 L 1059.9 299.9 L 1065.5 299.5 L 1071.1 299.2 L 1076.8 299.0 L 1082.4 298.7 L 1088.1 298.5 L 1093.8 298.4 L 1099.4 298.3 L 1105.1 298.2 L 1110.8 298.2 L 1116.4 298.2 L 1122.0 298.2 L 1127.6 298.3 L 1133.3 298.4 L 1133.3 298.4 L 1139.1 298.4 L 1145.4 298.4 L 1151.8 298.3 L 1158.6 298.0 L 1165.4 297.8 L 1172.2 297.6 L 1179.0 297.4 L 1185.7 297.4 L 1192.1 297.5 L 1198.1 297.9 L 1203.8 298.4 L 1209.0 299.1 L 1213.6 300.2 L 1217.4 301.6 L 1220.5 303.3 L 1222.8 305.5 L 1222.8 305.5 L 1224.2 308.2 L 1224.9 311.4 L 1225.0 315.0 L 1224.4 319.0 L 1223.3 323.4 L 1221.7 328.0 L 1219.7 332.8 L 1217.3 337.8 L 1214.6 342.8 L 1211.6 347.8 L 1208.4 352.9 L 1205.0 357.8 L 1201.6 362.6 L 1198.0 367.2 L 1194.6 371.4 L 1191.1 375.4 L 1191.1 375.4 L 1187.7 379.1 L 1183.9 382.6 L 1179.8 386.1 L 1175.5 389.4 L 1171.0 392.7 L 1166.4 395.9 L 1161.5 399.0 L 1156.5 402.0 L 1151.5 405.0 L 1146.4 408.0 L 1141.2 410.9 L 1136.0 413.9 L 1130.9 416.7 L 1125.9 419.7 L 1120.8 422.6 L 1116.0 425.5 L 1116.0 425.5 L 1111.1 428.4 L 1106.2 431.3 L 1101.3 434.0 L 1096.4 436.8 L 1091.4 439.6 L 1086.5 442.3 L 1081.5 444.9 L 1076.5 447.6 L 1071.5 450.2 L 1066.6 452.9 L 1061.5 455.6 L 1056.6 458.3 L 1051.6 461.0 L 1046.7 463.7 L 1041.7 466.4 L 1036.8 469.2 L 1036.8 469.2 L 1031.9 472.1 L 1027.0 474.9 L 1022.1 477.7 L 1017.3 480.6 L 1012.3 483.4 L 1007.4 486.3 L 1002.6 489.1 L 997.7 492.1 L 992.9 494.9 L 988.0 497.9 L 983.2 500.8 L 978.4 503.7 L 973.6 506.7 L 968.8 509.7 L 964.0 512.6 L 959.2 515.8 L 959.2 515.8 L 954.5 518.8 L 949.8 521.9 L 945.1 525.1 L 940.4 528.2 L 935.7 531.4 L 931.1 534.6 L 926.5 537.8 L 921.8 541.0 L 917.1 544.3 L 912.5 547.6 L 907.9 550.8 L 903.3 554.1 L 898.7 557.3 L 894.0 560.5 L 889.3 563.7 L 884.6 566.9 L 884.6 566.9 L 879.9 570.0 L 875.3 573.2 L 870.6 576.4 L 865.9 579.6 L 861.3 582.8 L 856.6 586.0 L 851.9 589.1 L 847.2 592.3 L 842.5 595.4 L 837.8 598.6 L 833.1 601.7 L 828.3 604.8 L 823.6 607.8 L 818.9 610.9 L 814.1 614.0 L 809.3 616.9 L 809.3 616.9 L 804.5 619.9 L 799.6 622.8 L 794.7 625.6 L 789.9 628.5 L 785.0 631.3 L 780.0 634.1 L 775.2 636.9 L 770.2 639.7 L 765.3 642.4 L 760.4 645.2 L 755.4 648.0 L 750.5 650.7 L 745.6 653.6 L 740.7 656.4 L 735.9 659.2 L 731.0 662.2 L 731.0 662.2 L 726.1 665.1 L 721.2 668.0 L 716.4 670.8 L 711.5 673.6 L 706.5 676.4 L 701.7 679.3 L 696.7 682.2 L 691.8 685.1 L 687.1 688.0 L 682.3 691.0 L 677.5 694.0 L 672.8 697.1 L 668.2 700.3 L 663.6 703.6 L 659.1 706.9 L 654.7 710.5 L 654.7 710.5 L 650.4 714.1 L 646.3 717.9 L 642.2 721.7 L 638.3 725.7 L 634.3 729.8 L 630.4 733.9 L 626.7 738.1 L 622.9 742.3 L 619.1 746.6 L 615.4 750.9 L 611.6 755.1 L 607.8 759.4 L 604.1 763.6 L 600.2 767.7 L 596.3 771.8 L 592.3 775.8 L 592.3 775.8 L 588.4 779.8 L 584.3 783.8 L 580.4 787.9 L 576.4 791.9 L 572.5 796.1 L 568.5 800.2 L 564.5 804.3 L 560.6 808.2 L 556.4 812.3 L 552.3 816.1 L 548.2 819.9 L 543.9 823.6 L 539.6 827.1 L 535.3 830.6 L 530.7 833.9 L 526.1 837.0 L 526.1 837.0 L 521.4 839.8 L 516.5 842.6 L 511.6 845.1 L 506.5 847.5 L 501.4 849.7 L 496.2 851.9 L 490.9 853.9 L 485.6 856.0 L 480.3 857.9 L 474.9 859.8 L 469.5 861.7 L 464.2 863.6 L 458.8 865.5 L 453.5 867.5 L 448.2 869.6 L 443.0 871.7 L 443.0 871.7 L 437.8 873.9 L 432.6 876.0 L 427.3 878.0 L 422.0 880.1 L 416.7 882.1 L 411.5 884.1 L 406.2 886.1 L 401.0 888.2 L 395.7 890.3 L 390.5 892.4 L 385.3 894.7 L 380.2 897.0 L 375.3 899.5 L 370.3 902.1 L 365.4 904.8 L 360.6 907.6 L 360.6 907.6 L 356.0 910.7 L 351.4 913.9 L 347.0 917.4 L 342.7 920.9 L 338.4 924.6 L 334.2 928.4 L 330.0 932.1 L 325.8 936.1 L 321.7 940.0 L 317.5 943.9 L 313.4 947.9 L 309.2 951.8 L 305.0 955.6 L 300.8 959.4 L 296.5 963.1 L 292.1 966.6 L 292.1 966.6 L 287.6 970.0 L 283.0 973.3 L 278.3 976.6 L 273.6 979.8 L 268.8 982.9 L 264.0 986.0 L 259.2 989.1 L 254.5 992.1 L 249.7 995.2 L 245.0 998.4 L 242.6 1000.0" fill="none" stroke="#a05bff" stroke-width="6.0" stroke-opacity="0.9"/><path d="M 434.2 1000.0 L 437.3 997.8 L 441.7 994.7 L 446.1 991.7 L 450.5 988.7 L 455.0 985.7 L 455.0 985.7 L 459.4 982.9 L 463.9 979.9 L 468.4 977.1 L 472.9 974.3 L 477.5 971.5 L 482.1 968.8 L 486.7 966.0 L 491.3 963.4 L 496.0 960.7 L 500.7 958.1 L 505.4 955.6 L 510.1 953.1 L 514.8 950.6 L 519.6 948.3 L 524.4 945.9 L 529.1 943.7 L 529.1 943.7 L 534.0 941.4 L 538.9 939.3 L 543.8 937.2 L 548.7 935.2 L 553.7 933.2 L 558.6 931.3 L 563.7 929.5 L 568.7 927.6 L 573.7 925.8 L 578.8 924.0 L 583.8 922.2 L 588.9 920.6 L 594.0 918.8 L 599.0 917.1 L 604.1 915.3 L 609.1 913.6 L 609.1 913.6 L 614.2 911.9 L 619.3 910.3 L 624.4 908.7 L 629.5 907.2 L 634.6 905.7 L 639.8 904.2 L 645.0 902.7 L 650.1 901.2 L 655.2 899.8 L 660.3 898.3 L 665.5 896.7 L 670.6 895.2 L 675.6 893.5 L 680.8 891.8 L 685.7 890.1 L 690.8 888.2 L 690.8 888.2 L 695.7 886.4 L 700.8 884.4 L 705.7 882.5 L 710.7 880.6 L 715.7 878.6 L 720.7 876.6 L 725.7 874.6 L 730.7 872.5 L 735.5 870.3 L 740.4 868.1 L 745.2 865.8 L 750.0 863.4 L 754.7 861.0 L 759.4 858.5 L 763.9 855.8 L 768.5 853.1 L 768.5 853.1 L 772.9 850.2 L 777.3 847.2 L 781.6 844.2 L 785.8 841.0 L 790.1 837.7 L 794.2 834.5 L 798.4 831.0 L 802.5 827.6 L 806.5 824.0 L 810.5 820.4 L 814.4 816.9 L 818.4 813.2 L 822.3 809.6 L 826.2 805.9 L 830.0 802.2 L 833.9 798.5 L 833.9 798.5 L 837.7 794.8 L 841.4 790.9 L 845.0 787.0 L 848.5 783.0 L 852.0 778.9 L 855.5 774.8 L 858.9 770.7 L 862.3 766.5 L 865.7 762.4 L 869.3 758.3 L 872.7 754.2 L 876.3 750.3 L 879.9 746.3 L 883.6 742.6 L 887.4 738.9 L 891.3 735.2 L 891.3 735.2 L 895.3 731.8 L 899.4 728.4 L 903.5 725.0 L 907.7 721.7 L 911.9 718.4 L 916.2 715.3 L 920.5 712.1 L 924.9 709.0 L 929.3 706.0 L 933.8 703.1 L 938.2 700.1 L 942.8 697.3 L 947.3 694.5 L 951.9 691.8 L 956.4 689.1 L 961.2 686.6 L 961.2 686.6 L 965.8 684.1 L 970.6 681.7 L 975.3 679.4 L 980.2 677.2 L 985.1 675.1 L 990.0 673.1 L 995.0 671.1 L 1000.0 669.1 L 1005.0 667.2 L 1010.0 665.3 L 1015.0 663.3 L 1020.0 661.4 L 1025.0 659.5 L 1029.9 657.5 L 1034.9 655.5 L 1039.9 653.4 L 1039.9 653.4 L 1044.8 651.3 L 1049.7 649.2 L 1054.6 647.1 L 1059.5 645.0 L 1064.4 642.9 L 1069.3 640.8 L 1074.2 638.7 L 1079.2 636.5 L 1084.0 634.4 L 1088.9 632.3 L 1093.8 630.2 L 1098.7 628.0 L 1103.5 625.8 L 1108.4 623.5 L 1113.3 621.3 L 1118.1 619.1 L 1118.1 619.1 L 1122.9 616.7 L 1127.7 614.4 L 1132.4 611.9 L 1137.2 609.5 L 1141.9 607.0 L 1146.7 604.5 L 1151.4 602.0 L 1156.1 599.5 L 1160.8 597.0 L 1165.6 594.5 L 1170.3 592.0 L 1175.1 589.6 L 1179.9 587.2 L 1184.7 585.0 L 1189.5 582.7 L 1194.4 580.5 L 1194.4 580.5 L 1199.3 578.4 L 1204.2 576.5 L 1209.2 574.6 L 1214.2 572.6 L 1219.2 570.9 L 1224.2 569.1 L 1229.4 567.3 L 1234.4 565.6 L 1239.4 563.8 L 1244.5 562.1 L 1249.5 560.4 L 1254.6 558.6 L 1259.6 556.7 L 1264.6 554.9 L 1269.6 553.0 L 1274.6 551.0 L 1274.6 551.0 L 1279.4 548.9 L 1284.4 546.8 L 1289.3 544.7 L 1294.2 542.7 L 1299.1 540.6 L 1304.0 538.4 L 1308.9 536.3 L 1313.8 534.2 L 1318.7 531.9 L 1323.4 529.6 L 1328.3 527.3 L 1333.1 525.0 L 1337.8 522.6 L 1342.5 520.1 L 1347.2 517.6 L 1351.8 515.0 L 1351.8 515.0 L 1356.5 512.3 L 1361.0 509.6 L 1365.5 506.8 L 1370.0 503.8 L 1374.4 500.9 L 1378.8 497.9 L 1383.3 494.8 L 1387.6 491.7 L 1392.0 488.6 L 1396.3 485.4 L 1400.6 482.3 L 1405.0 479.2 L 1409.4 476.1 L 1413.7 473.0 L 1418.1 470.0 L 1422.6 467.0 L 1422.6 467.0 L 1426.9 463.9 L 1431.4 460.9 L 1435.8 457.9 L 1440.1 454.8 L 1444.5 451.7 L 1448.9 448.6 L 1453.2 445.5 L 1457.6 442.4 L 1462.0 439.4 L 1466.4 436.4 L 1470.9 433.4 L 1475.3 430.5 L 1479.9 427.6 L 1484.3 424.8 L 1488.9 422.0 L 1493.5 419.3 L 1493.5 419.3 L 1498.2 416.7 L 1502.8 414.2 L 1507.5 411.6 L 1512.2 409.1 L 1517.0 406.6 L 1521.7 404.2 L 1526.5 401.8 L 1531.3 399.4 L 1536.1 397.1 L 1541.0 395.0 L 1545.9 392.8 L 1550.7 390.7 L 1555.7 388.6 L 1560.7 386.6 L 1565.6 384.7 L 1570.6 382.9 L 1570.6 382.9 L 1575.6 381.1 L 1580.7 379.5 L 1585.8 378.0 L 1590.9 376.6 L 1596.0 375.2 L 1601.2 373.9 L 1606.4 372.7 L 1611.6 371.5 L 1616.9 370.4 L 1622.1 369.2 L 1627.4 368.0 L 1632.6 366.8 L 1637.8 365.6 L 1643.0 364.4 L 1648.2 363.1 L 1653.4 361.8 L 1653.4 361.8 L 1658.5 360.4 L 1663.6 358.9 L 1668.9 357.6 L 1674.0 356.2 L 1679.1 354.7 L 1684.3 353.4 L 1689.4 352.0 L 1694.6 350.4 L 1699.7 349.0 L 1704.8 347.6 L 1709.9 346.1 L 1715.1 344.6 L 1720.2 343.1 L 1725.3 341.5 L 1730.3 339.9 L 1735.5 338.3 L 1735.5 338.3 L 1740.6 336.4 L 1745.9 334.4 L 1751.3 332.2 L 1756.6 329.9 L 1762.1 327.3 L 1767.6 324.9 L 1773.0 322.4 L 1778.4 320.0 L 1783.7 317.7 L 1788.8 315.5 L 1793.8 313.7 L 1798.7 312.0 L 1803.3 310.7 L 1807.8 309.8 L 1811.9 309.3 L 1815.8 309.3 L 1815.8 309.3 L 1819.5 309.8 L 1823.2 310.6 L 1826.9 311.9 L 1830.6 313.5 L 1834.2 315.4 L 1837.6 317.6 L 1840.8 320.0 L 1843.8 322.6 L 1846.5 325.4 L 1848.9 328.3 L 1850.8 331.3 L 1852.4 334.3 L 1853.5 337.4 L 1854.1 340.4 L 1854.2 343.5 L 1853.6 346.4 L 1853.6 346.4 L 1852.3 349.4 L 1850.4 352.4 L 1847.7 355.6 L 1844.5 358.8 L 1840.8 362.2 L 1836.7 365.6 L 1832.1 369.1 L 1827.4 372.7 L 1822.4 376.2 L 1817.3 379.8 L 1812.2 383.5 L 1807.0 387.0 L 1801.9 390.6 L 1797.0 394.1 L 1792.4 397.6 L 1788.1 401.0 L 1788.1 401.0 L 1784.0 404.4 L 1779.9 407.7 L 1775.7 411.2 L 1771.6 414.5 L 1767.5 417.9 L 1763.3 421.3 L 1759.2 424.6 L 1755.0 428.0 L 1750.8 431.3 L 1746.6 434.6 L 1742.5 438.0 L 1738.3 441.3 L 1734.1 444.7 L 1729.9 448.0 L 1725.8 451.3 L 1721.6 454.6 L 1721.6 454.6 L 1717.4 458.0 L 1713.3 461.3 L 1709.2 464.8 L 1705.1 468.2 L 1700.9 471.6 L 1696.8 475.0 L 1692.7 478.5 L 1688.6 481.9 L 1684.4 485.3 L 1680.2 488.5 L 1676.0 491.8 L 1671.7 495.1 L 1667.4 498.2 L 1663.1 501.2 L 1658.7 504.2 L 1654.2 507.0 L 1654.2 507.0 L 1649.7 509.8 L 1645.1 512.5 L 1640.4 515.0 L 1635.7 517.5 L 1631.0 520.0 L 1626.2 522.3 L 1621.3 524.6 L 1616.5 526.8 L 1611.6 529.0 L 1606.7 531.2 L 1601.8 533.4 L 1596.9 535.6 L 1592.0 537.7 L 1587.1 539.9 L 1582.2 542.0 L 1577.4 544.1 L 1577.4 544.1 L 1572.5 546.3 L 1567.5 548.5 L 1562.7 550.6 L 1557.8 552.7 L 1552.8 554.7 L 1547.9 556.8 L 1542.9 558.8 L 1538.0 560.9 L 1533.0 562.9 L 1528.2 564.9 L 1523.2 566.9 L 1518.2 568.9 L 1513.3 571.0 L 1508.4 573.1 L 1503.5 575.2 L 1498.6 577.4 L 1498.6 577.4 L 1493.7 579.6 L 1488.9 581.9 L 1484.1 584.2 L 1479.3 586.6 L 1474.5 589.0 L 1469.7 591.4 L 1464.9 593.9 L 1460.1 596.2 L 1455.3 598.7 L 1450.5 601.0 L 1445.7 603.3 L 1440.9 605.6 L 1436.0 607.7 L 1431.0 609.8 L 1426.2 611.8 L 1421.1 613.6 L 1421.1 613.6 L 1416.2 615.4 L 1411.1 617.1 L 1406.1 618.9 L 1401.0 620.6 L 1395.9 622.3 L 1390.7 623.9 L 1385.6 625.5 L 1380.5 626.9 L 1375.3 628.2 L 1370.1 629.5 L 1364.9 630.7 L 1359.7 631.7 L 1354.5 632.6 L 1349.2 633.4 L 1344.0 633.9 L 1338.8 634.3 L 1338.8 634.3 L 1333.6 634.4 L 1328.2 634.3 L 1322.9 633.8 L 1317.5 633.0 L 1312.0 632.2 L 1306.5 631.1 L 1301.0 630.0 L 1295.6 628.8 L 1290.2 627.6 L 1284.8 626.6 L 1279.4 625.5 L 1274.2 624.6 L 1269.0 623.9 L 1264.0 623.5 L 1259.1 623.4 L 1254.2 623.5 L 1254.2 623.5 L 1249.6 624.0 L 1245.2 624.8 L 1240.8 625.7 L 1236.5 626.8 L 1232.4 628.1 L 1228.4 629.5 L 1224.3 631.0 L 1220.4 632.6 L 1216.4 634.3 L 1212.4 636.0 L 1208.4 637.8 L 1204.4 639.6 L 1200.3 641.3 L 1196.1 643.0 L 1191.7 644.6 L 1187.3 646.2 L 1187.3 646.2 L 1182.6 647.6 L 1177.5 649.1 L 1172.2 650.5 L 1166.8 651.9 L 1161.2 653.3 L 1155.4 654.7 L 1149.7 656.0 L 1144.1 657.5 L 1138.6 659.0 L 1133.4 660.5 L 1128.3 662.1 L 1123.6 663.8 L 1119.3 665.5 L 1115.5 667.4 L 1112.2 669.3 L 1109.5 671.4 L 1109.5 671.4 L 1107.4 673.7 L 1105.9 676.0 L 1104.9 678.5 L 1104.3 681.2 L 1104.1 683.9 L 1104.3 686.8 L 1104.7 689.6 L 1105.3 692.6 L 1106.1 695.5 L 1107.0 698.5 L 1107.9 701.4 L 1108.7 704.3 L 1109.5 707.0 L 1110.2 709.8 L 1110.6 712.5 L 1110.8 715.0 L 1110.8 715.0 L 1110.7 717.5 L 1110.3 720.0 L 1109.7 722.6 L 1109.0 725.1 L 1108.2 727.7 L 1107.4 730.1 L 1106.6 732.6 L 1105.9 735.1 L 1105.4 737.3 L 1105.0 739.6 L 1104.9 741.8 L 1105.0 743.8 L 1105.5 745.7 L 1106.6 747.5 L 1108.0 749.1 L 1109.9 750.5 L 1109.9 750.5 L 1112.4 751.8 L 1115.3 753.0 L 1118.7 754.1 L 1122.5 755.1 L 1126.6 755.9 L 1131.1 756.7 L 1135.8 757.3 L 1140.7 757.9 L 1145.8 758.3 L 1150.9 758.6 L 1156.1 758.8 L 1161.4 758.8 L 1166.6 758.6 L 1171.7 758.3 L 1176.8 757.8 L 1181.7 757.3 L 1181.7 757.3 L 1186.4 756.4 L 1191.2 755.3 L 1196.1 754.0 L 1201.1 752.4 L 1206.0 750.7 L 1211.1 748.8 L 1216.1 746.8 L 1221.1 744.7 L 1226.3 742.6 L 1231.3 740.4 L 1236.4 738.2 L 1241.5 736.0 L 1246.7 733.9 L 1251.7 731.9 L 1256.8 730.0 L 1261.9 728.2 L 1261.9 728.2 L 1267.0 726.5 L 1272.0 724.8 L 1277.1 723.2 L 1282.2 721.6 L 1287.3 720.0 L 1292.4 718.4 L 1297.5 716.9 L 1302.6 715.3 L 1307.7 713.7 L 1312.9 712.2 L 1318.0 710.6 L 1323.0 709.1 L 1328.1 707.5 L 1333.3 706.0 L 1338.4 704.4 L 1343.4 702.8 L 1343.4 702.8 L 1348.6 701.2 L 1353.7 699.5 L 1358.7 698.0 L 1363.8 696.4 L 1368.9 694.7 L 1374.0 693.1 L 1379.1 691.4 L 1384.2 689.8 L 1389.2 688.1 L 1394.3 686.4 L 1399.4 684.8 L 1404.5 683.2 L 1409.5 681.6 L 1414.7 679.9 L 1419.7 678.3 L 1424.8 676.6 L 1424.8 676.6 L 1429.9 675.0 L 1435.0 673.4 L 1440.1 671.7 L 1445.2 670.1 L 1450.3 668.6 L 1455.3 667.0 L 1460.4 665.4 L 1465.6 663.7 L 1470.6 662.1 L 1475.7 660.5 L 1480.9 658.9 L 1485.9 657.2 L 1491.0 655.6 L 1496.1 653.9 L 1501.2 652.3 L 1506.2 650.7 L 1506.2 650.7 L 1511.3 649.0 L 1516.4 647.3 L 1521.4 645.6 L 1526.5 643.9 L 1531.6 642.2 L 1536.6 640.5 L 1541.7 638.8 L 1546.8 637.1 L 1551.8 635.4 L 1556.9 633.6 L 1561.9 631.9 L 1567.0 630.2 L 1572.0 628.4 L 1577.0 626.6 L 1582.1 624.9 L 1587.1 623.1 L 1587.1 623.1 L 1592.2 621.3 L 1597.3 619.7 L 1602.3 617.9 L 1607.4 616.1 L 1612.4 614.4 L 1617.4 612.6 L 1622.5 610.9 L 1627.5 609.1 L 1632.6 607.3 L 1637.6 605.6 L 1642.6 603.7 L 1647.6 601.8 L 1652.6 599.9 L 1657.6 598.0 L 1662.6 596.0 L 1667.5 594.0 L 1667.5 594.0 L 1672.4 591.9 L 1677.3 589.8 L 1682.2 587.7 L 1687.1 585.5 L 1692.0 583.3 L 1696.8 581.0 L 1701.6 578.8 L 1706.5 576.5 L 1711.3 574.2 L 1716.1 571.9 L 1720.9 569.5 L 1725.6 567.1 L 1730.4 564.6 L 1735.1 562.2 L 1739.8 559.7 L 1744.5 557.2 L 1744.5 557.2 L 1749.2 554.6 L 1753.9 552.0 L 1758.5 549.3 L 1763.1 546.6 L 1767.6 543.8 L 1772.2 541.0 L 1776.7 538.2 L 1781.2 535.3 L 1785.8 532.5 L 1790.3 529.6 L 1794.8 526.8 L 1799.3 523.9 L 1803.8 521.0 L 1808.4 518.1 L 1812.8 515.3 L 1817.4 512.5 L 1817.4 512.5 L 1822.0 509.6 L 1826.5 506.9 L 1831.1 504.0 L 1835.6 501.2 L 1840.1 498.4 L 1844.7 495.6 L 1849.2 492.7 L 1853.7 490.0 L 1858.3 487.1 L 1862.8 484.3 L 1867.3 481.5 L 1871.9 478.6 L 1876.3 475.8 L 1880.9 472.9 L 1885.4 470.1 L 1889.9 467.3 L 1889.9 467.3 L 1894.5 464.4 L 1899.0 461.6 L 1903.5 458.8 L 1908.1 455.9 L 1912.7 453.2 L 1917.2 450.4 L 1921.8 447.5 L 1926.3 444.8 L 1930.8 441.9 L 1935.4 439.1 L 1939.9 436.2 L 1944.4 433.4 L 1948.8 430.4 L 1953.3 427.4 L 1957.6 424.4 L 1962.0 421.3 L 1962.0 421.3 L 1966.4 418.2 L 1970.7 415.1 L 1975.2 412.0 L 1979.6 408.9 L 1984.0 405.8 L 1988.4 402.7 L 1992.8 399.5 L 1997.1 396.3 L 2000.0 394.1" fill="none" stroke="#a05bff" stroke-width="6.0" stroke-opacity="0.9"/></g><g id="clips"><circle cx="1657.1" cy="0.0" r="2" fill="none" stroke="#0b5" stroke-width="0.6"/><circle cx="1465.4" cy="55.8" r="2" fill="none" stroke="#0b5" stroke-width="0.6"/><circle cx="1267.6" cy="85.5" r="2" fill="none" stroke="#0b5" stroke-width="0.6"/><circle cx="1069.3" cy="110.4" r="2" fill="none" stroke="#0b5" stroke-width="0.6"/><circle cx="880.4" cy="174.2" r="2" fill="none" stroke="#0b5" stroke-width="0.6"/><circle cx="705.9" cy="271.5" r="2" fill="none" stroke="#0b5" stroke-width="0.6"/><circle cx="534.5" cy="373.5" r="2" fill="none" stroke="#0b5" stroke-width="0.6"/><circle cx="385.9" cy="507.0" r="2" fill="none" stroke="#0b5" stroke-width="0.6"/><circle cx="198.1" cy="568.0" r="2" fill="none" stroke="#0b5" stroke-width="0.6"/><circle cx="70.5" cy="682.9" r="2" fill="none" stroke="#0b5" stroke-width="0.6"/><circle cx="254.3" cy="676.6" r="2" fill="none" stroke="#0b5" stroke-width="0.6"/><circle cx="420.4" cy="575.3" r="2" fill="none" stroke="#0b5" stroke-width="0.6"/><circle cx="600.6" cy="490.1" r="2" fill="none" stroke="#0b5" stroke-width="0.6"/><circle cx="777.0" cy="399.7" r="2" fill="none" stroke="#0b5" stroke-width="0.6"/><circle cx="953.7" cy="314.2" r="2" fill="none" stroke="#0b5" stroke-width="0.6"/><circle cx="1152.6" cy="298.3" r="2" fill="none" stroke="#0b5" stroke-width="0.6"/><circle cx="1153.0" cy="404.1" r="2" fill="none" stroke="#0b5" stroke-width="0.6"/><circle cx="979.3" cy="503.2" r="2" fill="none" stroke="#0b5" stroke-width="0.6"/><circle cx="813.2" cy="614.5" r="2" fill="none" stroke="#0b5" stroke-width="0.6"/><circle cx="643.8" cy="720.2" r="2" fill="none" stroke="#0b5" stroke-width="0.6"/><circle cx="495.9" cy="852.0" r="2" fill="none" stroke="#0b5" stroke-width="0.6"/><circle cx="319.6" cy="941.9" r="2" fill="none" stroke="#0b5" stroke-width="0.6"/><circle cx="242.6" cy="1000.0" r="2" fill="none" stroke="#0b5" stroke-width="0.6"/><circle cx="434.2" cy="1000.0" r="2" fill="none" stroke="#0b5" stroke-width="0.6"/><circle cx="612.9" cy="912.3" r="2" fill="none" stroke="#0b5" stroke-width="0.6"/><circle cx="795.2" cy="833.7" r="2" fill="none" stroke="#0b5" stroke-width="0.6"/><circle cx="941.2" cy="698.3" r="2" fill="none" stroke="#0b5" stroke-width="0.6"/><circle cx="1123.4" cy="616.4" r="2" fill="none" stroke="#0b5" stroke-width="0.6"/><circle cx="1306.7" cy="537.2" r="2" fill="none" stroke="#0b5" stroke-width="0.6"/><circle cx="1475.3" cy="430.5" r="2" fill="none" stroke="#0b5" stroke-width="0.6"/><circle cx="1660.9" cy="359.7" r="2" fill="none" stroke="#0b5" stroke-width="0.6"/><circle cx="1847.2" cy="326.2" r="2" fill="none" stroke="#0b5" stroke-width="0.6"/><circle cx="1716.6" cy="458.7" r="2" fill="none" stroke="#0b5" stroke-width="0.6"/><circle cx="1544.6" cy="558.1" r="2" fill="none" stroke="#0b5" stroke-width="0.6"/><circle cx="1359.3" cy="631.8" r="2" fill="none" stroke="#0b5" stroke-width="0.6"/><circle cx="1165.3" cy="652.3" r="2" fill="none" stroke="#0b5" stroke-width="0.6"/><circle cx="1165.3" cy="758.6" r="2" fill="none" stroke="#0b5" stroke-width="0.6"/><circle cx="1355.5" cy="699.0" r="2" fill="none" stroke="#0b5" stroke-width="0.6"/><circle cx="1545.8" cy="637.4" r="2" fill="none" stroke="#0b5" stroke-width="0.6"/><circle cx="1731.6" cy="564.0" r="2" fill="none" stroke="#0b5" stroke-width="0.6"/><circle cx="1902.1" cy="459.7" r="2" fill="none" stroke="#0b5" stroke-width="0.6"/><circle cx="2000.0" cy="394.1" r="2" fill="none" stroke="#0b5" stroke-width="0.6"/></g><g id="power"><circle cx="242.7" cy="1000.0" r="5" fill="none" stroke="#e33" stroke-width="1"/><circle cx="434.3" cy="1000.0" r="5" fill="none" stroke="#e33" stroke-width="1"/><circle cx="1657.2" cy="0.0" r="5" fill="none" stroke="#e33" stroke-width="1"/><circle cx="2000.0" cy="394.1" r="5" fill="none" stroke="#e33" stroke-width="1"/></g><g id="bridges"></g></svg>