<svg xmlns="http://www.w3.org/2000/svg" width="2000mm" height="1000mm" viewBox="0 0 2000 1000"><g id="outline"><rect x="0" y="0" width="2000" height="1000" fill="none" stroke="#000" stroke-width="1"/></g><g id="channels"><path d="M 1102.6 645.5 L 1105.3 646.6 L 1108.6 647.9 L 1112.3 649.5 L 1116.4 651.4 L 1121.0 653.4 L 1125.8 655.5 L 1131.0 657.8 L 1136.2 660.0 L 1141.8 662.3 L 1147.4 664.6 L 1153.0 666.8 L 1158.7 668.8 L 1164.3 670.7 L 1169.8 672.5 L 1175.1 673.9 L 1180.3 675.2 L 1180.3 675.2 L 1185.5 676.1 L 1190.8 676.8 L 1196.4 677.3 L 1202.0 677.6 L 1207.7 677.8 L 1213.5 677.8 L 1219.2 677.8 L 1225.0 677.7 L 1230.6 677.6 L 1236.0 677.6 L 1241.3 677.6 L 1246.4 677.8 L 1251.2 678.1 L 1255.6 678.5 L 1259.6 679.2 L 1263.3 680.1 L 1263.3 680.1 L 1266.8 681.3 L 1270.2 682.6 L 1273.5 684.2 L 1276.7 685.9 L 1279.7 687.8 L 1282.6 689.7 L 1285.2 691.7 L 1287.4 693.7 L 1289.5 695.8 L 1291.1 697.9 L 1292.3 699.9 L 1293.1 701.9 L 1293.4 703.9 L 1293.2 705.7 L 1292.4 707.4 L 1291.1 708.9 L 1291.1 708.9 L 1288.8 710.3 L 1285.3 711.5 L 1281.0 712.7 L 1275.9 713.7 L 1270.1 714.6 L 1263.8 715.6 L 1257.3 716.4 L 1250.5 717.2 L 1243.8 718.2 L 1237.2 719.1 L 1230.9 720.0 L 1225.1 721.1 L 1220.0 722.3 L 1215.6 723.5 L 1212.3 725.0 L 1209.9 726.6 L 1209.9 726.6 L 1208.7 728.3 L 1208.4 730.3 L 1208.8 732.4 L 1209.9 734.5 L 1211.6 736.7 L 1213.7 739.1 L 1216.1 741.5 L 1218.8 743.9 L 1221.7 746.5 L 1224.6 749.0 L 1227.5 751.5 L 1230.2 753.9 L 1232.5 756.4 L 1234.6 758.8 L 1236.1 761.1 L 1237.1 763.4 L 1237.1 763.4 L 1237.8 765.5 L 1238.3 767.8 L 1238.7 770.1 L 1239.1 772.3 L 1239.3 774.6 L 1239.4 776.9 L 1239.4 779.1 L 1239.1 781.3 L 1238.8 783.5 L 1238.3 785.6 L 1237.6 787.6 L 1236.8 789.6 L 1235.8 791.5 L 1234.5 793.3 L 1233.0 794.9 L 1231.3 796.4 L 1231.3 796.4 L 1229.2 797.7 L 1226.5 798.8 L 1223.2 799.6 L 1219.4 800.1 L 1215.4 800.6 L 1211.1 801.0 L 1206.7 801.3 L 1202.4 801.7 L 1198.1 802.0 L 1194.0 802.5 L 1190.3 803.2 L 1187.0 803.9 L 1184.1 805.0 L 1182.0 806.3 L 1180.5 808.0 L 1179.9 810.1 L 1179.9 810.1 L 1180.4 812.6 L 1181.9 815.8 L 1184.5 819.5 L 1187.7 823.5 L 1191.5 827.9 L 1195.7 832.5 L 1200.3 837.2 L 1205.0 841.9 L 1209.6 846.5 L 1213.9 851.0 L 1218.0 855.2 L 1221.5 858.9 L 1224.3 862.3 L 1226.2 865.0 L 1227.1 867.1 L 1226.9 868.4 L 1226.9 868.4 L 1225.5 868.9 L 1222.9 868.7 L 1219.7 867.8 L 1215.5 866.3 L 1210.8 864.5 L 1205.5 862.1 L 1199.8 859.6 L 1194.0 856.8 L 1187.8 854.0 L 1181.7 851.1 L 1175.6 848.4 L 1169.8 845.8 L 1164.2 843.4 L 1159.2 841.4 L 1154.6 839.8 L 1150.9 838.8 L 1150.9 838.8 L 1147.6 838.2 L 1144.6 837.8 L 1141.9 837.5 L 1139.4 837.5 L 1137.0 837.7 L 1134.9 837.9 L 1132.9 838.4 L 1131.0 838.9 L 1129.3 839.5 L 1127.6 840.1 L 1125.9 840.9 L 1124.2 841.7 L 1122.5 842.6 L 1120.7 843.3 L 1118.9 844.2 L 1116.9 844.9 L 1116.9 844.9 L 1115.0 845.9 L 1113.2 847.2 L 1111.5 848.7 L 1109.9 850.4 L 1108.3 852.1 L 1106.8 854.1 L 1105.3 855.9 L 1103.7 857.8 L 1102.0 859.5 L 1100.2 861.0 L 1098.4 862.4 L 1096.3 863.5 L 1094.2 864.2 L 1091.8 864.4 L 1089.1 864.2 L 1086.3 863.5 L 1086.3 863.5 L 1083.2 862.2 L 1079.8 860.4 L 1076.2 858.0 L 1072.5 855.2 L 1068.5 852.1 L 1064.5 848.6 L 1060.4 845.0 L 1056.1 841.1 L 1051.7 837.3 L 1047.3 833.3 L 1042.8 829.5 L 1038.2 825.6 L 1033.7 822.0 L 1029.1 818.6 L 1024.5 815.5 L 1020.1 812.7 L 1020.1 812.7 L 1015.5 810.3 L 1010.9 807.9 L 1006.3 805.6 L 1001.6 803.3 L 996.9 801.2 L 992.1 799.1 L 987.3 797.1 L 982.4 795.2 L 977.5 793.3 L 972.6 791.6 L 967.7 789.9 L 962.7 788.3 L 957.7 786.8 L 952.7 785.4 L 947.7 784.1 L 942.7 782.8 L 942.7 782.8 L 937.7 781.7 L 932.6 780.7 L 927.5 779.9 L 922.4 779.1 L 917.2 778.6 L 912.0 778.0 L 906.8 777.5 L 901.6 777.1 L 896.3 776.8 L 891.1 776.5 L 885.8 776.1 L 880.6 775.8 L 875.4 775.4 L 870.1 775.0 L 864.9 774.5 L 859.7 774.0 L 859.7 774.0 L 854.6 773.4 L 849.4 772.9 L 844.2 772.4 L 839.0 771.9 L 833.8 771.3 L 828.6 770.8 L 823.4 770.3 L 818.2 769.8 L 813.0 769.2 L 807.9 768.6 L 802.7 768.1 L 797.5 767.5 L 792.4 766.8 L 787.1 766.1 L 782.0 765.4 L 776.9 764.6 L 776.9 764.6 L 771.7 763.8 L 766.6 762.9 L 761.4 762.0 L 756.3 761.0 L 751.2 760.0 L 746.1 759.0 L 741.0 757.9 L 735.9 756.8 L 730.8 755.7 L 725.7 754.6 L 720.5 753.5 L 715.5 752.4 L 710.4 751.4 L 705.2 750.3 L 700.1 749.3 L 695.0 748.3 L 695.0 748.3 L 689.9 747.3 L 684.7 746.3 L 679.6 745.3 L 674.5 744.3 L 669.5 743.2 L 664.3 742.2 L 659.2 741.2 L 654.1 740.2 L 649.0 739.2 L 643.8 738.2 L 638.7 737.3 L 633.6 736.4 L 628.4 735.5 L 623.3 734.6 L 618.1 733.8 L 613.0 733.0 L 613.0 733.0 L 607.8 732.3 L 602.7 731.5 L 597.5 730.8 L 592.3 730.2 L 587.1 729.5 L 581.9 728.8 L 576.8 728.2 L 571.6 727.7 L 566.4 727.1 L 561.2 726.6 L 556.0 726.1 L 550.9 725.6 L 545.6 725.1 L 540.4 724.7 L 535.2 724.3 L 530.0 723.9 L 530.0 723.9 L 524.8 723.5 L 519.6 723.1 L 514.4 722.8 L 509.2 722.5 L 504.0 722.2 L 498.8 721.9 L 493.6 721.7 L 488.4 721.5 L 483.1 721.3 L 477.9 721.1 L 472.7 721.0 L 467.5 720.8 L 462.3 720.8 L 457.1 720.7 L 451.9 720.6 L 446.6 720.5 L 446.6 720.5 L 441.4 720.5 L 436.2 720.6 L 431.0 720.7 L 425.8 720.8 L 420.6 720.9 L 415.4 721.2 L 410.2 721.4 L 404.9 721.6 L 399.7 721.8 L 394.5 722.0 L 389.3 722.2 L 384.0 722.4 L 378.8 722.5 L 373.6 722.6 L 368.4 722.7 L 363.2 722.7 L 363.2 722.7 L 358.0 722.7 L 352.8 722.7 L 347.6 722.7 L 342.4 722.7 L 337.2 722.7 L 331.9 722.7 L 326.7 722.6 L 321.4 722.5 L 316.2 722.4 L 311.0 722.3 L 305.8 722.1 L 300.6 721.9 L 295.4 721.7 L 290.2 721.4 L 285.0 721.0 L 279.8 720.6 L 279.8 720.6 L 274.7 720.2 L 269.5 719.7 L 264.2 719.2 L 259.0 718.6 L 253.9 718.0 L 248.7 717.4 L 243.5 716.7 L 238.4 716.0 L 233.2 715.3 L 228.0 714.5 L 222.8 713.7 L 217.7 712.9 L 212.6 711.9 L 207.5 711.0 L 202.3 710.1 L 197.2 709.1 L 197.2 709.1 L 192.1 708.1 L 187.0 707.1 L 181.8 706.1 L 176.6 705.1 L 171.5 704.0 L 166.3 703.0 L 161.2 701.9 L 156.1 700.7 L 151.0 699.4 L 145.9 698.2 L 140.8 696.7 L 135.9 695.3 L 130.9 693.7 L 126.1 692.0 L 121.2 690.2 L 116.5 688.3 L 116.5 688.3 L 111.7 686.2 L 107.0 684.1 L 102.3 681.9 L 97.7 679.6 L 93.0 677.2 L 88.3 674.7 L 83.8 672.1 L 79.3 669.4 L 74.8 666.8 L 70.5 663.9 L 66.1 661.0 L 61.9 657.9 L 57.7 654.8 L 53.7 651.7 L 49.7 648.4 L 45.8 645.1 L 45.8 645.1 L 42.1 641.6 L 38.4 637.9 L 34.8 634.2 L 31.4 630.4 L 28.0 626.4 L 24.8 622.4 L 21.6 618.3 L 18.5 614.1 L 15.4 609.8 L 12.2 605.5 L 9.3 601.2 L 6.3 596.9 L 3.3 592.5 L 0.4 588.1 L 0.0 587.5" fill="none" stroke="#ff7a1a" stroke-width="6.0" stroke-opacity="0.9"/><path d="M 0.0 120.5 L 1.5 121.5 L 6.4 124.9 L 11.3 128.2 L 16.2 131.8 L 21.1 135.3 L 25.9 138.8 L 30.6 142.4 L 35.3 146.1 L 40.0 149.9 L 44.7 153.7 L 49.3 157.5 L 53.9 161.3 L 58.4 165.2 L 63.0 169.1 L 67.5 173.0 L 72.0 176.9 L 72.0 176.9 L 76.4 181.0 L 80.9 185.0 L 85.2 189.1 L 89.5 193.2 L 93.8 197.4 L 98.0 201.6 L 102.2 205.9 L 106.4 210.2 L 110.6 214.6 L 114.7 218.9 L 118.9 223.2 L 123.0 227.6 L 127.2 231.9 L 131.4 236.3 L 135.5 240.5 L 139.7 244.8 L 139.7 244.8 L 143.9 249.1 L 148.1 253.4 L 152.3 257.6 L 156.6 261.9 L 160.8 266.1 L 165.1 270.4 L 169.3 274.6 L 173.5 278.8 L 177.8 283.1 L 181.9 287.4 L 186.0 291.8 L 190.2 296.1 L 194.1 300.6 L 198.1 305.0 L 201.9 309.6 L 205.7 314.2 L 205.7 314.2 L 209.4 318.9 L 213.0 323.6 L 216.6 328.4 L 220.1 333.3 L 223.5 338.1 L 226.9 343.1 L 230.2 348.1 L 233.5 353.1 L 236.8 358.1 L 240.0 363.2 L 243.2 368.2 L 246.4 373.3 L 249.6 378.4 L 252.8 383.4 L 256.0 388.5 L 259.2 393.5 L 259.2 393.5 L 262.4 398.6 L 265.5 403.7 L 268.5 408.9 L 271.6 414.1 L 274.5 419.3 L 277.5 424.6 L 280.5 429.8 L 283.4 435.1 L 286.3 440.3 L 289.4 445.5 L 292.4 450.6 L 295.5 455.7 L 298.7 460.8 L 302.0 465.7 L 305.3 470.7 L 308.8 475.6 L 308.8 475.6 L 312.3 480.4 L 315.9 485.1 L 319.5 489.9 L 323.2 494.7 L 326.9 499.5 L 330.7 504.2 L 334.6 508.8 L 338.4 513.5 L 342.4 518.0 L 346.5 522.4 L 350.6 526.8 L 354.8 531.1 L 359.1 535.2 L 363.4 539.2 L 367.9 543.0 L 372.4 546.7 L 372.4 546.7 L 377.1 550.3 L 381.9 553.8 L 386.8 557.1 L 391.8 560.4 L 397.0 563.6 L 402.1 566.6 L 407.4 569.6 L 412.7 572.4 L 418.0 575.2 L 423.4 577.8 L 429.0 580.3 L 434.4 582.8 L 440.0 585.0 L 445.5 587.2 L 451.1 589.2 L 456.7 591.2 L 456.7 591.2 L 462.3 592.9 L 468.0 594.5 L 473.7 595.9 L 479.5 597.2 L 485.4 598.3 L 491.3 599.4 L 497.3 600.3 L 503.2 601.1 L 509.2 601.8 L 515.2 602.6 L 521.2 603.2 L 527.2 603.8 L 533.2 604.4 L 539.2 605.0 L 545.1 605.7 L 551.1 606.4 L 551.1 606.4 L 557.1 606.9 L 563.0 607.5 L 569.0 608.0 L 575.0 608.5 L 580.9 608.9 L 586.9 609.2 L 592.9 609.5 L 598.9 609.8 L 604.9 610.1 L 610.8 610.5 L 616.8 610.7 L 622.8 611.1 L 628.8 611.5 L 634.8 611.9 L 640.7 612.3 L 646.7 612.8 L 646.7 612.8 L 652.7 613.4 L 658.6 614.0 L 664.6 614.6 L 670.6 615.2 L 676.5 615.8 L 682.5 616.4 L 688.4 617.0 L 694.4 617.7 L 700.4 618.4 L 706.3 619.1 L 712.2 619.9 L 718.2 620.6 L 724.1 621.4 L 730.0 622.2 L 736.0 623.1 L 741.9 623.9 L 741.9 623.9 L 747.8 624.8 L 753.7 625.8 L 759.6 626.9 L 765.5 628.0 L 771.4 629.1 L 777.2 630.3 L 783.1 631.5 L 789.0 632.6 L 794.9 633.9 L 800.8 635.1 L 806.6 636.2 L 812.5 637.4 L 818.5 638.4 L 824.4 639.5 L 830.2 640.4 L 836.1 641.3 L 836.1 641.3 L 842.1 642.1 L 848.0 643.2 L 854.1 644.3 L 860.1 645.4 L 866.2 646.6 L 872.2 647.8 L 878.3 648.9 L 884.3 649.9 L 890.4 650.7 L 896.3 651.5 L 902.3 652.1 L 908.2 652.4 L 914.1 652.5 L 919.8 652.2 L 925.5 651.7 L 931.1 650.9 L 931.1 650.9 L 936.7 649.7 L 942.3 648.3 L 947.8 646.6 L 953.3 644.7 L 958.8 642.5 L 964.2 640.1 L 969.6 637.5 L 975.0 634.7 L 980.3 631.9 L 985.4 628.8 L 990.5 625.6 L 995.5 622.3 L 1000.4 618.9 L 1005.2 615.4 L 1009.9 611.8 L 1014.5 608.2 L 1014.5 608.2 L 1019.0 604.2 L 1023.4 599.6 L 1027.8 594.5 L 1032.2 589.1 L 1036.5 583.3 L 1040.7 577.5 L 1044.7 571.6 L 1048.7 565.7 L 1052.6 560.0 L 1056.3 554.6 L 1059.9 549.6 L 1063.3 545.0 L 1066.5 541.1 L 1069.6 537.9 L 1072.5 535.5 L 1075.2 534.1 L 1075.2 534.1 L 1077.7 533.6 L 1080.1 533.7 L 1082.4 534.5 L 1084.6 535.9 L 1086.6 537.7 L 1088.5 540.2 L 1090.2 542.9 L 1091.7 546.1 L 1093.2 549.7 L 1094.3 553.4 L 1095.3 557.5 L 1096.1 561.6 L 1096.6 565.9 L 1096.9 570.2 L 1097.0 574.5 L 1096.9 578.8 L 1096.9 578.8 L 1096.3 583.3 L 1095.3 588.5 L 1093.9 594.3 L 1092.1 600.3 L 1090.0 606.8 L 1087.8 613.4 L 1085.3 620.1 L 1082.7 626.9 L 1080.1 633.6 L 1077.5 640.1 L 1075.1 646.3 L 1072.7 652.1 L 1070.6 657.4 L 1068.6 662.1 L 1067.1 666.2 L 1065.9 669.4" fill="none" stroke="#ff7a1a" stroke-width="6.0" stroke-opacity="0.9"/><path d="M 137.9 717.4 L 137.5 720.6 L 136.8 724.5 L 136.0 728.9 L 135.1 734.0 L 134.1 739.4 L 133.0 745.2 L 131.9 751.3 L 130.9 757.7 L 129.8 764.3 L 128.8 771.0 L 127.9 777.6 L 127.2 784.4 L 126.5 790.9 L 126.0 797.3 L 125.6 803.5 L 125.6 809.4 L 125.6 809.4 L 125.6 815.1 L 125.7 820.9 L 125.8 826.7 L 126.0 832.6 L 126.2 838.5 L 126.6 844.4 L 127.1 850.3 L 127.7 856.1 L 128.4 861.9 L 129.3 867.6 L 130.4 873.2 L 131.7 878.8 L 133.3 884.1 L 135.1 889.4 L 137.2 894.5 L 139.4 899.3 L 139.4 899.3 L 142.1 904.2 L 145.0 909.0 L 148.2 913.7 L 151.7 918.4 L 155.4 923.0 L 159.2 927.6 L 163.3 932.0 L 167.6 936.3 L 171.9 940.4 L 176.5 944.4 L 181.1 948.2 L 185.9 951.7 L 190.7 955.0 L 195.4 958.1 L 200.3 960.9 L 205.2 963.5 L 205.2 963.5 L 210.2 965.8 L 215.4 968.0 L 220.8 969.9 L 226.4 971.8 L 232.0 973.4 L 237.8 974.7 L 243.7 975.9 L 249.5 976.9 L 255.5 977.6 L 261.4 978.1 L 267.3 978.5 L 273.1 978.5 L 278.9 978.3 L 284.5 977.8 L 289.9 977.1 L 295.3 976.1 L 295.3 976.1 L 300.5 974.8 L 305.8 973.1 L 311.0 971.2 L 316.3 969.0 L 321.5 966.5 L 326.7 963.7 L 331.9 960.8 L 336.9 957.6 L 341.8 954.1 L 346.6 950.6 L 351.4 946.9 L 355.9 943.1 L 360.3 939.2 L 364.4 935.1 L 368.4 931.1 L 372.1 926.9 L 372.1 926.9 L 375.6 922.7 L 379.0 918.2 L 382.2 913.5 L 385.2 908.6 L 388.1 903.5 L 390.7 898.4 L 393.3 893.1 L 395.7 887.8 L 398.0 882.2 L 400.2 876.7 L 402.3 871.1 L 404.4 865.5 L 406.3 859.9 L 408.1 854.3 L 410.0 848.8 L 411.7 843.2 L 411.7 843.2 L 413.4 837.6 L 415.0 831.6 L 416.5 825.3 L 418.0 818.9 L 419.2 812.2 L 420.5 805.6 L 421.6 799.0 L 422.6 792.4 L 423.6 786.0 L 424.4 779.9 L 425.3 774.1 L 426.0 768.6 L 426.7 763.6 L 427.4 759.2 L 428.0 755.3 L 428.5 752.1" fill="none" stroke="#ff7a1a" stroke-width="6.0" stroke-opacity="0.9"/><path d="M 219.5 805.6 L 218.9 805.0 L 218.1 804.3 L 217.2 803.6 L 216.2 802.8 L 215.0 801.9 L 213.8 801.0 L 212.6 800.0 L 211.2 798.9 L 210.0 797.8 L 208.7 796.6 L 207.5 795.4 L 206.5 794.3 L 205.4 793.0 L 204.5 791.7 L 203.8 790.6 L 203.3 789.3 L 203.3 789.3 L 202.8 788.0 L 202.5 786.6 L 202.3 785.2 L 202.2 783.8 L 202.1 782.3 L 202.1 780.7 L 202.2 779.2 L 202.3 777.6 L 202.5 776.0 L 202.8 774.4 L 203.0 772.8 L 203.3 771.3 L 203.7 769.7 L 204.0 768.2 L 204.4 766.8 L 204.8 765.4 L 204.8 765.4 L 205.3 763.9 L 205.9 762.4 L 206.5 760.9 L 207.2 759.3 L 208.0 757.8 L 208.9 756.2 L 209.7 754.7 L 210.7 753.2 L 211.5 751.8 L 212.3 750.4 L 213.2 749.1 L 213.9 747.8 L 214.7 746.7 L 215.3 745.7 L 215.8 744.8 L 216.2 744.1" fill="none" stroke="#ff7a1a" stroke-width="6.0" stroke-opacity="0.9"/><path d="M 966.1 624.8 L 965.4 623.2 L 964.7 621.1 L 964.0 618.5 L 963.4 615.7 L 962.6 612.5 L 961.8 609.1 L 960.9 605.7 L 959.8 602.2 L 958.5 598.8 L 957.1 595.4 L 955.4 592.3 L 953.4 589.6 L 951.1 587.1 L 948.5 585.1 L 945.6 583.6 L 942.2 582.8 L 942.2 582.8 L 938.4 582.6 L 934.1 582.9 L 929.5 583.8 L 924.5 585.1 L 919.1 586.8 L 913.5 588.8 L 907.7 591.0 L 901.6 593.3 L 895.4 595.7 L 889.2 598.0 L 882.9 600.3 L 876.6 602.5 L 870.4 604.4 L 864.2 606.0 L 858.2 607.3 L 852.3 608.0 L 852.3 608.0 L 846.6 608.5 L 840.8 608.7 L 835.0 608.8 L 829.2 608.6 L 823.4 608.3 L 817.6 607.9 L 811.7 607.4 L 805.8 606.7 L 799.9 605.9 L 794.0 605.2 L 788.2 604.3 L 782.4 603.5 L 776.5 602.6 L 770.6 601.7 L 764.8 601.0 L 758.9 600.1 L 758.9 600.1 L 753.1 599.4 L 747.3 598.6 L 741.5 597.7 L 735.7 596.8 L 729.9 595.9 L 724.1 594.8 L 718.4 593.8 L 712.6 592.8 L 706.8 591.7 L 701.0 590.7 L 695.2 589.6 L 689.5 588.5 L 683.7 587.5 L 677.9 586.5 L 672.1 585.5 L 666.4 584.5 L 666.4 584.5 L 660.6 583.6 L 654.8 582.6 L 649.0 581.7 L 643.2 580.7 L 637.4 579.6 L 631.7 578.6 L 625.9 577.7 L 620.1 576.7 L 614.3 575.8 L 608.5 574.9 L 602.7 573.9 L 596.9 573.0 L 591.1 572.1 L 585.3 571.2 L 579.4 570.5 L 573.6 569.6 L 573.6 569.6 L 567.8 569.0 L 562.0 568.3 L 556.1 567.7 L 550.3 567.1 L 544.5 566.6 L 538.6 566.1 L 532.7 565.6 L 526.9 565.1 L 521.0 564.7 L 515.2 564.2 L 509.4 563.7 L 503.5 563.1 L 497.7 562.5 L 491.8 561.9 L 486.0 561.2 L 480.2 560.4 L 480.2 560.4 L 474.2 559.6 L 467.9 558.6 L 461.5 557.6 L 454.8 556.5 L 448.1 555.4 L 441.4 554.2 L 434.7 553.0 L 428.1 551.8 L 421.7 550.7 L 415.6 549.6 L 409.7 548.5 L 404.3 547.5 L 399.3 546.5 L 394.9 545.7 L 390.9 545.0 L 387.7 544.4" fill="none" stroke="#ff7a1a" stroke-width="6.0" stroke-opacity="0.9"/></g><g id="clips"><circle cx="1102.6" cy="645.5" r="2" fill="none" stroke="#0b5" stroke-width="0.6"/><circle cx="0.0" cy="587.5" r="2" fill="none" stroke="#0b5" stroke-width="0.6"/><circle cx="0.0" cy="120.5" r="2" fill="none" stroke="#0b5" stroke-width="0.6"/><circle cx="1065.9" cy="669.4" r="2" fill="none" stroke="#0b5" stroke-width="0.6"/><circle cx="137.9" cy="717.4" r="2" fill="none" stroke="#0b5" stroke-width="0.6"/><circle cx="428.5" cy="752.1" r="2" fill="none" stroke="#0b5" stroke-width="0.6"/><circle cx="219.5" cy="805.6" r="2" fill="none" stroke="#0b5" stroke-width="0.6"/><circle cx="966.1" cy="624.8" r="2" fill="none" stroke="#0b5" stroke-width="0.6"/><circle cx="387.7" cy="544.4" r="2" fill="none" stroke="#0b5" stroke-width="0.6"/></g><g id="power"><circle cx="0.0" cy="587.5" r="5" fill="none" stroke="#e33" stroke-width="1"/><circle cx="0.0" cy="120.5" r="5" fill="none" stroke="#e33" stroke-width="1"/></g><g id="bridges"><circle cx="1091.4" cy="639.5" r="9" fill="none" stroke="#e6a817" stroke-width="1.5"/><circle cx="1091.4" cy="639.5" r="9" fill="none" stroke="#e6a817" stroke-width="1.5"/><circle cx="1186.6" cy="839.5" r="9" fill="none" stroke="#e6a817" stroke-width="1.5"/><circle cx="147.0" cy="709.0" r="9" fill="none" stroke="#e6a817" stroke-width="1.5"/><circle cx="147.0" cy="709.0" r="9" fill="none" stroke="#e6a817" stroke-width="1.5"/><circle cx="375.6" cy="541.8" r="9" fill="none" stroke="#e6a817" stroke-width="1.5"/><circle cx="398.2" cy="552.8" r="9" fill="none" stroke="#e6a817" stroke-width="1.5"/><circle cx="411.2" cy="560.4" r="9" fill="none" stroke="#e6a817" stroke-width="1.5"/><circle cx="738.8" cy="610.4" r="9" fill="none" stroke="#e6a817" stroke-width="1.5"/><circle cx="744.6" cy="611.2" r="9" fill="none" stroke="#e6a817" stroke-width="1.5"/><circle cx="959.7" cy="634.8" r="9" fill="none" stroke="#e6a817" stroke-width="1.5"/><circle cx="973.2" cy="628.3" r="9" fill="none" stroke="#e6a817" stroke-width="1.5"/><circle cx="975.8" cy="626.8" r="9" fill="none" stroke="#e6a817" stroke-width="1.5"/><circle cx="959.7" cy="634.8" r="9" fill="none" stroke="#e6a817" stroke-width="1.5"/></g></svg>