<svg xmlns="http://www.w3.org/2000/svg" width="1000mm" height="2000mm" viewBox="0 0 1000 2000"><g id="outline"><rect x="0" y="0" width="1000" height="2000" fill="none" stroke="#000" stroke-width="1"/></g><g id="channels"><path d="M 0.0 558.0 L 2.4 561.1 L 6.4 566.2 L 10.5 571.2 L 14.6 576.2 L 18.7 581.1 L 22.9 586.1 L 27.1 591.0 L 31.3 595.9 L 35.6 600.7 L 39.8 605.6 L 44.1 610.5 L 48.3 615.3 L 52.5 620.2 L 52.5 620.2 L 56.7 625.1 L 61.0 629.9 L 65.3 634.7 L 69.7 639.5 L 74.0 644.3 L 78.4 649.0 L 82.8 653.7 L 87.2 658.5 L 91.6 663.2 L 96.0 667.9 L 100.3 672.7 L 104.7 677.4 L 109.0 682.2 L 113.3 687.0 L 117.6 691.9 L 121.8 696.7 L 121.8 696.7 L 126.1 701.6 L 130.3 706.5 L 134.6 711.3 L 138.8 716.2 L 143.1 721.0 L 147.4 725.9 L 151.6 730.8 L 155.8 735.7 L 160.0 740.6 L 164.1 745.6 L 168.1 750.6 L 172.1 755.7 L 176.0 760.8 L 179.9 766.0 L 183.6 771.2 L 187.2 776.5 L 187.2 776.5 L 190.7 781.9 L 194.1 787.3 L 197.4 792.8 L 200.6 798.4 L 203.7 804.0 L 206.8 809.7 L 209.8 815.4 L 212.7 821.1 L 215.6 826.9 L 218.5 832.7 L 221.4 838.5 L 224.2 844.3 L 227.1 850.1 L 230.0 855.8 L 232.9 861.6 L 235.9 867.3 L 235.9 867.3 L 238.8 873.1 L 241.7 878.9 L 244.5 884.7 L 247.2 890.5 L 250.0 896.4 L 252.7 902.3 L 255.4 908.1 L 258.1 914.0 L 260.9 919.8 L 263.7 925.7 L 266.6 931.4 L 269.6 937.1 L 272.6 942.8 L 275.8 948.4 L 279.0 953.9 L 282.5 959.3 L 282.5 959.3 L 286.0 964.6 L 289.7 969.9 L 293.4 975.1 L 297.3 980.3 L 301.2 985.4 L 305.2 990.4 L 309.3 995.4 L 313.4 1000.4 L 317.6 1005.3 L 321.8 1010.2 L 326.1 1015.1 L 330.4 1019.9 L 334.7 1024.8 L 339.0 1029.6 L 343.3 1034.4 L 347.6 1039.2 L 347.6 1039.2 L 351.9 1043.9 L 356.3 1048.7 L 360.7 1053.3 L 365.2 1058.0 L 369.7 1062.6 L 374.2 1067.2 L 378.7 1071.8 L 383.3 1076.4 L 387.9 1080.9 L 392.5 1085.5 L 397.1 1090.0 L 401.7 1094.5 L 406.3 1099.0 L 411.0 1103.5 L 415.6 1108.0 L 420.2 1112.5 L 420.2 1112.5 L 424.8 1117.1 L 429.4 1121.7 L 433.9 1126.3 L 438.5 1130.9 L 443.0 1135.5 L 447.5 1140.2 L 452.1 1144.8 L 456.7 1149.4 L 461.3 1153.9 L 465.9 1158.4 L 470.6 1162.8 L 475.4 1167.2 L 480.2 1171.5 L 485.1 1175.6 L 490.0 1179.7 L 495.0 1183.6 L 495.0 1183.6 L 500.2 1187.6 L 505.5 1191.9 L 510.9 1196.3 L 516.4 1200.8 L 522.1 1205.3 L 527.7 1209.8 L 533.4 1214.2 L 539.2 1218.3 L 544.9 1222.2 L 550.5 1225.8 L 556.1 1229.0 L 561.6 1231.6 L 567.0 1233.8 L 572.3 1235.3 L 577.4 1236.1 L 582.4 1236.1 L 582.4 1236.1 L 587.2 1235.3 L 592.0 1233.9 L 596.8 1231.7 L 601.6 1229.0 L 606.3 1225.7 L 611.0 1222.0 L 615.5 1217.8 L 620.0 1213.3 L 624.3 1208.5 L 628.5 1203.5 L 632.6 1198.2 L 636.4 1192.9 L 640.1 1187.5 L 643.6 1182.1 L 646.8 1176.7 L 649.8 1171.5 L 649.8 1171.5 L 652.5 1166.2 L 655.0 1160.7 L 657.1 1154.9 L 659.0 1148.9 L 660.6 1142.8 L 662.1 1136.5 L 663.5 1130.1 L 664.7 1123.6 L 665.9 1117.0 L 667.0 1110.4 L 668.1 1103.8 L 669.2 1097.1 L 670.4 1090.6 L 671.7 1084.0 L 673.2 1077.6 L 674.7 1071.3 L 674.7 1071.3 L 676.4 1065.1 L 678.1 1058.9 L 679.8 1052.6 L 681.4 1046.4 L 683.1 1040.2 L 684.9 1034.0 L 686.6 1027.8 L 688.3 1021.5 L 690.1 1015.3 L 691.9 1009.1 L 693.7 1003.0 L 695.6 996.8 L 697.4 990.6 L 699.3 984.5 L 701.3 978.3 L 703.3 972.2 L 703.3 972.2 L 705.3 966.1 L 707.4 960.0 L 709.6 953.9 L 711.9 947.8 L 714.2 941.8 L 716.5 935.8 L 718.9 929.8 L 721.2 923.7 L 723.6 917.7 L 725.9 911.7 L 728.2 905.7 L 730.5 899.6 L 732.7 893.6 L 734.8 887.5 L 736.8 881.4 L 738.8 875.3 L 738.8 875.3 L 740.8 869.1 L 742.9 862.9 L 745.0 856.7 L 747.2 850.5 L 749.4 844.3 L 751.6 838.0 L 753.7 831.8 L 755.7 825.5 L 757.6 819.2 L 759.3 813.0 L 760.8 806.7 L 762.1 800.5 L 763.1 794.3 L 763.9 788.1 L 764.3 781.9 L 764.4 775.7 L 764.4 775.7 L 764.1 769.6 L 763.5 763.4 L 762.6 757.2 L 761.5 750.9 L 760.2 744.7 L 758.6 738.5 L 756.8 732.3 L 754.9 726.1 L 752.7 720.0 L 750.4 713.9 L 748.0 707.9 L 745.5 701.9 L 742.8 695.9 L 740.1 690.1 L 737.3 684.3 L 734.4 678.7 L 734.4 678.7 L 731.5 673.1 L 728.2 667.6 L 724.8 662.3 L 721.3 657.0 L 717.5 651.8 L 713.6 646.6 L 709.7 641.5 L 705.6 636.4 L 701.5 631.4 L 697.3 626.3 L 693.1 621.3 L 688.9 616.3 L 684.8 611.3 L 680.7 606.2 L 676.6 601.1 L 672.7 596.0 L 672.7 596.0 L 668.8 590.9 L 664.9 585.7 L 661.1 580.5 L 657.3 575.3 L 653.5 570.1 L 649.6 564.9 L 645.8 559.7 L 641.9 554.5 L 638.1 549.3 L 634.2 544.1 L 630.3 539.0 L 626.3 533.9 L 622.3 528.9 L 618.3 523.8 L 614.2 518.9 L 610.1 513.9 L 610.1 513.9 L 605.9 509.0 L 601.8 504.1 L 597.6 499.1 L 593.4 494.2 L 589.2 489.2 L 585.0 484.3 L 580.7 479.4 L 576.4 474.6 L 572.0 469.8 L 567.6 465.1 L 563.1 460.5 L 558.5 456.0 L 553.9 451.6 L 549.1 447.4 L 544.2 443.2 L 539.3 439.3 L 539.3 439.3 L 534.2 435.5 L 528.9 431.9 L 523.5 428.5 L 518.0 425.2 L 512.4 422.1 L 506.7 419.1 L 500.9 416.2 L 495.1 413.3 L 489.2 410.4 L 483.4 407.6 L 477.6 404.7 L 471.8 401.8 L 466.0 398.8 L 460.4 395.7 L 454.8 392.5 L 449.3 389.2 L 449.3 389.2 L 443.8 385.8 L 438.4 382.4 L 432.9 379.0 L 427.4 375.6 L 422.0 372.2 L 416.5 368.7 L 411.1 365.2 L 405.7 361.6 L 400.4 358.0 L 395.2 354.3 L 390.0 350.5 L 385.0 346.6 L 380.0 342.6 L 375.1 338.5 L 370.4 334.3 L 365.8 329.9 L 365.8 329.9 L 361.4 325.3 L 357.2 320.6 L 353.2 315.6 L 349.3 310.5 L 345.6 305.3 L 341.9 300.0 L 338.3 294.6 L 334.7 289.1 L 331.2 283.6 L 327.7 278.1 L 324.1 272.7 L 320.5 267.3 L 316.8 261.9 L 313.0 256.7 L 309.1 251.5 L 305.1 246.5 L 305.1 246.5 L 300.9 241.7 L 296.5 236.9 L 292.1 232.2 L 287.6 227.5 L 283.1 223.0 L 278.5 218.4 L 273.9 213.9 L 269.2 209.4 L 264.6 204.9 L 259.9 200.4 L 255.3 195.9 L 250.7 191.4 L 246.2 186.9 L 241.7 182.2 L 237.3 177.6 L 233.0 172.8 L 233.0 172.8 L 228.6 168.0 L 223.7 162.9 L 218.5 157.7 L 213.1 152.4 L 207.6 147.1 L 202.1 141.7 L 196.7 136.3 L 191.5 131.0 L 186.6 125.7 L 182.1 120.5 L 178.1 115.5 L 174.8 110.7 L 172.1 106.0 L 170.3 101.7 L 169.5 97.6 L 169.6 93.9 L 169.6 93.9 L 170.9 90.3 L 173.3 86.7 L 176.6 83.2 L 180.7 79.8 L 185.6 76.4 L 191.1 73.3 L 197.2 70.3 L 203.6 67.6 L 210.3 65.1 L 217.2 63.0 L 224.1 61.2 L 231.0 59.7 L 237.7 58.7 L 244.2 58.2 L 250.2 58.2 L 255.8 58.6 L 255.8 58.6 L 261.1 59.7 L 266.3 61.5 L 271.6 63.8 L 276.9 66.6 L 282.2 69.9 L 287.4 73.5 L 292.6 77.5 L 297.8 81.8 L 303.0 86.3 L 308.2 90.9 L 313.3 95.6 L 318.4 100.3 L 323.5 105.0 L 328.5 109.7 L 333.4 114.1 L 338.3 118.4 L 338.3 118.4 L 343.2 122.6 L 347.9 126.8 L 352.6 131.2 L 357.3 135.6 L 361.9 140.1 L 366.5 144.7 L 371.0 149.3 L 375.6 153.9 L 380.1 158.5 L 384.6 163.2 L 389.1 167.9 L 393.6 172.5 L 398.1 177.1 L 402.6 181.8 L 407.2 186.3 L 411.8 190.8 L 411.8 190.8 L 416.5 195.3 L 421.1 199.9 L 425.7 204.4 L 430.3 208.9 L 434.9 213.4 L 439.5 218.0 L 444.1 222.5 L 448.7 227.0 L 453.3 231.5 L 458.0 236.0 L 462.7 240.4 L 467.4 244.8 L 472.1 249.2 L 476.9 253.5 L 481.7 257.8 L 486.5 262.1 L 486.5 262.1 L 491.4 266.3 L 496.3 270.5 L 501.2 274.6 L 506.2 278.7 L 511.2 282.8 L 516.2 286.9 L 521.2 290.9 L 526.3 294.9 L 531.4 298.9 L 536.5 302.8 L 541.6 306.7 L 546.7 310.7 L 551.9 314.5 L 557.1 318.4 L 562.2 322.3 L 567.4 326.1 L 567.4 326.1 L 572.6 329.9 L 577.8 333.7 L 583.1 337.4 L 588.4 341.1 L 593.7 344.7 L 599.0 348.4 L 604.4 352.0 L 609.7 355.6 L 615.1 359.2 L 620.5 362.8 L 625.8 366.4 L 631.2 370.0 L 636.5 373.6 L 641.9 377.2 L 647.2 380.8 L 652.5 384.5 L 652.5 384.5 L 657.8 388.2 L 663.1 391.9 L 668.4 395.6 L 673.6 399.3 L 678.9 403.0 L 684.2 406.7 L 689.5 410.4 L 694.8 414.2 L 700.0 417.9 L 705.3 421.6 L 710.5 425.4 L 715.8 429.1 L 721.0 432.9 L 726.2 436.7 L 731.4 440.5 L 736.7 444.3 L 736.7 444.3 L 741.8 448.1 L 747.0 452.0 L 752.2 455.8 L 757.3 459.7 L 762.5 463.6 L 767.6 467.5 L 772.7 471.4 L 777.9 475.3 L 783.0 479.3 L 788.1 483.2 L 793.2 487.1 L 798.3 491.0 L 803.5 495.0 L 808.6 498.9 L 813.7 502.8 L 818.9 506.7 L 818.9 506.7 L 824.1 510.5 L 829.3 514.3 L 834.6 518.0 L 840.0 521.8 L 845.4 525.4 L 850.8 529.1 L 856.1 532.8 L 861.5 536.5 L 866.8 540.2 L 872.0 544.0 L 877.2 547.9 L 882.3 551.8 L 887.3 555.9 L 892.1 560.0 L 896.8 564.3 L 901.4 568.7 L 901.4 568.7 L 905.9 573.2 L 910.4 577.8 L 915.0 582.5 L 919.5 587.2 L 924.0 592.0 L 928.4 596.9 L 932.7 601.8 L 936.9 606.9 L 940.9 612.0 L 944.7 617.2 L 948.3 622.5 L 951.7 627.8 L 954.8 633.3 L 957.5 638.8 L 959.9 644.4 L 962.0 650.1 L 962.0 650.1 L 963.7 655.9 L 964.9 661.9 L 965.8 668.0 L 966.4 674.2 L 966.7 680.6 L 966.7 687.0 L 966.5 693.5 L 966.2 700.0 L 965.6 706.6 L 965.0 713.2 L 964.3 719.8 L 963.6 726.4 L 962.9 733.0 L 962.2 739.6 L 961.6 746.1 L 961.1 752.5 L 961.1 752.5 L 960.6 758.9 L 960.0 765.3 L 959.4 771.7 L 958.7 778.1 L 957.9 784.5 L 957.1 790.9 L 956.2 797.3 L 955.3 803.7 L 954.4 810.1 L 953.4 816.5 L 952.5 822.9 L 951.5 829.3 L 950.6 835.7 L 949.6 842.1 L 948.7 848.5 L 947.9 854.9 L 947.9 854.9 L 947.0 861.3 L 946.1 867.7 L 945.3 874.1 L 944.4 880.5 L 943.6 886.8 L 942.7 893.2 L 941.9 899.6 L 941.0 906.0 L 940.1 912.4 L 939.2 918.8 L 938.3 925.2 L 937.4 931.6 L 936.4 938.0 L 935.4 944.3 L 934.4 950.7 L 933.4 957.1 L 933.4 957.1 L 932.3 963.4 L 931.2 969.8 L 930.1 976.1 L 929.0 982.5 L 927.9 988.9 L 926.7 995.2 L 925.6 1001.6 L 924.4 1007.9 L 923.2 1014.2 L 921.9 1020.6 L 920.7 1026.9 L 919.4 1033.2 L 918.0 1039.5 L 916.6 1045.8 L 915.2 1052.1 L 913.8 1058.4 L 913.8 1058.4 L 912.3 1064.7 L 910.7 1070.9 L 909.2 1077.2 L 907.6 1083.4 L 905.9 1089.7 L 904.3 1095.9 L 902.6 1102.1 L 900.8 1108.3 L 899.1 1114.5 L 897.3 1120.7 L 895.5 1126.9 L 893.7 1133.1 L 891.8 1139.3 L 890.0 1145.5 L 888.1 1151.6 L 886.2 1157.8 L 886.2 1157.8 L 884.2 1163.9 L 882.0 1170.1 L 879.7 1176.2 L 877.3 1182.3 L 874.8 1188.3 L 872.3 1194.4 L 869.7 1200.5 L 867.3 1206.5 L 864.8 1212.6 L 862.5 1218.7 L 860.4 1224.8 L 858.4 1230.9 L 856.6 1237.0 L 855.1 1243.1 L 853.9 1249.3 L 853.0 1255.5 L 853.0 1255.5 L 852.3 1261.7 L 851.8 1268.0 L 851.4 1274.4 L 851.2 1280.8 L 851.2 1287.2 L 851.3 1293.7 L 851.6 1300.2 L 852.0 1306.6 L 852.7 1313.0 L 853.5 1319.4 L 854.5 1325.8 L 855.7 1332.0 L 857.1 1338.2 L 858.7 1344.3 L 860.5 1350.3 L 862.5 1356.1 L 862.5 1356.1 L 864.8 1361.9 L 867.4 1367.6 L 870.3 1373.2 L 873.4 1378.7 L 876.7 1384.2 L 880.2 1389.7 L 883.9 1395.1 L 887.7 1400.4 L 891.7 1405.6 L 895.8 1410.8 L 900.0 1415.9 L 904.2 1421.0 L 908.5 1426.0 L 912.7 1430.9 L 917.0 1435.8 L 921.3 1440.6 L 921.3 1440.6 L 925.5 1445.4 L 929.8 1450.2 L 934.2 1454.9 L 938.7 1459.6 L 943.2 1464.2 L 947.9 1468.8 L 952.5 1473.3 L 957.3 1477.7 L 962.1 1482.0 L 967.0 1486.3 L 971.9 1490.5 L 976.9 1494.5 L 982.0 1498.4 L 987.2 1502.3 L 992.4 1505.9 L 997.7 1509.5 L 997.7 1509.5 L 1000.0 1510.9" fill="none" stroke="#ff3ea5" stroke-width="6.0" stroke-opacity="0.9"/><path d="M 870.0 2000.0 L 866.0 1995.1 L 861.9 1990.2 L 857.8 1985.2 L 853.6 1980.3 L 849.4 1975.4 L 845.2 1970.5 L 841.0 1965.6 L 836.8 1960.7 L 836.8 1960.7 L 832.5 1955.9 L 828.2 1951.1 L 823.9 1946.3 L 819.6 1941.5 L 815.2 1936.8 L 810.8 1932.1 L 806.4 1927.4 L 801.9 1922.7 L 797.5 1918.0 L 793.0 1913.4 L 788.5 1908.7 L 784.0 1904.1 L 779.5 1899.5 L 775.0 1894.9 L 770.5 1890.3 L 765.9 1885.7 L 765.9 1885.7 L 761.4 1881.1 L 756.8 1876.5 L 752.3 1872.0 L 747.7 1867.4 L 743.1 1862.9 L 738.5 1858.4 L 733.9 1853.9 L 729.3 1849.4 L 724.6 1844.9 L 720.0 1840.4 L 715.3 1835.9 L 710.7 1831.5 L 706.0 1827.0 L 701.3 1822.6 L 696.6 1818.2 L 691.9 1813.8 L 691.9 1813.8 L 687.2 1809.4 L 682.4 1805.0 L 677.7 1800.6 L 672.9 1796.3 L 668.1 1792.0 L 663.3 1787.7 L 658.4 1783.4 L 653.6 1779.2 L 648.8 1774.9 L 644.0 1770.6 L 639.2 1766.3 L 634.4 1761.9 L 629.6 1757.6 L 624.9 1753.2 L 620.1 1748.8 L 615.5 1744.4 L 615.5 1744.4 L 610.8 1739.9 L 606.2 1735.4 L 601.6 1730.9 L 597.1 1726.3 L 592.5 1721.8 L 588.0 1717.2 L 583.5 1712.6 L 578.9 1707.9 L 574.4 1703.3 L 569.9 1698.7 L 565.4 1694.1 L 560.9 1689.5 L 556.4 1684.9 L 551.9 1680.3 L 547.3 1675.7 L 542.8 1671.1 L 542.8 1671.1 L 538.2 1666.6 L 533.6 1662.1 L 529.0 1657.6 L 524.3 1653.1 L 519.7 1648.6 L 515.1 1644.1 L 510.4 1639.6 L 505.8 1635.1 L 501.2 1630.6 L 496.5 1626.1 L 491.9 1621.6 L 487.3 1617.1 L 482.7 1612.6 L 478.1 1608.1 L 473.5 1603.5 L 469.0 1599.0 L 469.0 1599.0 L 464.4 1594.4 L 459.8 1589.8 L 455.3 1585.3 L 450.6 1580.8 L 446.0 1576.2 L 441.4 1571.7 L 436.9 1567.1 L 432.3 1562.6 L 427.8 1558.0 L 423.3 1553.4 L 418.8 1548.7 L 414.4 1544.0 L 410.1 1539.2 L 405.8 1534.4 L 401.6 1529.6 L 397.5 1524.6 L 397.5 1524.6 L 393.4 1519.6 L 389.4 1514.6 L 385.5 1509.5 L 381.6 1504.4 L 377.7 1499.2 L 374.0 1494.0 L 370.2 1488.7 L 366.5 1483.4 L 362.9 1478.1 L 359.3 1472.7 L 355.7 1467.3 L 352.2 1461.9 L 348.7 1456.5 L 345.3 1451.0 L 341.9 1445.5 L 338.5 1440.0 L 338.5 1440.0 L 335.2 1434.5 L 332.0 1429.0 L 328.8 1423.4 L 325.7 1417.7 L 322.6 1412.0 L 319.6 1406.3 L 316.6 1400.6 L 313.7 1394.9 L 310.7 1389.1 L 307.8 1383.4 L 304.9 1377.6 L 302.0 1371.8 L 299.1 1366.0 L 296.2 1360.3 L 293.3 1354.5 L 290.4 1348.8 L 290.4 1348.8 L 287.4 1343.0 L 284.5 1337.3 L 281.6 1331.5 L 278.7 1325.8 L 275.8 1320.0 L 272.9 1314.2 L 270.0 1308.5 L 267.1 1302.7 L 264.3 1296.9 L 261.4 1291.1 L 258.5 1285.4 L 255.6 1279.6 L 252.7 1273.8 L 249.8 1268.1 L 246.9 1262.3 L 243.9 1256.6 L 243.9 1256.6 L 241.0 1250.9 L 238.0 1245.1 L 235.1 1239.4 L 232.1 1233.6 L 229.2 1227.9 L 226.2 1222.2 L 223.2 1216.4 L 220.2 1210.7 L 217.3 1205.0 L 214.2 1199.3 L 211.2 1193.6 L 208.2 1187.9 L 205.1 1182.2 L 202.1 1176.6 L 199.0 1170.9 L 195.8 1165.3 L 195.8 1165.3 L 192.7 1159.6 L 189.5 1154.0 L 186.4 1148.4 L 183.2 1142.8 L 180.0 1137.2 L 176.7 1131.6 L 173.5 1126.0 L 170.2 1120.4 L 167.0 1114.9 L 163.7 1109.3 L 160.4 1103.8 L 157.0 1098.3 L 153.7 1092.8 L 150.3 1087.3 L 146.9 1081.8 L 143.5 1076.3 L 143.5 1076.3 L 140.0 1070.9 L 136.5 1065.5 L 133.0 1060.1 L 129.4 1054.7 L 125.8 1049.4 L 122.2 1044.0 L 118.5 1038.7 L 114.9 1033.4 L 111.2 1028.0 L 107.6 1022.7 L 103.9 1017.4 L 100.3 1012.1 L 96.6 1006.8 L 93.0 1001.5 L 89.3 996.1 L 85.7 990.8 L 85.7 990.8 L 82.1 985.4 L 78.5 980.1 L 74.9 974.7 L 71.3 969.4 L 67.6 964.1 L 64.0 958.7 L 60.4 953.4 L 56.8 948.0 L 53.1 942.7 L 49.6 937.3 L 46.0 932.0 L 42.4 926.6 L 38.9 921.2 L 35.4 915.8 L 31.9 910.3 L 28.5 904.9 L 28.5 904.9 L 25.1 899.4 L 21.6 894.0 L 18.2 888.5 L 14.7 883.0 L 11.3 877.6 L 7.9 872.1 L 4.5 866.6 L 1.1 861.0 L 0.0 859.2" fill="none" stroke="#ff3ea5" stroke-width="6.0" stroke-opacity="0.9"/></g><g id="clips"><circle cx="0.0" cy="558.0" r="2" fill="none" stroke="#0b5" stroke-width="0.6"/><circle cx="1000.0" cy="1510.9" r="2" fill="none" stroke="#0b5" stroke-width="0.6"/><circle cx="870.0" cy="2000.0" r="2" fill="none" stroke="#0b5" stroke-width="0.6"/><circle cx="0.0" cy="859.2" r="2" fill="none" stroke="#0b5" stroke-width="0.6"/></g><g id="power"><circle cx="0.0" cy="859.1" r="5" fill="none" stroke="#e33" stroke-width="1"/><circle cx="0.0" cy="557.9" r="5" fill="none" stroke="#e33" stroke-width="1"/><circle cx="1000.0" cy="1510.9" r="5" fill="none" stroke="#e33" stroke-width="1"/><circle cx="870.0" cy="2000.0" r="5" fill="none" stroke="#e33" stroke-width="1"/></g><g id="bridges"></g></svg>