<svg xmlns="http://www.w3.org/2000/svg" width="1000mm" height="2000mm" viewBox="0 0 1000 2000"><g id="outline"><rect x="0" y="0" width="1000" height="2000" fill="none" stroke="#000" stroke-width="1"/></g><g id="channels"><path d="M 904.0 0.0 L 900.6 5.3 L 896.5 11.1 L 892.1 16.9 L 887.5 22.5 L 882.8 28.0 L 878.0 33.4 L 873.2 38.5 L 868.4 43.5 L 863.7 48.3 L 863.7 48.3 L 858.8 52.7 L 853.5 56.8 L 847.9 60.7 L 842.0 64.3 L 835.9 67.8 L 829.5 71.1 L 823.1 74.3 L 816.6 77.4 L 810.0 80.6 L 803.5 83.8 L 797.1 87.1 L 790.8 90.6 L 784.8 94.2 L 778.9 98.1 L 773.4 102.3 L 768.2 106.8 L 768.2 106.8 L 763.3 111.6 L 758.5 116.5 L 753.9 121.6 L 749.4 126.9 L 745.1 132.4 L 740.8 137.9 L 736.7 143.6 L 732.7 149.4 L 728.8 155.3 L 725.0 161.3 L 721.3 167.3 L 717.7 173.4 L 714.3 179.5 L 710.9 185.6 L 707.6 191.8 L 704.4 197.9 L 704.4 197.9 L 701.3 204.2 L 698.4 210.5 L 695.6 216.8 L 693.0 223.3 L 690.5 229.8 L 688.1 236.4 L 685.8 243.1 L 683.6 249.8 L 681.4 256.5 L 679.3 263.2 L 677.2 270.0 L 675.1 276.8 L 673.1 283.5 L 671.0 290.3 L 668.9 297.0 L 666.7 303.7 L 666.7 303.7 L 664.5 310.3 L 662.4 317.0 L 660.3 323.7 L 658.2 330.4 L 656.1 337.1 L 654.1 343.8 L 652.0 350.5 L 650.0 357.2 L 648.0 364.0 L 646.1 370.7 L 644.1 377.4 L 642.1 384.2 L 640.2 390.9 L 638.3 397.7 L 636.3 404.4 L 634.4 411.1 L 634.4 411.1 L 632.5 417.9 L 630.7 424.7 L 628.9 431.5 L 627.1 438.3 L 625.4 445.1 L 623.7 451.9 L 621.9 458.7 L 620.2 465.5 L 618.5 472.3 L 616.7 479.1 L 614.9 485.9 L 613.1 492.7 L 611.1 499.4 L 609.2 506.1 L 607.1 512.8 L 604.9 519.5 L 604.9 519.5 L 602.7 526.1 L 600.4 532.7 L 598.1 539.3 L 595.7 545.9 L 593.3 552.5 L 590.8 559.1 L 588.3 565.6 L 585.7 572.2 L 583.1 578.7 L 580.5 585.2 L 577.8 591.6 L 575.0 598.1 L 572.2 604.5 L 569.4 611.0 L 566.6 617.4 L 563.7 623.7 L 563.7 623.7 L 560.7 630.1 L 557.8 636.4 L 554.7 642.8 L 551.6 649.0 L 548.5 655.3 L 545.3 661.6 L 542.1 667.8 L 538.8 674.0 L 535.5 680.2 L 532.2 686.4 L 528.8 692.6 L 525.5 698.8 L 522.1 704.9 L 518.7 711.0 L 515.2 717.2 L 511.8 723.3 L 511.8 723.3 L 508.4 729.4 L 504.9 735.5 L 501.5 741.7 L 498.1 747.9 L 494.7 754.0 L 491.2 760.2 L 487.7 766.3 L 484.2 772.4 L 480.6 778.4 L 477.0 784.5 L 473.3 790.4 L 469.5 796.3 L 465.7 802.2 L 461.7 807.9 L 457.7 813.6 L 453.6 819.2 L 453.6 819.2 L 449.4 824.9 L 445.1 830.7 L 440.9 836.7 L 436.6 842.8 L 432.2 848.9 L 427.8 854.9 L 423.3 860.9 L 418.7 866.7 L 414.0 872.3 L 409.3 877.6 L 404.4 882.6 L 399.3 887.2 L 394.2 891.3 L 388.9 895.0 L 383.4 898.1 L 377.8 900.6 L 377.8 900.6 L 372.0 902.4 L 365.8 903.5 L 359.4 904.0 L 352.8 904.0 L 346.0 903.6 L 339.1 902.7 L 332.1 901.6 L 325.1 900.1 L 318.0 898.5 L 310.9 896.8 L 304.0 895.0 L 297.1 893.3 L 290.3 891.7 L 283.7 890.2 L 277.4 888.9 L 271.2 888.0 L 271.2 888.0 L 265.1 887.0 L 258.6 885.8 L 251.8 884.3 L 244.9 882.6 L 238.0 880.9 L 231.1 879.1 L 224.4 877.4 L 217.9 875.8 L 211.8 874.4 L 206.1 873.2 L 200.9 872.4 L 196.4 872.0 L 192.6 872.1 L 189.7 872.7 L 187.7 874.0 L 186.7 875.9 L 186.7 875.9 L 187.0 878.7 L 188.6 882.5 L 191.3 887.2 L 195.1 892.5 L 199.6 898.4 L 204.8 904.7 L 210.6 911.3 L 216.6 918.1 L 222.8 924.9 L 229.0 931.6 L 235.1 938.0 L 240.8 944.1 L 246.0 949.6 L 250.6 954.5 L 254.3 958.6 L 257.1 961.8" fill="none" stroke="#00e5ff" stroke-width="6.0" stroke-opacity="0.9"/><path d="M 184.0 961.4 L 181.2 963.6 L 177.6 966.1 L 173.4 969.0 L 168.7 972.2 L 163.5 975.7 L 158.0 979.5 L 152.3 983.5 L 146.3 987.7 L 140.4 992.0 L 134.5 996.4 L 128.7 1001.0 L 123.1 1005.5 L 117.8 1010.1 L 113.0 1014.6 L 108.6 1019.1 L 104.9 1023.5 L 104.9 1023.5 L 101.5 1028.0 L 98.1 1033.0 L 94.7 1038.2 L 91.5 1043.7 L 88.4 1049.4 L 85.5 1055.1 L 82.8 1060.9 L 80.3 1066.5 L 78.2 1072.0 L 76.4 1077.3 L 74.9 1082.3 L 73.9 1086.8 L 73.3 1090.9 L 73.2 1094.5 L 73.7 1097.4 L 74.7 1099.6 L 74.7 1099.6 L 76.5 1100.9 L 79.2 1101.3 L 82.7 1100.9 L 86.8 1099.9 L 91.5 1098.3 L 96.7 1096.4 L 102.2 1094.1 L 107.8 1091.7 L 113.6 1089.2 L 119.3 1086.9 L 124.9 1084.7 L 130.3 1082.9 L 135.2 1081.5 L 139.6 1080.7 L 143.5 1080.7 L 146.6 1081.4 L 146.6 1081.4 L 149.0 1082.9 L 151.0 1085.0 L 152.5 1087.6 L 153.7 1090.6 L 154.5 1093.9 L 155.1 1097.6 L 155.6 1101.6 L 155.9 1105.7 L 156.1 1110.0 L 156.4 1114.3 L 156.6 1118.7 L 157.0 1122.9 L 157.6 1127.1 L 158.4 1131.1 L 159.5 1134.8 L 160.9 1138.3 L 160.9 1138.3 L 162.7 1141.6 L 164.6 1144.9 L 166.7 1148.3 L 168.9 1151.8 L 171.3 1155.2 L 173.8 1158.6 L 176.3 1161.9 L 178.9 1165.2 L 181.6 1168.3 L 184.2 1171.4 L 186.8 1174.3 L 189.4 1177.0 L 191.8 1179.6 L 194.2 1182.0 L 196.5 1184.1 L 198.6 1186.0 L 198.6 1186.0 L 200.6 1187.6 L 202.5 1189.0 L 204.2 1190.1 L 205.8 1191.1 L 207.3 1191.9 L 208.9 1192.5 L 210.3 1193.0 L 211.8 1193.3 L 213.3 1193.6 L 214.9 1193.8 L 216.5 1193.9 L 218.3 1193.9 L 220.1 1194.0 L 222.1 1194.0 L 224.2 1194.0 L 226.6 1194.1 L 226.6 1194.1 L 229.1 1194.1 L 231.9 1193.9 L 234.8 1193.6 L 237.9 1193.1 L 241.0 1192.6 L 244.3 1192.0 L 247.7 1191.4 L 251.1 1190.8 L 254.5 1190.1 L 257.9 1189.6 L 261.3 1189.1 L 264.6 1188.7 L 267.9 1188.5 L 271.0 1188.5 L 274.0 1188.6 L 276.9 1188.9 L 276.9 1188.9 L 279.7 1189.7 L 282.4 1191.1 L 285.1 1192.9 L 287.8 1195.0 L 290.5 1197.4 L 293.1 1199.9 L 295.7 1202.4 L 298.2 1204.9 L 300.6 1207.2 L 303.0 1209.2 L 305.3 1210.8 L 307.5 1211.9 L 309.7 1212.4 L 311.8 1212.2 L 313.7 1211.2 L 315.6 1209.3 L 315.6 1209.3 L 317.3 1206.4 L 318.7 1202.6 L 319.8 1197.9 L 320.8 1192.6 L 321.6 1186.7 L 322.3 1180.3 L 323.0 1173.5 L 323.7 1166.5 L 324.5 1159.2 L 325.3 1151.8 L 326.3 1144.5 L 327.5 1137.2 L 328.9 1130.2 L 330.7 1123.6 L 332.8 1117.3 L 335.2 1111.6 L 335.2 1111.6 L 338.1 1106.2 L 341.2 1101.0 L 344.6 1095.8 L 348.2 1090.8 L 352.1 1085.9 L 356.2 1081.0 L 360.4 1076.3 L 364.8 1071.6 L 369.2 1066.9 L 373.8 1062.4 L 378.4 1057.8 L 383.0 1053.3 L 387.6 1048.8 L 392.2 1044.4 L 396.8 1039.9 L 401.3 1035.4 L 401.3 1035.4 L 405.7 1031.0 L 410.3 1026.6 L 414.8 1022.2 L 419.5 1017.9 L 424.1 1013.6 L 428.8 1009.4 L 433.6 1005.2 L 438.3 1001.0 L 443.1 996.9 L 447.9 992.8 L 452.8 988.7 L 457.6 984.6 L 462.4 980.5 L 467.3 976.4 L 472.1 972.3 L 476.9 968.2 L 476.9 968.2 L 481.8 964.2 L 486.7 960.2 L 491.6 956.2 L 496.6 952.3 L 501.6 948.4 L 506.7 944.6 L 511.7 940.7 L 516.7 936.8 L 521.7 933.0 L 526.7 929.1 L 531.7 925.1 L 536.6 921.1 L 541.4 917.1 L 546.2 913.0 L 550.9 908.8 L 555.6 904.5 L 555.6 904.5 L 560.1 900.2 L 564.7 895.9 L 569.3 891.5 L 573.8 887.0 L 578.3 882.6 L 582.7 878.0 L 587.2 873.5 L 591.5 868.9 L 595.8 864.2 L 600.1 859.5 L 604.2 854.8 L 608.3 850.0 L 612.3 845.1 L 616.3 840.2 L 620.1 835.2 L 623.8 830.2 L 623.8 830.2 L 627.4 825.0 L 630.9 819.8 L 634.4 814.6 L 637.8 809.2 L 641.1 803.8 L 644.3 798.4 L 647.4 792.9 L 650.5 787.3 L 653.5 781.7 L 656.4 776.1 L 659.3 770.5 L 662.1 764.8 L 664.9 759.1 L 667.6 753.3 L 670.2 747.6 L 672.9 741.9 L 672.9 741.9 L 675.4 736.1 L 677.9 730.3 L 680.2 724.5 L 682.5 718.6 L 684.8 712.7 L 686.9 706.7 L 689.0 700.8 L 691.1 694.8 L 693.1 688.8 L 695.1 682.8 L 697.1 676.7 L 699.0 670.7 L 700.9 664.7 L 702.8 658.6 L 704.8 652.6 L 706.7 646.6 L 706.7 646.6 L 708.6 640.5 L 710.5 634.5 L 712.4 628.5 L 714.2 622.4 L 716.0 616.4 L 717.8 610.3 L 719.6 604.2 L 721.4 598.2 L 723.1 592.1 L 724.8 586.0 L 726.5 579.9 L 728.2 573.8 L 729.8 567.7 L 731.5 561.6 L 733.1 555.4 L 734.7 549.3 L 734.7 549.3 L 736.2 543.2 L 737.6 536.9 L 738.9 530.6 L 740.1 524.2 L 741.3 517.8 L 742.4 511.4 L 743.5 505.0 L 744.7 498.7 L 745.9 492.3 L 747.1 486.1 L 748.5 479.9 L 750.0 473.8 L 751.5 467.8 L 753.3 462.0 L 755.2 456.3 L 757.4 450.7 L 757.4 450.7 L 759.8 445.1 L 762.4 439.1 L 765.1 432.8 L 768.1 426.4 L 771.2 419.9 L 774.3 413.5 L 777.6 407.2 L 781.0 401.2 L 784.3 395.6 L 787.7 390.5 L 791.1 385.9 L 794.5 382.0 L 797.8 378.9 L 800.9 376.7 L 804.0 375.5 L 807.0 375.4 L 807.0 375.4 L 809.8 376.4 L 812.7 378.7 L 815.5 381.9 L 818.2 386.1 L 821.0 391.2 L 823.7 396.8 L 826.4 403.1 L 829.1 409.8 L 831.7 416.8 L 834.3 424.1 L 836.8 431.5 L 839.4 438.8 L 841.9 446.0 L 844.3 452.9 L 846.8 459.5 L 849.2 465.6 L 849.2 465.6 L 851.5 471.4 L 853.7 477.3 L 855.9 483.2 L 858.0 489.2 L 860.1 495.1 L 862.1 501.1 L 864.1 507.1 L 866.1 513.2 L 868.1 519.2 L 870.0 525.2 L 872.1 531.2 L 874.1 537.2 L 876.2 543.2 L 878.4 549.2 L 880.6 555.1 L 882.9 561.0 L 882.9 561.0 L 885.3 566.8 L 887.7 572.6 L 890.2 578.4 L 892.8 584.2 L 895.3 590.0 L 898.0 595.8 L 900.6 601.5 L 903.3 607.2 L 906.0 613.0 L 908.6 618.7 L 911.3 624.5 L 914.0 630.2 L 916.6 636.0 L 919.2 641.7 L 921.7 647.5 L 924.3 653.3 L 924.3 653.3 L 926.8 659.1 L 929.3 664.9 L 931.8 670.7 L 934.3 676.5 L 936.8 682.3 L 939.3 688.2 L 941.8 694.0 L 944.2 699.8 L 946.7 705.7 L 949.1 711.5 L 951.4 717.4 L 953.8 723.2 L 956.0 729.1 L 958.3 735.1 L 960.4 741.0 L 962.5 746.9 L 962.5 746.9 L 964.6 752.9 L 966.5 758.9 L 968.5 764.9 L 970.3 771.0 L 972.2 777.0 L 974.0 783.1 L 975.7 789.2 L 977.4 795.2 L 979.1 801.3 L 980.8 807.5 L 982.4 813.6 L 984.0 819.7 L 985.6 825.8 L 987.1 832.0 L 988.7 838.1 L 990.2 844.2 L 990.2 844.2 L 991.7 850.4 L 993.2 856.5 L 994.6 862.7 L 996.0 868.8 L 997.3 875.0 L 998.6 881.2 L 999.9 887.4 L 1000.0 887.9" fill="none" stroke="#00e5ff" stroke-width="6.0" stroke-opacity="0.9"/></g><g id="clips"><circle cx="904.0" cy="0.0" r="2" fill="none" stroke="#0b5" stroke-width="0.6"/><circle cx="257.1" cy="961.8" r="2" fill="none" stroke="#0b5" stroke-width="0.6"/><circle cx="184.0" cy="961.4" r="2" fill="none" stroke="#0b5" stroke-width="0.6"/><circle cx="1000.0" cy="887.9" r="2" fill="none" stroke="#0b5" stroke-width="0.6"/></g><g id="power"><circle cx="1000.0" cy="887.6" r="5" fill="none" stroke="#e33" stroke-width="1"/><circle cx="904.0" cy="0.0" r="5" fill="none" stroke="#e33" stroke-width="1"/></g><g id="bridges"></g></svg>