<svg xmlns="http://www.w3.org/2000/svg" width="2000mm" height="1000mm" viewBox="0 0 2000 1000"><g id="outline"><rect x="0" y="0" width="2000" height="1000" fill="none" stroke="#000" stroke-width="1"/></g><g id="channels"><path d="M 1096.9 0.0 L 1096.9 0.0 L 1099.1 6.0 L 1101.3 12.1 L 1103.6 18.1 L 1106.0 24.1 L 1106.0 24.1 L 1108.5 30.0 L 1111.1 35.9 L 1113.8 41.7 L 1116.7 47.5 L 1119.7 53.3 L 1122.7 59.1 L 1125.7 64.8 L 1128.7 70.6 L 1131.8 76.3 L 1134.7 82.1 L 1137.7 87.8 L 1140.5 93.6 L 1143.2 99.4 L 1145.8 105.3 L 1148.2 111.2 L 1150.5 117.2 L 1150.5 117.2 L 1152.7 123.3 L 1155.0 129.8 L 1157.4 136.4 L 1159.7 143.3 L 1162.1 150.2 L 1164.4 157.1 L 1166.6 164.1 L 1168.6 171.0 L 1170.4 177.7 L 1172.0 184.2 L 1173.4 190.5 L 1174.4 196.5 L 1175.1 202.1 L 1175.4 207.2 L 1175.3 211.9 L 1174.7 216.0 L 1174.7 216.0 L 1173.5 219.5 L 1171.7 222.5 L 1169.4 225.1 L 1166.7 227.2 L 1163.6 229.0 L 1160.1 230.5 L 1156.4 231.7 L 1152.5 232.6 L 1148.5 233.5 L 1144.5 234.2 L 1140.5 234.8 L 1136.5 235.5 L 1132.8 236.2 L 1129.3 237.0 L 1126.1 237.9 L 1123.2 239.0 L 1123.2 239.0 L 1120.7 240.3 L 1118.3 241.7 L 1116.1 243.2 L 1114.0 244.8 L 1112.0 246.3 L 1110.1 247.9 L 1108.2 249.3 L 1106.4 250.8 L 1104.6 252.1 L 1102.8 253.3 L 1100.9 254.3 L 1099.0 255.1 L 1097.1 255.7 L 1095.0 256.0 L 1092.8 256.0 L 1090.5 255.7 L 1090.5 255.7 L 1088.1 255.2 L 1085.5 254.5 L 1082.8 253.7 L 1080.0 252.7 L 1077.2 251.5 L 1074.3 250.1 L 1071.4 248.5 L 1068.4 246.8 L 1065.5 244.8 L 1062.6 242.6 L 1059.8 240.2 L 1057.0 237.6 L 1054.3 234.7 L 1051.6 231.6 L 1049.1 228.2 L 1046.8 224.6 L 1046.8 224.6 L 1044.5 220.7 L 1042.1 216.4 L 1039.8 211.8 L 1037.4 206.9 L 1035.1 201.7 L 1032.8 196.2 L 1030.6 190.6 L 1028.4 184.8 L 1026.4 178.9 L 1024.6 172.8 L 1022.9 166.7 L 1021.3 160.6 L 1020.0 154.4 L 1018.9 148.3 L 1018.0 142.2 L 1017.4 136.2 L 1017.4 136.2 L 1017.2 130.2 L 1017.4 124.1 L 1018.1 118.0 L 1019.0 111.7 L 1020.2 105.4 L 1021.6 99.0 L 1023.1 92.6 L 1024.7 86.2 L 1026.3 79.7 L 1027.9 73.2 L 1029.3 66.8 L 1030.5 60.3 L 1031.4 53.9 L 1032.1 47.5 L 1032.4 41.1 L 1032.2 34.8 L 1032.2 34.8 L 1031.6 28.6 L 1030.8 22.3 L 1029.7 16.1 L 1028.4 9.8 L 1026.9 3.6 L 1025.9 0.0" fill="none" stroke="#ff3ea5" stroke-width="6.0" stroke-opacity="0.9"/><path d="M 758.9 0.0 L 757.2 1.9 L 752.8 6.2 L 748.0 10.4 L 742.9 14.4 L 737.5 18.2 L 732.0 21.9 L 726.2 25.3 L 720.3 28.5 L 714.3 31.5 L 708.3 34.3 L 702.2 36.8 L 696.2 39.0 L 690.2 40.9 L 684.3 42.6 L 684.3 42.6 L 678.4 44.0 L 672.3 45.1 L 666.1 45.8 L 659.7 46.4 L 653.3 46.7 L 646.7 46.7 L 640.1 46.5 L 633.5 46.1 L 626.8 45.5 L 620.2 44.7 L 613.6 43.7 L 607.1 42.5 L 600.6 41.2 L 594.3 39.8 L 588.0 38.2 L 582.0 36.5 L 582.0 36.5 L 576.0 34.7 L 570.0 32.7 L 564.1 30.4 L 558.2 28.0 L 552.3 25.4 L 546.4 22.6 L 540.7 19.6 L 535.0 16.5 L 529.3 13.3 L 523.8 9.9 L 518.4 6.3 L 513.0 2.7 L 509.3 0.0" fill="none" stroke="#ff3ea5" stroke-width="6.0" stroke-opacity="0.9"/><path d="M 412.4 0.0 L 413.3 1.7 L 416.8 8.1 L 420.2 14.5 L 423.6 20.8 L 426.9 27.2 L 430.1 33.5 L 433.0 39.6 L 435.7 45.6 L 435.7 45.6 L 438.2 51.6 L 440.6 57.6 L 442.9 63.6 L 445.2 69.6 L 447.5 75.7 L 449.8 81.7 L 452.0 87.8 L 454.3 93.8 L 456.6 99.9 L 458.8 105.9 L 461.2 111.9 L 463.5 117.9 L 465.9 123.9 L 468.4 129.9 L 471.0 135.8 L 473.6 141.7 L 473.6 141.7 L 476.2 147.5 L 478.9 153.4 L 481.5 159.3 L 484.2 165.2 L 486.9 171.2 L 489.6 177.1 L 492.4 182.9 L 495.2 188.8 L 498.1 194.5 L 501.1 200.3 L 504.1 205.9 L 507.3 211.5 L 510.6 217.0 L 514.0 222.4 L 517.6 227.7 L 521.3 232.8 L 521.3 232.8 L 525.2 237.9 L 529.2 242.8 L 533.4 247.6 L 537.7 252.4 L 542.1 257.0 L 546.6 261.6 L 551.2 266.1 L 555.9 270.6 L 560.7 275.0 L 565.5 279.3 L 570.4 283.6 L 575.3 287.8 L 580.2 292.1 L 585.1 296.3 L 590.1 300.4 L 595.0 304.6 L 595.0 304.6 L 599.9 308.7 L 604.9 312.8 L 610.0 316.7 L 615.1 320.6 L 620.3 324.4 L 625.5 328.2 L 630.8 332.0 L 636.1 335.7 L 641.4 339.4 L 646.7 343.1 L 651.9 346.9 L 657.2 350.6 L 662.4 354.4 L 667.6 358.2 L 672.8 362.1 L 677.9 366.1 L 677.9 366.1 L 682.9 370.1 L 688.0 374.1 L 692.9 378.2 L 697.9 382.4 L 702.8 386.5 L 707.8 390.7 L 712.7 394.9 L 717.6 399.1 L 722.5 403.3 L 727.4 407.5 L 732.3 411.6 L 737.3 415.8 L 742.2 419.9 L 747.2 424.0 L 752.2 428.0 L 757.3 432.0 L 757.3 432.0 L 762.3 436.1 L 767.3 440.3 L 772.3 444.5 L 777.3 448.9 L 782.2 453.3 L 787.2 457.7 L 792.2 462.0 L 797.3 466.2 L 802.3 470.4 L 807.5 474.4 L 812.7 478.1 L 818.0 481.7 L 823.3 485.0 L 828.8 488.0 L 834.4 490.7 L 840.0 493.0 L 840.0 493.0 L 846.0 494.7 L 852.1 495.9 L 858.5 496.6 L 865.1 496.9 L 871.8 496.8 L 878.6 496.5 L 885.4 496.1 L 892.2 495.6 L 899.0 495.1 L 905.7 494.6 L 912.3 494.4 L 918.7 494.4 L 924.8 494.8 L 930.7 495.7 L 936.3 497.0 L 941.6 499.0 L 941.6 499.0 L 946.6 501.5 L 951.3 504.5 L 955.9 507.9 L 960.3 511.7 L 964.5 515.8 L 968.6 520.1 L 972.5 524.7 L 976.3 529.4 L 979.9 534.2 L 983.4 539.0 L 986.8 543.9 L 990.0 548.7 L 993.2 553.3 L 996.3 557.9 L 999.3 562.2 L 1002.2 566.2 L 1002.2 566.2 L 1005.0 570.2 L 1007.7 574.0 L 1010.4 577.9 L 1013.0 581.7 L 1015.4 585.5 L 1017.8 589.3 L 1020.0 593.0 L 1022.1 596.7 L 1024.1 600.3 L 1025.9 603.9 L 1027.6 607.4 L 1029.1 610.9 L 1030.5 614.3 L 1031.6 617.7 L 1032.7 620.9 L 1033.5 624.1 L 1033.5 624.1 L 1034.2 627.3 L 1034.6 630.2 L 1035.0 633.1 L 1035.1 635.8 L 1035.1 638.5 L 1035.0 641.1 L 1034.7 643.6 L 1034.3 646.2 L 1033.7 648.7 L 1033.0 651.3 L 1032.1 653.8 L 1031.1 656.5 L 1030.0 659.2 L 1028.7 661.9 L 1027.4 664.8 L 1025.9 667.8 L 1025.9 667.8 L 1024.3 671.2 L 1022.5 674.9 L 1020.7 679.0 L 1018.7 683.4 L 1016.6 687.9 L 1014.4 692.5 L 1012.0 697.1 L 1009.5 701.6 L 1006.9 705.9 L 1004.1 709.9 L 1001.1 713.5 L 998.0 716.7 L 994.7 719.2 L 991.3 721.2 L 987.7 722.4 L 983.9 722.7 L 983.9 722.7 L 979.9 722.3 L 975.6 721.0 L 971.0 719.1 L 966.2 716.5 L 961.2 713.5 L 956.0 709.9 L 950.8 706.0 L 945.4 701.7 L 939.9 697.2 L 934.4 692.6 L 928.9 687.8 L 923.4 683.1 L 917.9 678.4 L 912.6 673.8 L 907.3 669.5 L 902.3 665.4 L 902.3 665.4 L 897.3 661.5 L 892.4 657.4 L 887.5 653.3 L 882.6 649.2 L 877.7 644.9 L 872.9 640.7 L 868.0 636.4 L 863.2 632.1 L 858.4 627.7 L 853.5 623.4 L 848.7 619.1 L 843.8 614.8 L 839.0 610.5 L 834.1 606.2 L 829.1 602.1 L 824.2 597.9 L 824.2 597.9 L 819.2 593.8 L 814.2 589.7 L 809.2 585.6 L 804.2 581.5 L 799.2 577.4 L 794.2 573.4 L 789.2 569.3 L 784.2 565.3 L 779.1 561.3 L 774.0 557.3 L 768.9 553.4 L 763.8 549.5 L 758.6 545.6 L 753.4 541.8 L 748.2 538.0 L 742.9 534.3 L 742.9 534.3 L 737.6 530.7 L 732.2 527.1 L 726.8 523.6 L 721.4 520.1 L 716.0 516.7 L 710.5 513.3 L 705.0 509.9 L 699.4 506.6 L 693.9 503.3 L 688.3 500.0 L 682.8 496.8 L 677.2 493.5 L 671.6 490.3 L 666.0 487.1 L 660.4 483.8 L 654.8 480.6 L 654.8 480.6 L 649.3 477.4 L 643.6 474.2 L 638.0 471.1 L 632.3 468.0 L 626.6 465.0 L 620.9 461.9 L 615.2 458.9 L 609.5 455.9 L 603.8 452.9 L 598.1 449.8 L 592.4 446.7 L 586.8 443.6 L 581.2 440.4 L 575.6 437.2 L 570.1 433.9 L 564.6 430.5 L 564.6 430.5 L 559.1 427.1 L 553.7 423.7 L 548.2 420.2 L 542.8 416.7 L 537.4 413.2 L 532.0 409.6 L 526.6 406.0 L 521.3 402.4 L 516.0 398.7 L 510.7 395.0 L 505.5 391.2 L 500.3 387.3 L 495.2 383.4 L 490.1 379.5 L 485.1 375.4 L 480.2 371.3 L 480.2 371.3 L 475.3 367.2 L 470.4 363.0 L 465.5 358.7 L 460.7 354.4 L 455.9 350.0 L 451.2 345.6 L 446.5 341.1 L 441.9 336.6 L 437.3 332.0 L 432.8 327.4 L 428.4 322.7 L 424.0 317.9 L 419.8 313.1 L 415.6 308.2 L 411.5 303.2 L 407.6 298.2 L 407.6 298.2 L 403.7 293.1 L 400.0 287.9 L 396.3 282.6 L 392.8 277.3 L 389.4 271.8 L 386.0 266.3 L 382.8 260.8 L 379.5 255.2 L 376.4 249.6 L 373.2 243.9 L 370.1 238.2 L 367.1 232.5 L 364.0 226.9 L 360.9 221.2 L 357.8 215.5 L 354.7 209.8 L 354.7 209.8 L 351.7 204.2 L 348.6 198.5 L 345.6 192.8 L 342.7 187.1 L 339.8 181.3 L 336.9 175.5 L 334.1 169.8 L 331.2 164.0 L 328.4 158.2 L 325.5 152.4 L 322.6 146.6 L 319.7 140.8 L 316.8 135.1 L 313.9 129.4 L 310.8 123.6 L 307.8 118.0 L 307.8 118.0 L 304.7 112.3 L 301.5 106.7 L 298.4 101.1 L 295.2 95.4 L 292.0 89.8 L 288.8 84.3 L 285.5 78.7 L 282.3 73.1 L 279.0 67.5 L 275.7 62.0 L 272.4 56.4 L 269.1 50.9 L 265.8 45.4 L 262.5 39.8 L 259.2 34.3 L 255.8 28.8 L 255.8 28.8 L 252.5 23.2 L 249.2 17.7 L 245.9 12.1 L 242.7 6.6 L 239.4 1.0 L 238.8 0.0" fill="none" stroke="#ff3ea5" stroke-width="6.0" stroke-opacity="0.9"/></g><g id="clips"><circle cx="1096.9" cy="0.0" r="2" fill="none" stroke="#0b5" stroke-width="0.6"/><circle cx="758.9" cy="0.0" r="2" fill="none" stroke="#0b5" stroke-width="0.6"/><circle cx="509.3" cy="0.0" r="2" fill="none" stroke="#0b5" stroke-width="0.6"/><circle cx="412.4" cy="0.0" r="2" fill="none" stroke="#0b5" stroke-width="0.6"/><circle cx="238.8" cy="0.0" r="2" fill="none" stroke="#0b5" stroke-width="0.6"/></g><g id="power"><circle cx="1096.9" cy="0.0" r="5" fill="none" stroke="#e33" stroke-width="1"/><circle cx="1025.9" cy="0.0" r="5" fill="none" stroke="#e33" stroke-width="1"/><circle cx="759.0" cy="0.0" r="5" fill="none" stroke="#e33" stroke-width="1"/><circle cx="509.2" cy="0.0" r="5" fill="none" stroke="#e33" stroke-width="1"/><circle cx="412.4" cy="0.0" r="5" fill="none" stroke="#e33" stroke-width="1"/><circle cx="238.8" cy="0.0" r="5" fill="none" stroke="#e33" stroke-width="1"/></g></svg>