<svg xmlns="http://www.w3.org/2000/svg" width="2000mm" height="1000mm" viewBox="0 0 2000 1000"><g id="outline"><rect x="0" y="0" width="2000" height="1000" fill="none" stroke="#000" stroke-width="1"/></g><g id="channels"><path d="M 137.9 617.4 L 137.5 620.6 L 136.8 624.5 L 136.0 628.9 L 135.1 634.0 L 134.1 639.4 L 133.0 645.2 L 131.9 651.3 L 130.9 657.7 L 129.8 664.3 L 128.8 671.0 L 127.9 677.6 L 127.2 684.4 L 126.5 690.9 L 126.0 697.3 L 125.6 703.5 L 125.6 709.4 L 125.6 709.4 L 125.6 715.1 L 125.7 720.9 L 125.8 726.7 L 126.0 732.6 L 126.2 738.5 L 126.6 744.4 L 127.1 750.3 L 127.7 756.1 L 128.4 761.9 L 129.3 767.6 L 130.4 773.2 L 131.7 778.8 L 133.3 784.1 L 135.1 789.4 L 137.2 794.5 L 139.4 799.3 L 139.4 799.3 L 142.1 804.2 L 145.0 809.0 L 148.2 813.7 L 151.7 818.4 L 155.4 823.0 L 159.2 827.6 L 163.3 832.0 L 167.6 836.3 L 171.9 840.4 L 176.5 844.4 L 181.1 848.2 L 185.9 851.7 L 190.7 855.0 L 195.4 858.1 L 200.3 860.9 L 205.2 863.5 L 205.2 863.5 L 210.2 865.8 L 215.4 868.0 L 220.8 869.9 L 226.4 871.8 L 232.0 873.4 L 237.8 874.7 L 243.7 875.9 L 249.5 876.9 L 255.5 877.6 L 261.4 878.1 L 267.3 878.5 L 273.1 878.5 L 278.9 878.3 L 284.5 877.8 L 289.9 877.1 L 295.3 876.1 L 295.3 876.1 L 300.5 874.8 L 305.8 873.1 L 311.0 871.2 L 316.3 869.0 L 321.5 866.5 L 326.7 863.7 L 331.9 860.8 L 336.9 857.6 L 341.8 854.1 L 346.6 850.6 L 351.4 846.9 L 355.9 843.1 L 360.3 839.2 L 364.4 835.1 L 368.4 831.1 L 372.1 826.9 L 372.1 826.9 L 375.6 822.7 L 379.0 818.2 L 382.2 813.5 L 385.2 808.6 L 388.1 803.5 L 390.7 798.4 L 393.3 793.1 L 395.7 787.8 L 398.0 782.2 L 400.2 776.7 L 402.3 771.1 L 404.4 765.5 L 406.3 759.9 L 408.1 754.3 L 410.0 748.8 L 411.7 743.2 L 411.7 743.2 L 413.4 737.6 L 415.0 731.6 L 416.5 725.3 L 418.0 718.9 L 419.2 712.2 L 420.5 705.6 L 421.6 699.0 L 422.6 692.4 L 423.6 686.0 L 424.4 679.9 L 425.3 674.1 L 426.0 668.6 L 426.7 663.6 L 427.4 659.2 L 428.0 655.3 L 428.5 652.1 L 387.7 444.4 L 390.9 445.0 L 394.9 445.7 L 399.3 446.5 L 404.3 447.5 L 409.7 448.5 L 415.6 449.6 L 421.7 450.7 L 428.1 451.8 L 434.7 453.0 L 441.4 454.2 L 448.1 455.4 L 454.8 456.5 L 461.5 457.6 L 467.9 458.6 L 474.2 459.6 L 480.2 460.4 L 480.2 460.4 L 486.0 461.2 L 491.8 461.9 L 497.7 462.5 L 503.5 463.1 L 509.4 463.7 L 515.2 464.2 L 521.0 464.7 L 526.9 465.1 L 532.7 465.6 L 538.6 466.1 L 544.5 466.6 L 550.3 467.1 L 556.1 467.7 L 562.0 468.3 L 567.8 469.0 L 573.6 469.6 L 573.6 469.6 L 579.4 470.5 L 585.3 471.2 L 591.1 472.1 L 596.9 473.0 L 602.7 473.9 L 608.5 474.9 L 614.3 475.8 L 620.1 476.7 L 625.9 477.7 L 631.7 478.6 L 637.4 479.6 L 643.2 480.7 L 649.0 481.7 L 654.8 482.6 L 660.6 483.6 L 666.4 484.5 L 666.4 484.5 L 672.1 485.5 L 677.9 486.5 L 683.7 487.5 L 689.5 488.5 L 695.2 489.6 L 701.0 490.7 L 706.8 491.7 L 712.6 492.8 L 718.4 493.8 L 724.1 494.8 L 729.9 495.9 L 735.7 496.8 L 741.5 497.7 L 747.3 498.6 L 753.1 499.4 L 758.9 500.1 L 758.9 500.1 L 764.8 501.0 L 770.6 501.7 L 776.5 502.6 L 782.4 503.5 L 788.2 504.3 L 794.0 505.2 L 799.9 505.9 L 805.8 506.7 L 811.7 507.4 L 817.6 507.9 L 823.4 508.3 L 829.2 508.6 L 835.0 508.8 L 840.8 508.7 L 846.6 508.5 L 852.3 508.0 L 852.3 508.0 L 858.2 507.3 L 864.2 506.0 L 870.4 504.4 L 876.6 502.5 L 882.9 500.3 L 889.2 498.0 L 895.4 495.7 L 901.6 493.3 L 907.7 491.0 L 913.5 488.8 L 919.1 486.8 L 924.5 485.1 L 929.5 483.8 L 934.1 482.9 L 938.4 482.6 L 942.2 482.8 L 942.2 482.8 L 945.6 483.6 L 948.5 485.1 L 951.1 487.1 L 953.4 489.6 L 955.4 492.3 L 957.1 495.4 L 958.5 498.8 L 959.8 502.2 L 960.9 505.7 L 961.8 509.1 L 962.6 512.5 L 963.4 515.7 L 964.0 518.5 L 964.7 521.1 L 965.4 523.2 L 966.1 524.8" fill="none" stroke="#ff7a1a" stroke-width="6.0" stroke-opacity="0.9"/><path d="M 0.0 487.5 L 0.4 488.1 L 3.3 492.5 L 6.3 496.9 L 9.3 501.2 L 12.2 505.5 L 15.4 509.8 L 18.5 514.1 L 21.6 518.3 L 24.8 522.4 L 28.0 526.4 L 31.4 530.4 L 34.8 534.2 L 38.4 537.9 L 42.1 541.6 L 45.8 545.1 L 45.8 545.1 L 49.7 548.4 L 53.7 551.7 L 57.7 554.8 L 61.9 557.9 L 66.1 561.0 L 70.5 563.9 L 74.8 566.8 L 79.3 569.4 L 83.8 572.1 L 88.3 574.7 L 93.0 577.2 L 97.7 579.6 L 102.3 581.9 L 107.0 584.1 L 111.7 586.2 L 116.5 588.3 L 116.5 588.3 L 121.2 590.2 L 126.1 592.0 L 130.9 593.7 L 135.9 595.3 L 140.8 596.7 L 145.9 598.2 L 151.0 599.4 L 156.1 600.7 L 161.2 601.9 L 166.3 603.0 L 171.5 604.0 L 176.6 605.1 L 181.8 606.1 L 187.0 607.1 L 192.1 608.1 L 197.2 609.1 L 197.2 609.1 L 202.3 610.1 L 207.5 611.0 L 212.6 611.9 L 217.7 612.9 L 222.8 613.7 L 228.0 614.5 L 233.2 615.3 L 238.4 616.0 L 243.5 616.7 L 248.7 617.4 L 253.9 618.0 L 259.0 618.6 L 264.2 619.2 L 269.5 619.7 L 274.7 620.2 L 279.8 620.6 L 279.8 620.6 L 285.0 621.0 L 290.2 621.4 L 295.4 621.7 L 300.6 621.9 L 305.8 622.1 L 311.0 622.3 L 316.2 622.4 L 321.4 622.5 L 326.7 622.6 L 331.9 622.7 L 337.2 622.7 L 342.4 622.7 L 347.6 622.7 L 352.8 622.7 L 358.0 622.7 L 363.2 622.7 L 363.2 622.7 L 368.4 622.7 L 373.6 622.6 L 378.8 622.5 L 384.0 622.4 L 389.3 622.2 L 394.5 622.0 L 399.7 621.8 L 404.9 621.6 L 410.2 621.4 L 415.4 621.2 L 420.6 620.9 L 425.8 620.8 L 431.0 620.7 L 436.2 620.6 L 441.4 620.5 L 446.6 620.5 L 446.6 620.5 L 451.9 620.6 L 457.1 620.7 L 462.3 620.8 L 467.5 620.8 L 472.7 621.0 L 477.9 621.1 L 483.1 621.3 L 488.4 621.5 L 493.6 621.7 L 498.8 621.9 L 504.0 622.2 L 509.2 622.5 L 514.4 622.8 L 519.6 623.1 L 524.8 623.5 L 530.0 623.9 L 530.0 623.9 L 535.2 624.3 L 540.4 624.7 L 545.6 625.1 L 550.9 625.6 L 556.0 626.1 L 561.2 626.6 L 566.4 627.1 L 571.6 627.7 L 576.8 628.2 L 581.9 628.8 L 587.1 629.5 L 592.3 630.2 L 597.5 630.8 L 602.7 631.5 L 607.8 632.3 L 613.0 633.0 L 613.0 633.0 L 618.1 633.8 L 623.3 634.6 L 628.4 635.5 L 633.6 636.4 L 638.7 637.3 L 643.8 638.2 L 649.0 639.2 L 654.1 640.2 L 659.2 641.2 L 664.3 642.2 L 669.5 643.2 L 674.5 644.3 L 679.6 645.3 L 684.7 646.3 L 689.9 647.3 L 695.0 648.3 L 695.0 648.3 L 700.1 649.3 L 705.2 650.3 L 710.4 651.4 L 715.5 652.4 L 720.5 653.5 L 725.7 654.6 L 730.8 655.7 L 735.9 656.8 L 741.0 657.9 L 746.1 659.0 L 751.2 660.0 L 756.3 661.0 L 761.4 662.0 L 766.6 662.9 L 771.7 663.8 L 776.9 664.6 L 776.9 664.6 L 782.0 665.4 L 787.1 666.1 L 792.4 666.8 L 797.5 667.5 L 802.7 668.1 L 807.9 668.6 L 813.0 669.2 L 818.2 669.8 L 823.4 670.3 L 828.6 670.8 L 833.8 671.3 L 839.0 671.9 L 844.2 672.4 L 849.4 672.9 L 854.6 673.4 L 859.7 674.0 L 859.7 674.0 L 864.9 674.5 L 870.1 675.0 L 875.4 675.4 L 880.6 675.8 L 885.8 676.1 L 891.1 676.5 L 896.3 676.8 L 901.6 677.1 L 906.8 677.5 L 912.0 678.0 L 917.2 678.6 L 922.4 679.1 L 927.5 679.9 L 932.6 680.7 L 937.7 681.7 L 942.7 682.8 L 942.7 682.8 L 947.7 684.1 L 952.7 685.4 L 957.7 686.8 L 962.7 688.3 L 967.7 689.9 L 972.6 691.6 L 977.5 693.3 L 982.4 695.2 L 987.3 697.1 L 992.1 699.1 L 996.9 701.2 L 1001.6 703.3 L 1006.3 705.6 L 1010.9 707.9 L 1015.5 710.3 L 1020.1 712.7 L 1020.1 712.7 L 1024.5 715.5 L 1029.1 718.6 L 1033.7 722.0 L 1038.2 725.6 L 1042.8 729.5 L 1047.3 733.3 L 1051.7 737.3 L 1056.1 741.1 L 1060.4 745.0 L 1064.5 748.6 L 1068.5 752.1 L 1072.5 755.2 L 1076.2 758.0 L 1079.8 760.4 L 1083.2 762.2 L 1086.3 763.5 L 1086.3 763.5 L 1089.1 764.2 L 1091.8 764.4 L 1094.2 764.2 L 1096.3 763.5 L 1098.4 762.4 L 1100.2 761.0 L 1102.0 759.5 L 1103.7 757.8 L 1105.3 755.9 L 1106.8 754.1 L 1108.3 752.1 L 1109.9 750.4 L 1111.5 748.7 L 1113.2 747.2 L 1115.0 745.9 L 1116.9 744.9 L 1116.9 744.9 L 1118.9 744.2 L 1120.7 743.3 L 1122.5 742.6 L 1124.2 741.7 L 1125.9 740.9 L 1127.6 740.1 L 1129.3 739.5 L 1131.0 738.9 L 1132.9 738.4 L 1134.9 737.9 L 1137.0 737.7 L 1139.4 737.5 L 1141.9 737.5 L 1144.6 737.8 L 1147.6 738.2 L 1150.9 738.8 L 1150.9 738.8 L 1154.6 739.8 L 1159.2 741.4 L 1164.2 743.4 L 1169.8 745.8 L 1175.6 748.4 L 1181.7 751.1 L 1187.8 754.0 L 1194.0 756.8 L 1199.8 759.6 L 1205.5 762.1 L 1210.8 764.5 L 1215.5 766.3 L 1219.7 767.8 L 1222.9 768.7 L 1225.5 768.9 L 1226.9 768.4 L 1226.9 768.4 L 1227.1 767.1 L 1226.2 765.0 L 1224.3 762.3 L 1221.5 758.9 L 1218.0 755.2 L 1213.9 751.0 L 1209.6 746.5 L 1205.0 741.9 L 1200.3 737.2 L 1195.7 732.5 L 1191.5 727.9 L 1187.7 723.5 L 1184.5 719.5 L 1181.9 715.8 L 1180.4 712.6 L 1179.9 710.1 L 1179.9 710.1 L 1180.5 708.0 L 1182.0 706.3 L 1184.1 705.0 L 1187.0 703.9 L 1190.3 703.2 L 1194.0 702.5 L 1198.1 702.0 L 1202.4 701.7 L 1206.7 701.3 L 1211.1 701.0 L 1215.4 700.6 L 1219.4 700.1 L 1223.2 699.6 L 1226.5 698.8 L 1229.2 697.7 L 1231.3 696.4 L 1231.3 696.4 L 1233.0 694.9 L 1234.5 693.3 L 1235.8 691.5 L 1236.8 689.6 L 1237.6 687.6 L 1238.3 685.6 L 1238.8 683.5 L 1239.1 681.3 L 1239.4 679.1 L 1239.4 676.9 L 1239.3 674.6 L 1239.1 672.3 L 1238.7 670.1 L 1238.3 667.8 L 1237.8 665.5 L 1237.1 663.4 L 1237.1 663.4 L 1236.1 661.1 L 1234.6 658.8 L 1232.5 656.4 L 1230.2 653.9 L 1227.5 651.5 L 1224.6 649.0 L 1221.7 646.5 L 1218.8 643.9 L 1216.1 641.5 L 1213.7 639.1 L 1211.6 636.7 L 1209.9 634.5 L 1208.8 632.4 L 1208.4 630.3 L 1208.7 628.3 L 1209.9 626.6 L 1209.9 626.6 L 1212.3 625.0 L 1215.6 623.5 L 1220.0 622.3 L 1225.1 621.1 L 1230.9 620.0 L 1237.2 619.1 L 1243.8 618.2 L 1250.5 617.2 L 1257.3 616.4 L 1263.8 615.6 L 1270.1 614.6 L 1275.9 613.7 L 1281.0 612.7 L 1285.3 611.5 L 1288.8 610.3 L 1291.1 608.9 L 1291.1 608.9 L 1292.4 607.4 L 1293.2 605.7 L 1293.4 603.9 L 1293.1 601.9 L 1292.3 599.9 L 1291.1 597.9 L 1289.5 595.8 L 1287.4 593.7 L 1285.2 591.7 L 1282.6 589.7 L 1279.7 587.8 L 1276.7 585.9 L 1273.5 584.2 L 1270.2 582.6 L 1266.8 581.3 L 1263.3 580.1 L 1263.3 580.1 L 1259.6 579.2 L 1255.6 578.5 L 1251.2 578.1 L 1246.4 577.8 L 1241.3 577.6 L 1236.0 577.6 L 1230.6 577.6 L 1225.0 577.7 L 1219.2 577.8 L 1213.5 577.8 L 1207.7 577.8 L 1202.0 577.6 L 1196.4 577.3 L 1190.8 576.8 L 1185.5 576.1 L 1180.3 575.2 L 1180.3 575.2 L 1175.1 573.9 L 1169.8 572.5 L 1164.3 570.7 L 1158.7 568.8 L 1153.0 566.8 L 1147.4 564.6 L 1141.8 562.3 L 1136.2 560.0 L 1131.0 557.8 L 1125.8 555.5 L 1121.0 553.4 L 1116.4 551.4 L 1112.3 549.5 L 1108.6 547.9 L 1105.3 546.6 L 1102.6 545.5 L 1065.9 569.4 L 1067.1 566.2 L 1068.6 562.1 L 1070.6 557.4 L 1072.7 552.1 L 1075.1 546.3 L 1077.5 540.1 L 1080.1 533.6 L 1082.7 526.9 L 1085.3 520.1 L 1087.8 513.4 L 1090.0 506.8 L 1092.1 500.3 L 1093.9 494.3 L 1095.3 488.5 L 1096.3 483.3 L 1096.9 478.8 L 1096.9 478.8 L 1097.0 474.5 L 1096.9 470.2 L 1096.6 465.9 L 1096.1 461.6 L 1095.3 457.5 L 1094.3 453.4 L 1093.2 449.7 L 1091.7 446.1 L 1090.2 442.9 L 1088.5 440.2 L 1086.6 437.7 L 1084.6 435.9 L 1082.4 434.5 L 1080.1 433.7 L 1077.7 433.6 L 1075.2 434.1 L 1075.2 434.1 L 1072.5 435.5 L 1069.6 437.9 L 1066.5 441.1 L 1063.3 445.0 L 1059.9 449.6 L 1056.3 454.6 L 1052.6 460.0 L 1048.7 465.7 L 1044.7 471.6 L 1040.7 477.5 L 1036.5 483.3 L 1032.2 489.1 L 1027.8 494.5 L 1023.4 499.6 L 1019.0 504.2 L 1014.5 508.2 L 1014.5 508.2 L 1009.9 511.8 L 1005.2 515.4 L 1000.4 518.9 L 995.5 522.3 L 990.5 525.6 L 985.4 528.8 L 980.3 531.9 L 975.0 534.7 L 969.6 537.5 L 964.2 540.1 L 958.8 542.5 L 953.3 544.7 L 947.8 546.6 L 942.3 548.3 L 936.7 549.7 L 931.1 550.9 L 931.1 550.9 L 925.5 551.7 L 919.8 552.2 L 914.1 552.5 L 908.2 552.4 L 902.3 552.1 L 896.3 551.5 L 890.4 550.7 L 884.3 549.9 L 878.3 548.9 L 872.2 547.8 L 866.2 546.6 L 860.1 545.4 L 854.1 544.3 L 848.0 543.2 L 842.1 542.1 L 836.1 541.3 L 836.1 541.3 L 830.2 540.4 L 824.4 539.5 L 818.5 538.4 L 812.5 537.4 L 806.6 536.2 L 800.8 535.1 L 794.9 533.9 L 789.0 532.6 L 783.1 531.5 L 777.2 530.3 L 771.4 529.1 L 765.5 528.0 L 759.6 526.9 L 753.7 525.8 L 747.8 524.8 L 741.9 523.9 L 741.9 523.9 L 736.0 523.1 L 730.0 522.2 L 724.1 521.4 L 718.2 520.6 L 712.2 519.9 L 706.3 519.1 L 700.4 518.4 L 694.4 517.7 L 688.4 517.0 L 682.5 516.4 L 676.5 515.8 L 670.6 515.2 L 664.6 514.6 L 658.6 514.0 L 652.7 513.4 L 646.7 512.8 L 646.7 512.8 L 640.7 512.3 L 634.8 511.9 L 628.8 511.5 L 622.8 511.1 L 616.8 510.7 L 610.8 510.5 L 604.9 510.1 L 598.9 509.8 L 592.9 509.5 L 586.9 509.2 L 580.9 508.9 L 575.0 508.5 L 569.0 508.0 L 563.0 507.5 L 557.1 506.9 L 551.1 506.4 L 551.1 506.4 L 545.1 505.7 L 539.2 505.0 L 533.2 504.4 L 527.2 503.8 L 521.2 503.2 L 515.2 502.6 L 509.2 501.8 L 503.2 501.1 L 497.3 500.3 L 491.3 499.4 L 485.4 498.3 L 479.5 497.2 L 473.7 495.9 L 468.0 494.5 L 462.3 492.9 L 456.7 491.2 L 456.7 491.2 L 451.1 489.2 L 445.5 487.2 L 440.0 485.0 L 434.4 482.8 L 429.0 480.3 L 423.4 477.8 L 418.0 475.2 L 412.7 472.4 L 407.4 469.6 L 402.1 466.6 L 397.0 463.6 L 391.8 460.4 L 386.8 457.1 L 381.9 453.8 L 377.1 450.3 L 372.4 446.7 L 372.4 446.7 L 367.9 443.0 L 363.4 439.2 L 359.1 435.2 L 354.8 431.1 L 350.6 426.8 L 346.5 422.4 L 342.4 418.0 L 338.4 413.5 L 334.6 408.8 L 330.7 404.2 L 326.9 399.5 L 323.2 394.7 L 319.5 389.9 L 315.9 385.1 L 312.3 380.4 L 308.8 375.6 L 308.8 375.6 L 305.3 370.7 L 302.0 365.7 L 298.7 360.8 L 295.5 355.7 L 292.4 350.6 L 289.4 345.5 L 286.3 340.3 L 283.4 335.1 L 280.5 329.8 L 277.5 324.6 L 274.5 319.3 L 271.6 314.1 L 268.5 308.9 L 265.5 303.7 L 262.4 298.6 L 259.2 293.5 L 259.2 293.5 L 256.0 288.5 L 252.8 283.4 L 249.6 278.4 L 246.4 273.3 L 243.2 268.2 L 240.0 263.2 L 236.8 258.1 L 233.5 253.1 L 230.2 248.1 L 226.9 243.1 L 223.5 238.1 L 220.1 233.3 L 216.6 228.4 L 213.0 223.6 L 209.4 218.9 L 205.7 214.2 L 205.7 214.2 L 201.9 209.6 L 198.1 205.0 L 194.1 200.6 L 190.2 196.1 L 186.0 191.8 L 181.9 187.4 L 177.8 183.1 L 173.5 178.8 L 169.3 174.6 L 165.1 170.4 L 160.8 166.1 L 156.6 161.9 L 152.3 157.6 L 148.1 153.4 L 143.9 149.1 L 139.7 144.8 L 139.7 144.8 L 135.5 140.5 L 131.4 136.3 L 127.2 131.9 L 123.0 127.6 L 118.9 123.2 L 114.7 118.9 L 110.6 114.6 L 106.4 110.2 L 102.2 105.9 L 98.0 101.6 L 93.8 97.4 L 89.5 93.2 L 85.2 89.1 L 80.9 85.0 L 76.4 81.0 L 72.0 76.9 L 72.0 76.9 L 67.5 73.0 L 63.0 69.1 L 58.4 65.2 L 53.9 61.3 L 49.3 57.5 L 44.7 53.7 L 40.0 49.9 L 35.3 46.1 L 30.6 42.4 L 25.9 38.8 L 21.1 35.3 L 16.2 31.8 L 11.3 28.2 L 6.4 24.9 L 1.5 21.5 L 0.0 20.5" fill="none" stroke="#ff7a1a" stroke-width="6.0" stroke-opacity="0.9"/></g><g id="clips"><circle cx="137.9" cy="617.4" r="2" fill="none" stroke="#0b5" stroke-width="0.6"/><circle cx="147.3" cy="812.4" r="2" fill="none" stroke="#0b5" stroke-width="0.6"/><circle cx="322.8" cy="865.8" r="2" fill="none" stroke="#0b5" stroke-width="0.6"/><circle cx="421.3" cy="700.7" r="2" fill="none" stroke="#0b5" stroke-width="0.6"/><circle cx="399.4" cy="504.1" r="2" fill="none" stroke="#0b5" stroke-width="0.6"/><circle cx="525.3" cy="465.0" r="2" fill="none" stroke="#0b5" stroke-width="0.6"/><circle cx="723.0" cy="494.6" r="2" fill="none" stroke="#0b5" stroke-width="0.6"/><circle cx="918.5" cy="487.0" r="2" fill="none" stroke="#0b5" stroke-width="0.6"/><circle cx="0.0" cy="487.5" r="2" fill="none" stroke="#0b5" stroke-width="0.6"/><circle cx="157.5" cy="601.0" r="2" fill="none" stroke="#0b5" stroke-width="0.6"/><circle cx="355.8" cy="622.7" r="2" fill="none" stroke="#0b5" stroke-width="0.6"/><circle cx="555.6" cy="626.1" r="2" fill="none" stroke="#0b5" stroke-width="0.6"/><circle cx="752.5" cy="660.3" r="2" fill="none" stroke="#0b5" stroke-width="0.6"/><circle cx="950.7" cy="684.9" r="2" fill="none" stroke="#0b5" stroke-width="0.6"/><circle cx="1119.8" cy="743.8" r="2" fill="none" stroke="#0b5" stroke-width="0.6"/><circle cx="1186.5" cy="704.1" r="2" fill="none" stroke="#0b5" stroke-width="0.6"/><circle cx="1278.1" cy="613.3" r="2" fill="none" stroke="#0b5" stroke-width="0.6"/><circle cx="1126.6" cy="555.9" r="2" fill="none" stroke="#0b5" stroke-width="0.6"/><circle cx="1091.4" cy="445.5" r="2" fill="none" stroke="#0b5" stroke-width="0.6"/><circle cx="943.6" cy="547.9" r="2" fill="none" stroke="#0b5" stroke-width="0.6"/><circle cx="746.5" cy="524.6" r="2" fill="none" stroke="#0b5" stroke-width="0.6"/><circle cx="547.5" cy="506.0" r="2" fill="none" stroke="#0b5" stroke-width="0.6"/><circle cx="363.1" cy="439.0" r="2" fill="none" stroke="#0b5" stroke-width="0.6"/><circle cx="248.3" cy="276.3" r="2" fill="none" stroke="#0b5" stroke-width="0.6"/><circle cx="119.7" cy="124.0" r="2" fill="none" stroke="#0b5" stroke-width="0.6"/><circle cx="0.0" cy="20.5" r="2" fill="none" stroke="#0b5" stroke-width="0.6"/></g><g id="power"><circle cx="0.0" cy="487.5" r="5" fill="none" stroke="#e33" stroke-width="1"/><circle cx="0.0" cy="20.5" r="5" fill="none" stroke="#e33" stroke-width="1"/></g><g id="bridges"><circle cx="147.0" cy="609.0" r="9" fill="none" stroke="#e6a817" stroke-width="1.5"/><circle cx="147.0" cy="609.0" r="9" fill="none" stroke="#e6a817" stroke-width="1.5"/><circle cx="392.3" cy="454.0" r="9" fill="none" stroke="#e6a817" stroke-width="1.5"/><circle cx="380.1" cy="445.5" r="9" fill="none" stroke="#e6a817" stroke-width="1.5"/><circle cx="414.6" cy="460.1" r="9" fill="none" stroke="#e6a817" stroke-width="1.5"/><circle cx="738.8" cy="510.4" r="9" fill="none" stroke="#e6a817" stroke-width="1.5"/><circle cx="750.5" cy="512.1" r="9" fill="none" stroke="#e6a817" stroke-width="1.5"/><circle cx="738.8" cy="510.4" r="9" fill="none" stroke="#e6a817" stroke-width="1.5"/><circle cx="961.4" cy="530.5" r="9" fill="none" stroke="#e6a817" stroke-width="1.5"/><circle cx="978.0" cy="524.4" r="9" fill="none" stroke="#e6a817" stroke-width="1.5"/><circle cx="1185.7" cy="740.4" r="9" fill="none" stroke="#e6a817" stroke-width="1.5"/><circle cx="1191.0" cy="744.1" r="9" fill="none" stroke="#e6a817" stroke-width="1.5"/><circle cx="382.4" cy="447.3" r="9" fill="none" stroke="#e6a817" stroke-width="1.5"/></g></svg>