<svg xmlns="http://www.w3.org/2000/svg" width="1000mm" height="2000mm" viewBox="0 0 1000 2000"><g id="outline"><rect x="0" y="0" width="1000" height="2000" fill="none" stroke="#000" stroke-width="1"/></g><g id="channels"><path d="M 385.6 0.0 L 385.8 0.7 L 387.3 7.2 L 387.3 7.2 L 388.9 13.7 L 390.4 20.3 L 391.9 26.8 L 393.4 33.4 L 395.0 40.0 L 396.5 46.5 L 398.0 53.1 L 399.6 59.6 L 401.2 66.1 L 402.8 72.7 L 404.4 79.2 L 406.1 85.7 L 407.8 92.2 L 409.6 98.7 L 411.4 105.2 L 413.2 111.6 L 413.2 111.6 L 415.1 118.1 L 417.1 124.5 L 419.0 130.9 L 421.0 137.4 L 423.0 143.8 L 425.0 150.2 L 427.1 156.6 L 429.2 163.0 L 431.4 169.4 L 433.6 175.7 L 435.8 182.0 L 438.1 188.4 L 440.5 194.6 L 442.9 200.9 L 445.4 207.1 L 447.9 213.4 L 447.9 213.4 L 450.6 219.5 L 453.3 225.6 L 456.1 231.7 L 459.0 237.8 L 462.0 243.8 L 465.0 249.8 L 468.1 255.8 L 471.2 261.8 L 474.4 267.7 L 477.5 273.7 L 480.6 279.7 L 483.7 285.6 L 486.8 291.6 L 489.8 297.6 L 492.8 303.6 L 495.7 309.7 L 495.7 309.7 L 498.6 315.8 L 501.6 321.8 L 504.7 327.8 L 507.8 333.9 L 510.9 339.9 L 514.1 345.9 L 517.1 352.0 L 520.2 358.1 L 523.1 364.1 L 526.0 370.2 L 528.7 376.4 L 531.3 382.5 L 533.8 388.7 L 536.0 395.0 L 538.0 401.3 L 539.8 407.6 L 539.8 407.6 L 541.5 414.1 L 543.0 420.6 L 544.5 427.1 L 545.8 433.8 L 547.0 440.5 L 548.1 447.2 L 549.1 453.9 L 549.8 460.7 L 550.5 467.5 L 550.9 474.2 L 551.1 480.9 L 551.2 487.6 L 551.0 494.3 L 550.6 500.8 L 550.0 507.4 L 549.1 513.8 L 549.1 513.8 L 547.9 520.2 L 546.4 526.5 L 544.6 532.8 L 542.6 539.1 L 540.4 545.4 L 537.9 551.6 L 535.3 557.8 L 532.5 564.0 L 529.5 570.1 L 526.5 576.2 L 523.3 582.3 L 520.1 588.3 L 516.8 594.3 L 513.5 600.2 L 510.2 606.1 L 506.9 611.9 L 506.9 611.9 L 503.6 617.7 L 500.1 623.4 L 496.5 629.0 L 492.8 634.5 L 488.9 640.1 L 485.0 645.5 L 481.0 651.0 L 477.0 656.4 L 472.9 661.8 L 468.8 667.1 L 464.7 672.5 L 460.6 677.8 L 456.5 683.2 L 452.4 688.6 L 448.4 694.0 L 444.4 699.4 L 444.4 699.4 L 440.5 704.9 L 436.5 710.3 L 432.6 715.8 L 428.6 721.2 L 424.6 726.6 L 420.6 732.0 L 416.7 737.4 L 412.7 742.9 L 408.7 748.3 L 404.7 753.7 L 400.8 759.1 L 396.8 764.6 L 392.9 770.0 L 388.9 775.5 L 385.0 781.0 L 381.1 786.4 L 381.1 786.4 L 377.3 791.9 L 373.4 797.4 L 369.6 803.0 L 365.7 808.5 L 361.9 814.0 L 358.1 819.6 L 354.3 825.1 L 350.5 830.7 L 346.8 836.2 L 343.0 841.8 L 339.2 847.4 L 335.4 852.9 L 331.6 858.5 L 327.9 864.1 L 324.1 869.6 L 320.3 875.2 L 320.3 875.2 L 316.5 880.7 L 312.5 886.2 L 308.5 891.7 L 304.4 897.1 L 300.3 902.5 L 296.2 908.0 L 292.1 913.4 L 288.1 918.9 L 284.1 924.4 L 280.2 929.9 L 276.4 935.4 L 272.7 941.0 L 269.2 946.7 L 265.9 952.5 L 262.8 958.3 L 259.9 964.2 L 259.9 964.2 L 257.1 970.2 L 254.3 976.3 L 251.6 982.6 L 248.8 988.9 L 246.2 995.2 L 243.7 1001.7 L 241.3 1008.1 L 239.1 1014.6 L 237.1 1021.1 L 235.4 1027.6 L 233.9 1034.1 L 232.8 1040.6 L 232.0 1047.0 L 231.5 1053.3 L 231.5 1059.6 L 231.8 1065.8 L 231.8 1065.8 L 232.7 1071.9 L 234.0 1078.1 L 235.7 1084.2 L 237.8 1090.3 L 240.2 1096.4 L 243.0 1102.5 L 246.0 1108.6 L 249.3 1114.6 L 252.7 1120.6 L 256.3 1126.5 L 260.1 1132.4 L 263.9 1138.2 L 267.8 1143.9 L 271.7 1149.5 L 275.6 1155.1 L 279.4 1160.5 L 279.4 1160.5 L 283.3 1165.9 L 287.4 1171.1 L 291.6 1176.3 L 296.0 1181.3 L 300.5 1186.2 L 305.1 1191.1 L 309.9 1195.9 L 314.6 1200.7 L 319.5 1205.5 L 324.3 1210.2 L 329.2 1214.9 L 334.1 1219.7 L 338.9 1224.4 L 343.7 1229.2 L 348.5 1234.0 L 353.1 1238.9 L 353.1 1238.9 L 357.8 1243.7 L 362.4 1248.6 L 367.1 1253.4 L 371.8 1258.2 L 376.5 1263.0 L 381.3 1267.9 L 386.0 1272.7 L 390.7 1277.5 L 395.3 1282.3 L 400.0 1287.2 L 404.6 1292.1 L 409.2 1297.0 L 413.7 1302.0 L 418.1 1307.0 L 422.5 1312.1 L 426.8 1317.2 L 426.8 1317.2 L 431.1 1322.4 L 435.4 1327.6 L 439.7 1332.8 L 443.9 1338.0 L 448.1 1343.3 L 452.3 1348.6 L 456.4 1353.9 L 460.5 1359.3 L 464.5 1364.7 L 468.4 1370.2 L 472.3 1375.7 L 476.0 1381.2 L 479.6 1386.9 L 483.1 1392.5 L 486.5 1398.3 L 489.7 1404.1 L 489.7 1404.1 L 492.8 1410.0 L 495.8 1416.0 L 498.7 1422.0 L 501.4 1428.2 L 504.1 1434.3 L 506.7 1440.6 L 509.1 1446.9 L 511.5 1453.2 L 513.8 1459.6 L 516.0 1466.0 L 518.2 1472.4 L 520.3 1478.8 L 522.3 1485.2 L 524.2 1491.7 L 526.1 1498.1 L 528.0 1504.5 L 528.0 1504.5 L 529.7 1511.1 L 531.3 1517.9 L 532.7 1524.9 L 534.0 1532.1 L 535.2 1539.4 L 536.3 1546.6 L 537.3 1553.9 L 538.4 1561.1 L 539.4 1568.2 L 540.4 1575.1 L 541.5 1581.7 L 542.7 1588.1 L 544.0 1594.0 L 545.3 1599.6 L 546.9 1604.7 L 548.6 1609.3 L 548.6 1609.3 L 550.4 1613.3 L 552.4 1616.7 L 554.5 1619.5 L 556.7 1621.8 L 559.0 1623.7 L 561.3 1625.4 L 563.7 1626.8 L 566.1 1628.0 L 568.6 1629.2 L 571.0 1630.5 L 573.5 1631.8 L 576.0 1633.3 L 578.5 1635.1 L 580.9 1637.2 L 583.3 1639.7 L 585.7 1642.8 L 585.7 1642.8 L 588.0 1646.5 L 590.3 1650.8 L 592.5 1655.6 L 594.8 1660.8 L 597.0 1666.3 L 599.3 1672.0 L 601.5 1677.8 L 603.7 1683.6 L 606.0 1689.2 L 608.3 1694.6 L 610.6 1699.7 L 613.0 1704.4 L 615.3 1708.4 L 617.8 1711.9 L 620.2 1714.5 L 622.8 1716.3 L 622.8 1716.3 L 625.4 1717.2 L 628.3 1717.3 L 631.3 1716.6 L 634.5 1715.2 L 637.7 1713.4 L 640.9 1711.0 L 644.2 1708.4 L 647.4 1705.5 L 650.6 1702.5 L 653.6 1699.4 L 656.5 1696.3 L 659.3 1693.5 L 661.7 1690.8 L 664.0 1688.6 L 665.9 1686.7 L 667.5 1685.5" fill="none" stroke="#39ff88" stroke-width="6.0" stroke-opacity="0.9"/><path d="M 622.7 1526.1 L 623.3 1527.6 L 624.1 1529.5 L 624.9 1531.7 L 625.8 1534.1 L 626.8 1536.7 L 627.8 1539.5 L 629.0 1542.5 L 630.1 1545.6 L 631.4 1548.7 L 632.6 1551.9 L 634.0 1555.2 L 635.3 1558.4 L 636.6 1561.5 L 638.0 1564.5 L 639.3 1567.4 L 640.7 1570.1 L 640.7 1570.1 L 642.1 1572.9 L 643.5 1575.8 L 644.9 1578.8 L 646.4 1581.9 L 647.9 1585.1 L 649.4 1588.2 L 651.0 1591.3 L 652.5 1594.3 L 654.1 1597.2 L 655.8 1599.9 L 657.4 1602.5 L 659.0 1604.7 L 660.7 1606.7 L 662.4 1608.3 L 664.0 1609.6 L 665.7 1610.4 L 665.7 1610.4 L 667.4 1610.8 L 669.3 1610.6 L 671.2 1610.1 L 673.2 1609.1 L 675.2 1607.8 L 677.3 1606.3 L 679.4 1604.6 L 681.4 1602.7 L 683.4 1600.8 L 685.3 1598.8 L 687.1 1596.9 L 688.8 1595.1 L 690.4 1593.4 L 691.8 1592.0 L 693.0 1590.8 L 694.0 1590.0" fill="none" stroke="#39ff88" stroke-width="6.0" stroke-opacity="0.9"/><path d="M 686.3 1699.8 L 687.5 1702.6 L 689.0 1706.5 L 690.8 1711.3 L 692.9 1716.9 L 695.1 1722.9 L 697.5 1729.3 L 700.0 1735.8 L 702.5 1742.4 L 705.0 1748.7 L 707.5 1754.6 L 709.9 1759.9 L 712.2 1764.5 L 714.3 1768.1 L 716.2 1770.6 L 717.9 1771.7 L 719.2 1771.4 L 719.2 1771.4 L 720.1 1769.2 L 720.7 1765.4 L 721.0 1759.9 L 721.1 1753.2 L 720.9 1745.5 L 720.7 1737.0 L 720.3 1727.9 L 720.0 1718.5 L 719.6 1709.1 L 719.4 1699.9 L 719.3 1691.2 L 719.4 1683.1 L 719.8 1676.0 L 720.4 1670.0 L 721.5 1665.5 L 723.0 1662.7 L 723.0 1662.7 L 724.9 1661.5 L 727.2 1661.7 L 729.8 1663.2 L 732.8 1665.6 L 736.0 1668.9 L 739.4 1672.9 L 742.9 1677.3 L 746.5 1682.1 L 750.3 1687.0 L 754.0 1691.8 L 757.6 1696.5 L 761.2 1700.7 L 764.7 1704.3 L 768.0 1707.2 L 771.1 1709.2 L 773.9 1710.0 L 773.9 1710.0 L 776.6 1710.0 L 779.4 1709.6 L 782.3 1708.7 L 785.2 1707.5 L 788.1 1705.9 L 791.0 1704.0 L 793.7 1701.7 L 796.4 1699.1 L 798.8 1696.3 L 801.0 1693.1 L 803.0 1689.7 L 804.7 1686.1 L 806.0 1682.3 L 806.9 1678.3 L 807.4 1674.1 L 807.4 1669.7 L 807.4 1669.7 L 807.0 1665.1 L 806.1 1659.9 L 804.8 1654.4 L 803.1 1648.4 L 801.1 1642.2 L 798.8 1635.7 L 796.2 1629.0 L 793.4 1622.2 L 790.4 1615.3 L 787.2 1608.3 L 783.9 1601.4 L 780.5 1594.5 L 777.1 1587.8 L 773.6 1581.2 L 770.2 1574.9 L 766.8 1568.9 L 766.8 1568.9 L 763.3 1563.1 L 759.7 1557.4 L 755.9 1551.8 L 752.0 1546.2 L 747.9 1540.7 L 743.8 1535.3 L 739.5 1530.0 L 735.2 1524.6 L 730.8 1519.3 L 726.4 1514.1 L 721.9 1508.9 L 717.4 1503.6 L 713.0 1498.4 L 708.5 1493.2 L 704.1 1488.0 L 699.7 1482.7 L 699.7 1482.7 L 695.3 1477.5 L 690.9 1472.3 L 686.4 1467.2 L 681.8 1462.1 L 677.2 1457.0 L 672.6 1451.9 L 668.0 1446.9 L 663.4 1441.8 L 658.8 1436.8 L 654.2 1431.7 L 649.6 1426.6 L 645.1 1421.5 L 640.6 1416.3 L 636.2 1411.1 L 631.8 1405.9 L 627.5 1400.6 L 627.5 1400.6 L 623.3 1395.3 L 619.1 1389.9 L 614.9 1384.5 L 610.8 1379.0 L 606.7 1373.6 L 602.6 1368.1 L 598.5 1362.5 L 594.5 1357.0 L 590.6 1351.4 L 586.6 1345.9 L 582.7 1340.3 L 578.8 1334.7 L 574.9 1329.0 L 571.0 1323.4 L 567.2 1317.7 L 563.4 1312.1 L 563.4 1312.1 L 559.6 1306.4 L 555.8 1300.7 L 552.1 1295.0 L 548.4 1289.2 L 544.7 1283.5 L 541.0 1277.7 L 537.4 1271.9 L 533.8 1266.1 L 530.2 1260.3 L 526.7 1254.4 L 523.1 1248.6 L 519.6 1242.7 L 516.1 1236.8 L 512.7 1230.9 L 509.2 1225.0 L 505.8 1219.1 L 505.8 1219.1 L 502.4 1213.2 L 498.9 1207.2 L 495.4 1201.3 L 491.8 1195.4 L 488.2 1189.5 L 484.6 1183.5 L 481.1 1177.5 L 477.6 1171.6 L 474.3 1165.5 L 471.0 1159.5 L 467.9 1153.4 L 464.9 1147.3 L 462.1 1141.1 L 459.4 1134.9 L 457.0 1128.7 L 454.9 1122.4 L 454.9 1122.4 L 452.9 1116.0 L 450.9 1109.5 L 449.1 1102.9 L 447.3 1096.3 L 445.6 1089.6 L 444.1 1082.9 L 442.7 1076.1 L 441.5 1069.3 L 440.6 1062.6 L 439.8 1055.8 L 439.2 1049.1 L 439.0 1042.4 L 439.0 1035.7 L 439.3 1029.2 L 439.9 1022.7 L 440.8 1016.3 L 440.8 1016.3 L 442.1 1010.0 L 443.9 1003.7 L 445.9 997.4 L 448.4 991.2 L 451.1 985.0 L 454.0 978.8 L 457.2 972.7 L 460.6 966.6 L 464.2 960.6 L 467.8 954.6 L 471.6 948.7 L 475.4 942.8 L 479.3 936.9 L 483.1 931.1 L 486.9 925.3 L 490.7 919.6 L 490.7 919.6 L 494.4 913.9 L 498.2 908.3 L 502.1 902.7 L 506.1 897.2 L 510.2 891.7 L 514.3 886.2 L 518.5 880.8 L 522.8 875.4 L 527.1 870.1 L 531.5 864.8 L 536.0 859.6 L 540.4 854.4 L 545.0 849.3 L 549.5 844.2 L 554.1 839.1 L 558.8 834.1 L 558.8 834.1 L 563.4 829.2 L 568.2 824.3 L 573.0 819.5 L 577.9 814.8 L 582.9 810.1 L 587.9 805.4 L 592.9 800.8 L 598.0 796.2 L 603.1 791.7 L 608.3 787.2 L 613.4 782.7 L 618.6 778.2 L 623.8 773.7 L 629.0 769.2 L 634.1 764.7 L 639.3 760.2 L 639.3 760.2 L 644.4 755.8 L 649.6 751.3 L 654.8 746.9 L 660.1 742.5 L 665.3 738.1 L 670.6 733.8 L 675.9 729.5 L 681.2 725.1 L 686.5 720.8 L 691.8 716.5 L 697.0 712.1 L 702.3 707.8 L 707.6 703.4 L 712.8 699.0 L 718.0 694.6 L 723.2 690.1 L 723.2 690.1 L 728.3 685.5 L 733.3 680.6 L 738.3 675.6 L 743.3 670.5 L 748.2 665.2 L 753.1 660.0 L 758.0 654.7 L 763.0 649.5 L 767.9 644.5 L 772.9 639.6 L 777.9 635.0 L 783.0 630.6 L 788.2 626.5 L 793.4 622.8 L 798.8 619.5 L 804.2 616.7 L 804.2 616.7 L 809.9 614.2 L 816.0 611.8 L 822.3 609.5 L 828.8 607.4 L 835.4 605.5 L 842.1 603.8 L 848.8 602.4 L 855.5 601.3 L 862.1 600.6 L 868.5 600.2 L 874.6 600.3 L 880.5 600.8 L 886.0 601.9 L 891.1 603.4 L 895.7 605.5 L 899.8 608.3 L 899.8 608.3 L 903.3 611.7 L 906.1 616.1 L 908.5 621.2 L 910.3 627.0 L 911.8 633.3 L 913.0 640.1 L 914.0 647.3 L 914.9 654.8 L 915.6 662.4 L 916.4 670.2 L 917.2 678.0 L 918.2 685.7 L 919.4 693.2 L 920.9 700.5 L 922.8 707.4 L 925.1 713.8 L 925.1 713.8 L 927.7 720.0 L 930.5 726.3 L 933.3 732.7 L 936.2 739.0 L 939.2 745.4 L 942.4 751.7 L 945.7 757.9 L 949.1 764.0 L 952.7 770.0 L 956.4 775.9 L 960.3 781.5 L 964.4 786.9 L 968.6 792.1 L 973.0 797.0 L 977.7 801.5 L 982.5 805.7 L 982.5 805.7 L 987.6 809.6 L 992.9 813.2 L 998.5 816.4 L 1000.0 817.2" fill="none" stroke="#39ff88" stroke-width="6.0" stroke-opacity="0.9"/></g><g id="clips"><circle cx="385.6" cy="0.0" r="2" fill="none" stroke="#0b5" stroke-width="0.6"/><circle cx="667.5" cy="1685.5" r="2" fill="none" stroke="#0b5" stroke-width="0.6"/><circle cx="622.7" cy="1526.1" r="2" fill="none" stroke="#0b5" stroke-width="0.6"/><circle cx="694.0" cy="1590.0" r="2" fill="none" stroke="#0b5" stroke-width="0.6"/><circle cx="686.3" cy="1699.8" r="2" fill="none" stroke="#0b5" stroke-width="0.6"/><circle cx="1000.0" cy="817.2" r="2" fill="none" stroke="#0b5" stroke-width="0.6"/></g><g id="power"><circle cx="1000.0" cy="817.1" r="5" fill="none" stroke="#e33" stroke-width="1"/><circle cx="385.6" cy="0.0" r="5" fill="none" stroke="#e33" stroke-width="1"/></g><g id="bridges"><circle cx="675.1" cy="1694.2" r="9" fill="none" stroke="#e6a817" stroke-width="1.5"/><circle cx="675.1" cy="1694.2" r="9" fill="none" stroke="#e6a817" stroke-width="1.5"/><circle cx="707.6" cy="1720.7" r="9" fill="none" stroke="#e6a817" stroke-width="1.5"/></g></svg>