<svg xmlns="http://www.w3.org/2000/svg" width="1000mm" height="2000mm" viewBox="0 0 1000 2000"><g id="outline"><rect x="0" y="0" width="1000" height="2000" fill="none" stroke="#000" stroke-width="1"/></g><g id="channels"><path d="M 1000.0 492.4 L 998.3 488.7 L 995.5 482.7 L 992.7 476.7 L 989.9 470.6 L 987.2 464.6 L 987.2 464.6 L 984.4 458.5 L 981.6 452.5 L 978.9 446.4 L 976.1 440.4 L 973.4 434.3 L 970.6 428.3 L 967.8 422.2 L 965.1 416.2 L 962.3 410.1 L 959.5 404.1 L 956.7 398.1 L 953.9 392.0 L 951.0 386.0 L 948.2 380.0 L 945.4 374.0 L 942.5 368.0 L 942.5 368.0 L 939.6 362.0 L 936.8 356.0 L 933.9 349.9 L 931.1 343.9 L 928.3 337.9 L 925.4 331.9 L 922.6 325.8 L 919.7 319.8 L 916.8 313.8 L 913.9 307.9 L 910.9 301.9 L 907.9 296.0 L 904.8 290.1 L 901.7 284.2 L 898.6 278.4 L 895.3 272.6 L 895.3 272.6 L 892.1 266.7 L 888.9 260.7 L 885.7 254.5 L 882.6 248.2 L 879.4 241.8 L 876.2 235.5 L 872.9 229.3 L 869.6 223.1 L 866.1 217.1 L 862.6 211.3 L 858.9 205.7 L 855.1 200.4 L 851.2 195.5 L 847.0 191.0 L 842.6 186.9 L 838.0 183.2 L 838.0 183.2 L 833.1 180.0 L 827.9 176.9 L 822.4 174.0 L 816.6 171.3 L 810.6 168.9 L 804.5 166.8 L 798.3 164.9 L 792.0 163.4 L 785.6 162.2 L 779.3 161.4 L 773.1 160.9 L 767.0 160.8 L 761.1 161.2 L 755.4 162.0 L 749.9 163.3 L 744.7 165.0 L 744.7 165.0 L 739.8 167.4 L 735.1 170.5 L 730.5 174.2 L 726.1 178.5 L 721.7 183.2 L 717.5 188.3 L 713.4 193.9 L 709.4 199.6 L 705.4 205.6 L 701.5 211.8 L 697.6 218.0 L 693.8 224.2 L 690.0 230.3 L 686.1 236.3 L 682.3 242.1 L 678.4 247.6 L 678.4 247.6 L 674.5 253.0 L 670.7 258.5 L 667.0 263.9 L 663.3 269.5 L 659.7 275.0 L 656.1 280.6 L 652.5 286.2 L 648.9 291.9 L 645.4 297.5 L 641.8 303.1 L 638.3 308.8 L 634.7 314.4 L 631.1 320.0 L 627.4 325.6 L 623.8 331.1 L 620.1 336.6 L 620.1 336.6 L 616.3 342.1 L 612.6 347.6 L 608.8 353.1 L 605.0 358.6 L 601.3 364.1 L 597.5 369.5 L 593.7 375.0 L 589.9 380.4 L 586.0 385.9 L 582.2 391.3 L 578.3 396.7 L 574.4 402.1 L 570.5 407.4 L 566.5 412.8 L 562.5 418.1 L 558.5 423.4 L 558.5 423.4 L 554.4 428.6 L 550.3 433.9 L 546.2 439.1 L 542.0 444.2 L 537.8 449.4 L 533.6 454.5 L 529.3 459.7 L 525.1 464.8 L 520.8 469.9 L 516.5 474.9 L 512.2 480.0 L 507.9 485.1 L 503.5 490.1 L 499.2 495.2 L 494.9 500.2 L 490.6 505.3 L 490.6 505.3 L 486.2 510.3 L 481.8 515.3 L 477.4 520.3 L 472.9 525.2 L 468.4 530.2 L 463.9 535.1 L 459.4 540.0 L 455.0 544.9 L 450.5 549.8 L 446.0 554.8 L 441.6 559.7 L 437.2 564.7 L 432.8 569.7 L 428.5 574.8 L 424.3 579.9 L 420.1 585.1 L 420.1 585.1 L 416.0 590.3 L 411.7 595.4 L 407.3 600.6 L 402.9 605.8 L 398.5 611.0 L 394.2 616.2 L 389.8 621.4 L 385.6 626.7 L 381.5 632.0 L 377.5 637.4 L 373.7 642.9 L 370.2 648.4 L 366.8 654.0 L 363.7 659.7 L 361.0 665.5 L 358.6 671.4 L 358.6 671.4 L 356.4 677.4 L 354.5 683.6 L 352.9 689.8 L 351.4 696.2 L 350.2 702.7 L 349.2 709.2 L 348.3 715.8 L 347.7 722.5 L 347.2 729.2 L 346.9 735.9 L 346.7 742.6 L 346.7 749.3 L 346.9 755.9 L 347.1 762.6 L 347.5 769.1 L 348.0 775.6 L 348.0 775.6 L 348.7 782.1 L 349.7 788.5 L 350.9 795.0 L 352.3 801.4 L 353.8 807.8 L 355.6 814.2 L 357.5 820.7 L 359.5 827.1 L 361.5 833.5 L 363.7 839.9 L 365.8 846.2 L 368.0 852.6 L 370.2 859.0 L 372.3 865.4 L 374.4 871.7 L 376.3 878.1 L 376.3 878.1 L 378.3 884.5 L 380.3 890.8 L 382.3 897.1 L 384.4 903.5 L 386.4 909.8 L 388.5 916.1 L 390.7 922.4 L 392.8 928.7 L 394.9 935.0 L 397.1 941.3 L 399.2 947.6 L 401.3 953.9 L 403.4 960.2 L 405.4 966.6 L 407.5 972.9 L 409.5 979.2 L 409.5 979.2 L 411.4 985.6 L 413.3 992.0 L 415.2 998.4 L 417.0 1004.8 L 418.8 1011.2 L 420.6 1017.6 L 422.4 1024.0 L 424.2 1030.4 L 426.0 1036.8 L 427.8 1043.2 L 429.6 1049.6 L 431.4 1056.0 L 433.3 1062.4 L 435.2 1068.7 L 437.2 1075.1 L 439.3 1081.4 L 439.3 1081.4 L 441.3 1087.7 L 443.3 1094.1 L 445.3 1100.5 L 447.2 1106.9 L 449.2 1113.3 L 451.2 1119.6 L 453.2 1126.0 L 455.3 1132.4 L 457.5 1138.7 L 459.7 1145.0 L 462.0 1151.2 L 464.4 1157.4 L 467.0 1163.5 L 469.6 1169.5 L 472.5 1175.4 L 475.5 1181.3 L 475.5 1181.3 L 478.6 1187.0 L 481.9 1192.7 L 485.3 1198.4 L 488.9 1204.0 L 492.5 1209.5 L 496.3 1215.0 L 500.1 1220.4 L 504.1 1225.8 L 508.1 1231.1 L 512.2 1236.4 L 516.4 1241.6 L 520.6 1246.7 L 524.9 1251.8 L 529.2 1256.9 L 533.6 1261.9 L 537.9 1266.9 L 537.9 1266.9 L 542.4 1271.7 L 547.1 1276.4 L 552.0 1281.0 L 557.0 1285.4 L 562.0 1289.8 L 567.2 1294.1 L 572.4 1298.4 L 577.6 1302.7 L 582.8 1307.0 L 587.9 1311.3 L 593.0 1315.6 L 597.9 1320.1 L 602.7 1324.7 L 607.3 1329.4 L 611.8 1334.2 L 615.9 1339.2 L 615.9 1339.2 L 620.0 1344.4 L 623.9 1349.6 L 627.8 1355.0 L 631.5 1360.4 L 635.2 1365.9 L 638.8 1371.5 L 642.2 1377.1 L 645.6 1382.9 L 648.8 1388.7 L 652.0 1394.5 L 655.0 1400.4 L 657.9 1406.3 L 660.6 1412.3 L 663.3 1418.3 L 665.8 1424.4 L 668.2 1430.5 L 668.2 1430.5 L 670.4 1436.7 L 672.3 1442.9 L 674.0 1449.3 L 675.4 1455.7 L 676.8 1462.2 L 678.0 1468.8 L 679.1 1475.4 L 680.1 1482.0 L 681.1 1488.7 L 682.1 1495.3 L 683.2 1502.0 L 684.3 1508.6 L 685.5 1515.2 L 686.8 1521.7 L 688.4 1528.2 L 690.1 1534.6 L 690.1 1534.6 L 692.0 1541.0 L 693.9 1547.3 L 695.9 1553.6 L 697.9 1560.0 L 700.0 1566.3 L 702.2 1572.5 L 704.4 1578.8 L 706.7 1585.1 L 709.1 1591.3 L 711.5 1597.5 L 713.9 1603.6 L 716.5 1609.8 L 719.0 1615.9 L 721.7 1622.0 L 724.4 1628.0 L 727.2 1634.1 L 727.2 1634.1 L 730.1 1640.0 L 733.2 1645.9 L 736.4 1651.7 L 739.8 1657.5 L 743.3 1663.3 L 746.8 1669.0 L 750.4 1674.7 L 754.0 1680.3 L 757.6 1686.0 L 761.1 1691.7 L 764.6 1697.4 L 768.0 1703.1 L 771.2 1708.9 L 774.2 1714.7 L 777.1 1720.6 L 779.7 1726.6 L 779.7 1726.6 L 782.3 1732.8 L 785.2 1739.3 L 788.3 1746.0 L 791.4 1752.9 L 794.5 1760.0 L 797.6 1767.1 L 800.5 1774.2 L 803.1 1781.1 L 805.5 1788.0 L 807.5 1794.6 L 809.1 1800.9 L 810.1 1806.9 L 810.5 1812.4 L 810.2 1817.5 L 809.2 1822.0 L 807.3 1825.9 L 807.3 1825.9 L 804.4 1829.2 L 800.6 1832.2 L 795.9 1834.9 L 790.4 1837.2 L 784.3 1839.1 L 777.6 1840.8 L 770.5 1842.1 L 763.0 1843.0 L 755.4 1843.7 L 747.7 1844.0 L 739.9 1844.0 L 732.3 1843.8 L 725.0 1843.2 L 718.0 1842.3 L 711.4 1841.1 L 705.5 1839.7 L 705.5 1839.7 L 699.9 1837.8 L 694.3 1835.6 L 688.7 1832.8 L 683.3 1829.8 L 677.9 1826.3 L 672.6 1822.6 L 667.4 1818.5 L 662.3 1814.2 L 657.3 1809.7 L 652.4 1805.0 L 647.7 1800.1 L 643.2 1795.2 L 638.8 1790.1 L 634.6 1785.0 L 630.5 1779.9 L 626.7 1774.8 L 626.7 1774.8 L 623.1 1769.5 L 619.8 1764.1 L 616.8 1758.4 L 614.0 1752.5 L 611.3 1746.4 L 608.9 1740.2 L 606.5 1733.9 L 604.3 1727.5 L 602.1 1721.1 L 600.0 1714.6 L 597.8 1708.1 L 595.6 1701.7 L 593.3 1695.2 L 591.0 1688.9 L 588.5 1682.7 L 585.8 1676.5 L 585.8 1676.5 L 583.0 1670.5 L 580.2 1664.5 L 577.3 1658.5 L 574.3 1652.6 L 571.3 1646.6 L 568.3 1640.7 L 565.3 1634.8 L 562.3 1628.8 L 559.2 1622.9 L 556.2 1617.0 L 553.1 1611.1 L 550.1 1605.2 L 547.1 1599.2 L 544.1 1593.3 L 541.2 1587.3 L 538.3 1581.3 L 538.3 1581.3 L 535.4 1575.3 L 532.6 1569.3 L 529.8 1563.3 L 527.1 1557.2 L 524.3 1551.1 L 521.6 1545.1 L 518.9 1539.0 L 516.2 1532.9 L 513.5 1526.8 L 510.8 1520.8 L 508.0 1514.7 L 505.2 1508.7 L 502.4 1502.6 L 499.6 1496.6 L 496.7 1490.7 L 493.7 1484.7 L 493.7 1484.7 L 490.8 1478.8 L 487.7 1472.8 L 484.7 1466.9 L 481.7 1461.0 L 478.6 1455.1 L 475.5 1449.2 L 472.4 1443.3 L 469.3 1437.5 L 466.1 1431.6 L 462.9 1425.8 L 459.7 1420.0 L 456.4 1414.2 L 453.1 1408.4 L 449.7 1402.7 L 446.3 1397.0 L 442.9 1391.3 L 442.9 1391.3 L 439.4 1385.7 L 435.8 1380.0 L 432.2 1374.5 L 428.6 1368.9 L 424.9 1363.4 L 421.2 1357.9 L 417.4 1352.4 L 413.6 1346.9 L 409.8 1341.5 L 406.0 1336.0 L 402.1 1330.6 L 398.3 1325.2 L 394.4 1319.7 L 390.6 1314.3 L 386.8 1308.8 L 382.9 1303.4 L 382.9 1303.4 L 379.1 1298.0 L 375.3 1292.5 L 371.4 1287.1 L 367.6 1281.7 L 363.7 1276.3 L 359.8 1270.9 L 355.9 1265.5 L 352.0 1260.1 L 348.1 1254.7 L 344.2 1249.3 L 340.3 1243.9 L 336.5 1238.5 L 332.6 1233.1 L 328.7 1227.7 L 324.9 1222.3 L 321.0 1216.8 L 321.0 1216.8 L 317.2 1211.4 L 313.4 1206.0 L 309.5 1200.5 L 305.7 1195.1 L 301.9 1189.7 L 298.0 1184.2 L 294.2 1178.8 L 290.4 1173.3 L 286.6 1167.9 L 282.8 1162.4 L 279.0 1156.9 L 275.3 1151.5 L 271.5 1146.0 L 267.8 1140.5 L 264.1 1134.9 L 260.4 1129.4 L 260.4 1129.4 L 256.7 1123.9 L 253.0 1118.3 L 249.4 1112.7 L 245.8 1107.2 L 242.2 1101.6 L 238.6 1096.0 L 235.1 1090.3 L 231.5 1084.7 L 228.0 1079.1 L 224.4 1073.5 L 220.9 1067.8 L 217.3 1062.2 L 213.8 1056.6 L 210.2 1051.0 L 206.7 1045.3 L 203.1 1039.7 L 203.1 1039.7 L 199.6 1034.1 L 196.0 1028.5 L 192.5 1022.8 L 189.0 1017.2 L 185.4 1011.6 L 181.9 1005.9 L 178.4 1000.3 L 174.9 994.6 L 171.3 989.0 L 167.8 983.4 L 164.2 977.7 L 160.7 972.1 L 157.1 966.5 L 153.5 960.9 L 149.9 955.3 L 146.3 949.7 L 146.3 949.7 L 142.6 944.2 L 138.9 938.7 L 135.1 933.2 L 131.2 927.8 L 127.3 922.3 L 123.3 916.9 L 119.4 911.5 L 115.5 906.1 L 111.6 900.6 L 107.8 895.2 L 104.1 889.7 L 100.4 884.1 L 96.8 878.6 L 93.4 872.9 L 90.1 867.2 L 86.9 861.4 L 86.9 861.4 L 83.8 855.6 L 80.6 849.7 L 77.4 843.7 L 74.2 837.7 L 71.0 831.7 L 67.9 825.6 L 64.9 819.5 L 62.0 813.3 L 59.3 807.1 L 56.8 800.9 L 54.5 794.7 L 52.5 788.5 L 50.8 782.3 L 49.5 776.0 L 48.4 769.8 L 47.8 763.6 L 47.8 763.6 L 47.6 757.3 L 47.8 751.0 L 48.3 744.7 L 49.1 738.3 L 50.3 731.9 L 51.7 725.4 L 53.3 719.0 L 55.1 712.5 L 57.2 706.1 L 59.3 699.7 L 61.6 693.3 L 64.0 687.0 L 66.5 680.7 L 69.0 674.5 L 71.5 668.3 L 74.0 662.3 L 74.0 662.3 L 76.6 656.3 L 79.5 650.4 L 82.5 644.5 L 85.7 638.7 L 89.0 633.0 L 92.5 627.3 L 96.0 621.6 L 99.6 616.0 L 103.2 610.3 L 106.9 604.7 L 110.5 599.1 L 114.1 593.4 L 117.7 587.7 L 121.1 582.0 L 124.5 576.2 L 127.7 570.4 L 127.7 570.4 L 130.8 564.5 L 133.8 558.6 L 136.8 552.7 L 139.7 546.7 L 142.6 540.7 L 145.5 534.7 L 148.3 528.7 L 151.2 522.7 L 154.0 516.6 L 156.8 510.6 L 159.6 504.6 L 162.5 498.6 L 165.4 492.6 L 168.3 486.6 L 171.3 480.6 L 174.3 474.7 L 174.3 474.7 L 177.3 468.8 L 180.4 462.9 L 183.5 457.0 L 186.6 451.1 L 189.7 445.3 L 192.9 439.4 L 196.0 433.6 L 199.2 427.7 L 202.4 421.9 L 205.6 416.0 L 208.8 410.2 L 212.0 404.4 L 215.3 398.6 L 218.5 392.8 L 221.8 387.0 L 225.0 381.2 L 225.0 381.2 L 228.3 375.4 L 231.6 369.6 L 234.9 363.9 L 238.2 358.1 L 241.6 352.4 L 244.9 346.6 L 248.3 340.9 L 251.7 335.1 L 255.0 329.4 L 258.4 323.7 L 261.8 318.0 L 265.3 312.3 L 268.7 306.6 L 272.1 300.9 L 275.6 295.2 L 279.1 289.5 L 279.1 289.5 L 282.5 283.9 L 286.0 278.2 L 289.5 272.5 L 293.0 266.8 L 296.5 261.2 L 300.0 255.5 L 303.5 249.9 L 307.0 244.2 L 310.6 238.6 L 314.2 233.0 L 317.8 227.4 L 321.4 221.8 L 325.1 216.3 L 328.8 210.8 L 332.5 205.3 L 336.3 199.8 L 336.3 199.8 L 340.1 194.4 L 344.0 189.0 L 347.8 183.6 L 351.7 178.2 L 355.7 172.8 L 359.6 167.5 L 363.6 162.1 L 367.6 156.8 L 371.7 151.6 L 375.7 146.3 L 379.8 141.1 L 384.0 135.9 L 388.1 130.7 L 392.3 125.5 L 396.5 120.3 L 400.7 115.2 L 400.7 115.2 L 405.1 110.2 L 409.5 105.2 L 414.0 100.3 L 418.7 95.4 L 423.4 90.7 L 428.1 85.9 L 432.8 81.1 L 437.5 76.4 L 442.2 71.6 L 446.9 66.8 L 451.4 61.9 L 455.9 57.0 L 460.2 52.0 L 464.3 46.9 L 468.3 41.6 L 472.1 36.3 L 472.1 36.3 L 475.8 30.9 L 479.5 25.3 L 483.2 19.8 L 486.9 14.1 L 490.5 8.4 L 494.0 2.6 L 495.5 0.0" fill="none" stroke="#ffd23d" stroke-width="6.0" stroke-opacity="0.9"/></g><g id="clips"><circle cx="1000.0" cy="492.4" r="2" fill="none" stroke="#0b5" stroke-width="0.6"/><circle cx="495.5" cy="0.0" r="2" fill="none" stroke="#0b5" stroke-width="0.6"/></g><g id="power"><circle cx="1000.0" cy="492.3" r="5" fill="none" stroke="#e33" stroke-width="1"/><circle cx="495.5" cy="0.0" r="5" fill="none" stroke="#e33" stroke-width="1"/></g><g id="bridges"></g></svg>