<svg xmlns="http://www.w3.org/2000/svg" width="1500mm" height="1000mm" viewBox="0 0 1500 1000"><g id="outline"><rect x="0" y="0" width="1500" height="1000" fill="none" stroke="#000" stroke-width="1"/></g><g id="channels"><path d="M 1207.3 0.0 L 1211.0 3.5 L 1215.6 8.0 L 1220.2 12.5 L 1220.2 12.5 L 1224.8 17.1 L 1229.4 21.7 L 1233.9 26.3 L 1238.5 30.9 L 1243.0 35.5 L 1247.5 40.2 L 1252.1 44.8 L 1256.7 49.4 L 1261.3 53.9 L 1265.9 58.4 L 1270.6 62.8 L 1275.4 67.2 L 1280.2 71.5 L 1285.1 75.6 L 1290.0 79.7 L 1295.0 83.6 L 1295.0 83.6 L 1300.2 87.6 L 1305.5 91.9 L 1310.9 96.3 L 1316.4 100.8 L 1322.1 105.3 L 1327.7 109.8 L 1333.4 114.2 L 1339.2 118.3 L 1344.9 122.2 L 1350.5 125.8 L 1356.1 129.0 L 1361.6 131.6 L 1367.0 133.8 L 1372.3 135.3 L 1377.4 136.1 L 1382.4 136.1 L 1382.4 136.1 L 1387.2 135.3 L 1392.0 133.9 L 1396.8 131.7 L 1401.6 129.0 L 1406.3 125.7 L 1411.0 122.0 L 1415.5 117.8 L 1420.0 113.3 L 1424.3 108.5 L 1428.5 103.5 L 1432.6 98.2 L 1436.4 92.9 L 1440.1 87.5 L 1443.6 82.1 L 1446.8 76.7 L 1449.8 71.5 L 1449.8 71.5 L 1452.5 66.2 L 1455.0 60.7 L 1457.1 54.9 L 1459.0 48.9 L 1460.6 42.8 L 1462.1 36.5 L 1463.5 30.1 L 1464.7 23.6 L 1465.9 17.0 L 1467.0 10.4 L 1468.1 3.8 L 1468.7 0.0" fill="none" stroke="#ff3ea5" stroke-width="6.0" stroke-opacity="0.9"/><path d="M 1500.0 721.4 L 1496.6 718.2 L 1491.9 713.8 L 1491.9 713.8 L 1487.2 709.4 L 1482.4 705.0 L 1477.7 700.6 L 1472.9 696.3 L 1468.1 692.0 L 1463.3 687.7 L 1458.4 683.4 L 1453.6 679.2 L 1448.8 674.9 L 1444.0 670.6 L 1439.2 666.3 L 1434.4 661.9 L 1429.6 657.6 L 1424.9 653.2 L 1420.1 648.8 L 1415.5 644.4 L 1415.5 644.4 L 1410.8 639.9 L 1406.2 635.4 L 1401.6 630.9 L 1397.1 626.3 L 1392.5 621.8 L 1388.0 617.2 L 1383.5 612.6 L 1378.9 607.9 L 1374.4 603.3 L 1369.9 598.7 L 1365.4 594.1 L 1360.9 589.5 L 1356.4 584.9 L 1351.9 580.3 L 1347.3 575.7 L 1342.8 571.1 L 1342.8 571.1 L 1338.2 566.6 L 1333.6 562.1 L 1329.0 557.6 L 1324.3 553.1 L 1319.7 548.6 L 1315.1 544.1 L 1310.4 539.6 L 1305.8 535.1 L 1301.2 530.6 L 1296.5 526.1 L 1291.9 521.6 L 1287.3 517.1 L 1282.7 512.6 L 1278.1 508.1 L 1273.5 503.5 L 1269.0 499.0 L 1269.0 499.0 L 1264.4 494.4 L 1259.8 489.8 L 1255.3 485.3 L 1250.6 480.8 L 1246.0 476.2 L 1241.4 471.7 L 1236.9 467.1 L 1232.3 462.6 L 1227.8 458.0 L 1223.3 453.4 L 1218.8 448.7 L 1214.4 444.0 L 1210.1 439.2 L 1205.8 434.4 L 1201.6 429.6 L 1197.5 424.6 L 1197.5 424.6 L 1193.4 419.6 L 1189.4 414.6 L 1185.5 409.5 L 1181.6 404.4 L 1177.7 399.2 L 1174.0 394.0 L 1170.2 388.7 L 1166.5 383.4 L 1162.9 378.1 L 1159.3 372.7 L 1155.7 367.3 L 1152.2 361.9 L 1148.7 356.5 L 1145.3 351.0 L 1141.9 345.5 L 1138.5 340.0 L 1138.5 340.0 L 1135.2 334.5 L 1132.0 329.0 L 1128.8 323.4 L 1125.7 317.7 L 1122.6 312.0 L 1119.6 306.3 L 1116.6 300.6 L 1113.7 294.9 L 1110.7 289.1 L 1107.8 283.4 L 1104.9 277.6 L 1102.0 271.8 L 1099.1 266.0 L 1096.2 260.3 L 1093.3 254.5 L 1090.4 248.8 L 1090.4 248.8 L 1087.4 243.0 L 1084.5 237.3 L 1081.6 231.5 L 1078.7 225.8 L 1075.8 220.0 L 1072.9 214.2 L 1070.0 208.5 L 1067.1 202.7 L 1064.3 196.9 L 1061.4 191.1 L 1058.5 185.4 L 1055.6 179.6 L 1052.7 173.8 L 1049.8 168.1 L 1046.9 162.3 L 1043.9 156.6 L 1043.9 156.6 L 1041.0 150.9 L 1038.0 145.1 L 1035.1 139.4 L 1032.1 133.6 L 1029.2 127.9 L 1026.2 122.2 L 1023.2 116.4 L 1020.2 110.7 L 1017.3 105.0 L 1014.2 99.3 L 1011.2 93.6 L 1008.2 87.9 L 1005.1 82.2 L 1002.1 76.6 L 999.0 70.9 L 995.8 65.3 L 995.8 65.3 L 992.7 59.6 L 989.5 54.0 L 986.4 48.4 L 983.2 42.8 L 980.0 37.2 L 976.7 31.6 L 973.5 26.0 L 970.2 20.4 L 967.0 14.9 L 963.7 9.3 L 960.4 3.8 L 958.1 0.0" fill="none" stroke="#ff3ea5" stroke-width="6.0" stroke-opacity="0.9"/></g><g id="clips"><circle cx="1207.3" cy="0.0" r="2" fill="none" stroke="#0b5" stroke-width="0.6"/><circle cx="1468.7" cy="0.0" r="2" fill="none" stroke="#0b5" stroke-width="0.6"/><circle cx="1500.0" cy="721.4" r="2" fill="none" stroke="#0b5" stroke-width="0.6"/><circle cx="958.1" cy="0.0" r="2" fill="none" stroke="#0b5" stroke-width="0.6"/></g><g id="power"><circle cx="1500.0" cy="721.3" r="5" fill="none" stroke="#e33" stroke-width="1"/><circle cx="1207.3" cy="0.0" r="5" fill="none" stroke="#e33" stroke-width="1"/><circle cx="1468.7" cy="0.0" r="5" fill="none" stroke="#e33" stroke-width="1"/><circle cx="958.0" cy="0.0" r="5" fill="none" stroke="#e33" stroke-width="1"/></g></svg>