<svg xmlns="http://www.w3.org/2000/svg" width="1000mm" height="2000mm" viewBox="0 0 1000 2000"><g id="outline"><rect x="0" y="0" width="1000" height="2000" fill="none" stroke="#000" stroke-width="1"/></g><g id="channels"><path d="M 330.1 1901.7 L 329.2 1898.1 L 328.0 1893.8 L 326.6 1888.9 L 325.0 1883.3 L 323.3 1877.3 L 321.5 1870.9 L 319.6 1864.1 L 317.6 1857.0 L 315.6 1849.7 L 313.6 1842.3 L 311.7 1834.8 L 309.8 1827.3 L 308.1 1819.9 L 306.4 1812.7 L 304.9 1805.7 L 303.6 1799.0 L 303.6 1799.0 L 302.5 1792.5 L 301.5 1785.9 L 300.6 1779.3 L 299.8 1772.8 L 299.0 1766.2 L 298.3 1759.5 L 297.7 1752.9 L 297.1 1746.3 L 296.5 1739.6 L 296.0 1733.0 L 295.4 1726.3 L 294.8 1719.7 L 294.2 1713.1 L 293.6 1706.4 L 292.9 1699.8 L 292.2 1693.2 L 292.2 1693.2 L 291.4 1686.6 L 290.6 1680.0 L 289.8 1673.4 L 289.0 1666.8 L 288.1 1660.2 L 287.3 1653.6 L 286.5 1647.0 L 285.6 1640.4 L 284.8 1633.8 L 283.9 1627.2 L 283.1 1620.6 L 282.2 1614.0 L 281.3 1607.4 L 280.4 1600.8 L 279.6 1594.2 L 278.7 1587.6 L 278.7 1587.6 L 277.8 1581.1 L 276.9 1574.5 L 275.9 1567.9 L 275.0 1561.3 L 274.0 1554.7 L 273.1 1548.1 L 272.1 1541.5 L 271.2 1535.0 L 270.2 1528.4 L 269.2 1521.8 L 268.3 1515.2 L 267.4 1508.6 L 266.5 1502.0 L 265.6 1495.5 L 264.7 1488.9 L 263.9 1482.3 L 263.9 1482.3 L 263.1 1475.7 L 262.4 1469.0 L 261.8 1462.4 L 261.2 1455.8 L 260.7 1449.1 L 260.2 1442.5 L 259.6 1435.8 L 259.1 1429.2 L 258.5 1422.5 L 257.9 1415.9 L 257.3 1409.3 L 256.5 1402.7 L 255.7 1396.1 L 254.8 1389.5 L 253.7 1383.0 L 252.5 1376.5 L 252.5 1376.5 L 251.2 1370.0 L 249.8 1363.5 L 248.3 1357.0 L 246.8 1350.6 L 245.1 1344.2 L 243.4 1337.7 L 241.6 1331.3 L 239.8 1324.9 L 237.9 1318.6 L 236.0 1312.2 L 234.0 1305.8 L 232.0 1299.5 L 229.9 1293.2 L 227.8 1286.9 L 225.7 1280.6 L 223.6 1274.3 L 223.6 1274.3 L 221.4 1268.0 L 219.2 1261.8 L 216.9 1255.5 L 214.5 1249.3 L 212.1 1243.1 L 209.6 1237.0 L 207.1 1230.8 L 204.6 1224.6 L 202.1 1218.5 L 199.5 1212.3 L 196.9 1206.2 L 194.4 1200.0 L 191.8 1193.9 L 189.3 1187.7 L 186.8 1181.6 L 184.3 1175.4 L 184.3 1175.4 L 181.8 1169.2 L 179.3 1163.1 L 176.8 1156.9 L 174.4 1150.7 L 171.9 1144.5 L 169.4 1138.4 L 166.9 1132.2 L 164.4 1126.0 L 161.9 1119.9 L 159.4 1113.7 L 157.0 1107.5 L 154.5 1101.4 L 152.0 1095.2 L 149.5 1089.0 L 147.1 1082.8 L 144.6 1076.6 L 144.6 1076.6 L 142.2 1070.5 L 139.6 1064.3 L 137.1 1058.2 L 134.5 1052.0 L 131.9 1045.9 L 129.3 1039.7 L 126.8 1033.6 L 124.2 1027.4 L 121.7 1021.2 L 119.2 1015.1 L 116.8 1008.9 L 114.4 1002.7 L 112.2 996.4 L 110.0 990.2 L 107.9 983.9 L 105.9 977.6 L 105.9 977.6 L 104.0 971.2 L 102.1 964.8 L 100.3 958.4 L 98.6 952.0 L 96.9 945.6 L 95.3 939.1 L 93.7 932.7 L 92.2 926.2 L 90.8 919.7 L 89.4 913.2 L 88.1 906.7 L 86.9 900.1 L 85.8 893.6 L 84.7 887.1 L 83.7 880.5 L 82.7 873.9 L 82.7 873.9 L 81.9 867.4 L 81.2 860.8 L 80.7 854.2 L 80.3 847.6 L 79.9 840.9 L 79.7 834.3 L 79.4 827.6 L 79.3 820.9 L 79.1 814.3 L 79.0 807.6 L 78.8 800.9 L 78.6 794.3 L 78.4 787.6 L 78.1 781.0 L 77.7 774.3 L 77.2 767.7 L 77.2 767.7 L 76.7 761.1 L 76.2 754.4 L 75.7 747.8 L 75.3 741.1 L 74.8 734.5 L 74.3 727.8 L 73.7 721.2 L 73.1 714.5 L 72.5 707.9 L 71.8 701.3 L 71.0 694.7 L 70.1 688.1 L 69.1 681.6 L 68.0 675.0 L 66.8 668.5 L 65.4 662.1 L 65.4 662.1 L 63.9 655.7 L 62.2 649.3 L 60.4 642.9 L 58.5 636.5 L 56.5 630.2 L 54.4 623.9 L 52.3 617.6 L 50.0 611.4 L 47.7 605.1 L 45.3 598.9 L 42.9 592.6 L 40.5 586.4 L 38.1 580.2 L 35.6 574.0 L 33.1 567.9 L 30.7 561.7 L 30.7 561.7 L 28.2 555.5 L 25.7 549.4 L 23.1 543.3 L 20.4 537.2 L 17.8 531.1 L 15.0 525.0 L 12.3 518.9 L 9.5 512.9 L 6.7 506.8 L 3.9 500.8 L 1.1 494.8 L 0.0 492.4" fill="none" stroke="#ffd23d" stroke-width="6.0" stroke-opacity="0.9"/><path d="M 213.4 0.0 L 213.5 0.3 L 214.8 6.8 L 216.0 13.3 L 217.2 19.9 L 218.3 26.4 L 219.3 33.0 L 220.3 39.6 L 221.3 46.1 L 222.2 52.7 L 223.2 59.3 L 224.1 65.9 L 224.9 72.5 L 225.8 79.1 L 226.7 85.7 L 227.6 92.3 L 227.6 92.3 L 228.4 98.9 L 229.2 105.5 L 230.0 112.1 L 230.8 118.7 L 231.5 125.3 L 232.2 131.9 L 232.8 138.6 L 233.5 145.2 L 234.1 151.8 L 234.8 158.4 L 235.4 165.0 L 236.1 171.7 L 236.7 178.3 L 237.4 184.9 L 238.1 191.5 L 238.8 198.1 L 238.8 198.1 L 239.6 204.7 L 240.3 211.3 L 241.0 218.0 L 241.8 224.6 L 242.5 231.2 L 243.3 237.8 L 244.0 244.4 L 244.8 251.0 L 245.5 257.6 L 246.3 264.2 L 247.0 270.8 L 247.8 277.4 L 248.6 284.0 L 249.3 290.6 L 250.1 297.3 L 250.9 303.9 L 250.9 303.9 L 251.7 310.5 L 252.5 317.1 L 253.3 323.7 L 254.1 330.3 L 254.9 336.9 L 255.7 343.5 L 256.5 350.1 L 257.3 356.7 L 258.1 363.3 L 259.0 369.9 L 259.8 376.5 L 260.7 383.1 L 261.5 389.7 L 262.4 396.3 L 263.3 402.9 L 264.2 409.4 L 264.2 409.4 L 265.1 416.0 L 266.0 422.6 L 266.9 429.2 L 267.8 435.8 L 268.7 442.4 L 269.7 449.0 L 270.6 455.6 L 271.5 462.2 L 272.5 468.7 L 273.5 475.3 L 274.5 481.9 L 275.5 488.5 L 276.6 495.0 L 277.7 501.6 L 278.8 508.1 L 280.0 514.7 L 280.0 514.7 L 281.2 521.2 L 282.4 527.8 L 283.6 534.3 L 284.9 540.8 L 286.2 547.3 L 287.5 553.9 L 288.8 560.4 L 290.2 566.9 L 291.6 573.4 L 293.0 579.9 L 294.4 586.4 L 295.9 592.9 L 297.3 599.4 L 298.8 605.9 L 300.3 612.3 L 301.8 618.8 L 301.8 618.8 L 303.3 625.3 L 304.9 631.7 L 306.5 638.2 L 308.2 644.6 L 309.9 651.1 L 311.6 657.5 L 313.3 663.9 L 315.0 670.3 L 316.7 676.8 L 318.5 683.2 L 320.2 689.6 L 321.9 696.0 L 323.6 702.5 L 325.3 708.9 L 327.0 715.3 L 328.6 721.8 L 328.6 721.8 L 330.2 728.2 L 331.8 734.7 L 333.4 741.2 L 335.0 747.6 L 336.5 754.1 L 338.1 760.6 L 339.6 767.0 L 341.2 773.5 L 342.7 780.0 L 344.3 786.4 L 345.8 792.9 L 347.3 799.4 L 348.8 805.9 L 350.3 812.3 L 351.8 818.8 L 353.3 825.3 L 353.3 825.3 L 354.8 831.8 L 356.3 838.3 L 357.8 844.7 L 359.4 851.2 L 360.9 857.7 L 362.4 864.2 L 363.9 870.7 L 365.4 877.2 L 366.9 883.6 L 368.3 890.1 L 369.8 896.6 L 371.1 903.1 L 372.5 909.7 L 373.7 916.2 L 375.0 922.7 L 376.1 929.2 L 376.1 929.2 L 377.2 935.8 L 378.3 942.3 L 379.4 948.9 L 380.5 955.5 L 381.6 962.1 L 382.6 968.6 L 383.5 975.2 L 384.4 981.8 L 385.3 988.4 L 386.1 995.0 L 386.8 1001.6 L 387.5 1008.2 L 388.1 1014.8 L 388.5 1021.5 L 388.9 1028.1 L 389.2 1034.7 L 389.2 1034.7 L 389.4 1041.3 L 389.4 1047.9 L 389.3 1054.6 L 389.1 1061.2 L 388.8 1067.8 L 388.5 1074.5 L 388.0 1081.1 L 387.6 1087.7 L 387.0 1094.4 L 386.5 1101.0 L 385.9 1107.7 L 385.4 1114.3 L 384.8 1121.0 L 384.3 1127.6 L 383.8 1134.3 L 383.4 1140.9 L 383.4 1140.9 L 382.9 1147.5 L 382.4 1154.2 L 381.9 1160.8 L 381.4 1167.4 L 380.8 1174.1 L 380.2 1180.7 L 379.6 1187.3 L 379.1 1194.0 L 378.5 1200.6 L 378.0 1207.3 L 377.5 1213.9 L 377.1 1220.5 L 376.8 1227.2 L 376.5 1233.8 L 376.3 1240.4 L 376.2 1247.1 L 376.2 1247.1 L 376.1 1253.7 L 376.1 1260.3 L 376.0 1267.0 L 376.0 1273.7 L 376.1 1280.4 L 376.1 1287.0 L 376.3 1293.7 L 376.5 1300.4 L 376.7 1307.0 L 377.1 1313.7 L 377.5 1320.3 L 378.1 1326.9 L 378.8 1333.5 L 379.6 1340.1 L 380.5 1346.6 L 381.6 1353.1 L 381.6 1353.1 L 382.9 1359.6 L 384.3 1366.0 L 386.0 1372.4 L 387.9 1378.7 L 389.8 1385.1 L 391.9 1391.4 L 394.1 1397.7 L 396.4 1403.9 L 398.6 1410.2 L 400.9 1416.5 L 403.2 1422.8 L 405.4 1429.1 L 407.5 1435.4 L 409.6 1441.7 L 411.5 1448.1 L 413.3 1454.5 L 413.3 1454.5 L 415.0 1460.9 L 416.6 1467.3 L 418.2 1473.7 L 419.8 1480.2 L 421.3 1486.6 L 422.7 1493.1 L 424.2 1499.6 L 425.6 1506.0 L 427.0 1512.5 L 428.3 1519.0 L 429.7 1525.5 L 431.0 1532.0 L 432.3 1538.5 L 433.6 1545.0 L 434.8 1551.5 L 436.1 1558.0 L 436.1 1558.0 L 437.3 1564.5 L 438.4 1571.1 L 439.4 1577.6 L 440.4 1584.2 L 441.3 1590.8 L 442.3 1597.4 L 443.1 1604.0 L 444.1 1610.5 L 445.0 1617.1 L 445.9 1623.7 L 447.0 1630.2 L 448.1 1636.8 L 449.2 1643.3 L 450.5 1649.8 L 451.9 1656.2 L 453.5 1662.6 L 453.5 1662.6 L 455.3 1669.0 L 457.5 1675.4 L 460.0 1681.8 L 462.7 1688.1 L 465.6 1694.5 L 468.6 1700.8 L 471.6 1707.1 L 474.5 1713.4 L 477.3 1719.7 L 480.0 1725.9 L 482.4 1732.1 L 484.4 1738.3 L 486.1 1744.5 L 487.3 1750.7 L 488.0 1756.8 L 488.0 1762.9 L 488.0 1762.9 L 487.5 1769.1 L 486.6 1775.2 L 485.1 1781.4 L 483.3 1787.5 L 481.1 1793.7 L 478.6 1799.8 L 475.8 1806.0 L 472.8 1812.0 L 469.7 1818.1 L 466.3 1824.0 L 462.9 1829.9 L 459.4 1835.7 L 455.9 1841.5 L 452.4 1847.1 L 448.9 1852.6 L 445.6 1857.9 L 445.6 1857.9 L 442.2 1863.3 L 438.4 1868.8 L 434.4 1874.3 L 430.1 1879.8 L 425.7 1885.3 L 421.2 1890.7 L 416.6 1896.0 L 412.1 1901.2 L 407.7 1906.2 L 403.4 1911.0 L 399.3 1915.5 L 395.5 1919.6 L 391.9 1923.5 L 388.8 1927.0 L 386.1 1930.0 L 383.9 1932.6" fill="none" stroke="#ffd23d" stroke-width="6.0" stroke-opacity="0.9"/></g><g id="clips"><circle cx="330.1" cy="1901.7" r="2" fill="none" stroke="#0b5" stroke-width="0.6"/><circle cx="0.0" cy="492.4" r="2" fill="none" stroke="#0b5" stroke-width="0.6"/><circle cx="213.4" cy="0.0" r="2" fill="none" stroke="#0b5" stroke-width="0.6"/><circle cx="383.9" cy="1932.6" r="2" fill="none" stroke="#0b5" stroke-width="0.6"/></g><g id="power"><circle cx="0.0" cy="492.3" r="5" fill="none" stroke="#e33" stroke-width="1"/><circle cx="213.4" cy="0.0" r="5" fill="none" stroke="#e33" stroke-width="1"/></g><g id="bridges"></g></svg>