<svg xmlns="http://www.w3.org/2000/svg" width="500mm" height="2000mm" viewBox="0 0 500 2000"><g id="outline"><rect x="0" y="0" width="500" height="2000" fill="none" stroke="#000" stroke-width="1"/></g><g id="channels"><path d="M 500.0 1284.0 L 500.0 1284.0 L 494.2 1280.8 L 488.3 1277.6 L 482.5 1274.5 L 476.6 1271.3 L 470.7 1268.2 L 464.8 1265.1 L 458.9 1262.0 L 453.0 1258.9 L 447.1 1255.8 L 441.3 1252.7 L 435.4 1249.5 L 429.6 1246.4 L 429.6 1246.4 L 423.7 1243.2 L 417.9 1240.0 L 412.0 1236.8 L 406.2 1233.6 L 400.4 1230.4 L 394.5 1227.2 L 388.7 1224.0 L 382.9 1220.8 L 377.0 1217.6 L 371.2 1214.4 L 365.4 1211.2 L 359.6 1207.9 L 353.8 1204.7 L 348.0 1201.4 L 342.2 1198.2 L 336.4 1194.9 L 336.4 1194.9 L 330.6 1191.6 L 324.8 1188.4 L 318.9 1185.2 L 313.0 1182.0 L 307.1 1178.9 L 301.2 1175.7 L 295.3 1172.5 L 289.5 1169.3 L 283.6 1166.0 L 277.9 1162.7 L 272.1 1159.3 L 266.5 1155.8 L 260.9 1152.2 L 255.4 1148.6 L 250.1 1144.8 L 244.8 1140.8 L 244.8 1140.8 L 239.6 1136.8 L 234.3 1132.7 L 229.0 1128.5 L 223.7 1124.3 L 218.5 1120.0 L 213.3 1115.7 L 208.2 1111.2 L 203.2 1106.7 L 198.3 1102.1 L 193.6 1097.3 L 189.1 1092.5 L 184.8 1087.6 L 180.7 1082.5 L 176.8 1077.3 L 173.2 1072.0 L 169.9 1066.6 L 169.9 1066.6 L 166.9 1060.9 L 164.2 1055.1 L 161.7 1049.2 L 159.5 1043.0 L 157.4 1036.8 L 155.6 1030.4 L 153.9 1023.9 L 152.5 1017.4 L 151.1 1010.8 L 149.9 1004.1 L 148.8 997.4 L 147.9 990.7 L 147.0 984.1 L 146.1 977.4 L 145.4 970.8 L 144.6 964.2 L 144.6 964.2 L 144.0 957.7 L 143.5 951.1 L 143.2 944.5 L 143.0 937.9 L 143.0 931.3 L 143.1 924.6 L 143.2 918.0 L 143.5 911.3 L 143.8 904.6 L 144.2 897.9 L 144.6 891.2 L 145.0 884.5 L 145.4 877.9 L 145.9 871.2 L 146.3 864.5 L 146.7 857.9 L 146.7 857.9 L 147.0 851.2 L 147.4 844.6 L 147.9 838.0 L 148.4 831.3 L 148.9 824.7 L 149.4 818.1 L 150.0 811.5 L 150.6 804.8 L 151.2 798.2 L 151.9 791.6 L 152.5 785.0 L 153.2 778.3 L 153.8 771.7 L 154.5 765.1 L 155.2 758.5 L 155.8 751.9 L 155.8 751.9 L 156.5 745.2 L 157.2 738.6 L 157.9 732.0 L 158.6 725.4 L 159.4 718.8 L 160.1 712.2 L 160.9 705.6 L 161.7 699.0 L 162.4 692.4 L 163.2 685.8 L 164.0 679.2 L 164.8 672.6 L 165.6 665.9 L 166.3 659.3 L 167.1 652.7 L 167.9 646.1 L 167.9 646.1 L 168.6 639.5 L 169.5 632.9 L 170.4 626.3 L 171.3 619.7 L 172.2 613.1 L 173.1 606.5 L 174.0 599.9 L 174.9 593.3 L 175.8 586.7 L 176.6 580.1 L 177.4 573.5 L 178.0 566.9 L 178.7 560.3 L 179.2 553.6 L 179.6 547.0 L 179.9 540.4 L 179.9 540.4 L 180.1 533.8 L 180.2 527.2 L 180.2 520.5 L 180.2 513.9 L 180.1 507.3 L 179.9 500.6 L 179.6 494.0 L 179.3 487.3 L 178.9 480.7 L 178.5 474.1 L 178.1 467.4 L 177.6 460.8 L 177.1 454.2 L 176.6 447.5 L 176.1 440.9 L 175.5 434.3 L 175.5 434.3 L 174.9 427.7 L 174.2 421.1 L 173.3 414.5 L 172.4 407.9 L 171.4 401.3 L 170.4 394.7 L 169.4 388.1 L 168.4 381.5 L 167.3 374.9 L 166.3 368.3 L 165.4 361.7 L 164.5 355.2 L 163.8 348.6 L 163.1 342.0 L 162.6 335.4 L 162.2 328.7 L 162.2 328.7 L 161.8 321.9 L 161.5 314.8 L 161.2 307.3 L 160.9 299.7 L 160.7 292.0 L 160.5 284.3 L 160.4 276.6 L 160.4 269.0 L 160.5 261.7 L 160.7 254.6 L 161.1 247.9 L 161.6 241.6 L 162.3 235.9 L 163.2 230.8 L 164.3 226.3 L 165.6 222.7 L 165.6 222.7 L 167.2 219.9 L 169.0 218.2 L 171.1 217.4 L 173.4 217.2 L 175.9 217.7 L 178.5 218.7 L 181.3 219.9 L 184.2 221.4 L 187.2 222.9 L 190.2 224.4 L 193.2 225.7 L 196.3 226.6 L 199.3 227.0 L 202.3 226.8 L 205.2 225.9 L 208.0 224.2 L 208.0 224.2 L 210.8 221.4 L 213.7 217.8 L 216.7 213.4 L 219.7 208.4 L 222.8 202.9 L 226.0 197.1 L 229.1 191.1 L 232.2 185.0 L 235.2 178.9 L 238.1 173.1 L 241.0 167.7 L 243.8 162.7 L 246.4 158.3 L 248.8 154.6 L 251.0 151.9 L 253.1 150.2 L 253.1 150.2 L 254.8 149.5 L 256.3 149.9 L 257.6 151.2 L 258.7 153.2 L 259.6 155.9 L 260.3 159.0 L 261.0 162.4 L 261.7 166.1 L 262.3 169.8 L 262.9 173.5 L 263.7 176.9 L 264.5 180.1 L 265.4 182.8 L 266.6 184.9 L 267.9 186.2 L 269.5 186.7 L 269.5 186.7 L 271.4 186.3 L 273.5 185.0 L 275.8 183.0 L 278.3 180.5 L 280.9 177.6 L 283.6 174.3 L 286.3 170.8 L 289.1 167.2 L 291.9 163.6 L 294.7 160.3 L 297.4 157.2 L 300.0 154.6 L 302.5 152.4 L 304.8 151.0 L 306.9 150.3 L 308.8 150.6 L 308.8 150.6 L 310.4 151.8 L 311.8 153.8 L 313.1 156.5 L 314.2 159.9 L 315.2 163.8 L 316.2 168.1 L 317.0 172.7 L 317.8 177.6 L 318.6 182.5 L 319.3 187.3 L 320.2 192.1 L 321.0 196.6 L 322.0 200.8 L 323.0 204.6 L 324.2 207.8 L 325.6 210.4 L 325.6 210.4 L 327.2 212.2 L 329.0 213.4 L 331.0 214.2 L 333.1 214.4 L 335.3 214.4 L 337.6 214.1 L 339.9 213.8 L 342.2 213.3 L 344.4 213.0 L 346.6 212.8 L 348.6 212.9 L 350.4 213.3 L 352.1 214.3 L 353.4 215.7 L 354.5 217.9 L 355.2 220.8 L 355.2 220.8 L 355.6 224.5 L 355.7 228.8 L 355.6 233.8 L 355.2 239.3 L 354.6 245.3 L 353.8 251.6 L 352.9 258.2 L 351.9 265.0 L 350.8 271.8 L 349.7 278.8 L 348.5 285.6 L 347.4 292.4 L 346.3 298.9 L 345.3 305.1 L 344.4 311.0 L 343.6 316.3 L 343.6 316.3 L 343.0 321.3 L 342.5 326.0 L 342.2 330.5 L 341.9 334.8 L 341.7 339.0 L 341.5 343.0 L 341.3 347.0 L 341.0 350.9 L 340.7 354.8 L 340.2 358.7 L 339.6 362.6 L 338.8 366.7 L 337.7 370.9 L 336.4 375.2 L 334.8 379.7 L 332.8 384.5 L 332.8 384.5 L 330.4 389.4 L 327.6 394.5 L 324.3 399.6 L 320.7 404.8 L 316.9 410.1 L 312.8 415.5 L 308.6 420.9 L 304.3 426.4 L 300.0 432.0 L 295.8 437.7 L 291.7 443.4 L 287.9 449.2 L 284.2 455.1 L 281.0 461.0 L 278.1 467.0 L 275.7 473.0 L 275.7 473.0 L 273.7 479.1 L 272.0 485.4 L 270.6 491.7 L 269.3 498.2 L 268.3 504.7 L 267.5 511.3 L 266.9 517.9 L 266.3 524.6 L 265.9 531.3 L 265.6 538.0 L 265.4 544.8 L 265.2 551.6 L 265.0 558.3 L 264.8 565.0 L 264.6 571.7 L 264.4 578.4 L 264.4 578.4 L 264.2 585.0 L 264.0 591.6 L 263.9 598.3 L 263.9 604.9 L 264.0 611.5 L 264.1 618.2 L 264.2 624.9 L 264.4 631.5 L 264.7 638.2 L 264.9 644.8 L 265.2 651.5 L 265.5 658.2 L 265.8 664.8 L 266.1 671.5 L 266.4 678.1 L 266.7 684.8 L 266.7 684.8 L 267.0 691.4 L 267.2 698.0 L 267.5 704.7 L 267.8 711.3 L 268.1 718.0 L 268.4 724.6 L 268.8 731.3 L 269.1 737.9 L 269.5 744.6 L 269.9 751.2 L 270.4 757.8 L 270.9 764.5 L 271.4 771.1 L 271.9 777.7 L 272.5 784.3 L 273.2 790.9 L 273.2 790.9 L 273.8 797.6 L 274.4 804.2 L 275.0 810.9 L 275.6 817.6 L 276.2 824.3 L 276.8 831.0 L 277.4 837.7 L 278.2 844.4 L 279.0 851.0 L 279.8 857.7 L 280.9 864.2 L 282.0 870.8 L 283.3 877.3 L 284.7 883.7 L 286.4 890.0 L 288.2 896.2 L 288.2 896.2 L 290.2 902.5 L 292.3 908.7 L 294.5 915.0 L 296.8 921.2 L 299.3 927.5 L 301.8 933.6 L 304.5 939.8 L 307.3 945.8 L 310.3 951.8 L 313.4 957.7 L 316.7 963.4 L 320.1 969.0 L 323.7 974.4 L 327.5 979.7 L 331.4 984.8 L 335.5 989.7 L 335.5 989.7 L 339.9 994.4 L 344.5 998.8 L 349.4 1003.1 L 354.5 1007.2 L 359.7 1011.2 L 365.2 1015.0 L 370.8 1018.7 L 376.5 1022.3 L 382.2 1025.8 L 388.1 1029.2 L 394.0 1032.6 L 399.9 1035.9 L 405.8 1039.2 L 411.7 1042.6 L 417.5 1045.9 L 423.3 1049.3 L 423.3 1049.3 L 429.0 1052.6 L 434.8 1055.9 L 440.6 1059.0 L 446.5 1062.2 L 452.4 1065.2 L 458.3 1068.2 L 464.2 1071.2 L 470.2 1074.2 L 476.2 1077.1 L 482.2 1080.1 L 488.2 1083.0 L 494.1 1085.9 L 500.0 1088.8" fill="none" stroke="#ffd23d" stroke-width="6.0" stroke-opacity="0.9"/></g><g id="clips"><circle cx="500.0" cy="1284.0" r="2" fill="none" stroke="#0b5" stroke-width="0.6"/><circle cx="500.0" cy="1088.8" r="2" fill="none" stroke="#0b5" stroke-width="0.6"/></g><g id="power"><circle cx="500.0" cy="1284.0" r="5" fill="none" stroke="#e33" stroke-width="1"/><circle cx="500.0" cy="1088.8" r="5" fill="none" stroke="#e33" stroke-width="1"/></g><g id="bridges"></g></svg>