<svg xmlns="http://www.w3.org/2000/svg" width="2000mm" height="1000mm" viewBox="0 0 2000 1000"><g id="outline"><rect x="0" y="0" width="2000" height="1000" fill="none" stroke="#000" stroke-width="1"/></g><g id="channels"><path d="M 203.2 0.0 L 202.6 2.1 L 200.8 8.3 L 199.1 14.5 L 197.3 20.7 L 195.5 26.9 L 193.7 33.1 L 191.8 39.3 L 190.0 45.5 L 188.1 51.6 L 186.2 57.8 L 186.2 57.8 L 184.2 63.9 L 182.0 70.1 L 179.7 76.2 L 177.3 82.3 L 174.8 88.3 L 172.3 94.4 L 169.7 100.5 L 167.3 106.5 L 164.8 112.6 L 162.5 118.7 L 160.4 124.8 L 158.4 130.9 L 156.6 137.0 L 155.1 143.1 L 153.9 149.3 L 153.0 155.5 L 153.0 155.5 L 152.3 161.7 L 151.8 168.0 L 151.4 174.4 L 151.2 180.8 L 151.2 187.2 L 151.3 193.7 L 151.6 200.2 L 152.0 206.6 L 152.7 213.0 L 153.5 219.4 L 154.5 225.8 L 155.7 232.0 L 157.1 238.2 L 158.7 244.3 L 160.5 250.3 L 162.5 256.1 L 162.5 256.1 L 164.8 261.9 L 167.4 267.6 L 170.3 273.2 L 173.4 278.7 L 176.7 284.2 L 180.2 289.7 L 183.9 295.1 L 187.7 300.4 L 191.7 305.6 L 195.8 310.8 L 200.0 315.9 L 204.2 321.0 L 208.5 326.0 L 212.7 330.9 L 217.0 335.8 L 221.3 340.6 L 221.3 340.6 L 225.5 345.4 L 229.8 350.2 L 234.2 354.9 L 238.7 359.6 L 243.2 364.2 L 247.9 368.8 L 252.5 373.3 L 257.3 377.7 L 262.1 382.0 L 267.0 386.3 L 271.9 390.5 L 276.9 394.5 L 282.0 398.4 L 287.2 402.3 L 292.4 405.9 L 297.7 409.5 L 297.7 409.5 L 303.1 412.8 L 308.6 416.1 L 314.2 419.1 L 319.8 422.0 L 325.6 424.8 L 331.5 427.5 L 337.4 430.1 L 343.3 432.7 L 349.3 435.1 L 355.4 437.5 L 361.4 439.9 L 367.5 442.2 L 373.5 444.5 L 379.6 446.8 L 385.6 449.2 L 391.6 451.5 L 391.6 451.5 L 397.6 453.9 L 403.6 456.2 L 409.7 458.4 L 415.7 460.6 L 421.8 462.7 L 427.9 464.8 L 434.0 466.9 L 440.1 469.0 L 446.2 471.1 L 452.4 473.1 L 458.5 475.2 L 464.6 477.3 L 470.7 479.4 L 476.8 481.5 L 482.9 483.7 L 488.9 485.9 L 488.9 485.9 L 495.0 488.2 L 501.0 490.5 L 507.0 492.9 L 512.9 495.3 L 518.9 497.8 L 524.9 500.3 L 530.9 502.8 L 536.8 505.3 L 542.8 507.7 L 548.8 510.1 L 554.8 512.5 L 560.8 514.8 L 566.8 517.1 L 572.9 519.2 L 579.0 521.2 L 585.1 523.2 L 585.1 523.2 L 591.3 525.0 L 597.5 526.7 L 603.7 528.4 L 610.0 530.0 L 616.2 531.5 L 622.5 532.9 L 628.8 534.3 L 635.1 535.7 L 641.4 537.0 L 647.7 538.3 L 654.1 539.5 L 660.4 540.7 L 666.8 541.9 L 673.1 543.1 L 679.5 544.3 L 685.8 545.5 L 685.8 545.5 L 692.1 546.6 L 698.5 547.7 L 704.9 548.7 L 711.2 549.7 L 717.6 550.6 L 724.0 551.5 L 730.4 552.4 L 736.8 553.3 L 743.2 554.1 L 749.6 555.0 L 756.0 555.9 L 762.4 556.8 L 768.8 557.7 L 775.2 558.7 L 781.5 559.7 L 787.9 560.7 L 787.9 560.7 L 794.3 561.8 L 800.7 562.8 L 807.1 563.7 L 813.6 564.6 L 820.1 565.5 L 826.6 566.4 L 833.0 567.3 L 839.5 568.3 L 845.9 569.4 L 852.3 570.5 L 858.6 571.8 L 864.9 573.2 L 871.1 574.8 L 877.2 576.5 L 883.2 578.5 L 889.1 580.7 L 889.1 580.7 L 894.9 583.1 L 900.8 585.5 L 906.7 588.2 L 912.6 590.9 L 918.5 593.8 L 924.2 596.8 L 930.0 599.9 L 935.6 603.2 L 941.1 606.6 L 946.5 610.1 L 951.8 613.8 L 956.8 617.7 L 961.7 621.7 L 966.4 625.8 L 970.9 630.2 L 975.1 634.6 L 975.1 634.6 L 979.1 639.3 L 982.9 644.3 L 986.4 649.4 L 989.8 654.8 L 992.9 660.4 L 995.9 666.1 L 998.7 671.9 L 1001.5 677.8 L 1004.1 683.9 L 1006.6 690.0 L 1009.0 696.1 L 1011.4 702.3 L 1013.7 708.5 L 1016.0 714.6 L 1018.3 720.7 L 1020.6 726.7 L 1020.6 726.7 L 1022.9 732.7 L 1025.0 738.8 L 1027.1 744.8 L 1029.0 751.0 L 1030.9 757.1 L 1032.7 763.3 L 1034.5 769.5 L 1036.2 775.8 L 1037.9 782.0 L 1039.5 788.3 L 1041.1 794.6 L 1042.7 800.8 L 1044.3 807.1 L 1045.9 813.4 L 1047.6 819.6 L 1049.2 825.9 L 1049.2 825.9 L 1050.8 832.1 L 1052.4 838.4 L 1054.0 844.6 L 1055.5 850.9 L 1057.0 857.2 L 1058.4 863.5 L 1059.9 869.8 L 1061.3 876.0 L 1062.8 882.3 L 1064.3 888.6 L 1065.8 894.9 L 1067.3 901.2 L 1068.9 907.4 L 1070.5 913.7 L 1072.2 919.9 L 1073.9 926.1 L 1073.9 926.1 L 1075.7 932.3 L 1077.5 938.5 L 1079.3 944.7 L 1081.1 950.8 L 1083.0 957.0 L 1084.8 963.2 L 1086.8 969.4 L 1088.7 975.5 L 1090.7 981.6 L 1092.7 987.8 L 1094.8 993.9 L 1096.9 1000.0 L 1096.9 1000.0" fill="none" stroke="#ff3ea5" stroke-width="6.0" stroke-opacity="0.9"/><path d="M 1025.9 1000.0 L 1025.2 997.4 L 1023.4 991.2 L 1021.4 985.0 L 1019.4 978.8 L 1017.2 972.6 L 1015.0 966.5 L 1012.7 960.3 L 1010.5 954.2 L 1008.2 948.1 L 1006.0 942.0 L 1003.8 935.9 L 1003.8 935.9 L 1001.6 929.9 L 999.4 923.8 L 997.1 917.8 L 994.8 911.8 L 992.4 905.8 L 990.0 899.8 L 987.5 893.8 L 985.0 887.9 L 982.4 881.9 L 979.8 876.0 L 977.1 870.1 L 974.4 864.2 L 971.7 858.4 L 968.9 852.6 L 966.1 846.8 L 963.2 841.0 L 963.2 841.0 L 960.4 835.2 L 957.5 829.4 L 954.7 823.5 L 951.9 817.5 L 949.0 811.6 L 946.2 805.7 L 943.2 799.8 L 940.2 794.0 L 937.1 788.3 L 933.9 782.6 L 930.6 777.1 L 927.1 771.7 L 923.5 766.5 L 919.7 761.4 L 915.8 756.6 L 911.6 752.0 L 911.6 752.0 L 907.2 747.5 L 902.7 743.2 L 897.9 739.0 L 893.0 734.9 L 888.0 731.0 L 882.8 727.2 L 877.6 723.5 L 872.2 719.9 L 866.7 716.5 L 861.1 713.3 L 855.4 710.2 L 849.7 707.2 L 843.9 704.4 L 838.1 701.7 L 832.3 699.2 L 826.5 696.9 L 826.5 696.9 L 820.6 694.7 L 814.6 692.9 L 808.4 691.2 L 802.2 689.8 L 796.0 688.5 L 789.6 687.4 L 783.2 686.4 L 776.7 685.6 L 770.2 684.8 L 763.7 684.0 L 757.2 683.3 L 750.7 682.6 L 744.2 681.9 L 737.7 681.2 L 731.2 680.4 L 724.8 679.4 L 724.8 679.4 L 718.5 678.4 L 712.1 677.4 L 705.7 676.4 L 699.3 675.3 L 692.9 674.2 L 686.5 673.1 L 680.1 672.1 L 673.7 671.1 L 667.3 670.1 L 660.9 669.2 L 654.5 668.4 L 648.1 667.7 L 641.7 667.0 L 635.3 666.5 L 628.9 666.1 L 622.5 665.8 L 622.5 665.8 L 616.0 665.6 L 609.1 665.3 L 602.0 664.9 L 594.7 664.6 L 587.3 664.3 L 579.9 664.0 L 572.6 663.9 L 565.4 663.9 L 558.3 664.1 L 551.6 664.5 L 545.1 665.1 L 539.1 666.0 L 533.5 667.2 L 528.5 668.8 L 524.1 670.7 L 520.4 673.1 L 520.4 673.1 L 517.3 676.0 L 514.5 679.5 L 512.1 683.5 L 510.1 688.1 L 508.4 692.9 L 507.1 698.1 L 506.2 703.5 L 505.7 709.0 L 505.6 714.5 L 505.9 720.1 L 506.6 725.5 L 507.7 730.7 L 509.1 735.6 L 511.0 740.2 L 513.3 744.4 L 516.0 748.0 L 516.0 748.0 L 519.3 751.1 L 523.3 754.0 L 528.0 756.6 L 533.2 758.9 L 538.9 761.1 L 545.1 763.0 L 551.6 764.8 L 558.3 766.5 L 565.3 768.1 L 572.4 769.7 L 579.5 771.2 L 586.7 772.8 L 593.7 774.4 L 600.5 776.1 L 607.1 777.9 L 613.4 779.9 L 613.4 779.9 L 619.5 781.9 L 625.7 783.8 L 632.0 785.5 L 638.3 787.3 L 644.7 789.0 L 651.0 790.7 L 657.4 792.4 L 663.7 794.2 L 669.9 796.0 L 676.1 798.0 L 682.2 800.1 L 688.1 802.4 L 693.9 804.9 L 699.6 807.6 L 705.1 810.6 L 710.3 813.8 L 710.3 813.8 L 715.5 817.3 L 720.7 821.1 L 726.0 825.0 L 731.2 829.1 L 736.3 833.4 L 741.4 837.8 L 746.3 842.4 L 751.0 847.2 L 755.5 852.0 L 759.8 857.0 L 763.8 862.1 L 767.5 867.3 L 770.8 872.6 L 773.7 877.9 L 776.2 883.3 L 778.3 888.7 L 778.3 888.7 L 779.9 894.3 L 781.2 900.2 L 782.2 906.4 L 782.9 912.8 L 783.3 919.4 L 783.4 926.1 L 783.2 932.8 L 782.7 939.6 L 781.8 946.3 L 780.7 952.9 L 779.3 959.4 L 777.6 965.7 L 775.7 971.8 L 773.4 977.5 L 770.9 983.0 L 768.1 988.0 L 768.1 988.0 L 764.9 992.7 L 761.3 997.4 L 758.9 1000.0" fill="none" stroke="#ff3ea5" stroke-width="6.0" stroke-opacity="0.9"/><path d="M 509.3 1000.0 L 507.8 998.9 L 502.7 995.0 L 497.8 991.0 L 493.0 987.0 L 493.0 987.0 L 488.3 982.5 L 483.8 977.4 L 479.3 971.7 L 475.0 965.7 L 470.7 959.4 L 466.6 952.9 L 462.6 946.4 L 458.6 939.9 L 454.8 933.6 L 451.1 927.6 L 447.4 922.1 L 443.9 917.1 L 440.5 912.7 L 437.1 909.2 L 433.9 906.5 L 430.7 904.8 L 430.7 904.8 L 427.6 904.1 L 424.4 904.2 L 421.1 904.9 L 417.8 906.3 L 414.6 908.3 L 411.5 910.8 L 408.5 913.7 L 405.7 917.1 L 403.0 920.8 L 400.6 924.8 L 398.5 929.0 L 396.8 933.4 L 395.3 937.9 L 394.3 942.4 L 393.7 947.0 L 393.6 951.4 L 393.6 951.4 L 394.1 956.0 L 395.1 960.9 L 396.7 966.1 L 398.7 971.6 L 401.1 977.3 L 403.8 983.2 L 406.8 989.3 L 410.0 995.4 L 412.4 1000.0" fill="none" stroke="#ff3ea5" stroke-width="6.0" stroke-opacity="0.9"/><path d="M 238.8 1000.0 L 236.1 995.5 L 232.8 989.9 L 229.4 984.4 L 226.1 978.9 L 222.7 973.4 L 219.3 967.9 L 215.8 962.5 L 212.3 957.1 L 208.7 951.7 L 205.1 946.4 L 201.4 941.1 L 201.4 941.1 L 197.7 935.9 L 193.9 930.7 L 190.0 925.5 L 186.1 920.4 L 182.2 915.3 L 178.2 910.2 L 174.2 905.2 L 170.1 900.1 L 166.0 895.1 L 161.9 890.2 L 157.8 885.2 L 153.6 880.3 L 149.4 875.4 L 145.2 870.5 L 141.0 865.6 L 136.8 860.7 L 136.8 860.7 L 132.5 855.9 L 128.2 851.1 L 123.9 846.3 L 119.6 841.5 L 115.2 836.8 L 110.8 832.1 L 106.4 827.4 L 101.9 822.7 L 97.5 818.0 L 93.0 813.4 L 88.5 808.7 L 84.0 804.1 L 79.5 799.5 L 75.0 794.9 L 70.5 790.3 L 65.9 785.7 L 65.9 785.7 L 61.4 781.1 L 56.8 776.5 L 52.3 772.0 L 47.7 767.4 L 43.1 762.9 L 38.5 758.4 L 33.9 753.9 L 29.3 749.4 L 24.6 744.9 L 20.0 740.4 L 15.3 735.9 L 10.7 731.5 L 6.0 727.0 L 1.3 722.6 L 0.0 721.4" fill="none" stroke="#ff3ea5" stroke-width="6.0" stroke-opacity="0.9"/><path d="M 532.1 848.1 L 531.9 848.4 L 531.7 848.8 L 531.4 849.3 L 531.1 849.8 L 530.8 850.4 L 530.4 851.0 L 530.1 851.6 L 529.7 852.3 L 529.3 853.0 L 528.9 853.7 L 528.5 854.4 L 528.1 855.1 L 527.8 855.8 L 527.4 856.4 L 527.0 857.1 L 526.7 857.7 L 526.7 857.7 L 526.4 858.3 L 526.0 858.9 L 525.7 859.5 L 525.4 860.1 L 525.1 860.7 L 524.7 861.3 L 524.4 862.0 L 524.1 862.6 L 523.8 863.2 L 523.4 863.8 L 523.1 864.4 L 522.8 865.0 L 522.5 865.6 L 522.1 866.2 L 521.8 866.8 L 521.5 867.5 L 521.5 867.5 L 521.2 868.1 L 520.8 868.7 L 520.5 869.4 L 520.1 870.1 L 519.7 870.8 L 519.4 871.5 L 519.0 872.3 L 518.6 873.0 L 518.3 873.6 L 517.9 874.3 L 517.6 874.9 L 517.3 875.5 L 517.0 876.0 L 516.8 876.5 L 516.6 876.9 L 516.4 877.2" fill="none" stroke="#ff3ea5" stroke-width="6.0" stroke-opacity="0.9"/></g><g id="clips"><circle cx="203.2" cy="0.0" r="2" fill="none" stroke="#0b5" stroke-width="0.6"/><circle cx="1096.9" cy="1000.0" r="2" fill="none" stroke="#0b5" stroke-width="0.6"/><circle cx="1025.9" cy="1000.0" r="2" fill="none" stroke="#0b5" stroke-width="0.6"/><circle cx="758.9" cy="1000.0" r="2" fill="none" stroke="#0b5" stroke-width="0.6"/><circle cx="509.3" cy="1000.0" r="2" fill="none" stroke="#0b5" stroke-width="0.6"/><circle cx="412.4" cy="1000.0" r="2" fill="none" stroke="#0b5" stroke-width="0.6"/><circle cx="238.8" cy="1000.0" r="2" fill="none" stroke="#0b5" stroke-width="0.6"/><circle cx="0.0" cy="721.4" r="2" fill="none" stroke="#0b5" stroke-width="0.6"/><circle cx="532.1" cy="848.1" r="2" fill="none" stroke="#0b5" stroke-width="0.6"/></g><g id="power"><circle cx="0.0" cy="721.3" r="5" fill="none" stroke="#e33" stroke-width="1"/><circle cx="1096.9" cy="1000.0" r="5" fill="none" stroke="#e33" stroke-width="1"/><circle cx="1025.9" cy="1000.0" r="5" fill="none" stroke="#e33" stroke-width="1"/><circle cx="759.0" cy="1000.0" r="5" fill="none" stroke="#e33" stroke-width="1"/><circle cx="509.2" cy="1000.0" r="5" fill="none" stroke="#e33" stroke-width="1"/><circle cx="412.4" cy="1000.0" r="5" fill="none" stroke="#e33" stroke-width="1"/><circle cx="238.8" cy="1000.0" r="5" fill="none" stroke="#e33" stroke-width="1"/><circle cx="203.2" cy="0.0" r="5" fill="none" stroke="#e33" stroke-width="1"/></g></svg>