<svg xmlns="http://www.w3.org/2000/svg" width="1000mm" height="2000mm" viewBox="0 0 1000 2000"><g id="outline"><rect x="0" y="0" width="1000" height="2000" fill="none" stroke="#000" stroke-width="1"/></g><g id="channels"><path d="M 495.5 2000.0 L 497.3 1996.8 L 500.6 1990.9 L 503.7 1984.9 L 506.6 1978.9 L 509.3 1972.9 L 511.7 1966.8 L 513.9 1960.7 L 515.8 1954.6 L 517.4 1948.4 L 518.6 1942.2 L 518.6 1942.2 L 519.5 1935.9 L 520.1 1929.6 L 520.3 1923.1 L 520.3 1916.6 L 519.9 1910.1 L 519.4 1903.5 L 518.6 1896.8 L 517.6 1890.2 L 516.5 1883.5 L 515.3 1876.8 L 513.9 1870.2 L 512.5 1863.5 L 511.0 1856.9 L 509.5 1850.3 L 508.1 1843.8 L 506.6 1837.3 L 506.6 1837.3 L 505.1 1830.9 L 503.6 1824.5 L 501.9 1818.1 L 500.1 1811.7 L 498.2 1805.3 L 496.3 1798.9 L 494.2 1792.5 L 492.1 1786.2 L 489.9 1779.9 L 487.7 1773.6 L 485.4 1767.3 L 483.0 1761.1 L 480.6 1754.8 L 478.2 1748.6 L 475.7 1742.5 L 473.2 1736.3 L 473.2 1736.3 L 470.7 1730.2 L 468.1 1724.0 L 465.5 1717.9 L 462.9 1711.7 L 460.2 1705.6 L 457.5 1699.5 L 454.8 1693.4 L 451.9 1687.4 L 449.0 1681.4 L 446.0 1675.4 L 442.9 1669.5 L 439.7 1663.7 L 436.4 1658.0 L 433.0 1652.3 L 429.5 1646.8 L 425.8 1641.4 L 425.8 1641.4 L 422.0 1636.0 L 418.0 1630.7 L 413.9 1625.6 L 409.7 1620.5 L 405.4 1615.4 L 401.0 1610.5 L 396.5 1605.6 L 391.9 1600.8 L 387.2 1596.0 L 382.5 1591.3 L 377.7 1586.6 L 372.9 1582.0 L 368.0 1577.4 L 363.1 1572.9 L 358.2 1568.4 L 353.3 1563.9 L 353.3 1563.9 L 348.4 1559.6 L 343.3 1555.3 L 338.2 1551.1 L 333.0 1547.0 L 327.7 1542.9 L 322.4 1538.9 L 317.0 1535.0 L 311.6 1531.1 L 306.2 1527.1 L 300.8 1523.2 L 295.4 1519.3 L 290.0 1515.4 L 284.7 1511.4 L 279.4 1507.4 L 274.1 1503.3 L 269.0 1499.1 L 269.0 1499.1 L 263.8 1494.9 L 258.7 1490.6 L 253.6 1486.3 L 248.6 1482.0 L 243.5 1477.7 L 238.5 1473.4 L 233.5 1469.0 L 228.5 1464.6 L 223.5 1460.2 L 218.5 1455.8 L 213.6 1451.4 L 208.6 1446.9 L 203.7 1442.5 L 198.7 1438.0 L 193.8 1433.6 L 188.9 1429.1 L 188.9 1429.1 L 184.0 1424.6 L 179.1 1420.0 L 174.3 1415.4 L 169.6 1410.8 L 164.8 1406.1 L 160.1 1401.4 L 155.4 1396.6 L 150.7 1391.9 L 145.9 1387.3 L 141.2 1382.6 L 136.4 1378.0 L 131.5 1373.5 L 126.6 1369.0 L 121.6 1364.6 L 116.6 1360.3 L 111.4 1356.2 L 111.4 1356.2 L 106.2 1352.1 L 100.9 1348.1 L 95.6 1344.1 L 90.2 1340.3 L 84.8 1336.5 L 79.3 1332.7 L 73.8 1329.0 L 68.2 1325.3 L 62.6 1321.7 L 57.0 1318.1 L 51.4 1314.6 L 45.7 1311.1 L 40.1 1307.6 L 34.4 1304.1 L 28.7 1300.7 L 23.0 1297.2 L 23.0 1297.2 L 17.3 1293.8 L 11.6 1290.5 L 5.8 1287.2 L 0.0 1284.0 L 0.0 1284.0" fill="none" stroke="#ffd23d" stroke-width="6.0" stroke-opacity="0.9"/><path d="M 0.0 1088.8 L 0.1 1088.9 L 6.0 1091.9 L 11.9 1095.0 L 17.8 1098.1 L 17.8 1098.1 L 23.6 1101.3 L 29.5 1104.5 L 35.2 1107.8 L 41.0 1111.2 L 46.8 1114.5 L 52.5 1117.9 L 58.3 1121.2 L 64.0 1124.6 L 69.8 1127.9 L 75.6 1131.3 L 81.3 1134.6 L 87.1 1137.8 L 93.0 1141.0 L 98.8 1144.1 L 104.7 1147.1 L 110.7 1150.0 L 110.7 1150.0 L 116.7 1152.9 L 122.7 1155.9 L 128.7 1158.9 L 134.7 1161.9 L 140.7 1164.9 L 146.8 1167.8 L 152.9 1170.7 L 159.0 1173.5 L 165.1 1176.2 L 171.3 1178.8 L 177.5 1181.2 L 183.7 1183.5 L 189.9 1185.6 L 196.1 1187.5 L 202.4 1189.1 L 208.7 1190.5 L 208.7 1190.5 L 215.3 1191.7 L 222.2 1193.0 L 229.5 1194.3 L 237.0 1195.4 L 244.7 1196.5 L 252.4 1197.4 L 260.1 1198.2 L 267.6 1198.7 L 274.9 1198.9 L 282.0 1198.8 L 288.6 1198.4 L 294.8 1197.7 L 300.4 1196.5 L 305.3 1194.8 L 309.5 1192.6 L 312.8 1189.9 L 312.8 1189.9 L 315.4 1186.5 L 317.4 1182.4 L 318.8 1177.5 L 319.7 1172.1 L 320.1 1166.2 L 320.1 1159.8 L 319.6 1153.2 L 318.7 1146.4 L 317.5 1139.4 L 315.9 1132.4 L 314.0 1125.5 L 311.8 1118.7 L 309.4 1112.1 L 306.8 1105.9 L 304.1 1100.2 L 301.1 1094.9 L 301.1 1094.9 L 297.9 1090.0 L 294.2 1085.4 L 290.0 1080.9 L 285.4 1076.6 L 280.5 1072.4 L 275.3 1068.3 L 269.8 1064.4 L 264.1 1060.5 L 258.3 1056.7 L 252.4 1053.0 L 246.4 1049.3 L 240.4 1045.7 L 234.5 1042.1 L 228.6 1038.4 L 222.9 1034.7 L 217.3 1031.0 L 217.3 1031.0 L 211.9 1027.4 L 206.3 1023.8 L 200.6 1020.4 L 194.8 1017.1 L 189.1 1013.8 L 183.2 1010.5 L 177.4 1007.3 L 171.6 1004.1 L 165.8 1000.8 L 160.0 997.5 L 154.3 994.1 L 148.6 990.6 L 143.1 987.0 L 137.7 983.3 L 132.4 979.4 L 127.2 975.4 L 127.2 975.4 L 122.1 971.1 L 117.0 966.9 L 111.9 962.5 L 106.9 958.0 L 101.9 953.5 L 97.0 948.8 L 92.1 944.1 L 87.4 939.3 L 82.7 934.4 L 78.2 929.4 L 73.8 924.3 L 69.6 919.2 L 65.6 914.0 L 61.8 908.6 L 58.1 903.2 L 54.7 897.8 L 54.7 897.8 L 51.4 892.1 L 48.2 886.4 L 45.1 880.5 L 42.1 874.4 L 39.2 868.3 L 36.5 862.1 L 33.9 855.8 L 31.5 849.4 L 29.3 843.0 L 27.4 836.6 L 25.7 830.2 L 24.3 823.7 L 23.2 817.3 L 22.3 811.0 L 21.9 804.7 L 21.7 798.4 L 21.7 798.4 L 21.9 792.2 L 22.5 785.8 L 23.3 779.4 L 24.4 772.8 L 25.8 766.3 L 27.5 759.7 L 29.4 753.1 L 31.6 746.6 L 34.0 740.2 L 36.6 733.9 L 39.4 727.7 L 42.4 721.7 L 45.7 715.9 L 49.1 710.3 L 52.6 705.0 L 56.4 699.9 L 56.4 699.9 L 60.3 695.1 L 64.6 690.2 L 69.2 685.5 L 74.0 680.9 L 79.0 676.4 L 84.3 672.1 L 89.8 668.0 L 95.4 664.0 L 101.2 660.2 L 107.0 656.7 L 113.0 653.4 L 119.0 650.4 L 125.1 647.7 L 131.1 645.3 L 137.1 643.2 L 143.1 641.4 L 143.1 641.4 L 149.2 640.1 L 155.4 639.1 L 161.7 638.4 L 168.1 638.0 L 174.6 637.9 L 181.2 638.1 L 187.9 638.6 L 194.6 639.2 L 201.3 640.1 L 208.0 641.1 L 214.7 642.4 L 221.3 643.7 L 227.9 645.2 L 234.4 646.7 L 240.8 648.4 L 247.1 650.1 L 247.1 650.1 L 253.4 651.9 L 259.6 653.9 L 265.8 656.1 L 272.1 658.4 L 278.3 660.9 L 284.4 663.6 L 290.5 666.4 L 296.6 669.3 L 302.6 672.3 L 308.6 675.5 L 314.5 678.8 L 320.3 682.2 L 326.1 685.6 L 331.8 689.2 L 337.3 692.8 L 342.8 696.4 L 342.8 696.4 L 348.2 700.2 L 353.6 704.0 L 359.1 708.0 L 364.4 712.0 L 369.8 716.2 L 375.0 720.5 L 380.2 724.8 L 385.3 729.3 L 390.3 733.8 L 395.1 738.5 L 399.8 743.2 L 404.4 748.1 L 408.7 753.1 L 412.8 758.1 L 416.8 763.3 L 420.5 768.5 L 420.5 768.5 L 423.9 773.9 L 427.1 779.5 L 430.0 785.2 L 432.8 791.1 L 435.3 797.1 L 437.7 803.2 L 439.9 809.4 L 442.1 815.6 L 444.1 821.9 L 446.0 828.3 L 447.9 834.6 L 449.7 841.0 L 451.5 847.4 L 453.4 853.8 L 455.3 860.1 L 457.2 866.3 L 457.2 866.3 L 459.0 872.8 L 460.7 879.7 L 462.1 887.0 L 463.5 894.5 L 464.7 902.1 L 465.9 909.8 L 467.1 917.5 L 468.3 925.0 L 469.5 932.2 L 470.9 939.1 L 472.3 945.6 L 474.0 951.5 L 475.9 956.8 L 478.0 961.3 L 480.4 965.0 L 483.1 967.8 L 483.1 967.8 L 486.3 969.7 L 490.0 970.9 L 494.2 971.5 L 498.7 971.5 L 503.5 971.0 L 508.5 969.9 L 513.6 968.4 L 518.7 966.3 L 523.7 963.9 L 528.6 961.2 L 533.2 958.1 L 537.6 954.7 L 541.5 951.0 L 545.0 947.2 L 547.8 943.2 L 550.1 939.0 L 550.1 939.0 L 551.6 934.5 L 552.7 929.5 L 553.3 923.9 L 553.5 917.9 L 553.3 911.6 L 552.8 904.9 L 552.0 898.0 L 551.1 890.9 L 550.0 883.6 L 548.8 876.2 L 547.5 868.8 L 546.3 861.4 L 545.2 854.0 L 544.2 846.8 L 543.3 839.8 L 542.7 833.0 L 542.7 833.0 L 542.2 826.4 L 541.7 819.8 L 541.2 813.2 L 540.6 806.5 L 540.1 799.9 L 539.5 793.3 L 538.9 786.7 L 538.4 780.0 L 537.8 773.4 L 537.3 766.8 L 536.8 760.2 L 536.3 753.5 L 535.9 746.9 L 535.6 740.3 L 535.2 733.6 L 535.0 727.0 L 535.0 727.0 L 534.8 720.3 L 534.7 713.7 L 534.7 707.0 L 534.7 700.4 L 534.8 693.7 L 534.9 687.1 L 535.1 680.4 L 535.2 673.8 L 535.4 667.1 L 535.5 660.5 L 535.6 653.8 L 535.7 647.1 L 535.8 640.5 L 535.8 633.8 L 535.7 627.2 L 535.5 620.6 L 535.5 620.6 L 535.3 613.9 L 535.2 607.3 L 535.0 600.6 L 534.9 593.9 L 534.7 587.2 L 534.6 580.5 L 534.4 573.8 L 534.1 567.1 L 533.7 560.5 L 533.3 553.8 L 532.8 547.2 L 532.2 540.6 L 531.4 534.0 L 530.5 527.5 L 529.5 521.0 L 528.2 514.5 L 528.2 514.5 L 526.9 508.1 L 525.4 501.7 L 523.7 495.3 L 522.0 488.9 L 520.1 482.5 L 518.2 476.1 L 516.1 469.8 L 513.9 463.5 L 511.7 457.2 L 509.3 451.0 L 506.9 444.8 L 504.3 438.6 L 501.7 432.5 L 499.0 426.5 L 496.2 420.4 L 493.4 414.5 L 493.4 414.5 L 490.5 408.6 L 487.4 402.8 L 484.1 397.0 L 480.8 391.3 L 477.3 385.6 L 473.8 380.0 L 470.1 374.4 L 466.5 368.8 L 462.7 363.3 L 459.0 357.8 L 455.2 352.3 L 451.4 346.8 L 447.6 341.3 L 443.8 335.7 L 440.1 330.2 L 436.5 324.6 L 436.5 324.6 L 432.8 319.1 L 429.2 313.5 L 425.5 308.0 L 421.7 302.5 L 418.0 297.0 L 414.3 291.5 L 410.5 286.0 L 406.8 280.5 L 403.0 275.0 L 399.3 269.5 L 395.6 264.0 L 391.9 258.4 L 388.2 252.9 L 384.6 247.3 L 381.0 241.7 L 377.5 236.1 L 377.5 236.1 L 374.0 230.5 L 370.5 224.8 L 367.0 219.1 L 363.6 213.4 L 360.2 207.7 L 356.8 202.0 L 353.4 196.3 L 350.0 190.5 L 346.7 184.8 L 343.4 179.0 L 340.1 173.2 L 336.8 167.4 L 333.6 161.6 L 330.3 155.8 L 327.1 150.0 L 323.9 144.2 L 323.9 144.2 L 320.7 138.3 L 317.6 132.4 L 314.7 126.4 L 311.7 120.4 L 308.8 114.4 L 306.0 108.3 L 303.1 102.3 L 300.2 96.2 L 297.3 90.2 L 294.4 84.2 L 291.4 78.3 L 288.3 72.4 L 285.1 66.6 L 281.8 60.9 L 278.3 55.3 L 274.7 49.8 L 274.7 49.8 L 271.0 44.3 L 267.3 38.8 L 263.5 33.2 L 259.7 27.5 L 255.9 21.9 L 251.9 16.4 L 247.9 10.9 L 243.8 5.5 L 239.5 0.3 L 239.2 0.0" fill="none" stroke="#ffd23d" stroke-width="6.0" stroke-opacity="0.9"/><path d="M 378.6 0.0 L 379.6 1.4 L 383.5 6.8 L 387.5 12.1 L 391.5 17.4 L 395.6 22.7 L 399.7 28.0 L 403.7 33.2 L 407.8 38.5 L 411.9 43.7 L 416.0 48.9 L 416.0 48.9 L 420.2 54.1 L 424.3 59.3 L 428.5 64.5 L 432.7 69.6 L 437.0 74.8 L 441.2 79.9 L 445.5 84.9 L 449.8 90.0 L 454.1 95.1 L 458.5 100.1 L 462.8 105.2 L 467.2 110.2 L 471.5 115.2 L 475.9 120.3 L 480.2 125.3 L 484.6 130.3 L 484.6 130.3 L 488.9 135.4 L 493.3 140.3 L 497.8 145.3 L 502.2 150.2 L 506.7 155.2 L 511.2 160.1 L 515.7 165.0 L 520.2 169.9 L 524.7 174.8 L 529.1 179.8 L 533.6 184.7 L 538.0 189.7 L 542.4 194.7 L 546.7 199.8 L 550.9 204.8 L 555.1 210.0 L 555.1 210.0 L 559.3 215.2 L 563.5 220.3 L 567.6 225.5 L 571.7 230.8 L 575.8 236.0 L 579.9 241.3 L 583.9 246.6 L 587.9 251.9 L 591.9 257.2 L 595.8 262.6 L 599.7 268.0 L 603.5 273.5 L 607.2 279.0 L 610.9 284.5 L 614.6 290.0 L 618.1 295.6 L 618.1 295.6 L 621.6 301.2 L 625.1 306.9 L 628.5 312.6 L 631.8 318.4 L 635.1 324.2 L 638.3 330.0 L 641.5 335.8 L 644.7 341.7 L 647.8 347.6 L 650.8 353.5 L 653.8 359.5 L 656.7 365.5 L 659.6 371.5 L 662.5 377.5 L 665.3 383.5 L 668.1 389.5 L 668.1 389.5 L 670.8 395.6 L 673.5 401.6 L 676.2 407.7 L 678.9 413.8 L 681.6 420.0 L 684.2 426.1 L 686.8 432.3 L 689.3 438.5 L 691.7 444.7 L 694.0 450.9 L 696.3 457.2 L 698.4 463.4 L 700.5 469.8 L 702.4 476.1 L 704.2 482.4 L 705.8 488.8 L 705.8 488.8 L 707.3 495.3 L 708.5 501.7 L 709.7 508.2 L 710.7 514.8 L 711.6 521.3 L 712.3 527.9 L 713.0 534.5 L 713.6 541.2 L 714.2 547.8 L 714.7 554.5 L 715.2 561.1 L 715.7 567.8 L 716.2 574.4 L 716.7 581.1 L 717.3 587.7 L 717.9 594.3 L 717.9 594.3 L 718.5 600.9 L 719.1 607.5 L 719.7 614.2 L 720.2 620.8 L 720.7 627.4 L 721.1 634.1 L 721.6 640.7 L 722.1 647.3 L 722.6 654.0 L 723.1 660.6 L 723.6 667.2 L 724.2 673.8 L 724.9 680.4 L 725.6 687.0 L 726.5 693.6 L 727.4 700.2 L 727.4 700.2 L 728.4 706.8 L 729.5 713.3 L 730.7 719.8 L 732.0 726.4 L 733.3 732.9 L 734.7 739.4 L 736.2 745.9 L 737.6 752.4 L 739.1 758.9 L 740.6 765.4 L 742.0 771.9 L 743.5 778.4 L 744.8 784.9 L 746.2 791.4 L 747.4 797.9 L 748.6 804.5 L 748.6 804.5 L 749.7 811.0 L 750.8 817.6 L 751.8 824.2 L 752.7 830.8 L 753.6 837.4 L 754.5 843.9 L 755.3 850.5 L 756.2 857.2 L 757.0 863.8 L 757.9 870.3 L 758.8 876.9 L 759.7 883.5 L 760.7 890.1 L 761.7 896.7 L 762.8 903.2 L 764.0 909.8 L 764.0 909.8 L 765.2 916.3 L 766.4 922.8 L 767.7 929.4 L 769.0 935.9 L 770.3 942.4 L 771.7 948.9 L 773.1 955.4 L 774.5 961.9 L 775.9 968.4 L 777.4 974.9 L 779.0 981.4 L 780.5 987.8 L 782.2 994.3 L 783.8 1000.7 L 785.5 1007.1 L 787.3 1013.5 L 787.3 1013.5 L 789.1 1019.9 L 790.9 1026.3 L 792.8 1032.7 L 794.8 1039.0 L 796.8 1045.4 L 798.8 1051.7 L 800.9 1058.0 L 803.0 1064.3 L 805.1 1070.6 L 807.3 1076.9 L 809.5 1083.2 L 811.7 1089.5 L 814.0 1095.7 L 816.3 1102.0 L 818.6 1108.2 L 820.9 1114.5 L 820.9 1114.5 L 823.3 1120.7 L 825.7 1126.9 L 828.1 1133.0 L 830.6 1139.2 L 833.1 1145.4 L 835.6 1151.5 L 838.2 1157.7 L 840.8 1163.8 L 843.4 1169.9 L 846.0 1176.0 L 848.7 1182.1 L 851.3 1188.2 L 853.9 1194.3 L 856.6 1200.4 L 859.2 1206.5 L 861.9 1212.7 L 861.9 1212.7 L 864.5 1218.8 L 867.2 1224.9 L 869.8 1231.0 L 872.5 1237.1 L 875.2 1243.1 L 877.8 1249.2 L 880.5 1255.3 L 883.2 1261.4 L 885.9 1267.5 L 888.7 1273.5 L 891.4 1279.6 L 894.2 1285.7 L 896.9 1291.7 L 899.7 1297.7 L 902.5 1303.8 L 905.3 1309.8 L 905.3 1309.8 L 908.1 1315.8 L 911.0 1321.8 L 913.8 1327.9 L 916.7 1333.9 L 919.5 1339.9 L 922.4 1345.9 L 925.3 1351.8 L 928.2 1357.8 L 931.2 1363.8 L 934.1 1369.8 L 937.1 1375.7 L 940.0 1381.7 L 943.0 1387.6 L 946.0 1393.5 L 949.1 1399.5 L 952.1 1405.4 L 952.1 1405.4 L 955.2 1411.3 L 958.3 1417.1 L 961.5 1423.0 L 964.7 1428.8 L 967.9 1434.6 L 971.2 1440.4 L 974.4 1446.2 L 977.7 1452.0 L 981.0 1457.8 L 984.2 1463.6 L 987.4 1469.4 L 990.7 1475.3 L 993.8 1481.1 L 996.9 1487.0 L 1000.0 1492.9 L 1000.0 1492.9" fill="none" stroke="#ffd23d" stroke-width="6.0" stroke-opacity="0.9"/><path d="M 308.8 977.7 L 309.5 977.1 L 310.4 976.4 L 311.5 975.5 L 312.6 974.6 L 313.8 973.6 L 315.2 972.5 L 316.6 971.4 L 318.1 970.2 L 319.6 968.9 L 321.1 967.7 L 322.6 966.4 L 324.1 965.2 L 325.6 963.9 L 327.1 962.7 L 328.5 961.5 L 329.8 960.4 L 329.8 960.4 L 331.1 959.3 L 332.4 958.1 L 333.7 957.0 L 335.0 955.9 L 336.3 954.8 L 337.5 953.7 L 338.8 952.5 L 340.1 951.4 L 341.4 950.2 L 342.6 949.1 L 343.9 948.0 L 345.1 946.8 L 346.4 945.7 L 347.6 944.5 L 348.9 943.3 L 350.1 942.2 L 350.1 942.2 L 351.4 941.0 L 352.8 939.7 L 354.2 938.4 L 355.6 937.1 L 357.0 935.7 L 358.4 934.3 L 359.8 933.0 L 361.2 931.6 L 362.6 930.3 L 363.9 929.0 L 365.1 927.8 L 366.3 926.7 L 367.3 925.7 L 368.3 924.8 L 369.1 924.0 L 369.8 923.3" fill="none" stroke="#ffd23d" stroke-width="6.0" stroke-opacity="0.9"/></g><g id="clips"><circle cx="495.5" cy="2000.0" r="2" fill="none" stroke="#0b5" stroke-width="0.6"/><circle cx="0.0" cy="1284.0" r="2" fill="none" stroke="#0b5" stroke-width="0.6"/><circle cx="0.0" cy="1088.8" r="2" fill="none" stroke="#0b5" stroke-width="0.6"/><circle cx="239.2" cy="0.0" r="2" fill="none" stroke="#0b5" stroke-width="0.6"/><circle cx="378.6" cy="0.0" r="2" fill="none" stroke="#0b5" stroke-width="0.6"/><circle cx="1000.0" cy="1492.9" r="2" fill="none" stroke="#0b5" stroke-width="0.6"/><circle cx="308.8" cy="977.7" r="2" fill="none" stroke="#0b5" stroke-width="0.6"/><circle cx="369.8" cy="923.3" r="2" fill="none" stroke="#0b5" stroke-width="0.6"/></g><g id="power"><circle cx="0.0" cy="1284.0" r="5" fill="none" stroke="#e33" stroke-width="1"/><circle cx="0.0" cy="1088.8" r="5" fill="none" stroke="#e33" stroke-width="1"/><circle cx="1000.0" cy="1492.8" r="5" fill="none" stroke="#e33" stroke-width="1"/><circle cx="495.5" cy="2000.0" r="5" fill="none" stroke="#e33" stroke-width="1"/><circle cx="239.2" cy="0.0" r="5" fill="none" stroke="#e33" stroke-width="1"/><circle cx="378.6" cy="0.0" r="5" fill="none" stroke="#e33" stroke-width="1"/></g><g id="bridges"></g></svg>