<svg xmlns="http://www.w3.org/2000/svg" width="2000mm" height="1000mm" viewBox="0 0 2000 1000"><g id="outline"><rect x="0" y="0" width="2000" height="1000" fill="none" stroke="#000" stroke-width="1"/></g><g id="channels"><path d="M 1781.9 108.9 L 1784.5 106.4 L 1787.6 103.5 L 1791.2 100.1 L 1795.1 96.3 L 1799.5 92.2 L 1804.1 87.8 L 1809.0 83.2 L 1814.1 78.3 L 1819.4 73.4 L 1824.7 68.3 L 1830.1 63.2 L 1835.4 58.1 L 1840.7 53.1 L 1845.9 48.3 L 1850.8 43.6 L 1855.6 39.1 L 1855.6 39.1 L 1860.2 34.7 L 1864.8 30.3 L 1869.4 25.9 L 1873.9 21.5 L 1878.5 17.1 L 1883.1 12.7 L 1887.6 8.2 L 1892.2 3.8 L 1896.2 0.0" fill="none" stroke="#a05bff" stroke-width="6.0" stroke-opacity="0.9"/><path d="M 1675.8 0.0 L 1672.2 4.7 L 1668.8 9.9 L 1666.0 15.1 L 1664.0 20.2 L 1662.9 25.2 L 1662.7 30.0 L 1662.7 30.0 L 1663.7 34.8 L 1666.0 39.7 L 1669.4 44.7 L 1673.7 49.7 L 1678.8 54.7 L 1684.5 59.7 L 1690.7 64.6 L 1697.1 69.4 L 1703.7 74.1 L 1710.3 78.5 L 1716.6 82.7 L 1722.6 86.6 L 1728.1 90.2 L 1732.9 93.4 L 1736.9 96.2 L 1739.9 98.6" fill="none" stroke="#a05bff" stroke-width="6.0" stroke-opacity="0.9"/></g><g id="clips"><circle cx="1781.9" cy="108.9" r="2" fill="none" stroke="#0b5" stroke-width="0.6"/><circle cx="1896.2" cy="0.0" r="2" fill="none" stroke="#0b5" stroke-width="0.6"/><circle cx="1675.8" cy="0.0" r="2" fill="none" stroke="#0b5" stroke-width="0.6"/><circle cx="1739.9" cy="98.6" r="2" fill="none" stroke="#0b5" stroke-width="0.6"/></g><g id="power"><circle cx="1896.2" cy="0.0" r="5" fill="none" stroke="#e33" stroke-width="1"/><circle cx="1675.8" cy="0.0" r="5" fill="none" stroke="#e33" stroke-width="1"/></g></svg>