<svg xmlns="http://www.w3.org/2000/svg" width="1000mm" height="2000mm" viewBox="0 0 1000 2000"><g id="outline"><rect x="0" y="0" width="1000" height="2000" fill="none" stroke="#000" stroke-width="1"/></g><g id="channels"><path d="M 1000.0 1534.9 L 999.4 1534.2 L 995.2 1529.1 L 991.1 1523.9 L 987.1 1518.7 L 983.1 1513.3 L 979.2 1507.9 L 975.4 1502.5 L 971.5 1497.0 L 967.7 1491.6 L 963.8 1486.2 L 959.9 1480.8 L 956.0 1475.4 L 952.0 1470.1 L 952.0 1470.1 L 948.0 1464.8 L 944.1 1459.5 L 940.2 1454.2 L 936.3 1448.9 L 932.4 1443.5 L 928.6 1438.1 L 924.7 1432.7 L 920.9 1427.4 L 917.0 1422.0 L 913.1 1416.6 L 909.2 1411.3 L 905.3 1406.0 L 901.3 1400.7 L 897.3 1395.5 L 893.3 1390.3 L 889.1 1385.1 L 889.1 1385.1 L 885.0 1379.9 L 880.9 1374.7 L 876.8 1369.5 L 872.7 1364.3 L 868.5 1359.0 L 864.4 1353.8 L 860.2 1348.6 L 855.9 1343.5 L 851.7 1338.4 L 847.3 1333.4 L 842.9 1328.5 L 838.4 1323.7 L 833.8 1319.0 L 829.1 1314.5 L 824.2 1310.1 L 819.3 1305.9 L 819.3 1305.9 L 814.2 1301.8 L 809.0 1297.8 L 803.8 1293.8 L 798.4 1289.9 L 792.9 1286.0 L 787.4 1282.3 L 781.8 1278.7 L 776.1 1275.2 L 770.3 1271.9 L 764.5 1268.7 L 758.6 1265.7 L 752.7 1262.9 L 746.7 1260.2 L 740.7 1257.8 L 734.6 1255.6 L 728.5 1253.7 L 728.5 1253.7 L 722.2 1252.1 L 715.4 1250.7 L 708.2 1249.7 L 700.8 1248.8 L 693.2 1248.3 L 685.6 1247.9 L 677.9 1247.6 L 670.4 1247.5 L 663.0 1247.5 L 655.8 1247.6 L 649.1 1247.7 L 642.7 1247.8 L 636.9 1247.9 L 631.7 1248.0 L 627.3 1248.0 L 623.5 1247.8" fill="none" stroke="#2b6bff" stroke-width="6.0" stroke-opacity="0.9"/><path d="M 571.1 1265.4 L 569.9 1266.8 L 568.6 1268.6 L 567.0 1270.7 L 565.3 1273.0 L 563.5 1275.6 L 561.5 1278.3 L 559.3 1281.2 L 557.1 1284.1 L 554.8 1287.1 L 552.4 1290.0 L 549.9 1292.9 L 547.4 1295.7 L 544.8 1298.4 L 542.2 1300.8 L 539.7 1303.0 L 537.1 1305.0 L 537.1 1305.0 L 534.4 1306.8 L 531.7 1308.5 L 528.8 1310.2 L 525.9 1311.8 L 522.9 1313.4 L 519.8 1314.9 L 516.7 1316.3 L 513.5 1317.6 L 510.4 1318.8 L 507.2 1319.8 L 504.0 1320.7 L 500.8 1321.4 L 497.7 1322.0 L 494.6 1322.3 L 491.6 1322.5 L 488.6 1322.5 L 488.6 1322.5 L 485.6 1322.1 L 482.5 1321.4 L 479.3 1320.4 L 476.0 1319.1 L 472.7 1317.6 L 469.4 1315.9 L 466.1 1314.1 L 462.9 1312.2 L 459.8 1310.3 L 456.8 1308.4 L 454.0 1306.5 L 451.4 1304.8 L 448.9 1303.2 L 446.8 1301.8 L 444.9 1300.6 L 443.3 1299.7" fill="none" stroke="#2b6bff" stroke-width="6.0" stroke-opacity="0.9"/><path d="M 394.0 1287.4 L 390.5 1285.4 L 386.2 1283.1 L 381.1 1280.5 L 375.5 1277.6 L 369.2 1274.6 L 362.6 1271.2 L 355.7 1267.7 L 348.6 1263.9 L 341.3 1260.0 L 334.1 1255.8 L 327.1 1251.5 L 320.2 1247.0 L 313.7 1242.4 L 307.7 1237.6 L 302.2 1232.7 L 297.4 1227.7 L 297.4 1227.7 L 293.0 1222.5 L 288.8 1217.0 L 284.8 1211.3 L 281.0 1205.3 L 277.3 1199.2 L 273.9 1192.9 L 270.7 1186.4 L 267.6 1179.8 L 264.8 1173.1 L 262.2 1166.3 L 259.8 1159.4 L 257.7 1152.6 L 255.7 1145.7 L 254.0 1138.8 L 252.6 1132.0 L 251.4 1125.2 L 251.4 1125.2 L 250.4 1118.4 L 249.7 1111.4 L 249.2 1104.4 L 248.9 1097.2 L 248.9 1090.0 L 249.1 1082.7 L 249.5 1075.4 L 250.1 1068.1 L 251.0 1060.8 L 252.0 1053.5 L 253.3 1046.3 L 254.8 1039.2 L 256.4 1032.2 L 258.3 1025.4 L 260.4 1018.7 L 262.6 1012.1 L 262.6 1012.1 L 265.1 1005.7 L 267.8 999.2 L 270.7 992.7 L 273.9 986.2 L 277.2 979.8 L 280.8 973.5 L 284.6 967.2 L 288.5 961.1 L 292.7 955.1 L 297.0 949.3 L 301.5 943.7 L 306.2 938.3 L 311.0 933.1 L 316.0 928.2 L 321.1 923.6 L 326.3 919.3 L 326.3 919.3 L 331.8 915.3 L 337.5 911.6 L 343.5 908.0 L 349.7 904.7 L 356.2 901.6 L 362.7 898.7 L 369.5 896.1 L 376.3 893.6 L 383.3 891.3 L 390.3 889.2 L 397.4 887.3 L 404.5 885.6 L 411.6 884.0 L 418.7 882.6 L 425.7 881.4 L 432.6 880.3 L 432.6 880.3 L 439.5 879.4 L 446.5 878.8 L 453.6 878.3 L 460.7 878.0 L 467.8 878.0 L 475.0 878.1 L 482.2 878.3 L 489.4 878.8 L 496.7 879.4 L 503.9 880.2 L 511.1 881.1 L 518.2 882.1 L 525.3 883.3 L 532.4 884.5 L 539.3 885.9 L 546.2 887.4 L 546.2 887.4 L 553.1 889.1 L 560.0 890.8 L 566.9 892.7 L 573.8 894.7 L 580.6 896.9 L 587.5 899.2 L 594.3 901.6 L 601.1 904.2 L 607.8 906.9 L 614.4 909.7 L 620.9 912.7 L 627.4 915.8 L 633.7 919.1 L 639.9 922.5 L 646.0 926.1 L 652.0 929.8 L 652.0 929.8 L 657.8 933.9 L 663.3 938.4 L 668.7 943.4 L 673.8 948.7 L 678.9 954.2 L 683.8 959.9 L 688.7 965.7 L 693.6 971.5 L 698.4 977.2 L 703.3 982.8 L 708.2 988.2 L 713.2 993.2 L 718.3 997.8 L 723.6 1001.9 L 729.0 1005.5 L 734.7 1008.4 L 734.7 1008.4 L 740.6 1011.0 L 746.9 1013.3 L 753.4 1015.4 L 760.2 1017.2 L 767.0 1018.8 L 774.0 1020.2 L 781.0 1021.2 L 788.0 1021.9 L 795.0 1022.2 L 801.8 1022.2 L 808.4 1021.7 L 814.8 1020.8 L 820.9 1019.5 L 826.6 1017.7 L 832.0 1015.4 L 836.9 1012.6 L 836.9 1012.6 L 841.3 1009.2 L 845.4 1005.0 L 849.3 1000.1 L 852.8 994.7 L 856.1 988.7 L 859.1 982.4 L 861.9 975.6 L 864.6 968.5 L 867.1 961.3 L 869.6 953.8 L 871.9 946.3 L 874.2 938.8 L 876.4 931.4 L 878.7 924.0 L 880.9 916.9 L 883.3 910.1 L 883.3 910.1 L 885.5 903.4 L 887.5 896.6 L 889.3 889.6 L 890.9 882.6 L 892.4 875.6 L 893.8 868.5 L 895.2 861.3 L 896.6 854.2 L 898.0 847.1 L 899.5 840.1 L 901.2 833.1 L 903.0 826.2 L 905.0 819.3 L 907.2 812.7 L 909.8 806.1 L 912.6 799.7 L 912.6 799.7 L 915.8 793.5 L 919.1 787.3 L 922.7 781.2 L 926.5 775.2 L 930.4 769.3 L 934.5 763.5 L 938.7 757.7 L 943.0 752.0 L 947.5 746.4 L 952.0 740.8 L 956.7 735.3 L 961.4 729.9 L 966.2 724.6 L 971.0 719.3 L 975.8 714.0 L 980.7 708.9 L 980.7 708.9 L 985.6 703.8 L 990.7 698.8 L 995.9 693.9 L 1000.0 690.1" fill="none" stroke="#2b6bff" stroke-width="6.0" stroke-opacity="0.9"/></g><g id="clips"><circle cx="1000.0" cy="1534.9" r="2" fill="none" stroke="#0b5" stroke-width="0.6"/><circle cx="623.5" cy="1247.8" r="2" fill="none" stroke="#0b5" stroke-width="0.6"/><circle cx="571.1" cy="1265.4" r="2" fill="none" stroke="#0b5" stroke-width="0.6"/><circle cx="443.3" cy="1299.7" r="2" fill="none" stroke="#0b5" stroke-width="0.6"/><circle cx="394.0" cy="1287.4" r="2" fill="none" stroke="#0b5" stroke-width="0.6"/><circle cx="1000.0" cy="690.1" r="2" fill="none" stroke="#0b5" stroke-width="0.6"/></g><g id="power"><circle cx="1000.0" cy="1534.9" r="5" fill="none" stroke="#e33" stroke-width="1"/><circle cx="1000.0" cy="690.1" r="5" fill="none" stroke="#e33" stroke-width="1"/></g><g id="bridges"></g></svg>