<svg xmlns="http://www.w3.org/2000/svg" width="2000mm" height="1000mm" viewBox="0 0 2000 1000"><g id="outline"><rect x="0" y="0" width="2000" height="1000" fill="none" stroke="#000" stroke-width="1"/></g><g id="channels"><path d="M 1267.0 0.0 L 1267.3 1.2 L 1268.9 7.4 L 1270.5 13.7 L 1272.2 19.9 L 1273.9 26.1 L 1273.9 26.1 L 1275.7 32.3 L 1277.5 38.5 L 1279.3 44.7 L 1281.1 50.8 L 1283.0 57.0 L 1284.8 63.2 L 1286.8 69.4 L 1288.7 75.5 L 1290.7 81.6 L 1292.7 87.8 L 1294.8 93.9 L 1296.9 100.0 L 1299.1 106.0 L 1301.3 112.1 L 1303.6 118.1 L 1306.0 124.1 L 1306.0 124.1 L 1308.5 130.0 L 1311.1 135.9 L 1313.8 141.7 L 1316.7 147.5 L 1319.7 153.3 L 1322.7 159.1 L 1325.7 164.8 L 1328.7 170.6 L 1331.8 176.3 L 1334.7 182.1 L 1337.7 187.8 L 1340.5 193.6 L 1343.2 199.4 L 1345.8 205.3 L 1348.2 211.2 L 1350.5 217.2 L 1350.5 217.2 L 1352.7 223.3 L 1355.0 229.8 L 1357.4 236.4 L 1359.7 243.3 L 1362.1 250.2 L 1364.4 257.1 L 1366.6 264.1 L 1368.6 271.0 L 1370.4 277.7 L 1372.0 284.2 L 1373.4 290.5 L 1374.4 296.5 L 1375.1 302.1 L 1375.4 307.2 L 1375.3 311.9 L 1374.7 316.0 L 1374.7 316.0 L 1373.5 319.5 L 1371.7 322.5 L 1369.4 325.1 L 1366.7 327.2 L 1363.6 329.0 L 1360.1 330.5 L 1356.4 331.7 L 1352.5 332.6 L 1348.5 333.5 L 1344.5 334.2 L 1340.5 334.8 L 1336.5 335.5 L 1332.8 336.2 L 1329.3 337.0 L 1326.1 337.9 L 1323.2 339.0 L 1323.2 339.0 L 1320.7 340.3 L 1318.3 341.7 L 1316.1 343.2 L 1314.0 344.8 L 1312.0 346.3 L 1310.1 347.9 L 1308.2 349.3 L 1306.4 350.8 L 1304.6 352.1 L 1302.8 353.3 L 1300.9 354.3 L 1299.0 355.1 L 1297.1 355.7 L 1295.0 356.0 L 1292.8 356.0 L 1290.5 355.7 L 1290.5 355.7 L 1288.1 355.2 L 1285.5 354.5 L 1282.8 353.7 L 1280.0 352.7 L 1277.2 351.5 L 1274.3 350.1 L 1271.4 348.5 L 1268.4 346.8 L 1265.5 344.8 L 1262.6 342.6 L 1259.8 340.2 L 1257.0 337.6 L 1254.3 334.7 L 1251.6 331.6 L 1249.1 328.2 L 1246.8 324.6 L 1246.8 324.6 L 1244.5 320.7 L 1242.1 316.4 L 1239.8 311.8 L 1237.4 306.9 L 1235.1 301.7 L 1232.8 296.2 L 1230.6 290.6 L 1228.4 284.8 L 1226.4 278.9 L 1224.6 272.8 L 1222.9 266.7 L 1221.3 260.6 L 1220.0 254.4 L 1218.9 248.3 L 1218.0 242.2 L 1217.4 236.2 L 1217.4 236.2 L 1217.2 230.2 L 1217.4 224.1 L 1218.1 218.0 L 1219.0 211.7 L 1220.2 205.4 L 1221.6 199.0 L 1223.1 192.6 L 1224.7 186.2 L 1226.3 179.7 L 1227.9 173.2 L 1229.3 166.8 L 1230.5 160.3 L 1231.4 153.9 L 1232.1 147.5 L 1232.4 141.1 L 1232.2 134.8 L 1232.2 134.8 L 1231.6 128.6 L 1230.8 122.3 L 1229.7 116.1 L 1228.4 109.8 L 1226.9 103.6 L 1225.2 97.4 L 1223.4 91.2 L 1221.4 85.0 L 1219.4 78.8 L 1217.2 72.6 L 1215.0 66.5 L 1212.7 60.3 L 1210.5 54.2 L 1208.2 48.1 L 1206.0 42.0 L 1203.8 35.9 L 1203.8 35.9 L 1201.6 29.9 L 1199.4 23.8 L 1197.1 17.8 L 1194.8 11.8 L 1192.4 5.8 L 1190.1 0.0" fill="none" stroke="#ff3ea5" stroke-width="6.0" stroke-opacity="0.9"/><path d="M 981.2 0.0 L 981.2 0.2 L 982.2 6.4 L 982.9 12.8 L 983.3 19.4 L 983.4 26.1 L 983.2 32.8 L 982.7 39.6 L 981.8 46.3 L 980.7 52.9 L 979.3 59.4 L 977.6 65.7 L 975.7 71.8 L 973.4 77.5 L 970.9 83.0 L 968.1 88.0 L 968.1 88.0 L 964.9 92.7 L 961.3 97.4 L 957.2 101.9 L 952.8 106.2 L 948.0 110.4 L 942.9 114.4 L 937.5 118.2 L 932.0 121.9 L 926.2 125.3 L 920.3 128.5 L 914.3 131.5 L 908.3 134.3 L 902.2 136.8 L 896.2 139.0 L 890.2 140.9 L 884.3 142.6 L 884.3 142.6 L 878.4 144.0 L 872.3 145.1 L 866.1 145.8 L 859.7 146.4 L 853.3 146.7 L 846.7 146.7 L 840.1 146.5 L 833.5 146.1 L 826.8 145.5 L 820.2 144.7 L 813.6 143.7 L 807.1 142.5 L 800.6 141.2 L 794.3 139.8 L 788.0 138.2 L 782.0 136.5 L 782.0 136.5 L 776.0 134.7 L 770.0 132.7 L 764.1 130.4 L 758.2 128.0 L 752.3 125.4 L 746.4 122.6 L 740.7 119.6 L 735.0 116.5 L 729.3 113.3 L 723.8 109.9 L 718.4 106.3 L 713.0 102.7 L 707.8 98.9 L 702.7 95.0 L 697.8 91.0 L 693.0 87.0 L 693.0 87.0 L 688.3 82.5 L 683.8 77.4 L 679.3 71.7 L 675.0 65.7 L 670.7 59.4 L 666.6 52.9 L 662.6 46.4 L 658.6 39.9 L 654.8 33.6 L 651.1 27.6 L 647.4 22.1 L 643.9 17.1 L 640.5 12.7 L 637.1 9.2 L 633.9 6.5 L 630.7 4.8 L 630.7 4.8 L 627.6 4.1 L 624.4 4.2 L 621.1 4.9 L 617.8 6.3 L 614.6 8.3 L 611.5 10.8 L 608.5 13.7 L 605.7 17.1 L 603.0 20.8 L 600.6 24.8 L 598.5 29.0 L 596.8 33.4 L 595.3 37.9 L 594.3 42.4 L 593.7 47.0 L 593.6 51.4 L 593.6 51.4 L 594.1 56.0 L 595.1 60.9 L 596.7 66.1 L 598.7 71.6 L 601.1 77.3 L 603.8 83.2 L 606.8 89.3 L 610.0 95.4 L 613.3 101.7 L 616.8 108.1 L 620.2 114.5 L 623.6 120.8 L 626.9 127.2 L 630.1 133.5 L 633.0 139.6 L 635.7 145.6 L 635.7 145.6 L 638.2 151.6 L 640.6 157.6 L 642.9 163.6 L 645.2 169.6 L 647.5 175.7 L 649.8 181.7 L 652.0 187.8 L 654.3 193.8 L 656.6 199.9 L 658.8 205.9 L 661.2 211.9 L 663.5 217.9 L 665.9 223.9 L 668.4 229.9 L 671.0 235.8 L 673.6 241.7 L 673.6 241.7 L 676.2 247.5 L 678.9 253.4 L 681.5 259.3 L 684.2 265.2 L 686.9 271.2 L 689.6 277.1 L 692.4 282.9 L 695.2 288.8 L 698.1 294.5 L 701.1 300.3 L 704.1 305.9 L 707.3 311.5 L 710.6 317.0 L 714.0 322.4 L 717.6 327.7 L 721.3 332.8 L 721.3 332.8 L 725.2 337.9 L 729.2 342.8 L 733.4 347.6 L 737.7 352.4 L 742.1 357.0 L 746.6 361.6 L 751.2 366.1 L 755.9 370.6 L 760.7 375.0 L 765.5 379.3 L 770.4 383.6 L 775.3 387.8 L 780.2 392.1 L 785.1 396.3 L 790.1 400.4 L 795.0 404.6 L 795.0 404.6 L 799.9 408.7 L 804.9 412.8 L 810.0 416.7 L 815.1 420.6 L 820.3 424.4 L 825.5 428.2 L 830.8 432.0 L 836.1 435.7 L 841.4 439.4 L 846.7 443.1 L 851.9 446.9 L 857.2 450.6 L 862.4 454.4 L 867.6 458.2 L 872.8 462.1 L 877.9 466.1 L 877.9 466.1 L 882.9 470.1 L 888.0 474.1 L 892.9 478.2 L 897.9 482.4 L 902.8 486.5 L 907.8 490.7 L 912.7 494.9 L 917.6 499.1 L 922.5 503.3 L 927.4 507.5 L 932.3 511.6 L 937.3 515.8 L 942.2 519.9 L 947.2 524.0 L 952.2 528.0 L 957.3 532.0 L 957.3 532.0 L 962.3 536.1 L 967.3 540.3 L 972.3 544.5 L 977.3 548.9 L 982.2 553.3 L 987.2 557.7 L 992.2 562.0 L 997.3 566.2 L 1002.3 570.4 L 1007.5 574.4 L 1012.7 578.1 L 1018.0 581.7 L 1023.3 585.0 L 1028.8 588.0 L 1034.4 590.7 L 1040.0 593.0 L 1040.0 593.0 L 1046.0 594.7 L 1052.1 595.9 L 1058.5 596.6 L 1065.1 596.9 L 1071.8 596.8 L 1078.6 596.5 L 1085.4 596.1 L 1092.2 595.6 L 1099.0 595.1 L 1105.7 594.6 L 1112.3 594.4 L 1118.7 594.4 L 1124.8 594.8 L 1130.7 595.7 L 1136.3 597.0 L 1141.6 599.0 L 1141.6 599.0 L 1146.6 601.5 L 1151.3 604.5 L 1155.9 607.9 L 1160.3 611.7 L 1164.5 615.8 L 1168.6 620.1 L 1172.5 624.7 L 1176.3 629.4 L 1179.9 634.2 L 1183.4 639.0 L 1186.8 643.9 L 1190.0 648.7 L 1193.2 653.3 L 1196.3 657.9 L 1199.3 662.2 L 1202.2 666.2 L 1202.2 666.2 L 1205.0 670.2 L 1207.7 674.0 L 1210.4 677.9 L 1213.0 681.7 L 1215.4 685.5 L 1217.8 689.3 L 1220.0 693.0 L 1222.1 696.7 L 1224.1 700.3 L 1225.9 703.9 L 1227.6 707.4 L 1229.1 710.9 L 1230.5 714.3 L 1231.6 717.7 L 1232.7 720.9 L 1233.5 724.1 L 1233.5 724.1 L 1234.2 727.3 L 1234.6 730.2 L 1235.0 733.1 L 1235.1 735.8 L 1235.1 738.5 L 1235.0 741.1 L 1234.7 743.6 L 1234.3 746.2 L 1233.7 748.7 L 1233.0 751.3 L 1232.1 753.8 L 1231.1 756.5 L 1230.0 759.2 L 1228.7 761.9 L 1227.4 764.8 L 1225.9 767.8 L 1225.9 767.8 L 1224.3 771.2 L 1222.5 774.9 L 1220.7 779.0 L 1218.7 783.4 L 1216.6 787.9 L 1214.4 792.5 L 1212.0 797.1 L 1209.5 801.6 L 1206.9 805.9 L 1204.1 809.9 L 1201.1 813.5 L 1198.0 816.7 L 1194.7 819.2 L 1191.3 821.2 L 1187.7 822.4 L 1183.9 822.7 L 1183.9 822.7 L 1179.9 822.3 L 1175.6 821.0 L 1171.0 819.1 L 1166.2 816.5 L 1161.2 813.5 L 1156.0 809.9 L 1150.8 806.0 L 1145.4 801.7 L 1139.9 797.2 L 1134.4 792.6 L 1128.9 787.8 L 1123.4 783.1 L 1117.9 778.4 L 1112.6 773.8 L 1107.3 769.5 L 1102.3 765.4 L 1102.3 765.4 L 1097.3 761.5 L 1092.4 757.4 L 1087.5 753.3 L 1082.6 749.2 L 1077.7 744.9 L 1072.9 740.7 L 1068.0 736.4 L 1063.2 732.1 L 1058.4 727.7 L 1053.5 723.4 L 1048.7 719.1 L 1043.8 714.8 L 1039.0 710.5 L 1034.1 706.2 L 1029.1 702.1 L 1024.2 697.9 L 1024.2 697.9 L 1019.2 693.8 L 1014.2 689.7 L 1009.2 685.6 L 1004.2 681.5 L 999.2 677.4 L 994.2 673.4 L 989.2 669.3 L 984.2 665.3 L 979.1 661.3 L 974.0 657.3 L 968.9 653.4 L 963.8 649.5 L 958.6 645.6 L 953.4 641.8 L 948.2 638.0 L 942.9 634.3 L 942.9 634.3 L 937.6 630.7 L 932.2 627.1 L 926.8 623.6 L 921.4 620.1 L 916.0 616.7 L 910.5 613.3 L 905.0 609.9 L 899.4 606.6 L 893.9 603.3 L 888.3 600.0 L 882.8 596.8 L 877.2 593.5 L 871.6 590.3 L 866.0 587.1 L 860.4 583.8 L 854.8 580.6 L 854.8 580.6 L 849.3 577.4 L 843.6 574.2 L 838.0 571.1 L 832.3 568.0 L 826.6 565.0 L 820.9 561.9 L 815.2 558.9 L 809.5 555.9 L 803.8 552.9 L 798.1 549.8 L 792.4 546.7 L 786.8 543.6 L 781.2 540.4 L 775.6 537.2 L 770.1 533.9 L 764.6 530.5 L 764.6 530.5 L 759.1 527.1 L 753.7 523.7 L 748.2 520.2 L 742.8 516.7 L 737.4 513.2 L 732.0 509.6 L 726.6 506.0 L 721.3 502.4 L 716.0 498.7 L 710.7 495.0 L 705.5 491.2 L 700.3 487.3 L 695.2 483.4 L 690.1 479.5 L 685.1 475.4 L 680.2 471.3 L 680.2 471.3 L 675.3 467.2 L 670.4 463.0 L 665.5 458.7 L 660.7 454.4 L 655.9 450.0 L 651.2 445.6 L 646.5 441.1 L 641.9 436.6 L 637.3 432.0 L 632.8 427.4 L 628.4 422.7 L 624.0 417.9 L 619.8 413.1 L 615.6 408.2 L 611.5 403.2 L 607.6 398.2 L 607.6 398.2 L 603.7 393.1 L 600.0 387.9 L 596.3 382.6 L 592.8 377.3 L 589.4 371.8 L 586.0 366.3 L 582.8 360.8 L 579.5 355.2 L 576.4 349.6 L 573.2 343.9 L 570.1 338.2 L 567.1 332.5 L 564.0 326.9 L 560.9 321.2 L 557.8 315.5 L 554.7 309.8 L 554.7 309.8 L 551.7 304.2 L 548.6 298.5 L 545.6 292.8 L 542.7 287.1 L 539.8 281.3 L 536.9 275.5 L 534.1 269.8 L 531.2 264.0 L 528.4 258.2 L 525.5 252.4 L 522.6 246.6 L 519.7 240.8 L 516.8 235.1 L 513.9 229.4 L 510.8 223.6 L 507.8 218.0 L 507.8 218.0 L 504.7 212.3 L 501.5 206.7 L 498.4 201.1 L 495.2 195.4 L 492.0 189.8 L 488.8 184.3 L 485.5 178.7 L 482.3 173.1 L 479.0 167.5 L 475.7 162.0 L 472.4 156.4 L 469.1 150.9 L 465.8 145.4 L 462.5 139.8 L 459.2 134.3 L 455.8 128.8 L 455.8 128.8 L 452.5 123.2 L 449.2 117.7 L 445.9 112.1 L 442.7 106.6 L 439.4 101.0 L 436.1 95.5 L 432.8 89.9 L 429.4 84.4 L 426.1 78.9 L 422.7 73.4 L 419.3 67.9 L 415.8 62.5 L 412.3 57.1 L 408.7 51.7 L 405.1 46.4 L 401.4 41.1 L 401.4 41.1 L 397.7 35.9 L 393.9 30.7 L 390.0 25.5 L 386.1 20.4 L 382.2 15.3 L 378.2 10.2 L 374.2 5.2 L 370.1 0.1 L 370.0 0.0" fill="none" stroke="#ff3ea5" stroke-width="6.0" stroke-opacity="0.9"/></g><g id="clips"><circle cx="1267.0" cy="0.0" r="2" fill="none" stroke="#0b5" stroke-width="0.6"/><circle cx="981.2" cy="0.0" r="2" fill="none" stroke="#0b5" stroke-width="0.6"/><circle cx="370.0" cy="0.0" r="2" fill="none" stroke="#0b5" stroke-width="0.6"/></g><g id="power"><circle cx="370.0" cy="0.0" r="5" fill="none" stroke="#e33" stroke-width="1"/><circle cx="981.2" cy="0.0" r="5" fill="none" stroke="#e33" stroke-width="1"/><circle cx="1190.1" cy="0.0" r="5" fill="none" stroke="#e33" stroke-width="1"/><circle cx="1267.0" cy="0.0" r="5" fill="none" stroke="#e33" stroke-width="1"/></g><g id="bridges"></g></svg>