<svg xmlns="http://www.w3.org/2000/svg" width="2000mm" height="1000mm" viewBox="0 0 2000 1000"><g id="outline"><rect x="0" y="0" width="2000" height="1000" fill="none" stroke="#000" stroke-width="1"/></g><g id="channels"><path d="M 1896.2 1000.0 L 1896.8 999.4 L 1901.4 995.1 L 1906.1 990.7 L 1910.7 986.4 L 1915.4 982.1 L 1920.2 977.9 L 1925.0 973.7 L 1929.8 969.6 L 1929.8 969.6 L 1934.7 965.5 L 1939.5 961.5 L 1944.5 957.5 L 1949.4 953.5 L 1954.4 949.5 L 1959.4 945.5 L 1964.4 941.6 L 1969.5 937.8 L 1974.6 933.9 L 1979.7 930.1 L 1984.8 926.4 L 1990.0 922.7 L 1995.2 919.0 L 2000.0 915.7" fill="none" stroke="#a05bff" stroke-width="6.0" stroke-opacity="0.9"/><path d="M 2000.0 276.3 L 1998.4 277.9 L 1994.0 282.3 L 1989.6 286.7 L 1985.2 291.1 L 1980.7 295.4 L 1976.2 299.8 L 1971.7 304.0 L 1967.1 308.2 L 1962.5 312.3 L 1957.8 316.3 L 1953.1 320.2 L 1948.2 324.0 L 1948.2 324.0 L 1943.3 327.8 L 1938.3 331.5 L 1933.3 335.1 L 1928.2 338.7 L 1923.1 342.3 L 1918.0 345.8 L 1912.8 349.3 L 1907.6 352.6 L 1902.3 355.9 L 1896.9 359.1 L 1891.6 362.2 L 1886.1 365.2 L 1880.7 368.1 L 1875.2 370.8 L 1869.6 373.5 L 1864.0 376.0 L 1864.0 376.0 L 1858.3 378.3 L 1852.6 380.5 L 1846.8 382.6 L 1841.0 384.5 L 1835.0 386.4 L 1829.1 388.1 L 1823.1 389.7 L 1817.1 391.3 L 1811.0 392.7 L 1804.9 394.1 L 1798.8 395.5 L 1792.7 396.8 L 1786.6 398.1 L 1780.5 399.4 L 1774.4 400.7 L 1768.4 402.0 L 1768.4 402.0 L 1762.3 403.2 L 1756.2 404.3 L 1750.0 405.3 L 1743.9 406.2 L 1737.7 407.0 L 1731.5 407.8 L 1725.3 408.5 L 1719.1 409.2 L 1712.9 410.0 L 1706.7 410.8 L 1700.6 411.6 L 1694.4 412.5 L 1688.3 413.5 L 1682.2 414.7 L 1676.2 415.9 L 1670.2 417.3 L 1670.2 417.3 L 1664.2 418.8 L 1657.9 420.2 L 1651.6 421.5 L 1645.2 422.8 L 1638.7 424.2 L 1632.2 425.6 L 1625.8 427.1 L 1619.5 428.7 L 1613.3 430.5 L 1607.3 432.4 L 1601.6 434.6 L 1596.1 437.0 L 1590.9 439.7 L 1586.1 442.8 L 1581.7 446.1 L 1577.7 449.9 L 1577.7 449.9 L 1574.2 454.3 L 1571.1 459.4 L 1568.3 465.1 L 1565.9 471.3 L 1563.8 477.9 L 1561.9 484.8 L 1560.3 491.9 L 1558.8 499.0 L 1557.6 506.1 L 1556.5 513.0 L 1555.5 519.5 L 1554.6 525.7 L 1553.8 531.4 L 1553.1 536.4 L 1552.3 540.7 L 1551.5 544.1" fill="none" stroke="#a05bff" stroke-width="6.0" stroke-opacity="0.9"/><path d="M 1563.6 568.7 L 1566.7 569.1 L 1570.5 569.6 L 1574.8 570.3 L 1579.6 571.1 L 1584.9 571.9 L 1590.5 572.9 L 1596.4 573.8 L 1602.6 574.7 L 1609.0 575.5 L 1615.5 576.3 L 1622.1 576.9 L 1628.7 577.3 L 1635.3 577.5 L 1641.8 577.5 L 1648.2 577.2 L 1654.4 576.6 L 1654.4 576.6 L 1660.4 575.7 L 1666.6 574.5 L 1672.8 573.0 L 1679.1 571.2 L 1685.5 569.3 L 1691.9 567.2 L 1698.3 565.0 L 1704.8 562.7 L 1711.3 560.2 L 1717.8 557.8 L 1724.3 555.3 L 1730.9 552.9 L 1737.4 550.6 L 1743.9 548.3 L 1750.4 546.1 L 1756.8 544.1 L 1756.8 544.1 L 1763.3 542.3 L 1769.8 540.7 L 1776.4 539.2 L 1783.1 537.8 L 1789.8 536.4 L 1796.5 535.1 L 1803.2 533.8 L 1809.9 532.4 L 1816.5 531.0 L 1823.0 529.4 L 1829.5 527.7 L 1835.9 525.8 L 1842.1 523.7 L 1848.2 521.3 L 1854.2 518.7 L 1859.9 515.7 L 1859.9 515.7 L 1865.5 512.3 L 1870.9 508.6 L 1876.0 504.5 L 1881.1 500.2 L 1885.9 495.6 L 1890.7 490.9 L 1895.4 486.0 L 1900.1 481.0 L 1904.7 476.0 L 1909.4 470.9 L 1914.0 465.9 L 1918.7 460.9 L 1923.5 456.0 L 1928.4 451.3 L 1933.4 446.8 L 1938.6 442.6 L 1938.6 442.6 L 1943.9 438.5 L 1949.2 434.4 L 1954.6 430.4 L 1960.0 426.5 L 1965.5 422.6 L 1971.0 418.8 L 1976.5 415.0 L 1982.1 411.3 L 1987.8 407.6 L 1993.5 404.0 L 1999.2 400.5 L 2000.0 400.0" fill="none" stroke="#a05bff" stroke-width="6.0" stroke-opacity="0.9"/><path d="M 2000.0 771.3 L 1996.8 772.6 L 1996.8 772.6 L 1990.6 775.2 L 1984.4 777.7 L 1978.1 780.1 L 1971.8 782.5 L 1965.5 784.9 L 1959.2 787.3 L 1952.9 789.7 L 1946.7 792.2 L 1940.4 794.7 L 1934.2 797.2 L 1928.1 799.9 L 1922.0 802.7 L 1916.1 805.6 L 1910.2 808.7 L 1904.4 811.9 L 1898.7 815.3 L 1898.7 815.3 L 1893.2 819.0 L 1887.7 822.8 L 1882.5 826.9 L 1877.3 831.1 L 1872.2 835.5 L 1867.2 840.0 L 1862.2 844.5 L 1857.2 849.2 L 1852.3 853.9 L 1847.4 858.5 L 1842.5 863.2 L 1837.5 867.9 L 1832.5 872.4 L 1827.5 876.9 L 1822.3 881.3 L 1817.1 885.5 L 1817.1 885.5 L 1811.7 889.6 L 1806.3 893.5 L 1800.7 897.4 L 1795.1 901.2 L 1789.4 904.9 L 1783.7 908.6 L 1778.0 912.3 L 1772.3 915.9 L 1766.6 919.6 L 1761.0 923.4 L 1755.4 927.2 L 1749.9 931.1 L 1744.6 935.1 L 1739.4 939.2 L 1734.3 943.5 L 1729.4 947.9 L 1729.4 947.9 L 1724.3 952.5 L 1719.0 957.3 L 1713.5 962.2 L 1707.8 967.3 L 1702.2 972.5 L 1696.5 977.8 L 1691.0 983.2 L 1685.7 988.5 L 1680.8 993.9 L 1676.3 999.3 L 1675.8 1000.0" fill="none" stroke="#a05bff" stroke-width="6.0" stroke-opacity="0.9"/></g><g id="clips"><circle cx="1896.2" cy="1000.0" r="2" fill="none" stroke="#0b5" stroke-width="0.6"/><circle cx="2000.0" cy="915.7" r="2" fill="none" stroke="#0b5" stroke-width="0.6"/><circle cx="2000.0" cy="276.3" r="2" fill="none" stroke="#0b5" stroke-width="0.6"/><circle cx="1551.5" cy="544.1" r="2" fill="none" stroke="#0b5" stroke-width="0.6"/><circle cx="1563.6" cy="568.7" r="2" fill="none" stroke="#0b5" stroke-width="0.6"/><circle cx="2000.0" cy="400.0" r="2" fill="none" stroke="#0b5" stroke-width="0.6"/><circle cx="2000.0" cy="771.3" r="2" fill="none" stroke="#0b5" stroke-width="0.6"/><circle cx="1675.8" cy="1000.0" r="2" fill="none" stroke="#0b5" stroke-width="0.6"/></g><g id="power"><circle cx="1896.2" cy="1000.0" r="5" fill="none" stroke="#e33" stroke-width="1"/><circle cx="2000.0" cy="915.7" r="5" fill="none" stroke="#e33" stroke-width="1"/><circle cx="2000.0" cy="276.3" r="5" fill="none" stroke="#e33" stroke-width="1"/><circle cx="2000.0" cy="400.0" r="5" fill="none" stroke="#e33" stroke-width="1"/><circle cx="2000.0" cy="771.3" r="5" fill="none" stroke="#e33" stroke-width="1"/><circle cx="1675.8" cy="1000.0" r="5" fill="none" stroke="#e33" stroke-width="1"/></g></svg>