<svg xmlns="http://www.w3.org/2000/svg" width="2000mm" height="1000mm" viewBox="0 0 2000 1000"><g id="outline"><rect x="0" y="0" width="2000" height="1000" fill="none" stroke="#000" stroke-width="1"/></g><g id="channels"><path d="M 87.3 79.5 L 89.2 82.6 L 91.5 86.3 L 94.1 90.6 L 97.1 95.3 L 100.3 100.5 L 103.8 106.0 L 107.4 111.8 L 111.1 117.9 L 115.0 124.1 L 118.9 130.5 L 122.8 136.9 L 126.6 143.3 L 130.4 149.7 L 134.1 155.9 L 137.6 161.9 L 140.8 167.7 L 140.8 167.7 L 144.0 173.3 L 147.0 179.0 L 150.1 184.7 L 153.1 190.4 L 156.0 196.1 L 159.0 201.9 L 161.9 207.6 L 164.8 213.4 L 167.7 219.1 L 170.6 224.9 L 173.5 230.7 L 176.4 236.5 L 179.3 242.2 L 182.2 248.0 L 185.1 253.7 L 188.1 259.4 L 188.1 259.4 L 191.1 265.2 L 194.0 270.9 L 197.0 276.6 L 200.0 282.4 L 202.9 288.1 L 205.9 293.8 L 208.9 299.6 L 211.8 305.3 L 214.8 311.0 L 217.8 316.7 L 220.8 322.4 L 223.8 328.1 L 226.9 333.8 L 229.9 339.5 L 233.0 345.2 L 236.1 350.9 L 236.1 350.9 L 239.1 356.5 L 242.2 362.2 L 245.2 367.9 L 248.3 373.6 L 251.3 379.3 L 254.4 385.0 L 257.4 390.7 L 260.5 396.4 L 263.7 402.0 L 266.8 407.6 L 270.1 413.2 L 273.3 418.8 L 276.7 424.2 L 280.1 429.7 L 283.6 435.1 L 287.2 440.4 L 287.2 440.4 L 290.9 445.7 L 294.7 450.9 L 298.5 456.0 L 302.4 461.1 L 306.4 466.2 L 310.5 471.2 L 314.6 476.2 L 318.7 481.1 L 322.9 486.1 L 327.1 491.0 L 331.3 495.9 L 335.6 500.7 L 339.8 505.6 L 344.1 510.5 L 348.3 515.3 L 352.5 520.2 L 352.5 520.2 L 356.7 525.1 L 361.0 529.9 L 365.3 534.7 L 369.7 539.5 L 374.0 544.3 L 378.4 549.0 L 382.8 553.7 L 387.2 558.5 L 391.6 563.2 L 396.0 567.9 L 400.3 572.7 L 404.7 577.4 L 409.0 582.2 L 413.3 587.0 L 417.6 591.9 L 421.8 596.7 L 421.8 596.7 L 426.1 601.6 L 430.3 606.5 L 434.6 611.3 L 438.8 616.2 L 443.1 621.0 L 447.4 625.9 L 451.6 630.8 L 455.8 635.7 L 460.0 640.6 L 464.1 645.6 L 468.1 650.6 L 472.1 655.7 L 476.0 660.8 L 479.9 666.0 L 483.6 671.2 L 487.2 676.5 L 487.2 676.5 L 490.7 681.9 L 494.1 687.3 L 497.4 692.8 L 500.6 698.4 L 503.7 704.0 L 506.8 709.7 L 509.8 715.4 L 512.7 721.1 L 515.6 726.9 L 518.5 732.7 L 521.4 738.5 L 524.2 744.3 L 527.1 750.1 L 530.0 755.8 L 532.9 761.6 L 535.9 767.3 L 535.9 767.3 L 538.8 773.1 L 541.7 778.9 L 544.5 784.7 L 547.2 790.5 L 550.0 796.4 L 552.7 802.3 L 555.4 808.1 L 558.1 814.0 L 560.9 819.8 L 563.7 825.7 L 566.6 831.4 L 569.6 837.1 L 572.6 842.8 L 575.8 848.4 L 579.0 853.9 L 582.5 859.3 L 582.5 859.3 L 586.0 864.6 L 589.7 869.9 L 593.4 875.1 L 597.3 880.3 L 601.2 885.4 L 605.2 890.4 L 609.3 895.4 L 613.4 900.4 L 617.6 905.3 L 621.8 910.2 L 626.1 915.1 L 630.4 919.9 L 634.7 924.8 L 639.0 929.6 L 643.3 934.4 L 647.6 939.2 L 647.6 939.2 L 651.9 943.9 L 656.3 948.7 L 660.7 953.3 L 665.2 958.0 L 669.7 962.6 L 674.2 967.2 L 678.7 971.8 L 683.3 976.4 L 687.9 980.9 L 692.5 985.5 L 697.1 990.0 L 701.7 994.5 L 706.3 999.0 L 707.3 1000.0" fill="none" stroke="#ff3ea5" stroke-width="6.0" stroke-opacity="0.9"/><path d="M 968.7 1000.0 L 969.2 997.1 L 970.4 990.6 L 971.7 984.0 L 973.2 977.6 L 974.7 971.3 L 974.7 971.3 L 976.4 965.1 L 978.1 958.9 L 979.8 952.6 L 981.4 946.4 L 983.1 940.2 L 984.9 934.0 L 986.6 927.8 L 988.3 921.5 L 990.1 915.3 L 991.9 909.1 L 993.7 903.0 L 995.6 896.8 L 997.4 890.6 L 999.3 884.5 L 1001.3 878.3 L 1003.3 872.2 L 1003.3 872.2 L 1005.3 866.1 L 1007.4 860.0 L 1009.6 853.9 L 1011.9 847.8 L 1014.2 841.8 L 1016.5 835.8 L 1018.9 829.8 L 1021.2 823.7 L 1023.6 817.7 L 1025.9 811.7 L 1028.2 805.7 L 1030.5 799.6 L 1032.7 793.6 L 1034.8 787.5 L 1036.8 781.4 L 1038.8 775.3 L 1038.8 775.3 L 1040.8 769.1 L 1042.9 762.9 L 1045.0 756.7 L 1047.2 750.5 L 1049.4 744.3 L 1051.6 738.0 L 1053.7 731.8 L 1055.7 725.5 L 1057.6 719.2 L 1059.3 713.0 L 1060.8 706.7 L 1062.1 700.5 L 1063.1 694.3 L 1063.9 688.1 L 1064.3 681.9 L 1064.4 675.7 L 1064.4 675.7 L 1064.1 669.6 L 1063.5 663.4 L 1062.6 657.2 L 1061.5 650.9 L 1060.2 644.7 L 1058.6 638.5 L 1056.8 632.3 L 1054.9 626.1 L 1052.7 620.0 L 1050.4 613.9 L 1048.0 607.9 L 1045.5 601.9 L 1042.8 595.9 L 1040.1 590.1 L 1037.3 584.3 L 1034.4 578.7 L 1034.4 578.7 L 1031.5 573.1 L 1028.2 567.6 L 1024.8 562.3 L 1021.3 557.0 L 1017.5 551.8 L 1013.6 546.6 L 1009.7 541.5 L 1005.6 536.4 L 1001.5 531.4 L 997.3 526.3 L 993.1 521.3 L 988.9 516.3 L 984.8 511.3 L 980.7 506.2 L 976.6 501.1 L 972.7 496.0 L 972.7 496.0 L 968.8 490.9 L 964.9 485.7 L 961.1 480.5 L 957.3 475.3 L 953.5 470.1 L 949.6 464.9 L 945.8 459.7 L 941.9 454.5 L 938.1 449.3 L 934.2 444.1 L 930.3 439.0 L 926.3 433.9 L 922.3 428.9 L 918.3 423.8 L 914.2 418.9 L 910.1 413.9 L 910.1 413.9 L 905.9 409.0 L 901.8 404.1 L 897.6 399.1 L 893.4 394.2 L 889.2 389.2 L 885.0 384.3 L 880.7 379.4 L 876.4 374.6 L 872.0 369.8 L 867.6 365.1 L 863.1 360.5 L 858.5 356.0 L 853.9 351.6 L 849.1 347.4 L 844.2 343.2 L 839.3 339.3 L 839.3 339.3 L 834.2 335.5 L 828.9 331.9 L 823.5 328.5 L 818.0 325.2 L 812.4 322.1 L 806.7 319.1 L 800.9 316.2 L 795.1 313.3 L 789.2 310.4 L 783.4 307.6 L 777.6 304.7 L 771.8 301.8 L 766.0 298.8 L 760.4 295.7 L 754.8 292.5 L 749.3 289.2 L 749.3 289.2 L 743.8 285.8 L 738.4 282.4 L 732.9 279.0 L 727.4 275.6 L 722.0 272.2 L 716.5 268.7 L 711.1 265.2 L 705.7 261.6 L 700.4 258.0 L 695.2 254.3 L 690.0 250.5 L 685.0 246.6 L 680.0 242.6 L 675.1 238.5 L 670.4 234.3 L 665.8 229.9 L 665.8 229.9 L 661.4 225.3 L 657.2 220.6 L 653.2 215.6 L 649.3 210.5 L 645.6 205.3 L 641.9 200.0 L 638.3 194.6 L 634.7 189.1 L 631.2 183.6 L 627.7 178.1 L 624.1 172.7 L 620.5 167.3 L 616.8 161.9 L 613.0 156.7 L 609.1 151.5 L 605.1 146.5 L 605.1 146.5 L 600.9 141.7 L 596.5 136.9 L 592.1 132.2 L 587.6 127.5 L 583.1 123.0 L 578.5 118.4 L 573.9 113.9 L 569.2 109.4 L 564.6 104.9 L 559.9 100.4 L 555.3 95.9 L 550.7 91.4 L 546.2 86.9 L 541.7 82.2 L 537.3 77.6 L 533.0 72.8 L 533.0 72.8 L 528.6 68.0 L 523.7 62.9 L 518.5 57.7 L 513.1 52.4 L 507.6 47.1 L 502.1 41.7 L 496.7 36.3 L 491.5 31.0 L 486.6 25.7 L 482.1 20.5 L 478.1 15.5 L 474.8 10.7 L 472.1 6.0 L 470.3 1.7 L 470.0 0.0" fill="none" stroke="#ff3ea5" stroke-width="6.0" stroke-opacity="0.9"/><path d="M 618.1 0.0 L 618.4 0.3 L 623.5 5.0 L 628.5 9.7 L 633.4 14.1 L 638.3 18.4 L 638.3 18.4 L 643.2 22.6 L 647.9 26.8 L 652.6 31.2 L 657.3 35.6 L 661.9 40.1 L 666.5 44.7 L 671.0 49.3 L 675.6 53.9 L 680.1 58.5 L 684.6 63.2 L 689.1 67.9 L 693.6 72.5 L 698.1 77.1 L 702.6 81.8 L 707.2 86.3 L 711.8 90.8 L 711.8 90.8 L 716.5 95.3 L 721.1 99.9 L 725.7 104.4 L 730.3 108.9 L 734.9 113.4 L 739.5 118.0 L 744.1 122.5 L 748.7 127.0 L 753.3 131.5 L 758.0 136.0 L 762.7 140.4 L 767.4 144.8 L 772.1 149.2 L 776.9 153.5 L 781.7 157.8 L 786.5 162.1 L 786.5 162.1 L 791.4 166.3 L 796.3 170.5 L 801.2 174.6 L 806.2 178.7 L 811.2 182.8 L 816.2 186.9 L 821.2 190.9 L 826.3 194.9 L 831.4 198.9 L 836.5 202.8 L 841.6 206.7 L 846.7 210.7 L 851.9 214.5 L 857.1 218.4 L 862.2 222.3 L 867.4 226.1 L 867.4 226.1 L 872.6 229.9 L 877.8 233.7 L 883.1 237.4 L 888.4 241.1 L 893.7 244.7 L 899.0 248.4 L 904.4 252.0 L 909.7 255.6 L 915.1 259.2 L 920.5 262.8 L 925.8 266.4 L 931.2 270.0 L 936.5 273.6 L 941.9 277.2 L 947.2 280.8 L 952.5 284.5 L 952.5 284.5 L 957.8 288.2 L 963.1 291.9 L 968.4 295.6 L 973.6 299.3 L 978.9 303.0 L 984.2 306.7 L 989.5 310.4 L 994.8 314.2 L 1000.0 317.9 L 1005.3 321.6 L 1010.5 325.4 L 1015.8 329.1 L 1021.0 332.9 L 1026.2 336.7 L 1031.4 340.5 L 1036.7 344.3 L 1036.7 344.3 L 1041.8 348.1 L 1047.0 352.0 L 1052.2 355.8 L 1057.3 359.7 L 1062.5 363.6 L 1067.6 367.5 L 1072.7 371.4 L 1077.9 375.3 L 1083.0 379.3 L 1088.1 383.2 L 1093.2 387.1 L 1098.3 391.0 L 1103.5 395.0 L 1108.6 398.9 L 1113.7 402.8 L 1118.9 406.7 L 1118.9 406.7 L 1124.1 410.5 L 1129.3 414.3 L 1134.6 418.0 L 1140.0 421.8 L 1145.4 425.4 L 1150.8 429.1 L 1156.1 432.8 L 1161.5 436.5 L 1166.8 440.2 L 1172.0 444.0 L 1177.2 447.9 L 1182.3 451.8 L 1187.3 455.9 L 1192.1 460.0 L 1196.8 464.3 L 1201.4 468.7 L 1201.4 468.7 L 1205.9 473.2 L 1210.4 477.8 L 1215.0 482.5 L 1219.5 487.2 L 1224.0 492.0 L 1228.4 496.9 L 1232.7 501.8 L 1236.9 506.9 L 1240.9 512.0 L 1244.7 517.2 L 1248.3 522.5 L 1251.7 527.8 L 1254.8 533.3 L 1257.5 538.8 L 1259.9 544.4 L 1262.0 550.1 L 1262.0 550.1 L 1263.7 555.9 L 1264.9 561.9 L 1265.8 568.0 L 1266.4 574.2 L 1266.7 580.6 L 1266.7 587.0 L 1266.5 593.5 L 1266.2 600.0 L 1265.6 606.6 L 1265.0 613.2 L 1264.3 619.8 L 1263.6 626.4 L 1262.9 633.0 L 1262.2 639.6 L 1261.6 646.1 L 1261.1 652.5 L 1261.1 652.5 L 1260.6 658.9 L 1260.0 665.3 L 1259.4 671.7 L 1258.7 678.1 L 1257.9 684.5 L 1257.1 690.9 L 1256.2 697.3 L 1255.3 703.7 L 1254.4 710.1 L 1253.4 716.5 L 1252.5 722.9 L 1251.5 729.3 L 1250.6 735.7 L 1249.6 742.1 L 1248.7 748.5 L 1247.9 754.9 L 1247.9 754.9 L 1247.0 761.3 L 1246.1 767.7 L 1245.3 774.1 L 1244.4 780.5 L 1243.6 786.8 L 1242.7 793.2 L 1241.9 799.6 L 1241.0 806.0 L 1240.1 812.4 L 1239.2 818.8 L 1238.3 825.2 L 1237.4 831.6 L 1236.4 838.0 L 1235.4 844.3 L 1234.4 850.7 L 1233.4 857.1 L 1233.4 857.1 L 1232.3 863.4 L 1231.2 869.8 L 1230.1 876.1 L 1229.0 882.5 L 1227.9 888.9 L 1226.7 895.2 L 1225.6 901.6 L 1224.4 907.9 L 1223.2 914.2 L 1221.9 920.6 L 1220.7 926.9 L 1219.4 933.2 L 1218.0 939.5 L 1216.6 945.8 L 1215.2 952.1 L 1213.8 958.4 L 1213.8 958.4 L 1212.3 964.7 L 1210.7 970.9 L 1209.2 977.2 L 1207.6 983.4 L 1205.9 989.7 L 1204.3 995.9 L 1203.2 1000.0" fill="none" stroke="#ff3ea5" stroke-width="6.0" stroke-opacity="0.9"/><path d="M 458.1 1000.0 L 457.0 998.3 L 453.7 992.8 L 450.3 987.3 L 446.9 981.8 L 443.5 976.3 L 443.5 976.3 L 440.0 970.9 L 436.5 965.5 L 433.0 960.1 L 429.4 954.7 L 425.8 949.4 L 422.2 944.0 L 418.5 938.7 L 414.9 933.4 L 411.2 928.0 L 407.6 922.7 L 403.9 917.4 L 400.3 912.1 L 396.6 906.8 L 393.0 901.5 L 389.3 896.1 L 385.7 890.8 L 385.7 890.8 L 382.1 885.4 L 378.5 880.1 L 374.9 874.7 L 371.3 869.4 L 367.6 864.1 L 364.0 858.7 L 360.4 853.4 L 356.8 848.0 L 353.1 842.7 L 349.6 837.3 L 346.0 832.0 L 342.4 826.6 L 338.9 821.2 L 335.4 815.8 L 331.9 810.3 L 328.5 804.9 L 328.5 804.9 L 325.1 799.4 L 321.6 794.0 L 318.2 788.5 L 314.7 783.0 L 311.3 777.6 L 307.9 772.1 L 304.5 766.6 L 301.1 761.0 L 297.8 755.5 L 294.5 749.9 L 291.3 744.3 L 288.2 738.7 L 285.1 733.1 L 282.1 727.4 L 279.2 721.6 L 276.4 715.9 L 276.4 715.9 L 273.7 710.0 L 271.1 704.2 L 268.6 698.2 L 266.1 692.3 L 263.8 686.3 L 261.5 680.3 L 259.2 674.2 L 257.1 668.1 L 254.9 662.1 L 252.8 656.0 L 250.7 649.8 L 248.6 643.7 L 246.6 637.6 L 244.5 631.5 L 242.4 625.4 L 240.4 619.3 L 240.4 619.3 L 238.3 613.2 L 236.3 607.0 L 234.5 600.8 L 232.6 594.6 L 230.9 588.4 L 229.1 582.2 L 227.4 575.9 L 225.6 569.7 L 223.8 563.5 L 222.0 557.3 L 220.1 551.1 L 218.1 545.0 L 216.1 538.9 L 213.9 532.8 L 211.6 526.8 L 209.2 520.9 L 209.2 520.9 L 206.6 515.0 L 203.9 509.2 L 201.1 503.4 L 198.3 497.7 L 195.3 492.0 L 192.3 486.3 L 189.2 480.6 L 186.1 475.0 L 182.9 469.4 L 179.6 463.8 L 176.3 458.3 L 173.0 452.7 L 169.7 447.2 L 166.3 441.7 L 162.9 436.2 L 159.5 430.8 L 159.5 430.8 L 156.1 425.3 L 152.6 419.9 L 149.1 414.5 L 145.5 409.2 L 141.8 403.9 L 138.2 398.6 L 134.4 393.3 L 130.7 388.1 L 127.0 382.8 L 123.2 377.5 L 119.5 372.3 L 115.7 367.0 L 112.0 361.7 L 108.4 356.4 L 104.7 351.1 L 101.1 345.7 L 101.1 345.7 L 97.6 340.4 L 94.0 335.0 L 90.4 329.6 L 86.7 324.3 L 83.1 318.9 L 79.5 313.5 L 75.9 308.1 L 72.3 302.7 L 68.8 297.3 L 65.3 291.8 L 61.9 286.4 L 58.5 280.9 L 55.2 275.4 L 51.9 269.9 L 48.8 264.3 L 45.7 258.8 L 45.7 258.8 L 42.6 253.2 L 39.4 247.5 L 36.1 241.9 L 32.8 236.2 L 29.4 230.5 L 26.1 224.8 L 22.9 219.1 L 19.8 213.4 L 16.9 207.6 L 14.2 201.8 L 11.8 196.1 L 9.6 190.3 L 7.8 184.4 L 6.4 178.6 L 5.5 172.7 L 5.0 166.9 L 5.0 166.9 L 5.1 160.8 L 5.8 154.4 L 7.1 147.8 L 8.8 140.9 L 10.9 134.0 L 13.4 127.0 L 16.1 120.0 L 18.9 113.2 L 21.9 106.5 L 24.8 100.0 L 27.6 93.9 L 30.3 88.2 L 32.8 83.0 L 35.0 78.3 L 36.7 74.3 L 38.0 70.9" fill="none" stroke="#ff3ea5" stroke-width="6.0" stroke-opacity="0.9"/></g><g id="clips"><circle cx="87.3" cy="79.5" r="2" fill="none" stroke="#0b5" stroke-width="0.6"/><circle cx="707.3" cy="1000.0" r="2" fill="none" stroke="#0b5" stroke-width="0.6"/><circle cx="968.7" cy="1000.0" r="2" fill="none" stroke="#0b5" stroke-width="0.6"/><circle cx="470.0" cy="0.0" r="2" fill="none" stroke="#0b5" stroke-width="0.6"/><circle cx="618.1" cy="0.0" r="2" fill="none" stroke="#0b5" stroke-width="0.6"/><circle cx="1203.2" cy="1000.0" r="2" fill="none" stroke="#0b5" stroke-width="0.6"/><circle cx="458.1" cy="1000.0" r="2" fill="none" stroke="#0b5" stroke-width="0.6"/><circle cx="38.0" cy="70.9" r="2" fill="none" stroke="#0b5" stroke-width="0.6"/></g><g id="power"><circle cx="707.3" cy="1000.0" r="5" fill="none" stroke="#e33" stroke-width="1"/><circle cx="968.7" cy="1000.0" r="5" fill="none" stroke="#e33" stroke-width="1"/><circle cx="1203.2" cy="1000.0" r="5" fill="none" stroke="#e33" stroke-width="1"/><circle cx="458.0" cy="1000.0" r="5" fill="none" stroke="#e33" stroke-width="1"/><circle cx="470.0" cy="0.0" r="5" fill="none" stroke="#e33" stroke-width="1"/><circle cx="618.0" cy="0.0" r="5" fill="none" stroke="#e33" stroke-width="1"/></g></svg>