<svg xmlns="http://www.w3.org/2000/svg" width="1500mm" height="1000mm" viewBox="0 0 1500 1000"><g id="outline"><rect x="0" y="0" width="1500" height="1000" fill="none" stroke="#000" stroke-width="1"/></g><g id="channels"><path d="M 1140.7 105.4 L 1138.3 102.8 L 1135.3 99.7 L 1131.9 96.1 L 1128.1 92.1 L 1124.0 87.7 L 1119.6 83.0 L 1114.9 78.1 L 1110.1 72.9 L 1105.1 67.7 L 1099.9 62.3 L 1094.8 57.0 L 1089.6 51.7 L 1084.4 46.5 L 1079.3 41.5 L 1074.3 36.7 L 1069.5 32.2 L 1069.5 32.2 L 1064.7 27.9 L 1059.9 23.7 L 1055.0 19.6 L 1050.0 15.5 L 1044.9 11.5 L 1039.8 7.5 L 1034.7 3.5 L 1030.1 0.0" fill="none" stroke="#00e5ff" stroke-width="6.0" stroke-opacity="0.9"/><path d="M 234.9 0.0 L 237.3 2.9 L 241.3 7.8 L 245.2 12.8 L 248.9 17.8 L 252.6 22.9 L 256.1 28.1 L 259.5 33.4 L 259.5 33.4 L 262.8 38.7 L 265.9 44.1 L 269.0 49.6 L 271.9 55.2 L 274.7 60.8 L 277.5 66.5 L 280.1 72.3 L 282.7 78.1 L 285.2 83.9 L 287.6 89.8 L 289.9 95.7 L 292.2 101.6 L 294.4 107.6 L 296.6 113.5 L 298.7 119.5 L 300.8 125.4 L 300.8 125.4 L 302.8 131.4 L 304.7 137.4 L 306.4 143.4 L 308.1 149.5 L 309.7 155.6 L 311.2 161.8 L 312.7 167.9 L 314.1 174.1 L 315.5 180.3 L 316.9 186.5 L 318.2 192.7 L 319.6 198.9 L 321.0 205.1 L 322.3 211.3 L 323.8 217.4 L 325.2 223.6 L 325.2 223.6 L 326.7 229.8 L 328.0 236.0 L 329.2 242.3 L 330.4 248.6 L 331.6 254.9 L 332.7 261.3 L 333.8 267.6 L 335.0 273.9 L 336.3 280.2 L 337.6 286.4 L 339.0 292.6 L 340.5 298.7 L 342.2 304.7 L 344.1 310.6 L 346.2 316.4 L 348.4 322.1 L 348.4 322.1 L 350.9 327.7 L 353.3 333.5 L 355.9 339.3 L 358.6 345.1 L 361.3 350.9 L 364.2 356.7 L 367.2 362.3 L 370.4 367.9 L 373.7 373.2 L 377.1 378.4 L 380.7 383.3 L 384.5 387.9 L 388.5 392.2 L 392.8 396.2 L 397.2 399.7 L 401.9 402.9 L 401.9 402.9 L 407.0 405.5 L 412.8 407.7 L 419.1 409.5 L 425.9 411.0 L 432.9 412.1 L 440.2 412.9 L 447.6 413.5 L 455.0 413.9 L 462.3 414.1 L 469.4 414.2 L 476.2 414.3 L 482.5 414.3 L 488.3 414.3 L 493.5 414.3 L 498.0 414.5 L 501.5 414.8" fill="none" stroke="#00e5ff" stroke-width="6.0" stroke-opacity="0.9"/><path d="M 520.4 396.6 L 521.2 393.9 L 522.4 390.7 L 523.9 387.0 L 525.6 383.0 L 527.5 378.5 L 529.5 373.8 L 531.5 368.8 L 533.5 363.5 L 535.3 358.1 L 537.1 352.5 L 538.6 346.7 L 539.8 341.0 L 540.7 335.2 L 541.2 329.4 L 541.1 323.7 L 540.6 318.1 L 540.6 318.1 L 539.4 312.5 L 537.7 306.8 L 535.6 301.0 L 533.0 295.1 L 530.0 289.1 L 526.8 283.0 L 523.3 276.8 L 519.7 270.6 L 516.0 264.3 L 512.3 258.0 L 508.6 251.7 L 505.0 245.3 L 501.6 238.9 L 498.4 232.5 L 495.5 226.1 L 493.0 219.7 L 493.0 219.7 L 490.8 213.3 L 488.8 206.7 L 487.0 200.1 L 485.4 193.4 L 483.9 186.7 L 482.5 179.9 L 481.1 173.2 L 479.8 166.4 L 478.5 159.6 L 477.1 152.9 L 475.6 146.2 L 474.0 139.5 L 472.2 133.0 L 470.3 126.5 L 468.1 120.2 L 465.7 113.9 L 465.7 113.9 L 463.0 107.8 L 460.3 101.7 L 457.4 95.6 L 454.5 89.6 L 451.4 83.6 L 448.2 77.7 L 444.9 71.9 L 441.5 66.1 L 438.0 60.3 L 434.4 54.7 L 430.6 49.1 L 426.8 43.7 L 422.8 38.3 L 418.7 33.0 L 414.5 27.8 L 410.2 22.8 L 410.2 22.8 L 405.7 17.9 L 400.9 13.2 L 395.9 8.7 L 390.6 4.4 L 385.2 0.2 L 384.9 0.0" fill="none" stroke="#00e5ff" stroke-width="6.0" stroke-opacity="0.9"/><path d="M 797.2 0.0 L 801.1 3.5 L 806.3 8.1 L 811.5 12.6 L 816.7 17.2 L 821.8 21.8 L 826.9 26.4 L 831.9 31.1 L 836.8 35.9 L 841.6 40.8 L 841.6 40.8 L 846.2 45.8 L 850.8 50.8 L 855.3 55.9 L 859.9 61.0 L 864.4 66.1 L 868.9 71.2 L 873.3 76.4 L 877.8 81.6 L 882.2 86.8 L 886.6 91.9 L 891.1 97.1 L 895.5 102.3 L 899.9 107.5 L 904.4 112.7 L 908.8 117.9 L 913.3 123.0 L 913.3 123.0 L 917.7 128.3 L 922.1 133.7 L 926.5 139.2 L 930.7 144.8 L 935.0 150.4 L 939.3 156.1 L 943.6 161.8 L 947.9 167.3 L 952.2 172.8 L 956.6 178.2 L 961.1 183.4 L 965.6 188.3 L 970.3 193.1 L 975.0 197.5 L 979.9 201.6 L 985.0 205.4 L 985.0 205.4 L 990.3 209.0 L 995.8 212.6 L 1001.6 216.2 L 1007.5 219.8 L 1013.6 223.2 L 1019.8 226.5 L 1026.0 229.5 L 1032.3 232.2 L 1038.5 234.6 L 1044.6 236.6 L 1050.6 238.1 L 1056.5 239.2 L 1062.1 239.7 L 1067.5 239.5 L 1072.7 238.7 L 1077.4 237.2 L 1077.4 237.2 L 1082.0 234.7 L 1086.5 231.0 L 1090.8 226.3 L 1095.1 220.7 L 1099.2 214.5 L 1103.2 207.7 L 1107.0 200.5 L 1110.6 193.1 L 1114.1 185.6 L 1117.4 178.2 L 1120.4 171.1 L 1123.3 164.4 L 1125.9 158.3 L 1128.3 152.9 L 1130.4 148.4 L 1132.2 144.9" fill="none" stroke="#00e5ff" stroke-width="6.0" stroke-opacity="0.9"/></g><g id="clips"><circle cx="1140.7" cy="105.4" r="2" fill="none" stroke="#0b5" stroke-width="0.6"/><circle cx="1030.1" cy="0.0" r="2" fill="none" stroke="#0b5" stroke-width="0.6"/><circle cx="234.9" cy="0.0" r="2" fill="none" stroke="#0b5" stroke-width="0.6"/><circle cx="501.5" cy="414.8" r="2" fill="none" stroke="#0b5" stroke-width="0.6"/><circle cx="520.4" cy="396.6" r="2" fill="none" stroke="#0b5" stroke-width="0.6"/><circle cx="384.9" cy="0.0" r="2" fill="none" stroke="#0b5" stroke-width="0.6"/><circle cx="797.2" cy="0.0" r="2" fill="none" stroke="#0b5" stroke-width="0.6"/><circle cx="1132.2" cy="144.9" r="2" fill="none" stroke="#0b5" stroke-width="0.6"/></g><g id="power"><circle cx="1030.1" cy="0.0" r="5" fill="none" stroke="#e33" stroke-width="1"/><circle cx="234.9" cy="0.0" r="5" fill="none" stroke="#e33" stroke-width="1"/><circle cx="384.9" cy="0.0" r="5" fill="none" stroke="#e33" stroke-width="1"/><circle cx="797.2" cy="0.0" r="5" fill="none" stroke="#e33" stroke-width="1"/></g></svg>