<svg xmlns="http://www.w3.org/2000/svg" width="1000mm" height="2000mm" viewBox="0 0 1000 2000"><g id="outline"><rect x="0" y="0" width="1000" height="2000" fill="none" stroke="#000" stroke-width="1"/></g><g id="channels"><path d="M 1000.0 226.9 L 995.8 228.3 L 990.8 229.9 L 985.8 231.5 L 980.9 233.1 L 975.9 234.8 L 971.0 236.5 L 966.1 238.3 L 961.2 240.0 L 961.2 240.0 L 956.3 241.8 L 951.4 243.6 L 946.5 245.5 L 941.7 247.4 L 936.9 249.3 L 932.1 251.4 L 927.2 253.4 L 922.4 255.4 L 917.6 257.5 L 912.9 259.6 L 908.1 261.7 L 903.4 263.8 L 898.6 266.0 L 893.9 268.1 L 889.1 270.3 L 884.4 272.4 L 884.4 272.4 L 879.7 274.6 L 874.9 276.9 L 870.2 279.1 L 865.5 281.4 L 860.9 283.6 L 856.2 286.0 L 851.4 288.2 L 846.8 290.6 L 842.1 292.9 L 837.5 295.4 L 832.9 297.7 L 828.3 300.2 L 823.6 302.6 L 819.0 305.1 L 814.5 307.6 L 810.0 310.1 L 810.0 310.1 L 805.3 312.7 L 800.9 315.3 L 796.3 317.9 L 791.9 320.6 L 787.4 323.4 L 783.1 326.1 L 778.6 328.9 L 774.2 331.7 L 769.8 334.4 L 765.3 337.2 L 761.0 340.0 L 756.5 342.8 L 752.1 345.4 L 747.6 348.1 L 743.1 350.8 L 738.6 353.4 L 738.6 353.4 L 734.1 356.0 L 729.6 358.5 L 725.0 361.1 L 720.4 363.6 L 715.9 366.1 L 711.3 368.5 L 706.7 371.1 L 702.1 373.5 L 697.5 375.9 L 692.9 378.4 L 688.2 380.8 L 683.6 383.2 L 679.0 385.7 L 674.5 388.1 L 669.8 390.6 L 665.2 393.0 L 665.2 393.0 L 660.6 395.4 L 656.0 397.8 L 651.3 400.1 L 646.7 402.4 L 642.0 404.7 L 637.2 407.0 L 632.5 409.4 L 627.8 411.6 L 623.2 414.0 L 618.5 416.3 L 613.9 418.8 L 609.4 421.2 L 604.7 423.7 L 600.3 426.3 L 595.8 428.9 L 591.4 431.6 L 591.4 431.6 L 587.0 434.5 L 582.6 437.3 L 578.4 440.2 L 574.1 443.2 L 569.8 446.2 L 565.6 449.3 L 561.4 452.4 L 557.2 455.5 L 553.1 458.7 L 549.0 461.9 L 544.8 465.1 L 540.7 468.3 L 536.7 471.6 L 532.7 475.0 L 528.6 478.2 L 524.6 481.6 L 524.6 481.6 L 520.6 484.9 L 516.6 488.3 L 512.8 491.8 L 508.8 495.2 L 504.9 498.7 L 501.2 502.2 L 497.3 505.8 L 493.5 509.3 L 489.7 512.9 L 486.0 516.6 L 482.1 520.1 L 478.3 523.7 L 474.5 527.3 L 470.8 530.8 L 467.0 534.4 L 463.1 538.0 L 463.1 538.0 L 459.3 541.6 L 455.6 545.2 L 451.9 548.8 L 448.1 552.5 L 444.4 556.2 L 440.7 559.9 L 437.0 563.6 L 433.3 567.3 L 429.5 570.9 L 425.7 574.6 L 422.0 578.1 L 418.1 581.7 L 414.2 585.1 L 410.3 588.5 L 406.3 591.7 L 402.2 594.9 L 402.2 594.9 L 398.1 598.1 L 393.9 601.2 L 389.7 604.2 L 385.4 607.3 L 381.1 610.3 L 376.8 613.2 L 372.5 616.2 L 368.1 618.9 L 363.7 621.7 L 359.1 624.4 L 354.7 627.0 L 350.1 629.5 L 345.5 632.0 L 340.9 634.2 L 336.2 636.5 L 331.5 638.6 L 331.5 638.6 L 326.7 640.5 L 321.9 642.4 L 317.0 644.1 L 312.2 645.7 L 307.1 647.3 L 302.2 648.8 L 297.1 650.1 L 292.1 651.5 L 287.0 652.6 L 281.8 653.8 L 276.7 655.0 L 271.6 656.1 L 266.5 657.2 L 261.3 658.3 L 256.2 659.4 L 251.2 660.4 L 251.2 660.4 L 246.1 661.5 L 240.9 662.4 L 235.7 663.2 L 230.6 664.0 L 225.4 664.6 L 220.2 665.3 L 215.0 665.9 L 209.8 666.5 L 204.6 667.2 L 199.4 667.8 L 194.2 668.5 L 189.0 669.3 L 183.9 670.1 L 178.8 671.1 L 173.7 672.1 L 168.7 673.3 L 168.7 673.3 L 163.7 674.6 L 158.4 675.7 L 153.1 676.8 L 147.7 677.9 L 142.2 679.1 L 136.8 680.3 L 131.4 681.5 L 126.1 682.9 L 120.9 684.4 L 115.9 686.0 L 111.1 687.8 L 106.5 689.8 L 102.1 692.1 L 98.1 694.7 L 94.4 697.5 L 91.0 700.7 L 91.0 700.7 L 88.1 704.4 L 85.5 708.7 L 83.1 713.4 L 81.1 718.7 L 79.3 724.2 L 77.7 730.0 L 76.4 736.0 L 75.1 741.9 L 74.1 747.9 L 73.2 753.7 L 72.3 759.1 L 71.6 764.4 L 70.9 769.1 L 70.3 773.3 L 69.7 777.0 L 69.0 779.8 L 79.2 800.5 L 81.8 800.8 L 84.9 801.2 L 88.6 801.8 L 92.6 802.5 L 97.0 803.2 L 101.7 804.0 L 106.7 804.8 L 111.9 805.5 L 117.3 806.2 L 122.7 806.9 L 128.3 807.4 L 133.8 807.7 L 139.4 807.9 L 144.8 807.9 L 150.2 807.6 L 155.4 807.1 L 155.4 807.1 L 160.5 806.4 L 165.7 805.3 L 170.9 804.1 L 176.2 802.6 L 181.5 801.0 L 186.9 799.2 L 192.3 797.4 L 197.8 795.4 L 203.2 793.3 L 208.7 791.3 L 214.1 789.2 L 219.7 787.2 L 225.1 785.3 L 230.6 783.3 L 236.1 781.5 L 241.4 779.8 L 241.4 779.8 L 246.9 778.3 L 252.4 777.0 L 257.9 775.7 L 263.5 774.5 L 269.2 773.3 L 274.8 772.2 L 280.4 771.2 L 286.0 770.0 L 291.6 768.8 L 297.0 767.5 L 302.5 766.0 L 307.9 764.4 L 313.1 762.7 L 318.2 760.7 L 323.3 758.5 L 328.0 756.0 L 328.0 756.0 L 332.7 753.1 L 337.3 750.0 L 341.6 746.5 L 345.9 742.9 L 349.9 739.1 L 353.9 735.1 L 357.9 731.0 L 361.8 726.8 L 365.7 722.6 L 369.6 718.3 L 373.5 714.1 L 377.4 709.9 L 381.5 705.8 L 385.6 701.9 L 389.8 698.1 L 394.2 694.5 L 394.2 694.5 L 398.6 691.1 L 403.1 687.7 L 407.6 684.3 L 412.1 681.0 L 416.7 677.7 L 421.4 674.6 L 426.0 671.4 L 430.7 668.3 L 435.5 665.1 L 440.3 662.1 L 445.1 659.2 L 449.8 656.2 L 454.7 653.4 L 459.6 650.5 L 464.5 647.8 L 469.4 645.1 L 469.4 645.1 L 474.4 642.5 L 479.4 639.9 L 484.5 637.4 L 489.6 635.0 L 494.7 632.6 L 499.9 630.4 L 505.1 628.1 L 510.3 625.9 L 515.5 623.7 L 520.7 621.6 L 526.0 619.5 L 531.3 617.4 L 536.5 615.3 L 541.8 613.1 L 547.0 611.0 L 552.3 608.9 L 552.3 608.9 L 557.5 606.7 L 562.7 604.6 L 568.0 602.6 L 573.3 600.5 L 578.6 598.5 L 583.8 596.4 L 589.1 594.4 L 594.4 592.4 L 599.7 590.4 L 605.0 588.5 L 610.3 586.4 L 615.6 584.4 L 620.9 582.4 L 626.2 580.4 L 631.5 578.4 L 636.7 576.3 L 636.7 576.3 L 642.0 574.3 L 647.2 572.2 L 652.6 570.3 L 658.0 568.4 L 663.3 566.5 L 668.7 564.6 L 674.0 562.7 L 679.4 560.7 L 684.7 558.7 L 690.0 556.7 L 695.2 554.6 L 700.4 552.4 L 705.5 550.1 L 710.6 547.7 L 715.6 545.1 L 720.5 542.4 L 720.5 542.4 L 725.3 539.6 L 730.1 536.6 L 734.7 533.4 L 739.2 530.2 L 743.8 526.8 L 748.2 523.4 L 752.6 519.8 L 756.9 516.3 L 761.3 512.7 L 765.7 509.0 L 770.1 505.4 L 774.4 501.8 L 778.8 498.2 L 783.2 494.7 L 787.7 491.3 L 792.2 487.9 L 792.2 487.9 L 796.8 484.5 L 801.2 481.2 L 805.8 477.7 L 810.2 474.2 L 814.7 470.8 L 819.1 467.2 L 823.6 463.8 L 828.2 460.4 L 832.7 457.0 L 837.3 453.7 L 841.9 450.5 L 846.6 447.5 L 851.3 444.6 L 856.2 441.8 L 861.0 439.2 L 866.1 436.8 L 866.1 436.8 L 871.1 434.6 L 876.3 432.6 L 881.5 430.7 L 886.9 428.9 L 892.3 427.3 L 897.7 425.8 L 903.3 424.5 L 908.7 423.1 L 914.4 421.9 L 919.9 420.8 L 925.5 419.6 L 931.2 418.5 L 936.8 417.5 L 942.3 416.4 L 948.0 415.3 L 953.5 414.2 L 953.5 414.2 L 959.0 413.1 L 964.5 412.1 L 970.1 411.0 L 975.7 410.0 L 981.2 409.1 L 986.9 408.2 L 992.4 407.3 L 998.0 406.4 L 1000.0 406.2" fill="none" stroke="#a05bff" stroke-width="6.0" stroke-opacity="0.9"/><path d="M 1000.0 590.7 L 997.7 592.1 L 992.9 594.9 L 988.0 597.9 L 983.2 600.8 L 978.4 603.7 L 973.6 606.7 L 968.8 609.7 L 964.0 612.6 L 959.2 615.8 L 959.2 615.8 L 954.5 618.8 L 949.8 621.9 L 945.1 625.1 L 940.4 628.2 L 935.7 631.4 L 931.1 634.6 L 926.5 637.8 L 921.8 641.0 L 917.1 644.3 L 912.5 647.6 L 907.9 650.8 L 903.3 654.1 L 898.7 657.3 L 894.0 660.5 L 889.3 663.7 L 884.6 666.9 L 884.6 666.9 L 879.9 670.0 L 875.3 673.2 L 870.6 676.4 L 865.9 679.6 L 861.3 682.8 L 856.6 686.0 L 851.9 689.1 L 847.2 692.3 L 842.5 695.4 L 837.8 698.6 L 833.1 701.7 L 828.3 704.8 L 823.6 707.8 L 818.9 710.9 L 814.1 714.0 L 809.3 716.9 L 809.3 716.9 L 804.5 719.9 L 799.6 722.8 L 794.7 725.6 L 789.9 728.5 L 785.0 731.3 L 780.0 734.1 L 775.2 736.9 L 770.2 739.7 L 765.3 742.4 L 760.4 745.2 L 755.4 748.0 L 750.5 750.7 L 745.6 753.6 L 740.7 756.4 L 735.9 759.2 L 731.0 762.2 L 731.0 762.2 L 726.1 765.1 L 721.2 768.0 L 716.4 770.8 L 711.5 773.6 L 706.5 776.4 L 701.7 779.3 L 696.7 782.2 L 691.8 785.1 L 687.1 788.0 L 682.3 791.0 L 677.5 794.0 L 672.8 797.1 L 668.2 800.3 L 663.6 803.6 L 659.1 806.9 L 654.7 810.5 L 654.7 810.5 L 650.4 814.1 L 646.3 817.9 L 642.2 821.7 L 638.3 825.7 L 634.3 829.8 L 630.4 833.9 L 626.7 838.1 L 622.9 842.3 L 619.1 846.6 L 615.4 850.9 L 611.6 855.1 L 607.8 859.4 L 604.1 863.6 L 600.2 867.7 L 596.3 871.8 L 592.3 875.8 L 592.3 875.8 L 588.4 879.8 L 584.3 883.8 L 580.4 887.9 L 576.4 891.9 L 572.5 896.1 L 568.5 900.2 L 564.5 904.3 L 560.6 908.2 L 556.4 912.3 L 552.3 916.1 L 548.2 919.9 L 543.9 923.6 L 539.6 927.1 L 535.3 930.6 L 530.7 933.9 L 526.1 937.0 L 526.1 937.0 L 521.4 939.8 L 516.5 942.6 L 511.6 945.1 L 506.5 947.5 L 501.4 949.7 L 496.2 951.9 L 490.9 953.9 L 485.6 956.0 L 480.3 957.9 L 474.9 959.8 L 469.5 961.7 L 464.2 963.6 L 458.8 965.5 L 453.5 967.5 L 448.2 969.6 L 443.0 971.7 L 443.0 971.7 L 437.8 973.9 L 432.6 976.0 L 427.3 978.0 L 422.0 980.1 L 416.7 982.1 L 411.5 984.1 L 406.2 986.1 L 401.0 988.2 L 395.7 990.3 L 390.5 992.4 L 385.3 994.7 L 380.2 997.0 L 375.3 999.5 L 370.3 1002.1 L 365.4 1004.8 L 360.6 1007.6 L 360.6 1007.6 L 356.0 1010.7 L 351.4 1013.9 L 347.0 1017.4 L 342.7 1020.9 L 338.4 1024.6 L 334.2 1028.4 L 330.0 1032.1 L 325.8 1036.1 L 321.7 1040.0 L 317.5 1043.9 L 313.4 1047.9 L 309.2 1051.8 L 305.0 1055.6 L 300.8 1059.4 L 296.5 1063.1 L 292.1 1066.6 L 292.1 1066.6 L 287.6 1070.0 L 283.0 1073.3 L 278.3 1076.6 L 273.6 1079.8 L 268.8 1082.9 L 264.0 1086.0 L 259.2 1089.1 L 254.5 1092.1 L 249.7 1095.2 L 245.0 1098.4 L 240.3 1101.6 L 235.6 1104.9 L 231.2 1108.2 L 226.8 1111.7 L 222.5 1115.3 L 218.4 1119.0 L 218.4 1119.0 L 214.1 1122.9 L 209.7 1126.9 L 205.1 1131.0 L 200.3 1135.3 L 195.6 1139.7 L 190.8 1144.1 L 186.2 1148.7 L 181.7 1153.1 L 177.6 1157.6 L 173.8 1162.2 L 170.4 1166.7 L 167.5 1171.1 L 165.2 1175.4 L 163.5 1179.7 L 162.6 1183.9 L 162.4 1188.0 L 162.4 1188.0 L 163.2 1192.0 L 165.2 1196.1 L 168.0 1200.3 L 171.6 1204.5 L 175.9 1208.7 L 180.7 1212.9 L 185.9 1217.0 L 191.3 1221.1 L 196.8 1225.0 L 202.4 1228.7 L 207.7 1232.2 L 212.7 1235.5 L 217.3 1238.5 L 221.4 1241.2 L 224.7 1243.6 L 227.2 1245.6 L 262.5 1254.2 L 264.7 1252.1 L 267.3 1249.7 L 270.3 1246.8 L 273.6 1243.7 L 277.3 1240.2 L 281.2 1236.5 L 285.3 1232.7 L 289.6 1228.5 L 294.0 1224.4 L 298.5 1220.1 L 303.0 1215.9 L 307.5 1211.6 L 311.9 1207.4 L 316.3 1203.3 L 320.4 1199.4 L 324.4 1195.6 L 324.4 1195.6 L 328.3 1191.9 L 332.2 1188.2 L 336.0 1184.5 L 339.8 1180.8 L 343.7 1177.1 L 347.5 1173.4 L 351.3 1169.7 L 355.2 1166.0 L 359.0 1162.3 L 362.9 1158.6 L 366.9 1155.0 L 370.7 1151.3 L 374.7 1147.7 L 378.7 1144.2 L 382.7 1140.7 L 386.8 1137.2 L 386.8 1137.2 L 390.9 1133.8 L 394.9 1130.4 L 399.1 1127.1 L 403.2 1123.7 L 407.4 1120.3 L 411.6 1117.0 L 415.8 1113.7 L 420.1 1110.5 L 424.4 1107.2 L 428.7 1104.0 L 433.0 1100.9 L 437.3 1097.8 L 441.7 1094.7 L 446.1 1091.7 L 450.5 1088.7 L 455.0 1085.7 L 455.0 1085.7 L 459.4 1082.9 L 463.9 1079.9 L 468.4 1077.1 L 472.9 1074.3 L 477.5 1071.5 L 482.1 1068.8 L 486.7 1066.0 L 491.3 1063.4 L 496.0 1060.7 L 500.7 1058.1 L 505.4 1055.6 L 510.1 1053.1 L 514.8 1050.6 L 519.6 1048.3 L 524.4 1045.9 L 529.1 1043.7 L 529.1 1043.7 L 534.0 1041.4 L 538.9 1039.3 L 543.8 1037.2 L 548.7 1035.2 L 553.7 1033.2 L 558.6 1031.3 L 563.7 1029.5 L 568.7 1027.6 L 573.7 1025.8 L 578.8 1024.0 L 583.8 1022.2 L 588.9 1020.6 L 594.0 1018.8 L 599.0 1017.1 L 604.1 1015.3 L 609.1 1013.6 L 609.1 1013.6 L 614.2 1011.9 L 619.3 1010.3 L 624.4 1008.7 L 629.5 1007.2 L 634.6 1005.7 L 639.8 1004.2 L 645.0 1002.7 L 650.1 1001.2 L 655.2 999.8 L 660.3 998.3 L 665.5 996.7 L 670.6 995.2 L 675.6 993.5 L 680.8 991.8 L 685.7 990.1 L 690.8 988.2 L 690.8 988.2 L 695.7 986.4 L 700.8 984.4 L 705.7 982.5 L 710.7 980.6 L 715.7 978.6 L 720.7 976.6 L 725.7 974.6 L 730.7 972.5 L 735.5 970.3 L 740.4 968.1 L 745.2 965.8 L 750.0 963.4 L 754.7 961.0 L 759.4 958.5 L 763.9 955.8 L 768.5 953.1 L 768.5 953.1 L 772.9 950.2 L 777.3 947.2 L 781.6 944.2 L 785.8 941.0 L 790.1 937.7 L 794.2 934.5 L 798.4 931.0 L 802.5 927.6 L 806.5 924.0 L 810.5 920.4 L 814.4 916.9 L 818.4 913.2 L 822.3 909.6 L 826.2 905.9 L 830.0 902.2 L 833.9 898.5 L 833.9 898.5 L 837.7 894.8 L 841.4 890.9 L 845.0 887.0 L 848.5 883.0 L 852.0 878.9 L 855.5 874.8 L 858.9 870.7 L 862.3 866.5 L 865.7 862.4 L 869.3 858.3 L 872.7 854.2 L 876.3 850.3 L 879.9 846.3 L 883.6 842.6 L 887.4 838.9 L 891.3 835.2 L 891.3 835.2 L 895.3 831.8 L 899.4 828.4 L 903.5 825.0 L 907.7 821.7 L 911.9 818.4 L 916.2 815.3 L 920.5 812.1 L 924.9 809.0 L 929.3 806.0 L 933.8 803.1 L 938.2 800.1 L 942.8 797.3 L 947.3 794.5 L 951.9 791.8 L 956.4 789.1 L 961.2 786.6 L 961.2 786.6 L 965.8 784.1 L 970.6 781.7 L 975.3 779.4 L 980.2 777.2 L 985.1 775.1 L 990.0 773.1 L 995.0 771.1 L 1000.0 769.1 L 1000.0 769.1" fill="none" stroke="#a05bff" stroke-width="6.0" stroke-opacity="0.9"/></g><g id="clips"><circle cx="1000.0" cy="226.9" r="2" fill="none" stroke="#0b5" stroke-width="0.6"/><circle cx="816.8" cy="306.3" r="2" fill="none" stroke="#0b5" stroke-width="0.6"/><circle cx="642.6" cy="404.4" r="2" fill="none" stroke="#0b5" stroke-width="0.6"/><circle cx="481.3" cy="520.9" r="2" fill="none" stroke="#0b5" stroke-width="0.6"/><circle cx="323.8" cy="641.6" r="2" fill="none" stroke="#0b5" stroke-width="0.6"/><circle cx="128.3" cy="682.3" r="2" fill="none" stroke="#0b5" stroke-width="0.6"/><circle cx="130.4" cy="807.5" r="2" fill="none" stroke="#0b5" stroke-width="0.6"/><circle cx="323.1" cy="758.6" r="2" fill="none" stroke="#0b5" stroke-width="0.6"/><circle cx="481.6" cy="638.8" r="2" fill="none" stroke="#0b5" stroke-width="0.6"/><circle cx="667.4" cy="565.1" r="2" fill="none" stroke="#0b5" stroke-width="0.6"/><circle cx="833.6" cy="456.4" r="2" fill="none" stroke="#0b5" stroke-width="0.6"/><circle cx="1000.0" cy="406.2" r="2" fill="none" stroke="#0b5" stroke-width="0.6"/><circle cx="1000.0" cy="590.7" r="2" fill="none" stroke="#0b5" stroke-width="0.6"/><circle cx="833.5" cy="701.4" r="2" fill="none" stroke="#0b5" stroke-width="0.6"/><circle cx="662.3" cy="804.6" r="2" fill="none" stroke="#0b5" stroke-width="0.6"/><circle cx="517.8" cy="941.9" r="2" fill="none" stroke="#0b5" stroke-width="0.6"/><circle cx="337.4" cy="1025.5" r="2" fill="none" stroke="#0b5" stroke-width="0.6"/><circle cx="183.0" cy="1151.9" r="2" fill="none" stroke="#0b5" stroke-width="0.6"/><circle cx="286.2" cy="1231.9" r="2" fill="none" stroke="#0b5" stroke-width="0.6"/><circle cx="435.5" cy="1099.1" r="2" fill="none" stroke="#0b5" stroke-width="0.6"/><circle cx="614.3" cy="1011.9" r="2" fill="none" stroke="#0b5" stroke-width="0.6"/><circle cx="796.3" cy="932.7" r="2" fill="none" stroke="#0b5" stroke-width="0.6"/><circle cx="942.5" cy="797.5" r="2" fill="none" stroke="#0b5" stroke-width="0.6"/></g><g id="power"><circle cx="1000.0" cy="590.7" r="5" fill="none" stroke="#e33" stroke-width="1"/><circle cx="1000.0" cy="406.2" r="5" fill="none" stroke="#e33" stroke-width="1"/><circle cx="1000.0" cy="226.9" r="5" fill="none" stroke="#e33" stroke-width="1"/></g><g id="bridges"></g></svg>