<svg xmlns="http://www.w3.org/2000/svg" width="2000mm" height="1000mm" viewBox="0 0 2000 1000"><g id="outline"><rect x="0" y="0" width="2000" height="1000" fill="none" stroke="#000" stroke-width="1"/></g><g id="channels"><path d="M 2000.0 187.9 L 2000.0 187.9 L 1996.3 182.6 L 1992.8 177.3 L 1989.4 171.8 L 1986.0 166.3 L 1982.8 160.8 L 1979.5 155.2 L 1976.4 149.6 L 1973.2 143.9 L 1970.1 138.2 L 1967.1 132.5 L 1964.0 126.9 L 1960.9 121.2 L 1957.8 115.5 L 1954.7 109.8 L 1954.7 109.8 L 1951.7 104.2 L 1948.6 98.5 L 1945.6 92.8 L 1942.7 87.1 L 1939.8 81.3 L 1936.9 75.5 L 1934.1 69.8 L 1931.2 64.0 L 1928.4 58.2 L 1925.5 52.4 L 1922.6 46.6 L 1919.7 40.8 L 1916.8 35.1 L 1913.9 29.4 L 1910.8 23.6 L 1907.8 18.0 L 1907.8 18.0 L 1904.7 12.3 L 1901.5 6.7 L 1898.4 1.1 L 1897.8 0.0" fill="none" stroke="#ff3ea5" stroke-width="6.0" stroke-opacity="0.9"/></g><g id="clips"><circle cx="2000.0" cy="187.9" r="2" fill="none" stroke="#0b5" stroke-width="0.6"/><circle cx="1897.8" cy="0.0" r="2" fill="none" stroke="#0b5" stroke-width="0.6"/></g><g id="power"><circle cx="2000.0" cy="187.8" r="5" fill="none" stroke="#e33" stroke-width="1"/><circle cx="1897.8" cy="0.0" r="5" fill="none" stroke="#e33" stroke-width="1"/></g></svg>