<svg xmlns="http://www.w3.org/2000/svg" width="2000mm" height="1000mm" viewBox="0 0 2000 1000"><g id="outline"><rect x="0" y="0" width="2000" height="1000" fill="none" stroke="#000" stroke-width="1"/></g><g id="channels"><path d="M 1415.4 0.0 L 1416.4 0.8 L 1422.1 5.3 L 1427.7 9.8 L 1433.4 14.2 L 1439.2 18.3 L 1444.9 22.2 L 1450.5 25.8 L 1456.1 29.0 L 1461.6 31.6 L 1467.0 33.8 L 1472.3 35.3 L 1477.4 36.1 L 1482.4 36.1 L 1482.4 36.1 L 1487.2 35.3 L 1492.0 33.9 L 1496.8 31.7 L 1501.6 29.0 L 1506.3 25.7 L 1511.0 22.0 L 1515.5 17.8 L 1520.0 13.3 L 1524.3 8.5 L 1528.5 3.5 L 1531.2 0.0" fill="none" stroke="#ff3ea5" stroke-width="6.0" stroke-opacity="0.9"/><path d="M 1769.9 0.0 L 1769.7 0.5 L 1767.3 6.5 L 1764.8 12.6 L 1762.5 18.7 L 1760.4 24.8 L 1758.4 30.9 L 1756.6 37.0 L 1755.1 43.1 L 1753.9 49.3 L 1753.0 55.5 L 1753.0 55.5 L 1752.3 61.7 L 1751.8 68.0 L 1751.4 74.4 L 1751.2 80.8 L 1751.2 87.2 L 1751.3 93.7 L 1751.6 100.2 L 1752.0 106.6 L 1752.7 113.0 L 1753.5 119.4 L 1754.5 125.8 L 1755.7 132.0 L 1757.1 138.2 L 1758.7 144.3 L 1760.5 150.3 L 1762.5 156.1 L 1762.5 156.1 L 1764.8 161.9 L 1767.4 167.6 L 1770.3 173.2 L 1773.4 178.7 L 1776.7 184.2 L 1780.2 189.7 L 1783.9 195.1 L 1787.7 200.4 L 1791.7 205.6 L 1795.8 210.8 L 1800.0 215.9 L 1804.2 221.0 L 1808.5 226.0 L 1812.7 230.9 L 1817.0 235.8 L 1821.3 240.6 L 1821.3 240.6 L 1825.5 245.4 L 1829.8 250.2 L 1834.2 254.9 L 1838.7 259.6 L 1843.2 264.2 L 1847.9 268.8 L 1852.5 273.3 L 1857.3 277.7 L 1862.1 282.0 L 1867.0 286.3 L 1871.9 290.5 L 1876.9 294.5 L 1882.0 298.4 L 1887.2 302.3 L 1892.4 305.9 L 1897.7 309.5 L 1897.7 309.5 L 1903.1 312.8 L 1908.6 316.1 L 1914.2 319.1 L 1919.8 322.0 L 1925.6 324.8 L 1931.5 327.5 L 1937.4 330.1 L 1943.3 332.7 L 1949.3 335.1 L 1955.4 337.5 L 1961.4 339.9 L 1967.5 342.2 L 1973.5 344.5 L 1979.6 346.8 L 1985.6 349.2 L 1991.6 351.5 L 1991.6 351.5 L 1997.6 353.9 L 2000.0 354.8" fill="none" stroke="#ff3ea5" stroke-width="6.0" stroke-opacity="0.9"/><path d="M 2000.0 826.0 L 1998.5 829.0 L 1996.8 833.4 L 1995.3 837.9 L 1994.3 842.4 L 1993.7 847.0 L 1993.6 851.4 L 1993.6 851.4 L 1994.1 856.0 L 1995.1 860.9 L 1996.7 866.1 L 1998.7 871.6 L 2000.0 874.7" fill="none" stroke="#ff3ea5" stroke-width="6.0" stroke-opacity="0.9"/><path d="M 1897.8 1000.0 L 1895.2 995.4 L 1892.0 989.8 L 1888.8 984.3 L 1885.5 978.7 L 1882.3 973.1 L 1879.0 967.5 L 1875.7 962.0 L 1872.4 956.4 L 1869.1 950.9 L 1865.8 945.4 L 1862.5 939.8 L 1859.2 934.3 L 1855.8 928.8 L 1855.8 928.8 L 1852.5 923.2 L 1849.2 917.7 L 1845.9 912.1 L 1842.7 906.6 L 1839.4 901.0 L 1836.1 895.5 L 1832.8 889.9 L 1829.4 884.4 L 1826.1 878.9 L 1822.7 873.4 L 1819.3 867.9 L 1815.8 862.5 L 1812.3 857.1 L 1808.7 851.7 L 1805.1 846.4 L 1801.4 841.1 L 1801.4 841.1 L 1797.7 835.9 L 1793.9 830.7 L 1790.0 825.5 L 1786.1 820.4 L 1782.2 815.3 L 1778.2 810.2 L 1774.2 805.2 L 1770.1 800.1 L 1766.0 795.1 L 1761.9 790.2 L 1757.8 785.2 L 1753.6 780.3 L 1749.4 775.4 L 1745.2 770.5 L 1741.0 765.6 L 1736.8 760.7 L 1736.8 760.7 L 1732.5 755.9 L 1728.2 751.1 L 1723.9 746.3 L 1719.6 741.5 L 1715.2 736.8 L 1710.8 732.1 L 1706.4 727.4 L 1701.9 722.7 L 1697.5 718.0 L 1693.0 713.4 L 1688.5 708.7 L 1684.0 704.1 L 1679.5 699.5 L 1675.0 694.9 L 1670.5 690.3 L 1665.9 685.7 L 1665.9 685.7 L 1661.4 681.1 L 1656.8 676.5 L 1652.3 672.0 L 1647.7 667.4 L 1643.1 662.9 L 1638.5 658.4 L 1633.9 653.9 L 1629.3 649.4 L 1624.6 644.9 L 1620.0 640.4 L 1615.3 635.9 L 1610.7 631.5 L 1606.0 627.0 L 1601.3 622.6 L 1596.6 618.2 L 1591.9 613.8 L 1591.9 613.8 L 1587.2 609.4 L 1582.4 605.0 L 1577.7 600.6 L 1572.9 596.3 L 1568.1 592.0 L 1563.3 587.7 L 1558.4 583.4 L 1553.6 579.2 L 1548.8 574.9 L 1544.0 570.6 L 1539.2 566.3 L 1534.4 561.9 L 1529.6 557.6 L 1524.9 553.2 L 1520.1 548.8 L 1515.5 544.4 L 1515.5 544.4 L 1510.8 539.9 L 1506.2 535.4 L 1501.6 530.9 L 1497.1 526.3 L 1492.5 521.8 L 1488.0 517.2 L 1483.5 512.6 L 1478.9 507.9 L 1474.4 503.3 L 1469.9 498.7 L 1465.4 494.1 L 1460.9 489.5 L 1456.4 484.9 L 1451.9 480.3 L 1447.3 475.7 L 1442.8 471.1 L 1442.8 471.1 L 1438.2 466.6 L 1433.6 462.1 L 1429.0 457.6 L 1424.3 453.1 L 1419.7 448.6 L 1415.1 444.1 L 1410.4 439.6 L 1405.8 435.1 L 1401.2 430.6 L 1396.5 426.1 L 1391.9 421.6 L 1387.3 417.1 L 1382.7 412.6 L 1378.1 408.1 L 1373.5 403.5 L 1369.0 399.0 L 1369.0 399.0 L 1364.4 394.4 L 1359.8 389.8 L 1355.3 385.3 L 1350.6 380.8 L 1346.0 376.2 L 1341.4 371.7 L 1336.9 367.1 L 1332.3 362.6 L 1327.8 358.0 L 1323.3 353.4 L 1318.8 348.7 L 1314.4 344.0 L 1310.1 339.2 L 1305.8 334.4 L 1301.6 329.6 L 1297.5 324.6 L 1297.5 324.6 L 1293.4 319.6 L 1289.4 314.6 L 1285.5 309.5 L 1281.6 304.4 L 1277.7 299.2 L 1274.0 294.0 L 1270.2 288.7 L 1266.5 283.4 L 1262.9 278.1 L 1259.3 272.7 L 1255.7 267.3 L 1252.2 261.9 L 1248.7 256.5 L 1245.3 251.0 L 1241.9 245.5 L 1238.5 240.0 L 1238.5 240.0 L 1235.2 234.5 L 1232.0 229.0 L 1228.8 223.4 L 1225.7 217.7 L 1222.6 212.0 L 1219.6 206.3 L 1216.6 200.6 L 1213.7 194.9 L 1210.7 189.1 L 1207.8 183.4 L 1204.9 177.6 L 1202.0 171.8 L 1199.1 166.0 L 1196.2 160.3 L 1193.3 154.5 L 1190.4 148.8 L 1190.4 148.8 L 1187.4 143.0 L 1184.5 137.3 L 1181.6 131.5 L 1178.7 125.8 L 1175.8 120.0 L 1172.9 114.2 L 1170.0 108.5 L 1167.1 102.7 L 1164.3 96.9 L 1161.4 91.1 L 1158.5 85.4 L 1155.6 79.6 L 1152.7 73.8 L 1149.8 68.1 L 1146.9 62.3 L 1143.9 56.6 L 1143.9 56.6 L 1141.0 50.9 L 1138.0 45.1 L 1135.1 39.4 L 1132.1 33.6 L 1129.2 27.9 L 1126.2 22.2 L 1123.2 16.4 L 1120.2 10.7 L 1117.3 5.0 L 1114.6 0.0" fill="none" stroke="#ff3ea5" stroke-width="6.0" stroke-opacity="0.9"/></g><g id="clips"><circle cx="1415.4" cy="0.0" r="2" fill="none" stroke="#0b5" stroke-width="0.6"/><circle cx="1531.2" cy="0.0" r="2" fill="none" stroke="#0b5" stroke-width="0.6"/><circle cx="1769.9" cy="0.0" r="2" fill="none" stroke="#0b5" stroke-width="0.6"/><circle cx="2000.0" cy="354.8" r="2" fill="none" stroke="#0b5" stroke-width="0.6"/><circle cx="2000.0" cy="826.0" r="2" fill="none" stroke="#0b5" stroke-width="0.6"/><circle cx="1897.8" cy="1000.0" r="2" fill="none" stroke="#0b5" stroke-width="0.6"/><circle cx="1114.6" cy="0.0" r="2" fill="none" stroke="#0b5" stroke-width="0.6"/></g><g id="power"><circle cx="1415.4" cy="0.0" r="5" fill="none" stroke="#e33" stroke-width="1"/><circle cx="1531.2" cy="0.0" r="5" fill="none" stroke="#e33" stroke-width="1"/><circle cx="1769.9" cy="0.0" r="5" fill="none" stroke="#e33" stroke-width="1"/><circle cx="2000.0" cy="354.8" r="5" fill="none" stroke="#e33" stroke-width="1"/><circle cx="2000.0" cy="826.1" r="5" fill="none" stroke="#e33" stroke-width="1"/><circle cx="2000.0" cy="874.6" r="5" fill="none" stroke="#e33" stroke-width="1"/><circle cx="1897.8" cy="1000.0" r="5" fill="none" stroke="#e33" stroke-width="1"/><circle cx="1114.6" cy="0.0" r="5" fill="none" stroke="#e33" stroke-width="1"/></g></svg>