<svg xmlns="http://www.w3.org/2000/svg" width="1000mm" height="1000mm" viewBox="0 0 1000 1000"><g id="outline"><rect x="0" y="0" width="1000" height="1000" fill="none" stroke="#000" stroke-width="1"/></g><g id="channels"><path d="M 242.6 0.0 L 240.3 1.6 L 235.6 4.9 L 231.2 8.2 L 226.8 11.7 L 222.5 15.3 L 218.4 19.0 L 218.4 19.0 L 214.1 22.9 L 209.7 26.9 L 205.1 31.0 L 200.3 35.3 L 195.6 39.7 L 190.8 44.1 L 186.2 48.7 L 181.7 53.1 L 177.6 57.6 L 173.8 62.2 L 170.4 66.7 L 167.5 71.1 L 165.2 75.4 L 163.5 79.7 L 162.6 83.9 L 162.4 88.0 L 162.4 88.0 L 163.2 92.0 L 165.2 96.1 L 168.0 100.3 L 171.6 104.5 L 175.9 108.7 L 180.7 112.9 L 185.9 117.0 L 191.3 121.1 L 196.8 125.0 L 202.4 128.7 L 207.7 132.2 L 212.7 135.5 L 217.3 138.5 L 221.4 141.2 L 224.7 143.6 L 227.2 145.6 L 262.5 154.2 L 264.7 152.1 L 267.3 149.7 L 270.3 146.8 L 273.6 143.7 L 277.3 140.2 L 281.2 136.5 L 285.3 132.7 L 289.6 128.5 L 294.0 124.4 L 298.5 120.1 L 303.0 115.9 L 307.5 111.6 L 311.9 107.4 L 316.3 103.3 L 320.4 99.4 L 324.4 95.6 L 324.4 95.6 L 328.3 91.9 L 332.2 88.2 L 336.0 84.5 L 339.8 80.8 L 343.7 77.1 L 347.5 73.4 L 351.3 69.7 L 355.2 66.0 L 359.0 62.3 L 362.9 58.6 L 366.9 55.0 L 370.7 51.3 L 374.7 47.7 L 378.7 44.2 L 382.7 40.7 L 386.8 37.2 L 386.8 37.2 L 390.9 33.8 L 394.9 30.4 L 399.1 27.1 L 403.2 23.7 L 407.4 20.3 L 411.6 17.0 L 415.8 13.7 L 420.1 10.5 L 424.4 7.2 L 428.7 4.0 L 433.0 0.9 L 434.2 0.0" fill="none" stroke="#a05bff" stroke-width="6.0" stroke-opacity="0.9"/></g><g id="clips"><circle cx="242.6" cy="0.0" r="2" fill="none" stroke="#0b5" stroke-width="0.6"/><circle cx="218.9" cy="139.5" r="2" fill="none" stroke="#0b5" stroke-width="0.6"/><circle cx="373.7" cy="48.6" r="2" fill="none" stroke="#0b5" stroke-width="0.6"/></g><g id="power"><circle cx="242.7" cy="0.0" r="5" fill="none" stroke="#e33" stroke-width="1"/><circle cx="434.3" cy="0.0" r="5" fill="none" stroke="#e33" stroke-width="1"/></g><g id="bridges"></g></svg>