<svg xmlns="http://www.w3.org/2000/svg" width="2000mm" height="1000mm" viewBox="0 0 2000 1000"><g id="outline"><rect x="0" y="0" width="2000" height="1000" fill="none" stroke="#000" stroke-width="1"/></g><g id="channels"><path d="M 1843.1 0.0 L 1842.2 0.8 L 1839.7 3.0 L 1837.1 5.0 L 1837.1 5.0 L 1834.4 6.8 L 1831.7 8.5 L 1828.8 10.2 L 1825.9 11.8 L 1822.9 13.4 L 1819.8 14.9 L 1816.7 16.3 L 1813.5 17.6 L 1810.4 18.8 L 1807.2 19.8 L 1804.0 20.7 L 1800.8 21.4 L 1797.7 22.0 L 1794.6 22.3 L 1791.6 22.5 L 1788.6 22.5 L 1788.6 22.5 L 1785.6 22.1 L 1782.5 21.4 L 1779.3 20.4 L 1776.0 19.1 L 1772.7 17.6 L 1769.4 15.9 L 1766.1 14.1 L 1762.9 12.2 L 1759.8 10.3 L 1756.8 8.4 L 1754.0 6.5 L 1751.4 4.8 L 1748.9 3.2 L 1746.8 1.8 L 1744.9 0.6 L 1743.8 0.0" fill="none" stroke="#2b6bff" stroke-width="6.0" stroke-opacity="0.9"/></g><g id="clips"><circle cx="1843.1" cy="0.0" r="2" fill="none" stroke="#0b5" stroke-width="0.6"/><circle cx="1743.8" cy="0.0" r="2" fill="none" stroke="#0b5" stroke-width="0.6"/></g><g id="power"><circle cx="1843.1" cy="0.0" r="5" fill="none" stroke="#e33" stroke-width="1"/><circle cx="1743.7" cy="0.0" r="5" fill="none" stroke="#e33" stroke-width="1"/></g></svg>