<svg xmlns="http://www.w3.org/2000/svg" width="1000mm" height="1000mm" viewBox="0 0 1000 1000"><g id="outline"><rect x="0" y="0" width="1000" height="1000" fill="none" stroke="#000" stroke-width="1"/></g><g id="channels"><path d="M 0.0 510.9 L 3.1 512.8 L 8.6 516.1 L 14.2 519.1 L 19.8 522.0 L 25.6 524.8 L 31.5 527.5 L 37.4 530.1 L 43.3 532.7 L 49.3 535.1 L 55.4 537.5 L 61.4 539.9 L 67.5 542.2 L 73.5 544.5 L 79.6 546.8 L 85.6 549.2 L 91.6 551.5 L 91.6 551.5 L 97.6 553.9 L 103.6 556.2 L 109.7 558.4 L 115.7 560.6 L 121.8 562.7 L 127.9 564.8 L 134.0 566.9 L 140.1 569.0 L 146.2 571.1 L 152.4 573.1 L 158.5 575.2 L 164.6 577.3 L 170.7 579.4 L 176.8 581.5 L 182.9 583.7 L 188.9 585.9 L 188.9 585.9 L 195.0 588.2 L 201.0 590.5 L 207.0 592.9 L 212.9 595.3 L 218.9 597.8 L 224.9 600.3 L 230.9 602.8 L 236.8 605.3 L 242.8 607.7 L 248.8 610.1 L 254.8 612.5 L 260.8 614.8 L 266.8 617.1 L 272.9 619.2 L 279.0 621.2 L 285.1 623.2 L 285.1 623.2 L 291.3 625.0 L 297.5 626.7 L 303.7 628.4 L 310.0 630.0 L 316.2 631.5 L 322.5 632.9 L 328.8 634.3 L 335.1 635.7 L 341.4 637.0 L 347.7 638.3 L 354.1 639.5 L 360.4 640.7 L 366.8 641.9 L 373.1 643.1 L 379.5 644.3 L 385.8 645.5 L 385.8 645.5 L 392.1 646.6 L 398.5 647.7 L 404.9 648.7 L 411.2 649.7 L 417.6 650.6 L 424.0 651.5 L 430.4 652.4 L 436.8 653.3 L 443.2 654.1 L 449.6 655.0 L 456.0 655.9 L 462.4 656.8 L 468.8 657.7 L 475.2 658.7 L 481.5 659.7 L 487.9 660.7 L 487.9 660.7 L 494.3 661.8 L 500.7 662.8 L 507.1 663.7 L 513.6 664.6 L 520.1 665.5 L 526.6 666.4 L 533.0 667.3 L 539.5 668.3 L 545.9 669.4 L 552.3 670.5 L 558.6 671.8 L 564.9 673.2 L 571.1 674.8 L 577.2 676.5 L 583.2 678.5 L 589.1 680.7 L 589.1 680.7 L 594.9 683.1 L 600.8 685.5 L 606.7 688.2 L 612.6 690.9 L 618.5 693.8 L 624.2 696.8 L 630.0 699.9 L 635.6 703.2 L 641.1 706.6 L 646.5 710.1 L 651.8 713.8 L 656.8 717.7 L 661.7 721.7 L 666.4 725.8 L 670.9 730.2 L 675.1 734.6 L 675.1 734.6 L 679.1 739.3 L 682.9 744.3 L 686.4 749.4 L 689.8 754.8 L 692.9 760.4 L 695.9 766.1 L 698.7 771.9 L 701.5 777.8 L 704.1 783.9 L 706.6 790.0 L 709.0 796.1 L 711.4 802.3 L 713.7 808.5 L 716.0 814.6 L 718.3 820.7 L 720.6 826.7 L 720.6 826.7 L 722.9 832.7 L 725.0 838.8 L 727.1 844.8 L 729.0 851.0 L 730.9 857.1 L 732.7 863.3 L 734.5 869.5 L 736.2 875.8 L 737.9 882.0 L 739.5 888.3 L 741.1 894.6 L 742.7 900.8 L 744.3 907.1 L 745.9 913.4 L 747.6 919.6 L 749.2 925.9 L 749.2 925.9 L 750.8 932.1 L 752.4 938.4 L 754.0 944.6 L 755.5 950.9 L 757.0 957.2 L 758.4 963.5 L 759.9 969.8 L 761.3 976.0 L 762.8 982.3 L 764.3 988.6 L 765.8 994.9 L 767.0 1000.0" fill="none" stroke="#ff3ea5" stroke-width="6.0" stroke-opacity="0.9"/><path d="M 690.1 1000.0 L 690.0 999.8 L 687.5 993.8 L 685.0 987.9 L 682.4 981.9 L 679.8 976.0 L 677.1 970.1 L 674.4 964.2 L 671.7 958.4 L 668.9 952.6 L 666.1 946.8 L 663.2 941.0 L 663.2 941.0 L 660.4 935.2 L 657.5 929.4 L 654.7 923.5 L 651.9 917.5 L 649.0 911.6 L 646.2 905.7 L 643.2 899.8 L 640.2 894.0 L 637.1 888.3 L 633.9 882.6 L 630.6 877.1 L 627.1 871.7 L 623.5 866.5 L 619.7 861.4 L 615.8 856.6 L 611.6 852.0 L 611.6 852.0 L 607.2 847.5 L 602.7 843.2 L 597.9 839.0 L 593.0 834.9 L 588.0 831.0 L 582.8 827.2 L 577.6 823.5 L 572.2 819.9 L 566.7 816.5 L 561.1 813.3 L 555.4 810.2 L 549.7 807.2 L 543.9 804.4 L 538.1 801.7 L 532.3 799.2 L 526.5 796.9 L 526.5 796.9 L 520.6 794.7 L 514.6 792.9 L 508.4 791.2 L 502.2 789.8 L 496.0 788.5 L 489.6 787.4 L 483.2 786.4 L 476.7 785.6 L 470.2 784.8 L 463.7 784.0 L 457.2 783.3 L 450.7 782.6 L 444.2 781.9 L 437.7 781.2 L 431.2 780.4 L 424.8 779.4 L 424.8 779.4 L 418.5 778.4 L 412.1 777.4 L 405.7 776.4 L 399.3 775.3 L 392.9 774.2 L 386.5 773.1 L 380.1 772.1 L 373.7 771.1 L 367.3 770.1 L 360.9 769.2 L 354.5 768.4 L 348.1 767.7 L 341.7 767.0 L 335.3 766.5 L 328.9 766.1 L 322.5 765.8 L 322.5 765.8 L 316.0 765.6 L 309.1 765.3 L 302.0 764.9 L 294.7 764.6 L 287.3 764.3 L 279.9 764.0 L 272.6 763.9 L 265.4 763.9 L 258.3 764.1 L 251.6 764.5 L 245.1 765.1 L 239.1 766.0 L 233.5 767.2 L 228.5 768.8 L 224.1 770.7 L 220.4 773.1 L 220.4 773.1 L 217.3 776.0 L 214.5 779.5 L 212.1 783.5 L 210.1 788.1 L 208.4 792.9 L 207.1 798.1 L 206.2 803.5 L 205.7 809.0 L 205.6 814.5 L 205.9 820.1 L 206.6 825.5 L 207.7 830.7 L 209.1 835.6 L 211.0 840.2 L 213.3 844.4 L 216.0 848.0 L 216.0 848.0 L 219.3 851.1 L 223.3 854.0 L 228.0 856.6 L 233.2 858.9 L 238.9 861.1 L 245.1 863.0 L 251.6 864.8 L 258.3 866.5 L 265.3 868.1 L 272.4 869.7 L 279.5 871.2 L 286.7 872.8 L 293.7 874.4 L 300.5 876.1 L 307.1 877.9 L 313.4 879.9 L 313.4 879.9 L 319.5 881.9 L 325.7 883.8 L 332.0 885.5 L 338.3 887.3 L 344.7 889.0 L 351.0 890.7 L 357.4 892.4 L 363.7 894.2 L 369.9 896.0 L 376.1 898.0 L 382.2 900.1 L 388.1 902.4 L 393.9 904.9 L 399.6 907.6 L 405.1 910.6 L 410.3 913.8 L 410.3 913.8 L 415.5 917.3 L 420.7 921.1 L 426.0 925.0 L 431.2 929.1 L 436.3 933.4 L 441.4 937.8 L 446.3 942.4 L 451.0 947.2 L 455.5 952.0 L 459.8 957.0 L 463.8 962.1 L 467.5 967.3 L 470.8 972.6 L 473.7 977.9 L 476.2 983.3 L 478.3 988.7 L 478.3 988.7 L 479.9 994.3 L 481.2 1000.0" fill="none" stroke="#ff3ea5" stroke-width="6.0" stroke-opacity="0.9"/><path d="M 232.1 948.1 L 231.9 948.4 L 231.7 948.8 L 231.4 949.3 L 231.1 949.8 L 230.8 950.4 L 230.4 951.0 L 230.1 951.6 L 229.7 952.3 L 229.3 953.0 L 228.9 953.7 L 228.5 954.4 L 228.1 955.1 L 227.8 955.8 L 227.4 956.4 L 227.0 957.1 L 226.7 957.7 L 226.7 957.7 L 226.4 958.3 L 226.0 958.9 L 225.7 959.5 L 225.4 960.1 L 225.1 960.7 L 224.7 961.3 L 224.4 962.0 L 224.1 962.6 L 223.8 963.2 L 223.4 963.8 L 223.1 964.4 L 222.8 965.0 L 222.5 965.6 L 222.1 966.2 L 221.8 966.8 L 221.5 967.5 L 221.5 967.5 L 221.2 968.1 L 220.8 968.7 L 220.5 969.4 L 220.1 970.1 L 219.7 970.8 L 219.4 971.5 L 219.0 972.3 L 218.6 973.0 L 218.3 973.6 L 217.9 974.3 L 217.6 974.9 L 217.3 975.5 L 217.0 976.0 L 216.8 976.5 L 216.6 976.9 L 216.4 977.2" fill="none" stroke="#ff3ea5" stroke-width="6.0" stroke-opacity="0.9"/></g><g id="clips"><circle cx="0.0" cy="510.9" r="2" fill="none" stroke="#0b5" stroke-width="0.6"/><circle cx="767.0" cy="1000.0" r="2" fill="none" stroke="#0b5" stroke-width="0.6"/><circle cx="690.1" cy="1000.0" r="2" fill="none" stroke="#0b5" stroke-width="0.6"/><circle cx="481.2" cy="1000.0" r="2" fill="none" stroke="#0b5" stroke-width="0.6"/><circle cx="232.1" cy="948.1" r="2" fill="none" stroke="#0b5" stroke-width="0.6"/></g><g id="power"><circle cx="0.0" cy="510.9" r="5" fill="none" stroke="#e33" stroke-width="1"/><circle cx="481.2" cy="1000.0" r="5" fill="none" stroke="#e33" stroke-width="1"/><circle cx="690.1" cy="1000.0" r="5" fill="none" stroke="#e33" stroke-width="1"/><circle cx="767.0" cy="1000.0" r="5" fill="none" stroke="#e33" stroke-width="1"/></g><g id="bridges"><circle cx="228.9" cy="953.8" r="9" fill="none" stroke="#e6a817" stroke-width="1.5"/><circle cx="227.5" cy="956.5" r="9" fill="none" stroke="#e6a817" stroke-width="1.5"/></g></svg>