<svg xmlns="http://www.w3.org/2000/svg" width="2000mm" height="1000mm" viewBox="0 0 2000 1000"><g id="outline"><rect x="0" y="0" width="2000" height="1000" fill="none" stroke="#000" stroke-width="1"/></g><g id="channels"><path d="M 700.0 0.0 L 700.3 0.5 L 703.8 6.0 L 707.4 11.8 L 711.1 17.9 L 715.0 24.1 L 718.9 30.5 L 722.8 36.9 L 726.6 43.3 L 730.4 49.7 L 734.1 55.9 L 737.6 61.9 L 740.8 67.7 L 740.8 67.7 L 744.0 73.3 L 747.0 79.0 L 750.1 84.7 L 753.1 90.4 L 756.0 96.1 L 759.0 101.9 L 761.9 107.6 L 764.8 113.4 L 767.7 119.1 L 770.6 124.9 L 773.5 130.7 L 776.4 136.5 L 779.3 142.2 L 782.2 148.0 L 785.1 153.7 L 788.1 159.4 L 788.1 159.4 L 791.1 165.2 L 794.0 170.9 L 797.0 176.6 L 800.0 182.4 L 802.9 188.1 L 805.9 193.8 L 808.9 199.6 L 811.8 205.3 L 814.8 211.0 L 817.8 216.7 L 820.8 222.4 L 823.8 228.1 L 826.9 233.8 L 829.9 239.5 L 833.0 245.2 L 836.1 250.9 L 836.1 250.9 L 839.1 256.5 L 842.2 262.2 L 845.2 267.9 L 848.3 273.6 L 851.3 279.3 L 854.4 285.0 L 857.4 290.7 L 860.5 296.4 L 863.7 302.0 L 866.8 307.6 L 870.1 313.2 L 873.3 318.8 L 876.7 324.2 L 880.1 329.7 L 883.6 335.1 L 887.2 340.4 L 887.2 340.4 L 890.9 345.7 L 894.7 350.9 L 898.5 356.0 L 902.4 361.1 L 906.4 366.2 L 910.5 371.2 L 914.6 376.2 L 918.7 381.1 L 922.9 386.1 L 927.1 391.0 L 931.3 395.9 L 935.6 400.7 L 939.8 405.6 L 944.1 410.5 L 948.3 415.3 L 952.5 420.2 L 952.5 420.2 L 956.7 425.1 L 961.0 429.9 L 965.3 434.7 L 969.7 439.5 L 974.0 444.3 L 978.4 449.0 L 982.8 453.7 L 987.2 458.5 L 991.6 463.2 L 996.0 467.9 L 1000.3 472.7 L 1004.7 477.4 L 1009.0 482.2 L 1013.3 487.0 L 1017.6 491.9 L 1021.8 496.7 L 1021.8 496.7 L 1026.1 501.6 L 1030.3 506.5 L 1034.6 511.3 L 1038.8 516.2 L 1043.1 521.0 L 1047.4 525.9 L 1051.6 530.8 L 1055.8 535.7 L 1060.0 540.6 L 1064.1 545.6 L 1068.1 550.6 L 1072.1 555.7 L 1076.0 560.8 L 1079.9 566.0 L 1083.6 571.2 L 1087.2 576.5 L 1087.2 576.5 L 1090.7 581.9 L 1094.1 587.3 L 1097.4 592.8 L 1100.6 598.4 L 1103.7 604.0 L 1106.8 609.7 L 1109.8 615.4 L 1112.7 621.1 L 1115.6 626.9 L 1118.5 632.7 L 1121.4 638.5 L 1124.2 644.3 L 1127.1 650.1 L 1130.0 655.8 L 1132.9 661.6 L 1135.9 667.3 L 1135.9 667.3 L 1138.8 673.1 L 1141.7 678.9 L 1144.5 684.7 L 1147.2 690.5 L 1150.0 696.4 L 1152.7 702.3 L 1155.4 708.1 L 1158.1 714.0 L 1160.9 719.8 L 1163.7 725.7 L 1166.6 731.4 L 1169.6 737.1 L 1172.6 742.8 L 1175.8 748.4 L 1179.0 753.9 L 1182.5 759.3 L 1182.5 759.3 L 1186.0 764.6 L 1189.7 769.9 L 1193.4 775.1 L 1197.3 780.3 L 1201.2 785.4 L 1205.2 790.4 L 1209.3 795.4 L 1213.4 800.4 L 1217.6 805.3 L 1221.8 810.2 L 1226.1 815.1 L 1230.4 819.9 L 1234.7 824.8 L 1239.0 829.6 L 1243.3 834.4 L 1247.6 839.2 L 1247.6 839.2 L 1251.9 843.9 L 1256.3 848.7 L 1260.7 853.3 L 1265.2 858.0 L 1269.7 862.6 L 1274.2 867.2 L 1278.7 871.8 L 1283.3 876.4 L 1287.9 880.9 L 1292.5 885.5 L 1297.1 890.0 L 1301.7 894.5 L 1306.3 899.0 L 1311.0 903.5 L 1315.6 908.0 L 1320.2 912.5 L 1320.2 912.5 L 1324.8 917.1 L 1329.4 921.7 L 1333.9 926.3 L 1338.5 930.9 L 1343.0 935.5 L 1347.5 940.2 L 1352.1 944.8 L 1356.7 949.4 L 1361.3 953.9 L 1365.9 958.4 L 1370.6 962.8 L 1375.4 967.2 L 1380.2 971.5 L 1385.1 975.6 L 1390.0 979.7 L 1395.0 983.6 L 1395.0 983.6 L 1400.2 987.6 L 1405.5 991.9 L 1410.9 996.3 L 1415.4 1000.0" fill="none" stroke="#ff3ea5" stroke-width="6.0" stroke-opacity="0.9"/><path d="M 1531.2 1000.0 L 1532.6 998.2 L 1536.4 992.9 L 1540.1 987.5 L 1543.6 982.1 L 1546.8 976.7 L 1549.8 971.5 L 1549.8 971.5 L 1552.5 966.2 L 1555.0 960.7 L 1557.1 954.9 L 1559.0 948.9 L 1560.6 942.8 L 1562.1 936.5 L 1563.5 930.1 L 1564.7 923.6 L 1565.9 917.0 L 1567.0 910.4 L 1568.1 903.8 L 1569.2 897.1 L 1570.4 890.6 L 1571.7 884.0 L 1573.2 877.6 L 1574.7 871.3 L 1574.7 871.3 L 1576.4 865.1 L 1578.1 858.9 L 1579.8 852.6 L 1581.4 846.4 L 1583.1 840.2 L 1584.9 834.0 L 1586.6 827.8 L 1588.3 821.5 L 1590.1 815.3 L 1591.9 809.1 L 1593.7 803.0 L 1595.6 796.8 L 1597.4 790.6 L 1599.3 784.5 L 1601.3 778.3 L 1603.3 772.2 L 1603.3 772.2 L 1605.3 766.1 L 1607.4 760.0 L 1609.6 753.9 L 1611.9 747.8 L 1614.2 741.8 L 1616.5 735.8 L 1618.9 729.8 L 1621.2 723.7 L 1623.6 717.7 L 1625.9 711.7 L 1628.2 705.7 L 1630.5 699.6 L 1632.7 693.6 L 1634.8 687.5 L 1636.8 681.4 L 1638.8 675.3 L 1638.8 675.3 L 1640.8 669.1 L 1642.9 662.9 L 1645.0 656.7 L 1647.2 650.5 L 1649.4 644.3 L 1651.6 638.0 L 1653.7 631.8 L 1655.7 625.5 L 1657.6 619.2 L 1659.3 613.0 L 1660.8 606.7 L 1662.1 600.5 L 1663.1 594.3 L 1663.9 588.1 L 1664.3 581.9 L 1664.4 575.7 L 1664.4 575.7 L 1664.1 569.6 L 1663.5 563.4 L 1662.6 557.2 L 1661.5 550.9 L 1660.2 544.7 L 1658.6 538.5 L 1656.8 532.3 L 1654.9 526.1 L 1652.7 520.0 L 1650.4 513.9 L 1648.0 507.9 L 1645.5 501.9 L 1642.8 495.9 L 1640.1 490.1 L 1637.3 484.3 L 1634.4 478.7 L 1634.4 478.7 L 1631.5 473.1 L 1628.2 467.6 L 1624.8 462.3 L 1621.3 457.0 L 1617.5 451.8 L 1613.6 446.6 L 1609.7 441.5 L 1605.6 436.4 L 1601.5 431.4 L 1597.3 426.3 L 1593.1 421.3 L 1588.9 416.3 L 1584.8 411.3 L 1580.7 406.2 L 1576.6 401.1 L 1572.7 396.0 L 1572.7 396.0 L 1568.8 390.9 L 1564.9 385.7 L 1561.1 380.5 L 1557.3 375.3 L 1553.5 370.1 L 1549.6 364.9 L 1545.8 359.7 L 1541.9 354.5 L 1538.1 349.3 L 1534.2 344.1 L 1530.3 339.0 L 1526.3 333.9 L 1522.3 328.9 L 1518.3 323.8 L 1514.2 318.9 L 1510.1 313.9 L 1510.1 313.9 L 1505.9 309.0 L 1501.8 304.1 L 1497.6 299.1 L 1493.4 294.2 L 1489.2 289.2 L 1485.0 284.3 L 1480.7 279.4 L 1476.4 274.6 L 1472.0 269.8 L 1467.6 265.1 L 1463.1 260.5 L 1458.5 256.0 L 1453.9 251.6 L 1449.1 247.4 L 1444.2 243.2 L 1439.3 239.3 L 1439.3 239.3 L 1434.2 235.5 L 1428.9 231.9 L 1423.5 228.5 L 1418.0 225.2 L 1412.4 222.1 L 1406.7 219.1 L 1400.9 216.2 L 1395.1 213.3 L 1389.2 210.4 L 1383.4 207.6 L 1377.6 204.7 L 1371.8 201.8 L 1366.0 198.8 L 1360.4 195.7 L 1354.8 192.5 L 1349.3 189.2 L 1349.3 189.2 L 1343.8 185.8 L 1338.4 182.4 L 1332.9 179.0 L 1327.4 175.6 L 1322.0 172.2 L 1316.5 168.7 L 1311.1 165.2 L 1305.7 161.6 L 1300.4 158.0 L 1295.2 154.3 L 1290.0 150.5 L 1285.0 146.6 L 1280.0 142.6 L 1275.1 138.5 L 1270.4 134.3 L 1265.8 129.9 L 1265.8 129.9 L 1261.4 125.3 L 1257.2 120.6 L 1253.2 115.6 L 1249.3 110.5 L 1245.6 105.3 L 1241.9 100.0 L 1238.3 94.6 L 1234.7 89.1 L 1231.2 83.6 L 1227.7 78.1 L 1224.1 72.7 L 1220.5 67.3 L 1216.8 61.9 L 1213.0 56.7 L 1209.1 51.5 L 1205.1 46.5 L 1205.1 46.5 L 1200.9 41.7 L 1196.5 36.9 L 1192.1 32.2 L 1187.6 27.5 L 1183.1 23.0 L 1178.5 18.4 L 1173.9 13.9 L 1169.2 9.4 L 1164.6 4.9 L 1159.9 0.4 L 1159.5 0.0" fill="none" stroke="#ff3ea5" stroke-width="6.0" stroke-opacity="0.9"/><path d="M 1321.2 0.0 L 1325.7 4.4 L 1330.3 8.9 L 1334.9 13.4 L 1339.5 18.0 L 1344.1 22.5 L 1348.7 27.0 L 1353.3 31.5 L 1358.0 36.0 L 1362.7 40.4 L 1367.4 44.8 L 1372.1 49.2 L 1376.9 53.5 L 1381.7 57.8 L 1386.5 62.1 L 1386.5 62.1 L 1391.4 66.3 L 1396.3 70.5 L 1401.2 74.6 L 1406.2 78.7 L 1411.2 82.8 L 1416.2 86.9 L 1421.2 90.9 L 1426.3 94.9 L 1431.4 98.9 L 1436.5 102.8 L 1441.6 106.7 L 1446.7 110.7 L 1451.9 114.5 L 1457.1 118.4 L 1462.2 122.3 L 1467.4 126.1 L 1467.4 126.1 L 1472.6 129.9 L 1477.8 133.7 L 1483.1 137.4 L 1488.4 141.1 L 1493.7 144.7 L 1499.0 148.4 L 1504.4 152.0 L 1509.7 155.6 L 1515.1 159.2 L 1520.5 162.8 L 1525.8 166.4 L 1531.2 170.0 L 1536.5 173.6 L 1541.9 177.2 L 1547.2 180.8 L 1552.5 184.5 L 1552.5 184.5 L 1557.8 188.2 L 1563.1 191.9 L 1568.4 195.6 L 1573.6 199.3 L 1578.9 203.0 L 1584.2 206.7 L 1589.5 210.4 L 1594.8 214.2 L 1600.0 217.9 L 1605.3 221.6 L 1610.5 225.4 L 1615.8 229.1 L 1621.0 232.9 L 1626.2 236.7 L 1631.4 240.5 L 1636.7 244.3 L 1636.7 244.3 L 1641.8 248.1 L 1647.0 252.0 L 1652.2 255.8 L 1657.3 259.7 L 1662.5 263.6 L 1667.6 267.5 L 1672.7 271.4 L 1677.9 275.3 L 1683.0 279.3 L 1688.1 283.2 L 1693.2 287.1 L 1698.3 291.0 L 1703.5 295.0 L 1708.6 298.9 L 1713.7 302.8 L 1718.9 306.7 L 1718.9 306.7 L 1724.1 310.5 L 1729.3 314.3 L 1734.6 318.0 L 1740.0 321.8 L 1745.4 325.4 L 1750.8 329.1 L 1756.1 332.8 L 1761.5 336.5 L 1766.8 340.2 L 1772.0 344.0 L 1777.2 347.9 L 1782.3 351.8 L 1787.3 355.9 L 1792.1 360.0 L 1796.8 364.3 L 1801.4 368.7 L 1801.4 368.7 L 1805.9 373.2 L 1810.4 377.8 L 1815.0 382.5 L 1819.5 387.2 L 1824.0 392.0 L 1828.4 396.9 L 1832.7 401.8 L 1836.9 406.9 L 1840.9 412.0 L 1844.7 417.2 L 1848.3 422.5 L 1851.7 427.8 L 1854.8 433.3 L 1857.5 438.8 L 1859.9 444.4 L 1862.0 450.1 L 1862.0 450.1 L 1863.7 455.9 L 1864.9 461.9 L 1865.8 468.0 L 1866.4 474.2 L 1866.7 480.6 L 1866.7 487.0 L 1866.5 493.5 L 1866.2 500.0 L 1865.6 506.6 L 1865.0 513.2 L 1864.3 519.8 L 1863.6 526.4 L 1862.9 533.0 L 1862.2 539.6 L 1861.6 546.1 L 1861.1 552.5 L 1861.1 552.5 L 1860.6 558.9 L 1860.0 565.3 L 1859.4 571.7 L 1858.7 578.1 L 1857.9 584.5 L 1857.1 590.9 L 1856.2 597.3 L 1855.3 603.7 L 1854.4 610.1 L 1853.4 616.5 L 1852.5 622.9 L 1851.5 629.3 L 1850.6 635.7 L 1849.6 642.1 L 1848.7 648.5 L 1847.9 654.9 L 1847.9 654.9 L 1847.0 661.3 L 1846.1 667.7 L 1845.3 674.1 L 1844.4 680.5 L 1843.6 686.8 L 1842.7 693.2 L 1841.9 699.6 L 1841.0 706.0 L 1840.1 712.4 L 1839.2 718.8 L 1838.3 725.2 L 1837.4 731.6 L 1836.4 738.0 L 1835.4 744.3 L 1834.4 750.7 L 1833.4 757.1 L 1833.4 757.1 L 1832.3 763.4 L 1831.2 769.8 L 1830.1 776.1 L 1829.0 782.5 L 1827.9 788.9 L 1826.7 795.2 L 1825.6 801.6 L 1824.4 807.9 L 1823.2 814.2 L 1821.9 820.6 L 1820.7 826.9 L 1819.4 833.2 L 1818.0 839.5 L 1816.6 845.8 L 1815.2 852.1 L 1813.8 858.4 L 1813.8 858.4 L 1812.3 864.7 L 1810.7 870.9 L 1809.2 877.2 L 1807.6 883.4 L 1805.9 889.7 L 1804.3 895.9 L 1802.6 902.1 L 1800.8 908.3 L 1799.1 914.5 L 1797.3 920.7 L 1795.5 926.9 L 1793.7 933.1 L 1791.8 939.3 L 1790.0 945.5 L 1788.1 951.6 L 1786.2 957.8 L 1786.2 957.8 L 1784.2 963.9 L 1782.0 970.1 L 1779.7 976.2 L 1777.3 982.3 L 1774.8 988.3 L 1772.3 994.4 L 1769.9 1000.0" fill="none" stroke="#ff3ea5" stroke-width="6.0" stroke-opacity="0.9"/><path d="M 1114.6 1000.0 L 1114.2 999.3 L 1111.2 993.6 L 1108.2 987.9 L 1105.1 982.2 L 1102.1 976.6 L 1099.0 970.9 L 1095.8 965.3 L 1095.8 965.3 L 1092.7 959.6 L 1089.5 954.0 L 1086.4 948.4 L 1083.2 942.8 L 1080.0 937.2 L 1076.7 931.6 L 1073.5 926.0 L 1070.2 920.4 L 1067.0 914.9 L 1063.7 909.3 L 1060.4 903.8 L 1057.0 898.3 L 1053.7 892.8 L 1050.3 887.3 L 1046.9 881.8 L 1043.5 876.3 L 1043.5 876.3 L 1040.0 870.9 L 1036.5 865.5 L 1033.0 860.1 L 1029.4 854.7 L 1025.8 849.4 L 1022.2 844.0 L 1018.5 838.7 L 1014.9 833.4 L 1011.2 828.0 L 1007.6 822.7 L 1003.9 817.4 L 1000.3 812.1 L 996.6 806.8 L 993.0 801.5 L 989.3 796.1 L 985.7 790.8 L 985.7 790.8 L 982.1 785.4 L 978.5 780.1 L 974.9 774.7 L 971.3 769.4 L 967.6 764.1 L 964.0 758.7 L 960.4 753.4 L 956.8 748.0 L 953.1 742.7 L 949.6 737.3 L 946.0 732.0 L 942.4 726.6 L 938.9 721.2 L 935.4 715.8 L 931.9 710.3 L 928.5 704.9 L 928.5 704.9 L 925.1 699.4 L 921.6 694.0 L 918.2 688.5 L 914.7 683.0 L 911.3 677.6 L 907.9 672.1 L 904.5 666.6 L 901.1 661.0 L 897.8 655.5 L 894.5 649.9 L 891.3 644.3 L 888.2 638.7 L 885.1 633.1 L 882.1 627.4 L 879.2 621.6 L 876.4 615.9 L 876.4 615.9 L 873.7 610.0 L 871.1 604.2 L 868.6 598.2 L 866.1 592.3 L 863.8 586.3 L 861.5 580.3 L 859.2 574.2 L 857.1 568.1 L 854.9 562.1 L 852.8 556.0 L 850.7 549.8 L 848.6 543.7 L 846.6 537.6 L 844.5 531.5 L 842.4 525.4 L 840.4 519.3 L 840.4 519.3 L 838.3 513.2 L 836.3 507.0 L 834.5 500.8 L 832.6 494.6 L 830.9 488.4 L 829.1 482.2 L 827.4 475.9 L 825.6 469.7 L 823.8 463.5 L 822.0 457.3 L 820.1 451.1 L 818.1 445.0 L 816.1 438.9 L 813.9 432.8 L 811.6 426.8 L 809.2 420.9 L 809.2 420.9 L 806.6 415.0 L 803.9 409.2 L 801.1 403.4 L 798.3 397.7 L 795.3 392.0 L 792.3 386.3 L 789.2 380.6 L 786.1 375.0 L 782.9 369.4 L 779.6 363.8 L 776.3 358.3 L 773.0 352.7 L 769.7 347.2 L 766.3 341.7 L 762.9 336.2 L 759.5 330.8 L 759.5 330.8 L 756.1 325.3 L 752.6 319.9 L 749.1 314.5 L 745.5 309.2 L 741.8 303.9 L 738.2 298.6 L 734.4 293.3 L 730.7 288.1 L 727.0 282.8 L 723.2 277.5 L 719.5 272.3 L 715.7 267.0 L 712.0 261.7 L 708.4 256.4 L 704.7 251.1 L 701.1 245.7 L 701.1 245.7 L 697.6 240.4 L 694.0 235.0 L 690.4 229.6 L 686.7 224.3 L 683.1 218.9 L 679.5 213.5 L 675.9 208.1 L 672.3 202.7 L 668.8 197.3 L 665.3 191.8 L 661.9 186.4 L 658.5 180.9 L 655.2 175.4 L 651.9 169.9 L 648.8 164.3 L 645.7 158.8 L 645.7 158.8 L 642.6 153.2 L 639.4 147.5 L 636.1 141.9 L 632.8 136.2 L 629.4 130.5 L 626.1 124.8 L 622.9 119.1 L 619.8 113.4 L 616.9 107.6 L 614.2 101.8 L 611.8 96.1 L 609.6 90.3 L 607.8 84.4 L 606.4 78.6 L 605.5 72.7 L 605.0 66.9 L 605.0 66.9 L 605.1 60.8 L 605.8 54.4 L 607.1 47.8 L 608.8 40.9 L 610.9 34.0 L 613.4 27.0 L 616.1 20.0 L 618.9 13.2 L 621.9 6.5 L 624.8 0.0 L 624.8 0.0" fill="none" stroke="#ff3ea5" stroke-width="6.0" stroke-opacity="0.9"/></g><g id="clips"><circle cx="700.0" cy="0.0" r="2" fill="none" stroke="#0b5" stroke-width="0.6"/><circle cx="1415.4" cy="1000.0" r="2" fill="none" stroke="#0b5" stroke-width="0.6"/><circle cx="1531.2" cy="1000.0" r="2" fill="none" stroke="#0b5" stroke-width="0.6"/><circle cx="1159.5" cy="0.0" r="2" fill="none" stroke="#0b5" stroke-width="0.6"/><circle cx="1321.2" cy="0.0" r="2" fill="none" stroke="#0b5" stroke-width="0.6"/><circle cx="1769.9" cy="1000.0" r="2" fill="none" stroke="#0b5" stroke-width="0.6"/><circle cx="1114.6" cy="1000.0" r="2" fill="none" stroke="#0b5" stroke-width="0.6"/><circle cx="624.8" cy="0.0" r="2" fill="none" stroke="#0b5" stroke-width="0.6"/></g><g id="power"><circle cx="700.0" cy="0.0" r="5" fill="none" stroke="#e33" stroke-width="1"/><circle cx="1415.4" cy="1000.0" r="5" fill="none" stroke="#e33" stroke-width="1"/><circle cx="1531.2" cy="1000.0" r="5" fill="none" stroke="#e33" stroke-width="1"/><circle cx="1159.4" cy="0.0" r="5" fill="none" stroke="#e33" stroke-width="1"/><circle cx="1321.2" cy="0.0" r="5" fill="none" stroke="#e33" stroke-width="1"/><circle cx="1769.9" cy="1000.0" r="5" fill="none" stroke="#e33" stroke-width="1"/><circle cx="1114.6" cy="1000.0" r="5" fill="none" stroke="#e33" stroke-width="1"/><circle cx="624.8" cy="0.0" r="5" fill="none" stroke="#e33" stroke-width="1"/></g></svg>