<svg xmlns="http://www.w3.org/2000/svg" width="2000mm" height="1000mm" viewBox="0 0 2000 1000"><g id="outline"><rect x="0" y="0" width="2000" height="1000" fill="none" stroke="#000" stroke-width="1"/></g><g id="channels"><path d="M 470.0 1000.0 L 469.5 997.6 L 469.6 993.9 L 469.6 993.9 L 470.9 990.3 L 473.3 986.7 L 476.6 983.2 L 480.7 979.8 L 485.6 976.4 L 491.1 973.3 L 497.2 970.3 L 503.6 967.6 L 510.3 965.1 L 517.2 963.0 L 524.1 961.2 L 531.0 959.7 L 537.7 958.7 L 544.2 958.2 L 550.2 958.2 L 555.8 958.6 L 555.8 958.6 L 561.1 959.7 L 566.3 961.5 L 571.6 963.8 L 576.9 966.6 L 582.2 969.9 L 587.4 973.5 L 592.6 977.5 L 597.8 981.8 L 603.0 986.3 L 608.2 990.9 L 613.3 995.6 L 618.1 1000.0" fill="none" stroke="#ff3ea5" stroke-width="6.0" stroke-opacity="0.9"/><path d="M 666.6 0.0 L 661.5 3.5 L 656.3 7.5 L 651.6 11.6 L 647.5 15.7 L 644.0 19.9 L 641.4 24.1 L 639.5 28.3 L 639.5 28.3 L 638.5 32.7 L 638.2 37.5 L 638.5 42.4 L 639.4 47.6 L 640.8 52.9 L 642.8 58.2 L 645.2 63.6 L 648.1 69.0 L 651.3 74.4 L 654.8 79.5 L 658.6 84.6 L 662.7 89.4 L 666.9 93.9 L 671.2 98.0 L 675.7 101.8 L 680.2 105.2 L 680.2 105.2 L 684.9 108.1 L 690.1 110.6 L 695.6 112.8 L 701.6 114.7 L 707.8 116.4 L 714.3 117.8 L 720.9 119.1 L 727.8 120.2 L 734.8 121.2 L 741.9 122.0 L 749.0 122.9 L 756.1 123.7 L 763.1 124.6 L 770.0 125.5 L 776.8 126.5 L 783.4 127.7 L 783.4 127.7 L 789.9 128.9 L 796.4 130.1 L 802.9 131.4 L 809.4 132.6 L 815.9 133.8 L 822.4 135.0 L 828.9 136.1 L 835.5 137.3 L 842.0 138.3 L 848.5 139.4 L 855.1 140.4 L 861.6 141.3 L 868.1 142.2 L 874.7 143.0 L 881.2 143.8 L 887.8 144.4 L 887.8 144.4 L 894.4 145.1 L 901.0 145.7 L 907.6 146.4 L 914.2 147.0 L 920.8 147.6 L 927.5 148.2 L 934.1 148.7 L 940.7 149.1 L 947.4 149.4 L 954.0 149.6 L 960.6 149.8 L 967.2 149.7 L 973.8 149.6 L 980.3 149.2 L 986.8 148.7 L 993.3 148.0 L 993.3 148.0 L 999.7 147.2 L 1006.2 146.2 L 1012.6 145.0 L 1019.1 143.7 L 1025.5 142.3 L 1032.0 140.7 L 1038.4 139.1 L 1044.7 137.3 L 1051.1 135.4 L 1057.4 133.3 L 1063.7 131.2 L 1069.9 129.0 L 1076.1 126.7 L 1082.2 124.3 L 1088.3 121.8 L 1094.3 119.2 L 1094.3 119.2 L 1100.2 116.5 L 1106.1 113.6 L 1111.9 110.5 L 1117.6 107.3 L 1123.3 104.0 L 1129.0 100.6 L 1134.6 97.1 L 1140.2 93.5 L 1145.7 89.8 L 1151.3 86.1 L 1156.8 82.4 L 1162.3 78.8 L 1167.9 75.1 L 1173.4 71.4 L 1179.0 67.9 L 1184.6 64.4 L 1184.6 64.4 L 1190.2 60.9 L 1195.8 57.3 L 1201.4 53.7 L 1206.9 50.1 L 1212.5 46.5 L 1218.0 42.9 L 1223.5 39.2 L 1229.1 35.6 L 1234.6 32.0 L 1240.2 28.5 L 1245.8 25.0 L 1251.4 21.5 L 1257.1 18.1 L 1262.8 14.8 L 1268.5 11.5 L 1274.3 8.4 L 1274.3 8.4 L 1280.2 5.4 L 1286.1 2.5 L 1291.3 0.0" fill="none" stroke="#2b6bff" stroke-width="6.0" stroke-opacity="0.9"/><path d="M 1598.2 0.0 L 1592.5 2.8 L 1586.6 5.7 L 1580.8 8.8 L 1580.8 8.8 L 1575.0 11.9 L 1569.3 15.2 L 1563.7 18.6 L 1558.1 22.1 L 1552.5 25.6 L 1547.0 29.2 L 1541.5 32.9 L 1536.0 36.6 L 1530.5 40.4 L 1525.1 44.2 L 1519.7 48.0 L 1514.2 51.8 L 1508.8 55.5 L 1503.4 59.3 L 1497.9 63.1 L 1492.4 66.7 L 1492.4 66.7 L 1486.9 70.4 L 1481.5 74.1 L 1476.0 77.9 L 1470.5 81.6 L 1465.1 85.3 L 1459.7 89.1 L 1454.2 92.8 L 1448.8 96.6 L 1443.3 100.3 L 1437.9 104.1 L 1432.4 107.8 L 1427.0 111.5 L 1421.5 115.3 L 1416.0 118.9 L 1410.5 122.6 L 1405.0 126.2 L 1405.0 126.2 L 1399.5 129.8 L 1393.9 133.4 L 1388.3 137.0 L 1382.8 140.5 L 1377.2 144.1 L 1371.6 147.6 L 1366.0 151.1 L 1360.4 154.6 L 1354.8 158.1 L 1349.2 161.6 L 1343.6 165.1 L 1337.9 168.6 L 1332.3 172.0 L 1326.7 175.5 L 1321.1 179.0 L 1315.4 182.4 L 1315.4 182.4 L 1309.8 185.9 L 1304.2 189.4 L 1298.5 192.8 L 1292.9 196.3 L 1287.3 199.8 L 1281.7 203.2 L 1276.0 206.7 L 1270.4 210.1 L 1264.7 213.5 L 1259.1 216.9 L 1253.4 220.3 L 1247.7 223.7 L 1242.0 227.0 L 1236.3 230.3 L 1230.5 233.6 L 1224.8 236.9 L 1224.8 236.9 L 1219.0 240.1 L 1213.2 243.3 L 1207.4 246.5 L 1201.7 249.7 L 1195.9 252.9 L 1190.0 256.0 L 1184.2 259.1 L 1178.4 262.2 L 1172.5 265.3 L 1166.6 268.3 L 1160.7 271.3 L 1154.8 274.3 L 1148.9 277.2 L 1142.9 280.0 L 1136.9 282.8 L 1130.9 285.5 L 1130.9 285.5 L 1124.9 288.2 L 1118.9 290.9 L 1112.8 293.6 L 1106.7 296.2 L 1100.6 298.8 L 1094.5 301.4 L 1088.4 303.9 L 1082.2 306.4 L 1076.1 308.8 L 1069.9 311.1 L 1063.7 313.3 L 1057.4 315.5 L 1051.2 317.6 L 1044.9 319.5 L 1038.6 321.4 L 1032.2 323.1 L 1032.2 323.1 L 1025.9 324.8 L 1019.5 326.3 L 1013.1 327.7 L 1006.6 329.0 L 1000.1 330.2 L 993.6 331.3 L 987.1 332.3 L 980.5 333.3 L 974.0 334.2 L 967.4 335.0 L 960.8 335.8 L 954.2 336.6 L 947.7 337.3 L 941.1 338.0 L 934.5 338.7 L 927.9 339.4 L 927.9 339.4 L 921.4 340.0 L 914.8 340.6 L 908.2 341.1 L 901.6 341.5 L 895.0 341.9 L 888.4 342.3 L 881.8 342.6 L 875.2 342.9 L 868.6 343.1 L 862.0 343.4 L 855.4 343.6 L 848.8 343.8 L 842.2 344.1 L 835.6 344.3 L 829.0 344.6 L 822.3 344.9 L 822.3 344.9 L 815.7 345.2 L 809.1 345.5 L 802.5 345.9 L 795.9 346.2 L 789.3 346.5 L 782.7 346.8 L 776.1 347.1 L 769.5 347.5 L 762.9 347.8 L 756.3 348.1 L 749.7 348.3 L 743.1 348.6 L 736.5 348.9 L 729.9 349.1 L 723.3 349.3 L 716.7 349.6 L 716.7 349.6 L 710.1 349.8 L 703.5 350.0 L 696.9 350.2 L 690.3 350.5 L 683.7 350.7 L 677.0 351.0 L 670.4 351.2 L 663.8 351.4 L 657.2 351.6 L 650.6 351.7 L 644.0 351.8 L 637.4 351.8 L 630.8 351.8 L 624.2 351.7 L 617.6 351.5 L 611.0 351.2 L 611.0 351.2 L 604.4 350.9 L 597.8 350.5 L 591.2 350.1 L 584.6 349.6 L 578.1 349.0 L 571.5 348.5 L 564.9 347.8 L 558.3 347.1 L 551.7 346.4 L 545.2 345.6 L 538.6 344.7 L 532.1 343.8 L 525.5 342.8 L 519.0 341.7 L 512.5 340.6 L 506.1 339.4 L 506.1 339.4 L 499.6 338.2 L 493.1 336.9 L 486.5 335.6 L 480.0 334.3 L 473.5 333.0 L 467.0 331.6 L 460.4 330.1 L 454.0 328.5 L 447.5 326.9 L 441.1 325.1 L 434.8 323.2 L 428.5 321.3 L 422.3 319.1 L 416.1 316.8 L 410.1 314.4 L 404.1 311.8 L 404.1 311.8 L 398.2 309.0 L 392.4 306.1 L 386.6 303.1 L 380.8 299.9 L 375.1 296.6 L 369.5 293.2 L 363.9 289.6 L 358.4 286.0 L 353.0 282.2 L 347.6 278.3 L 342.3 274.4 L 337.1 270.3 L 332.0 266.2 L 327.0 261.9 L 322.1 257.6 L 317.3 253.2 L 317.3 253.2 L 312.6 248.7 L 308.1 244.0 L 303.7 239.2 L 299.4 234.2 L 295.2 229.1 L 291.1 223.9 L 287.1 218.7 L 283.1 213.3 L 279.2 207.9 L 275.4 202.5 L 271.5 197.0 L 267.7 191.6 L 263.8 186.2 L 259.9 180.8 L 256.0 175.4 L 252.0 170.1 L 252.0 170.1 L 248.0 164.8 L 244.1 159.5 L 240.2 154.2 L 236.3 148.9 L 232.4 143.5 L 228.6 138.1 L 224.7 132.7 L 220.9 127.4 L 217.0 122.0 L 213.1 116.6 L 209.2 111.3 L 205.3 106.0 L 201.3 100.7 L 197.3 95.5 L 193.3 90.3 L 189.1 85.1 L 189.1 85.1 L 185.0 79.9 L 180.9 74.7 L 176.8 69.5 L 172.7 64.3 L 168.5 59.0 L 164.4 53.8 L 160.2 48.6 L 155.9 43.5 L 151.7 38.4 L 147.3 33.4 L 142.9 28.5 L 138.4 23.7 L 133.8 19.0 L 129.1 14.5 L 124.2 10.1 L 119.3 5.9 L 119.3 5.9 L 114.2 1.8 L 111.9 0.0" fill="none" stroke="#2b6bff" stroke-width="6.0" stroke-opacity="0.9"/></g><g id="clips"><circle cx="470.0" cy="1000.0" r="2" fill="none" stroke="#0b5" stroke-width="0.6"/><circle cx="618.1" cy="1000.0" r="2" fill="none" stroke="#0b5" stroke-width="0.6"/><circle cx="666.6" cy="0.0" r="2" fill="none" stroke="#0b5" stroke-width="0.6"/><circle cx="1291.3" cy="0.0" r="2" fill="none" stroke="#0b5" stroke-width="0.6"/><circle cx="1598.2" cy="0.0" r="2" fill="none" stroke="#0b5" stroke-width="0.6"/><circle cx="111.9" cy="0.0" r="2" fill="none" stroke="#0b5" stroke-width="0.6"/></g><g id="power"><circle cx="470.0" cy="1000.0" r="5" fill="none" stroke="#e33" stroke-width="1"/><circle cx="618.0" cy="1000.0" r="5" fill="none" stroke="#e33" stroke-width="1"/><circle cx="666.7" cy="0.0" r="5" fill="none" stroke="#e33" stroke-width="1"/><circle cx="1291.4" cy="0.0" r="5" fill="none" stroke="#e33" stroke-width="1"/><circle cx="1598.3" cy="0.0" r="5" fill="none" stroke="#e33" stroke-width="1"/><circle cx="111.8" cy="0.0" r="5" fill="none" stroke="#e33" stroke-width="1"/></g></svg>