<svg xmlns="http://www.w3.org/2000/svg" width="2000mm" height="1000mm" viewBox="0 0 2000 1000"><g id="outline"><rect x="0" y="0" width="2000" height="1000" fill="none" stroke="#000" stroke-width="1"/></g><g id="channels"><path d="M 687.3 979.5 L 689.2 982.6 L 691.5 986.3 L 694.1 990.6 L 697.1 995.3 L 700.0 1000.0" fill="none" stroke="#ff3ea5" stroke-width="6.0" stroke-opacity="0.9"/><path d="M 1159.5 1000.0 L 1155.3 995.9 L 1150.7 991.4 L 1146.2 986.9 L 1141.7 982.2 L 1137.3 977.6 L 1133.0 972.8 L 1133.0 972.8 L 1128.6 968.0 L 1123.7 962.9 L 1118.5 957.7 L 1113.1 952.4 L 1107.6 947.1 L 1102.1 941.7 L 1096.7 936.3 L 1091.5 931.0 L 1086.6 925.7 L 1082.1 920.5 L 1078.1 915.5 L 1074.8 910.7 L 1072.1 906.0 L 1070.3 901.7 L 1069.5 897.6 L 1069.6 893.9 L 1069.6 893.9 L 1070.9 890.3 L 1073.3 886.7 L 1076.6 883.2 L 1080.7 879.8 L 1085.6 876.4 L 1091.1 873.3 L 1097.2 870.3 L 1103.6 867.6 L 1110.3 865.1 L 1117.2 863.0 L 1124.1 861.2 L 1131.0 859.7 L 1137.7 858.7 L 1144.2 858.2 L 1150.2 858.2 L 1155.8 858.6 L 1155.8 858.6 L 1161.1 859.7 L 1166.3 861.5 L 1171.6 863.8 L 1176.9 866.6 L 1182.2 869.9 L 1187.4 873.5 L 1192.6 877.5 L 1197.8 881.8 L 1203.0 886.3 L 1208.2 890.9 L 1213.3 895.6 L 1218.4 900.3 L 1223.5 905.0 L 1228.5 909.7 L 1233.4 914.1 L 1238.3 918.4 L 1238.3 918.4 L 1243.2 922.6 L 1247.9 926.8 L 1252.6 931.2 L 1257.3 935.6 L 1261.9 940.1 L 1266.5 944.7 L 1271.0 949.3 L 1275.6 953.9 L 1280.1 958.5 L 1284.6 963.2 L 1289.1 967.9 L 1293.6 972.5 L 1298.1 977.1 L 1302.6 981.8 L 1307.2 986.3 L 1311.8 990.8 L 1311.8 990.8 L 1316.5 995.3 L 1321.1 999.9 L 1321.2 1000.0" fill="none" stroke="#ff3ea5" stroke-width="6.0" stroke-opacity="0.9"/><path d="M 624.8 1000.0 L 624.8 1000.0 L 627.6 993.9 L 630.3 988.2 L 632.8 983.0 L 635.0 978.3 L 636.7 974.3 L 638.0 970.9" fill="none" stroke="#ff3ea5" stroke-width="6.0" stroke-opacity="0.9"/><path d="M 1273.6 0.0 L 1275.7 1.8 L 1280.2 5.2 L 1280.2 5.2 L 1284.9 8.1 L 1290.1 10.6 L 1295.6 12.8 L 1301.6 14.7 L 1307.8 16.4 L 1314.3 17.8 L 1320.9 19.1 L 1327.8 20.2 L 1334.8 21.2 L 1341.9 22.0 L 1349.0 22.9 L 1356.1 23.7 L 1363.1 24.6 L 1370.0 25.5 L 1376.8 26.5 L 1383.4 27.7 L 1383.4 27.7 L 1389.9 28.9 L 1396.4 30.1 L 1402.9 31.4 L 1409.4 32.6 L 1415.9 33.8 L 1422.4 35.0 L 1428.9 36.1 L 1435.5 37.3 L 1442.0 38.3 L 1448.5 39.4 L 1455.1 40.4 L 1461.6 41.3 L 1468.1 42.2 L 1474.7 43.0 L 1481.2 43.8 L 1487.8 44.4 L 1487.8 44.4 L 1494.4 45.1 L 1501.0 45.7 L 1507.6 46.4 L 1514.2 47.0 L 1520.8 47.6 L 1527.5 48.2 L 1534.1 48.7 L 1540.7 49.1 L 1547.4 49.4 L 1554.0 49.6 L 1560.6 49.8 L 1567.2 49.7 L 1573.8 49.6 L 1580.3 49.2 L 1586.8 48.7 L 1593.3 48.0 L 1593.3 48.0 L 1599.7 47.2 L 1606.2 46.2 L 1612.6 45.0 L 1619.1 43.7 L 1625.5 42.3 L 1632.0 40.7 L 1638.4 39.1 L 1644.7 37.3 L 1651.1 35.4 L 1657.4 33.3 L 1663.7 31.2 L 1669.9 29.0 L 1676.1 26.7 L 1682.2 24.3 L 1688.3 21.8 L 1694.3 19.2 L 1694.3 19.2 L 1700.2 16.5 L 1706.1 13.6 L 1711.9 10.5 L 1717.6 7.3 L 1723.3 4.0 L 1729.0 0.6 L 1730.0 0.0" fill="none" stroke="#2b6bff" stroke-width="6.0" stroke-opacity="0.9"/><path d="M 2000.0 29.5 L 1999.5 29.8 L 1993.9 33.4 L 1988.3 37.0 L 1982.8 40.5 L 1977.2 44.1 L 1971.6 47.6 L 1966.0 51.1 L 1960.4 54.6 L 1954.8 58.1 L 1949.2 61.6 L 1943.6 65.1 L 1937.9 68.6 L 1932.3 72.0 L 1926.7 75.5 L 1921.1 79.0 L 1915.4 82.4 L 1915.4 82.4 L 1909.8 85.9 L 1904.2 89.4 L 1898.5 92.8 L 1892.9 96.3 L 1887.3 99.8 L 1881.7 103.2 L 1876.0 106.7 L 1870.4 110.1 L 1864.7 113.5 L 1859.1 116.9 L 1853.4 120.3 L 1847.7 123.7 L 1842.0 127.0 L 1836.3 130.3 L 1830.5 133.6 L 1824.8 136.9 L 1824.8 136.9 L 1819.0 140.1 L 1813.2 143.3 L 1807.4 146.5 L 1801.7 149.7 L 1795.9 152.9 L 1790.0 156.0 L 1784.2 159.1 L 1778.4 162.2 L 1772.5 165.3 L 1766.6 168.3 L 1760.7 171.3 L 1754.8 174.3 L 1748.9 177.2 L 1742.9 180.0 L 1736.9 182.8 L 1730.9 185.5 L 1730.9 185.5 L 1724.9 188.2 L 1718.9 190.9 L 1712.8 193.6 L 1706.7 196.2 L 1700.6 198.8 L 1694.5 201.4 L 1688.4 203.9 L 1682.2 206.4 L 1676.1 208.8 L 1669.9 211.1 L 1663.7 213.3 L 1657.4 215.5 L 1651.2 217.6 L 1644.9 219.5 L 1638.6 221.4 L 1632.2 223.1 L 1632.2 223.1 L 1625.9 224.8 L 1619.5 226.3 L 1613.1 227.7 L 1606.6 229.0 L 1600.1 230.2 L 1593.6 231.3 L 1587.1 232.3 L 1580.5 233.3 L 1574.0 234.2 L 1567.4 235.0 L 1560.8 235.8 L 1554.2 236.6 L 1547.7 237.3 L 1541.1 238.0 L 1534.5 238.7 L 1527.9 239.4 L 1527.9 239.4 L 1521.4 240.0 L 1514.8 240.6 L 1508.2 241.1 L 1501.6 241.5 L 1495.0 241.9 L 1488.4 242.3 L 1481.8 242.6 L 1475.2 242.9 L 1468.6 243.1 L 1462.0 243.4 L 1455.4 243.6 L 1448.8 243.8 L 1442.2 244.1 L 1435.6 244.3 L 1429.0 244.6 L 1422.3 244.9 L 1422.3 244.9 L 1415.7 245.2 L 1409.1 245.5 L 1402.5 245.9 L 1395.9 246.2 L 1389.3 246.5 L 1382.7 246.8 L 1376.1 247.1 L 1369.5 247.5 L 1362.9 247.8 L 1356.3 248.1 L 1349.7 248.3 L 1343.1 248.6 L 1336.5 248.9 L 1329.9 249.1 L 1323.3 249.3 L 1316.7 249.6 L 1316.7 249.6 L 1310.1 249.8 L 1303.5 250.0 L 1296.9 250.2 L 1290.3 250.5 L 1283.7 250.7 L 1277.0 251.0 L 1270.4 251.2 L 1263.8 251.4 L 1257.2 251.6 L 1250.6 251.7 L 1244.0 251.8 L 1237.4 251.8 L 1230.8 251.8 L 1224.2 251.7 L 1217.6 251.5 L 1211.0 251.2 L 1211.0 251.2 L 1204.4 250.9 L 1197.8 250.5 L 1191.2 250.1 L 1184.6 249.6 L 1178.1 249.0 L 1171.5 248.5 L 1164.9 247.8 L 1158.3 247.1 L 1151.7 246.4 L 1145.2 245.6 L 1138.6 244.7 L 1132.1 243.8 L 1125.5 242.8 L 1119.0 241.7 L 1112.5 240.6 L 1106.1 239.4 L 1106.1 239.4 L 1099.6 238.2 L 1093.1 236.9 L 1086.5 235.6 L 1080.0 234.3 L 1073.5 233.0 L 1067.0 231.6 L 1060.4 230.1 L 1054.0 228.5 L 1047.5 226.9 L 1041.1 225.1 L 1034.8 223.2 L 1028.5 221.3 L 1022.3 219.1 L 1016.1 216.8 L 1010.1 214.4 L 1004.1 211.8 L 1004.1 211.8 L 998.2 209.0 L 992.4 206.1 L 986.6 203.1 L 980.8 199.9 L 975.1 196.6 L 969.5 193.2 L 963.9 189.6 L 958.4 186.0 L 953.0 182.2 L 947.6 178.3 L 942.3 174.4 L 937.1 170.3 L 932.0 166.2 L 927.0 161.9 L 922.1 157.6 L 917.3 153.2 L 917.3 153.2 L 912.6 148.7 L 908.1 144.0 L 903.7 139.2 L 899.4 134.2 L 895.2 129.1 L 891.1 123.9 L 887.1 118.7 L 883.1 113.3 L 879.2 107.9 L 875.4 102.5 L 871.5 97.0 L 867.7 91.6 L 863.8 86.2 L 859.9 80.8 L 856.0 75.4 L 852.0 70.1 L 852.0 70.1 L 848.0 64.8 L 844.1 59.5 L 840.2 54.2 L 836.3 48.9 L 832.4 43.5 L 828.6 38.1 L 824.7 32.7 L 820.9 27.4 L 817.0 22.0 L 813.1 16.6 L 809.2 11.3 L 805.3 6.0 L 801.3 0.7 L 800.8 0.0" fill="none" stroke="#2b6bff" stroke-width="6.0" stroke-opacity="0.9"/></g><g id="clips"><circle cx="687.3" cy="979.5" r="2" fill="none" stroke="#0b5" stroke-width="0.6"/><circle cx="1159.5" cy="1000.0" r="2" fill="none" stroke="#0b5" stroke-width="0.6"/><circle cx="1321.2" cy="1000.0" r="2" fill="none" stroke="#0b5" stroke-width="0.6"/><circle cx="624.8" cy="1000.0" r="2" fill="none" stroke="#0b5" stroke-width="0.6"/><circle cx="1273.6" cy="0.0" r="2" fill="none" stroke="#0b5" stroke-width="0.6"/><circle cx="1730.0" cy="0.0" r="2" fill="none" stroke="#0b5" stroke-width="0.6"/><circle cx="2000.0" cy="29.5" r="2" fill="none" stroke="#0b5" stroke-width="0.6"/><circle cx="800.8" cy="0.0" r="2" fill="none" stroke="#0b5" stroke-width="0.6"/></g><g id="power"><circle cx="700.0" cy="1000.0" r="5" fill="none" stroke="#e33" stroke-width="1"/><circle cx="1159.4" cy="1000.0" r="5" fill="none" stroke="#e33" stroke-width="1"/><circle cx="1321.2" cy="1000.0" r="5" fill="none" stroke="#e33" stroke-width="1"/><circle cx="624.8" cy="1000.0" r="5" fill="none" stroke="#e33" stroke-width="1"/><circle cx="1273.5" cy="0.0" r="5" fill="none" stroke="#e33" stroke-width="1"/><circle cx="1730.0" cy="0.0" r="5" fill="none" stroke="#e33" stroke-width="1"/><circle cx="2000.0" cy="29.5" r="5" fill="none" stroke="#e33" stroke-width="1"/><circle cx="800.7" cy="0.0" r="5" fill="none" stroke="#e33" stroke-width="1"/></g></svg>