<svg xmlns="http://www.w3.org/2000/svg" width="2000mm" height="1000mm" viewBox="0 0 2000 1000"><g id="outline"><rect x="0" y="0" width="2000" height="1000" fill="none" stroke="#000" stroke-width="1"/></g><g id="channels"><path d="M 1530.1 1000.0 L 1529.6 999.6 L 1524.5 995.6 L 1519.4 991.6 L 1514.4 987.6 L 1509.3 983.5 L 1504.4 979.4 L 1499.5 975.2 L 1494.7 970.9 L 1490.0 966.5 L 1490.0 966.5 L 1485.3 962.0 L 1480.8 957.5 L 1476.2 952.9 L 1471.8 948.2 L 1467.4 943.5 L 1463.0 938.7 L 1458.6 933.9 L 1454.3 929.1 L 1450.0 924.3 L 1445.8 919.4 L 1441.5 914.5 L 1437.3 909.6 L 1433.1 904.7 L 1428.9 899.8 L 1424.6 894.9 L 1420.4 890.1 L 1420.4 890.1 L 1416.2 885.2 L 1411.9 880.3 L 1407.6 875.5 L 1403.3 870.6 L 1399.1 865.8 L 1394.8 860.9 L 1390.5 856.0 L 1386.3 851.1 L 1382.1 846.2 L 1378.0 841.2 L 1373.9 836.2 L 1369.9 831.2 L 1365.9 826.1 L 1362.0 821.0 L 1358.2 815.8 L 1354.5 810.5 L 1354.5 810.5 L 1350.9 805.2 L 1347.3 799.9 L 1343.8 794.5 L 1340.4 789.0 L 1337.0 783.5 L 1333.7 777.9 L 1330.4 772.4 L 1327.2 766.8 L 1324.1 761.1 L 1320.9 755.4 L 1317.9 749.7 L 1314.8 744.0 L 1311.8 738.3 L 1308.9 732.6 L 1305.9 726.8 L 1303.0 721.1 L 1303.0 721.1 L 1300.1 715.3 L 1297.3 709.5 L 1294.6 703.7 L 1291.9 697.8 L 1289.2 691.9 L 1286.6 686.0 L 1284.0 680.1 L 1281.4 674.2 L 1278.9 668.2 L 1276.4 662.3 L 1273.9 656.3 L 1271.4 650.3 L 1269.0 644.3 L 1266.5 638.4 L 1264.1 632.4 L 1261.7 626.4 L 1261.7 626.4 L 1259.3 620.4 L 1256.9 614.4 L 1254.7 608.3 L 1252.4 602.3 L 1250.2 596.2 L 1248.1 590.1 L 1245.9 584.0 L 1243.7 577.9 L 1241.6 571.8 L 1239.4 565.7 L 1237.1 559.7 L 1234.8 553.6 L 1232.5 547.6 L 1230.1 541.6 L 1227.6 535.7 L 1225.1 529.8 L 1225.1 529.8 L 1222.4 523.9 L 1219.8 518.0 L 1217.1 512.1 L 1214.4 506.2 L 1211.7 500.3 L 1209.0 494.4 L 1206.2 488.6 L 1203.3 482.7 L 1200.4 477.0 L 1197.4 471.2 L 1194.4 465.5 L 1191.2 459.9 L 1188.0 454.3 L 1184.7 448.8 L 1181.3 443.4 L 1177.8 438.0 L 1177.8 438.0 L 1174.2 432.7 L 1170.5 427.4 L 1166.7 422.2 L 1162.9 417.1 L 1158.9 411.9 L 1154.9 406.9 L 1150.8 401.9 L 1146.7 396.9 L 1142.4 392.0 L 1138.1 387.2 L 1133.8 382.4 L 1129.3 377.7 L 1124.9 373.1 L 1120.3 368.5 L 1115.7 364.0 L 1111.1 359.6 L 1111.1 359.6 L 1106.3 355.2 L 1101.5 351.1 L 1096.5 347.0 L 1091.4 343.1 L 1086.2 339.2 L 1081.0 335.4 L 1075.7 331.7 L 1070.4 328.0 L 1065.1 324.3 L 1059.7 320.6 L 1054.4 316.9 L 1049.1 313.1 L 1043.8 309.3 L 1038.6 305.5 L 1033.5 301.6 L 1028.5 297.5 L 1028.5 297.5 L 1023.5 293.4 L 1018.5 289.4 L 1013.4 285.3 L 1008.4 281.2 L 1003.4 277.1 L 998.4 273.0 L 993.4 268.8 L 988.5 264.6 L 983.6 260.4 L 978.8 256.1 L 974.0 251.7 L 969.4 247.2 L 964.8 242.7 L 960.4 238.1 L 956.1 233.4 L 951.9 228.5 L 951.9 228.5 L 947.9 223.6 L 944.0 218.5 L 940.2 213.4 L 936.5 208.1 L 932.9 202.8 L 929.4 197.4 L 925.9 191.9 L 922.6 186.3 L 919.3 180.8 L 916.0 175.1 L 912.8 169.5 L 909.7 163.8 L 906.5 158.1 L 903.4 152.5 L 900.3 146.8 L 897.2 141.1 L 897.2 141.1 L 894.1 135.5 L 891.2 129.8 L 888.3 124.0 L 885.4 118.2 L 882.6 112.4 L 879.9 106.5 L 877.2 100.7 L 874.5 94.8 L 871.8 88.9 L 869.1 83.0 L 866.4 77.1 L 863.7 71.3 L 861.0 65.4 L 858.2 59.6 L 855.3 53.8 L 852.4 48.0 L 852.4 48.0 L 849.5 42.2 L 846.6 36.5 L 843.6 30.7 L 840.7 25.0 L 837.7 19.3 L 834.7 13.6 L 831.7 7.8 L 828.7 2.1 L 827.6 0.0" fill="none" stroke="#00e5ff" stroke-width="6.0" stroke-opacity="0.9"/><path d="M 86.8 0.0 L 87.0 1.9 L 88.0 8.1 L 88.9 14.4 L 89.9 20.6 L 91.0 26.8 L 92.1 33.0 L 93.4 39.2 L 93.4 39.2 L 94.7 45.4 L 96.0 51.6 L 97.4 57.8 L 98.8 63.9 L 100.2 70.1 L 101.7 76.2 L 103.3 82.4 L 104.8 88.5 L 106.4 94.6 L 108.1 100.7 L 109.8 106.8 L 111.5 112.9 L 113.3 119.0 L 115.2 125.0 L 117.1 131.0 L 119.0 137.0 L 119.0 137.0 L 121.0 143.0 L 123.1 149.0 L 125.2 154.9 L 127.4 160.9 L 129.6 166.8 L 131.9 172.7 L 134.2 178.6 L 136.6 184.5 L 139.0 190.3 L 141.4 196.2 L 143.9 202.0 L 146.3 207.8 L 148.9 213.6 L 151.4 219.4 L 154.0 225.2 L 156.6 230.9 L 156.6 230.9 L 159.2 236.7 L 161.9 242.4 L 164.6 248.1 L 167.4 253.8 L 170.1 259.5 L 172.9 265.2 L 175.8 270.8 L 178.7 276.4 L 181.6 282.1 L 184.5 287.7 L 187.4 293.3 L 190.4 298.9 L 193.4 304.4 L 196.4 310.0 L 199.4 315.6 L 202.4 321.1 L 202.4 321.1 L 205.5 326.7 L 208.5 332.2 L 211.6 337.7 L 214.7 343.2 L 217.8 348.7 L 221.0 354.2 L 224.1 359.7 L 227.3 365.2 L 230.5 370.6 L 233.8 376.1 L 237.0 381.5 L 240.3 386.9 L 243.6 392.3 L 246.9 397.7 L 250.2 403.1 L 253.6 408.4 L 253.6 408.4 L 257.0 413.8 L 260.4 419.1 L 263.9 424.4 L 267.3 429.6 L 270.9 434.9 L 274.4 440.1 L 277.9 445.4 L 281.5 450.6 L 285.1 455.8 L 288.7 461.0 L 292.3 466.2 L 295.9 471.4 L 299.5 476.6 L 303.2 481.7 L 306.8 486.9 L 310.4 492.1 L 310.4 492.1 L 314.1 497.2 L 317.8 502.3 L 321.6 507.4 L 325.4 512.5 L 329.2 517.5 L 333.0 522.6 L 336.9 527.6 L 340.7 532.7 L 344.5 537.7 L 348.3 542.8 L 352.1 547.8 L 355.8 553.0 L 359.4 558.1 L 363.0 563.3 L 366.6 568.5 L 370.0 573.8 L 370.0 573.8 L 373.4 579.1 L 376.7 584.5 L 379.8 590.0 L 383.0 595.5 L 386.0 601.0 L 389.0 606.6 L 392.0 612.2 L 395.0 617.8 L 398.0 623.4 L 400.9 629.0 L 403.9 634.5 L 407.0 640.1 L 410.0 645.6 L 413.1 651.1 L 416.3 656.6 L 419.6 662.0 L 419.6 662.0 L 422.9 667.4 L 426.3 672.7 L 429.6 678.1 L 433.0 683.5 L 436.4 688.8 L 439.8 694.1 L 443.2 699.4 L 446.7 704.7 L 450.2 710.0 L 453.8 715.2 L 457.4 720.4 L 461.0 725.6 L 464.8 730.7 L 468.5 735.7 L 472.3 740.8 L 476.2 745.7 L 476.2 745.7 L 480.2 750.6 L 484.2 755.5 L 488.2 760.3 L 492.4 765.1 L 496.6 769.8 L 500.8 774.5 L 505.1 779.2 L 509.4 783.8 L 513.8 788.4 L 518.2 793.0 L 522.6 797.5 L 527.0 802.1 L 531.4 806.6 L 535.9 811.1 L 540.3 815.6 L 544.8 820.0 L 544.8 820.0 L 549.3 824.5 L 553.8 828.9 L 558.3 833.3 L 562.9 837.7 L 567.5 842.1 L 572.1 846.4 L 576.7 850.7 L 581.4 855.0 L 586.0 859.3 L 590.7 863.5 L 595.4 867.8 L 600.1 872.0 L 604.8 876.3 L 609.5 880.5 L 614.1 884.8 L 618.8 889.0 L 618.8 889.0 L 623.5 893.3 L 628.3 897.4 L 633.1 901.6 L 637.9 905.7 L 642.7 909.8 L 647.5 913.9 L 652.4 918.0 L 657.2 922.1 L 662.0 926.2 L 666.8 930.4 L 671.6 934.5 L 676.3 938.8 L 680.9 943.0 L 685.5 947.4 L 690.0 951.7 L 694.5 956.2 L 694.5 956.2 L 698.9 960.7 L 703.3 965.3 L 707.7 969.8 L 712.0 974.4 L 716.4 979.1 L 720.7 983.8 L 724.9 988.5 L 729.1 993.2 L 733.3 998.0 L 734.9 1000.0" fill="none" stroke="#00e5ff" stroke-width="6.0" stroke-opacity="0.9"/><path d="M 884.9 1000.0 L 879.7 996.2 L 874.0 992.1 L 868.4 988.1 L 862.7 984.2 L 857.0 980.1 L 851.4 976.1 L 845.9 971.9 L 840.6 967.6 L 835.4 963.1 L 830.4 958.5 L 825.7 953.6 L 825.7 953.6 L 821.3 948.6 L 816.9 943.4 L 812.7 938.1 L 808.5 932.7 L 804.5 927.2 L 800.6 921.6 L 796.7 916.0 L 793.0 910.2 L 789.3 904.5 L 785.6 898.6 L 782.0 892.8 L 778.5 886.9 L 774.9 881.0 L 771.4 875.1 L 767.9 869.2 L 764.4 863.4 L 764.4 863.4 L 761.0 857.5 L 757.6 851.6 L 754.2 845.6 L 750.9 839.6 L 747.7 833.6 L 744.5 827.6 L 741.4 821.5 L 738.2 815.4 L 735.1 809.3 L 732.1 803.2 L 729.0 797.0 L 726.0 790.9 L 722.9 784.8 L 719.9 778.6 L 716.9 772.5 L 713.8 766.4 L 713.8 766.4 L 710.8 760.3 L 707.7 754.2 L 704.7 748.0 L 701.7 741.9 L 698.7 735.7 L 695.7 729.6 L 692.8 723.4 L 689.8 717.2 L 686.9 711.1 L 684.0 704.9 L 681.0 698.7 L 678.1 692.5 L 675.2 686.3 L 672.3 680.1 L 669.4 674.0 L 666.6 667.8 L 666.6 667.8 L 663.7 661.5 L 660.9 655.3 L 658.2 649.0 L 655.5 642.7 L 652.9 636.4 L 650.2 630.0 L 647.6 623.7 L 644.9 617.4 L 642.2 611.1 L 639.5 604.8 L 636.7 598.6 L 633.9 592.4 L 630.9 586.2 L 627.9 580.1 L 624.8 574.0 L 621.6 568.1 L 621.6 568.1 L 618.3 562.1 L 614.9 556.2 L 611.5 550.2 L 608.1 544.3 L 604.6 538.5 L 601.0 532.6 L 597.4 526.8 L 593.7 521.1 L 590.0 515.4 L 586.1 509.7 L 582.2 504.1 L 578.2 498.6 L 574.1 493.2 L 570.0 487.8 L 565.7 482.6 L 561.3 477.4 L 561.3 477.4 L 556.8 472.4 L 552.0 467.6 L 547.0 462.9 L 541.8 458.4 L 536.5 454.0 L 531.1 449.7 L 525.7 445.4 L 520.2 441.2 L 514.8 436.9 L 509.4 432.6 L 504.0 428.2 L 498.8 423.8 L 493.8 419.2 L 488.9 414.5 L 484.2 409.6 L 479.8 404.5 L 479.8 404.5 L 475.6 399.3 L 471.6 393.9 L 467.6 388.4 L 463.7 382.8 L 460.0 377.2 L 456.3 371.4 L 452.8 365.6 L 449.3 359.7 L 446.0 353.8 L 442.8 347.7 L 439.6 341.7 L 436.5 335.6 L 433.6 329.4 L 430.7 323.3 L 427.9 317.1 L 425.2 310.9 L 425.2 310.9 L 422.6 304.6 L 420.2 298.3 L 417.9 291.9 L 415.8 285.5 L 413.7 278.9 L 411.7 272.4 L 409.9 265.8 L 408.1 259.2 L 406.3 252.5 L 404.6 245.8 L 403.0 239.2 L 401.4 232.5 L 399.7 225.8 L 398.1 219.1 L 396.5 212.5 L 394.8 205.8 L 394.8 205.8 L 393.1 199.2 L 391.4 192.6 L 389.8 186.0 L 388.1 179.3 L 386.5 172.7 L 384.9 166.0 L 383.3 159.4 L 381.7 152.7 L 380.2 146.0 L 378.8 139.3 L 377.4 132.7 L 376.0 126.0 L 374.7 119.3 L 373.4 112.5 L 372.3 105.8 L 371.2 99.1 L 371.2 99.1 L 370.1 92.3 L 369.2 85.6 L 368.3 78.8 L 367.5 72.0 L 366.8 65.2 L 366.1 58.4 L 365.4 51.6 L 364.8 44.8 L 364.2 38.0 L 363.7 31.2 L 363.1 24.4 L 362.6 17.5 L 362.1 10.7 L 361.5 3.9 L 361.2 0.0" fill="none" stroke="#00e5ff" stroke-width="6.0" stroke-opacity="0.9"/><path d="M 547.8 0.0 L 550.6 4.1 L 554.5 9.8 L 554.5 9.8 L 558.3 15.5 L 562.0 21.2 L 565.7 26.9 L 569.4 32.7 L 573.1 38.5 L 576.7 44.3 L 580.3 50.1 L 583.9 55.9 L 587.5 61.7 L 591.1 67.5 L 594.7 73.3 L 598.3 79.1 L 602.0 84.9 L 605.7 90.7 L 609.4 96.4 L 613.2 102.1 L 613.2 102.1 L 617.0 107.7 L 620.8 113.4 L 624.7 119.1 L 628.5 124.7 L 632.4 130.3 L 636.3 135.9 L 640.2 141.6 L 644.1 147.2 L 648.1 152.7 L 652.1 158.3 L 656.1 163.8 L 660.1 169.4 L 664.1 174.9 L 668.2 180.4 L 672.2 185.9 L 676.3 191.3 L 676.3 191.3 L 680.5 196.8 L 684.7 202.2 L 688.9 207.6 L 693.1 212.9 L 697.4 218.2 L 701.7 223.6 L 706.0 228.9 L 710.3 234.2 L 714.7 239.4 L 719.0 244.7 L 723.4 250.0 L 727.7 255.3 L 732.0 260.6 L 736.3 265.9 L 740.6 271.2 L 744.9 276.5 L 744.9 276.5 L 749.2 281.9 L 753.5 287.2 L 757.7 292.6 L 762.0 297.9 L 766.3 303.2 L 770.6 308.5 L 774.9 313.9 L 779.1 319.2 L 783.4 324.6 L 787.6 329.9 L 791.9 335.3 L 796.1 340.7 L 800.3 346.1 L 804.5 351.5 L 808.7 356.9 L 812.8 362.3 L 812.8 362.3 L 816.9 367.8 L 821.0 373.2 L 825.1 378.7 L 829.2 384.2 L 833.3 389.7 L 837.4 395.2 L 841.4 400.7 L 845.4 406.2 L 849.4 411.7 L 853.4 417.3 L 857.4 422.8 L 861.4 428.4 L 865.3 434.0 L 869.2 439.6 L 873.1 445.3 L 876.9 450.9 L 876.9 450.9 L 880.7 456.6 L 884.4 462.3 L 888.1 468.1 L 891.7 474.0 L 895.2 479.8 L 898.7 485.7 L 902.3 491.6 L 905.8 497.5 L 909.3 503.4 L 912.9 509.2 L 916.5 515.0 L 920.1 520.8 L 923.9 526.5 L 927.7 532.1 L 931.6 537.7 L 935.6 543.2 L 935.6 543.2 L 939.8 548.6 L 943.9 554.0 L 948.1 559.4 L 952.4 564.7 L 956.7 570.0 L 961.1 575.2 L 965.5 580.4 L 970.0 585.6 L 974.5 590.7 L 979.1 595.8 L 983.8 600.7 L 988.5 605.7 L 993.3 610.5 L 998.1 615.3 L 1003.0 620.0 L 1008.0 624.6 L 1008.0 624.6 L 1013.0 629.1 L 1018.3 633.5 L 1023.6 637.7 L 1029.0 641.9 L 1034.6 645.9 L 1040.1 649.9 L 1045.8 653.8 L 1051.4 657.7 L 1057.1 661.5 L 1062.8 665.4 L 1068.4 669.3 L 1074.0 673.3 L 1079.6 677.3 L 1085.1 681.4 L 1090.4 685.6 L 1095.7 689.9 L 1095.7 689.9 L 1100.9 694.3 L 1106.1 698.8 L 1111.4 703.2 L 1116.7 707.6 L 1121.9 712.1 L 1127.1 716.6 L 1132.3 721.1 L 1137.4 725.7 L 1142.4 730.4 L 1147.4 735.1 L 1152.2 740.0 L 1156.9 744.9 L 1161.5 749.9 L 1165.9 755.0 L 1170.1 760.2 L 1174.2 765.6 L 1174.2 765.6 L 1178.0 771.1 L 1181.7 776.7 L 1185.2 782.5 L 1188.5 788.4 L 1191.7 794.4 L 1194.7 800.4 L 1197.7 806.6 L 1200.6 812.8 L 1203.3 819.1 L 1206.1 825.4 L 1208.8 831.7 L 1211.5 838.1 L 1214.2 844.4 L 1216.9 850.7 L 1219.6 857.0 L 1222.4 863.2 L 1222.4 863.2 L 1225.1 869.5 L 1227.7 875.8 L 1230.1 882.3 L 1232.5 888.7 L 1234.8 895.3 L 1237.0 901.8 L 1239.3 908.3 L 1241.6 914.9 L 1243.9 921.3 L 1246.3 927.7 L 1248.9 934.1 L 1251.5 940.3 L 1254.4 946.4 L 1257.5 952.4 L 1260.8 958.2 L 1264.4 963.9 L 1264.4 963.9 L 1268.2 969.3 L 1272.4 974.6 L 1276.7 979.7 L 1281.3 984.7 L 1286.1 989.5 L 1291.0 994.2 L 1296.0 998.9 L 1297.2 1000.0" fill="none" stroke="#00e5ff" stroke-width="6.0" stroke-opacity="0.9"/></g><g id="clips"><circle cx="1530.1" cy="1000.0" r="2" fill="none" stroke="#0b5" stroke-width="0.6"/><circle cx="827.6" cy="0.0" r="2" fill="none" stroke="#0b5" stroke-width="0.6"/><circle cx="86.8" cy="0.0" r="2" fill="none" stroke="#0b5" stroke-width="0.6"/><circle cx="734.9" cy="1000.0" r="2" fill="none" stroke="#0b5" stroke-width="0.6"/><circle cx="884.9" cy="1000.0" r="2" fill="none" stroke="#0b5" stroke-width="0.6"/><circle cx="361.2" cy="0.0" r="2" fill="none" stroke="#0b5" stroke-width="0.6"/><circle cx="547.8" cy="0.0" r="2" fill="none" stroke="#0b5" stroke-width="0.6"/><circle cx="1297.2" cy="1000.0" r="2" fill="none" stroke="#0b5" stroke-width="0.6"/></g><g id="power"><circle cx="1530.1" cy="1000.0" r="5" fill="none" stroke="#e33" stroke-width="1"/><circle cx="734.9" cy="1000.0" r="5" fill="none" stroke="#e33" stroke-width="1"/><circle cx="884.9" cy="1000.0" r="5" fill="none" stroke="#e33" stroke-width="1"/><circle cx="1297.2" cy="1000.0" r="5" fill="none" stroke="#e33" stroke-width="1"/><circle cx="827.5" cy="0.0" r="5" fill="none" stroke="#e33" stroke-width="1"/><circle cx="86.8" cy="0.0" r="5" fill="none" stroke="#e33" stroke-width="1"/><circle cx="361.2" cy="0.0" r="5" fill="none" stroke="#e33" stroke-width="1"/><circle cx="547.8" cy="0.0" r="5" fill="none" stroke="#e33" stroke-width="1"/></g></svg>