<svg xmlns="http://www.w3.org/2000/svg" width="2000mm" height="1000mm" viewBox="0 0 2000 1000"><g id="outline"><rect x="0" y="0" width="2000" height="1000" fill="none" stroke="#000" stroke-width="1"/></g><g id="channels"><path d="M 2000.0 631.6 L 1995.3 632.9 L 1989.0 634.7 L 1982.6 636.4 L 1976.2 638.1 L 1969.8 639.7 L 1963.4 641.4 L 1957.0 643.0 L 1950.6 644.6 L 1944.1 646.2 L 1937.7 647.8 L 1931.3 649.4 L 1924.9 651.1 L 1918.5 652.8 L 1918.5 652.8 L 1912.1 654.4 L 1905.7 656.1 L 1899.3 657.8 L 1892.9 659.4 L 1886.5 661.1 L 1880.1 662.7 L 1873.7 664.4 L 1867.3 666.0 L 1860.9 667.7 L 1854.5 669.3 L 1848.1 671.0 L 1841.7 672.6 L 1835.3 674.3 L 1828.9 675.9 L 1822.5 677.6 L 1816.2 679.3 L 1816.2 679.3 L 1809.8 681.0 L 1803.4 682.7 L 1797.0 684.3 L 1790.6 686.0 L 1784.1 687.6 L 1777.7 689.3 L 1771.3 690.9 L 1764.9 692.6 L 1758.5 694.3 L 1752.2 696.0 L 1745.8 697.8 L 1739.4 699.6 L 1733.1 701.4 L 1726.8 703.3 L 1720.5 705.3 L 1714.2 707.4 L 1714.2 707.4 L 1708.0 709.5 L 1701.7 711.6 L 1695.5 713.8 L 1689.3 716.1 L 1683.1 718.4 L 1676.9 720.7 L 1670.7 723.1 L 1664.6 725.5 L 1658.4 727.9 L 1652.3 730.4 L 1646.2 733.0 L 1640.1 735.5 L 1634.1 738.1 L 1628.0 740.8 L 1622.0 743.5 L 1616.0 746.2 L 1616.0 746.2 L 1610.0 749.0 L 1604.0 751.8 L 1598.1 754.8 L 1592.3 757.8 L 1586.4 760.9 L 1580.6 764.0 L 1574.8 767.1 L 1569.0 770.3 L 1563.1 773.5 L 1557.3 776.7 L 1551.5 779.8 L 1545.7 782.9 L 1539.9 786.0 L 1534.0 789.1 L 1528.1 792.1 L 1522.2 795.0 L 1522.2 795.0 L 1516.2 797.9 L 1510.3 800.8 L 1504.3 803.6 L 1498.4 806.5 L 1492.4 809.4 L 1486.4 812.2 L 1480.5 815.0 L 1474.5 817.8 L 1468.4 820.5 L 1462.4 823.2 L 1456.4 825.9 L 1450.3 828.5 L 1444.2 831.0 L 1438.1 833.5 L 1432.0 835.9 L 1425.8 838.3 L 1425.8 838.3 L 1419.6 840.5 L 1413.3 842.5 L 1406.9 844.4 L 1400.5 846.2 L 1394.0 847.8 L 1387.5 849.5 L 1381.0 851.0 L 1374.5 852.6 L 1368.1 854.2 L 1361.6 855.9 L 1355.2 857.7 L 1348.9 859.6 L 1342.7 861.6 L 1336.6 863.8 L 1330.5 866.3 L 1324.6 869.0 L 1324.6 869.0 L 1318.7 871.9 L 1312.4 874.9 L 1305.9 878.1 L 1299.3 881.4 L 1292.6 884.8 L 1286.0 888.4 L 1279.5 892.0 L 1273.2 895.8 L 1267.2 899.6 L 1261.5 903.5 L 1256.3 907.5 L 1251.6 911.6 L 1247.5 915.7 L 1244.0 919.9 L 1241.4 924.1 L 1239.5 928.3 L 1239.5 928.3 L 1238.5 932.7 L 1238.2 937.5 L 1238.5 942.4 L 1239.4 947.6 L 1240.8 952.9 L 1242.8 958.2 L 1245.2 963.6 L 1248.1 969.0 L 1251.3 974.4 L 1254.8 979.5 L 1258.6 984.6 L 1262.7 989.4 L 1266.9 993.9 L 1271.2 998.0 L 1273.6 1000.0" fill="none" stroke="#2b6bff" stroke-width="6.0" stroke-opacity="0.9"/><path d="M 1730.0 1000.0 L 1734.6 997.1 L 1740.2 993.5 L 1745.7 989.8 L 1751.3 986.1 L 1756.8 982.4 L 1762.3 978.8 L 1767.9 975.1 L 1773.4 971.4 L 1779.0 967.9 L 1784.6 964.4 L 1784.6 964.4 L 1790.2 960.9 L 1795.8 957.3 L 1801.4 953.7 L 1806.9 950.1 L 1812.5 946.5 L 1818.0 942.9 L 1823.5 939.2 L 1829.1 935.6 L 1834.6 932.0 L 1840.2 928.5 L 1845.8 925.0 L 1851.4 921.5 L 1857.1 918.1 L 1862.8 914.8 L 1868.5 911.5 L 1874.3 908.4 L 1874.3 908.4 L 1880.2 905.4 L 1886.1 902.5 L 1892.1 899.6 L 1898.1 896.9 L 1904.1 894.3 L 1910.2 891.7 L 1916.3 889.1 L 1922.4 886.6 L 1928.5 884.1 L 1934.7 881.6 L 1940.8 879.0 L 1946.8 876.4 L 1952.9 873.8 L 1958.9 871.1 L 1964.9 868.3 L 1970.8 865.5 L 1970.8 865.5 L 1976.7 862.6 L 1982.7 859.7 L 1988.8 856.9 L 1994.8 854.1 L 2000.0 851.7" fill="none" stroke="#2b6bff" stroke-width="6.0" stroke-opacity="0.9"/><path d="M 800.8 1000.0 L 797.3 995.5 L 793.3 990.3 L 789.1 985.1 L 789.1 985.1 L 785.0 979.9 L 780.9 974.7 L 776.8 969.5 L 772.7 964.3 L 768.5 959.0 L 764.4 953.8 L 760.2 948.6 L 755.9 943.5 L 751.7 938.4 L 747.3 933.4 L 742.9 928.5 L 738.4 923.7 L 733.8 919.0 L 729.1 914.5 L 724.2 910.1 L 719.3 905.9 L 719.3 905.9 L 714.2 901.8 L 709.0 897.8 L 703.8 893.8 L 698.4 889.9 L 692.9 886.0 L 687.4 882.3 L 681.8 878.7 L 676.1 875.2 L 670.3 871.9 L 664.5 868.7 L 658.6 865.7 L 652.7 862.9 L 646.7 860.2 L 640.7 857.8 L 634.6 855.6 L 628.5 853.7 L 628.5 853.7 L 622.2 852.1 L 615.4 850.7 L 608.2 849.7 L 600.8 848.8 L 593.2 848.3 L 585.6 847.9 L 577.9 847.6 L 570.4 847.5 L 563.0 847.5 L 555.8 847.6 L 549.1 847.7 L 542.7 847.8 L 536.9 847.9 L 531.7 848.0 L 527.3 848.0 L 523.5 847.8" fill="none" stroke="#2b6bff" stroke-width="6.0" stroke-opacity="0.9"/><path d="M 471.1 865.4 L 469.9 866.8 L 468.6 868.6 L 467.0 870.7 L 465.3 873.0 L 463.5 875.6 L 461.5 878.3 L 459.3 881.2 L 457.1 884.1 L 454.8 887.1 L 452.4 890.0 L 449.9 892.9 L 447.4 895.7 L 444.8 898.4 L 442.2 900.8 L 439.7 903.0 L 437.1 905.0 L 437.1 905.0 L 434.4 906.8 L 431.7 908.5 L 428.8 910.2 L 425.9 911.8 L 422.9 913.4 L 419.8 914.9 L 416.7 916.3 L 413.5 917.6 L 410.4 918.8 L 407.2 919.8 L 404.0 920.7 L 400.8 921.4 L 397.7 922.0 L 394.6 922.3 L 391.6 922.5 L 388.6 922.5 L 388.6 922.5 L 385.6 922.1 L 382.5 921.4 L 379.3 920.4 L 376.0 919.1 L 372.7 917.6 L 369.4 915.9 L 366.1 914.1 L 362.9 912.2 L 359.8 910.3 L 356.8 908.4 L 354.0 906.5 L 351.4 904.8 L 348.9 903.2 L 346.8 901.8 L 344.9 900.6 L 343.3 899.7" fill="none" stroke="#2b6bff" stroke-width="6.0" stroke-opacity="0.9"/><path d="M 294.0 887.4 L 290.5 885.4 L 286.2 883.1 L 281.1 880.5 L 275.5 877.6 L 269.2 874.6 L 262.6 871.2 L 255.7 867.7 L 248.6 863.9 L 241.3 860.0 L 234.1 855.8 L 227.1 851.5 L 220.2 847.0 L 213.7 842.4 L 207.7 837.6 L 202.2 832.7 L 197.4 827.7 L 197.4 827.7 L 193.0 822.5 L 188.8 817.0 L 184.8 811.3 L 181.0 805.3 L 177.3 799.2 L 173.9 792.9 L 170.7 786.4 L 167.6 779.8 L 164.8 773.1 L 162.2 766.3 L 159.8 759.4 L 157.7 752.6 L 155.7 745.7 L 154.0 738.8 L 152.6 732.0 L 151.4 725.2 L 151.4 725.2 L 150.4 718.4 L 149.7 711.4 L 149.2 704.4 L 148.9 697.2 L 148.9 690.0 L 149.1 682.7 L 149.5 675.4 L 150.1 668.1 L 151.0 660.8 L 152.0 653.5 L 153.3 646.3 L 154.8 639.2 L 156.4 632.2 L 158.3 625.4 L 160.4 618.7 L 162.6 612.1 L 162.6 612.1 L 165.1 605.7 L 167.8 599.2 L 170.7 592.7 L 173.9 586.2 L 177.2 579.8 L 180.8 573.5 L 184.6 567.2 L 188.5 561.1 L 192.7 555.1 L 197.0 549.3 L 201.5 543.7 L 206.2 538.3 L 211.0 533.1 L 216.0 528.2 L 221.1 523.6 L 226.3 519.3 L 226.3 519.3 L 231.8 515.3 L 237.5 511.6 L 243.5 508.0 L 249.7 504.7 L 256.2 501.6 L 262.7 498.7 L 269.5 496.1 L 276.3 493.6 L 283.3 491.3 L 290.3 489.2 L 297.4 487.3 L 304.5 485.6 L 311.6 484.0 L 318.7 482.6 L 325.7 481.4 L 332.6 480.3 L 332.6 480.3 L 339.5 479.4 L 346.5 478.8 L 353.6 478.3 L 360.7 478.0 L 367.8 478.0 L 375.0 478.1 L 382.2 478.3 L 389.4 478.8 L 396.7 479.4 L 403.9 480.2 L 411.1 481.1 L 418.2 482.1 L 425.3 483.3 L 432.4 484.5 L 439.3 485.9 L 446.2 487.4 L 446.2 487.4 L 453.1 489.1 L 460.0 490.8 L 466.9 492.7 L 473.8 494.7 L 480.6 496.9 L 487.5 499.2 L 494.3 501.6 L 501.1 504.2 L 507.8 506.9 L 514.4 509.7 L 520.9 512.7 L 527.4 515.8 L 533.7 519.1 L 539.9 522.5 L 546.0 526.1 L 552.0 529.8 L 552.0 529.8 L 557.8 533.9 L 563.3 538.4 L 568.7 543.4 L 573.8 548.7 L 578.9 554.2 L 583.8 559.9 L 588.7 565.7 L 593.6 571.5 L 598.4 577.2 L 603.3 582.8 L 608.2 588.2 L 613.2 593.2 L 618.3 597.8 L 623.6 601.9 L 629.0 605.5 L 634.7 608.4 L 634.7 608.4 L 640.6 611.0 L 646.9 613.3 L 653.4 615.4 L 660.2 617.2 L 667.0 618.8 L 674.0 620.2 L 681.0 621.2 L 688.0 621.9 L 695.0 622.2 L 701.8 622.2 L 708.4 621.7 L 714.8 620.8 L 720.9 619.5 L 726.6 617.7 L 732.0 615.4 L 736.9 612.6 L 736.9 612.6 L 741.3 609.2 L 745.4 605.0 L 749.3 600.1 L 752.8 594.7 L 756.1 588.7 L 759.1 582.4 L 761.9 575.6 L 764.6 568.5 L 767.1 561.3 L 769.6 553.8 L 771.9 546.3 L 774.2 538.8 L 776.4 531.4 L 778.7 524.0 L 780.9 516.9 L 783.3 510.1 L 783.3 510.1 L 785.5 503.4 L 787.5 496.6 L 789.3 489.6 L 790.9 482.6 L 792.4 475.6 L 793.8 468.5 L 795.2 461.3 L 796.6 454.2 L 798.0 447.1 L 799.5 440.1 L 801.2 433.1 L 803.0 426.2 L 805.0 419.3 L 807.2 412.7 L 809.8 406.1 L 812.6 399.7 L 812.6 399.7 L 815.8 393.5 L 819.1 387.3 L 822.7 381.2 L 826.5 375.2 L 830.4 369.3 L 834.5 363.5 L 838.7 357.7 L 843.0 352.0 L 847.5 346.4 L 852.0 340.8 L 856.7 335.3 L 861.4 329.9 L 866.2 324.6 L 871.0 319.3 L 875.8 314.0 L 880.7 308.9 L 880.7 308.9 L 885.6 303.8 L 890.7 298.8 L 895.9 293.9 L 901.1 289.1 L 906.5 284.5 L 912.0 279.8 L 917.5 275.3 L 923.1 270.7 L 928.7 266.3 L 934.4 261.8 L 940.0 257.4 L 945.7 252.9 L 951.3 248.5 L 957.0 244.0 L 962.6 239.5 L 968.1 235.0 L 968.1 235.0 L 973.6 230.4 L 979.1 225.9 L 984.7 221.3 L 990.2 216.8 L 995.8 212.3 L 1001.3 207.8 L 1006.9 203.3 L 1012.4 198.8 L 1018.0 194.3 L 1023.6 189.8 L 1029.2 185.3 L 1034.7 180.8 L 1040.3 176.4 L 1045.9 171.9 L 1051.5 167.4 L 1057.1 163.0 L 1057.1 163.0 L 1062.7 158.5 L 1068.3 154.1 L 1073.9 149.6 L 1079.5 145.2 L 1085.2 140.8 L 1090.8 136.4 L 1096.4 132.0 L 1102.1 127.6 L 1107.7 123.2 L 1113.4 118.8 L 1119.0 114.4 L 1124.6 109.9 L 1130.2 105.5 L 1135.8 101.0 L 1141.3 96.5 L 1146.9 92.0 L 1146.9 92.0 L 1152.4 87.5 L 1158.0 83.0 L 1163.6 78.5 L 1169.2 74.0 L 1174.8 69.5 L 1180.4 65.0 L 1186.0 60.5 L 1191.5 56.0 L 1197.0 51.4 L 1202.5 46.8 L 1207.9 42.1 L 1213.3 37.4 L 1218.6 32.7 L 1223.9 27.8 L 1229.0 22.9 L 1234.1 17.9 L 1234.1 17.9 L 1239.1 12.8 L 1244.0 7.7 L 1248.9 2.5 L 1251.2 0.0" fill="none" stroke="#2b6bff" stroke-width="6.0" stroke-opacity="0.9"/><path d="M 1454.3 0.0 L 1452.0 3.3 L 1452.0 3.3 L 1448.5 8.1 L 1445.0 12.8 L 1441.4 17.5 L 1437.8 22.1 L 1434.0 26.6 L 1430.2 31.2 L 1426.3 35.6 L 1422.4 40.1 L 1418.4 44.5 L 1414.4 48.8 L 1410.3 53.2 L 1406.2 57.5 L 1402.2 61.8 L 1398.1 66.1 L 1394.0 70.4 L 1389.9 74.7 L 1389.9 74.7 L 1385.8 78.9 L 1381.7 83.2 L 1377.5 87.4 L 1373.3 91.5 L 1369.1 95.7 L 1364.8 99.8 L 1360.6 103.9 L 1356.3 108.0 L 1352.0 112.0 L 1347.6 116.1 L 1343.3 120.1 L 1339.0 124.1 L 1334.6 128.2 L 1330.3 132.2 L 1325.9 136.2 L 1321.6 140.2 L 1321.6 140.2 L 1317.3 144.3 L 1312.9 148.3 L 1308.5 152.2 L 1304.1 156.2 L 1299.7 160.2 L 1295.3 164.1 L 1290.9 168.1 L 1286.5 172.0 L 1282.1 175.9 L 1277.7 179.9 L 1273.2 183.8 L 1268.8 187.7 L 1264.4 191.7 L 1260.0 195.7 L 1255.6 199.6 L 1251.3 203.6 L 1251.3 203.6 L 1246.8 207.7 L 1242.1 212.0 L 1237.2 216.5 L 1232.2 221.1 L 1227.2 225.8 L 1222.1 230.5 L 1217.1 235.2 L 1212.1 239.8 L 1207.4 244.2 L 1202.7 248.5 L 1198.4 252.6 L 1194.3 256.4 L 1190.5 259.9 L 1187.2 263.0 L 1184.3 265.7 L 1181.8 268.0" fill="none" stroke="#2b6bff" stroke-width="6.0" stroke-opacity="0.9"/><path d="M 979.3 399.9 L 983.0 398.0 L 987.4 395.7 L 992.5 393.0 L 998.1 390.0 L 1004.3 386.8 L 1010.9 383.3 L 1017.9 379.7 L 1025.1 375.9 L 1032.6 372.0 L 1040.2 368.0 L 1047.8 364.1 L 1055.5 360.2 L 1063.0 356.3 L 1070.4 352.6 L 1077.5 349.0 L 1084.4 345.7 L 1084.4 345.7 L 1091.0 342.4 L 1097.6 339.2 L 1104.3 335.9 L 1110.9 332.7 L 1117.5 329.4 L 1124.2 326.2 L 1130.9 323.0 L 1137.5 319.9 L 1144.2 316.7 L 1150.9 313.6 L 1157.7 310.6 L 1164.4 307.5 L 1171.2 304.6 L 1178.0 301.7 L 1184.8 298.8 L 1191.6 296.1 L 1191.6 296.1 L 1198.5 293.4 L 1205.4 290.7 L 1212.3 288.2 L 1219.2 285.7 L 1226.2 283.3 L 1233.2 280.9 L 1240.2 278.5 L 1247.2 276.2 L 1254.3 273.9 L 1261.3 271.7 L 1268.3 269.4 L 1275.4 267.2 L 1282.4 264.9 L 1289.5 262.6 L 1296.5 260.3 L 1303.5 258.0 L 1303.5 258.0 L 1310.5 255.7 L 1317.6 253.4 L 1324.6 251.2 L 1331.7 249.0 L 1338.8 246.9 L 1345.9 244.7 L 1353.0 242.6 L 1360.0 240.4 L 1367.1 238.2 L 1374.1 236.0 L 1381.2 233.7 L 1388.2 231.3 L 1395.1 228.9 L 1402.0 226.3 L 1408.9 223.7 L 1415.7 220.9 L 1415.7 220.9 L 1422.5 218.1 L 1429.3 215.1 L 1436.0 212.2 L 1442.7 209.1 L 1449.4 206.0 L 1456.1 202.8 L 1462.7 199.6 L 1469.4 196.2 L 1475.9 192.9 L 1482.5 189.4 L 1489.0 185.9 L 1495.5 182.4 L 1501.9 178.8 L 1508.3 175.1 L 1514.6 171.3 L 1520.9 167.5 L 1520.9 167.5 L 1527.2 163.6 L 1533.4 159.7 L 1539.5 155.6 L 1545.6 151.5 L 1551.7 147.3 L 1557.7 143.0 L 1563.7 138.6 L 1569.7 134.3 L 1575.6 129.8 L 1581.5 125.4 L 1587.4 120.9 L 1593.3 116.4 L 1599.1 111.8 L 1605.0 107.3 L 1610.8 102.7 L 1616.7 98.2 L 1616.7 98.2 L 1622.5 93.7 L 1628.3 89.1 L 1634.1 84.6 L 1639.9 80.0 L 1645.7 75.4 L 1651.5 70.8 L 1657.2 66.1 L 1663.0 61.4 L 1668.6 56.7 L 1674.3 52.0 L 1680.0 47.2 L 1685.6 42.4 L 1691.1 37.5 L 1696.6 32.6 L 1702.1 27.7 L 1707.5 22.7 L 1707.5 22.7 L 1712.9 17.6 L 1718.2 12.5 L 1723.5 7.3 L 1728.7 2.1 L 1730.8 0.0" fill="none" stroke="#2b6bff" stroke-width="6.0" stroke-opacity="0.9"/></g><g id="clips"><circle cx="2000.0" cy="631.6" r="2" fill="none" stroke="#0b5" stroke-width="0.6"/><circle cx="1273.6" cy="1000.0" r="2" fill="none" stroke="#0b5" stroke-width="0.6"/><circle cx="1730.0" cy="1000.0" r="2" fill="none" stroke="#0b5" stroke-width="0.6"/><circle cx="2000.0" cy="851.7" r="2" fill="none" stroke="#0b5" stroke-width="0.6"/><circle cx="800.8" cy="1000.0" r="2" fill="none" stroke="#0b5" stroke-width="0.6"/><circle cx="523.5" cy="847.8" r="2" fill="none" stroke="#0b5" stroke-width="0.6"/><circle cx="471.1" cy="865.4" r="2" fill="none" stroke="#0b5" stroke-width="0.6"/><circle cx="343.3" cy="899.7" r="2" fill="none" stroke="#0b5" stroke-width="0.6"/><circle cx="294.0" cy="887.4" r="2" fill="none" stroke="#0b5" stroke-width="0.6"/><circle cx="1251.2" cy="0.0" r="2" fill="none" stroke="#0b5" stroke-width="0.6"/><circle cx="1454.3" cy="0.0" r="2" fill="none" stroke="#0b5" stroke-width="0.6"/><circle cx="1181.8" cy="268.0" r="2" fill="none" stroke="#0b5" stroke-width="0.6"/><circle cx="979.3" cy="399.9" r="2" fill="none" stroke="#0b5" stroke-width="0.6"/><circle cx="1730.8" cy="0.0" r="2" fill="none" stroke="#0b5" stroke-width="0.6"/></g><g id="power"><circle cx="2000.0" cy="631.6" r="5" fill="none" stroke="#e33" stroke-width="1"/><circle cx="1273.5" cy="1000.0" r="5" fill="none" stroke="#e33" stroke-width="1"/><circle cx="1730.0" cy="1000.0" r="5" fill="none" stroke="#e33" stroke-width="1"/><circle cx="2000.0" cy="851.7" r="5" fill="none" stroke="#e33" stroke-width="1"/><circle cx="800.7" cy="1000.0" r="5" fill="none" stroke="#e33" stroke-width="1"/><circle cx="1251.3" cy="0.0" r="5" fill="none" stroke="#e33" stroke-width="1"/><circle cx="1454.3" cy="0.0" r="5" fill="none" stroke="#e33" stroke-width="1"/><circle cx="1730.8" cy="0.0" r="5" fill="none" stroke="#e33" stroke-width="1"/></g></svg>