<svg xmlns="http://www.w3.org/2000/svg" width="1000mm" height="2000mm" viewBox="0 0 1000 2000"><g id="outline"><rect x="0" y="0" width="1000" height="2000" fill="none" stroke="#000" stroke-width="1"/></g><g id="channels"><path d="M 76.4 181.7 L 78.1 184.6 L 80.3 188.0 L 82.7 191.9 L 85.4 196.2 L 88.4 201.0 L 91.6 206.1 L 94.9 211.4 L 98.3 217.0 L 101.9 222.7 L 105.5 228.6 L 109.1 234.5 L 112.6 240.4 L 116.0 246.3 L 119.5 252.0 L 122.7 257.5 L 125.6 262.9 L 125.6 262.9 L 128.6 268.0 L 131.3 273.2 L 134.2 278.5 L 136.9 283.7 L 139.6 289.0 L 142.4 294.3 L 145.0 299.6 L 147.7 304.9 L 150.4 310.1 L 153.0 315.5 L 155.7 320.8 L 158.4 326.1 L 161.0 331.4 L 163.7 336.7 L 166.4 342.0 L 169.1 347.2 L 169.1 347.2 L 171.9 352.6 L 174.6 357.8 L 177.3 363.0 L 180.1 368.4 L 182.7 373.6 L 185.5 378.9 L 188.3 384.2 L 190.9 389.4 L 193.7 394.7 L 196.5 399.9 L 199.2 405.2 L 202.0 410.4 L 204.8 415.7 L 207.6 420.9 L 210.4 426.2 L 213.3 431.4 L 213.3 431.4 L 216.1 436.5 L 218.9 441.8 L 221.7 447.0 L 224.5 452.3 L 227.3 457.5 L 230.1 462.8 L 232.9 468.0 L 235.7 473.3 L 238.7 478.4 L 241.5 483.6 L 244.6 488.7 L 247.5 493.9 L 250.6 498.8 L 253.8 503.9 L 257.0 508.9 L 260.3 513.7 L 260.3 513.7 L 263.7 518.6 L 267.2 523.4 L 270.7 528.1 L 274.3 532.8 L 278.0 537.5 L 281.7 542.1 L 285.5 546.7 L 289.3 551.2 L 293.1 555.8 L 297.0 560.3 L 300.9 564.8 L 304.8 569.2 L 308.7 573.7 L 312.7 578.2 L 316.5 582.6 L 320.4 587.2 L 320.4 587.2 L 324.2 591.7 L 328.2 596.1 L 332.2 600.5 L 336.2 604.9 L 340.2 609.3 L 344.2 613.6 L 348.3 618.0 L 352.3 622.4 L 356.4 626.7 L 360.4 631.0 L 364.4 635.5 L 368.4 639.8 L 372.4 644.2 L 376.3 648.6 L 380.3 653.1 L 384.1 657.5 L 384.1 657.5 L 388.1 662.0 L 392.0 666.5 L 395.9 671.0 L 399.8 675.5 L 403.7 679.9 L 407.7 684.4 L 411.6 688.9 L 415.4 693.4 L 419.3 697.9 L 423.1 702.5 L 426.7 707.1 L 430.4 711.8 L 434.0 716.5 L 437.6 721.3 L 441.0 726.1 L 444.3 730.9 L 444.3 730.9 L 447.5 735.9 L 450.7 740.9 L 453.7 745.9 L 456.6 751.1 L 459.5 756.2 L 462.3 761.5 L 465.1 766.7 L 467.8 772.0 L 470.4 777.3 L 473.1 782.7 L 475.8 788.0 L 478.3 793.3 L 481.0 798.7 L 483.7 803.9 L 486.3 809.2 L 489.1 814.5 L 489.1 814.5 L 491.8 819.8 L 494.4 825.2 L 497.0 830.5 L 499.5 835.8 L 502.1 841.3 L 504.6 846.7 L 507.0 852.0 L 509.5 857.4 L 512.1 862.8 L 514.7 868.2 L 517.4 873.5 L 520.1 878.7 L 522.9 883.9 L 525.8 889.1 L 528.8 894.2 L 532.0 899.1 L 532.0 899.1 L 535.2 904.0 L 538.6 908.9 L 542.0 913.7 L 545.6 918.4 L 549.2 923.1 L 552.9 927.7 L 556.6 932.3 L 560.4 936.9 L 564.3 941.4 L 568.1 946.0 L 572.1 950.5 L 576.0 954.9 L 580.0 959.4 L 584.0 963.8 L 587.9 968.2 L 591.9 972.6 L 591.9 972.6 L 595.8 977.0 L 599.9 981.4 L 603.9 985.6 L 608.1 989.9 L 612.2 994.2 L 616.3 998.4 L 620.5 1002.6 L 624.7 1006.9 L 628.9 1011.0 L 633.2 1015.2 L 637.4 1019.4 L 641.6 1023.5 L 645.9 1027.6 L 650.2 1031.8 L 654.4 1035.9 L 658.7 1040.1 L 658.7 1040.1 L 662.9 1044.3 L 667.1 1048.5 L 671.3 1052.8 L 675.5 1057.0 L 679.6 1061.2 L 683.8 1065.6 L 688.0 1069.8 L 692.2 1074.0 L 696.5 1078.2 L 700.7 1082.3 L 705.0 1086.3 L 709.4 1090.4 L 713.9 1094.3 L 718.4 1098.1 L 722.9 1101.9 L 727.5 1105.5 L 727.5 1105.5 L 732.3 1109.2 L 737.1 1113.1 L 742.1 1117.2 L 747.2 1121.3 L 752.4 1125.4 L 757.6 1129.6 L 762.8 1133.6 L 768.1 1137.4 L 773.4 1141.0 L 778.5 1144.3 L 783.7 1147.2 L 788.8 1149.6 L 793.7 1151.7 L 798.6 1153.0 L 803.3 1153.8 L 807.9 1153.8 L 807.9 1153.8 L 812.3 1153.0 L 816.7 1151.8 L 821.1 1149.7 L 825.6 1147.2 L 829.9 1144.2 L 834.2 1140.8 L 838.3 1136.9 L 842.5 1132.8 L 846.4 1128.4 L 850.3 1123.8 L 854.1 1118.9 L 857.6 1114.0 L 861.0 1109.1 L 864.2 1104.1 L 867.1 1099.1 L 869.9 1094.3 L 869.9 1094.3 L 872.4 1089.5 L 874.7 1084.4 L 876.6 1079.1 L 878.4 1073.6 L 879.8 1067.9 L 881.2 1062.1 L 882.5 1056.3 L 883.6 1050.3 L 884.7 1044.2 L 885.7 1038.1 L 886.7 1032.1 L 887.7 1025.9 L 888.8 1019.9 L 890.0 1013.8 L 891.4 1008.0 L 892.8 1002.2 L 892.8 1002.2 L 894.4 996.5 L 895.9 990.8 L 897.5 985.0 L 899.0 979.3 L 900.5 973.6 L 902.2 967.8 L 903.8 962.1 L 905.3 956.3 L 907.0 950.6 L 908.6 944.9 L 910.3 939.3 L 912.0 933.6 L 913.7 927.9 L 915.4 922.3 L 917.3 916.6 L 919.1 911.0 L 919.1 911.0 L 921.0 905.4 L 922.9 899.8 L 924.9 894.2 L 927.0 888.5 L 929.1 883.0 L 931.3 877.5 L 933.5 872.0 L 935.6 866.4 L 937.8 860.9 L 939.9 855.3 L 942.0 849.8 L 944.1 844.2 L 946.2 838.7 L 948.1 833.1 L 949.9 827.5 L 951.8 821.8 L 951.8 821.8 L 953.6 816.1 L 955.5 810.4 L 957.5 804.7 L 959.5 799.0 L 961.5 793.3 L 963.6 787.5 L 965.5 781.8 L 967.3 776.0 L 969.1 770.2 L 970.6 764.5 L 972.0 758.7 L 973.2 753.0 L 974.1 747.3 L 974.9 741.6 L 975.2 735.9 L 975.3 730.2 L 975.3 730.2 L 975.1 724.6 L 974.5 718.9 L 973.7 713.2 L 972.7 707.4 L 971.5 701.7 L 970.0 696.0 L 968.3 690.3 L 966.6 684.6 L 964.6 679.0 L 962.4 673.4 L 960.2 667.8 L 957.9 662.3 L 955.5 656.8 L 953.0 651.5 L 950.4 646.1 L 947.7 641.0 L 947.7 641.0 L 945.1 635.8 L 942.0 630.8 L 938.9 625.9 L 935.7 621.0 L 932.2 616.2 L 928.6 611.4 L 925.0 606.7 L 921.2 602.1 L 917.5 597.5 L 913.6 592.8 L 909.7 588.2 L 905.9 583.6 L 902.1 579.0 L 898.3 574.3 L 894.6 569.6 L 891.0 564.9 L 891.0 564.9 L 887.4 560.2 L 883.8 555.4 L 880.3 550.6 L 876.8 545.8 L 873.3 541.1 L 869.7 536.3 L 866.2 531.5 L 862.6 526.7 L 859.1 521.9 L 855.5 517.1 L 852.0 512.4 L 848.3 507.8 L 844.6 503.2 L 840.9 498.5 L 837.1 494.0 L 833.4 489.4 L 833.4 489.4 L 829.5 484.8 L 825.7 480.3 L 821.9 475.7 L 818.0 471.2 L 814.1 466.6 L 810.3 462.1 L 806.3 457.6 L 802.4 453.2 L 798.3 448.8 L 794.3 444.5 L 790.1 440.2 L 785.9 436.1 L 781.7 432.0 L 777.3 428.2 L 772.7 424.3 L 768.2 420.7 L 768.2 420.7 L 763.5 417.2 L 758.7 413.9 L 753.7 410.8 L 748.6 407.8 L 743.5 404.9 L 738.2 402.1 L 732.9 399.5 L 727.6 396.8 L 722.1 394.1 L 716.8 391.6 L 711.5 388.9 L 706.1 386.2 L 700.8 383.5 L 695.6 380.6 L 690.5 377.7 L 685.4 374.6 L 685.4 374.6 L 680.4 371.5 L 675.4 368.4 L 670.3 365.2 L 665.3 362.1 L 660.3 359.0 L 655.3 355.8 L 650.3 352.6 L 645.3 349.2 L 640.4 345.9 L 635.7 342.5 L 630.9 339.0 L 626.3 335.4 L 621.7 331.8 L 617.2 328.0 L 612.8 324.1 L 608.6 320.1 L 608.6 320.1 L 604.6 315.8 L 600.7 311.5 L 597.0 306.9 L 593.4 302.2 L 590.0 297.4 L 586.6 292.6 L 583.3 287.6 L 580.0 282.5 L 576.8 277.5 L 573.6 272.4 L 570.3 267.5 L 566.9 262.5 L 563.5 257.5 L 560.0 252.7 L 556.5 247.9 L 552.8 243.3 L 552.8 243.3 L 548.9 238.9 L 544.9 234.5 L 540.8 230.2 L 536.7 225.9 L 532.5 221.7 L 528.3 217.5 L 524.1 213.4 L 519.7 209.2 L 515.5 205.1 L 511.2 200.9 L 507.0 196.8 L 502.7 192.7 L 498.6 188.5 L 494.4 184.2 L 490.4 180.0 L 486.4 175.5 L 486.4 175.5 L 482.4 171.1 L 477.9 166.4 L 473.1 161.7 L 468.1 156.8 L 463.1 151.9 L 458.0 146.9 L 453.0 142.0 L 448.3 137.1 L 443.8 132.2 L 439.6 127.4 L 435.9 122.8 L 432.9 118.4 L 430.4 114.1 L 428.8 110.1 L 428.0 106.4 L 428.1 103.0 L 428.1 103.0 L 429.3 99.6 L 431.5 96.3 L 434.6 93.1 L 438.3 90.0 L 442.8 86.9 L 447.9 84.0 L 453.5 81.2 L 459.4 78.8 L 465.6 76.5 L 471.9 74.5 L 478.3 72.9 L 484.6 71.5 L 490.8 70.6 L 496.7 70.1 L 502.3 70.1 L 507.4 70.5 L 507.4 70.5 L 512.3 71.5 L 517.1 73.1 L 522.0 75.3 L 526.8 77.8 L 531.7 80.9 L 536.5 84.2 L 541.3 87.9 L 546.1 91.8 L 550.8 96.0 L 555.6 100.2 L 560.3 104.5 L 565.0 108.8 L 569.7 113.2 L 574.3 117.5 L 578.8 121.5 L 583.3 125.5 L 583.3 125.5 L 587.8 129.4 L 592.1 133.2 L 596.5 137.3 L 600.8 141.3 L 605.0 145.5 L 609.3 149.7 L 613.4 153.9 L 617.6 158.2 L 621.8 162.4 L 625.9 166.7 L 630.1 171.0 L 634.2 175.3 L 638.3 179.5 L 642.5 183.8 L 646.7 188.0 L 650.9 192.1 L 650.9 192.1 L 655.3 196.2 L 659.5 200.5 L 663.7 204.6 L 668.0 208.8 L 672.2 212.9 L 676.4 217.1 L 680.7 221.3 L 684.9 225.4 L 689.1 229.5 L 693.4 233.7 L 697.8 237.7 L 702.1 241.8 L 706.4 245.8 L 710.8 249.8 L 715.2 253.7 L 719.7 257.7 L 719.7 257.7 L 724.2 261.6 L 728.7 265.4 L 733.2 269.2 L 737.8 273.0 L 742.4 276.7 L 747.0 280.5 L 751.6 284.2 L 756.3 287.9 L 761.0 291.6 L 765.7 295.1 L 770.4 298.7 L 775.0 302.4 L 779.8 305.9 L 784.6 309.5 L 789.3 313.1 L 794.1 316.6 L 794.1 316.6 L 798.9 320.1 L 803.7 323.6 L 808.5 327.0 L 813.4 330.4 L 818.3 333.7 L 823.2 337.1 L 828.1 340.4 L 833.0 343.7 L 838.0 347.0 L 842.9 350.3 L 847.8 353.7 L 852.8 357.0 L 857.7 360.3 L 862.6 363.6 L 867.5 366.9 L 872.4 370.3 L 872.4 370.3 L 877.3 373.7 L 882.1 377.1 L 887.0 380.5 L 891.8 383.9 L 896.7 387.3 L 901.5 390.7 L 906.4 394.1 L 911.3 397.6 L 916.1 401.0 L 921.0 404.4 L 925.7 407.9 L 930.6 411.3 L 935.4 414.8 L 940.2 418.3 L 945.0 421.8 L 949.8 425.3 L 949.8 425.3 L 954.5 428.8 L 959.3 432.4 L 964.1 435.9 L 968.8 439.5 L 973.6 443.1 L 978.3 446.7 L 983.0 450.3 L 987.7 453.8 L 992.4 457.5 L 997.1 461.1 L 1000.0 463.3" fill="none" stroke="#ff3ea5" stroke-width="6.0" stroke-opacity="0.9"/><path d="M 1000.0 1775.2 L 997.5 1772.6 L 993.4 1768.3 L 989.2 1764.1 L 985.1 1759.9 L 980.9 1755.6 L 976.7 1751.4 L 976.7 1751.4 L 972.6 1747.2 L 968.3 1742.9 L 964.2 1738.8 L 960.0 1734.6 L 955.7 1730.4 L 951.5 1726.3 L 947.3 1722.2 L 943.0 1718.0 L 938.7 1713.9 L 934.5 1709.7 L 930.2 1705.6 L 925.9 1701.5 L 921.6 1697.4 L 917.3 1693.4 L 913.0 1689.3 L 908.6 1685.3 L 908.6 1685.3 L 904.3 1681.2 L 899.9 1677.2 L 895.6 1673.1 L 891.1 1669.2 L 886.7 1665.2 L 882.3 1661.3 L 877.8 1657.3 L 873.4 1653.4 L 869.0 1649.5 L 864.6 1645.5 L 860.1 1641.6 L 855.7 1637.5 L 851.3 1633.6 L 847.0 1629.5 L 842.6 1625.5 L 838.3 1621.4 L 838.3 1621.4 L 834.0 1617.3 L 829.8 1613.1 L 825.6 1609.0 L 821.4 1604.8 L 817.2 1600.6 L 813.0 1596.4 L 808.9 1592.2 L 804.7 1587.8 L 800.5 1583.6 L 796.4 1579.4 L 792.2 1575.1 L 788.1 1570.9 L 784.0 1566.7 L 779.8 1562.4 L 775.6 1558.2 L 771.5 1554.0 L 771.5 1554.0 L 767.2 1549.8 L 763.0 1545.7 L 758.8 1541.6 L 754.4 1537.4 L 750.2 1533.3 L 746.0 1529.1 L 741.6 1525.0 L 737.4 1520.9 L 733.2 1516.7 L 728.9 1512.6 L 724.6 1508.4 L 720.4 1504.3 L 716.2 1500.2 L 711.9 1496.0 L 707.7 1491.8 L 703.6 1487.6 L 703.6 1487.6 L 699.3 1483.4 L 695.1 1479.2 L 691.0 1475.0 L 686.6 1470.9 L 682.4 1466.7 L 678.2 1462.5 L 674.0 1458.3 L 669.8 1454.2 L 665.7 1449.9 L 661.5 1445.7 L 657.4 1441.4 L 653.3 1437.0 L 649.4 1432.6 L 645.4 1428.2 L 641.6 1423.8 L 637.8 1419.2 L 637.8 1419.2 L 634.0 1414.6 L 630.3 1410.0 L 626.7 1405.3 L 623.2 1400.6 L 619.6 1395.8 L 616.2 1391.0 L 612.7 1386.2 L 609.3 1381.3 L 605.9 1376.4 L 602.6 1371.5 L 599.3 1366.5 L 596.1 1361.5 L 592.9 1356.5 L 589.8 1351.5 L 586.6 1346.4 L 583.5 1341.4 L 583.5 1341.4 L 580.5 1336.3 L 577.5 1331.2 L 574.6 1326.1 L 571.7 1320.9 L 568.9 1315.6 L 566.1 1310.4 L 563.4 1305.1 L 560.7 1299.9 L 557.9 1294.5 L 555.3 1289.3 L 552.6 1284.0 L 549.9 1278.6 L 547.3 1273.3 L 544.6 1268.0 L 541.9 1262.7 L 539.2 1257.5 L 539.2 1257.5 L 536.5 1252.1 L 533.8 1246.9 L 531.2 1241.5 L 528.5 1236.3 L 525.8 1231.0 L 523.1 1225.6 L 520.5 1220.4 L 517.8 1215.1 L 515.2 1209.7 L 512.6 1204.4 L 509.9 1199.1 L 507.2 1193.8 L 504.6 1188.5 L 501.9 1183.2 L 499.2 1177.9 L 496.5 1172.6 L 496.5 1172.6 L 493.8 1167.4 L 491.0 1162.1 L 488.4 1156.8 L 485.6 1151.5 L 482.9 1146.2 L 480.2 1141.0 L 477.4 1135.7 L 474.7 1130.4 L 472.0 1125.2 L 469.1 1119.9 L 466.4 1114.7 L 463.6 1109.4 L 460.8 1104.2 L 458.0 1099.0 L 455.2 1093.8 L 452.2 1088.6 L 452.2 1088.6 L 449.4 1083.4 L 446.4 1078.2 L 443.6 1073.1 L 440.6 1067.9 L 437.7 1062.8 L 434.6 1057.6 L 431.7 1052.5 L 428.7 1047.3 L 425.7 1042.3 L 422.7 1037.1 L 419.6 1032.1 L 416.5 1027.0 L 413.5 1021.9 L 410.4 1016.9 L 407.2 1011.8 L 404.1 1006.8 L 404.1 1006.8 L 400.9 1001.8 L 397.7 996.8 L 394.4 991.9 L 391.1 986.9 L 387.8 982.0 L 384.5 977.0 L 381.1 972.2 L 377.8 967.3 L 374.4 962.3 L 371.1 957.5 L 367.7 952.6 L 364.4 947.7 L 361.0 942.8 L 357.6 937.9 L 354.2 933.0 L 350.9 928.1 L 350.9 928.1 L 347.6 923.1 L 344.3 918.3 L 341.0 913.3 L 337.7 908.4 L 334.3 903.5 L 331.0 898.6 L 327.6 893.7 L 324.3 888.7 L 320.9 883.9 L 317.7 878.9 L 314.4 874.0 L 311.1 869.0 L 307.9 864.1 L 304.6 859.1 L 301.4 854.0 L 298.3 849.1 L 298.3 849.1 L 295.2 844.0 L 292.0 839.0 L 288.8 834.0 L 285.6 828.9 L 282.5 824.0 L 279.3 818.9 L 276.2 813.8 L 273.1 808.7 L 270.1 803.6 L 267.0 798.5 L 264.1 793.3 L 261.2 788.2 L 258.4 783.0 L 255.6 777.8 L 252.9 772.4 L 250.4 767.2 L 250.4 767.2 L 247.9 761.8 L 245.5 756.4 L 243.2 750.9 L 240.9 745.5 L 238.8 740.0 L 236.7 734.4 L 234.5 728.8 L 232.6 723.2 L 230.6 717.7 L 228.7 712.1 L 226.7 706.4 L 224.8 700.8 L 223.0 695.2 L 221.0 689.5 L 219.1 683.9 L 217.2 678.3 L 217.2 678.3 L 215.3 672.7 L 213.5 667.0 L 211.8 661.3 L 210.1 655.6 L 208.5 649.9 L 206.9 644.2 L 205.3 638.4 L 203.6 632.7 L 202.0 627.0 L 200.3 621.3 L 198.6 615.6 L 196.7 610.0 L 194.9 604.4 L 192.9 598.7 L 190.8 593.2 L 188.5 587.8 L 188.5 587.8 L 186.2 582.4 L 183.7 577.0 L 181.1 571.7 L 178.5 566.5 L 175.8 561.2 L 173.0 556.0 L 170.1 550.7 L 167.3 545.6 L 164.3 540.4 L 161.3 535.3 L 158.3 530.2 L 155.2 525.1 L 152.2 520.0 L 149.1 514.9 L 145.9 509.9 L 142.8 504.9 L 142.8 504.9 L 139.7 499.8 L 136.5 494.9 L 133.3 489.9 L 129.9 485.0 L 126.5 480.2 L 123.2 475.3 L 119.7 470.4 L 116.3 465.6 L 112.9 460.7 L 109.4 455.9 L 106.0 451.1 L 102.5 446.2 L 99.1 441.3 L 95.8 436.5 L 92.4 431.6 L 89.1 426.6 L 89.1 426.6 L 85.9 421.7 L 82.6 416.8 L 79.2 411.8 L 75.8 406.9 L 72.5 402.0 L 69.2 397.0 L 65.9 392.0 L 62.6 387.1 L 59.4 382.1 L 56.2 377.0 L 53.0 372.1 L 49.9 367.0 L 46.9 361.9 L 43.8 356.9 L 41.0 351.7 L 38.1 346.7 L 38.1 346.7 L 35.3 341.5 L 32.3 336.3 L 29.3 331.1 L 26.3 325.9 L 23.1 320.6 L 20.1 315.4 L 17.1 310.1 L 14.3 304.9 L 11.6 299.6 L 9.1 294.2 L 6.9 289.0 L 4.9 283.6 L 3.3 278.2 L 2.0 272.9 L 1.1 267.5 L 0.7 262.1 L 0.7 262.1 L 0.8 256.5 L 1.4 250.6 L 2.6 244.5 L 4.2 238.2 L 6.1 231.8 L 8.4 225.4 L 10.9 219.0 L 13.5 212.7 L 16.2 206.5 L 18.9 200.6 L 21.5 195.0 L 24.0 189.7 L 26.3 184.9 L 28.3 180.6 L 29.8 176.9 L 31.0 173.8" fill="none" stroke="#ff3ea5" stroke-width="6.0" stroke-opacity="0.9"/></g><g id="clips"><circle cx="76.4" cy="181.7" r="2" fill="none" stroke="#0b5" stroke-width="0.6"/><circle cx="1000.0" cy="463.3" r="2" fill="none" stroke="#0b5" stroke-width="0.6"/><circle cx="1000.0" cy="1775.2" r="2" fill="none" stroke="#0b5" stroke-width="0.6"/><circle cx="31.0" cy="173.8" r="2" fill="none" stroke="#0b5" stroke-width="0.6"/></g><g id="power"><circle cx="1000.0" cy="1775.2" r="5" fill="none" stroke="#e33" stroke-width="1"/><circle cx="1000.0" cy="463.3" r="5" fill="none" stroke="#e33" stroke-width="1"/></g><g id="bridges"></g></svg>