<svg xmlns="http://www.w3.org/2000/svg" width="2000mm" height="1000mm" viewBox="0 0 2000 1000"><g id="outline"><rect x="0" y="0" width="2000" height="1000" fill="none" stroke="#000" stroke-width="1"/></g><g id="channels"><path d="M 513.9 0.0 L 514.6 0.7 L 519.5 5.5 L 524.3 10.2 L 529.2 14.9 L 534.1 19.7 L 538.9 24.4 L 543.7 29.2 L 548.5 34.0 L 553.1 38.9 L 553.1 38.9 L 557.8 43.7 L 562.4 48.6 L 567.1 53.4 L 571.8 58.2 L 576.5 63.0 L 581.3 67.9 L 586.0 72.7 L 590.7 77.5 L 595.3 82.3 L 600.0 87.2 L 604.6 92.1 L 609.2 97.0 L 613.7 102.0 L 618.1 107.0 L 622.5 112.1 L 626.8 117.2 L 626.8 117.2 L 631.1 122.4 L 635.4 127.6 L 639.7 132.8 L 643.9 138.0 L 648.1 143.3 L 652.3 148.6 L 656.4 153.9 L 660.5 159.3 L 664.5 164.7 L 668.4 170.2 L 672.3 175.7 L 676.0 181.2 L 679.6 186.9 L 683.1 192.5 L 686.5 198.3 L 689.7 204.1 L 689.7 204.1 L 692.8 210.0 L 695.8 216.0 L 698.7 222.0 L 701.4 228.2 L 704.1 234.3 L 706.7 240.6 L 709.1 246.9 L 711.5 253.2 L 713.8 259.6 L 716.0 266.0 L 718.2 272.4 L 720.3 278.8 L 722.3 285.2 L 724.2 291.7 L 726.1 298.1 L 728.0 304.5 L 728.0 304.5 L 729.7 311.1 L 731.3 317.9 L 732.7 324.9 L 734.0 332.1 L 735.2 339.4 L 736.3 346.6 L 737.3 353.9 L 738.4 361.1 L 739.4 368.2 L 740.4 375.1 L 741.5 381.7 L 742.7 388.1 L 744.0 394.0 L 745.3 399.6 L 746.9 404.7 L 748.6 409.3 L 748.6 409.3 L 750.4 413.3 L 752.4 416.7 L 754.5 419.5 L 756.7 421.8 L 759.0 423.7 L 761.3 425.4 L 763.7 426.8 L 766.1 428.0 L 768.6 429.2 L 771.0 430.5 L 773.5 431.8 L 776.0 433.3 L 778.5 435.1 L 780.9 437.2 L 783.3 439.7 L 785.7 442.8 L 785.7 442.8 L 788.0 446.5 L 790.3 450.8 L 792.5 455.6 L 794.8 460.8 L 797.0 466.3 L 799.3 472.0 L 801.5 477.8 L 803.7 483.6 L 806.0 489.2 L 808.3 494.6 L 810.6 499.7 L 813.0 504.4 L 815.3 508.4 L 817.8 511.9 L 820.2 514.5 L 822.8 516.3 L 822.8 516.3 L 825.4 517.2 L 828.3 517.3 L 831.3 516.6 L 834.5 515.2 L 837.7 513.4 L 840.9 511.0 L 844.2 508.4 L 847.4 505.5 L 850.6 502.5 L 853.6 499.4 L 856.5 496.3 L 859.3 493.5 L 861.7 490.8 L 864.0 488.6 L 865.9 486.7 L 867.5 485.5" fill="none" stroke="#39ff88" stroke-width="6.0" stroke-opacity="0.9"/><path d="M 822.7 326.1 L 823.3 327.6 L 824.1 329.5 L 824.9 331.7 L 825.8 334.1 L 826.8 336.7 L 827.8 339.5 L 829.0 342.5 L 830.1 345.6 L 831.4 348.7 L 832.6 351.9 L 834.0 355.2 L 835.3 358.4 L 836.6 361.5 L 838.0 364.5 L 839.3 367.4 L 840.7 370.1 L 840.7 370.1 L 842.1 372.9 L 843.5 375.8 L 844.9 378.8 L 846.4 381.9 L 847.9 385.1 L 849.4 388.2 L 851.0 391.3 L 852.5 394.3 L 854.1 397.2 L 855.8 399.9 L 857.4 402.5 L 859.0 404.7 L 860.7 406.7 L 862.4 408.3 L 864.0 409.6 L 865.7 410.4 L 865.7 410.4 L 867.4 410.8 L 869.3 410.6 L 871.2 410.1 L 873.2 409.1 L 875.2 407.8 L 877.3 406.3 L 879.4 404.6 L 881.4 402.7 L 883.4 400.8 L 885.3 398.8 L 887.1 396.9 L 888.8 395.1 L 890.4 393.4 L 891.8 392.0 L 893.0 390.8 L 894.0 390.0" fill="none" stroke="#39ff88" stroke-width="6.0" stroke-opacity="0.9"/><path d="M 886.3 499.8 L 887.5 502.6 L 889.0 506.5 L 890.8 511.3 L 892.9 516.9 L 895.1 522.9 L 897.5 529.3 L 900.0 535.8 L 902.5 542.4 L 905.0 548.7 L 907.5 554.6 L 909.9 559.9 L 912.2 564.5 L 914.3 568.1 L 916.2 570.6 L 917.9 571.7 L 919.2 571.4 L 919.2 571.4 L 920.1 569.2 L 920.7 565.4 L 921.0 559.9 L 921.1 553.2 L 920.9 545.5 L 920.7 537.0 L 920.3 527.9 L 920.0 518.5 L 919.6 509.1 L 919.4 499.9 L 919.3 491.2 L 919.4 483.1 L 919.8 476.0 L 920.4 470.0 L 921.5 465.5 L 923.0 462.7 L 923.0 462.7 L 924.9 461.5 L 927.2 461.7 L 929.8 463.2 L 932.8 465.6 L 936.0 468.9 L 939.4 472.9 L 942.9 477.3 L 946.5 482.1 L 950.3 487.0 L 954.0 491.8 L 957.6 496.5 L 961.2 500.7 L 964.7 504.3 L 968.0 507.2 L 971.1 509.2 L 973.9 510.0 L 973.9 510.0 L 976.6 510.0 L 979.4 509.6 L 982.3 508.7 L 985.2 507.5 L 988.1 505.9 L 991.0 504.0 L 993.7 501.7 L 996.4 499.1 L 998.8 496.3 L 1001.0 493.1 L 1003.0 489.7 L 1004.7 486.1 L 1006.0 482.3 L 1006.9 478.3 L 1007.4 474.1 L 1007.4 469.7 L 1007.4 469.7 L 1007.0 465.1 L 1006.1 459.9 L 1004.8 454.4 L 1003.1 448.4 L 1001.1 442.2 L 998.8 435.7 L 996.2 429.0 L 993.4 422.2 L 990.4 415.3 L 987.2 408.3 L 983.9 401.4 L 980.5 394.5 L 977.1 387.8 L 973.6 381.2 L 970.2 374.9 L 966.8 368.9 L 966.8 368.9 L 963.3 363.1 L 959.7 357.4 L 955.9 351.8 L 952.0 346.2 L 947.9 340.7 L 943.8 335.3 L 939.5 330.0 L 935.2 324.6 L 930.8 319.3 L 926.4 314.1 L 921.9 308.9 L 917.4 303.6 L 913.0 298.4 L 908.5 293.2 L 904.1 288.0 L 899.7 282.7 L 899.7 282.7 L 895.3 277.5 L 890.9 272.3 L 886.4 267.2 L 881.8 262.1 L 877.2 257.0 L 872.6 251.9 L 868.0 246.9 L 863.4 241.8 L 858.8 236.8 L 854.2 231.7 L 849.6 226.6 L 845.1 221.5 L 840.6 216.3 L 836.2 211.1 L 831.8 205.9 L 827.5 200.6 L 827.5 200.6 L 823.3 195.3 L 819.1 189.9 L 814.9 184.5 L 810.8 179.0 L 806.7 173.6 L 802.6 168.1 L 798.5 162.5 L 794.5 157.0 L 790.6 151.4 L 786.6 145.9 L 782.7 140.3 L 778.8 134.7 L 774.9 129.0 L 771.0 123.4 L 767.2 117.7 L 763.4 112.1 L 763.4 112.1 L 759.6 106.4 L 755.8 100.7 L 752.1 95.0 L 748.4 89.2 L 744.7 83.5 L 741.0 77.7 L 737.4 71.9 L 733.8 66.1 L 730.2 60.3 L 726.7 54.4 L 723.1 48.6 L 719.6 42.7 L 716.1 36.8 L 712.7 30.9 L 709.2 25.0 L 705.8 19.1 L 705.8 19.1 L 702.4 13.2 L 698.9 7.2 L 695.4 1.3 L 694.6 0.0" fill="none" stroke="#39ff88" stroke-width="6.0" stroke-opacity="0.9"/><path d="M 1251.2 1000.0 L 1253.8 997.2 L 1258.6 991.9 L 1263.3 986.5 L 1268.0 981.1 L 1272.6 975.6 L 1277.2 970.1 L 1281.7 964.6 L 1286.1 958.9 L 1290.5 953.3 L 1294.8 947.6 L 1299.1 941.9 L 1303.3 936.1 L 1307.4 930.2 L 1307.4 930.2 L 1311.4 924.4 L 1315.3 918.4 L 1319.1 912.4 L 1322.9 906.3 L 1326.6 900.2 L 1330.2 894.0 L 1333.7 887.8 L 1337.2 881.6 L 1340.7 875.3 L 1344.1 869.0 L 1347.5 862.7 L 1350.9 856.3 L 1354.2 850.0 L 1357.6 843.6 L 1360.9 837.3 L 1364.2 831.0 L 1364.2 831.0 L 1367.6 824.7 L 1370.8 818.3 L 1374.1 811.9 L 1377.3 805.5 L 1380.5 799.1 L 1383.6 792.7 L 1386.7 786.3 L 1389.8 779.8 L 1392.9 773.4 L 1396.0 766.9 L 1399.1 760.4 L 1402.2 754.0 L 1405.2 747.5 L 1408.3 741.1 L 1411.5 734.6 L 1414.6 728.2 L 1414.6 728.2 L 1417.8 721.8 L 1421.0 715.4 L 1424.2 709.0 L 1427.4 702.6 L 1430.6 696.2 L 1433.9 689.8 L 1437.1 683.4 L 1440.3 677.0 L 1443.5 670.6 L 1446.7 664.2 L 1449.9 657.8 L 1453.0 651.4 L 1456.1 644.9 L 1459.1 638.5 L 1462.1 632.0 L 1465.1 625.4 L 1465.1 625.4 L 1468.0 618.9 L 1470.9 612.4 L 1473.9 605.9 L 1476.9 599.3 L 1479.8 592.8 L 1482.7 586.2 L 1485.6 579.6 L 1488.4 573.0 L 1491.2 566.4 L 1493.9 559.8 L 1496.5 553.1 L 1498.9 546.4 L 1501.3 539.7 L 1503.5 532.9 L 1505.6 526.2 L 1507.5 519.3 L 1507.5 519.3 L 1509.3 512.5 L 1511.1 505.5 L 1512.7 498.6 L 1514.2 491.6 L 1515.7 484.5 L 1517.0 477.5 L 1518.3 470.4 L 1519.4 463.2 L 1520.4 456.1 L 1521.3 449.0 L 1522.1 441.9 L 1522.7 434.7 L 1523.3 427.6 L 1523.6 420.5 L 1523.9 413.4 L 1523.9 406.3 L 1523.9 406.3 L 1523.7 399.1 L 1523.0 391.7 L 1522.0 384.1 L 1520.6 376.3 L 1519.1 368.5 L 1517.3 360.7 L 1515.5 352.9 L 1513.7 345.2 L 1512.0 337.6 L 1510.4 330.3 L 1509.0 323.2 L 1507.9 316.4 L 1507.1 310.0 L 1506.8 304.0 L 1507.0 298.5 L 1507.7 293.5 L 1507.7 293.5 L 1509.0 288.8 L 1510.8 284.2 L 1512.9 279.8 L 1515.4 275.6 L 1518.3 271.5 L 1521.4 267.8 L 1524.7 264.4 L 1528.3 261.3 L 1531.9 258.7 L 1535.7 256.6 L 1539.5 254.9 L 1543.3 253.8 L 1547.0 253.3 L 1550.7 253.4 L 1554.2 254.3 L 1557.6 255.8 L 1557.6 255.8 L 1560.9 258.5 L 1564.5 262.5 L 1568.2 267.5 L 1572.0 273.6 L 1575.9 280.4 L 1579.9 287.7 L 1583.8 295.6 L 1587.6 303.6 L 1591.4 311.8 L 1595.0 319.8 L 1598.4 327.5 L 1601.7 334.9 L 1604.6 341.5 L 1607.2 347.4 L 1609.5 352.3 L 1611.4 356.1" fill="none" stroke="#2b6bff" stroke-width="6.0" stroke-opacity="0.9"/><path d="M 1622.1 285.8 L 1623.2 282.6 L 1624.4 278.4 L 1625.9 273.5 L 1627.5 267.9 L 1629.2 261.9 L 1631.1 255.4 L 1633.1 248.7 L 1635.2 241.9 L 1637.3 235.0 L 1639.6 228.2 L 1641.8 221.6 L 1644.1 215.4 L 1646.4 209.7 L 1648.8 204.5 L 1651.1 200.1 L 1653.3 196.5 L 1653.3 196.5 L 1655.7 193.4 L 1658.2 190.6 L 1661.0 188.0 L 1663.8 185.7 L 1666.8 183.6 L 1669.8 181.9 L 1672.8 180.4 L 1675.8 179.3 L 1678.7 178.6 L 1681.5 178.2 L 1684.1 178.3 L 1686.5 178.7 L 1688.7 179.6 L 1690.7 180.9 L 1692.3 182.7 L 1693.5 185.0 L 1693.5 185.0 L 1694.3 188.3 L 1694.6 192.8 L 1694.4 198.4 L 1693.8 204.9 L 1693.0 212.1 L 1691.9 219.7 L 1690.8 227.6 L 1689.5 235.6 L 1688.3 243.5 L 1687.2 251.0 L 1686.3 258.0 L 1685.7 264.3 L 1685.4 269.7 L 1685.5 274.0 L 1686.1 276.9 L 1687.3 278.4 L 1687.3 278.4 L 1689.1 278.2 L 1691.4 276.5 L 1694.2 273.5 L 1697.3 269.4 L 1700.8 264.4 L 1704.6 258.7 L 1708.5 252.4 L 1712.6 245.9 L 1716.7 239.1 L 1720.9 232.5 L 1724.9 226.1 L 1728.8 220.1 L 1732.5 214.7 L 1736.0 210.2 L 1739.0 206.6 L 1741.7 204.3 L 1741.7 204.3 L 1744.1 202.9 L 1746.4 202.0 L 1748.6 201.6 L 1750.8 201.7 L 1752.8 202.1 L 1754.6 203.0 L 1756.4 204.1 L 1758.0 205.6 L 1759.5 207.4 L 1760.9 209.5 L 1762.1 211.7 L 1763.1 214.2 L 1764.0 216.8 L 1764.7 219.6 L 1765.3 222.5 L 1765.6 225.4 L 1765.6 225.4 L 1765.6 228.8 L 1765.1 233.1 L 1764.2 238.1 L 1762.9 243.7 L 1761.4 249.6 L 1759.7 255.8 L 1757.9 262.1 L 1756.0 268.4 L 1754.3 274.4 L 1752.6 280.2 L 1751.2 285.4 L 1750.1 290.0 L 1749.4 293.8 L 1749.2 296.7 L 1749.4 298.5 L 1750.4 299.1 L 1750.4 299.1 L 1752.0 298.1 L 1754.2 295.7 L 1757.1 292.0 L 1760.4 287.2 L 1764.1 281.6 L 1768.2 275.3 L 1772.4 268.5 L 1776.8 261.5 L 1781.2 254.5 L 1785.5 247.7 L 1789.7 241.2 L 1793.7 235.4 L 1797.4 230.3 L 1800.7 226.4 L 1803.4 223.6 L 1805.6 222.3 L 1805.6 222.3 L 1807.3 222.2 L 1808.8 223.1 L 1810.0 224.8 L 1811.0 227.3 L 1811.8 230.4 L 1812.3 234.0 L 1812.7 238.1 L 1812.9 242.7 L 1813.0 247.5 L 1812.8 252.5 L 1812.6 257.7 L 1812.2 262.9 L 1811.6 268.1 L 1811.0 273.1 L 1810.2 277.9 L 1809.4 282.4 L 1809.4 282.4 L 1808.2 287.0 L 1806.4 292.3 L 1804.1 298.0 L 1801.5 304.0 L 1798.6 310.3 L 1795.6 316.6 L 1792.4 323.0 L 1789.3 329.3 L 1786.3 335.2 L 1783.6 340.9 L 1781.1 346.0 L 1779.1 350.6 L 1777.6 354.4 L 1776.7 357.4 L 1776.6 359.4 L 1777.2 360.3 L 1777.2 360.3 L 1778.8 359.9 L 1781.4 358.0 L 1784.8 354.9 L 1788.8 350.7 L 1793.4 345.7 L 1798.5 340.1 L 1803.8 334.0 L 1809.4 327.7 L 1814.9 321.4 L 1820.4 315.3 L 1825.7 309.6 L 1830.7 304.5 L 1835.2 300.2 L 1839.1 296.9 L 1842.3 294.9 L 1844.7 294.2 L 1844.7 294.2 L 1846.4 294.9 L 1847.8 296.6 L 1848.8 299.1 L 1849.5 302.3 L 1849.9 306.3 L 1850.1 310.8 L 1849.9 315.8 L 1849.4 321.2 L 1848.8 326.8 L 1847.8 332.6 L 1846.7 338.5 L 1845.3 344.3 L 1843.8 350.0 L 1842.1 355.5 L 1840.2 360.7 L 1838.2 365.4 L 1838.2 365.4 L 1835.9 369.9 L 1833.3 374.4 L 1830.3 379.0 L 1827.1 383.6 L 1823.6 388.3 L 1819.9 392.9 L 1816.0 397.5 L 1812.0 402.1 L 1807.8 406.7 L 1803.5 411.3 L 1799.2 415.8 L 1794.8 420.3 L 1790.4 424.8 L 1786.1 429.2 L 1781.8 433.5 L 1777.6 437.7 L 1777.6 437.7 L 1773.4 441.9 L 1769.1 445.9 L 1764.7 449.8 L 1760.2 453.7 L 1755.7 457.5 L 1751.1 461.2 L 1746.4 464.9 L 1741.8 468.6 L 1737.1 472.3 L 1732.5 476.1 L 1727.9 479.8 L 1723.3 483.6 L 1718.9 487.5 L 1714.5 491.4 L 1710.2 495.5 L 1706.0 499.6 L 1706.0 499.6 L 1701.9 503.8 L 1697.8 508.1 L 1693.7 512.4 L 1689.7 516.7 L 1685.7 521.1 L 1681.7 525.5 L 1677.8 530.0 L 1674.0 534.5 L 1670.2 539.0 L 1666.4 543.6 L 1662.8 548.3 L 1659.2 553.0 L 1655.7 557.7 L 1652.4 562.5 L 1649.1 567.4 L 1645.9 572.3 L 1645.9 572.3 L 1642.8 577.3 L 1639.9 582.4 L 1637.0 587.5 L 1634.3 592.7 L 1631.7 598.0 L 1629.2 603.4 L 1626.7 608.7 L 1624.3 614.2 L 1621.9 619.6 L 1619.6 625.1 L 1617.3 630.6 L 1615.0 636.1 L 1612.7 641.5 L 1610.4 647.0 L 1608.1 652.5 L 1605.8 657.9 L 1605.8 657.9 L 1603.4 663.4 L 1601.2 668.8 L 1598.9 674.3 L 1596.7 679.8 L 1594.5 685.3 L 1592.3 690.8 L 1590.1 696.3 L 1588.0 701.8 L 1585.9 707.3 L 1583.7 712.8 L 1581.6 718.4 L 1579.4 723.9 L 1577.3 729.4 L 1575.1 734.9 L 1572.9 740.4 L 1570.6 745.9 L 1570.6 745.9 L 1568.4 751.3 L 1566.1 756.8 L 1563.8 762.3 L 1561.6 767.7 L 1559.3 773.2 L 1557.0 778.6 L 1554.7 784.1 L 1552.4 789.5 L 1550.0 795.0 L 1547.7 800.4 L 1545.4 805.9 L 1543.1 811.3 L 1540.8 816.8 L 1538.5 822.2 L 1536.2 827.7 L 1533.9 833.1 L 1533.9 833.1 L 1531.7 838.6 L 1529.4 844.1 L 1527.2 849.6 L 1525.0 855.1 L 1522.9 860.6 L 1520.7 866.1 L 1518.5 871.6 L 1516.3 877.1 L 1514.1 882.6 L 1511.9 888.1 L 1509.6 893.6 L 1507.3 899.0 L 1505.0 904.5 L 1502.6 909.9 L 1500.1 915.2 L 1497.6 920.6 L 1497.6 920.6 L 1495.0 925.9 L 1492.5 931.2 L 1489.9 936.5 L 1487.2 941.9 L 1484.6 947.2 L 1481.9 952.4 L 1479.2 957.7 L 1476.4 962.9 L 1473.6 968.2 L 1470.7 973.3 L 1467.8 978.5 L 1464.8 983.5 L 1461.7 988.6 L 1458.5 993.5 L 1455.3 998.5 L 1454.3 1000.0" fill="none" stroke="#2b6bff" stroke-width="6.0" stroke-opacity="0.9"/><path d="M 1730.8 1000.0 L 1733.9 996.9 L 1739.0 991.6 L 1744.1 986.2 L 1749.2 980.9 L 1754.3 975.5 L 1759.3 970.1 L 1764.4 964.6 L 1769.4 959.2 L 1774.4 953.8 L 1779.4 948.3 L 1784.4 942.9 L 1789.4 937.5 L 1789.4 937.5 L 1794.5 932.1 L 1799.5 926.6 L 1804.4 921.2 L 1809.4 915.7 L 1814.3 910.2 L 1819.3 904.7 L 1824.2 899.2 L 1829.1 893.7 L 1834.0 888.2 L 1839.0 882.7 L 1843.9 877.1 L 1848.8 871.6 L 1853.7 866.1 L 1858.6 860.5 L 1863.5 855.0 L 1868.4 849.5 L 1868.4 849.5 L 1873.3 844.0 L 1878.2 838.4 L 1883.1 832.9 L 1888.0 827.4 L 1893.0 821.9 L 1897.9 816.4 L 1902.8 810.9 L 1907.7 805.3 L 1912.6 799.8 L 1917.5 794.3 L 1922.4 788.7 L 1927.2 783.2 L 1932.1 777.6 L 1937.0 772.0 L 1941.8 766.5 L 1946.6 760.9 L 1946.6 760.9 L 1951.4 755.3 L 1956.2 749.6 L 1961.0 744.0 L 1965.8 738.4 L 1970.5 732.7 L 1975.3 727.1 L 1980.0 721.4 L 1984.8 715.7 L 1989.5 710.0 L 1994.2 704.4 L 1998.9 698.7 L 2000.0 697.4" fill="none" stroke="#2b6bff" stroke-width="6.0" stroke-opacity="0.9"/></g><g id="clips"><circle cx="513.9" cy="0.0" r="2" fill="none" stroke="#0b5" stroke-width="0.6"/><circle cx="867.5" cy="485.5" r="2" fill="none" stroke="#0b5" stroke-width="0.6"/><circle cx="822.7" cy="326.1" r="2" fill="none" stroke="#0b5" stroke-width="0.6"/><circle cx="894.0" cy="390.0" r="2" fill="none" stroke="#0b5" stroke-width="0.6"/><circle cx="886.3" cy="499.8" r="2" fill="none" stroke="#0b5" stroke-width="0.6"/><circle cx="694.6" cy="0.0" r="2" fill="none" stroke="#0b5" stroke-width="0.6"/><circle cx="1251.2" cy="1000.0" r="2" fill="none" stroke="#0b5" stroke-width="0.6"/><circle cx="1611.4" cy="356.1" r="2" fill="none" stroke="#0b5" stroke-width="0.6"/><circle cx="1622.1" cy="285.8" r="2" fill="none" stroke="#0b5" stroke-width="0.6"/><circle cx="1454.3" cy="1000.0" r="2" fill="none" stroke="#0b5" stroke-width="0.6"/><circle cx="1730.8" cy="1000.0" r="2" fill="none" stroke="#0b5" stroke-width="0.6"/><circle cx="2000.0" cy="697.4" r="2" fill="none" stroke="#0b5" stroke-width="0.6"/></g><g id="power"><circle cx="513.9" cy="0.0" r="5" fill="none" stroke="#e33" stroke-width="1"/><circle cx="694.6" cy="0.0" r="5" fill="none" stroke="#e33" stroke-width="1"/><circle cx="1251.3" cy="1000.0" r="5" fill="none" stroke="#e33" stroke-width="1"/><circle cx="1454.3" cy="1000.0" r="5" fill="none" stroke="#e33" stroke-width="1"/><circle cx="1730.8" cy="1000.0" r="5" fill="none" stroke="#e33" stroke-width="1"/><circle cx="2000.0" cy="697.5" r="5" fill="none" stroke="#e33" stroke-width="1"/></g></svg>