<svg xmlns="http://www.w3.org/2000/svg" width="500mm" height="1000mm" viewBox="0 0 500 1000"><g id="outline"><rect x="0" y="0" width="500" height="1000" fill="none" stroke="#000" stroke-width="1"/></g><g id="channels"><path d="M 287.3 179.5 L 289.2 182.6 L 291.5 186.3 L 294.1 190.6 L 297.1 195.3 L 300.3 200.5 L 303.8 206.0 L 307.4 211.8 L 311.1 217.9 L 315.0 224.1 L 318.9 230.5 L 322.8 236.9 L 326.6 243.3 L 330.4 249.7 L 334.1 255.9 L 337.6 261.9 L 340.8 267.7 L 340.8 267.7 L 344.0 273.3 L 347.0 279.0 L 350.1 284.7 L 353.1 290.4 L 356.0 296.1 L 359.0 301.9 L 361.9 307.6 L 364.8 313.4 L 367.7 319.1 L 370.6 324.9 L 373.5 330.7 L 376.4 336.5 L 379.3 342.2 L 382.2 348.0 L 385.1 353.7 L 388.1 359.4 L 388.1 359.4 L 391.1 365.2 L 394.0 370.9 L 397.0 376.6 L 400.0 382.4 L 402.9 388.1 L 405.9 393.8 L 408.9 399.6 L 411.8 405.3 L 414.8 411.0 L 417.8 416.7 L 420.8 422.4 L 423.8 428.1 L 426.9 433.8 L 429.9 439.5 L 433.0 445.2 L 436.1 450.9 L 436.1 450.9 L 439.1 456.5 L 442.2 462.2 L 445.2 467.9 L 448.3 473.6 L 451.3 479.3 L 454.4 485.0 L 457.4 490.7 L 460.5 496.4 L 463.7 502.0 L 466.8 507.6 L 470.1 513.2 L 473.3 518.8 L 476.7 524.2 L 480.1 529.7 L 483.6 535.1 L 487.2 540.4 L 487.2 540.4 L 490.9 545.7 L 494.7 550.9 L 498.5 556.0 L 500.0 558.0" fill="none" stroke="#ff3ea5" stroke-width="6.0" stroke-opacity="0.9"/><path d="M 500.0 859.2 L 497.8 855.5 L 494.5 849.9 L 491.3 844.3 L 488.2 838.7 L 485.1 833.1 L 482.1 827.4 L 479.2 821.6 L 476.4 815.9 L 476.4 815.9 L 473.7 810.0 L 471.1 804.2 L 468.6 798.2 L 466.1 792.3 L 463.8 786.3 L 461.5 780.3 L 459.2 774.2 L 457.1 768.1 L 454.9 762.1 L 452.8 756.0 L 450.7 749.8 L 448.6 743.7 L 446.6 737.6 L 444.5 731.5 L 442.4 725.4 L 440.4 719.3 L 440.4 719.3 L 438.3 713.2 L 436.3 707.0 L 434.5 700.8 L 432.6 694.6 L 430.9 688.4 L 429.1 682.2 L 427.4 675.9 L 425.6 669.7 L 423.8 663.5 L 422.0 657.3 L 420.1 651.1 L 418.1 645.0 L 416.1 638.9 L 413.9 632.8 L 411.6 626.8 L 409.2 620.9 L 409.2 620.9 L 406.6 615.0 L 403.9 609.2 L 401.1 603.4 L 398.3 597.7 L 395.3 592.0 L 392.3 586.3 L 389.2 580.6 L 386.1 575.0 L 382.9 569.4 L 379.6 563.8 L 376.3 558.3 L 373.0 552.7 L 369.7 547.2 L 366.3 541.7 L 362.9 536.2 L 359.5 530.8 L 359.5 530.8 L 356.1 525.3 L 352.6 519.9 L 349.1 514.5 L 345.5 509.2 L 341.8 503.9 L 338.2 498.6 L 334.4 493.3 L 330.7 488.1 L 327.0 482.8 L 323.2 477.5 L 319.5 472.3 L 315.7 467.0 L 312.0 461.7 L 308.4 456.4 L 304.7 451.1 L 301.1 445.7 L 301.1 445.7 L 297.6 440.4 L 294.0 435.0 L 290.4 429.6 L 286.7 424.3 L 283.1 418.9 L 279.5 413.5 L 275.9 408.1 L 272.3 402.7 L 268.8 397.3 L 265.3 391.8 L 261.9 386.4 L 258.5 380.9 L 255.2 375.4 L 251.9 369.9 L 248.8 364.3 L 245.7 358.8 L 245.7 358.8 L 242.6 353.2 L 239.4 347.5 L 236.1 341.9 L 232.8 336.2 L 229.4 330.5 L 226.1 324.8 L 222.9 319.1 L 219.8 313.4 L 216.9 307.6 L 214.2 301.8 L 211.8 296.1 L 209.6 290.3 L 207.8 284.4 L 206.4 278.6 L 205.5 272.7 L 205.0 266.9 L 205.0 266.9 L 205.1 260.8 L 205.8 254.4 L 207.1 247.8 L 208.8 240.9 L 210.9 234.0 L 213.4 227.0 L 216.1 220.0 L 218.9 213.2 L 221.9 206.5 L 224.8 200.0 L 227.6 193.9 L 230.3 188.2 L 232.8 183.0 L 235.0 178.3 L 236.7 174.3 L 238.0 170.9" fill="none" stroke="#ff3ea5" stroke-width="6.0" stroke-opacity="0.9"/></g><g id="clips"><circle cx="287.3" cy="179.5" r="2" fill="none" stroke="#0b5" stroke-width="0.6"/><circle cx="500.0" cy="558.0" r="2" fill="none" stroke="#0b5" stroke-width="0.6"/><circle cx="500.0" cy="859.2" r="2" fill="none" stroke="#0b5" stroke-width="0.6"/><circle cx="238.0" cy="170.9" r="2" fill="none" stroke="#0b5" stroke-width="0.6"/></g><g id="power"><circle cx="500.0" cy="859.1" r="5" fill="none" stroke="#e33" stroke-width="1"/><circle cx="500.0" cy="557.9" r="5" fill="none" stroke="#e33" stroke-width="1"/></g><g id="bridges"></g></svg>