<svg xmlns="http://www.w3.org/2000/svg" width="1000mm" height="1000mm" viewBox="0 0 1000 1000"><g id="outline"><rect x="0" y="0" width="1000" height="1000" fill="none" stroke="#000" stroke-width="1"/></g><g id="channels"><path d="M 1000.0 57.6 L 999.3 57.8 L 992.9 59.4 L 986.5 61.1 L 980.1 62.7 L 973.7 64.4 L 967.3 66.0 L 960.9 67.7 L 954.5 69.3 L 948.1 71.0 L 941.7 72.6 L 935.3 74.3 L 928.9 75.9 L 922.5 77.6 L 916.2 79.3 L 916.2 79.3 L 909.8 81.0 L 903.4 82.7 L 897.0 84.3 L 890.6 86.0 L 884.1 87.6 L 877.7 89.3 L 871.3 90.9 L 864.9 92.6 L 858.5 94.3 L 852.2 96.0 L 845.8 97.8 L 839.4 99.6 L 833.1 101.4 L 826.8 103.3 L 820.5 105.3 L 814.2 107.4 L 814.2 107.4 L 808.0 109.5 L 801.7 111.6 L 795.5 113.8 L 789.3 116.1 L 783.1 118.4 L 776.9 120.7 L 770.7 123.1 L 764.6 125.5 L 758.4 127.9 L 752.3 130.4 L 746.2 133.0 L 740.1 135.5 L 734.1 138.1 L 728.0 140.8 L 722.0 143.5 L 716.0 146.2 L 716.0 146.2 L 710.0 149.0 L 704.0 151.8 L 698.1 154.8 L 692.3 157.8 L 686.4 160.9 L 680.6 164.0 L 674.8 167.1 L 669.0 170.3 L 663.1 173.5 L 657.3 176.7 L 651.5 179.8 L 645.7 182.9 L 639.9 186.0 L 634.0 189.1 L 628.1 192.1 L 622.2 195.0 L 622.2 195.0 L 616.2 197.9 L 610.3 200.8 L 604.3 203.6 L 598.4 206.5 L 592.4 209.4 L 586.4 212.2 L 580.5 215.0 L 574.5 217.8 L 568.4 220.5 L 562.4 223.2 L 556.4 225.9 L 550.3 228.5 L 544.2 231.0 L 538.1 233.5 L 532.0 235.9 L 525.8 238.3 L 525.8 238.3 L 519.6 240.5 L 513.3 242.5 L 506.9 244.4 L 500.5 246.2 L 494.0 247.8 L 487.5 249.5 L 481.0 251.0 L 474.5 252.6 L 468.1 254.2 L 461.6 255.9 L 455.2 257.7 L 448.9 259.6 L 442.7 261.6 L 436.6 263.8 L 430.5 266.3 L 424.6 269.0 L 424.6 269.0 L 418.7 271.9 L 412.4 274.9 L 405.9 278.1 L 399.3 281.4 L 392.6 284.8 L 386.0 288.4 L 379.5 292.0 L 373.2 295.8 L 367.2 299.6 L 361.5 303.5 L 356.3 307.5 L 351.6 311.6 L 347.5 315.7 L 344.0 319.9 L 341.4 324.1 L 339.5 328.3 L 339.5 328.3 L 338.5 332.7 L 338.2 337.5 L 338.5 342.4 L 339.4 347.6 L 340.8 352.9 L 342.8 358.2 L 345.2 363.6 L 348.1 369.0 L 351.3 374.4 L 354.8 379.5 L 358.6 384.6 L 362.7 389.4 L 366.9 393.9 L 371.2 398.0 L 375.7 401.8 L 380.2 405.2 L 380.2 405.2 L 384.9 408.1 L 390.1 410.6 L 395.6 412.8 L 401.6 414.7 L 407.8 416.4 L 414.3 417.8 L 420.9 419.1 L 427.8 420.2 L 434.8 421.2 L 441.9 422.0 L 449.0 422.9 L 456.1 423.7 L 463.1 424.6 L 470.0 425.5 L 476.8 426.5 L 483.4 427.7 L 483.4 427.7 L 489.9 428.9 L 496.4 430.1 L 502.9 431.4 L 509.4 432.6 L 515.9 433.8 L 522.4 435.0 L 528.9 436.1 L 535.5 437.3 L 542.0 438.3 L 548.5 439.4 L 555.1 440.4 L 561.6 441.3 L 568.1 442.2 L 574.7 443.0 L 581.2 443.8 L 587.8 444.4 L 587.8 444.4 L 594.4 445.1 L 601.0 445.7 L 607.6 446.4 L 614.2 447.0 L 620.8 447.6 L 627.5 448.2 L 634.1 448.7 L 640.7 449.1 L 647.4 449.4 L 654.0 449.6 L 660.6 449.8 L 667.2 449.7 L 673.8 449.6 L 680.3 449.2 L 686.8 448.7 L 693.3 448.0 L 693.3 448.0 L 699.7 447.2 L 706.2 446.2 L 712.6 445.0 L 719.1 443.7 L 725.5 442.3 L 732.0 440.7 L 738.4 439.1 L 744.7 437.3 L 751.1 435.4 L 757.4 433.3 L 763.7 431.2 L 769.9 429.0 L 776.1 426.7 L 782.2 424.3 L 788.3 421.8 L 794.3 419.2 L 794.3 419.2 L 800.2 416.5 L 806.1 413.6 L 811.9 410.5 L 817.6 407.3 L 823.3 404.0 L 829.0 400.6 L 834.6 397.1 L 840.2 393.5 L 845.7 389.8 L 851.3 386.1 L 856.8 382.4 L 862.3 378.8 L 867.9 375.1 L 873.4 371.4 L 879.0 367.9 L 884.6 364.4 L 884.6 364.4 L 890.2 360.9 L 895.8 357.3 L 901.4 353.7 L 906.9 350.1 L 912.5 346.5 L 918.0 342.9 L 923.5 339.2 L 929.1 335.6 L 934.6 332.0 L 940.2 328.5 L 945.8 325.0 L 951.4 321.5 L 957.1 318.1 L 962.8 314.8 L 968.5 311.5 L 974.3 308.4 L 974.3 308.4 L 980.2 305.4 L 986.1 302.5 L 992.1 299.6 L 998.1 296.9 L 1000.0 296.1" fill="none" stroke="#2b6bff" stroke-width="6.0" stroke-opacity="0.9"/><path d="M 1000.0 491.9 L 998.5 492.8 L 992.9 496.3 L 987.3 499.8 L 981.7 503.2 L 976.0 506.7 L 970.4 510.1 L 964.7 513.5 L 959.1 516.9 L 953.4 520.3 L 947.7 523.7 L 942.0 527.0 L 936.3 530.3 L 930.5 533.6 L 924.8 536.9 L 924.8 536.9 L 919.0 540.1 L 913.2 543.3 L 907.4 546.5 L 901.7 549.7 L 895.9 552.9 L 890.0 556.0 L 884.2 559.1 L 878.4 562.2 L 872.5 565.3 L 866.6 568.3 L 860.7 571.3 L 854.8 574.3 L 848.9 577.2 L 842.9 580.0 L 836.9 582.8 L 830.9 585.5 L 830.9 585.5 L 824.9 588.2 L 818.9 590.9 L 812.8 593.6 L 806.7 596.2 L 800.6 598.8 L 794.5 601.4 L 788.4 603.9 L 782.2 606.4 L 776.1 608.8 L 769.9 611.1 L 763.7 613.3 L 757.4 615.5 L 751.2 617.6 L 744.9 619.5 L 738.6 621.4 L 732.2 623.1 L 732.2 623.1 L 725.9 624.8 L 719.5 626.3 L 713.1 627.7 L 706.6 629.0 L 700.1 630.2 L 693.6 631.3 L 687.1 632.3 L 680.5 633.3 L 674.0 634.2 L 667.4 635.0 L 660.8 635.8 L 654.2 636.6 L 647.7 637.3 L 641.1 638.0 L 634.5 638.7 L 627.9 639.4 L 627.9 639.4 L 621.4 640.0 L 614.8 640.6 L 608.2 641.1 L 601.6 641.5 L 595.0 641.9 L 588.4 642.3 L 581.8 642.6 L 575.2 642.9 L 568.6 643.1 L 562.0 643.4 L 555.4 643.6 L 548.8 643.8 L 542.2 644.1 L 535.6 644.3 L 529.0 644.6 L 522.3 644.9 L 522.3 644.9 L 515.7 645.2 L 509.1 645.5 L 502.5 645.9 L 495.9 646.2 L 489.3 646.5 L 482.7 646.8 L 476.1 647.1 L 469.5 647.5 L 462.9 647.8 L 456.3 648.1 L 449.7 648.3 L 443.1 648.6 L 436.5 648.9 L 429.9 649.1 L 423.3 649.3 L 416.7 649.6 L 416.7 649.6 L 410.1 649.8 L 403.5 650.0 L 396.9 650.2 L 390.3 650.5 L 383.7 650.7 L 377.0 651.0 L 370.4 651.2 L 363.8 651.4 L 357.2 651.6 L 350.6 651.7 L 344.0 651.8 L 337.4 651.8 L 330.8 651.8 L 324.2 651.7 L 317.6 651.5 L 311.0 651.2 L 311.0 651.2 L 304.4 650.9 L 297.8 650.5 L 291.2 650.1 L 284.6 649.6 L 278.1 649.0 L 271.5 648.5 L 264.9 647.8 L 258.3 647.1 L 251.7 646.4 L 245.2 645.6 L 238.6 644.7 L 232.1 643.8 L 225.5 642.8 L 219.0 641.7 L 212.5 640.6 L 206.1 639.4 L 206.1 639.4 L 199.6 638.2 L 193.1 636.9 L 186.5 635.6 L 180.0 634.3 L 173.5 633.0 L 167.0 631.6 L 160.4 630.1 L 154.0 628.5 L 147.5 626.9 L 141.1 625.1 L 134.8 623.2 L 128.5 621.3 L 122.3 619.1 L 116.1 616.8 L 110.1 614.4 L 104.1 611.8 L 104.1 611.8 L 98.2 609.0 L 92.4 606.1 L 86.6 603.1 L 80.8 599.9 L 75.1 596.6 L 69.5 593.2 L 63.9 589.6 L 58.4 586.0 L 53.0 582.2 L 47.6 578.3 L 42.3 574.4 L 37.1 570.3 L 32.0 566.2 L 27.0 561.9 L 22.1 557.6 L 17.3 553.2 L 17.3 553.2 L 12.6 548.7 L 8.1 544.0 L 3.7 539.2 L 0.0 534.9" fill="none" stroke="#2b6bff" stroke-width="6.0" stroke-opacity="0.9"/></g><g id="clips"><circle cx="1000.0" cy="57.6" r="2" fill="none" stroke="#0b5" stroke-width="0.6"/><circle cx="807.0" cy="109.8" r="2" fill="none" stroke="#0b5" stroke-width="0.6"/><circle cx="625.6" cy="193.3" r="2" fill="none" stroke="#0b5" stroke-width="0.6"/><circle cx="438.8" cy="263.0" r="2" fill="none" stroke="#0b5" stroke-width="0.6"/><circle cx="370.5" cy="397.3" r="2" fill="none" stroke="#0b5" stroke-width="0.6"/><circle cx="563.3" cy="441.5" r="2" fill="none" stroke="#0b5" stroke-width="0.6"/><circle cx="760.9" cy="432.1" r="2" fill="none" stroke="#0b5" stroke-width="0.6"/><circle cx="933.6" cy="332.7" r="2" fill="none" stroke="#0b5" stroke-width="0.6"/><circle cx="1000.0" cy="491.9" r="2" fill="none" stroke="#0b5" stroke-width="0.6"/><circle cx="824.9" cy="588.2" r="2" fill="none" stroke="#0b5" stroke-width="0.6"/><circle cx="632.7" cy="638.9" r="2" fill="none" stroke="#0b5" stroke-width="0.6"/><circle cx="433.0" cy="649.0" r="2" fill="none" stroke="#0b5" stroke-width="0.6"/><circle cx="233.4" cy="644.0" r="2" fill="none" stroke="#0b5" stroke-width="0.6"/><circle cx="47.2" cy="578.0" r="2" fill="none" stroke="#0b5" stroke-width="0.6"/></g><g id="power"><circle cx="1000.0" cy="491.9" r="5" fill="none" stroke="#e33" stroke-width="1"/><circle cx="1000.0" cy="296.1" r="5" fill="none" stroke="#e33" stroke-width="1"/><circle cx="1000.0" cy="57.6" r="5" fill="none" stroke="#e33" stroke-width="1"/><circle cx="0.0" cy="534.9" r="5" fill="none" stroke="#e33" stroke-width="1"/></g><g id="bridges"></g></svg>