<svg xmlns="http://www.w3.org/2000/svg" width="1500mm" height="1000mm" viewBox="0 0 1500 1000"><g id="outline"><rect x="0" y="0" width="1500" height="1000" fill="none" stroke="#000" stroke-width="1"/></g><g id="channels"><path d="M 1500.0 853.8 L 1498.1 854.8 L 1492.3 857.8 L 1486.4 860.9 L 1480.6 864.0 L 1474.8 867.1 L 1469.0 870.3 L 1463.1 873.5 L 1457.3 876.7 L 1451.5 879.8 L 1445.7 882.9 L 1439.9 886.0 L 1434.0 889.1 L 1428.1 892.1 L 1422.2 895.0 L 1422.2 895.0 L 1416.2 897.9 L 1410.3 900.8 L 1404.3 903.6 L 1398.4 906.5 L 1392.4 909.4 L 1386.4 912.2 L 1380.5 915.0 L 1374.5 917.8 L 1368.4 920.5 L 1362.4 923.2 L 1356.4 925.9 L 1350.3 928.5 L 1344.2 931.0 L 1338.1 933.5 L 1332.0 935.9 L 1325.8 938.3 L 1325.8 938.3 L 1319.6 940.5 L 1313.3 942.5 L 1306.9 944.4 L 1300.5 946.2 L 1294.0 947.8 L 1287.5 949.5 L 1281.0 951.0 L 1274.5 952.6 L 1268.1 954.2 L 1261.6 955.9 L 1255.2 957.7 L 1248.9 959.6 L 1242.7 961.6 L 1236.6 963.8 L 1230.5 966.3 L 1224.6 969.0 L 1224.6 969.0 L 1218.7 971.9 L 1212.4 974.9 L 1205.9 978.1 L 1199.3 981.4 L 1192.6 984.8 L 1186.0 988.4 L 1179.5 992.0 L 1173.2 995.8 L 1167.2 999.6 L 1166.6 1000.0" fill="none" stroke="#2b6bff" stroke-width="6.0" stroke-opacity="0.9"/><path d="M 611.9 1000.0 L 609.0 997.8 L 603.8 993.8 L 598.4 989.9 L 592.9 986.0 L 587.4 982.3 L 581.8 978.7 L 576.1 975.2 L 570.3 971.9 L 564.5 968.7 L 558.6 965.7 L 552.7 962.9 L 546.7 960.2 L 540.7 957.8 L 534.6 955.6 L 528.5 953.7 L 528.5 953.7 L 522.2 952.1 L 515.4 950.7 L 508.2 949.7 L 500.8 948.8 L 493.2 948.3 L 485.6 947.9 L 477.9 947.6 L 470.4 947.5 L 463.0 947.5 L 455.8 947.6 L 449.1 947.7 L 442.7 947.8 L 436.9 947.9 L 431.7 948.0 L 427.3 948.0 L 423.5 947.8" fill="none" stroke="#2b6bff" stroke-width="6.0" stroke-opacity="0.9"/><path d="M 371.1 965.4 L 369.9 966.8 L 368.6 968.6 L 367.0 970.7 L 365.3 973.0 L 363.5 975.6 L 361.5 978.3 L 359.3 981.2 L 357.1 984.1 L 354.8 987.1 L 352.4 990.0 L 349.9 992.9 L 347.4 995.7 L 344.8 998.4 L 343.1 1000.0" fill="none" stroke="#2b6bff" stroke-width="6.0" stroke-opacity="0.9"/><path d="M 243.8 1000.0 L 243.3 999.7" fill="none" stroke="#2b6bff" stroke-width="6.0" stroke-opacity="0.9"/><path d="M 194.0 987.4 L 190.5 985.4 L 186.2 983.1 L 181.1 980.5 L 175.5 977.6 L 169.2 974.6 L 162.6 971.2 L 155.7 967.7 L 148.6 963.9 L 141.3 960.0 L 134.1 955.8 L 127.1 951.5 L 120.2 947.0 L 113.7 942.4 L 107.7 937.6 L 102.2 932.7 L 97.4 927.7 L 97.4 927.7 L 93.0 922.5 L 88.8 917.0 L 84.8 911.3 L 81.0 905.3 L 77.3 899.2 L 73.9 892.9 L 70.7 886.4 L 67.6 879.8 L 64.8 873.1 L 62.2 866.3 L 59.8 859.4 L 57.7 852.6 L 55.7 845.7 L 54.0 838.8 L 52.6 832.0 L 51.4 825.2 L 51.4 825.2 L 50.4 818.4 L 49.7 811.4 L 49.2 804.4 L 48.9 797.2 L 48.9 790.0 L 49.1 782.7 L 49.5 775.4 L 50.1 768.1 L 51.0 760.8 L 52.0 753.5 L 53.3 746.3 L 54.8 739.2 L 56.4 732.2 L 58.3 725.4 L 60.4 718.7 L 62.6 712.1 L 62.6 712.1 L 65.1 705.7 L 67.8 699.2 L 70.7 692.7 L 73.9 686.2 L 77.2 679.8 L 80.8 673.5 L 84.6 667.2 L 88.5 661.1 L 92.7 655.1 L 97.0 649.3 L 101.5 643.7 L 106.2 638.3 L 111.0 633.1 L 116.0 628.2 L 121.1 623.6 L 126.3 619.3 L 126.3 619.3 L 131.8 615.3 L 137.5 611.6 L 143.5 608.0 L 149.7 604.7 L 156.2 601.6 L 162.7 598.7 L 169.5 596.1 L 176.3 593.6 L 183.3 591.3 L 190.3 589.2 L 197.4 587.3 L 204.5 585.6 L 211.6 584.0 L 218.7 582.6 L 225.7 581.4 L 232.6 580.3 L 232.6 580.3 L 239.5 579.4 L 246.5 578.8 L 253.6 578.3 L 260.7 578.0 L 267.8 578.0 L 275.0 578.1 L 282.2 578.3 L 289.4 578.8 L 296.7 579.4 L 303.9 580.2 L 311.1 581.1 L 318.2 582.1 L 325.3 583.3 L 332.4 584.5 L 339.3 585.9 L 346.2 587.4 L 346.2 587.4 L 353.1 589.1 L 360.0 590.8 L 366.9 592.7 L 373.8 594.7 L 380.6 596.9 L 387.5 599.2 L 394.3 601.6 L 401.1 604.2 L 407.8 606.9 L 414.4 609.7 L 420.9 612.7 L 427.4 615.8 L 433.7 619.1 L 439.9 622.5 L 446.0 626.1 L 452.0 629.8 L 452.0 629.8 L 457.8 633.9 L 463.3 638.4 L 468.7 643.4 L 473.8 648.7 L 478.9 654.2 L 483.8 659.9 L 488.7 665.7 L 493.6 671.5 L 498.4 677.2 L 503.3 682.8 L 508.2 688.2 L 513.2 693.2 L 518.3 697.8 L 523.6 701.9 L 529.0 705.5 L 534.7 708.4 L 534.7 708.4 L 540.6 711.0 L 546.9 713.3 L 553.4 715.4 L 560.2 717.2 L 567.0 718.8 L 574.0 720.2 L 581.0 721.2 L 588.0 721.9 L 595.0 722.2 L 601.8 722.2 L 608.4 721.7 L 614.8 720.8 L 620.9 719.5 L 626.6 717.7 L 632.0 715.4 L 636.9 712.6 L 636.9 712.6 L 641.3 709.2 L 645.4 705.0 L 649.3 700.1 L 652.8 694.7 L 656.1 688.7 L 659.1 682.4 L 661.9 675.6 L 664.6 668.5 L 667.1 661.3 L 669.6 653.8 L 671.9 646.3 L 674.2 638.8 L 676.4 631.4 L 678.7 624.0 L 680.9 616.9 L 683.3 610.1 L 683.3 610.1 L 685.5 603.4 L 687.5 596.6 L 689.3 589.6 L 690.9 582.6 L 692.4 575.6 L 693.8 568.5 L 695.2 561.3 L 696.6 554.2 L 698.0 547.1 L 699.5 540.1 L 701.2 533.1 L 703.0 526.2 L 705.0 519.3 L 707.2 512.7 L 709.8 506.1 L 712.6 499.7 L 712.6 499.7 L 715.8 493.5 L 719.1 487.3 L 722.7 481.2 L 726.5 475.2 L 730.4 469.3 L 734.5 463.5 L 738.7 457.7 L 743.0 452.0 L 747.5 446.4 L 752.0 440.8 L 756.7 435.3 L 761.4 429.9 L 766.2 424.6 L 771.0 419.3 L 775.8 414.0 L 780.7 408.9 L 780.7 408.9 L 785.6 403.8 L 790.7 398.8 L 795.9 393.9 L 801.1 389.1 L 806.5 384.5 L 812.0 379.8 L 817.5 375.3 L 823.1 370.7 L 828.7 366.3 L 834.4 361.8 L 840.0 357.4 L 845.7 352.9 L 851.3 348.5 L 857.0 344.0 L 862.6 339.5 L 868.1 335.0 L 868.1 335.0 L 873.6 330.4 L 879.1 325.9 L 884.7 321.3 L 890.2 316.8 L 895.8 312.3 L 901.3 307.8 L 906.9 303.3 L 912.4 298.8 L 918.0 294.3 L 923.6 289.8 L 929.2 285.3 L 934.7 280.8 L 940.3 276.4 L 945.9 271.9 L 951.5 267.4 L 957.1 263.0 L 957.1 263.0 L 962.7 258.5 L 968.3 254.1 L 973.9 249.6 L 979.5 245.2 L 985.2 240.8 L 990.8 236.4 L 996.4 232.0 L 1002.1 227.6 L 1007.7 223.2 L 1013.4 218.8 L 1019.0 214.4 L 1024.6 209.9 L 1030.2 205.5 L 1035.8 201.0 L 1041.3 196.5 L 1046.9 192.0 L 1046.9 192.0 L 1052.4 187.5 L 1058.0 183.0 L 1063.6 178.5 L 1069.2 174.0 L 1074.8 169.5 L 1080.4 165.0 L 1086.0 160.5 L 1091.5 156.0 L 1097.0 151.4 L 1102.5 146.8 L 1107.9 142.1 L 1113.3 137.4 L 1118.6 132.7 L 1123.9 127.8 L 1129.0 122.9 L 1134.1 117.9 L 1134.1 117.9 L 1139.1 112.8 L 1144.0 107.7 L 1148.9 102.5 L 1153.8 97.2 L 1158.6 91.9 L 1163.3 86.5 L 1168.0 81.1 L 1172.6 75.6 L 1177.2 70.1 L 1181.7 64.6 L 1186.1 58.9 L 1190.5 53.3 L 1194.8 47.6 L 1199.1 41.9 L 1203.3 36.1 L 1207.4 30.2 L 1207.4 30.2 L 1211.4 24.4 L 1215.3 18.4 L 1219.1 12.4 L 1222.9 6.3 L 1226.6 0.2 L 1226.7 0.0" fill="none" stroke="#2b6bff" stroke-width="6.0" stroke-opacity="0.9"/><path d="M 1406.9 0.0 L 1405.0 4.5 L 1402.6 9.9 L 1400.1 15.2 L 1397.6 20.6 L 1397.6 20.6 L 1395.0 25.9 L 1392.5 31.2 L 1389.9 36.5 L 1387.2 41.9 L 1384.6 47.2 L 1381.9 52.4 L 1379.2 57.7 L 1376.4 62.9 L 1373.6 68.2 L 1370.7 73.3 L 1367.8 78.5 L 1364.8 83.5 L 1361.7 88.6 L 1358.5 93.5 L 1355.3 98.5 L 1352.0 103.3 L 1352.0 103.3 L 1348.5 108.1 L 1345.0 112.8 L 1341.4 117.5 L 1337.8 122.1 L 1334.0 126.6 L 1330.2 131.2 L 1326.3 135.6 L 1322.4 140.1 L 1318.4 144.5 L 1314.4 148.8 L 1310.3 153.2 L 1306.2 157.5 L 1302.2 161.8 L 1298.1 166.1 L 1294.0 170.4 L 1289.9 174.7 L 1289.9 174.7 L 1285.8 178.9 L 1281.7 183.2 L 1277.5 187.4 L 1273.3 191.5 L 1269.1 195.7 L 1264.8 199.8 L 1260.6 203.9 L 1256.3 208.0 L 1252.0 212.0 L 1247.6 216.1 L 1243.3 220.1 L 1239.0 224.1 L 1234.6 228.2 L 1230.3 232.2 L 1225.9 236.2 L 1221.6 240.2 L 1221.6 240.2 L 1217.3 244.3 L 1212.9 248.3 L 1208.5 252.2 L 1204.1 256.2 L 1199.7 260.2 L 1195.3 264.1 L 1190.9 268.1 L 1186.5 272.0 L 1182.1 275.9 L 1177.7 279.9 L 1173.2 283.8 L 1168.8 287.7 L 1164.4 291.7 L 1160.0 295.7 L 1155.6 299.6 L 1151.3 303.6 L 1151.3 303.6 L 1146.8 307.7 L 1142.1 312.0 L 1137.2 316.5 L 1132.2 321.1 L 1127.2 325.8 L 1122.1 330.5 L 1117.1 335.2 L 1112.1 339.8 L 1107.4 344.2 L 1102.7 348.5 L 1098.4 352.6 L 1094.3 356.4 L 1090.5 359.9 L 1087.2 363.0 L 1084.3 365.7 L 1081.8 368.0" fill="none" stroke="#2b6bff" stroke-width="6.0" stroke-opacity="0.9"/><path d="M 879.3 499.9 L 883.0 498.0 L 887.4 495.7 L 892.5 493.0 L 898.1 490.0 L 904.3 486.8 L 910.9 483.3 L 917.9 479.7 L 925.1 475.9 L 932.6 472.0 L 940.2 468.0 L 947.8 464.1 L 955.5 460.2 L 963.0 456.3 L 970.4 452.6 L 977.5 449.0 L 984.4 445.7 L 984.4 445.7 L 991.0 442.4 L 997.6 439.2 L 1004.3 435.9 L 1010.9 432.7 L 1017.5 429.4 L 1024.2 426.2 L 1030.9 423.0 L 1037.5 419.9 L 1044.2 416.7 L 1050.9 413.6 L 1057.7 410.6 L 1064.4 407.5 L 1071.2 404.6 L 1078.0 401.7 L 1084.8 398.8 L 1091.6 396.1 L 1091.6 396.1 L 1098.5 393.4 L 1105.4 390.7 L 1112.3 388.2 L 1119.2 385.7 L 1126.2 383.3 L 1133.2 380.9 L 1140.2 378.5 L 1147.2 376.2 L 1154.3 373.9 L 1161.3 371.7 L 1168.3 369.4 L 1175.4 367.2 L 1182.4 364.9 L 1189.5 362.6 L 1196.5 360.3 L 1203.5 358.0 L 1203.5 358.0 L 1210.5 355.7 L 1217.6 353.4 L 1224.6 351.2 L 1231.7 349.0 L 1238.8 346.9 L 1245.9 344.7 L 1253.0 342.6 L 1260.0 340.4 L 1267.1 338.2 L 1274.1 336.0 L 1281.2 333.7 L 1288.2 331.3 L 1295.1 328.9 L 1302.0 326.3 L 1308.9 323.7 L 1315.7 320.9 L 1315.7 320.9 L 1322.5 318.1 L 1329.3 315.1 L 1336.0 312.2 L 1342.7 309.1 L 1349.4 306.0 L 1356.1 302.8 L 1362.7 299.6 L 1369.4 296.2 L 1375.9 292.9 L 1382.5 289.4 L 1389.0 285.9 L 1395.5 282.4 L 1401.9 278.8 L 1408.3 275.1 L 1414.6 271.3 L 1420.9 267.5 L 1420.9 267.5 L 1427.2 263.6 L 1433.4 259.7 L 1439.5 255.6 L 1445.6 251.5 L 1451.7 247.3 L 1457.7 243.0 L 1463.7 238.6 L 1469.7 234.3 L 1475.6 229.8 L 1481.5 225.4 L 1487.4 220.9 L 1493.3 216.4 L 1499.1 211.8 L 1500.0 211.1" fill="none" stroke="#2b6bff" stroke-width="6.0" stroke-opacity="0.9"/></g><g id="clips"><circle cx="1500.0" cy="853.8" r="2" fill="none" stroke="#0b5" stroke-width="0.6"/><circle cx="1166.6" cy="1000.0" r="2" fill="none" stroke="#0b5" stroke-width="0.6"/><circle cx="611.9" cy="1000.0" r="2" fill="none" stroke="#0b5" stroke-width="0.6"/><circle cx="423.5" cy="947.8" r="2" fill="none" stroke="#0b5" stroke-width="0.6"/><circle cx="371.1" cy="965.4" r="2" fill="none" stroke="#0b5" stroke-width="0.6"/><circle cx="243.8" cy="1000.0" r="2" fill="none" stroke="#0b5" stroke-width="0.6"/><circle cx="194.0" cy="987.4" r="2" fill="none" stroke="#0b5" stroke-width="0.6"/><circle cx="1226.7" cy="0.0" r="2" fill="none" stroke="#0b5" stroke-width="0.6"/><circle cx="1406.9" cy="0.0" r="2" fill="none" stroke="#0b5" stroke-width="0.6"/><circle cx="1081.8" cy="368.0" r="2" fill="none" stroke="#0b5" stroke-width="0.6"/><circle cx="879.3" cy="499.9" r="2" fill="none" stroke="#0b5" stroke-width="0.6"/><circle cx="1500.0" cy="211.1" r="2" fill="none" stroke="#0b5" stroke-width="0.6"/></g><g id="power"><circle cx="1500.0" cy="853.9" r="5" fill="none" stroke="#e33" stroke-width="1"/><circle cx="1500.0" cy="211.2" r="5" fill="none" stroke="#e33" stroke-width="1"/><circle cx="1166.7" cy="1000.0" r="5" fill="none" stroke="#e33" stroke-width="1"/><circle cx="611.8" cy="1000.0" r="5" fill="none" stroke="#e33" stroke-width="1"/><circle cx="343.1" cy="1000.0" r="5" fill="none" stroke="#e33" stroke-width="1"/><circle cx="243.7" cy="1000.0" r="5" fill="none" stroke="#e33" stroke-width="1"/><circle cx="1226.7" cy="0.0" r="5" fill="none" stroke="#e33" stroke-width="1"/><circle cx="1406.9" cy="0.0" r="5" fill="none" stroke="#e33" stroke-width="1"/></g></svg>