<svg xmlns="http://www.w3.org/2000/svg" width="1000mm" height="1500mm" viewBox="0 0 1000 1500"><g id="outline"><rect x="0" y="0" width="1000" height="1500" fill="none" stroke="#000" stroke-width="1"/></g><g id="channels"><path d="M 0.0 1190.1 L 1.1 1189.1 L 6.5 1184.5 L 12.0 1179.8 L 17.5 1175.3 L 23.1 1170.7 L 28.7 1166.3 L 34.4 1161.8 L 40.0 1157.4 L 45.7 1152.9 L 51.3 1148.5 L 57.0 1144.0 L 62.6 1139.5 L 68.1 1135.0 L 68.1 1135.0 L 73.6 1130.4 L 79.1 1125.9 L 84.7 1121.3 L 90.2 1116.8 L 95.8 1112.3 L 101.3 1107.8 L 106.9 1103.3 L 112.4 1098.8 L 118.0 1094.3 L 123.6 1089.8 L 129.2 1085.3 L 134.7 1080.8 L 140.3 1076.4 L 145.9 1071.9 L 151.5 1067.4 L 157.1 1063.0 L 157.1 1063.0 L 162.7 1058.5 L 168.3 1054.1 L 173.9 1049.6 L 179.5 1045.2 L 185.2 1040.8 L 190.8 1036.4 L 196.4 1032.0 L 202.1 1027.6 L 207.7 1023.2 L 213.4 1018.8 L 219.0 1014.4 L 224.6 1009.9 L 230.2 1005.5 L 235.8 1001.0 L 241.3 996.5 L 246.9 992.0 L 246.9 992.0 L 252.4 987.5 L 258.0 983.0 L 263.6 978.5 L 269.2 974.0 L 274.8 969.5 L 280.4 965.0 L 286.0 960.5 L 291.5 956.0 L 297.0 951.4 L 302.5 946.8 L 307.9 942.1 L 313.3 937.4 L 318.6 932.7 L 323.9 927.8 L 329.0 922.9 L 334.1 917.9 L 334.1 917.9 L 339.1 912.8 L 344.0 907.7 L 348.9 902.5 L 353.8 897.2 L 358.6 891.9 L 363.3 886.5 L 368.0 881.1 L 372.6 875.6 L 377.2 870.1 L 381.7 864.6 L 386.1 858.9 L 390.5 853.3 L 394.8 847.6 L 399.1 841.9 L 403.3 836.1 L 407.4 830.2 L 407.4 830.2 L 411.4 824.4 L 415.3 818.4 L 419.1 812.4 L 422.9 806.3 L 426.6 800.2 L 430.2 794.0 L 433.7 787.8 L 437.2 781.6 L 440.7 775.3 L 444.1 769.0 L 447.5 762.7 L 450.9 756.3 L 454.2 750.0 L 457.6 743.6 L 460.9 737.3 L 464.2 731.0 L 464.2 731.0 L 467.6 724.7 L 470.8 718.3 L 474.1 711.9 L 477.3 705.5 L 480.5 699.1 L 483.6 692.7 L 486.7 686.3 L 489.8 679.8 L 492.9 673.4 L 496.0 666.9 L 499.1 660.4 L 502.2 654.0 L 505.2 647.5 L 508.3 641.1 L 511.5 634.6 L 514.6 628.2 L 514.6 628.2 L 517.8 621.8 L 521.0 615.4 L 524.2 609.0 L 527.4 602.6 L 530.6 596.2 L 533.9 589.8 L 537.1 583.4 L 540.3 577.0 L 543.5 570.6 L 546.7 564.2 L 549.9 557.8 L 553.0 551.4 L 556.1 544.9 L 559.1 538.5 L 562.1 532.0 L 565.1 525.4 L 565.1 525.4 L 568.0 518.9 L 570.9 512.4 L 573.9 505.9 L 576.9 499.3 L 579.8 492.8 L 582.7 486.2 L 585.6 479.6 L 588.4 473.0 L 591.2 466.4 L 593.9 459.8 L 596.5 453.1 L 598.9 446.4 L 601.3 439.7 L 603.5 432.9 L 605.6 426.2 L 607.5 419.3 L 607.5 419.3 L 609.3 412.5 L 611.1 405.5 L 612.7 398.6 L 614.2 391.6 L 615.7 384.5 L 617.0 377.5 L 618.3 370.4 L 619.4 363.2 L 620.4 356.1 L 621.3 349.0 L 622.1 341.9 L 622.7 334.7 L 623.3 327.6 L 623.6 320.5 L 623.9 313.4 L 623.9 306.3 L 623.9 306.3 L 623.7 299.1 L 623.0 291.7 L 622.0 284.1 L 620.6 276.3 L 619.1 268.5 L 617.3 260.7 L 615.5 252.9 L 613.7 245.2 L 612.0 237.6 L 610.4 230.3 L 609.0 223.2 L 607.9 216.4 L 607.1 210.0 L 606.8 204.0 L 607.0 198.5 L 607.7 193.5 L 607.7 193.5 L 609.0 188.8 L 610.8 184.2 L 612.9 179.8 L 615.4 175.6 L 618.3 171.5 L 621.4 167.8 L 624.7 164.4 L 628.3 161.3 L 631.9 158.7 L 635.7 156.6 L 639.5 154.9 L 643.3 153.8 L 647.0 153.3 L 650.7 153.4 L 654.2 154.3 L 657.6 155.8 L 657.6 155.8 L 660.9 158.5 L 664.5 162.5 L 668.2 167.5 L 672.0 173.6 L 675.9 180.4 L 679.9 187.7 L 683.8 195.6 L 687.6 203.6 L 691.4 211.8 L 695.0 219.8 L 698.4 227.5 L 701.7 234.9 L 704.6 241.5 L 707.2 247.4 L 709.5 252.3 L 711.4 256.1" fill="none" stroke="#2b6bff" stroke-width="6.0" stroke-opacity="0.9"/><path d="M 722.1 185.8 L 723.2 182.6 L 724.4 178.4 L 725.9 173.5 L 727.5 167.9 L 729.2 161.9 L 731.1 155.4 L 733.1 148.7 L 735.2 141.9 L 737.3 135.0 L 739.6 128.2 L 741.8 121.6 L 744.1 115.4 L 746.4 109.7 L 748.8 104.5 L 751.1 100.1 L 753.3 96.5 L 753.3 96.5 L 755.7 93.4 L 758.2 90.6 L 761.0 88.0 L 763.8 85.7 L 766.8 83.6 L 769.8 81.9 L 772.8 80.4 L 775.8 79.3 L 778.7 78.6 L 781.5 78.2 L 784.1 78.3 L 786.5 78.7 L 788.7 79.6 L 790.7 80.9 L 792.3 82.7 L 793.5 85.0 L 793.5 85.0 L 794.3 88.3 L 794.6 92.8 L 794.4 98.4 L 793.8 104.9 L 793.0 112.1 L 791.9 119.7 L 790.8 127.6 L 789.5 135.6 L 788.3 143.5 L 787.2 151.0 L 786.3 158.0 L 785.7 164.3 L 785.4 169.7 L 785.5 174.0 L 786.1 176.9 L 787.3 178.4 L 787.3 178.4 L 789.1 178.2 L 791.4 176.5 L 794.2 173.5 L 797.3 169.4 L 800.8 164.4 L 804.6 158.7 L 808.5 152.4 L 812.6 145.9 L 816.7 139.1 L 820.9 132.5 L 824.9 126.1 L 828.8 120.1 L 832.5 114.7 L 836.0 110.2 L 839.0 106.6 L 841.7 104.3 L 841.7 104.3 L 844.1 102.9 L 846.4 102.0 L 848.6 101.6 L 850.8 101.7 L 852.8 102.1 L 854.6 103.0 L 856.4 104.1 L 858.0 105.6 L 859.5 107.4 L 860.9 109.5 L 862.1 111.7 L 863.1 114.2 L 864.0 116.8 L 864.7 119.6 L 865.3 122.5 L 865.6 125.4 L 865.6 125.4 L 865.6 128.8 L 865.1 133.1 L 864.2 138.1 L 862.9 143.7 L 861.4 149.6 L 859.7 155.8 L 857.9 162.1 L 856.0 168.4 L 854.3 174.4 L 852.6 180.2 L 851.2 185.4 L 850.1 190.0 L 849.4 193.8 L 849.2 196.7 L 849.4 198.5 L 850.4 199.1 L 850.4 199.1 L 852.0 198.1 L 854.2 195.7 L 857.1 192.0 L 860.4 187.2 L 864.1 181.6 L 868.2 175.3 L 872.4 168.5 L 876.8 161.5 L 881.2 154.5 L 885.5 147.7 L 889.7 141.2 L 893.7 135.4 L 897.4 130.3 L 900.7 126.4 L 903.4 123.6 L 905.6 122.3 L 905.6 122.3 L 907.3 122.2 L 908.8 123.1 L 910.0 124.8 L 911.0 127.3 L 911.8 130.4 L 912.3 134.0 L 912.7 138.1 L 912.9 142.7 L 913.0 147.5 L 912.8 152.5 L 912.6 157.7 L 912.2 162.9 L 911.6 168.1 L 911.0 173.1 L 910.2 177.9 L 909.4 182.4 L 909.4 182.4 L 908.2 187.0 L 906.4 192.3 L 904.1 198.0 L 901.5 204.0 L 898.6 210.3 L 895.6 216.6 L 892.4 223.0 L 889.3 229.3 L 886.3 235.2 L 883.6 240.9 L 881.1 246.0 L 879.1 250.6 L 877.6 254.4 L 876.7 257.4 L 876.6 259.4 L 877.2 260.3 L 877.2 260.3 L 878.8 259.9 L 881.4 258.0 L 884.8 254.9 L 888.8 250.7 L 893.4 245.7 L 898.5 240.1 L 903.8 234.0 L 909.4 227.7 L 914.9 221.4 L 920.4 215.3 L 925.7 209.6 L 930.7 204.5 L 935.2 200.2 L 939.1 196.9 L 942.3 194.9 L 944.7 194.2 L 944.7 194.2 L 946.4 194.9 L 947.8 196.6 L 948.8 199.1 L 949.5 202.3 L 949.9 206.3 L 950.1 210.8 L 949.9 215.8 L 949.4 221.2 L 948.8 226.8 L 947.8 232.6 L 946.7 238.5 L 945.3 244.3 L 943.8 250.0 L 942.1 255.5 L 940.2 260.7 L 938.2 265.4 L 938.2 265.4 L 935.9 269.9 L 933.3 274.4 L 930.3 279.0 L 927.1 283.6 L 923.6 288.3 L 919.9 292.9 L 916.0 297.5 L 912.0 302.1 L 907.8 306.7 L 903.5 311.3 L 899.2 315.8 L 894.8 320.3 L 890.4 324.8 L 886.1 329.2 L 881.8 333.5 L 877.6 337.7 L 877.6 337.7 L 873.4 341.9 L 869.1 345.9 L 864.7 349.8 L 860.2 353.7 L 855.7 357.5 L 851.1 361.2 L 846.4 364.9 L 841.8 368.6 L 837.1 372.3 L 832.5 376.1 L 827.9 379.8 L 823.3 383.6 L 818.9 387.5 L 814.5 391.4 L 810.2 395.5 L 806.0 399.6 L 806.0 399.6 L 801.9 403.8 L 797.8 408.1 L 793.7 412.4 L 789.7 416.7 L 785.7 421.1 L 781.7 425.5 L 777.8 430.0 L 774.0 434.5 L 770.2 439.0 L 766.4 443.6 L 762.8 448.3 L 759.2 453.0 L 755.7 457.7 L 752.4 462.5 L 749.1 467.4 L 745.9 472.3 L 745.9 472.3 L 742.8 477.3 L 739.9 482.4 L 737.0 487.5 L 734.3 492.7 L 731.7 498.0 L 729.2 503.4 L 726.7 508.7 L 724.3 514.2 L 721.9 519.6 L 719.6 525.1 L 717.3 530.6 L 715.0 536.1 L 712.7 541.5 L 710.4 547.0 L 708.1 552.5 L 705.8 557.9 L 705.8 557.9 L 703.4 563.4 L 701.2 568.8 L 698.9 574.3 L 696.7 579.8 L 694.5 585.3 L 692.3 590.8 L 690.1 596.3 L 688.0 601.8 L 685.9 607.3 L 683.7 612.8 L 681.6 618.4 L 679.4 623.9 L 677.3 629.4 L 675.1 634.9 L 672.9 640.4 L 670.6 645.9 L 670.6 645.9 L 668.4 651.3 L 666.1 656.8 L 663.8 662.3 L 661.6 667.7 L 659.3 673.2 L 657.0 678.6 L 654.7 684.1 L 652.4 689.5 L 650.0 695.0 L 647.7 700.4 L 645.4 705.9 L 643.1 711.3 L 640.8 716.8 L 638.5 722.2 L 636.2 727.7 L 633.9 733.1 L 633.9 733.1 L 631.7 738.6 L 629.4 744.1 L 627.2 749.6 L 625.0 755.1 L 622.9 760.6 L 620.7 766.1 L 618.5 771.6 L 616.3 777.1 L 614.1 782.6 L 611.9 788.1 L 609.6 793.6 L 607.3 799.0 L 605.0 804.5 L 602.6 809.9 L 600.1 815.2 L 597.6 820.6 L 597.6 820.6 L 595.0 825.9 L 592.5 831.2 L 589.9 836.5 L 587.2 841.9 L 584.6 847.2 L 581.9 852.4 L 579.2 857.7 L 576.4 862.9 L 573.6 868.2 L 570.7 873.3 L 567.8 878.5 L 564.8 883.5 L 561.7 888.6 L 558.5 893.5 L 555.3 898.5 L 552.0 903.3 L 552.0 903.3 L 548.5 908.1 L 545.0 912.8 L 541.4 917.5 L 537.8 922.1 L 534.0 926.6 L 530.2 931.2 L 526.3 935.6 L 522.4 940.1 L 518.4 944.5 L 514.4 948.8 L 510.3 953.2 L 506.2 957.5 L 502.2 961.8 L 498.1 966.1 L 494.0 970.4 L 489.9 974.7 L 489.9 974.7 L 485.8 978.9 L 481.7 983.2 L 477.5 987.4 L 473.3 991.5 L 469.1 995.7 L 464.8 999.8 L 460.6 1003.9 L 456.3 1008.0 L 452.0 1012.0 L 447.6 1016.1 L 443.3 1020.1 L 439.0 1024.1 L 434.6 1028.2 L 430.3 1032.2 L 425.9 1036.2 L 421.6 1040.2 L 421.6 1040.2 L 417.3 1044.3 L 412.9 1048.3 L 408.5 1052.2 L 404.1 1056.2 L 399.7 1060.2 L 395.3 1064.1 L 390.9 1068.1 L 386.5 1072.0 L 382.1 1075.9 L 377.7 1079.9 L 373.2 1083.8 L 368.8 1087.7 L 364.4 1091.7 L 360.0 1095.7 L 355.6 1099.6 L 351.3 1103.6 L 351.3 1103.6 L 346.8 1107.7 L 342.1 1112.0 L 337.2 1116.5 L 332.2 1121.1 L 327.2 1125.8 L 322.1 1130.5 L 317.1 1135.2 L 312.1 1139.8 L 307.4 1144.2 L 302.7 1148.5 L 298.4 1152.6 L 294.3 1156.4 L 290.5 1159.9 L 287.2 1163.0 L 284.3 1165.7 L 281.8 1168.0" fill="none" stroke="#2b6bff" stroke-width="6.0" stroke-opacity="0.9"/><path d="M 79.3 1299.9 L 83.0 1298.0 L 87.4 1295.7 L 92.5 1293.0 L 98.1 1290.0 L 104.3 1286.8 L 110.9 1283.3 L 117.9 1279.7 L 125.1 1275.9 L 132.6 1272.0 L 140.2 1268.0 L 147.8 1264.1 L 155.5 1260.2 L 163.0 1256.3 L 170.4 1252.6 L 177.5 1249.0 L 184.4 1245.7 L 184.4 1245.7 L 191.0 1242.4 L 197.6 1239.2 L 204.3 1235.9 L 210.9 1232.7 L 217.5 1229.4 L 224.2 1226.2 L 230.9 1223.0 L 237.5 1219.9 L 244.2 1216.7 L 250.9 1213.6 L 257.7 1210.6 L 264.4 1207.5 L 271.2 1204.6 L 278.0 1201.7 L 284.8 1198.8 L 291.6 1196.1 L 291.6 1196.1 L 298.5 1193.4 L 305.4 1190.7 L 312.3 1188.2 L 319.2 1185.7 L 326.2 1183.3 L 333.2 1180.9 L 340.2 1178.5 L 347.2 1176.2 L 354.3 1173.9 L 361.3 1171.7 L 368.3 1169.4 L 375.4 1167.2 L 382.4 1164.9 L 389.5 1162.6 L 396.5 1160.3 L 403.5 1158.0 L 403.5 1158.0 L 410.5 1155.7 L 417.6 1153.4 L 424.6 1151.2 L 431.7 1149.0 L 438.8 1146.9 L 445.9 1144.7 L 453.0 1142.6 L 460.0 1140.4 L 467.1 1138.2 L 474.1 1136.0 L 481.2 1133.7 L 488.2 1131.3 L 495.1 1128.9 L 502.0 1126.3 L 508.9 1123.7 L 515.7 1120.9 L 515.7 1120.9 L 522.5 1118.1 L 529.3 1115.1 L 536.0 1112.2 L 542.7 1109.1 L 549.4 1106.0 L 556.1 1102.8 L 562.7 1099.6 L 569.4 1096.2 L 575.9 1092.9 L 582.5 1089.4 L 589.0 1085.9 L 595.5 1082.4 L 601.9 1078.8 L 608.3 1075.1 L 614.6 1071.3 L 620.9 1067.5 L 620.9 1067.5 L 627.2 1063.6 L 633.4 1059.7 L 639.5 1055.6 L 645.6 1051.5 L 651.7 1047.3 L 657.7 1043.0 L 663.7 1038.6 L 669.7 1034.3 L 675.6 1029.8 L 681.5 1025.4 L 687.4 1020.9 L 693.3 1016.4 L 699.1 1011.8 L 705.0 1007.3 L 710.8 1002.7 L 716.7 998.2 L 716.7 998.2 L 722.5 993.7 L 728.3 989.1 L 734.1 984.6 L 739.9 980.0 L 745.7 975.4 L 751.5 970.8 L 757.2 966.1 L 763.0 961.4 L 768.6 956.7 L 774.3 952.0 L 780.0 947.2 L 785.6 942.4 L 791.1 937.5 L 796.6 932.6 L 802.1 927.7 L 807.5 922.7 L 807.5 922.7 L 812.9 917.6 L 818.2 912.5 L 823.5 907.3 L 828.7 902.1 L 833.9 896.9 L 839.0 891.6 L 844.1 886.2 L 849.2 880.9 L 854.3 875.5 L 859.3 870.1 L 864.4 864.6 L 869.4 859.2 L 874.4 853.8 L 879.4 848.3 L 884.4 842.9 L 889.4 837.5 L 889.4 837.5 L 894.5 832.1 L 899.5 826.6 L 904.4 821.2 L 909.4 815.7 L 914.3 810.2 L 919.3 804.7 L 924.2 799.2 L 929.1 793.7 L 934.0 788.2 L 939.0 782.7 L 943.9 777.1 L 948.8 771.6 L 953.7 766.1 L 958.6 760.5 L 963.5 755.0 L 968.4 749.5 L 968.4 749.5 L 973.3 744.0 L 978.2 738.4 L 983.1 732.9 L 988.0 727.4 L 993.0 721.9 L 997.9 716.4 L 1000.0 714.0" fill="none" stroke="#2b6bff" stroke-width="6.0" stroke-opacity="0.9"/></g><g id="clips"><circle cx="0.0" cy="1190.1" r="2" fill="none" stroke="#0b5" stroke-width="0.6"/><circle cx="711.4" cy="256.1" r="2" fill="none" stroke="#0b5" stroke-width="0.6"/><circle cx="722.1" cy="185.8" r="2" fill="none" stroke="#0b5" stroke-width="0.6"/><circle cx="281.8" cy="1168.0" r="2" fill="none" stroke="#0b5" stroke-width="0.6"/><circle cx="79.3" cy="1299.9" r="2" fill="none" stroke="#0b5" stroke-width="0.6"/><circle cx="1000.0" cy="714.0" r="2" fill="none" stroke="#0b5" stroke-width="0.6"/></g><g id="power"><circle cx="0.0" cy="1190.1" r="5" fill="none" stroke="#e33" stroke-width="1"/><circle cx="1000.0" cy="714.0" r="5" fill="none" stroke="#e33" stroke-width="1"/></g><g id="bridges"><circle cx="875.3" cy="140.4" r="9" fill="none" stroke="#e6a817" stroke-width="1.5"/><circle cx="870.4" cy="155.2" r="9" fill="none" stroke="#e6a817" stroke-width="1.5"/><circle cx="916.0" cy="201.0" r="9" fill="none" stroke="#e6a817" stroke-width="1.5"/><circle cx="910.9" cy="209.7" r="9" fill="none" stroke="#e6a817" stroke-width="1.5"/></g></svg>