<svg xmlns="http://www.w3.org/2000/svg" width="2000mm" height="1000mm" viewBox="0 0 2000 1000"><g id="outline"><rect x="0" y="0" width="2000" height="1000" fill="none" stroke="#000" stroke-width="1"/></g><g id="channels"><path d="M 642.6 0.0 L 642.9 0.9 L 645.4 7.1 L 647.9 13.4 L 647.9 13.4 L 650.6 19.5 L 653.3 25.6 L 656.1 31.7 L 659.0 37.8 L 662.0 43.8 L 665.0 49.8 L 668.1 55.8 L 671.2 61.8 L 674.4 67.7 L 677.5 73.7 L 680.6 79.7 L 683.7 85.6 L 686.8 91.6 L 689.8 97.6 L 692.8 103.6 L 695.7 109.7 L 695.7 109.7 L 698.6 115.8 L 701.6 121.8 L 704.7 127.8 L 707.8 133.9 L 710.9 139.9 L 714.1 145.9 L 717.1 152.0 L 720.2 158.1 L 723.1 164.1 L 726.0 170.2 L 728.7 176.4 L 731.3 182.5 L 733.8 188.7 L 736.0 195.0 L 738.0 201.3 L 739.8 207.6 L 739.8 207.6 L 741.5 214.1 L 743.0 220.6 L 744.5 227.1 L 745.8 233.8 L 747.0 240.5 L 748.1 247.2 L 749.1 253.9 L 749.8 260.7 L 750.5 267.5 L 750.9 274.2 L 751.1 280.9 L 751.2 287.6 L 751.0 294.3 L 750.6 300.8 L 750.0 307.4 L 749.1 313.8 L 749.1 313.8 L 747.9 320.2 L 746.4 326.5 L 744.6 332.8 L 742.6 339.1 L 740.4 345.4 L 737.9 351.6 L 735.3 357.8 L 732.5 364.0 L 729.5 370.1 L 726.5 376.2 L 723.3 382.3 L 720.1 388.3 L 716.8 394.3 L 713.5 400.2 L 710.2 406.1 L 706.9 411.9 L 706.9 411.9 L 703.6 417.7 L 700.1 423.4 L 696.5 429.0 L 692.8 434.5 L 688.9 440.1 L 685.0 445.5 L 681.0 451.0 L 677.0 456.4 L 672.9 461.8 L 668.8 467.1 L 664.7 472.5 L 660.6 477.8 L 656.5 483.2 L 652.4 488.6 L 648.4 494.0 L 644.4 499.4 L 644.4 499.4 L 640.5 504.9 L 636.5 510.3 L 632.6 515.8 L 628.6 521.2 L 624.6 526.6 L 620.6 532.0 L 616.7 537.4 L 612.7 542.9 L 608.7 548.3 L 604.7 553.7 L 600.8 559.1 L 596.8 564.6 L 592.9 570.0 L 588.9 575.5 L 585.0 581.0 L 581.1 586.4 L 581.1 586.4 L 577.3 591.9 L 573.4 597.4 L 569.6 603.0 L 565.7 608.5 L 561.9 614.0 L 558.1 619.6 L 554.3 625.1 L 550.5 630.7 L 546.8 636.2 L 543.0 641.8 L 539.2 647.4 L 535.4 652.9 L 531.6 658.5 L 527.9 664.1 L 524.1 669.6 L 520.3 675.2 L 520.3 675.2 L 516.5 680.7 L 512.5 686.2 L 508.5 691.7 L 504.4 697.1 L 500.3 702.5 L 496.2 708.0 L 492.1 713.4 L 488.1 718.9 L 484.1 724.4 L 480.2 729.9 L 476.4 735.4 L 472.7 741.0 L 469.2 746.7 L 465.9 752.5 L 462.8 758.3 L 459.9 764.2 L 459.9 764.2 L 457.1 770.2 L 454.3 776.3 L 451.6 782.6 L 448.8 788.9 L 446.2 795.2 L 443.7 801.7 L 441.3 808.1 L 439.1 814.6 L 437.1 821.1 L 435.4 827.6 L 433.9 834.1 L 432.8 840.6 L 432.0 847.0 L 431.5 853.3 L 431.5 859.6 L 431.8 865.8 L 431.8 865.8 L 432.7 871.9 L 434.0 878.1 L 435.7 884.2 L 437.8 890.3 L 440.2 896.4 L 443.0 902.5 L 446.0 908.6 L 449.3 914.6 L 452.7 920.6 L 456.3 926.5 L 460.1 932.4 L 463.9 938.2 L 467.8 943.9 L 471.7 949.5 L 475.6 955.1 L 479.4 960.5 L 479.4 960.5 L 483.3 965.9 L 487.4 971.1 L 491.6 976.3 L 496.0 981.3 L 500.5 986.2 L 505.1 991.1 L 509.9 995.9 L 513.9 1000.0" fill="none" stroke="#39ff88" stroke-width="6.0" stroke-opacity="0.9"/><path d="M 694.6 1000.0 L 691.8 995.4 L 688.2 989.5 L 684.6 983.5 L 681.1 977.5 L 677.6 971.6 L 674.3 965.5 L 671.0 959.5 L 667.9 953.4 L 664.9 947.3 L 662.1 941.1 L 659.4 934.9 L 657.0 928.7 L 654.9 922.4 L 654.9 922.4 L 652.9 916.0 L 650.9 909.5 L 649.1 902.9 L 647.3 896.3 L 645.6 889.6 L 644.1 882.9 L 642.7 876.1 L 641.5 869.3 L 640.6 862.6 L 639.8 855.8 L 639.2 849.1 L 639.0 842.4 L 639.0 835.7 L 639.3 829.2 L 639.9 822.7 L 640.8 816.3 L 640.8 816.3 L 642.1 810.0 L 643.9 803.7 L 645.9 797.4 L 648.4 791.2 L 651.1 785.0 L 654.0 778.8 L 657.2 772.7 L 660.6 766.6 L 664.2 760.6 L 667.8 754.6 L 671.6 748.7 L 675.4 742.8 L 679.3 736.9 L 683.1 731.1 L 686.9 725.3 L 690.7 719.6 L 690.7 719.6 L 694.4 713.9 L 698.2 708.3 L 702.1 702.7 L 706.1 697.2 L 710.2 691.7 L 714.3 686.2 L 718.5 680.8 L 722.8 675.4 L 727.1 670.1 L 731.5 664.8 L 736.0 659.6 L 740.4 654.4 L 745.0 649.3 L 749.5 644.2 L 754.1 639.1 L 758.8 634.1 L 758.8 634.1 L 763.4 629.2 L 768.2 624.3 L 773.0 619.5 L 777.9 614.8 L 782.9 610.1 L 787.9 605.4 L 792.9 600.8 L 798.0 596.2 L 803.1 591.7 L 808.3 587.2 L 813.4 582.7 L 818.6 578.2 L 823.8 573.7 L 829.0 569.2 L 834.1 564.7 L 839.3 560.2 L 839.3 560.2 L 844.4 555.8 L 849.6 551.3 L 854.8 546.9 L 860.1 542.5 L 865.3 538.1 L 870.6 533.8 L 875.9 529.5 L 881.2 525.1 L 886.5 520.8 L 891.8 516.5 L 897.0 512.1 L 902.3 507.8 L 907.6 503.4 L 912.8 499.0 L 918.0 494.6 L 923.2 490.1 L 923.2 490.1 L 928.3 485.5 L 933.3 480.6 L 938.3 475.6 L 943.3 470.5 L 948.2 465.2 L 953.1 460.0 L 958.0 454.7 L 963.0 449.5 L 967.9 444.5 L 972.9 439.6 L 977.9 435.0 L 983.0 430.6 L 988.2 426.5 L 993.4 422.8 L 998.8 419.5 L 1004.2 416.7 L 1004.2 416.7 L 1009.9 414.2 L 1016.0 411.8 L 1022.3 409.5 L 1028.8 407.4 L 1035.4 405.5 L 1042.1 403.8 L 1048.8 402.4 L 1055.5 401.3 L 1062.1 400.6 L 1068.5 400.2 L 1074.6 400.3 L 1080.5 400.8 L 1086.0 401.9 L 1091.1 403.4 L 1095.7 405.5 L 1099.8 408.3 L 1099.8 408.3 L 1103.3 411.7 L 1106.1 416.1 L 1108.5 421.2 L 1110.3 427.0 L 1111.8 433.3 L 1113.0 440.1 L 1114.0 447.3 L 1114.9 454.8 L 1115.6 462.4 L 1116.4 470.2 L 1117.2 478.0 L 1118.2 485.7 L 1119.4 493.2 L 1120.9 500.5 L 1122.8 507.4 L 1125.1 513.8 L 1125.1 513.8 L 1127.7 520.0 L 1130.5 526.3 L 1133.3 532.7 L 1136.2 539.0 L 1139.2 545.4 L 1142.4 551.7 L 1145.7 557.9 L 1149.1 564.0 L 1152.7 570.0 L 1156.4 575.9 L 1160.3 581.5 L 1164.4 586.9 L 1168.6 592.1 L 1173.0 597.0 L 1177.7 601.5 L 1182.5 605.7 L 1182.5 605.7 L 1187.6 609.6 L 1192.9 613.2 L 1198.5 616.4 L 1204.4 619.4 L 1210.4 622.2 L 1216.6 624.7 L 1223.0 627.0 L 1229.5 629.2 L 1236.1 631.2 L 1242.7 633.1 L 1249.4 634.9 L 1256.2 636.6 L 1262.9 638.2 L 1269.6 639.8 L 1276.2 641.5 L 1282.8 643.1 L 1282.8 643.1 L 1289.3 644.7 L 1296.0 646.3 L 1302.6 647.9 L 1309.3 649.4 L 1316.1 650.8 L 1322.9 652.2 L 1329.7 653.4 L 1336.5 654.6 L 1343.4 655.6 L 1350.2 656.5 L 1357.1 657.3 L 1363.9 657.9 L 1370.7 658.4 L 1377.5 658.7 L 1384.3 658.8 L 1391.0 658.7 L 1391.0 658.7 L 1397.7 658.4 L 1404.5 658.1 L 1411.3 657.6 L 1418.2 657.0 L 1425.0 656.2 L 1431.9 655.3 L 1438.7 654.2 L 1445.6 653.0 L 1452.3 651.7 L 1459.0 650.1 L 1465.6 648.4 L 1472.1 646.5 L 1478.5 644.4 L 1484.8 642.0 L 1490.9 639.5 L 1496.9 636.8 L 1496.9 636.8 L 1502.8 633.8 L 1508.7 630.6 L 1514.6 627.2 L 1520.5 623.5 L 1526.3 619.7 L 1532.0 615.7 L 1537.6 611.5 L 1543.1 607.2 L 1548.4 602.6 L 1553.5 598.0 L 1558.5 593.1 L 1563.2 588.2 L 1567.7 583.1 L 1571.9 577.9 L 1575.8 572.6 L 1579.4 567.2 L 1579.4 567.2 L 1582.8 561.7 L 1585.9 555.9 L 1588.9 549.8 L 1591.6 543.6 L 1594.2 537.2 L 1596.5 530.6 L 1598.6 523.9 L 1600.5 517.2 L 1602.1 510.3 L 1603.6 503.5 L 1604.8 496.6 L 1605.7 489.7 L 1606.5 482.9 L 1607.0 476.1 L 1607.2 469.5 L 1607.2 462.9 L 1607.2 462.9 L 1606.9 456.4 L 1606.4 449.8 L 1605.6 443.1 L 1604.6 436.3 L 1603.4 429.6 L 1601.9 422.8 L 1600.2 416.0 L 1598.2 409.3 L 1596.1 402.7 L 1593.7 396.1 L 1591.1 389.7 L 1588.3 383.5 L 1585.3 377.4 L 1582.1 371.5 L 1578.7 365.8 L 1575.1 360.4 L 1575.1 360.4 L 1571.3 355.1 L 1567.2 350.0 L 1562.8 345.1 L 1558.1 340.2 L 1553.1 335.5 L 1548.0 330.9 L 1542.7 326.5 L 1537.2 322.2 L 1531.5 318.1 L 1525.7 314.1 L 1519.9 310.3 L 1513.9 306.6 L 1508.0 303.1 L 1501.9 299.8 L 1495.9 296.6 L 1489.9 293.7 L 1489.9 293.7 L 1483.9 290.9 L 1477.7 288.5 L 1471.4 286.3 L 1464.9 284.4 L 1458.4 282.7 L 1451.7 281.2 L 1445.0 279.8 L 1438.2 278.5 L 1431.5 277.2 L 1424.6 276.1 L 1417.8 274.9 L 1411.0 273.7 L 1404.2 272.4 L 1397.5 271.1 L 1390.8 269.6 L 1384.2 268.0 L 1384.2 268.0 L 1377.5 266.4 L 1370.6 265.0 L 1363.5 263.8 L 1356.3 262.7 L 1349.1 261.6 L 1341.8 260.5 L 1334.6 259.4 L 1327.5 258.1 L 1320.5 256.8 L 1313.7 255.2 L 1307.2 253.4 L 1300.9 251.4 L 1295.0 249.0 L 1289.6 246.2 L 1284.5 242.9 L 1280.0 239.2 L 1280.0 239.2 L 1275.9 235.0 L 1272.1 230.3 L 1268.5 225.2 L 1265.3 219.7 L 1262.3 213.9 L 1259.6 207.7 L 1257.2 201.4 L 1255.0 194.8 L 1253.2 188.1 L 1251.6 181.3 L 1250.3 174.5 L 1249.4 167.7 L 1248.6 160.9 L 1248.2 154.2 L 1248.1 147.7 L 1248.2 141.4 L 1248.2 141.4 L 1248.8 135.2 L 1250.0 128.9 L 1251.6 122.7 L 1253.6 116.4 L 1256.0 110.1 L 1258.7 103.9 L 1261.7 97.6 L 1264.8 91.3 L 1268.1 84.9 L 1271.4 78.6 L 1274.8 72.3 L 1278.1 65.9 L 1281.2 59.5 L 1284.3 53.2 L 1287.0 46.8 L 1289.5 40.4 L 1289.5 40.4 L 1291.8 34.0 L 1294.2 27.5 L 1296.5 21.1 L 1298.8 14.7 L 1301.1 8.2 L 1303.4 1.8 L 1304.0 0.0" fill="none" stroke="#39ff88" stroke-width="6.0" stroke-opacity="0.9"/><path d="M 1312.3 333.9 L 1313.4 333.9 L 1314.6 333.8 L 1316.1 333.7 L 1317.7 333.5 L 1319.4 333.4 L 1321.3 333.3 L 1323.3 333.1 L 1325.3 333.0 L 1327.4 332.8 L 1329.6 332.7 L 1331.7 332.6 L 1333.9 332.6 L 1336.0 332.5 L 1338.1 332.5 L 1340.1 332.6 L 1341.9 332.7 L 1341.9 332.7 L 1343.8 332.8 L 1345.6 332.9 L 1347.5 333.1 L 1349.4 333.3 L 1351.2 333.5 L 1353.1 333.7 L 1354.9 334.0 L 1356.8 334.2 L 1358.7 334.5 L 1360.5 334.9 L 1362.3 335.2 L 1364.1 335.6 L 1366.0 336.1 L 1367.7 336.5 L 1369.5 337.0 L 1371.3 337.6 L 1371.3 337.6 L 1373.1 338.2 L 1374.9 338.9 L 1376.8 339.7 L 1378.7 340.6 L 1380.7 341.5 L 1382.6 342.4 L 1384.5 343.4 L 1386.4 344.4 L 1388.2 345.3 L 1389.9 346.3 L 1391.6 347.2 L 1393.1 348.0 L 1394.5 348.8 L 1395.8 349.5 L 1396.9 350.1 L 1397.8 350.5" fill="none" stroke="#39ff88" stroke-width="6.0" stroke-opacity="0.9"/></g><g id="clips"><circle cx="642.6" cy="0.0" r="2" fill="none" stroke="#0b5" stroke-width="0.6"/><circle cx="513.9" cy="1000.0" r="2" fill="none" stroke="#0b5" stroke-width="0.6"/><circle cx="694.6" cy="1000.0" r="2" fill="none" stroke="#0b5" stroke-width="0.6"/><circle cx="1304.0" cy="0.0" r="2" fill="none" stroke="#0b5" stroke-width="0.6"/><circle cx="1312.3" cy="333.9" r="2" fill="none" stroke="#0b5" stroke-width="0.6"/><circle cx="1397.8" cy="350.5" r="2" fill="none" stroke="#0b5" stroke-width="0.6"/></g><g id="power"><circle cx="642.5" cy="0.0" r="5" fill="none" stroke="#e33" stroke-width="1"/><circle cx="513.9" cy="1000.0" r="5" fill="none" stroke="#e33" stroke-width="1"/><circle cx="694.6" cy="1000.0" r="5" fill="none" stroke="#e33" stroke-width="1"/><circle cx="1304.0" cy="0.0" r="5" fill="none" stroke="#e33" stroke-width="1"/></g></svg>