<svg xmlns="http://www.w3.org/2000/svg" width="1000mm" height="2000mm" viewBox="0 0 1000 2000"><g id="outline"><rect x="0" y="0" width="1000" height="2000" fill="none" stroke="#000" stroke-width="1"/></g><g id="channels"><path d="M 1000.0 665.2 L 999.8 665.0 L 995.9 660.8 L 992.2 656.5 L 988.6 651.9 L 985.0 647.2 L 981.7 642.4 L 978.4 637.5 L 975.1 632.5 L 972.1 627.5 L 969.1 622.4 L 966.2 617.3 L 963.3 612.3 L 960.6 607.4 L 960.6 607.4 L 958.1 602.2 L 955.9 596.6 L 954.0 590.7 L 952.4 584.5 L 950.8 578.2 L 949.5 571.7 L 948.1 565.3 L 946.9 559.0 L 945.5 552.8 L 944.0 546.9 L 942.4 541.3 L 940.6 536.2 L 938.6 531.5 L 936.1 527.4 L 933.4 524.0 L 930.2 521.5 L 930.2 521.5 L 926.5 519.5 L 922.5 518.1 L 918.1 517.3 L 913.4 516.9 L 908.4 517.0 L 903.3 517.4 L 898.0 518.3 L 892.6 519.5 L 887.1 521.0 L 881.6 522.8 L 876.1 524.8 L 870.8 526.9 L 865.6 529.3 L 860.5 531.7 L 855.6 534.3 L 851.1 536.9 L 851.1 536.9 L 846.8 539.7 L 842.6 542.9 L 838.6 546.5 L 834.6 550.3 L 830.7 554.5 L 826.9 558.8 L 823.2 563.3 L 819.5 567.9 L 815.8 572.7 L 812.2 577.5 L 808.5 582.3 L 804.9 587.2 L 801.2 591.9 L 797.4 596.5 L 793.7 601.0 L 789.8 605.3 L 789.8 605.3 L 785.9 609.5 L 781.9 613.7 L 778.0 617.8 L 773.9 621.9 L 769.9 626.0 L 765.9 630.1 L 761.9 634.2 L 757.8 638.2 L 753.8 642.4 L 749.7 646.4 L 745.7 650.5 L 741.7 654.6 L 737.7 658.8 L 733.7 662.9 L 729.8 667.1 L 725.9 671.2 L 725.9 671.2 L 722.0 675.4 L 718.1 679.7 L 714.1 683.9 L 710.2 688.1 L 706.2 692.3 L 702.4 696.5 L 698.4 700.7 L 694.6 704.9 L 690.7 709.2 L 686.9 713.5 L 683.2 717.9 L 679.4 722.2 L 675.7 726.6 L 672.1 731.0 L 668.6 735.5 L 665.1 740.0 L 665.1 740.0 L 661.7 744.6 L 658.3 749.3 L 655.0 753.9 L 651.6 758.6 L 648.3 763.3 L 645.0 768.1 L 641.8 772.9 L 638.7 777.7 L 635.6 782.6 L 632.5 787.5 L 629.6 792.4 L 626.7 797.4 L 623.8 802.3 L 621.0 807.3 L 618.4 812.4 L 615.8 817.4 L 615.8 817.4 L 613.1 822.5 L 610.4 827.7 L 607.8 832.9 L 605.0 838.2 L 602.4 843.4 L 599.7 848.7 L 597.2 854.0 L 594.7 859.3 L 592.4 864.7 L 590.3 870.1 L 588.4 875.6 L 586.7 881.0 L 585.2 886.4 L 584.0 891.8 L 583.1 897.2 L 582.6 902.6 L 582.6 902.6 L 582.4 908.0 L 582.4 913.5 L 582.8 919.0 L 583.4 924.6 L 584.1 930.1 L 585.2 935.7 L 586.5 941.3 L 587.8 946.8 L 589.4 952.4 L 591.2 958.0 L 593.0 963.4 L 595.0 968.9 L 597.1 974.2 L 599.2 979.6 L 601.4 984.8 L 603.7 990.0 L 603.7 990.0 L 606.0 995.1 L 608.5 1000.1 L 611.3 1005.0 L 614.2 1009.9 L 617.2 1014.8 L 620.4 1019.6 L 623.7 1024.3 L 626.9 1029.1 L 630.4 1033.7 L 633.8 1038.4 L 637.4 1043.1 L 640.9 1047.7 L 644.4 1052.4 L 647.9 1057.0 L 651.3 1061.7 L 654.7 1066.3 L 654.7 1066.3 L 658.0 1070.9 L 661.5 1075.6 L 664.8 1080.2 L 668.3 1084.8 L 671.7 1089.4 L 675.2 1094.0 L 678.7 1098.6 L 682.2 1103.1 L 685.7 1107.7 L 689.2 1112.2 L 692.8 1116.7 L 696.4 1121.1 L 700.0 1125.7 L 703.6 1130.1 L 707.3 1134.5 L 711.0 1139.0 L 711.0 1139.0 L 714.6 1143.3 L 718.3 1147.7 L 722.0 1152.1 L 725.8 1156.5 L 729.6 1160.8 L 733.3 1165.2 L 737.1 1169.4 L 740.9 1173.7 L 744.7 1178.0 L 748.6 1182.3 L 752.5 1186.5 L 756.4 1190.7 L 760.3 1194.9 L 764.3 1199.1 L 768.3 1203.2 L 772.3 1207.3 L 772.3 1207.3 L 776.3 1211.3 L 780.5 1215.3 L 784.6 1219.2 L 788.8 1223.2 L 793.0 1227.0 L 797.3 1230.9 L 801.6 1234.7 L 805.9 1238.5 L 810.2 1242.4 L 814.5 1246.2 L 818.7 1250.0 L 823.0 1253.9 L 827.3 1257.7 L 831.5 1261.6 L 835.7 1265.5 L 839.8 1269.5 L 839.8 1269.5 L 843.9 1273.5 L 848.1 1277.5 L 852.3 1281.5 L 856.4 1285.4 L 860.6 1289.4 L 864.9 1293.4 L 869.0 1297.3 L 873.1 1301.4 L 877.2 1305.5 L 881.3 1309.6 L 885.2 1313.7 L 889.1 1318.0 L 892.8 1322.3 L 896.5 1326.6 L 900.0 1331.1 L 903.4 1335.6 L 903.4 1335.6 L 906.8 1340.3 L 910.2 1345.3 L 913.7 1350.5 L 917.1 1355.8 L 920.6 1361.3 L 923.9 1366.7 L 927.2 1372.3 L 930.3 1377.8 L 933.3 1383.2 L 936.0 1388.6 L 938.5 1393.8 L 940.7 1398.8 L 942.7 1403.7 L 944.2 1408.2 L 945.5 1412.5 L 946.2 1416.3 L 946.2 1416.3 L 946.6 1419.9 L 946.5 1423.5 L 946.1 1426.9 L 945.4 1430.2 L 944.3 1433.4 L 942.9 1436.4 L 941.3 1439.2 L 939.6 1441.8 L 937.6 1444.2 L 935.5 1446.4 L 933.2 1448.2 L 931.0 1449.8 L 928.6 1451.1 L 926.3 1452.1 L 924.0 1452.6 L 921.7 1452.9 L 921.7 1452.9 L 919.3 1452.5 L 916.6 1451.1 L 913.6 1448.9 L 910.3 1446.2 L 906.9 1443.0 L 903.5 1439.4 L 900.0 1435.7 L 896.4 1432.0 L 893.0 1428.3 L 889.7 1424.9 L 886.5 1421.9 L 883.5 1419.4 L 880.8 1417.6 L 878.5 1416.6 L 876.6 1416.7 L 875.1 1417.8 L 875.1 1417.8 L 874.1 1420.3 L 873.5 1424.2 L 873.6 1429.2 L 873.9 1435.2 L 874.5 1442.0 L 875.3 1449.2 L 876.3 1456.9 L 877.5 1464.7 L 878.5 1472.5 L 879.7 1480.1 L 880.6 1487.2 L 881.4 1493.6 L 881.9 1499.2 L 882.2 1503.8 L 882.0 1507.1 L 881.4 1509.0 L 881.4 1509.0 L 880.4 1509.3 L 878.9 1508.6 L 877.1 1506.6 L 875.0 1503.8 L 872.7 1500.2 L 870.2 1496.0 L 867.6 1491.3 L 864.9 1486.2 L 862.3 1480.9 L 859.6 1475.7 L 857.0 1470.6 L 854.7 1465.8 L 852.4 1461.3 L 850.5 1457.4 L 848.9 1454.3 L 847.7 1452.0 L 830.7 1441.7 L 829.5 1442.9 L 828.1 1444.6 L 826.3 1446.7 L 824.6 1449.2 L 822.5 1451.7 L 820.3 1454.6 L 818.1 1457.4 L 815.7 1460.2 L 813.3 1462.9 L 810.7 1465.4 L 808.3 1467.7 L 805.7 1469.5 L 803.2 1470.9 L 800.8 1471.8 L 798.3 1471.9 L 796.1 1471.4 L 796.1 1471.4 L 793.7 1470.1 L 791.5 1468.2 L 789.1 1465.5 L 786.8 1462.3 L 784.4 1458.6 L 782.1 1454.5 L 779.7 1450.2 L 777.2 1445.8 L 774.9 1441.1 L 772.5 1436.5 L 770.1 1431.9 L 767.8 1427.5 L 765.4 1423.4 L 763.2 1419.5 L 760.9 1416.1 L 758.6 1413.3 L 758.6 1413.3 L 756.3 1410.9 L 754.1 1409.0 L 751.9 1407.5 L 749.7 1406.2 L 747.5 1405.1 L 745.3 1404.3 L 743.1 1403.4 L 741.0 1402.6 L 738.8 1401.8 L 736.7 1400.9 L 734.6 1399.6 L 732.6 1398.3 L 730.5 1396.5 L 728.5 1394.4 L 726.5 1391.7 L 724.7 1388.5 L 724.7 1388.5 L 722.9 1384.8 L 721.1 1380.7 L 719.5 1376.2 L 717.9 1371.3 L 716.3 1366.1 L 714.8 1360.7 L 713.4 1355.0 L 711.9 1349.2 L 710.4 1343.2 L 708.9 1337.2 L 707.4 1331.3 L 705.7 1325.3 L 704.0 1319.4 L 702.2 1313.7 L 700.3 1308.2 L 698.3 1302.8 L 698.3 1302.8 L 696.1 1297.6 L 694.0 1292.4 L 691.8 1287.2 L 689.6 1282.0 L 687.3 1276.8 L 684.9 1271.7 L 682.5 1266.5 L 680.0 1261.4 L 677.4 1256.3 L 674.9 1251.3 L 672.1 1246.2 L 669.4 1241.4 L 666.6 1236.4 L 663.6 1231.7 L 660.6 1226.9 L 657.5 1222.3 L 657.5 1222.3 L 654.3 1217.7 L 650.9 1213.2 L 647.5 1208.8 L 644.0 1204.4 L 640.4 1200.1 L 636.7 1195.8 L 633.0 1191.6 L 629.1 1187.4 L 625.2 1183.3 L 621.3 1179.2 L 617.4 1175.1 L 613.4 1171.1 L 609.4 1167.1 L 605.4 1163.1 L 601.3 1159.2 L 597.3 1155.2 L 597.3 1155.2 L 593.2 1151.3 L 589.1 1147.4 L 585.0 1143.7 L 580.8 1139.9 L 576.5 1136.2 L 572.3 1132.5 L 567.9 1128.8 L 563.6 1125.2 L 559.3 1121.6 L 555.0 1118.0 L 550.5 1114.3 L 546.2 1110.7 L 541.8 1107.1 L 537.5 1103.6 L 533.2 1099.9 L 528.8 1096.3 L 528.8 1096.3 L 524.6 1092.6 L 520.1 1089.0 L 515.7 1085.4 L 511.3 1081.9 L 506.8 1078.3 L 502.3 1074.8 L 497.8 1071.3 L 493.3 1067.7 L 489.0 1064.1 L 484.5 1060.5 L 480.3 1056.9 L 476.1 1053.2 L 472.0 1049.4 L 468.0 1045.4 L 464.1 1041.4 L 460.4 1037.2 L 460.4 1037.2 L 456.7 1033.1 L 453.0 1028.7 L 449.2 1024.4 L 445.5 1020.0 L 441.8 1015.5 L 438.1 1010.9 L 434.6 1006.3 L 431.2 1001.5 L 427.9 996.8 L 424.9 992.0 L 422.0 987.1 L 419.5 982.2 L 417.2 977.3 L 415.2 972.4 L 413.6 967.3 L 412.3 962.3 L 412.3 962.3 L 411.5 957.2 L 411.0 951.9 L 410.8 946.6 L 410.9 941.2 L 411.3 935.6 L 412.0 930.1 L 412.8 924.5 L 413.9 918.9 L 415.2 913.3 L 416.6 907.7 L 418.1 902.1 L 419.8 896.6 L 421.5 891.1 L 423.3 885.6 L 425.1 880.2 L 426.9 875.0 L 426.9 875.0 L 428.8 869.8 L 430.9 864.7 L 433.1 859.5 L 435.5 854.5 L 438.1 849.5 L 440.8 844.5 L 443.6 839.6 L 446.4 834.6 L 449.3 829.7 L 452.3 824.8 L 455.2 819.9 L 458.2 815.0 L 461.1 810.1 L 464.0 805.2 L 466.8 800.2 L 469.5 795.3 L 469.5 795.3 L 472.2 790.3 L 474.9 785.4 L 477.5 780.4 L 480.2 775.4 L 482.9 770.4 L 485.5 765.4 L 488.2 760.4 L 490.8 755.5 L 493.5 750.5 L 496.2 745.5 L 498.9 740.5 L 501.6 735.6 L 504.4 730.7 L 507.0 725.7 L 509.8 720.7 L 512.5 715.8 L 512.5 715.8 L 515.3 710.9 L 518.1 706.0 L 520.9 701.1 L 523.7 696.2 L 526.6 691.3 L 529.4 686.4 L 532.2 681.5 L 535.1 676.7 L 537.9 671.7 L 540.7 666.9 L 543.6 662.0 L 546.5 657.2 L 549.3 652.3 L 552.1 647.4 L 555.0 642.5 L 557.7 637.6 L 557.7 637.6 L 560.6 632.7 L 563.5 627.8 L 566.4 623.0 L 569.4 618.1 L 572.3 613.3 L 575.3 608.4 L 578.3 603.6 L 581.2 598.8 L 584.1 593.9 L 586.9 589.0 L 589.7 584.1 L 592.5 579.1 L 595.1 574.2 L 597.6 569.2 L 600.0 564.1 L 602.3 559.0 L 602.3 559.0 L 604.5 553.8 L 606.8 548.6 L 609.0 543.4 L 611.2 538.1 L 613.4 532.8 L 615.5 527.4 L 617.5 522.1 L 619.5 516.7 L 621.3 511.3 L 622.9 505.9 L 624.4 500.5 L 625.7 495.0 L 626.8 489.6 L 627.8 484.2 L 628.5 478.8 L 628.9 473.3 L 628.9 473.3 L 629.1 467.9 L 629.0 462.3 L 628.8 456.9 L 628.4 451.2 L 627.7 445.6 L 626.9 440.1 L 626.0 434.5 L 624.8 428.9 L 623.7 423.3 L 622.2 417.8 L 620.7 412.3 L 619.1 406.8 L 617.5 401.3 L 615.6 396.0 L 613.8 390.7 L 611.8 385.4 L 611.8 385.4 L 609.8 380.3 L 607.5 375.2 L 605.2 370.1 L 602.5 365.2 L 599.8 360.3 L 597.0 355.4 L 594.1 350.5 L 591.1 345.8 L 588.0 341.0 L 584.9 336.1 L 581.7 331.4 L 578.6 326.6 L 575.5 321.8 L 572.4 317.1 L 569.3 312.3 L 566.4 307.5 L 566.4 307.5 L 563.4 302.7 L 560.4 297.9 L 557.4 293.2 L 554.2 288.4 L 551.1 283.8 L 548.0 279.0 L 544.9 274.3 L 541.7 269.6 L 538.6 264.9 L 535.5 260.1 L 532.4 255.4 L 529.4 250.6 L 526.5 245.8 L 523.6 241.0 L 520.8 236.1 L 518.0 231.2 L 518.0 231.2 L 515.4 226.2 L 512.7 221.2 L 510.2 216.2 L 507.6 211.2 L 505.1 206.1 L 502.7 201.0 L 500.4 195.9 L 498.0 190.8 L 495.6 185.6 L 493.3 180.5 L 491.1 175.3 L 488.9 170.1 L 486.6 164.9 L 484.5 159.7 L 482.2 154.5 L 480.1 149.2 L 480.1 149.2 L 478.0 144.1 L 475.9 138.8 L 473.9 133.5 L 471.9 128.2 L 469.9 122.9 L 468.0 117.7 L 466.1 112.3 L 464.1 107.0 L 462.2 101.7 L 460.4 96.3 L 458.6 91.0 L 456.7 85.7 L 454.8 80.3 L 453.0 75.0 L 451.2 69.6 L 449.3 64.3 L 449.3 64.3 L 447.4 59.0 L 445.6 53.6 L 443.7 48.3 L 441.9 43.0 L 440.0 37.7 L 438.2 32.3 L 436.4 26.9 L 434.6 21.6 L 432.8 16.2 L 431.0 10.9 L 429.2 5.5 L 427.4 0.1 L 427.4 0.0" fill="none" stroke="#39ff88" stroke-width="6.0" stroke-opacity="0.9"/></g><g id="clips"><circle cx="1000.0" cy="665.2" r="2" fill="none" stroke="#0b5" stroke-width="0.6"/><circle cx="893.9" cy="519.2" r="2" fill="none" stroke="#0b5" stroke-width="0.6"/><circle cx="747.0" cy="649.2" r="2" fill="none" stroke="#0b5" stroke-width="0.6"/><circle cx="622.4" cy="804.8" r="2" fill="none" stroke="#0b5" stroke-width="0.6"/><circle cx="604.9" cy="992.6" r="2" fill="none" stroke="#0b5" stroke-width="0.6"/><circle cx="723.2" cy="1153.4" r="2" fill="none" stroke="#0b5" stroke-width="0.6"/><circle cx="865.3" cy="1293.8" r="2" fill="none" stroke="#0b5" stroke-width="0.6"/><circle cx="919.0" cy="1452.4" r="2" fill="none" stroke="#0b5" stroke-width="0.6"/><circle cx="855.7" cy="1467.8" r="2" fill="none" stroke="#0b5" stroke-width="0.6"/><circle cx="723.9" cy="1386.9" r="2" fill="none" stroke="#0b5" stroke-width="0.6"/><circle cx="644.5" cy="1205.1" r="2" fill="none" stroke="#0b5" stroke-width="0.6"/><circle cx="497.0" cy="1070.6" r="2" fill="none" stroke="#0b5" stroke-width="0.6"/><circle cx="417.9" cy="902.7" r="2" fill="none" stroke="#0b5" stroke-width="0.6"/><circle cx="507.6" cy="724.6" r="2" fill="none" stroke="#0b5" stroke-width="0.6"/><circle cx="605.9" cy="550.6" r="2" fill="none" stroke="#0b5" stroke-width="0.6"/><circle cx="599.3" cy="359.5" r="2" fill="none" stroke="#0b5" stroke-width="0.6"/><circle cx="496.8" cy="188.1" r="2" fill="none" stroke="#0b5" stroke-width="0.6"/><circle cx="427.6" cy="0.6" r="2" fill="none" stroke="#0b5" stroke-width="0.6"/></g><g id="power"><circle cx="427.4" cy="0.0" r="5" fill="none" stroke="#e33" stroke-width="1"/><circle cx="1000.0" cy="665.2" r="5" fill="none" stroke="#e33" stroke-width="1"/></g><g id="bridges"><circle cx="863.8" cy="1455.2" r="9" fill="none" stroke="#e6a817" stroke-width="1.5"/><circle cx="866.6" cy="1469.2" r="9" fill="none" stroke="#e6a817" stroke-width="1.5"/><circle cx="867.9" cy="1466.3" r="9" fill="none" stroke="#e6a817" stroke-width="1.5"/><circle cx="865.5" cy="1461.3" r="9" fill="none" stroke="#e6a817" stroke-width="1.5"/></g></svg>