<svg xmlns="http://www.w3.org/2000/svg" width="2000mm" height="1000mm" viewBox="0 0 2000 1000"><g id="outline"><rect x="0" y="0" width="2000" height="1000" fill="none" stroke="#000" stroke-width="1"/></g><g id="channels"><path d="M 563.6 169.4 L 563.0 173.1 L 562.3 177.6 L 561.5 182.8 L 560.5 188.5 L 559.5 194.8 L 558.4 201.5 L 557.2 208.5 L 556.0 215.9 L 554.8 223.4 L 553.6 231.1 L 552.4 238.9 L 551.2 246.6 L 550.0 254.2 L 548.9 261.6 L 547.8 268.8 L 546.8 275.7 L 546.8 275.7 L 545.9 282.3 L 544.9 289.0 L 544.0 295.7 L 543.1 302.3 L 542.1 309.0 L 541.2 315.7 L 540.3 322.3 L 539.5 329.0 L 538.6 335.7 L 537.8 342.3 L 537.0 349.0 L 536.3 355.7 L 535.6 362.4 L 534.9 369.1 L 534.3 375.8 L 533.8 382.5 L 533.8 382.5 L 533.3 389.2 L 532.8 395.9 L 532.3 402.6 L 531.9 409.3 L 531.5 416.0 L 531.1 422.7 L 530.8 429.5 L 530.5 436.2 L 530.3 442.9 L 530.1 449.6 L 530.0 456.4 L 529.9 463.1 L 529.9 469.8 L 530.0 476.5 L 530.2 483.2 L 530.4 489.9 L 530.4 489.9 L 530.8 496.6 L 531.2 503.3 L 531.7 510.0 L 532.3 516.7 L 532.9 523.4 L 533.6 530.1 L 534.4 536.7 L 535.2 543.4 L 536.0 550.1 L 536.9 556.8 L 537.9 563.4 L 538.8 570.1 L 539.8 576.8 L 540.9 583.4 L 541.9 590.0 L 542.9 596.7 L 542.9 596.7 L 544.0 603.3 L 545.1 609.9 L 546.3 616.6 L 547.5 623.2 L 548.7 629.8 L 550.0 636.4 L 551.3 643.0 L 552.7 649.6 L 554.0 656.2 L 555.4 662.7 L 556.8 669.3 L 558.2 675.9 L 559.6 682.5 L 561.0 689.1 L 562.4 695.6 L 563.8 702.2 L 563.8 702.2 L 565.2 708.8 L 566.6 715.4 L 568.0 721.9 L 569.4 728.5 L 570.9 735.1 L 572.3 741.7 L 573.8 748.2 L 575.3 754.8 L 576.7 761.3 L 578.2 767.9 L 579.7 774.5 L 581.2 781.0 L 582.7 787.6 L 584.3 794.1 L 585.8 800.7 L 587.3 807.2 L 587.3 807.2 L 588.9 813.7 L 590.4 820.3 L 591.9 826.8 L 593.4 833.4 L 595.0 840.0 L 596.5 846.5 L 598.0 853.1 L 599.6 859.6 L 601.2 866.1 L 602.8 872.7 L 604.4 879.2 L 606.1 885.7 L 607.8 892.2 L 609.6 898.7 L 611.4 905.2 L 613.2 911.6 L 613.2 911.6 L 615.1 918.1 L 617.1 924.5 L 619.0 930.9 L 621.0 937.4 L 623.0 943.8 L 625.0 950.2 L 627.1 956.6 L 629.2 963.0 L 631.4 969.4 L 633.6 975.7 L 635.8 982.0 L 638.1 988.4 L 640.5 994.6 L 642.6 1000.0" fill="none" stroke="#39ff88" stroke-width="6.0" stroke-opacity="0.9"/><path d="M 1304.0 1000.0 L 1305.6 995.3 L 1307.8 988.9 L 1309.9 982.4 L 1312.0 975.9 L 1314.0 969.3 L 1315.9 962.8 L 1317.7 956.2 L 1319.4 949.6 L 1321.0 943.0 L 1322.5 936.4 L 1322.5 936.4 L 1323.8 929.7 L 1325.0 923.0 L 1326.2 916.3 L 1327.2 909.6 L 1328.2 902.8 L 1329.0 896.0 L 1329.8 889.2 L 1330.6 882.4 L 1331.2 875.6 L 1331.8 868.8 L 1332.4 861.9 L 1332.9 855.1 L 1333.3 848.3 L 1333.8 841.4 L 1334.2 834.6 L 1334.6 827.8 L 1334.6 827.8 L 1334.9 821.0 L 1335.2 814.1 L 1335.5 807.3 L 1335.7 800.5 L 1335.9 793.7 L 1336.0 786.8 L 1336.1 780.0 L 1336.1 773.2 L 1336.1 766.3 L 1336.0 759.5 L 1335.9 752.6 L 1335.8 745.8 L 1335.6 739.0 L 1335.3 732.2 L 1335.1 725.3 L 1334.8 718.5 L 1334.8 718.5 L 1334.4 711.7 L 1333.9 704.9 L 1333.3 698.1 L 1332.6 691.3 L 1331.8 684.5 L 1331.0 677.7 L 1330.2 670.9 L 1329.4 664.1 L 1328.5 657.3 L 1327.7 650.5 L 1326.9 643.7 L 1326.1 636.9 L 1325.5 630.1 L 1324.9 623.3 L 1324.3 616.5 L 1323.9 609.7 L 1323.9 609.7 L 1323.6 602.7 L 1323.4 595.3 L 1323.2 587.7 L 1323.1 579.9 L 1323.1 571.9 L 1323.1 564.0 L 1323.1 556.1 L 1323.2 548.3 L 1323.3 540.7 L 1323.3 533.4 L 1323.4 526.5 L 1323.5 520.1 L 1323.6 514.2 L 1323.7 508.9 L 1323.7 504.3 L 1323.8 500.5" fill="none" stroke="#39ff88" stroke-width="6.0" stroke-opacity="0.9"/><path d="M 1369.7 494.9 L 1373.3 495.4 L 1377.7 496.0 L 1382.7 496.7 L 1388.3 497.4 L 1394.5 498.3 L 1401.0 499.2 L 1407.9 500.1 L 1415.1 501.1 L 1422.5 502.1 L 1430.1 503.1 L 1437.7 504.1 L 1445.2 505.0 L 1452.7 505.9 L 1460.0 506.7 L 1467.0 507.5 L 1473.7 508.1 L 1473.7 508.1 L 1480.2 508.7 L 1486.8 509.2 L 1493.3 509.6 L 1499.9 510.0 L 1506.4 510.3 L 1513.0 510.7 L 1519.5 510.9 L 1526.1 511.2 L 1532.6 511.5 L 1539.2 511.8 L 1545.7 512.1 L 1552.3 512.5 L 1558.8 512.9 L 1565.3 513.3 L 1571.9 513.9 L 1578.4 514.5 L 1578.4 514.5 L 1584.9 515.1 L 1591.4 515.7 L 1598.0 516.2 L 1604.5 516.8 L 1611.1 517.4 L 1617.7 517.9 L 1624.2 518.6 L 1630.8 519.3 L 1637.3 520.0 L 1643.8 520.9 L 1650.3 521.8 L 1656.7 522.9 L 1663.1 524.1 L 1669.4 525.5 L 1675.7 527.1 L 1682.0 528.8 L 1682.0 528.8 L 1688.1 530.7 L 1694.2 533.0 L 1700.2 535.4 L 1706.2 538.1 L 1712.1 540.9 L 1718.0 543.8 L 1723.8 546.9 L 1729.7 550.0 L 1735.5 553.1 L 1741.3 556.2 L 1747.2 559.3 L 1753.0 562.3 L 1758.9 565.1 L 1764.9 567.9 L 1770.9 570.5 L 1776.9 572.8 L 1776.9 572.8 L 1783.2 575.2 L 1789.6 577.7 L 1796.3 580.2 L 1803.1 582.9 L 1810.0 585.6 L 1816.9 588.2 L 1823.8 590.7 L 1830.6 593.0 L 1837.4 595.2 L 1843.9 597.1 L 1850.2 598.8 L 1856.3 600.0 L 1862.1 600.9 L 1867.4 601.3 L 1872.4 601.2 L 1876.9 600.6 L 1876.9 600.6 L 1880.7 599.3 L 1883.9 597.2 L 1886.5 594.5 L 1888.6 591.3 L 1890.3 587.6 L 1891.8 583.5 L 1893.0 579.2 L 1894.2 574.7 L 1895.4 570.1 L 1896.7 565.5 L 1898.2 561.0 L 1900.0 556.7 L 1902.1 552.7 L 1904.8 549.0 L 1908.1 545.8 L 1912.0 543.2 L 1912.0 543.2 L 1916.8 541.1 L 1922.4 539.3 L 1928.7 537.8 L 1935.6 536.6 L 1942.8 535.6 L 1950.4 534.7 L 1958.2 534.0 L 1966.1 533.4 L 1973.8 532.8 L 1981.4 532.2 L 1988.6 531.6 L 1995.4 531.0 L 2000.0 530.4" fill="none" stroke="#39ff88" stroke-width="6.0" stroke-opacity="0.9"/><path d="M 2000.0 438.4 L 1995.2 438.6 L 1987.6 438.6 L 1980.8 438.5 L 1975.2 438.0 L 1971.0 437.1 L 1968.4 435.9 L 1968.4 435.9 L 1967.5 434.2 L 1968.2 432.1 L 1970.2 429.6 L 1973.3 426.8 L 1977.2 423.7 L 1981.9 420.5 L 1987.0 417.1 L 1992.4 413.7 L 1997.7 410.2 L 2000.0 408.7" fill="none" stroke="#39ff88" stroke-width="6.0" stroke-opacity="0.9"/><path d="M 2000.0 386.9 L 1998.3 386.8 L 1992.2 386.7 L 1985.5 386.7 L 1978.5 386.7 L 1971.3 386.8 L 1964.0 386.9 L 1956.7 386.9 L 1949.6 386.9 L 1942.8 386.7 L 1936.4 386.3 L 1930.5 385.6 L 1925.4 384.7 L 1925.4 384.7 L 1920.7 383.5 L 1916.5 381.8 L 1912.5 379.9 L 1908.7 377.7 L 1905.1 375.3 L 1901.7 372.8 L 1898.3 370.3 L 1895.0 367.8 L 1891.7 365.4 L 1888.3 363.2 L 1884.9 361.2 L 1881.3 359.5 L 1877.4 358.2 L 1873.4 357.3 L 1869.0 356.9 L 1864.3 357.1 L 1864.3 357.1 L 1859.3 357.9 L 1854.1 359.4 L 1848.7 361.3 L 1843.1 363.7 L 1837.3 366.5 L 1831.4 369.6 L 1825.4 373.0 L 1819.3 376.5 L 1813.1 380.0 L 1806.8 383.6 L 1800.5 387.1 L 1794.2 390.4 L 1787.8 393.5 L 1781.5 396.3 L 1775.2 398.7 L 1769.0 400.7 L 1769.0 400.7 L 1762.8 402.3 L 1756.5 403.9 L 1750.2 405.3 L 1743.8 406.7 L 1737.4 407.9 L 1730.9 408.9 L 1724.4 409.9 L 1717.9 410.7 L 1711.4 411.4 L 1704.9 411.9 L 1698.4 412.3 L 1691.9 412.5 L 1685.4 412.6 L 1678.9 412.6 L 1672.5 412.4 L 1666.1 412.0 L 1666.1 412.0 L 1659.7 411.4 L 1653.3 410.6 L 1646.9 409.6 L 1640.5 408.4 L 1634.1 407.1 L 1627.7 405.6 L 1621.3 403.9 L 1614.9 402.2 L 1608.6 400.3 L 1602.2 398.4 L 1595.9 396.4 L 1589.6 394.3 L 1583.3 392.2 L 1577.1 390.0 L 1570.9 387.9 L 1564.7 385.8 L 1564.7 385.8 L 1558.5 383.6 L 1552.4 381.2 L 1546.4 378.8 L 1540.4 376.2 L 1534.4 373.6 L 1528.4 370.9 L 1522.4 368.2 L 1516.5 365.4 L 1510.5 362.6 L 1504.6 359.8 L 1498.6 357.0 L 1492.7 354.3 L 1486.7 351.6 L 1480.7 348.9 L 1474.7 346.3 L 1468.6 343.8 L 1468.6 343.8 L 1462.5 341.4 L 1456.5 338.8 L 1450.4 336.1 L 1444.3 333.4 L 1438.2 330.7 L 1432.1 328.0 L 1426.0 325.3 L 1419.9 322.8 L 1413.8 320.3 L 1407.6 317.9 L 1401.4 315.7 L 1395.3 313.7 L 1389.1 311.9 L 1382.9 310.3 L 1376.6 309.0 L 1370.4 308.0 L 1370.4 308.0 L 1364.0 307.2 L 1357.4 306.4 L 1350.8 305.8 L 1344.0 305.2 L 1337.2 304.9 L 1330.3 304.7 L 1323.4 304.6 L 1316.6 304.8 L 1309.9 305.3 L 1303.3 305.9 L 1296.8 306.9 L 1290.5 308.1 L 1284.4 309.7 L 1278.6 311.6 L 1273.1 313.9 L 1267.9 316.6 L 1267.9 316.6 L 1262.9 319.7 L 1258.2 323.3 L 1253.6 327.3 L 1249.2 331.7 L 1245.0 336.5 L 1241.0 341.6 L 1237.1 346.9 L 1233.4 352.4 L 1229.9 358.2 L 1226.5 364.0 L 1223.3 370.0 L 1220.2 376.1 L 1217.4 382.1 L 1214.6 388.2 L 1212.1 394.2 L 1209.7 400.1 L 1209.7 400.1 L 1207.5 406.0 L 1205.5 412.1 L 1203.9 418.3 L 1202.4 424.5 L 1201.1 430.9 L 1200.0 437.4 L 1199.0 443.9 L 1198.2 450.5 L 1197.5 457.1 L 1196.8 463.8 L 1196.2 470.5 L 1195.7 477.2 L 1195.1 483.8 L 1194.6 490.4 L 1194.0 497.0 L 1193.3 503.6 L 1193.3 503.6 L 1192.7 510.1 L 1192.1 516.6 L 1191.6 523.1 L 1191.1 529.7 L 1190.6 536.2 L 1190.2 542.7 L 1189.9 549.3 L 1189.6 555.8 L 1189.3 562.4 L 1189.0 569.0 L 1188.8 575.5 L 1188.6 582.1 L 1188.4 588.6 L 1188.2 595.2 L 1188.0 601.7 L 1187.8 608.3 L 1187.8 608.3 L 1187.7 614.9 L 1187.9 621.7 L 1188.2 628.6 L 1188.6 635.6 L 1189.1 642.6 L 1189.6 649.6 L 1190.1 656.6 L 1190.6 663.6 L 1190.9 670.5 L 1191.2 677.2 L 1191.2 683.8 L 1191.1 690.2 L 1190.7 696.4 L 1190.0 702.3 L 1189.0 707.9 L 1187.5 713.2 L 1187.5 713.2 L 1185.7 718.4 L 1183.6 723.7 L 1181.2 729.0 L 1178.5 734.4 L 1175.6 739.6 L 1172.4 744.7 L 1169.1 749.6 L 1165.6 754.2 L 1162.0 758.4 L 1158.3 762.2 L 1154.6 765.5 L 1150.8 768.2 L 1147.0 770.2 L 1143.2 771.5 L 1139.5 772.1 L 1135.8 771.8 L 1135.8 771.8 L 1132.2 770.5 L 1128.4 768.3 L 1124.5 765.1 L 1120.5 761.2 L 1116.5 756.6 L 1112.4 751.4 L 1108.3 745.8 L 1104.2 739.7 L 1100.0 733.3 L 1095.9 726.8 L 1091.8 720.2 L 1087.7 713.5 L 1083.7 707.0 L 1079.8 700.7 L 1076.0 694.6 L 1072.3 689.0 L 1072.3 689.0 L 1068.6 683.6 L 1065.0 678.1 L 1061.5 672.6 L 1057.9 667.1 L 1054.5 661.5 L 1051.0 655.9 L 1047.6 650.3 L 1044.2 644.7 L 1040.9 639.0 L 1037.6 633.3 L 1034.4 627.6 L 1031.2 621.8 L 1028.1 616.1 L 1025.0 610.3 L 1021.9 604.5 L 1018.9 598.7 L 1018.9 598.7 L 1015.9 592.9 L 1012.9 587.0 L 1009.8 581.2 L 1006.8 575.3 L 1003.7 569.4 L 1000.7 563.5 L 997.8 557.6 L 994.9 551.6 L 992.2 545.6 L 989.5 539.6 L 987.0 533.6 L 984.7 527.5 L 982.5 521.4 L 980.5 515.2 L 978.7 509.0 L 977.2 502.8 L 977.2 502.8 L 975.9 496.5 L 974.8 490.2 L 973.9 483.8 L 973.2 477.3 L 972.6 470.8 L 972.2 464.3 L 972.0 457.8 L 971.9 451.2 L 971.8 444.6 L 971.9 438.0 L 972.1 431.4 L 972.4 424.8 L 972.7 418.2 L 973.1 411.7 L 973.5 405.1 L 973.9 398.6 L 973.9 398.6 L 974.4 392.1 L 975.0 385.7 L 975.7 379.2 L 976.6 372.7 L 977.5 366.2 L 978.5 359.7 L 979.6 353.2 L 980.8 346.8 L 982.0 340.3 L 983.3 333.8 L 984.5 327.4 L 985.8 320.9 L 987.1 314.5 L 988.4 308.0 L 989.7 301.6 L 990.9 295.1 L 990.9 295.1 L 992.2 288.7 L 993.4 282.3 L 994.6 275.8 L 995.8 269.4 L 997.1 262.9 L 998.3 256.5 L 999.6 250.1 L 1000.9 243.6 L 1002.3 237.2 L 1003.7 230.8 L 1005.1 224.4 L 1006.6 218.0 L 1008.2 211.7 L 1009.8 205.3 L 1011.4 199.0 L 1013.2 192.7 L 1013.2 192.7 L 1015.1 186.4 L 1017.1 180.2 L 1019.2 174.0 L 1021.4 167.8 L 1023.7 161.7 L 1026.1 155.5 L 1028.5 149.4 L 1030.9 143.3 L 1033.3 137.2 L 1035.7 131.1 L 1038.0 124.9 L 1040.3 118.8 L 1042.4 112.6 L 1044.5 106.4 L 1046.4 100.2 L 1048.2 93.9 L 1048.2 93.9 L 1049.9 87.6 L 1051.6 81.3 L 1053.3 74.9 L 1055.0 68.6 L 1056.6 62.2 L 1058.2 55.8 L 1059.6 49.4 L 1061.1 43.0 L 1062.4 36.5 L 1063.6 30.1 L 1064.6 23.7 L 1065.6 17.2 L 1066.3 10.8 L 1066.9 4.3 L 1067.2 0.0" fill="none" stroke="#39ff88" stroke-width="6.0" stroke-opacity="0.9"/><path d="M 594.0 0.0 L 593.0 3.2 L 591.2 9.5 L 589.5 15.8 L 587.9 22.2 L 586.3 28.5 L 584.9 34.9 L 583.6 41.3 L 582.4 47.7 L 582.4 47.7 L 581.4 54.1 L 580.4 60.5 L 579.6 67.0 L 578.8 73.5 L 578.2 80.0 L 577.6 86.6 L 577.1 93.1 L 576.7 99.6 L 576.3 106.2 L 576.1 112.8 L 575.9 119.3 L 575.7 125.9 L 575.6 132.4 L 575.6 139.0 L 575.6 145.5 L 575.7 152.1 L 575.7 152.1 L 575.8 158.6 L 576.1 165.1 L 576.4 171.6 L 576.9 178.2 L 577.4 184.7 L 577.9 191.2 L 578.6 197.8 L 579.2 204.3 L 580.0 210.8 L 580.7 217.4 L 581.5 223.9 L 582.3 230.4 L 583.1 236.9 L 583.9 243.4 L 584.7 250.0 L 585.4 256.5 L 585.4 256.5 L 586.2 263.2 L 587.1 270.2 L 588.1 277.5 L 589.1 284.9 L 590.1 292.4 L 591.2 300.0 L 592.3 307.5 L 593.3 314.9 L 594.4 322.1 L 595.4 329.0 L 596.4 335.6 L 597.3 341.7 L 598.1 347.3 L 598.9 352.3 L 599.5 356.7 L 600.0 360.3" fill="none" stroke="#39ff88" stroke-width="6.0" stroke-opacity="0.9"/><path d="M 994.0 359.3 L 995.9 355.7 L 998.1 351.4 L 1000.8 346.5 L 1003.7 341.0 L 1006.9 334.9 L 1010.3 328.5 L 1013.9 321.7 L 1017.7 314.7 L 1021.5 307.4 L 1025.4 300.0 L 1029.4 292.5 L 1033.2 285.1 L 1037.1 277.7 L 1040.8 270.6 L 1044.3 263.6 L 1047.7 257.0 L 1047.7 257.0 L 1050.9 250.6 L 1054.2 244.1 L 1057.5 237.7 L 1060.7 231.2 L 1064.0 224.7 L 1067.2 218.3 L 1070.4 211.8 L 1073.6 205.3 L 1076.8 198.8 L 1079.9 192.3 L 1083.0 185.8 L 1086.1 179.3 L 1089.1 172.7 L 1092.1 166.2 L 1095.1 159.6 L 1098.0 153.0 L 1098.0 153.0 L 1100.8 146.4 L 1103.7 139.7 L 1106.6 133.1 L 1109.5 126.4 L 1112.4 119.8 L 1115.2 113.1 L 1118.0 106.4 L 1120.8 99.7 L 1123.5 93.0 L 1126.1 86.2 L 1128.6 79.4 L 1131.0 72.6 L 1133.3 65.8 L 1135.4 58.9 L 1137.4 52.1 L 1139.3 45.2 L 1139.3 45.2 L 1141.0 38.2 L 1142.6 31.2 L 1144.1 24.2 L 1145.5 17.1 L 1146.7 10.1 L 1147.9 3.0 L 1148.3 0.0" fill="none" stroke="#39ff88" stroke-width="6.0" stroke-opacity="0.9"/></g><g id="clips"><circle cx="563.6" cy="169.4" r="2" fill="none" stroke="#0b5" stroke-width="0.6"/><circle cx="642.6" cy="1000.0" r="2" fill="none" stroke="#0b5" stroke-width="0.6"/><circle cx="1304.0" cy="1000.0" r="2" fill="none" stroke="#0b5" stroke-width="0.6"/><circle cx="1323.8" cy="500.5" r="2" fill="none" stroke="#0b5" stroke-width="0.6"/><circle cx="1369.7" cy="494.9" r="2" fill="none" stroke="#0b5" stroke-width="0.6"/><circle cx="2000.0" cy="530.4" r="2" fill="none" stroke="#0b5" stroke-width="0.6"/><circle cx="2000.0" cy="438.4" r="2" fill="none" stroke="#0b5" stroke-width="0.6"/><circle cx="2000.0" cy="386.9" r="2" fill="none" stroke="#0b5" stroke-width="0.6"/><circle cx="1067.2" cy="0.0" r="2" fill="none" stroke="#0b5" stroke-width="0.6"/><circle cx="594.0" cy="0.0" r="2" fill="none" stroke="#0b5" stroke-width="0.6"/><circle cx="600.0" cy="360.3" r="2" fill="none" stroke="#0b5" stroke-width="0.6"/><circle cx="994.0" cy="359.3" r="2" fill="none" stroke="#0b5" stroke-width="0.6"/><circle cx="1148.3" cy="0.0" r="2" fill="none" stroke="#0b5" stroke-width="0.6"/></g><g id="power"><circle cx="642.5" cy="1000.0" r="5" fill="none" stroke="#e33" stroke-width="1"/><circle cx="1304.0" cy="1000.0" r="5" fill="none" stroke="#e33" stroke-width="1"/><circle cx="2000.0" cy="530.4" r="5" fill="none" stroke="#e33" stroke-width="1"/><circle cx="2000.0" cy="438.4" r="5" fill="none" stroke="#e33" stroke-width="1"/><circle cx="2000.0" cy="408.7" r="5" fill="none" stroke="#e33" stroke-width="1"/><circle cx="2000.0" cy="386.9" r="5" fill="none" stroke="#e33" stroke-width="1"/><circle cx="1067.2" cy="0.0" r="5" fill="none" stroke="#e33" stroke-width="1"/><circle cx="594.0" cy="0.0" r="5" fill="none" stroke="#e33" stroke-width="1"/><circle cx="1148.3" cy="0.0" r="5" fill="none" stroke="#e33" stroke-width="1"/></g></svg>