<svg xmlns="http://www.w3.org/2000/svg" width="2000mm" height="1000mm" viewBox="0 0 2000 1000"><g id="outline"><rect x="0" y="0" width="2000" height="1000" fill="none" stroke="#000" stroke-width="1"/></g><g id="channels"><path d="M 573.8 0.0 L 571.9 2.7 L 568.0 8.5 L 564.1 14.4 L 560.1 20.2 L 556.2 26.0 L 552.2 31.7 L 548.2 37.5 L 544.2 43.3 L 544.2 43.3 L 540.2 49.0 L 536.0 54.8 L 531.8 60.5 L 527.5 66.2 L 523.2 71.8 L 518.9 77.5 L 514.6 83.2 L 510.3 88.9 L 506.1 94.6 L 501.9 100.3 L 497.8 106.0 L 493.9 111.7 L 490.0 117.5 L 486.4 123.3 L 482.8 129.1 L 479.5 135.0 L 479.5 135.0 L 476.2 141.2 L 472.5 148.0 L 468.8 155.1 L 464.9 162.5 L 461.1 170.1 L 457.3 177.7 L 453.7 185.3 L 450.3 192.8 L 447.2 199.9 L 444.5 206.7 L 442.3 212.9 L 440.7 218.5 L 439.7 223.4 L 439.4 227.5 L 439.9 230.5 L 441.2 232.5 L 441.2 232.5 L 443.6 233.4 L 446.9 233.3 L 451.1 232.2 L 456.1 230.4 L 461.7 227.8 L 467.9 224.6 L 474.5 220.9 L 481.5 216.8 L 488.8 212.3 L 496.2 207.6 L 503.7 202.8 L 511.1 198.0 L 518.3 193.3 L 525.3 188.7 L 531.9 184.5 L 538.0 180.6 L 538.0 180.6 L 543.9 176.8 L 549.7 173.0 L 555.4 169.0 L 561.1 165.0 L 566.8 160.9 L 572.4 156.7 L 578.0 152.5 L 583.7 148.3 L 589.3 144.0 L 594.9 139.7 L 600.5 135.5 L 606.2 131.3 L 611.9 127.1 L 617.6 123.0 L 623.3 118.9 L 629.1 115.0 L 629.1 115.0 L 634.9 111.1 L 640.8 107.2 L 646.7 103.4 L 652.6 99.6 L 658.5 95.8 L 664.4 92.1 L 670.4 88.3 L 676.3 84.6 L 682.3 80.9 L 688.3 77.3 L 694.2 73.6 L 700.2 69.9 L 706.2 66.2 L 712.2 62.5 L 718.1 58.9 L 724.1 55.1 L 724.1 55.1 L 730.0 51.4 L 736.0 47.7 L 742.0 44.0 L 747.9 40.3 L 753.9 36.6 L 759.9 32.9 L 765.8 29.3 L 771.8 25.6 L 777.8 21.9 L 783.7 18.2 L 789.7 14.5 L 795.7 10.8 L 801.7 7.2 L 807.6 3.5 L 813.3 0.0" fill="none" stroke="#2b6bff" stroke-width="6.0" stroke-opacity="0.9"/><path d="M 1542.2 0.0 L 1538.8 2.3 L 1533.4 6.0 L 1527.9 9.7 L 1522.4 13.4 L 1516.9 17.1 L 1511.4 20.7 L 1505.8 24.3 L 1500.3 27.9 L 1494.7 31.4 L 1489.1 34.9 L 1483.4 38.4 L 1477.8 41.8 L 1472.1 45.2 L 1466.4 48.5 L 1460.6 51.7 L 1454.9 54.9 L 1454.9 54.9 L 1449.1 58.1 L 1443.3 61.2 L 1437.4 64.3 L 1431.6 67.4 L 1425.7 70.4 L 1419.8 73.4 L 1413.8 76.4 L 1407.9 79.2 L 1401.9 82.1 L 1395.9 84.9 L 1389.9 87.6 L 1383.8 90.2 L 1377.7 92.8 L 1371.6 95.3 L 1365.5 97.7 L 1359.3 100.0 L 1359.3 100.0 L 1353.1 102.3 L 1346.9 104.4 L 1340.7 106.5 L 1334.4 108.5 L 1328.1 110.4 L 1321.7 112.3 L 1315.4 114.1 L 1309.0 115.8 L 1302.6 117.5 L 1296.2 119.1 L 1289.7 120.7 L 1283.3 122.2 L 1276.8 123.8 L 1270.4 125.2 L 1264.0 126.7 L 1257.5 128.1 L 1257.5 128.1 L 1251.1 129.5 L 1244.6 130.7 L 1238.0 131.8 L 1231.5 132.8 L 1224.9 133.8 L 1218.4 134.7 L 1211.8 135.6 L 1205.2 136.4 L 1198.7 137.3 L 1192.1 138.2 L 1185.5 139.2 L 1179.0 140.2 L 1172.5 141.4 L 1166.0 142.6 L 1159.6 144.0 L 1153.2 145.5 L 1153.2 145.5 L 1146.8 147.1 L 1140.4 148.7 L 1134.0 150.3 L 1127.6 152.0 L 1121.2 153.7 L 1114.8 155.5 L 1108.4 157.4 L 1102.1 159.3 L 1095.8 161.4 L 1089.5 163.5 L 1083.4 165.8 L 1077.2 168.1 L 1071.2 170.7 L 1065.2 173.3 L 1059.4 176.2 L 1053.6 179.2 L 1053.6 179.2 L 1048.0 182.4 L 1042.4 185.8 L 1037.0 189.4 L 1031.6 193.2 L 1026.4 197.1 L 1021.1 201.1 L 1016.0 205.3 L 1010.9 209.5 L 1005.8 213.8 L 1000.8 218.2 L 995.8 222.6 L 990.8 227.1 L 985.8 231.5 L 980.9 235.9 L 975.9 240.3 L 970.9 244.6 L 970.9 244.6 L 965.9 249.0 L 960.9 253.3 L 956.0 257.7 L 951.1 262.2 L 946.3 266.6 L 941.4 271.1 L 936.6 275.6 L 931.8 280.2 L 927.0 284.7 L 922.2 289.3 L 917.4 293.8 L 912.6 298.4 L 907.8 302.9 L 903.0 307.5 L 898.2 312.0 L 893.3 316.5 L 893.3 316.5 L 888.5 321.0 L 883.6 325.5 L 878.8 330.0 L 873.9 334.5 L 869.1 339.0 L 864.2 343.5 L 859.4 348.0 L 854.5 352.5 L 849.7 357.0 L 844.8 361.4 L 840.0 365.9 L 835.2 370.4 L 830.3 374.9 L 825.5 379.4 L 820.6 383.9 L 815.8 388.4 L 815.8 388.4 L 810.9 392.9 L 806.0 397.4 L 801.2 401.8 L 796.3 406.3 L 791.4 410.7 L 786.4 415.1 L 781.5 419.6 L 776.7 424.0 L 771.8 428.5 L 766.9 433.0 L 762.1 437.4 L 757.2 442.0 L 752.4 446.5 L 747.7 451.1 L 743.0 455.7 L 738.3 460.4 L 738.3 460.4 L 733.7 465.1 L 729.0 469.8 L 724.4 474.5 L 719.9 479.3 L 715.3 484.1 L 710.8 488.9 L 706.3 493.7 L 701.8 498.6 L 697.4 503.5 L 692.9 508.4 L 688.5 513.3 L 684.2 518.2 L 679.8 523.2 L 675.5 528.2 L 671.2 533.2 L 666.9 538.2 L 666.9 538.2 L 662.7 543.3 L 658.5 548.5 L 654.5 553.7 L 650.5 559.0 L 646.6 564.4 L 642.7 569.8 L 638.8 575.2 L 634.9 580.5 L 631.0 585.9 L 627.0 591.2 L 623.0 596.5 L 618.9 601.7 L 614.8 606.7 L 610.5 611.7 L 606.1 616.6 L 601.5 621.3 L 601.5 621.3 L 596.8 625.9 L 592.1 630.4 L 587.3 634.9 L 582.4 639.4 L 577.4 643.8 L 572.4 648.1 L 567.3 652.3 L 562.1 656.5 L 556.9 660.5 L 551.6 664.5 L 546.2 668.4 L 540.8 672.2 L 535.4 675.8 L 529.8 679.4 L 524.3 682.8 L 518.6 686.1 L 518.6 686.1 L 512.9 689.3 L 507.1 692.3 L 501.2 695.2 L 495.3 698.0 L 489.2 700.6 L 483.2 703.2 L 477.0 705.6 L 470.8 708.0 L 464.6 710.3 L 458.3 712.5 L 452.0 714.7 L 445.7 716.8 L 439.4 718.9 L 433.1 721.0 L 426.8 723.1 L 420.6 725.2 L 420.6 725.2 L 414.3 727.2 L 408.0 729.2 L 401.7 731.1 L 395.3 732.9 L 389.0 734.7 L 382.6 736.4 L 376.2 738.1 L 369.8 739.7 L 363.4 741.4 L 357.0 743.0 L 350.6 744.6 L 344.1 746.2 L 337.7 747.8 L 331.3 749.4 L 324.9 751.1 L 318.5 752.8 L 318.5 752.8 L 312.1 754.4 L 305.7 756.1 L 299.3 757.8 L 292.9 759.4 L 286.5 761.1 L 280.1 762.7 L 273.7 764.4 L 267.3 766.0 L 260.9 767.7 L 254.5 769.3 L 248.1 771.0 L 241.7 772.6 L 235.3 774.3 L 228.9 775.9 L 222.5 777.6 L 216.2 779.3 L 216.2 779.3 L 209.8 781.0 L 203.4 782.7 L 197.0 784.3 L 190.6 786.0 L 184.1 787.6 L 177.7 789.3 L 171.3 790.9 L 164.9 792.6 L 158.5 794.3 L 152.2 796.0 L 145.8 797.8 L 139.4 799.6 L 133.1 801.4 L 126.8 803.3 L 120.5 805.3 L 114.2 807.4 L 114.2 807.4 L 108.0 809.5 L 101.7 811.6 L 95.5 813.8 L 89.3 816.1 L 83.1 818.4 L 76.9 820.7 L 70.7 823.1 L 64.6 825.5 L 58.4 827.9 L 52.3 830.4 L 46.2 833.0 L 40.1 835.5 L 34.1 838.1 L 28.0 840.8 L 22.0 843.5 L 16.0 846.2 L 16.0 846.2 L 10.0 849.0 L 4.0 851.8 L 0.0 853.8" fill="none" stroke="#2b6bff" stroke-width="6.0" stroke-opacity="0.9"/><path d="M 291.3 1000.0 L 292.1 999.6 L 298.1 996.9 L 304.1 994.3 L 310.2 991.7 L 316.3 989.1 L 322.4 986.6 L 328.5 984.1 L 334.7 981.6 L 340.8 979.0 L 346.8 976.4 L 352.9 973.8 L 358.9 971.1 L 364.9 968.3 L 370.8 965.5 L 370.8 965.5 L 376.7 962.6 L 382.7 959.7 L 388.8 956.9 L 394.8 954.1 L 400.9 951.3 L 406.9 948.5 L 413.0 945.7 L 418.9 942.7 L 424.8 939.7 L 430.7 936.6 L 436.4 933.4 L 442.0 930.0 L 447.5 926.5 L 452.8 922.8 L 457.9 918.9 L 462.9 914.8 L 462.9 914.8 L 467.6 910.5 L 472.1 905.9 L 476.4 901.0 L 480.6 896.0 L 484.6 890.8 L 488.5 885.5 L 492.2 880.0 L 495.9 874.5 L 499.6 868.9 L 503.2 863.3 L 506.9 857.6 L 510.6 852.0 L 514.3 846.5 L 518.1 841.0 L 522.0 835.7 L 526.1 830.5 L 526.1 830.5 L 530.2 825.2 L 534.4 819.8 L 538.7 814.2 L 543.0 808.5 L 547.3 802.8 L 551.6 797.0 L 556.0 791.3 L 560.4 785.7 L 564.7 780.3 L 569.1 775.0 L 573.5 770.1 L 577.8 765.4 L 582.1 761.1 L 586.4 757.2 L 590.6 753.7 L 594.8 750.8 L 594.8 750.8 L 599.0 748.3 L 603.4 746.2 L 608.0 744.5 L 612.6 743.1 L 617.2 742.1 L 621.8 741.3 L 626.4 740.9 L 630.9 740.6 L 635.3 740.6 L 639.5 740.8 L 643.5 741.2 L 647.2 741.7 L 650.7 742.4 L 653.8 743.2 L 656.6 744.0 L 659.0 745.0 L 659.0 745.0 L 660.8 746.3 L 661.9 748.2 L 662.6 750.8 L 662.8 753.7 L 662.6 757.0 L 662.2 760.5 L 661.6 764.0 L 660.9 767.6 L 660.2 771.0 L 659.7 774.1 L 659.3 776.8 L 659.2 779.1 L 659.5 780.8 L 660.2 781.7 L 661.5 781.8 L 663.5 780.9 L 663.5 780.9 L 666.2 778.9 L 669.5 775.7 L 673.4 771.4 L 677.8 766.2 L 682.6 760.4 L 687.6 754.1 L 692.9 747.4 L 698.2 740.5 L 703.6 733.7 L 708.8 727.1 L 713.9 720.9 L 718.6 715.2 L 723.0 710.2 L 727.0 706.1 L 730.3 703.1 L 733.1 701.4 L 733.1 701.4 L 735.1 700.9 L 736.7 701.4 L 737.8 702.8 L 738.6 704.9 L 739.0 707.7 L 739.1 711.1 L 739.0 714.8 L 738.8 718.8 L 738.5 723.0 L 738.1 727.3 L 737.8 731.5 L 737.5 735.5 L 737.4 739.2 L 737.5 742.5 L 737.9 745.2 L 738.6 747.2 L 738.6 747.2 L 739.5 748.8 L 740.4 750.1 L 741.5 751.2 L 742.5 752.1 L 743.7 752.8 L 744.9 753.4 L 746.2 753.8 L 747.5 754.1 L 749.0 754.3 L 750.4 754.5 L 752.0 754.6 L 753.6 754.7 L 755.2 754.7 L 756.9 754.8 L 758.7 755.0 L 760.6 755.2 L 760.6 755.2 L 762.6 755.3 L 765.0 755.1 L 767.6 754.8 L 770.4 754.3 L 773.3 753.7 L 776.4 753.1 L 779.4 752.5 L 782.4 751.9 L 785.4 751.4 L 788.2 751.1 L 790.8 750.9 L 793.1 751.0 L 795.1 751.4 L 796.8 752.1 L 798.0 753.2 L 798.7 754.7 L 798.7 754.7 L 798.8 756.9 L 798.2 759.7 L 797.0 763.0 L 795.3 766.8 L 793.2 770.9 L 790.9 775.3 L 788.4 779.8 L 785.8 784.4 L 783.3 789.0 L 780.9 793.5 L 778.8 797.7 L 777.1 801.6 L 775.9 805.1 L 775.2 808.0 L 775.3 810.4 L 776.1 812.0 L 776.1 812.0 L 778.0 812.7 L 780.9 812.7 L 784.6 811.9 L 789.0 810.5 L 793.9 808.7 L 799.3 806.5 L 804.9 804.1 L 810.5 801.6 L 816.1 799.2 L 821.5 797.0 L 826.5 795.0 L 831.0 793.5 L 834.7 792.5 L 837.7 792.2 L 839.6 792.8 L 840.5 794.2 L 840.5 794.2 L 840.0 796.8 L 838.2 800.3 L 835.3 804.6 L 831.4 809.7 L 826.9 815.4 L 821.8 821.5 L 816.4 827.8 L 810.8 834.4 L 805.2 840.9 L 799.8 847.3 L 794.8 853.5 L 790.4 859.2 L 786.8 864.4 L 784.1 868.9 L 782.6 872.6 L 782.4 875.3 L 782.4 875.3 L 783.7 877.0 L 786.4 877.8 L 790.4 877.9 L 795.4 877.3 L 801.1 876.1 L 807.5 874.6 L 814.2 872.7 L 821.2 870.8 L 828.0 868.8 L 834.6 866.9 L 840.8 865.2 L 846.2 863.9 L 850.8 863.0 L 854.3 862.7 L 856.5 863.1 L 857.2 864.4 L 857.2 864.4 L 856.5 866.5 L 854.7 869.3 L 852.0 872.6 L 848.5 876.4 L 844.3 880.6 L 839.4 885.1 L 833.9 889.9 L 828.1 894.9 L 821.8 899.9 L 815.4 905.0 L 808.8 910.0 L 802.2 914.9 L 795.6 919.5 L 789.2 923.8 L 783.0 927.7 L 777.2 931.2 L 777.2 931.2 L 771.5 934.3 L 765.7 937.2 L 759.7 939.8 L 753.7 942.3 L 747.5 944.6 L 741.3 946.8 L 735.0 948.9 L 728.6 950.9 L 722.2 952.8 L 715.8 954.8 L 709.4 956.7 L 703.0 958.7 L 696.7 960.7 L 690.3 962.8 L 684.1 965.0 L 677.9 967.4 L 677.9 967.4 L 671.8 969.8 L 665.6 972.2 L 659.4 974.6 L 653.3 977.0 L 647.1 979.4 L 640.9 981.8 L 634.8 984.2 L 628.7 986.7 L 622.6 989.2 L 616.5 991.8 L 610.4 994.4 L 604.4 997.1 L 598.4 999.9 L 598.2 1000.0" fill="none" stroke="#2b6bff" stroke-width="6.0" stroke-opacity="0.9"/><path d="M 0.0 211.1 L 5.0 207.3 L 10.8 202.7 L 16.7 198.2 L 16.7 198.2 L 22.5 193.7 L 28.3 189.1 L 34.1 184.6 L 39.9 180.0 L 45.7 175.4 L 51.5 170.8 L 57.2 166.1 L 63.0 161.4 L 68.6 156.7 L 74.3 152.0 L 80.0 147.2 L 85.6 142.4 L 91.1 137.5 L 96.6 132.6 L 102.1 127.7 L 107.5 122.7 L 107.5 122.7 L 112.9 117.6 L 118.2 112.5 L 123.5 107.3 L 128.7 102.1 L 133.9 96.9 L 139.0 91.6 L 144.1 86.2 L 149.2 80.9 L 154.3 75.5 L 159.3 70.1 L 164.4 64.6 L 169.4 59.2 L 174.4 53.8 L 179.4 48.3 L 184.4 42.9 L 189.4 37.5 L 189.4 37.5 L 194.5 32.1 L 199.5 26.6 L 204.4 21.2 L 209.4 15.7 L 214.3 10.2 L 219.3 4.7 L 223.5 0.0" fill="none" stroke="#2b6bff" stroke-width="6.0" stroke-opacity="0.9"/></g><g id="clips"><circle cx="573.8" cy="0.0" r="2" fill="none" stroke="#0b5" stroke-width="0.6"/><circle cx="813.3" cy="0.0" r="2" fill="none" stroke="#0b5" stroke-width="0.6"/><circle cx="1542.2" cy="0.0" r="2" fill="none" stroke="#0b5" stroke-width="0.6"/><circle cx="0.0" cy="853.8" r="2" fill="none" stroke="#0b5" stroke-width="0.6"/><circle cx="291.3" cy="1000.0" r="2" fill="none" stroke="#0b5" stroke-width="0.6"/><circle cx="598.2" cy="1000.0" r="2" fill="none" stroke="#0b5" stroke-width="0.6"/><circle cx="0.0" cy="211.1" r="2" fill="none" stroke="#0b5" stroke-width="0.6"/><circle cx="223.5" cy="0.0" r="2" fill="none" stroke="#0b5" stroke-width="0.6"/></g><g id="power"><circle cx="0.0" cy="853.9" r="5" fill="none" stroke="#e33" stroke-width="1"/><circle cx="0.0" cy="211.2" r="5" fill="none" stroke="#e33" stroke-width="1"/><circle cx="291.4" cy="1000.0" r="5" fill="none" stroke="#e33" stroke-width="1"/><circle cx="598.3" cy="1000.0" r="5" fill="none" stroke="#e33" stroke-width="1"/><circle cx="573.8" cy="0.0" r="5" fill="none" stroke="#e33" stroke-width="1"/><circle cx="813.4" cy="0.0" r="5" fill="none" stroke="#e33" stroke-width="1"/><circle cx="1542.3" cy="0.0" r="5" fill="none" stroke="#e33" stroke-width="1"/><circle cx="223.5" cy="0.0" r="5" fill="none" stroke="#e33" stroke-width="1"/></g></svg>