<svg xmlns="http://www.w3.org/2000/svg" width="1000mm" height="1000mm" viewBox="0 0 1000 1000"><g id="outline"><rect x="0" y="0" width="1000" height="1000" fill="none" stroke="#000" stroke-width="1"/></g><g id="channels"><path d="M 667.9 0.0 L 666.7 3.7 L 666.7 3.7 L 664.5 10.3 L 662.4 17.0 L 660.3 23.7 L 658.2 30.4 L 656.1 37.1 L 654.1 43.8 L 652.0 50.5 L 650.0 57.2 L 648.0 64.0 L 646.1 70.7 L 644.1 77.4 L 642.1 84.2 L 640.2 90.9 L 638.3 97.7 L 636.3 104.4 L 634.4 111.1 L 634.4 111.1 L 632.5 117.9 L 630.7 124.7 L 628.9 131.5 L 627.1 138.3 L 625.4 145.1 L 623.7 151.9 L 621.9 158.7 L 620.2 165.5 L 618.5 172.3 L 616.7 179.1 L 614.9 185.9 L 613.1 192.7 L 611.1 199.4 L 609.2 206.1 L 607.1 212.8 L 604.9 219.5 L 604.9 219.5 L 602.7 226.1 L 600.4 232.7 L 598.1 239.3 L 595.7 245.9 L 593.3 252.5 L 590.8 259.1 L 588.3 265.6 L 585.7 272.2 L 583.1 278.7 L 580.5 285.2 L 577.8 291.6 L 575.0 298.1 L 572.2 304.5 L 569.4 311.0 L 566.6 317.4 L 563.7 323.7 L 563.7 323.7 L 560.7 330.1 L 557.8 336.4 L 554.7 342.8 L 551.6 349.0 L 548.5 355.3 L 545.3 361.6 L 542.1 367.8 L 538.8 374.0 L 535.5 380.2 L 532.2 386.4 L 528.8 392.6 L 525.5 398.8 L 522.1 404.9 L 518.7 411.0 L 515.2 417.2 L 511.8 423.3 L 511.8 423.3 L 508.4 429.4 L 504.9 435.5 L 501.5 441.7 L 498.1 447.9 L 494.7 454.0 L 491.2 460.2 L 487.7 466.3 L 484.2 472.4 L 480.6 478.4 L 477.0 484.5 L 473.3 490.4 L 469.5 496.3 L 465.7 502.2 L 461.7 507.9 L 457.7 513.6 L 453.6 519.2 L 453.6 519.2 L 449.4 524.9 L 445.1 530.7 L 440.9 536.7 L 436.6 542.8 L 432.2 548.9 L 427.8 554.9 L 423.3 560.9 L 418.7 566.7 L 414.0 572.3 L 409.3 577.6 L 404.4 582.6 L 399.3 587.2 L 394.2 591.3 L 388.9 595.0 L 383.4 598.1 L 377.8 600.6 L 377.8 600.6 L 372.0 602.4 L 365.8 603.5 L 359.4 604.0 L 352.8 604.0 L 346.0 603.6 L 339.1 602.7 L 332.1 601.6 L 325.1 600.1 L 318.0 598.5 L 310.9 596.8 L 304.0 595.0 L 297.1 593.3 L 290.3 591.7 L 283.7 590.2 L 277.4 588.9 L 271.2 588.0 L 271.2 588.0 L 265.1 587.0 L 258.6 585.8 L 251.8 584.3 L 244.9 582.6 L 238.0 580.9 L 231.1 579.1 L 224.4 577.4 L 217.9 575.8 L 211.8 574.4 L 206.1 573.2 L 200.9 572.4 L 196.4 572.0 L 192.6 572.1 L 189.7 572.7 L 187.7 574.0 L 186.7 575.9 L 186.7 575.9 L 187.0 578.7 L 188.6 582.5 L 191.3 587.2 L 195.1 592.5 L 199.6 598.4 L 204.8 604.7 L 210.6 611.3 L 216.6 618.1 L 222.8 624.9 L 229.0 631.6 L 235.1 638.0 L 240.8 644.1 L 246.0 649.6 L 250.6 654.5 L 254.3 658.6 L 257.1 661.8" fill="none" stroke="#00e5ff" stroke-width="6.0" stroke-opacity="0.9"/><path d="M 184.0 661.4 L 181.2 663.6 L 177.6 666.1 L 173.4 669.0 L 168.7 672.2 L 163.5 675.7 L 158.0 679.5 L 152.3 683.5 L 146.3 687.7 L 140.4 692.0 L 134.5 696.4 L 128.7 701.0 L 123.1 705.5 L 117.8 710.1 L 113.0 714.6 L 108.6 719.1 L 104.9 723.5 L 104.9 723.5 L 101.5 728.0 L 98.1 733.0 L 94.7 738.2 L 91.5 743.7 L 88.4 749.4 L 85.5 755.1 L 82.8 760.9 L 80.3 766.5 L 78.2 772.0 L 76.4 777.3 L 74.9 782.3 L 73.9 786.8 L 73.3 790.9 L 73.2 794.5 L 73.7 797.4 L 74.7 799.6 L 74.7 799.6 L 76.5 800.9 L 79.2 801.3 L 82.7 800.9 L 86.8 799.9 L 91.5 798.3 L 96.7 796.4 L 102.2 794.1 L 107.8 791.7 L 113.6 789.2 L 119.3 786.9 L 124.9 784.7 L 130.3 782.9 L 135.2 781.5 L 139.6 780.7 L 143.5 780.7 L 146.6 781.4 L 146.6 781.4 L 149.0 782.9 L 151.0 785.0 L 152.5 787.6 L 153.7 790.6 L 154.5 793.9 L 155.1 797.6 L 155.6 801.6 L 155.9 805.7 L 156.1 810.0 L 156.4 814.3 L 156.6 818.7 L 157.0 822.9 L 157.6 827.1 L 158.4 831.1 L 159.5 834.8 L 160.9 838.3 L 160.9 838.3 L 162.7 841.6 L 164.6 844.9 L 166.7 848.3 L 168.9 851.8 L 171.3 855.2 L 173.8 858.6 L 176.3 861.9 L 178.9 865.2 L 181.6 868.3 L 184.2 871.4 L 186.8 874.3 L 189.4 877.0 L 191.8 879.6 L 194.2 882.0 L 196.5 884.1 L 198.6 886.0 L 198.6 886.0 L 200.6 887.6 L 202.5 889.0 L 204.2 890.1 L 205.8 891.1 L 207.3 891.9 L 208.9 892.5 L 210.3 893.0 L 211.8 893.3 L 213.3 893.6 L 214.9 893.8 L 216.5 893.9 L 218.3 893.9 L 220.1 894.0 L 222.1 894.0 L 224.2 894.0 L 226.6 894.1 L 226.6 894.1 L 229.1 894.1 L 231.9 893.9 L 234.8 893.6 L 237.9 893.1 L 241.0 892.6 L 244.3 892.0 L 247.7 891.4 L 251.1 890.8 L 254.5 890.1 L 257.9 889.6 L 261.3 889.1 L 264.6 888.7 L 267.9 888.5 L 271.0 888.5 L 274.0 888.6 L 276.9 888.9 L 276.9 888.9 L 279.7 889.7 L 282.4 891.1 L 285.1 892.9 L 287.8 895.0 L 290.5 897.4 L 293.1 899.9 L 295.7 902.4 L 298.2 904.9 L 300.6 907.2 L 303.0 909.2 L 305.3 910.8 L 307.5 911.9 L 309.7 912.4 L 311.8 912.2 L 313.7 911.2 L 315.6 909.3 L 315.6 909.3 L 317.3 906.4 L 318.7 902.6 L 319.8 897.9 L 320.8 892.6 L 321.6 886.7 L 322.3 880.3 L 323.0 873.5 L 323.7 866.5 L 324.5 859.2 L 325.3 851.8 L 326.3 844.5 L 327.5 837.2 L 328.9 830.2 L 330.7 823.6 L 332.8 817.3 L 335.2 811.6 L 335.2 811.6 L 338.1 806.2 L 341.2 801.0 L 344.6 795.8 L 348.2 790.8 L 352.1 785.9 L 356.2 781.0 L 360.4 776.3 L 364.8 771.6 L 369.2 766.9 L 373.8 762.4 L 378.4 757.8 L 383.0 753.3 L 387.6 748.8 L 392.2 744.4 L 396.8 739.9 L 401.3 735.4 L 401.3 735.4 L 405.7 731.0 L 410.3 726.6 L 414.8 722.2 L 419.5 717.9 L 424.1 713.6 L 428.8 709.4 L 433.6 705.2 L 438.3 701.0 L 443.1 696.9 L 447.9 692.8 L 452.8 688.7 L 457.6 684.6 L 462.4 680.5 L 467.3 676.4 L 472.1 672.3 L 476.9 668.2 L 476.9 668.2 L 481.8 664.2 L 486.7 660.2 L 491.6 656.2 L 496.6 652.3 L 501.6 648.4 L 506.7 644.6 L 511.7 640.7 L 516.7 636.8 L 521.7 633.0 L 526.7 629.1 L 531.7 625.1 L 536.6 621.1 L 541.4 617.1 L 546.2 613.0 L 550.9 608.8 L 555.6 604.5 L 555.6 604.5 L 560.1 600.2 L 564.7 595.9 L 569.3 591.5 L 573.8 587.0 L 578.3 582.6 L 582.7 578.0 L 587.2 573.5 L 591.5 568.9 L 595.8 564.2 L 600.1 559.5 L 604.2 554.8 L 608.3 550.0 L 612.3 545.1 L 616.3 540.2 L 620.1 535.2 L 623.8 530.2 L 623.8 530.2 L 627.4 525.0 L 630.9 519.8 L 634.4 514.6 L 637.8 509.2 L 641.1 503.8 L 644.3 498.4 L 647.4 492.9 L 650.5 487.3 L 653.5 481.7 L 656.4 476.1 L 659.3 470.5 L 662.1 464.8 L 664.9 459.1 L 667.6 453.3 L 670.2 447.6 L 672.9 441.9 L 672.9 441.9 L 675.4 436.1 L 677.9 430.3 L 680.2 424.5 L 682.5 418.6 L 684.8 412.7 L 686.9 406.7 L 689.0 400.8 L 691.1 394.8 L 693.1 388.8 L 695.1 382.8 L 697.1 376.7 L 699.0 370.7 L 700.9 364.7 L 702.8 358.6 L 704.8 352.6 L 706.7 346.6 L 706.7 346.6 L 708.6 340.5 L 710.5 334.5 L 712.4 328.5 L 714.2 322.4 L 716.0 316.4 L 717.8 310.3 L 719.6 304.2 L 721.4 298.2 L 723.1 292.1 L 724.8 286.0 L 726.5 279.9 L 728.2 273.8 L 729.8 267.7 L 731.5 261.6 L 733.1 255.4 L 734.7 249.3 L 734.7 249.3 L 736.2 243.2 L 737.6 236.9 L 738.9 230.6 L 740.1 224.2 L 741.3 217.8 L 742.4 211.4 L 743.5 205.0 L 744.7 198.7 L 745.9 192.3 L 747.1 186.1 L 748.5 179.9 L 750.0 173.8 L 751.5 167.8 L 753.3 162.0 L 755.2 156.3 L 757.4 150.7 L 757.4 150.7 L 759.8 145.1 L 762.4 139.1 L 765.1 132.8 L 768.1 126.4 L 771.2 119.9 L 774.3 113.5 L 777.6 107.2 L 781.0 101.2 L 784.3 95.6 L 787.7 90.5 L 791.1 85.9 L 794.5 82.0 L 797.8 78.9 L 800.9 76.7 L 804.0 75.5 L 807.0 75.4 L 807.0 75.4 L 809.8 76.4 L 812.7 78.7 L 815.5 81.9 L 818.2 86.1 L 821.0 91.2 L 823.7 96.8 L 826.4 103.1 L 829.1 109.8 L 831.7 116.8 L 834.3 124.1 L 836.8 131.5 L 839.4 138.8 L 841.9 146.0 L 844.3 152.9 L 846.8 159.5 L 849.2 165.6 L 849.2 165.6 L 851.5 171.4 L 853.7 177.3 L 855.9 183.2 L 858.0 189.2 L 860.1 195.1 L 862.1 201.1 L 864.1 207.1 L 866.1 213.2 L 868.1 219.2 L 870.0 225.2 L 872.1 231.2 L 874.1 237.2 L 876.2 243.2 L 878.4 249.2 L 880.6 255.1 L 882.9 261.0 L 882.9 261.0 L 885.3 266.8 L 887.7 272.6 L 890.2 278.4 L 892.8 284.2 L 895.3 290.0 L 898.0 295.8 L 900.6 301.5 L 903.3 307.2 L 906.0 313.0 L 908.6 318.7 L 911.3 324.5 L 914.0 330.2 L 916.6 336.0 L 919.2 341.7 L 921.7 347.5 L 924.3 353.3 L 924.3 353.3 L 926.8 359.1 L 929.3 364.9 L 931.8 370.7 L 934.3 376.5 L 936.8 382.3 L 939.3 388.2 L 941.8 394.0 L 944.2 399.8 L 946.7 405.7 L 949.1 411.5 L 951.4 417.4 L 953.8 423.2 L 956.0 429.1 L 958.3 435.1 L 960.4 441.0 L 962.5 446.9 L 962.5 446.9 L 964.6 452.9 L 966.5 458.9 L 968.5 464.9 L 970.3 471.0 L 972.2 477.0 L 974.0 483.1 L 975.7 489.2 L 977.4 495.2 L 979.1 501.3 L 980.8 507.5 L 982.4 513.6 L 984.0 519.7 L 985.6 525.8 L 987.1 532.0 L 988.7 538.1 L 990.2 544.2 L 990.2 544.2 L 991.7 550.4 L 993.2 556.5 L 994.6 562.7 L 996.0 568.8 L 997.3 575.0 L 998.6 581.2 L 999.9 587.4 L 1000.0 587.9" fill="none" stroke="#00e5ff" stroke-width="6.0" stroke-opacity="0.9"/></g><g id="clips"><circle cx="667.9" cy="0.0" r="2" fill="none" stroke="#0b5" stroke-width="0.6"/><circle cx="257.1" cy="661.8" r="2" fill="none" stroke="#0b5" stroke-width="0.6"/><circle cx="184.0" cy="661.4" r="2" fill="none" stroke="#0b5" stroke-width="0.6"/><circle cx="1000.0" cy="587.9" r="2" fill="none" stroke="#0b5" stroke-width="0.6"/></g><g id="power"><circle cx="1000.0" cy="587.6" r="5" fill="none" stroke="#e33" stroke-width="1"/><circle cx="667.9" cy="0.0" r="5" fill="none" stroke="#e33" stroke-width="1"/></g></svg>