<svg xmlns="http://www.w3.org/2000/svg" width="1000mm" height="2000mm" viewBox="0 0 1000 2000"><g id="outline"><rect x="0" y="0" width="1000" height="2000" fill="none" stroke="#000" stroke-width="1"/></g><g id="channels"><path d="M 373.5 1533.6 L 373.3 1536.7 L 373.1 1540.5 L 372.9 1544.9 L 372.6 1549.8 L 372.3 1555.1 L 371.9 1560.8 L 371.6 1566.8 L 371.2 1573.1 L 370.9 1579.5 L 370.5 1586.0 L 370.2 1592.6 L 369.9 1599.1 L 369.6 1605.6 L 369.3 1611.9 L 369.0 1618.0 L 368.8 1623.8 L 368.8 1623.8 L 368.6 1629.4 L 368.3 1635.1 L 368.2 1640.8 L 368.0 1646.4 L 367.8 1652.1 L 367.6 1657.8 L 367.4 1663.3 L 367.3 1669.0 L 367.2 1674.7 L 367.1 1680.3 L 367.0 1685.9 L 367.0 1691.6 L 367.0 1697.3 L 367.0 1702.9 L 367.1 1708.6 L 367.3 1714.2 L 367.3 1714.2 L 367.5 1719.8 L 367.6 1725.5 L 367.8 1731.1 L 368.1 1736.8 L 368.3 1742.4 L 368.6 1748.0 L 368.9 1753.7 L 369.2 1759.4 L 369.7 1765.0 L 370.1 1770.6 L 370.6 1776.3 L 371.1 1781.9 L 371.7 1787.5 L 372.4 1793.1 L 373.1 1798.6 L 373.9 1804.2 L 373.9 1804.2 L 374.8 1809.8 L 375.7 1815.4 L 376.7 1820.9 L 377.8 1826.4 L 378.9 1832.0 L 380.1 1837.5 L 381.3 1843.0 L 382.6 1848.5 L 383.8 1854.0 L 385.2 1859.5 L 386.6 1865.0 L 387.9 1870.5 L 389.4 1876.0 L 390.9 1881.4 L 392.3 1886.8 L 393.7 1892.3 L 393.7 1892.3 L 395.2 1897.8 L 396.7 1903.2 L 398.3 1908.7 L 399.9 1914.1 L 401.4 1919.5 L 403.1 1924.9 L 404.8 1930.3 L 406.5 1935.7 L 408.2 1941.1 L 409.9 1946.4 L 411.7 1951.8 L 413.4 1957.2 L 415.2 1962.6 L 416.9 1968.0 L 418.7 1973.3 L 420.4 1978.6 L 420.4 1978.6 L 422.2 1984.0 L 423.9 1989.4 L 425.7 1994.7 L 427.4 2000.0" fill="none" stroke="#39ff88" stroke-width="6.0" stroke-opacity="0.9"/><path d="M 1000.0 1583.6 L 998.1 1584.1 L 992.9 1585.6 L 987.9 1587.5 L 983.3 1589.6 L 978.9 1592.0 L 974.8 1594.7 L 974.8 1594.7 L 970.9 1597.7 L 967.2 1601.1 L 963.8 1604.9 L 960.5 1609.0 L 957.4 1613.3 L 954.5 1617.9 L 951.7 1622.7 L 949.1 1627.6 L 946.7 1632.8 L 944.3 1637.9 L 942.2 1643.2 L 940.1 1648.6 L 938.3 1653.8 L 936.5 1659.2 L 935.0 1664.4 L 933.5 1669.6 L 933.5 1669.6 L 932.2 1674.7 L 931.0 1680.0 L 930.2 1685.3 L 929.5 1690.6 L 929.0 1696.0 L 928.6 1701.6 L 928.4 1707.1 L 928.3 1712.7 L 928.3 1718.3 L 928.3 1723.9 L 928.4 1729.6 L 928.5 1735.2 L 928.6 1740.8 L 928.8 1746.3 L 928.9 1751.9 L 928.9 1757.5 L 928.9 1757.5 L 928.9 1762.9 L 929.0 1768.4 L 929.2 1773.9 L 929.3 1779.5 L 929.5 1784.9 L 929.7 1790.4 L 930.0 1795.9 L 930.4 1801.4 L 930.7 1806.9 L 931.0 1812.5 L 931.4 1817.9 L 931.8 1823.5 L 932.2 1828.9 L 932.6 1834.4 L 933.0 1839.9 L 933.5 1845.4 L 933.5 1845.4 L 934.0 1850.9 L 934.7 1856.6 L 935.6 1862.3 L 936.5 1868.2 L 937.6 1874.0 L 938.6 1879.8 L 939.6 1885.6 L 940.7 1891.4 L 941.5 1897.1 L 942.4 1902.7 L 942.9 1908.2 L 943.4 1913.5 L 943.6 1918.8 L 943.6 1923.7 L 943.2 1928.5 L 942.4 1933.1 L 942.4 1933.1 L 941.4 1937.6 L 940.1 1942.2 L 938.5 1946.8 L 936.8 1951.6 L 934.8 1956.2 L 932.6 1960.7 L 930.2 1965.1 L 927.7 1969.2 L 925.1 1973.1 L 922.3 1976.6 L 919.5 1979.7 L 916.6 1982.2 L 913.6 1984.2 L 910.5 1985.7 L 907.5 1986.5 L 904.4 1986.6 L 904.4 1986.6 L 901.3 1985.8 L 897.9 1984.3 L 894.3 1982.0 L 890.7 1979.1 L 886.9 1975.6 L 883.0 1971.6 L 879.1 1967.3 L 875.2 1962.5 L 871.1 1957.5 L 867.1 1952.5 L 863.1 1947.3 L 859.1 1942.1 L 855.2 1937.0 L 851.4 1932.1 L 847.6 1927.3 L 844.1 1923.0 L 844.1 1923.0 L 840.5 1918.8 L 837.0 1914.5 L 833.6 1910.2 L 830.1 1905.9 L 826.8 1901.6 L 823.4 1897.2 L 820.0 1892.8 L 816.7 1888.4 L 813.4 1884.0 L 810.2 1879.5 L 807.0 1875.0 L 803.8 1870.4 L 800.7 1866.0 L 797.6 1861.4 L 794.5 1856.8 L 791.5 1852.2 L 791.5 1852.2 L 788.5 1847.6 L 785.5 1843.0 L 782.4 1838.4 L 779.4 1833.7 L 776.2 1829.1 L 773.2 1824.4 L 770.3 1819.7 L 767.3 1815.0 L 764.6 1810.2 L 761.8 1805.4 L 759.2 1800.6 L 756.7 1795.7 L 754.3 1790.8 L 752.1 1785.8 L 750.1 1780.8 L 748.3 1775.8 L 748.3 1775.8 L 746.6 1770.6 L 745.2 1765.5 L 743.8 1760.2 L 742.7 1754.8 L 741.6 1749.4 L 740.7 1744.0 L 740.0 1738.6 L 739.3 1733.1 L 738.6 1727.6 L 738.1 1722.1 L 737.7 1716.6 L 737.4 1711.0 L 737.1 1705.5 L 736.8 1700.0 L 736.6 1694.5 L 736.4 1689.0 L 736.4 1689.0 L 736.2 1683.5 L 736.1 1678.1 L 736.2 1672.6 L 736.3 1667.1 L 736.5 1661.6 L 736.8 1656.1 L 737.1 1650.6 L 737.6 1645.1 L 738.0 1639.6 L 738.5 1634.1 L 739.0 1628.6 L 739.5 1623.1 L 740.0 1617.6 L 740.5 1612.1 L 741.0 1606.6 L 741.5 1601.1 L 741.5 1601.1 L 742.0 1595.6 L 742.4 1590.1 L 742.9 1584.6 L 743.3 1579.2 L 743.8 1573.6 L 744.3 1568.2 L 744.8 1562.7 L 745.3 1557.2 L 745.9 1551.7 L 746.5 1546.2 L 747.1 1540.7 L 747.8 1535.3 L 748.6 1529.9 L 749.4 1524.4 L 750.2 1519.0 L 751.1 1513.6 L 751.1 1513.6 L 752.1 1508.1 L 753.3 1502.8 L 754.5 1497.4 L 755.8 1492.0 L 757.2 1486.7 L 758.6 1481.3 L 760.1 1476.0 L 761.6 1470.7 L 763.0 1465.4 L 764.5 1460.1 L 765.9 1454.7 L 767.3 1449.4 L 768.5 1444.1 L 769.7 1438.7 L 770.7 1433.4 L 771.7 1427.9 L 771.7 1427.9 L 772.5 1422.5 L 773.4 1417.1 L 774.3 1411.6 L 775.1 1406.2 L 775.9 1400.7 L 776.7 1395.2 L 777.3 1389.8 L 778.0 1384.3 L 778.5 1378.7 L 778.9 1373.3 L 779.2 1367.9 L 779.5 1362.3 L 779.5 1356.9 L 779.4 1351.5 L 779.3 1346.1 L 778.9 1340.6 L 778.9 1340.6 L 778.3 1335.3 L 777.6 1329.9 L 776.7 1324.5 L 775.6 1319.2 L 774.4 1313.8 L 773.1 1308.5 L 771.7 1303.2 L 770.1 1297.9 L 768.5 1292.5 L 766.9 1287.2 L 765.3 1281.9 L 763.5 1276.7 L 761.9 1271.4 L 760.3 1266.0 L 758.7 1260.8 L 757.2 1255.5 L 757.2 1255.5 L 755.6 1250.2 L 754.0 1244.9 L 752.2 1239.7 L 750.3 1234.5 L 748.5 1229.3 L 746.6 1224.1 L 744.7 1218.8 L 742.8 1213.6 L 741.0 1208.4 L 739.2 1203.1 L 737.5 1197.9 L 736.0 1192.7 L 734.6 1187.4 L 733.2 1182.1 L 732.2 1176.8 L 731.3 1171.4 L 731.3 1171.4 L 730.5 1166.0 L 730.1 1160.6 L 729.6 1155.2 L 729.3 1149.7 L 729.2 1144.2 L 729.1 1138.7 L 729.1 1133.2 L 729.2 1127.7 L 729.5 1122.2 L 729.8 1116.7 L 730.1 1111.2 L 730.5 1105.7 L 730.9 1100.1 L 731.3 1094.7 L 731.8 1089.1 L 732.3 1083.7 L 732.3 1083.7 L 732.8 1078.2 L 733.4 1072.8 L 734.2 1067.3 L 735.0 1061.9 L 735.8 1056.4 L 736.7 1051.0 L 737.7 1045.6 L 738.7 1040.2 L 739.7 1034.7 L 740.8 1029.3 L 741.8 1023.9 L 742.9 1018.5 L 743.9 1013.1 L 744.9 1007.7 L 745.9 1002.3 L 746.8 996.8 L 746.8 996.8 L 747.7 991.3 L 748.6 985.9 L 749.6 980.5 L 750.4 975.1 L 751.4 969.7 L 752.2 964.2 L 753.2 958.8 L 754.1 953.3 L 755.0 947.9 L 755.9 942.5 L 756.8 937.1 L 757.7 931.6 L 758.5 926.2 L 759.5 920.8 L 760.4 915.3 L 761.2 909.9 L 761.2 909.9 L 762.1 904.4 L 763.0 899.0 L 763.8 893.6 L 764.7 888.1 L 765.6 882.7 L 766.4 877.3 L 767.3 871.8 L 768.1 866.4 L 769.0 861.0 L 769.9 855.5 L 770.7 850.1 L 771.5 844.6 L 772.3 839.2 L 773.2 833.7 L 773.9 828.3 L 774.7 822.8 L 774.7 822.8 L 775.5 817.4 L 776.2 811.9 L 777.0 806.4 L 777.6 800.9 L 778.3 795.5 L 778.9 790.0 L 779.6 784.5 L 780.2 779.1 L 780.9 773.6 L 781.5 768.1 L 782.2 762.7 L 783.0 757.2 L 783.8 751.8 L 784.7 746.3 L 785.5 740.9 L 786.6 735.5 L 786.6 735.5 L 787.5 730.1 L 788.6 724.7 L 789.5 719.3 L 790.5 713.9 L 791.6 708.4 L 792.6 703.0 L 793.7 697.6 L 794.8 692.1 L 796.1 686.8 L 797.3 681.4 L 798.7 676.1 L 800.1 670.8 L 801.6 665.5 L 803.2 660.2 L 804.9 655.1 L 806.8 650.0 L 806.8 650.0 L 808.7 644.9 L 810.9 639.8 L 813.1 634.8 L 815.4 629.9 L 817.9 624.9 L 820.4 620.1 L 823.0 615.2 L 825.6 610.3 L 828.3 605.6 L 831.0 600.7 L 833.7 596.0 L 836.5 591.1 L 839.2 586.4 L 841.9 581.5 L 844.6 576.7 L 847.2 571.9 L 847.2 571.9 L 849.9 567.1 L 852.6 562.2 L 855.4 557.5 L 858.1 552.7 L 860.9 547.9 L 863.7 543.2 L 866.4 538.4 L 869.2 533.6 L 871.9 528.9 L 874.7 524.1 L 877.4 519.3 L 880.1 514.5 L 882.7 509.7 L 885.3 504.8 L 887.7 499.9 L 890.2 494.9 L 890.2 494.9 L 892.5 490.0 L 894.8 485.0 L 897.0 479.9 L 899.1 474.9 L 901.3 469.9 L 903.4 464.7 L 905.4 459.6 L 907.4 454.5 L 909.4 449.3 L 911.4 444.2 L 913.3 439.0 L 915.2 433.9 L 917.1 428.7 L 919.0 423.5 L 920.9 418.3 L 922.7 413.1 L 922.7 413.1 L 924.6 407.9 L 926.4 402.8 L 928.3 397.6 L 930.1 392.4 L 931.8 387.2 L 933.6 382.0 L 935.4 376.7 L 937.0 371.5 L 938.7 366.3 L 940.5 361.0 L 942.1 355.8 L 943.7 350.5 L 945.4 345.3 L 947.0 340.0 L 948.6 334.7 L 950.2 329.5 L 950.2 329.5 L 951.8 324.2 L 953.4 318.9 L 955.0 313.6 L 956.5 308.4 L 958.1 303.1 L 959.7 297.8 L 961.2 292.5 L 962.7 287.2 L 964.2 281.9 L 965.7 276.6 L 967.1 271.3 L 968.6 266.0 L 969.9 260.6 L 971.2 255.3 L 972.5 249.9 L 973.8 244.6 L 973.8 244.6 L 975.0 239.2 L 976.3 233.8 L 977.5 228.5 L 978.7 223.1 L 979.8 217.8 L 980.9 212.3 L 981.9 206.9 L 983.0 201.5 L 984.0 196.1 L 985.1 190.7 L 986.0 185.3 L 987.0 179.8 L 987.8 174.4 L 988.8 169.0 L 989.6 163.5 L 990.4 158.1 L 990.4 158.1 L 991.2 152.6 L 991.9 147.2 L 992.6 141.8 L 993.2 136.3 L 993.8 130.8 L 994.3 125.4 L 994.8 119.8 L 995.4 114.4 L 995.8 108.9 L 996.3 103.4 L 996.8 97.9 L 997.4 92.4 L 998.0 86.9 L 998.6 81.4 L 999.2 76.0 L 999.9 70.5 L 999.9 70.5 L 1000.0 69.8" fill="none" stroke="#39ff88" stroke-width="6.0" stroke-opacity="0.9"/><path d="M 904.0 0.0 L 902.5 3.4 L 900.3 8.5 L 898.0 13.5 L 895.8 18.5 L 893.5 23.5 L 891.2 28.5 L 888.9 33.6 L 888.9 33.6 L 886.5 38.5 L 884.2 43.5 L 881.8 48.5 L 879.4 53.4 L 877.0 58.4 L 874.5 63.3 L 872.1 68.2 L 869.6 73.2 L 867.1 78.1 L 864.6 83.0 L 862.2 87.9 L 859.6 92.8 L 857.1 97.7 L 854.6 102.5 L 852.1 107.5 L 849.6 112.4 L 849.6 112.4 L 847.1 117.3 L 844.6 122.2 L 842.0 127.1 L 839.4 131.9 L 836.9 136.8 L 834.4 141.7 L 831.8 146.6 L 829.2 151.4 L 826.6 156.3 L 824.1 161.2 L 821.5 166.1 L 819.0 170.9 L 816.4 175.8 L 813.9 180.7 L 811.4 185.5 L 808.8 190.5 L 808.8 190.5 L 806.3 195.4 L 803.9 200.4 L 801.4 205.3 L 798.9 210.2 L 796.5 215.1 L 794.0 220.1 L 791.6 225.0 L 789.2 229.9 L 786.7 234.8 L 784.3 239.7 L 781.9 244.7 L 779.4 249.7 L 777.1 254.6 L 774.6 259.6 L 772.2 264.5 L 769.8 269.5 L 769.8 269.5 L 767.4 274.4 L 765.0 279.4 L 762.6 284.3 L 760.3 289.3 L 757.9 294.3 L 755.5 299.3 L 753.2 304.3 L 750.8 309.2 L 748.5 314.2 L 746.1 319.2 L 743.7 324.2 L 741.3 329.1 L 738.9 334.1 L 736.4 339.0 L 733.9 343.9 L 731.4 348.8 L 731.4 348.8 L 728.9 353.6 L 726.3 358.5 L 723.7 363.3 L 721.1 368.2 L 718.5 373.1 L 715.9 377.9 L 713.2 382.7 L 710.6 387.5 L 707.8 392.4 L 705.1 397.1 L 702.4 401.9 L 699.6 406.7 L 696.9 411.4 L 694.1 416.2 L 691.3 421.0 L 688.5 425.7 L 688.5 425.7 L 685.7 430.4 L 682.8 435.1 L 679.8 439.7 L 676.8 444.3 L 673.8 448.9 L 670.7 453.5 L 667.6 458.1 L 664.6 462.6 L 661.5 467.3 L 658.4 471.8 L 655.4 476.4 L 652.5 481.1 L 649.5 485.8 L 646.6 490.5 L 643.9 495.1 L 641.2 500.0 L 641.2 500.0 L 638.5 504.7 L 636.0 509.7 L 633.3 514.5 L 630.8 519.4 L 628.4 524.3 L 625.9 529.2 L 623.5 534.2 L 621.2 539.2 L 618.8 544.1 L 616.5 549.1 L 614.3 554.2 L 612.0 559.2 L 609.9 564.3 L 607.7 569.3 L 605.6 574.4 L 603.5 579.5 L 603.5 579.5 L 601.4 584.6 L 599.4 589.7 L 597.5 594.9 L 595.6 600.0 L 593.8 605.2 L 592.0 610.4 L 590.2 615.7 L 588.4 620.8 L 586.7 626.1 L 585.0 631.3 L 583.3 636.6 L 581.6 641.8 L 579.9 647.1 L 578.2 652.3 L 576.4 657.5 L 574.7 662.7 L 574.7 662.7 L 573.0 668.0 L 571.2 673.2 L 569.5 678.4 L 567.8 683.6 L 566.1 688.9 L 564.4 694.1 L 562.7 699.4 L 561.0 704.6 L 559.3 709.8 L 557.5 715.0 L 555.9 720.3 L 554.3 725.5 L 552.5 730.8 L 550.9 736.0 L 549.2 741.3 L 547.5 746.6 L 547.5 746.6 L 545.9 751.8 L 544.2 757.1 L 542.6 762.3 L 540.9 767.5 L 539.2 772.8 L 537.6 778.0 L 535.9 783.3 L 534.3 788.5 L 532.6 793.8 L 531.0 799.1 L 529.3 804.3 L 527.7 809.6 L 526.1 814.9 L 524.5 820.1 L 522.9 825.3 L 521.3 830.7 L 521.3 830.7 L 519.7 835.9 L 518.2 841.2 L 516.6 846.4 L 515.1 851.8 L 513.5 857.1 L 512.0 862.3 L 510.4 867.6 L 508.9 872.9 L 507.4 878.2 L 505.8 883.5 L 504.4 888.8 L 502.9 894.1 L 501.4 899.4 L 499.9 904.7 L 498.5 910.0 L 497.1 915.3 L 497.1 915.3 L 495.7 920.7 L 494.3 926.0 L 492.9 931.3 L 491.6 936.7 L 490.3 942.0 L 489.0 947.3 L 487.7 952.7 L 486.4 958.1 L 485.1 963.5 L 483.9 968.8 L 482.6 974.1 L 481.3 979.5 L 480.0 984.8 L 478.8 990.2 L 477.5 995.6 L 476.2 1001.0 L 476.2 1001.0 L 474.9 1006.2 L 473.6 1011.6 L 472.4 1017.0 L 471.1 1022.4 L 469.8 1027.7 L 468.6 1033.1 L 467.3 1038.5 L 466.1 1043.8 L 464.8 1049.1 L 463.6 1054.5 L 462.3 1059.9 L 461.0 1065.2 L 459.8 1070.6 L 458.5 1076.0 L 457.2 1081.3 L 455.9 1086.6 L 455.9 1086.6 L 454.6 1092.0 L 453.3 1097.4 L 452.0 1102.7 L 450.6 1108.0 L 449.3 1113.4 L 447.9 1118.7 L 446.7 1124.1 L 445.4 1129.5 L 444.0 1134.8 L 442.7 1140.1 L 441.3 1145.4 L 440.0 1150.8 L 438.6 1156.1 L 437.3 1161.5 L 435.9 1166.9 L 434.6 1172.1 L 434.6 1172.1 L 433.3 1177.5 L 432.0 1182.8 L 430.7 1188.2 L 429.4 1193.6 L 428.0 1198.9 L 426.7 1204.2 L 425.3 1209.5 L 424.0 1214.9 L 422.7 1220.3 L 421.3 1225.6 L 420.0 1230.9 L 418.7 1236.3 L 417.4 1241.6 L 416.1 1247.0 L 414.8 1252.4 L 413.5 1257.6 L 413.5 1257.6 L 412.2 1263.0 L 410.9 1268.4 L 409.6 1273.8 L 408.3 1279.1 L 406.9 1284.4 L 405.6 1289.8 L 404.3 1295.1 L 403.0 1300.5 L 401.7 1305.8 L 400.4 1311.2 L 399.2 1316.6 L 397.9 1321.9 L 396.7 1327.3 L 395.6 1332.7 L 394.4 1338.0 L 393.4 1343.5 L 393.4 1343.5 L 392.2 1348.8 L 391.1 1354.3 L 390.0 1359.6 L 388.8 1365.1 L 387.7 1370.4 L 386.5 1375.9 L 385.5 1381.3 L 384.5 1386.7 L 383.4 1392.1 L 382.5 1397.6 L 381.6 1403.0 L 380.8 1408.5 L 380.1 1413.9 L 379.5 1419.3 L 378.9 1424.8 L 378.5 1430.2 L 378.5 1430.2 L 378.2 1435.7 L 377.9 1441.1 L 377.8 1446.6 L 377.7 1452.1 L 377.8 1457.6 L 377.9 1463.2 L 378.0 1468.6 L 378.3 1474.1 L 378.5 1479.7 L 378.9 1485.2 L 379.3 1490.6 L 379.8 1496.2 L 380.2 1501.6 L 380.8 1507.1 L 381.4 1512.5 L 382.1 1518.1 L 382.1 1518.1 L 382.7 1523.5 L 383.5 1528.9 L 384.4 1534.3 L 385.4 1539.8 L 386.3 1545.1 L 387.3 1550.5 L 388.5 1556.0 L 389.6 1561.4 L 390.8 1566.7 L 392.0 1572.2 L 393.2 1577.5 L 394.4 1582.9 L 395.7 1588.2 L 396.9 1593.6 L 398.2 1599.0 L 399.3 1604.4 L 399.3 1604.4 L 400.6 1609.9 L 402.0 1615.7 L 403.4 1621.7 L 404.9 1627.8 L 406.4 1634.0 L 408.0 1640.2 L 409.6 1646.4 L 411.1 1652.5 L 412.6 1658.4 L 414.0 1664.1 L 415.5 1669.5 L 416.7 1674.5 L 417.9 1679.2 L 419.0 1683.3 L 419.9 1686.9 L 420.6 1689.8" fill="none" stroke="#39ff88" stroke-width="6.0" stroke-opacity="0.9"/><path d="M 749.7 1654.4 L 751.0 1651.2 L 752.4 1647.5 L 754.3 1643.1 L 756.2 1638.3 L 758.3 1632.9 L 760.6 1627.3 L 763.0 1621.3 L 765.6 1615.1 L 768.1 1608.6 L 770.7 1602.1 L 773.4 1595.5 L 775.9 1589.0 L 778.5 1582.5 L 781.0 1576.2 L 783.3 1570.1 L 785.6 1564.2 L 785.6 1564.2 L 787.7 1558.6 L 789.9 1552.9 L 792.1 1547.3 L 794.2 1541.5 L 796.4 1535.8 L 798.5 1530.2 L 800.6 1524.5 L 802.7 1518.8 L 804.8 1513.1 L 806.8 1507.4 L 808.8 1501.7 L 810.8 1496.0 L 812.8 1490.2 L 814.7 1484.5 L 816.6 1478.7 L 818.5 1472.9 L 818.5 1472.9 L 820.2 1467.2 L 822.1 1461.3 L 823.9 1455.6 L 825.7 1449.7 L 827.6 1443.9 L 829.3 1438.1 L 831.1 1432.3 L 832.8 1426.4 L 834.5 1420.6 L 836.1 1414.7 L 837.6 1408.8 L 839.0 1402.9 L 840.3 1397.0 L 841.4 1391.0 L 842.5 1385.2 L 843.5 1379.3 L 843.5 1379.3 L 844.3 1373.3 L 845.0 1367.3 L 845.7 1361.3 L 846.2 1355.2 L 846.6 1349.3 L 847.0 1343.3 L 847.2 1337.1 L 847.4 1331.1 L 847.5 1325.0 L 847.6 1319.0 L 847.5 1313.0 L 847.5 1306.9 L 847.3 1300.8 L 847.2 1294.7 L 847.0 1288.7 L 846.8 1282.7 L 846.8 1282.7 L 846.4 1276.7 L 845.9 1270.6 L 845.0 1264.6 L 844.2 1258.5 L 843.1 1252.4 L 842.0 1246.3 L 840.9 1240.3 L 839.8 1234.2 L 838.8 1228.1 L 837.8 1222.1 L 837.0 1216.1 L 836.3 1210.1 L 835.9 1204.1 L 835.7 1198.1 L 835.8 1192.2 L 836.2 1186.4 L 836.2 1186.4 L 837.0 1180.5 L 838.0 1174.7 L 839.1 1168.9 L 840.5 1163.1 L 842.1 1157.3 L 843.8 1151.5 L 845.7 1145.7 L 847.8 1140.0 L 849.9 1134.3 L 852.0 1128.7 L 854.4 1123.0 L 856.8 1117.4 L 859.2 1111.8 L 861.7 1106.3 L 864.2 1100.7 L 866.8 1095.3 L 866.8 1095.3 L 869.3 1089.9 L 872.1 1084.5 L 875.0 1079.2 L 877.9 1073.9 L 881.0 1068.7 L 884.1 1063.6 L 887.4 1058.4 L 890.7 1053.3 L 893.9 1048.1 L 897.3 1043.0 L 900.6 1037.9 L 903.9 1032.8 L 907.1 1027.6 L 910.4 1022.5 L 913.5 1017.2 L 916.6 1012.0 L 916.6 1012.0 L 919.6 1006.7 L 922.6 1001.5 L 925.6 996.2 L 928.6 990.9 L 931.7 985.7 L 934.7 980.4 L 937.7 975.1 L 940.6 969.8 L 943.6 964.5 L 946.5 959.2 L 949.4 953.8 L 952.2 948.6 L 955.1 943.2 L 957.8 937.8 L 960.6 932.4 L 963.3 927.0 L 963.3 927.0 L 966.0 921.5 L 968.6 916.0 L 971.2 910.6 L 973.6 905.0 L 976.2 899.5 L 978.6 893.9 L 981.0 888.4 L 983.5 882.9 L 985.9 877.3 L 988.2 871.6 L 990.6 866.1 L 993.0 860.5 L 995.3 854.9 L 997.7 849.4 L 1000.0 843.9" fill="none" stroke="#39ff88" stroke-width="6.0" stroke-opacity="0.9"/><path d="M 1000.0 464.1 L 995.9 467.8 L 991.6 471.9 L 987.2 476.1 L 987.2 476.1 L 982.9 480.4 L 978.6 484.7 L 974.4 489.1 L 970.3 493.5 L 966.3 498.0 L 962.3 502.5 L 958.3 507.0 L 954.3 511.7 L 950.4 516.3 L 946.5 520.9 L 942.6 525.6 L 938.7 530.3 L 934.8 535.0 L 931.0 539.7 L 927.1 544.4 L 923.3 549.1 L 923.3 549.1 L 919.6 553.8 L 915.8 558.5 L 912.1 563.3 L 908.3 568.2 L 904.7 573.0 L 901.0 577.8 L 897.4 582.7 L 893.7 587.5 L 890.1 592.4 L 886.6 597.3 L 882.9 602.2 L 879.4 607.1 L 875.8 612.0 L 872.2 616.9 L 868.6 621.8 L 865.0 626.6 L 865.0 626.6 L 861.3 631.7 L 857.4 637.0 L 853.4 642.5 L 849.3 648.1 L 845.1 653.7 L 840.9 659.5 L 836.8 665.2 L 832.7 670.7 L 828.8 676.1 L 825.0 681.4 L 821.4 686.4 L 818.0 690.9 L 814.9 695.2 L 812.2 699.0 L 809.8 702.3 L 807.8 705.0" fill="none" stroke="#39ff88" stroke-width="6.0" stroke-opacity="0.9"/></g><g id="clips"><circle cx="373.5" cy="1533.6" r="2" fill="none" stroke="#0b5" stroke-width="0.6"/><circle cx="427.4" cy="2000.0" r="2" fill="none" stroke="#0b5" stroke-width="0.6"/><circle cx="1000.0" cy="1583.6" r="2" fill="none" stroke="#0b5" stroke-width="0.6"/><circle cx="1000.0" cy="69.8" r="2" fill="none" stroke="#0b5" stroke-width="0.6"/><circle cx="904.0" cy="0.0" r="2" fill="none" stroke="#0b5" stroke-width="0.6"/><circle cx="420.6" cy="1689.8" r="2" fill="none" stroke="#0b5" stroke-width="0.6"/><circle cx="749.7" cy="1654.4" r="2" fill="none" stroke="#0b5" stroke-width="0.6"/><circle cx="1000.0" cy="843.9" r="2" fill="none" stroke="#0b5" stroke-width="0.6"/><circle cx="1000.0" cy="464.1" r="2" fill="none" stroke="#0b5" stroke-width="0.6"/><circle cx="807.8" cy="705.0" r="2" fill="none" stroke="#0b5" stroke-width="0.6"/></g><g id="power"><circle cx="427.4" cy="2000.0" r="5" fill="none" stroke="#e33" stroke-width="1"/><circle cx="904.0" cy="0.0" r="5" fill="none" stroke="#e33" stroke-width="1"/><circle cx="1000.0" cy="1583.6" r="5" fill="none" stroke="#e33" stroke-width="1"/><circle cx="1000.0" cy="843.9" r="5" fill="none" stroke="#e33" stroke-width="1"/><circle cx="1000.0" cy="464.1" r="5" fill="none" stroke="#e33" stroke-width="1"/><circle cx="1000.0" cy="69.8" r="5" fill="none" stroke="#e33" stroke-width="1"/></g><g id="bridges"><circle cx="380.4" cy="1542.1" r="9" fill="none" stroke="#e6a817" stroke-width="1.5"/><circle cx="377.4" cy="1523.1" r="9" fill="none" stroke="#e6a817" stroke-width="1.5"/><circle cx="379.8" cy="1552.8" r="9" fill="none" stroke="#e6a817" stroke-width="1.5"/><circle cx="379.8" cy="1552.8" r="9" fill="none" stroke="#e6a817" stroke-width="1.5"/><circle cx="742.9" cy="1663.5" r="9" fill="none" stroke="#e6a817" stroke-width="1.5"/><circle cx="743.0" cy="1660.8" r="9" fill="none" stroke="#e6a817" stroke-width="1.5"/><circle cx="742.9" cy="1663.5" r="9" fill="none" stroke="#e6a817" stroke-width="1.5"/><circle cx="798.6" cy="712.2" r="9" fill="none" stroke="#e6a817" stroke-width="1.5"/><circle cx="800.7" cy="705.4" r="9" fill="none" stroke="#e6a817" stroke-width="1.5"/><circle cx="800.1" cy="708.1" r="9" fill="none" stroke="#e6a817" stroke-width="1.5"/></g></svg>