<svg xmlns="http://www.w3.org/2000/svg" width="2000mm" height="1000mm" viewBox="0 0 2000 1000"><g id="outline"><rect x="0" y="0" width="2000" height="1000" fill="none" stroke="#000" stroke-width="1"/></g><g id="channels"><path d="M 1067.2 1000.0 L 1067.4 997.9 L 1067.6 991.4 L 1067.6 991.4 L 1067.6 985.0 L 1067.4 978.6 L 1067.0 972.1 L 1066.4 965.6 L 1065.6 959.1 L 1064.7 952.7 L 1063.7 946.2 L 1062.5 939.7 L 1061.3 933.2 L 1060.1 926.7 L 1058.8 920.2 L 1057.4 913.8 L 1056.1 907.3 L 1054.9 900.8 L 1053.6 894.4 L 1052.5 887.9 L 1052.5 887.9 L 1051.3 881.5 L 1050.0 875.0 L 1048.6 868.6 L 1047.0 862.2 L 1045.5 855.8 L 1043.9 849.4 L 1042.3 842.9 L 1040.7 836.5 L 1039.2 830.1 L 1037.7 823.7 L 1036.4 817.3 L 1035.2 810.9 L 1034.2 804.5 L 1033.3 798.0 L 1032.7 791.6 L 1032.3 785.1 L 1032.3 785.1 L 1032.1 778.7 L 1032.2 772.2 L 1032.3 765.7 L 1032.7 759.2 L 1033.2 752.7 L 1033.8 746.2 L 1034.5 739.7 L 1035.3 733.2 L 1036.3 726.7 L 1037.3 720.2 L 1038.4 713.7 L 1039.5 707.2 L 1040.7 700.7 L 1041.9 694.3 L 1043.1 687.8 L 1044.4 681.4 L 1044.4 681.4 L 1045.7 675.0 L 1047.1 668.7 L 1048.7 662.3 L 1050.3 656.0 L 1052.0 649.6 L 1053.7 643.3 L 1055.6 637.0 L 1057.4 630.7 L 1059.3 624.4 L 1061.2 618.1 L 1063.1 611.8 L 1065.1 605.6 L 1066.9 599.3 L 1068.8 593.0 L 1070.6 586.7 L 1072.4 580.3 L 1072.4 580.3 L 1074.2 574.0 L 1075.9 567.7 L 1077.7 561.4 L 1079.4 555.1 L 1081.2 548.8 L 1082.9 542.4 L 1084.7 536.1 L 1086.4 529.8 L 1088.2 523.5 L 1089.9 517.2 L 1091.7 510.9 L 1093.4 504.5 L 1095.1 498.2 L 1096.9 491.9 L 1098.6 485.6 L 1100.3 479.2 L 1100.3 479.2 L 1102.0 472.9 L 1103.7 466.6 L 1105.4 460.3 L 1107.1 453.9 L 1108.8 447.6 L 1110.5 441.3 L 1112.2 434.9 L 1113.9 428.6 L 1115.6 422.3 L 1117.3 415.9 L 1118.9 409.6 L 1120.6 403.2 L 1122.2 396.9 L 1123.9 390.5 L 1125.5 384.2 L 1127.1 377.8 L 1127.1 377.8 L 1128.7 371.5 L 1130.2 365.1 L 1131.8 358.7 L 1133.2 352.3 L 1134.7 345.9 L 1136.1 339.5 L 1137.6 333.1 L 1139.0 326.7 L 1140.5 320.3 L 1142.0 313.9 L 1143.5 307.6 L 1145.1 301.2 L 1146.7 294.9 L 1148.4 288.5 L 1150.1 282.2 L 1152.0 275.9 L 1152.0 275.9 L 1153.8 269.7 L 1155.7 263.4 L 1157.5 257.1 L 1159.4 250.8 L 1161.3 244.5 L 1163.2 238.2 L 1165.2 231.9 L 1167.2 225.6 L 1169.3 219.4 L 1171.5 213.2 L 1173.7 207.1 L 1176.1 201.0 L 1178.5 194.9 L 1181.1 188.9 L 1183.7 183.0 L 1186.6 177.2 L 1186.6 177.2 L 1189.5 171.4 L 1192.7 165.7 L 1195.9 160.0 L 1199.3 154.5 L 1202.8 148.9 L 1206.4 143.5 L 1210.1 138.0 L 1213.8 132.6 L 1217.6 127.3 L 1221.4 121.9 L 1225.2 116.6 L 1229.1 111.2 L 1232.9 105.9 L 1236.7 100.5 L 1240.5 95.1 L 1244.2 89.8 L 1244.2 89.8 L 1248.0 84.4 L 1251.7 79.0 L 1255.6 73.7 L 1259.4 68.4 L 1263.3 63.1 L 1267.2 57.8 L 1271.1 52.5 L 1275.0 47.2 L 1278.8 41.9 L 1282.7 36.6 L 1286.5 31.3 L 1290.3 25.9 L 1293.9 20.5 L 1297.6 15.1 L 1301.1 9.6 L 1304.6 4.0 L 1304.6 4.0 L 1307.0 0.0" fill="none" stroke="#39ff88" stroke-width="6.0" stroke-opacity="0.9"/><path d="M 995.0 0.0 L 994.5 0.7 L 991.0 6.2 L 987.5 11.7 L 984.0 17.3 L 980.6 22.9 L 977.2 28.5 L 973.9 34.1 L 970.6 39.8 L 967.3 45.5 L 964.1 51.2 L 960.9 56.9 L 957.8 62.7 L 954.7 68.4 L 954.7 68.4 L 951.6 74.2 L 948.6 80.0 L 945.7 85.9 L 942.8 91.8 L 940.0 97.7 L 937.2 103.6 L 934.4 109.6 L 931.7 115.5 L 929.0 121.5 L 926.3 127.5 L 923.6 133.5 L 921.0 139.5 L 918.3 145.5 L 915.6 151.5 L 912.9 157.4 L 910.2 163.4 L 910.2 163.4 L 907.5 169.4 L 904.8 175.4 L 902.1 181.3 L 899.4 187.3 L 896.8 193.3 L 894.1 199.3 L 891.4 205.3 L 888.8 211.3 L 886.1 217.2 L 883.4 223.2 L 880.8 229.2 L 878.2 235.2 L 875.5 241.2 L 872.9 247.2 L 870.3 253.3 L 867.6 259.3 L 867.6 259.3 L 865.0 265.3 L 862.4 271.3 L 859.8 277.3 L 857.1 283.3 L 854.5 289.3 L 851.9 295.3 L 849.3 301.3 L 846.7 307.3 L 844.1 313.3 L 841.5 319.4 L 838.9 325.4 L 836.3 331.4 L 833.8 337.5 L 831.2 343.5 L 828.7 349.5 L 826.1 355.6 L 826.1 355.6 L 823.6 361.6 L 821.1 367.7 L 818.6 373.7 L 816.1 379.8 L 813.6 385.9 L 811.1 391.9 L 808.6 398.0 L 806.1 404.1 L 803.7 410.1 L 801.2 416.2 L 798.8 422.3 L 796.4 428.4 L 794.0 434.5 L 791.6 440.6 L 789.2 446.7 L 786.9 452.8 L 786.9 452.8 L 784.6 459.0 L 782.3 465.1 L 780.0 471.2 L 777.7 477.4 L 775.5 483.6 L 773.3 489.7 L 771.1 495.9 L 768.9 502.1 L 766.7 508.3 L 764.6 514.5 L 762.4 520.6 L 760.2 526.8 L 758.0 533.0 L 755.9 539.2 L 753.7 545.4 L 751.5 551.6 L 751.5 551.6 L 749.3 557.7 L 747.1 563.9 L 745.0 570.1 L 742.8 576.3 L 740.6 582.5 L 738.5 588.7 L 736.3 594.9 L 734.2 601.1 L 732.0 607.2 L 729.9 613.4 L 727.7 619.6 L 725.5 625.8 L 723.4 632.0 L 721.2 638.2 L 719.0 644.4 L 716.8 650.5 L 716.8 650.5 L 714.6 656.7 L 712.4 662.9 L 710.2 669.0 L 707.9 675.2 L 705.7 681.4 L 703.4 687.5 L 701.2 693.7 L 699.0 699.9 L 696.7 706.0 L 694.5 712.2 L 692.2 718.3 L 690.0 724.5 L 687.7 730.6 L 685.5 736.8 L 683.2 743.0 L 681.0 749.1 L 681.0 749.1 L 678.8 755.3 L 676.5 761.4 L 674.3 767.6 L 672.1 773.8 L 669.8 779.9 L 667.6 786.1 L 665.3 792.2 L 663.1 798.4 L 660.9 804.6 L 658.6 810.7 L 656.4 816.9 L 654.2 823.1 L 651.9 829.2 L 649.7 835.4 L 647.5 841.6 L 645.3 847.7 L 645.3 847.7 L 643.1 853.9 L 640.9 860.1 L 638.7 866.3 L 636.5 872.4 L 634.2 878.6 L 632.0 884.8 L 629.8 890.9 L 627.6 897.1 L 625.4 903.3 L 623.2 909.5 L 621.1 915.7 L 618.9 921.9 L 616.8 928.1 L 614.8 934.3 L 612.7 940.5 L 610.8 946.8 L 610.8 946.8 L 608.8 953.0 L 606.8 959.3 L 604.8 965.5 L 602.7 971.8 L 600.7 978.0 L 598.7 984.3 L 596.8 990.6 L 594.9 996.9 L 594.0 1000.0" fill="none" stroke="#39ff88" stroke-width="6.0" stroke-opacity="0.9"/><path d="M 1148.3 1000.0 L 1148.9 995.8 L 1149.9 988.7 L 1150.8 981.5 L 1151.6 974.4 L 1152.3 967.2 L 1153.0 960.0 L 1153.6 952.8 L 1154.2 945.6 L 1154.7 938.4 L 1155.2 931.3 L 1155.2 931.3 L 1155.5 924.1 L 1155.6 916.9 L 1155.4 909.6 L 1155.1 902.3 L 1154.6 895.0 L 1154.1 887.6 L 1153.5 880.3 L 1153.0 873.0 L 1152.5 865.7 L 1152.1 858.4 L 1151.9 851.2 L 1151.8 844.0 L 1152.1 836.9 L 1152.6 829.8 L 1153.4 822.8 L 1154.7 815.9 L 1154.7 815.9 L 1156.3 809.1 L 1158.2 802.3 L 1160.3 795.6 L 1162.7 788.9 L 1165.3 782.2 L 1168.0 775.6 L 1171.0 769.0 L 1174.1 762.5 L 1177.3 756.0 L 1180.6 749.6 L 1184.1 743.2 L 1187.6 736.8 L 1191.2 730.5 L 1194.8 724.3 L 1198.5 718.0 L 1202.2 711.9 L 1202.2 711.9 L 1205.9 705.8 L 1209.8 699.8 L 1213.9 693.9 L 1218.0 688.0 L 1222.3 682.2 L 1226.7 676.5 L 1231.2 670.8 L 1235.7 665.1 L 1240.2 659.4 L 1244.8 653.8 L 1249.4 648.1 L 1253.9 642.5 L 1258.4 636.8 L 1262.9 631.1 L 1267.2 625.3 L 1271.5 619.5 L 1271.5 619.5 L 1275.7 613.6 L 1280.0 607.8 L 1284.2 601.9 L 1288.4 596.0 L 1292.7 590.2 L 1296.9 584.3 L 1301.1 578.4 L 1305.2 572.5 L 1309.4 566.6 L 1313.5 560.7 L 1317.6 554.7 L 1321.6 548.8 L 1325.7 542.8 L 1329.6 536.7 L 1333.6 530.7 L 1337.4 524.6 L 1337.4 524.6 L 1341.3 518.5 L 1345.0 512.3 L 1348.8 506.2 L 1352.4 499.9 L 1356.1 493.7 L 1359.7 487.4 L 1363.2 481.2 L 1366.8 474.9 L 1370.3 468.6 L 1373.8 462.2 L 1377.3 455.9 L 1380.8 449.6 L 1384.3 443.3 L 1387.8 437.0 L 1391.3 430.6 L 1394.8 424.3 L 1394.8 424.3 L 1398.3 418.0 L 1401.8 411.7 L 1405.3 405.4 L 1408.7 399.0 L 1412.1 392.7 L 1415.6 386.3 L 1419.0 379.9 L 1422.4 373.6 L 1425.8 367.2 L 1429.3 360.9 L 1432.7 354.5 L 1436.2 348.2 L 1439.7 341.9 L 1443.2 335.6 L 1446.7 329.3 L 1450.3 323.0 L 1450.3 323.0 L 1453.9 316.7 L 1457.5 310.4 L 1461.0 304.1 L 1464.5 297.8 L 1468.1 291.4 L 1471.6 285.1 L 1475.2 278.8 L 1478.8 272.5 L 1482.4 266.3 L 1486.1 260.1 L 1489.9 253.9 L 1493.7 247.8 L 1497.6 241.7 L 1501.6 235.7 L 1505.7 229.9 L 1509.9 224.0 L 1509.9 224.0 L 1514.2 218.3 L 1518.6 212.6 L 1523.0 206.9 L 1527.5 201.2 L 1532.1 195.6 L 1536.7 190.1 L 1541.4 184.6 L 1546.1 179.1 L 1550.9 173.8 L 1555.9 168.5 L 1560.8 163.3 L 1565.9 158.1 L 1571.0 153.1 L 1576.2 148.2 L 1581.5 143.3 L 1586.9 138.6 L 1586.9 138.6 L 1592.4 134.0 L 1598.0 129.6 L 1603.8 125.4 L 1609.7 121.3 L 1615.7 117.3 L 1621.8 113.4 L 1628.0 109.6 L 1634.2 105.8 L 1640.4 102.1 L 1646.6 98.3 L 1652.8 94.6 L 1659.0 90.8 L 1665.2 86.9 L 1671.3 83.0 L 1677.2 78.9 L 1683.1 74.8 L 1683.1 74.8 L 1689.0 70.5 L 1694.8 66.3 L 1700.6 62.0 L 1706.4 57.7 L 1712.2 53.3 L 1717.9 48.9 L 1723.6 44.5 L 1729.3 40.1 L 1735.0 35.6 L 1740.6 31.1 L 1746.2 26.6 L 1751.8 22.0 L 1757.3 17.3 L 1762.8 12.6 L 1768.2 7.9 L 1773.6 3.1 L 1773.6 3.1 L 1777.0 0.0" fill="none" stroke="#39ff88" stroke-width="6.0" stroke-opacity="0.9"/><path d="M 1414.1 0.0 L 1410.6 2.9 L 1405.1 7.6 L 1399.7 12.3 L 1394.3 17.1 L 1389.0 21.9 L 1383.7 26.8 L 1378.4 31.8 L 1373.2 36.8 L 1368.0 41.8 L 1362.8 46.8 L 1357.6 51.9 L 1352.5 57.0 L 1347.4 62.1 L 1342.2 67.2 L 1337.1 72.3 L 1337.1 72.3 L 1332.1 77.4 L 1327.0 82.5 L 1322.0 87.7 L 1317.0 93.0 L 1312.1 98.2 L 1307.1 103.5 L 1302.2 108.8 L 1297.3 114.1 L 1292.4 119.4 L 1287.6 124.8 L 1282.7 130.1 L 1277.9 135.5 L 1273.0 140.8 L 1268.1 146.2 L 1263.3 151.5 L 1258.4 156.8 L 1258.4 156.8 L 1253.4 162.3 L 1248.1 168.1 L 1242.7 174.1 L 1237.1 180.2 L 1231.5 186.4 L 1225.8 192.7 L 1220.2 198.9 L 1214.7 205.0 L 1209.4 210.9 L 1204.2 216.6 L 1199.4 222.1 L 1194.8 227.1 L 1190.6 231.8 L 1186.9 235.9 L 1183.6 239.5 L 1180.9 242.5" fill="none" stroke="#39ff88" stroke-width="6.0" stroke-opacity="0.9"/></g><g id="clips"><circle cx="1067.2" cy="1000.0" r="2" fill="none" stroke="#0b5" stroke-width="0.6"/><circle cx="1307.0" cy="0.0" r="2" fill="none" stroke="#0b5" stroke-width="0.6"/><circle cx="995.0" cy="0.0" r="2" fill="none" stroke="#0b5" stroke-width="0.6"/><circle cx="594.0" cy="1000.0" r="2" fill="none" stroke="#0b5" stroke-width="0.6"/><circle cx="1148.3" cy="1000.0" r="2" fill="none" stroke="#0b5" stroke-width="0.6"/><circle cx="1777.0" cy="0.0" r="2" fill="none" stroke="#0b5" stroke-width="0.6"/><circle cx="1414.1" cy="0.0" r="2" fill="none" stroke="#0b5" stroke-width="0.6"/><circle cx="1180.9" cy="242.5" r="2" fill="none" stroke="#0b5" stroke-width="0.6"/></g><g id="power"><circle cx="1067.2" cy="1000.0" r="5" fill="none" stroke="#e33" stroke-width="1"/><circle cx="1307.1" cy="0.0" r="5" fill="none" stroke="#e33" stroke-width="1"/><circle cx="995.0" cy="0.0" r="5" fill="none" stroke="#e33" stroke-width="1"/><circle cx="594.0" cy="1000.0" r="5" fill="none" stroke="#e33" stroke-width="1"/><circle cx="1148.3" cy="1000.0" r="5" fill="none" stroke="#e33" stroke-width="1"/><circle cx="1777.1" cy="0.0" r="5" fill="none" stroke="#e33" stroke-width="1"/><circle cx="1414.2" cy="0.0" r="5" fill="none" stroke="#e33" stroke-width="1"/></g></svg>