<svg xmlns="http://www.w3.org/2000/svg" width="2000mm" height="1000mm" viewBox="0 0 2000 1000"><g id="outline"><rect x="0" y="0" width="2000" height="1000" fill="none" stroke="#000" stroke-width="1"/></g><g id="channels"><path d="M 1640.7 405.4 L 1638.3 402.8 L 1635.3 399.7 L 1631.9 396.1 L 1628.1 392.1 L 1624.0 387.7 L 1619.6 383.0 L 1614.9 378.1 L 1610.1 372.9 L 1605.1 367.7 L 1599.9 362.3 L 1594.8 357.0 L 1589.6 351.7 L 1584.4 346.5 L 1579.3 341.5 L 1574.3 336.7 L 1569.5 332.2 L 1569.5 332.2 L 1564.7 327.9 L 1559.9 323.7 L 1555.0 319.6 L 1550.0 315.5 L 1544.9 311.5 L 1539.8 307.5 L 1534.7 303.5 L 1529.6 299.6 L 1524.5 295.6 L 1519.4 291.6 L 1514.4 287.6 L 1509.3 283.5 L 1504.4 279.4 L 1499.5 275.2 L 1494.7 270.9 L 1490.0 266.5 L 1490.0 266.5 L 1485.3 262.0 L 1480.8 257.5 L 1476.2 252.9 L 1471.8 248.2 L 1467.4 243.5 L 1463.0 238.7 L 1458.6 233.9 L 1454.3 229.1 L 1450.0 224.3 L 1445.8 219.4 L 1441.5 214.5 L 1437.3 209.6 L 1433.1 204.7 L 1428.9 199.8 L 1424.6 194.9 L 1420.4 190.1 L 1420.4 190.1 L 1416.2 185.2 L 1411.9 180.3 L 1407.6 175.5 L 1403.3 170.6 L 1399.1 165.8 L 1394.8 160.9 L 1390.5 156.0 L 1386.3 151.1 L 1382.1 146.2 L 1378.0 141.2 L 1373.9 136.2 L 1369.9 131.2 L 1365.9 126.1 L 1362.0 121.0 L 1358.2 115.8 L 1354.5 110.5 L 1354.5 110.5 L 1350.9 105.2 L 1347.3 99.9 L 1343.8 94.5 L 1340.4 89.0 L 1337.0 83.5 L 1333.7 77.9 L 1330.4 72.4 L 1327.2 66.8 L 1324.1 61.1 L 1320.9 55.4 L 1317.9 49.7 L 1314.8 44.0 L 1311.8 38.3 L 1308.9 32.6 L 1305.9 26.8 L 1303.0 21.1 L 1303.0 21.1 L 1300.1 15.3 L 1297.3 9.5 L 1294.6 3.7 L 1292.9 0.0" fill="none" stroke="#00e5ff" stroke-width="6.0" stroke-opacity="0.9"/><path d="M 443.6 0.0 L 446.7 4.7 L 450.2 10.0 L 453.8 15.2 L 457.4 20.4 L 461.0 25.6 L 464.8 30.7 L 468.5 35.7 L 472.3 40.8 L 476.2 45.7 L 476.2 45.7 L 480.2 50.6 L 484.2 55.5 L 488.2 60.3 L 492.4 65.1 L 496.6 69.8 L 500.8 74.5 L 505.1 79.2 L 509.4 83.8 L 513.8 88.4 L 518.2 93.0 L 522.6 97.5 L 527.0 102.1 L 531.4 106.6 L 535.9 111.1 L 540.3 115.6 L 544.8 120.0 L 544.8 120.0 L 549.3 124.5 L 553.8 128.9 L 558.3 133.3 L 562.9 137.7 L 567.5 142.1 L 572.1 146.4 L 576.7 150.7 L 581.4 155.0 L 586.0 159.3 L 590.7 163.5 L 595.4 167.8 L 600.1 172.0 L 604.8 176.3 L 609.5 180.5 L 614.1 184.8 L 618.8 189.0 L 618.8 189.0 L 623.5 193.3 L 628.3 197.4 L 633.1 201.6 L 637.9 205.7 L 642.7 209.8 L 647.5 213.9 L 652.4 218.0 L 657.2 222.1 L 662.0 226.2 L 666.8 230.4 L 671.6 234.5 L 676.3 238.8 L 680.9 243.0 L 685.5 247.4 L 690.0 251.7 L 694.5 256.2 L 694.5 256.2 L 698.9 260.7 L 703.3 265.3 L 707.7 269.8 L 712.0 274.4 L 716.4 279.1 L 720.7 283.8 L 724.9 288.5 L 729.1 293.2 L 733.3 298.0 L 737.3 302.9 L 741.3 307.8 L 745.2 312.8 L 748.9 317.8 L 752.6 322.9 L 756.1 328.1 L 759.5 333.4 L 759.5 333.4 L 762.8 338.7 L 765.9 344.1 L 769.0 349.6 L 771.9 355.2 L 774.7 360.8 L 777.5 366.5 L 780.1 372.3 L 782.7 378.1 L 785.2 383.9 L 787.6 389.8 L 789.9 395.7 L 792.2 401.6 L 794.4 407.6 L 796.6 413.5 L 798.7 419.5 L 800.8 425.4 L 800.8 425.4 L 802.8 431.4 L 804.7 437.4 L 806.4 443.4 L 808.1 449.5 L 809.7 455.6 L 811.2 461.8 L 812.7 467.9 L 814.1 474.1 L 815.5 480.3 L 816.9 486.5 L 818.2 492.7 L 819.6 498.9 L 821.0 505.1 L 822.3 511.3 L 823.8 517.4 L 825.2 523.6 L 825.2 523.6 L 826.7 529.8 L 828.0 536.0 L 829.2 542.3 L 830.4 548.6 L 831.6 554.9 L 832.7 561.3 L 833.8 567.6 L 835.0 573.9 L 836.3 580.2 L 837.6 586.4 L 839.0 592.6 L 840.5 598.7 L 842.2 604.7 L 844.1 610.6 L 846.2 616.4 L 848.4 622.1 L 848.4 622.1 L 850.9 627.7 L 853.3 633.5 L 855.9 639.3 L 858.6 645.1 L 861.3 650.9 L 864.2 656.7 L 867.2 662.3 L 870.4 667.9 L 873.7 673.2 L 877.1 678.4 L 880.7 683.3 L 884.5 687.9 L 888.5 692.2 L 892.8 696.2 L 897.2 699.7 L 901.9 702.9 L 901.9 702.9 L 907.0 705.5 L 912.8 707.7 L 919.1 709.5 L 925.9 711.0 L 932.9 712.1 L 940.2 712.9 L 947.6 713.5 L 955.0 713.9 L 962.3 714.1 L 969.4 714.2 L 976.2 714.3 L 982.5 714.3 L 988.3 714.3 L 993.5 714.3 L 998.0 714.5 L 1001.5 714.8" fill="none" stroke="#00e5ff" stroke-width="6.0" stroke-opacity="0.9"/><path d="M 1020.4 696.6 L 1021.2 693.9 L 1022.4 690.7 L 1023.9 687.0 L 1025.6 683.0 L 1027.5 678.5 L 1029.5 673.8 L 1031.5 668.8 L 1033.5 663.5 L 1035.3 658.1 L 1037.1 652.5 L 1038.6 646.7 L 1039.8 641.0 L 1040.7 635.2 L 1041.2 629.4 L 1041.1 623.7 L 1040.6 618.1 L 1040.6 618.1 L 1039.4 612.5 L 1037.7 606.8 L 1035.6 601.0 L 1033.0 595.1 L 1030.0 589.1 L 1026.8 583.0 L 1023.3 576.8 L 1019.7 570.6 L 1016.0 564.3 L 1012.3 558.0 L 1008.6 551.7 L 1005.0 545.3 L 1001.6 538.9 L 998.4 532.5 L 995.5 526.1 L 993.0 519.7 L 993.0 519.7 L 990.8 513.3 L 988.8 506.7 L 987.0 500.1 L 985.4 493.4 L 983.9 486.7 L 982.5 479.9 L 981.1 473.2 L 979.8 466.4 L 978.5 459.6 L 977.1 452.9 L 975.6 446.2 L 974.0 439.5 L 972.2 433.0 L 970.3 426.5 L 968.1 420.2 L 965.7 413.9 L 965.7 413.9 L 963.0 407.8 L 960.3 401.7 L 957.4 395.6 L 954.5 389.6 L 951.4 383.6 L 948.2 377.7 L 944.9 371.9 L 941.5 366.1 L 938.0 360.3 L 934.4 354.7 L 930.6 349.1 L 926.8 343.7 L 922.8 338.3 L 918.7 333.0 L 914.5 327.8 L 910.2 322.8 L 910.2 322.8 L 905.7 317.9 L 900.9 313.2 L 895.9 308.7 L 890.6 304.4 L 885.2 300.2 L 879.7 296.2 L 874.0 292.1 L 868.4 288.1 L 862.7 284.2 L 857.0 280.1 L 851.4 276.1 L 845.9 271.9 L 840.6 267.6 L 835.4 263.1 L 830.4 258.5 L 825.7 253.6 L 825.7 253.6 L 821.3 248.6 L 816.9 243.4 L 812.7 238.1 L 808.5 232.7 L 804.5 227.2 L 800.6 221.6 L 796.7 216.0 L 793.0 210.2 L 789.3 204.5 L 785.6 198.6 L 782.0 192.8 L 778.5 186.9 L 774.9 181.0 L 771.4 175.1 L 767.9 169.2 L 764.4 163.4 L 764.4 163.4 L 761.0 157.5 L 757.6 151.6 L 754.2 145.6 L 750.9 139.6 L 747.7 133.6 L 744.5 127.6 L 741.4 121.5 L 738.2 115.4 L 735.1 109.3 L 732.1 103.2 L 729.0 97.0 L 726.0 90.9 L 722.9 84.8 L 719.9 78.6 L 716.9 72.5 L 713.8 66.4 L 713.8 66.4 L 710.8 60.3 L 707.7 54.2 L 704.7 48.0 L 701.7 41.9 L 698.7 35.7 L 695.7 29.6 L 692.8 23.4 L 689.8 17.2 L 686.9 11.1 L 684.0 4.9 L 681.6 0.0" fill="none" stroke="#00e5ff" stroke-width="6.0" stroke-opacity="0.9"/><path d="M 1107.5 0.0 L 1111.4 3.2 L 1116.7 7.6 L 1121.9 12.1 L 1127.1 16.6 L 1132.3 21.1 L 1137.4 25.7 L 1142.4 30.4 L 1147.4 35.1 L 1152.2 40.0 L 1156.9 44.9 L 1161.5 49.9 L 1165.9 55.0 L 1170.1 60.2 L 1174.2 65.6 L 1174.2 65.6 L 1178.0 71.1 L 1181.7 76.7 L 1185.2 82.5 L 1188.5 88.4 L 1191.7 94.4 L 1194.7 100.4 L 1197.7 106.6 L 1200.6 112.8 L 1203.3 119.1 L 1206.1 125.4 L 1208.8 131.7 L 1211.5 138.1 L 1214.2 144.4 L 1216.9 150.7 L 1219.6 157.0 L 1222.4 163.2 L 1222.4 163.2 L 1225.1 169.5 L 1227.7 175.8 L 1230.1 182.3 L 1232.5 188.7 L 1234.8 195.3 L 1237.0 201.8 L 1239.3 208.3 L 1241.6 214.9 L 1243.9 221.3 L 1246.3 227.7 L 1248.9 234.1 L 1251.5 240.3 L 1254.4 246.4 L 1257.5 252.4 L 1260.8 258.2 L 1264.4 263.9 L 1264.4 263.9 L 1268.2 269.3 L 1272.4 274.6 L 1276.7 279.7 L 1281.3 284.7 L 1286.1 289.5 L 1291.0 294.2 L 1296.0 298.9 L 1301.1 303.5 L 1306.3 308.1 L 1311.5 312.6 L 1316.7 317.2 L 1321.8 321.8 L 1326.9 326.4 L 1331.9 331.1 L 1336.8 335.9 L 1341.6 340.8 L 1341.6 340.8 L 1346.2 345.8 L 1350.8 350.8 L 1355.3 355.9 L 1359.9 361.0 L 1364.4 366.1 L 1368.9 371.2 L 1373.3 376.4 L 1377.8 381.6 L 1382.2 386.8 L 1386.6 391.9 L 1391.1 397.1 L 1395.5 402.3 L 1399.9 407.5 L 1404.4 412.7 L 1408.8 417.9 L 1413.3 423.0 L 1413.3 423.0 L 1417.7 428.3 L 1422.1 433.7 L 1426.5 439.2 L 1430.7 444.8 L 1435.0 450.4 L 1439.3 456.1 L 1443.6 461.8 L 1447.9 467.3 L 1452.2 472.8 L 1456.6 478.2 L 1461.1 483.4 L 1465.6 488.3 L 1470.3 493.1 L 1475.0 497.5 L 1479.9 501.6 L 1485.0 505.4 L 1485.0 505.4 L 1490.3 509.0 L 1495.8 512.6 L 1501.6 516.2 L 1507.5 519.8 L 1513.6 523.2 L 1519.8 526.5 L 1526.0 529.5 L 1532.3 532.2 L 1538.5 534.6 L 1544.6 536.6 L 1550.6 538.1 L 1556.5 539.2 L 1562.1 539.7 L 1567.5 539.5 L 1572.7 538.7 L 1577.4 537.2 L 1577.4 537.2 L 1582.0 534.7 L 1586.5 531.0 L 1590.8 526.3 L 1595.1 520.7 L 1599.2 514.5 L 1603.2 507.7 L 1607.0 500.5 L 1610.6 493.1 L 1614.1 485.6 L 1617.4 478.2 L 1620.4 471.1 L 1623.3 464.4 L 1625.9 458.3 L 1628.3 452.9 L 1630.4 448.4 L 1632.2 444.9" fill="none" stroke="#00e5ff" stroke-width="6.0" stroke-opacity="0.9"/></g><g id="clips"><circle cx="1640.7" cy="405.4" r="2" fill="none" stroke="#0b5" stroke-width="0.6"/><circle cx="1292.9" cy="0.0" r="2" fill="none" stroke="#0b5" stroke-width="0.6"/><circle cx="443.6" cy="0.0" r="2" fill="none" stroke="#0b5" stroke-width="0.6"/><circle cx="1001.5" cy="714.8" r="2" fill="none" stroke="#0b5" stroke-width="0.6"/><circle cx="1020.4" cy="696.6" r="2" fill="none" stroke="#0b5" stroke-width="0.6"/><circle cx="681.6" cy="0.0" r="2" fill="none" stroke="#0b5" stroke-width="0.6"/><circle cx="1107.5" cy="0.0" r="2" fill="none" stroke="#0b5" stroke-width="0.6"/><circle cx="1632.2" cy="444.9" r="2" fill="none" stroke="#0b5" stroke-width="0.6"/></g><g id="power"><circle cx="443.6" cy="0.0" r="5" fill="none" stroke="#e33" stroke-width="1"/><circle cx="681.6" cy="0.0" r="5" fill="none" stroke="#e33" stroke-width="1"/><circle cx="1107.5" cy="0.0" r="5" fill="none" stroke="#e33" stroke-width="1"/><circle cx="1292.9" cy="0.0" r="5" fill="none" stroke="#e33" stroke-width="1"/></g><g id="bridges"></g></svg>