<svg xmlns="http://www.w3.org/2000/svg" width="2000mm" height="1000mm" viewBox="0 0 2000 1000"><g id="outline"><rect x="0" y="0" width="2000" height="1000" fill="none" stroke="#000" stroke-width="1"/></g><g id="channels"><path d="M 827.6 1000.0 L 825.6 996.4 L 822.5 990.8 L 819.4 985.1 L 816.3 979.4 L 813.2 973.8 L 810.0 968.2 L 806.8 962.6 L 803.6 957.0 L 803.6 957.0 L 800.3 951.4 L 796.9 945.9 L 793.5 940.5 L 790.0 935.0 L 786.4 929.6 L 782.9 924.2 L 779.3 918.8 L 775.7 913.4 L 772.1 908.0 L 768.6 902.6 L 765.1 897.2 L 761.6 891.7 L 758.2 886.2 L 754.9 880.7 L 751.7 875.1 L 748.6 869.5 L 748.6 869.5 L 745.5 863.8 L 742.6 858.1 L 739.7 852.3 L 736.9 846.5 L 734.2 840.7 L 731.5 834.8 L 728.9 828.9 L 726.3 823.0 L 723.7 817.1 L 721.1 811.2 L 718.5 805.2 L 715.9 799.3 L 713.4 793.4 L 710.7 787.5 L 708.1 781.6 L 705.4 775.8 L 705.4 775.8 L 702.7 769.9 L 700.1 764.0 L 697.5 758.1 L 695.0 752.1 L 692.4 746.2 L 689.9 740.2 L 687.3 734.3 L 684.8 728.3 L 682.2 722.4 L 679.5 716.5 L 676.8 710.7 L 674.0 704.9 L 671.1 699.1 L 668.1 693.4 L 665.0 687.8 L 661.8 682.2 L 661.8 682.2 L 658.5 676.8 L 655.0 671.4 L 651.4 666.0 L 647.8 660.7 L 644.0 655.5 L 640.2 650.3 L 636.3 645.1 L 632.4 640.0 L 628.4 634.9 L 624.4 629.8 L 620.3 624.7 L 616.3 619.7 L 612.2 614.6 L 608.2 609.6 L 604.1 604.5 L 600.1 599.4 L 600.1 599.4 L 596.1 594.4 L 592.1 589.3 L 588.0 584.3 L 583.9 579.3 L 579.8 574.4 L 575.6 569.4 L 571.5 564.5 L 567.3 559.5 L 563.2 554.6 L 559.0 549.6 L 554.8 544.7 L 550.7 539.7 L 546.6 534.7 L 542.5 529.7 L 538.5 524.7 L 534.5 519.6 L 534.5 519.6 L 530.5 514.6 L 526.4 509.5 L 522.4 504.5 L 518.4 499.4 L 514.3 494.3 L 510.3 489.3 L 506.3 484.2 L 502.3 479.1 L 498.4 473.9 L 494.5 468.8 L 490.6 463.6 L 486.8 458.4 L 483.1 453.1 L 479.5 447.8 L 475.9 442.4 L 472.5 437.0 L 472.5 437.0 L 469.1 431.6 L 465.7 426.0 L 462.4 420.5 L 459.2 414.9 L 456.0 409.3 L 452.9 403.6 L 449.9 397.9 L 446.9 392.2 L 443.9 386.4 L 441.1 380.6 L 438.3 374.8 L 435.5 368.9 L 432.8 363.1 L 430.2 357.2 L 427.7 351.3 L 425.2 345.3 L 425.2 345.3 L 422.8 339.3 L 420.6 333.3 L 418.5 327.2 L 416.4 321.1 L 414.5 315.0 L 412.6 308.8 L 410.8 302.6 L 409.0 296.4 L 407.2 290.2 L 405.5 283.9 L 403.8 277.7 L 402.0 271.5 L 400.2 265.2 L 398.4 259.0 L 396.5 252.9 L 394.5 246.7 L 394.5 246.7 L 392.5 240.6 L 390.5 234.4 L 388.6 228.3 L 386.6 222.1 L 384.6 216.0 L 382.7 209.8 L 380.7 203.6 L 378.7 197.5 L 376.6 191.4 L 374.5 185.3 L 372.4 179.2 L 370.2 173.1 L 368.0 167.1 L 365.7 161.0 L 363.4 155.0 L 360.9 149.1 L 360.9 149.1 L 358.3 143.2 L 355.5 137.3 L 352.6 131.5 L 349.6 125.8 L 346.4 120.0 L 343.2 114.3 L 340.0 108.6 L 336.8 102.9 L 333.6 97.2 L 330.5 91.5 L 327.5 85.8 L 324.5 80.1 L 321.8 74.3 L 319.2 68.4 L 316.9 62.6 L 314.8 56.6 L 314.8 56.6 L 312.8 50.4 L 310.6 43.7 L 308.4 36.6 L 306.2 29.2 L 304.1 21.7 L 302.0 14.2 L 300.1 6.6 L 298.6 0.0" fill="none" stroke="#00e5ff" stroke-width="6.0" stroke-opacity="0.9"/><path d="M 390.5 0.0 L 391.2 0.6 L 395.6 4.9 L 399.9 9.5 L 404.1 14.3 L 408.3 19.3 L 412.4 24.4 L 416.4 29.6 L 420.5 34.9 L 424.5 40.3 L 428.5 45.7 L 432.5 51.0 L 436.6 56.3 L 440.8 61.4 L 445.0 66.5 L 449.3 71.4 L 449.3 71.4 L 453.6 76.1 L 458.0 80.9 L 462.4 85.6 L 466.9 90.3 L 471.3 94.9 L 475.8 99.6 L 480.3 104.2 L 484.8 108.8 L 489.3 113.5 L 493.8 118.1 L 498.3 122.7 L 502.8 127.3 L 507.4 131.9 L 511.8 136.6 L 516.3 141.2 L 520.8 145.9 L 520.8 145.9 L 525.3 150.6 L 529.8 155.2 L 534.4 159.8 L 538.9 164.3 L 543.6 168.9 L 548.2 173.4 L 552.8 178.0 L 557.3 182.6 L 561.9 187.2 L 566.4 191.8 L 570.8 196.5 L 575.2 201.3 L 579.4 206.1 L 583.6 211.0 L 587.6 216.0 L 591.6 221.0 L 591.6 221.0 L 595.4 226.2 L 599.1 231.4 L 602.7 236.8 L 606.2 242.2 L 609.6 247.6 L 613.0 253.1 L 616.3 258.7 L 619.5 264.3 L 622.7 269.9 L 625.9 275.5 L 629.0 281.2 L 632.1 286.9 L 635.2 292.6 L 638.2 298.3 L 641.3 304.0 L 644.3 309.7 L 644.3 309.7 L 647.4 315.4 L 650.3 321.1 L 653.3 326.9 L 656.1 332.7 L 658.9 338.5 L 661.7 344.3 L 664.5 350.1 L 667.2 356.0 L 670.0 361.8 L 672.7 367.7 L 675.5 373.5 L 678.3 379.4 L 681.1 385.2 L 683.9 391.0 L 686.8 396.8 L 689.8 402.5 L 689.8 402.5 L 692.8 408.2 L 695.8 413.9 L 698.9 419.6 L 702.1 425.2 L 705.2 430.9 L 708.4 436.5 L 711.5 442.1 L 714.7 447.7 L 717.9 453.3 L 721.1 459.0 L 724.3 464.6 L 727.5 470.2 L 730.7 475.8 L 733.9 481.4 L 737.0 487.1 L 740.1 492.7 L 740.1 492.7 L 743.3 498.4 L 746.5 504.0 L 749.8 509.6 L 753.1 515.2 L 756.5 520.8 L 759.9 526.4 L 763.2 532.0 L 766.5 537.6 L 769.7 543.2 L 772.9 548.9 L 776.0 554.6 L 778.9 560.3 L 781.7 566.1 L 784.3 571.9 L 786.8 577.8 L 789.0 583.7 L 789.0 583.7 L 791.1 589.7 L 793.0 595.8 L 794.9 602.0 L 796.6 608.2 L 798.2 614.4 L 799.7 620.7 L 801.1 627.0 L 802.4 633.3 L 803.5 639.7 L 804.6 646.0 L 805.5 652.4 L 806.3 658.8 L 806.9 665.2 L 807.5 671.6 L 807.9 678.0 L 808.2 684.3 L 808.2 684.3 L 808.2 690.8 L 807.8 697.4 L 807.1 704.1 L 806.2 710.9 L 805.0 717.8 L 803.7 724.7 L 802.4 731.5 L 801.0 738.4 L 799.6 745.1 L 798.3 751.7 L 797.2 758.2 L 796.4 764.4 L 795.8 770.5 L 795.5 776.3 L 795.7 781.8 L 796.3 787.0 L 796.3 787.0 L 797.3 791.8 L 798.8 796.2 L 800.5 800.2 L 802.6 804.0 L 804.9 807.6 L 807.5 810.9 L 810.2 814.1 L 813.0 817.2 L 816.0 820.3 L 819.0 823.4 L 822.0 826.5 L 824.9 829.7 L 827.8 833.0 L 830.6 836.5 L 833.2 840.3 L 835.6 844.3 L 835.6 844.3 L 838.0 848.7 L 840.2 853.4 L 842.5 858.4 L 844.8 863.6 L 847.0 869.0 L 849.2 874.4 L 851.4 879.9 L 853.6 885.4 L 855.7 890.8 L 857.9 896.0 L 860.0 901.1 L 862.1 905.9 L 864.2 910.4 L 866.2 914.6 L 868.2 918.3 L 870.3 921.5 L 870.3 921.5 L 872.2 924.3 L 874.1 926.6 L 876.0 928.5 L 877.8 930.0 L 879.5 931.3 L 881.2 932.3 L 883.0 933.1 L 884.7 933.7 L 886.4 934.3 L 888.2 934.8 L 889.9 935.3 L 891.8 935.9 L 893.7 936.6 L 895.7 937.5 L 897.7 938.5 L 899.9 939.9 L 899.9 939.9 L 902.1 941.5 L 904.5 943.5 L 907.0 945.6 L 909.5 948.0 L 912.1 950.5 L 914.7 953.0 L 917.4 955.5 L 920.1 958.0 L 922.9 960.4 L 925.6 962.6 L 928.2 964.5 L 930.9 966.2 L 933.5 967.5 L 936.0 968.4 L 938.4 968.8 L 940.7 968.7 L 940.7 968.7 L 943.0 968.0 L 945.2 966.6 L 947.3 964.7 L 949.3 962.3 L 951.4 959.6 L 953.4 956.5 L 955.3 953.2 L 957.3 949.8 L 959.2 946.3 L 961.1 942.8 L 963.0 939.5 L 964.9 936.4 L 966.9 933.5 L 968.8 931.1 L 970.8 929.0 L 972.8 927.5 L 972.8 927.5 L 975.0 926.7 L 977.3 926.4 L 979.8 926.7 L 982.4 927.5 L 985.0 928.5 L 987.7 929.7 L 990.3 931.1 L 992.9 932.4 L 995.3 933.6 L 997.7 934.6 L 999.8 935.3 L 1001.7 935.5 L 1003.3 935.2 L 1004.6 934.3 L 1005.5 932.6 L 1006.0 930.0 L 1006.0 930.0 L 1006.1 926.5 L 1005.9 922.3 L 1005.4 917.4 L 1004.7 912.0 L 1003.6 906.0 L 1002.4 899.6 L 1000.9 892.9 L 999.3 885.9 L 997.5 878.7 L 995.5 871.4 L 993.5 864.1 L 991.4 856.8 L 989.2 849.7 L 987.0 842.8 L 984.7 836.2 L 982.5 830.0 L 982.5 830.0 L 980.2 824.0 L 977.6 818.2 L 974.9 812.3 L 972.0 806.6 L 969.0 800.9 L 965.9 795.2 L 962.8 789.5 L 959.6 783.9 L 956.3 778.3 L 953.1 772.6 L 949.9 767.0 L 946.7 761.3 L 943.6 755.6 L 940.7 749.8 L 937.8 744.0 L 935.2 738.1 L 935.2 738.1 L 932.7 732.2 L 930.3 726.2 L 927.9 720.2 L 925.7 714.2 L 923.5 708.1 L 921.4 702.0 L 919.3 695.9 L 917.2 689.8 L 915.2 683.7 L 913.1 677.5 L 911.1 671.4 L 909.0 665.3 L 906.9 659.2 L 904.7 653.1 L 902.5 647.0 L 900.2 641.0 L 900.2 641.0 L 897.9 635.0 L 895.5 629.0 L 893.1 623.0 L 890.6 617.0 L 888.2 611.1 L 885.7 605.1 L 883.2 599.2 L 880.7 593.2 L 878.1 587.3 L 875.6 581.3 L 873.1 575.4 L 870.6 569.4 L 868.1 563.5 L 865.6 557.5 L 863.1 551.6 L 860.7 545.6 L 860.7 545.6 L 858.2 539.6 L 855.8 533.6 L 853.4 527.6 L 851.0 521.6 L 848.6 515.6 L 846.2 509.6 L 843.8 503.6 L 841.4 497.6 L 839.0 491.6 L 836.6 485.6 L 834.2 479.6 L 831.8 473.7 L 829.4 467.7 L 827.0 461.7 L 824.6 455.7 L 822.2 449.7 L 822.2 449.7 L 819.7 443.7 L 817.3 437.7 L 814.9 431.7 L 812.5 425.8 L 810.0 419.8 L 807.6 413.8 L 805.2 407.8 L 802.7 401.8 L 800.3 395.9 L 797.8 389.9 L 795.4 383.9 L 792.9 377.9 L 790.4 372.0 L 787.9 366.0 L 785.4 360.1 L 782.9 354.1 L 782.9 354.1 L 780.4 348.2 L 777.8 342.2 L 775.3 336.3 L 772.8 330.4 L 770.2 324.4 L 767.6 318.5 L 765.1 312.6 L 762.5 306.6 L 759.9 300.7 L 757.3 294.8 L 754.7 288.9 L 752.1 283.0 L 749.5 277.1 L 746.8 271.2 L 744.2 265.3 L 741.5 259.4 L 741.5 259.4 L 738.9 253.5 L 736.2 247.6 L 733.6 241.7 L 731.0 235.8 L 728.4 229.9 L 725.7 224.0 L 723.1 218.1 L 720.4 212.2 L 717.7 206.3 L 715.0 200.5 L 712.3 194.6 L 709.5 188.8 L 706.6 183.0 L 703.7 177.3 L 700.7 171.5 L 697.7 165.9 L 697.7 165.9 L 694.6 160.2 L 691.4 154.6 L 688.2 149.0 L 684.9 143.5 L 681.6 137.9 L 678.2 132.4 L 674.8 126.9 L 671.4 121.5 L 667.9 116.0 L 664.4 110.6 L 660.8 105.2 L 657.3 99.8 L 653.7 94.4 L 650.1 89.0 L 646.5 83.7 L 642.8 78.3 L 642.8 78.3 L 639.2 73.0 L 635.5 67.7 L 631.7 62.5 L 628.0 57.3 L 624.1 52.1 L 620.3 46.9 L 616.4 41.7 L 612.5 36.5 L 608.6 31.4 L 604.7 26.2 L 600.8 21.1 L 596.9 15.9 L 593.0 10.8 L 589.2 5.6 L 585.3 0.4 L 585.0 0.0" fill="none" stroke="#00e5ff" stroke-width="6.0" stroke-opacity="0.9"/><path d="M 0.0 587.9 L 1.2 593.6 L 2.5 599.8 L 3.8 606.0 L 5.0 612.2 L 6.3 618.4 L 7.6 624.6 L 8.8 630.8 L 10.1 637.0 L 11.4 643.2 L 11.4 643.2 L 12.8 649.3 L 14.1 655.5 L 15.4 661.7 L 16.7 667.9 L 18.0 674.1 L 19.2 680.3 L 20.5 686.5 L 21.8 692.7 L 23.1 698.9 L 24.5 705.1 L 25.8 711.2 L 27.1 717.4 L 28.5 723.6 L 29.9 729.8 L 31.3 735.9 L 32.7 742.1 L 32.7 742.1 L 34.2 748.2 L 35.7 754.4 L 37.3 760.5 L 38.9 766.6 L 40.5 772.7 L 42.1 778.8 L 43.8 785.0 L 45.4 791.1 L 47.1 797.2 L 48.7 803.3 L 50.3 809.4 L 51.9 815.5 L 53.5 821.6 L 55.0 827.8 L 56.5 833.9 L 57.9 840.1 L 57.9 840.1 L 59.3 846.2 L 60.7 852.4 L 62.1 858.6 L 63.4 864.8 L 64.7 870.9 L 66.0 877.1 L 67.3 883.3 L 68.6 889.5 L 69.8 895.7 L 71.0 901.9 L 72.2 908.1 L 73.4 914.4 L 74.6 920.6 L 75.7 926.8 L 76.8 933.0 L 77.9 939.2 L 77.9 939.2 L 79.0 945.5 L 80.0 951.7 L 81.0 958.0 L 81.9 964.2 L 82.8 970.5 L 83.6 976.8 L 84.5 983.0 L 85.3 989.3 L 86.2 995.6 L 86.8 1000.0" fill="none" stroke="#00e5ff" stroke-width="6.0" stroke-opacity="0.9"/><path d="M 361.2 1000.0 L 361.0 997.1 L 360.4 990.3 L 360.4 990.3 L 359.7 983.3 L 358.7 976.2 L 357.7 968.8 L 356.5 961.4 L 355.2 953.9 L 353.9 946.3 L 352.7 938.8 L 351.6 931.4 L 350.6 924.1 L 349.8 917.0 L 349.3 910.2 L 349.0 903.6 L 349.1 897.4 L 349.6 891.5 L 350.6 886.1 L 352.0 881.2 L 352.0 881.2 L 354.0 876.6 L 356.4 872.2 L 359.3 867.9 L 362.6 863.8 L 366.1 859.9 L 370.0 856.2 L 374.1 852.9 L 378.5 849.9 L 383.0 847.3 L 387.6 845.0 L 392.3 843.3 L 397.0 841.9 L 401.7 841.1 L 406.4 840.9 L 410.9 841.2 L 415.3 842.1 L 415.3 842.1 L 419.7 843.8 L 424.2 846.3 L 428.9 849.5 L 433.6 853.3 L 438.3 857.7 L 443.2 862.7 L 448.0 868.0 L 452.9 873.6 L 457.8 879.5 L 462.6 885.6 L 467.4 891.7 L 472.2 897.9 L 476.9 904.0 L 481.6 910.0 L 486.1 915.7 L 490.5 921.1 L 490.5 921.1 L 494.8 926.4 L 499.1 931.7 L 503.3 937.1 L 507.4 942.5 L 511.5 948.0 L 515.5 953.5 L 519.5 959.0 L 523.5 964.6 L 527.4 970.2 L 531.4 975.8 L 535.2 981.5 L 539.1 987.1 L 543.0 992.8 L 546.8 998.5 L 547.8 1000.0" fill="none" stroke="#00e5ff" stroke-width="6.0" stroke-opacity="0.9"/></g><g id="clips"><circle cx="827.6" cy="1000.0" r="2" fill="none" stroke="#0b5" stroke-width="0.6"/><circle cx="298.6" cy="0.0" r="2" fill="none" stroke="#0b5" stroke-width="0.6"/><circle cx="390.5" cy="0.0" r="2" fill="none" stroke="#0b5" stroke-width="0.6"/><circle cx="585.0" cy="0.0" r="2" fill="none" stroke="#0b5" stroke-width="0.6"/><circle cx="0.0" cy="587.9" r="2" fill="none" stroke="#0b5" stroke-width="0.6"/><circle cx="86.8" cy="1000.0" r="2" fill="none" stroke="#0b5" stroke-width="0.6"/><circle cx="361.2" cy="1000.0" r="2" fill="none" stroke="#0b5" stroke-width="0.6"/><circle cx="547.8" cy="1000.0" r="2" fill="none" stroke="#0b5" stroke-width="0.6"/></g><g id="power"><circle cx="0.0" cy="587.6" r="5" fill="none" stroke="#e33" stroke-width="1"/><circle cx="827.5" cy="1000.0" r="5" fill="none" stroke="#e33" stroke-width="1"/><circle cx="86.8" cy="1000.0" r="5" fill="none" stroke="#e33" stroke-width="1"/><circle cx="361.2" cy="1000.0" r="5" fill="none" stroke="#e33" stroke-width="1"/><circle cx="547.8" cy="1000.0" r="5" fill="none" stroke="#e33" stroke-width="1"/><circle cx="298.6" cy="0.0" r="5" fill="none" stroke="#e33" stroke-width="1"/><circle cx="390.5" cy="0.0" r="5" fill="none" stroke="#e33" stroke-width="1"/><circle cx="585.0" cy="0.0" r="5" fill="none" stroke="#e33" stroke-width="1"/></g></svg>