<svg xmlns="http://www.w3.org/2000/svg" width="2000mm" height="1000mm" viewBox="0 0 2000 1000"><g id="outline"><rect x="0" y="0" width="2000" height="1000" fill="none" stroke="#000" stroke-width="1"/></g><g id="channels"><path d="M 1971.1 65.4 L 1969.9 66.8 L 1968.6 68.6 L 1967.0 70.7 L 1965.3 73.0 L 1963.5 75.6 L 1961.5 78.3 L 1959.3 81.2 L 1957.1 84.1 L 1954.8 87.1 L 1952.4 90.0 L 1949.9 92.9 L 1947.4 95.7 L 1944.8 98.4 L 1942.2 100.8 L 1939.7 103.0 L 1937.1 105.0 L 1937.1 105.0 L 1934.4 106.8 L 1931.7 108.5 L 1928.8 110.2 L 1925.9 111.8 L 1922.9 113.4 L 1919.8 114.9 L 1916.7 116.3 L 1913.5 117.6 L 1910.4 118.8 L 1907.2 119.8 L 1904.0 120.7 L 1900.8 121.4 L 1897.7 122.0 L 1894.6 122.3 L 1891.6 122.5 L 1888.6 122.5 L 1888.6 122.5 L 1885.6 122.1 L 1882.5 121.4 L 1879.3 120.4 L 1876.0 119.1 L 1872.7 117.6 L 1869.4 115.9 L 1866.1 114.1 L 1862.9 112.2 L 1859.8 110.3 L 1856.8 108.4 L 1854.0 106.5 L 1851.4 104.8 L 1848.9 103.2 L 1846.8 101.8 L 1844.9 100.6 L 1843.3 99.7" fill="none" stroke="#2b6bff" stroke-width="6.0" stroke-opacity="0.9"/><path d="M 1794.0 87.4 L 1790.5 85.4 L 1786.2 83.1 L 1781.1 80.5 L 1775.5 77.6 L 1769.2 74.6 L 1762.6 71.2 L 1755.7 67.7 L 1748.6 63.9 L 1741.3 60.0 L 1734.1 55.8 L 1727.1 51.5 L 1720.2 47.0 L 1713.7 42.4 L 1707.7 37.6 L 1702.2 32.7 L 1697.4 27.7 L 1697.4 27.7 L 1693.0 22.5 L 1688.8 17.0 L 1684.8 11.3 L 1681.0 5.3 L 1677.8 0.0" fill="none" stroke="#2b6bff" stroke-width="6.0" stroke-opacity="0.9"/></g><g id="clips"><circle cx="1971.1" cy="65.4" r="2" fill="none" stroke="#0b5" stroke-width="0.6"/><circle cx="1843.3" cy="99.7" r="2" fill="none" stroke="#0b5" stroke-width="0.6"/><circle cx="1794.0" cy="87.4" r="2" fill="none" stroke="#0b5" stroke-width="0.6"/><circle cx="1677.8" cy="0.0" r="2" fill="none" stroke="#0b5" stroke-width="0.6"/></g><g id="power"><circle cx="1677.8" cy="0.0" r="5" fill="none" stroke="#e33" stroke-width="1"/></g><g id="bridges"></g></svg>