<svg xmlns="http://www.w3.org/2000/svg" width="2000mm" height="1000mm" viewBox="0 0 2000 1000"><g id="outline"><rect x="0" y="0" width="2000" height="1000" fill="none" stroke="#000" stroke-width="1"/></g><g id="channels"><path d="M 1307.0 1000.0 L 1308.0 998.4 L 1311.3 992.8 L 1314.5 987.1 L 1317.7 981.4 L 1320.9 975.7 L 1324.0 969.9 L 1327.0 964.1 L 1330.0 958.3 L 1333.0 952.4 L 1336.0 946.6 L 1338.9 940.7 L 1341.8 934.8 L 1344.7 928.9 L 1347.6 923.0 L 1350.5 917.1 L 1353.3 911.2 L 1353.3 911.2 L 1356.2 905.3 L 1359.0 899.4 L 1361.8 893.5 L 1364.6 887.6 L 1367.3 881.6 L 1370.1 875.7 L 1372.8 869.7 L 1375.4 863.7 L 1378.1 857.7 L 1380.8 851.7 L 1383.4 845.7 L 1386.0 839.7 L 1388.6 833.7 L 1391.2 827.6 L 1393.7 821.6 L 1396.3 815.6 L 1396.3 815.6 L 1398.8 809.5 L 1401.4 803.5 L 1403.9 797.4 L 1406.4 791.4 L 1408.9 785.3 L 1411.4 779.2 L 1413.9 773.2 L 1416.3 767.1 L 1418.8 761.0 L 1421.2 754.9 L 1423.5 748.8 L 1425.9 742.7 L 1428.2 736.5 L 1430.4 730.4 L 1432.6 724.2 L 1434.8 718.0 L 1434.8 718.0 L 1436.9 711.8 L 1439.1 705.6 L 1441.1 699.4 L 1443.2 693.2 L 1445.2 687.0 L 1447.2 680.7 L 1449.1 674.4 L 1451.0 668.2 L 1452.9 661.9 L 1454.8 655.6 L 1456.6 649.3 L 1458.4 643.0 L 1460.1 636.7 L 1461.9 630.4 L 1463.6 624.0 L 1465.2 617.7 L 1465.2 617.7 L 1466.8 611.3 L 1468.3 605.0 L 1469.8 598.6 L 1471.2 592.2 L 1472.6 585.8 L 1473.9 579.4 L 1475.2 572.9 L 1476.5 566.5 L 1477.7 560.1 L 1479.0 553.6 L 1480.3 547.2 L 1481.6 540.8 L 1483.0 534.3 L 1484.4 527.9 L 1485.8 521.6 L 1487.3 515.2 L 1487.3 515.2 L 1488.9 508.8 L 1490.3 502.4 L 1491.8 496.0 L 1493.2 489.5 L 1494.6 483.0 L 1496.0 476.6 L 1497.5 470.2 L 1499.0 463.7 L 1500.6 457.3 L 1502.3 451.0 L 1504.0 444.7 L 1505.9 438.4 L 1507.9 432.2 L 1510.1 426.1 L 1512.4 420.1 L 1515.0 414.1 L 1515.0 414.1 L 1517.7 408.3 L 1520.6 402.5 L 1523.7 396.8 L 1526.9 391.2 L 1530.3 385.7 L 1533.8 380.2 L 1537.4 374.7 L 1541.1 369.3 L 1544.9 363.9 L 1548.6 358.6 L 1552.5 353.2 L 1556.3 347.9 L 1560.1 342.6 L 1563.9 337.2 L 1567.7 331.9 L 1571.4 326.5 L 1571.4 326.5 L 1575.1 321.2 L 1578.9 315.9 L 1582.9 310.7 L 1586.9 305.5 L 1591.0 300.3 L 1595.1 295.2 L 1599.2 290.1 L 1603.3 284.9 L 1607.4 279.8 L 1611.3 274.6 L 1615.2 269.3 L 1618.9 264.0 L 1622.4 258.6 L 1625.8 253.1 L 1629.0 247.5 L 1631.9 241.7 L 1631.9 241.7 L 1634.6 235.9 L 1636.9 229.8 L 1639.0 223.7 L 1640.8 217.4 L 1642.5 211.0 L 1644.0 204.6 L 1645.5 198.1 L 1646.9 191.6 L 1648.3 185.1 L 1649.7 178.6 L 1651.2 172.2 L 1652.8 165.8 L 1654.5 159.4 L 1656.5 153.2 L 1658.7 147.1 L 1661.1 141.1 L 1661.1 141.1 L 1663.8 135.2 L 1666.6 129.3 L 1669.5 123.5 L 1672.5 117.7 L 1675.5 111.9 L 1678.7 106.2 L 1682.0 100.5 L 1685.4 94.9 L 1688.9 89.4 L 1692.4 83.9 L 1696.1 78.5 L 1699.9 73.2 L 1703.7 67.9 L 1707.7 62.8 L 1711.7 57.7 L 1715.9 52.8 L 1715.9 52.8 L 1720.3 48.0 L 1725.0 43.4 L 1730.0 39.0 L 1735.3 34.7 L 1740.7 30.5 L 1746.3 26.5 L 1751.9 22.4 L 1757.5 18.5 L 1763.0 14.5 L 1768.5 10.5 L 1773.7 6.4 L 1778.8 2.3 L 1781.4 0.0" fill="none" stroke="#39ff88" stroke-width="6.0" stroke-opacity="0.9"/><path d="M 1550.9 0.0 L 1548.7 4.7 L 1546.0 10.7 L 1543.4 16.7 L 1540.7 22.7 L 1538.1 28.7 L 1535.5 34.8 L 1533.0 40.8 L 1530.5 46.9 L 1528.0 53.0 L 1525.5 59.1 L 1523.1 65.2 L 1520.7 71.3 L 1520.7 71.3 L 1518.3 77.4 L 1516.0 83.5 L 1513.7 89.6 L 1511.4 95.8 L 1509.2 101.9 L 1507.0 108.1 L 1504.8 114.3 L 1502.7 120.5 L 1500.6 126.7 L 1498.5 132.9 L 1496.4 139.1 L 1494.3 145.4 L 1492.2 151.6 L 1490.1 157.8 L 1488.1 164.0 L 1486.0 170.2 L 1486.0 170.2 L 1483.9 176.4 L 1481.9 182.7 L 1479.9 188.9 L 1477.9 195.2 L 1476.0 201.5 L 1474.1 207.7 L 1472.2 214.0 L 1470.2 220.3 L 1468.3 226.5 L 1466.3 232.8 L 1464.3 239.0 L 1462.3 245.3 L 1460.2 251.5 L 1458.1 257.7 L 1455.8 263.8 L 1453.6 270.0 L 1453.6 270.0 L 1451.2 276.1 L 1448.8 282.2 L 1446.4 288.2 L 1443.9 294.3 L 1441.4 300.4 L 1438.9 306.4 L 1436.3 312.4 L 1433.7 318.5 L 1431.0 324.5 L 1428.4 330.4 L 1425.6 336.4 L 1422.9 342.3 L 1420.1 348.3 L 1417.3 354.2 L 1414.4 360.1 L 1411.5 365.9 L 1411.5 365.9 L 1408.6 371.8 L 1405.6 377.6 L 1402.6 383.4 L 1399.5 389.2 L 1396.4 395.0 L 1393.2 400.8 L 1390.1 406.5 L 1386.9 412.2 L 1383.6 417.9 L 1380.4 423.6 L 1377.1 429.3 L 1373.8 435.0 L 1370.5 440.6 L 1367.2 446.3 L 1363.8 451.9 L 1360.5 457.6 L 1360.5 457.6 L 1357.1 463.2 L 1353.7 468.8 L 1350.3 474.4 L 1346.8 479.9 L 1343.3 485.5 L 1339.8 491.0 L 1336.3 496.5 L 1332.7 502.1 L 1329.2 507.6 L 1325.6 513.1 L 1322.1 518.6 L 1318.5 524.1 L 1314.9 529.6 L 1311.3 535.0 L 1307.7 540.5 L 1304.2 546.0 L 1304.2 546.0 L 1300.6 551.5 L 1297.0 557.0 L 1293.4 562.5 L 1289.7 567.9 L 1286.1 573.4 L 1282.5 578.8 L 1278.8 584.3 L 1275.2 589.7 L 1271.5 595.2 L 1267.9 600.6 L 1264.2 606.1 L 1260.6 611.5 L 1257.0 617.0 L 1253.4 622.5 L 1249.8 627.9 L 1246.2 633.4 L 1246.2 633.4 L 1242.6 638.9 L 1239.1 644.5 L 1235.6 650.0 L 1232.0 655.5 L 1228.5 661.0 L 1225.0 666.6 L 1221.5 672.1 L 1218.0 677.7 L 1214.5 683.2 L 1211.0 688.7 L 1207.5 694.3 L 1204.0 699.9 L 1200.6 705.4 L 1197.1 711.0 L 1193.6 716.5 L 1190.1 722.1 L 1190.1 722.1 L 1186.7 727.6 L 1183.2 733.2 L 1179.8 738.8 L 1176.4 744.4 L 1173.0 750.0 L 1169.5 755.6 L 1166.1 761.2 L 1162.7 766.8 L 1159.3 772.4 L 1155.9 778.0 L 1152.4 783.6 L 1149.0 789.1 L 1145.5 794.7 L 1142.0 800.2 L 1138.4 805.7 L 1134.8 811.2 L 1134.8 811.2 L 1131.2 816.6 L 1127.5 822.1 L 1123.9 827.5 L 1120.2 832.9 L 1116.5 838.4 L 1112.8 843.7 L 1109.0 849.1 L 1105.3 854.5 L 1101.5 859.9 L 1097.7 865.2 L 1093.9 870.5 L 1090.0 875.8 L 1086.2 881.1 L 1082.3 886.4 L 1078.4 891.7 L 1074.5 896.9 L 1074.5 896.9 L 1070.5 902.1 L 1066.5 907.3 L 1062.4 912.4 L 1058.3 917.5 L 1054.1 922.6 L 1049.9 927.6 L 1045.7 932.7 L 1041.5 937.7 L 1037.3 942.8 L 1033.1 947.8 L 1028.9 952.9 L 1024.9 958.0 L 1020.8 963.2 L 1016.8 968.4 L 1013.0 973.6 L 1009.2 979.0 L 1009.2 979.0 L 1005.4 984.3 L 1001.8 989.8 L 998.1 995.2 L 995.0 1000.0" fill="none" stroke="#39ff88" stroke-width="6.0" stroke-opacity="0.9"/><path d="M 1777.0 1000.0 L 1778.9 998.3 L 1784.2 993.3 L 1789.3 988.3 L 1794.5 983.2 L 1799.5 978.1 L 1804.5 972.9 L 1809.5 967.7 L 1814.5 962.4 L 1819.5 957.2 L 1824.4 951.9 L 1829.4 946.6 L 1834.4 941.4 L 1839.4 936.1 L 1844.4 931.0 L 1849.5 925.8 L 1854.6 920.7 L 1854.6 920.7 L 1859.7 915.7 L 1864.9 910.6 L 1870.0 905.5 L 1875.2 900.4 L 1880.3 895.4 L 1885.5 890.3 L 1890.7 885.3 L 1895.9 880.2 L 1901.1 875.2 L 1906.3 870.3 L 1911.6 865.3 L 1916.9 860.4 L 1922.2 855.5 L 1927.6 850.7 L 1933.0 845.9 L 1938.4 841.2 L 1938.4 841.2 L 1943.9 836.5 L 1949.3 831.7 L 1954.7 826.9 L 1960.2 822.0 L 1965.7 817.2 L 1971.2 812.4 L 1976.7 807.6 L 1982.3 802.9 L 1987.9 798.3 L 1993.6 793.8 L 1999.3 789.5 L 2000.0 789.0" fill="none" stroke="#39ff88" stroke-width="6.0" stroke-opacity="0.9"/><path d="M 2000.0 623.9 L 1999.4 624.3 L 1993.4 628.4 L 1987.5 632.5 L 1981.6 636.7 L 1975.7 640.8 L 1969.8 645.0 L 1963.9 649.1 L 1958.0 653.2 L 1952.0 657.4 L 1946.1 661.5 L 1940.1 665.5 L 1934.1 669.6 L 1928.1 673.6 L 1922.1 677.6 L 1916.1 681.5 L 1910.0 685.4 L 1910.0 685.4 L 1903.9 689.3 L 1897.8 693.1 L 1891.7 696.9 L 1885.5 700.7 L 1879.3 704.4 L 1873.1 708.2 L 1866.9 711.9 L 1860.7 715.5 L 1854.5 719.2 L 1848.2 722.8 L 1842.0 726.5 L 1835.8 730.1 L 1829.5 733.7 L 1823.3 737.4 L 1817.0 741.0 L 1810.8 744.7 L 1810.8 744.7 L 1804.6 748.3 L 1798.3 751.9 L 1792.1 755.5 L 1785.8 759.1 L 1779.5 762.7 L 1773.2 766.2 L 1766.9 769.8 L 1760.6 773.4 L 1754.4 776.9 L 1748.1 780.5 L 1741.8 784.1 L 1735.6 787.7 L 1729.3 791.4 L 1723.1 795.0 L 1716.9 798.7 L 1710.8 802.5 L 1710.8 802.5 L 1704.6 806.3 L 1698.5 810.1 L 1692.4 814.0 L 1686.3 817.8 L 1680.2 821.7 L 1674.2 825.7 L 1668.1 829.6 L 1662.1 833.6 L 1656.1 837.6 L 1650.0 841.5 L 1644.0 845.5 L 1638.0 849.5 L 1632.0 853.5 L 1625.9 857.5 L 1619.9 861.4 L 1613.9 865.4 L 1613.9 865.4 L 1607.8 869.3 L 1601.8 873.3 L 1595.7 877.2 L 1589.7 881.2 L 1583.6 885.2 L 1577.6 889.1 L 1571.6 893.1 L 1565.5 897.0 L 1559.5 901.0 L 1553.5 905.0 L 1547.4 909.0 L 1541.4 913.0 L 1535.4 916.9 L 1529.4 920.9 L 1523.4 924.9 L 1517.4 928.9 L 1517.4 928.9 L 1511.3 932.9 L 1505.3 936.9 L 1499.2 940.8 L 1493.2 944.7 L 1487.1 948.7 L 1481.0 952.6 L 1474.9 956.5 L 1468.8 960.4 L 1462.8 964.4 L 1456.8 968.4 L 1450.8 972.5 L 1444.9 976.6 L 1439.0 980.7 L 1433.2 985.0 L 1427.5 989.3 L 1421.8 993.8 L 1421.8 993.8 L 1416.2 998.3 L 1414.1 1000.0" fill="none" stroke="#39ff88" stroke-width="6.0" stroke-opacity="0.9"/></g><g id="clips"><circle cx="1307.0" cy="1000.0" r="2" fill="none" stroke="#0b5" stroke-width="0.6"/><circle cx="1781.4" cy="0.0" r="2" fill="none" stroke="#0b5" stroke-width="0.6"/><circle cx="1550.9" cy="0.0" r="2" fill="none" stroke="#0b5" stroke-width="0.6"/><circle cx="995.0" cy="1000.0" r="2" fill="none" stroke="#0b5" stroke-width="0.6"/><circle cx="1777.0" cy="1000.0" r="2" fill="none" stroke="#0b5" stroke-width="0.6"/><circle cx="2000.0" cy="789.0" r="2" fill="none" stroke="#0b5" stroke-width="0.6"/><circle cx="2000.0" cy="623.9" r="2" fill="none" stroke="#0b5" stroke-width="0.6"/><circle cx="1414.1" cy="1000.0" r="2" fill="none" stroke="#0b5" stroke-width="0.6"/></g><g id="power"><circle cx="1307.1" cy="1000.0" r="5" fill="none" stroke="#e33" stroke-width="1"/><circle cx="1781.4" cy="0.0" r="5" fill="none" stroke="#e33" stroke-width="1"/><circle cx="1551.0" cy="0.0" r="5" fill="none" stroke="#e33" stroke-width="1"/><circle cx="995.0" cy="1000.0" r="5" fill="none" stroke="#e33" stroke-width="1"/><circle cx="1777.1" cy="1000.0" r="5" fill="none" stroke="#e33" stroke-width="1"/><circle cx="2000.0" cy="789.0" r="5" fill="none" stroke="#e33" stroke-width="1"/><circle cx="2000.0" cy="623.9" r="5" fill="none" stroke="#e33" stroke-width="1"/><circle cx="1414.2" cy="1000.0" r="5" fill="none" stroke="#e33" stroke-width="1"/></g></svg>