<svg xmlns="http://www.w3.org/2000/svg" width="1000mm" height="2000mm" viewBox="0 0 1000 2000"><g id="outline"><rect x="0" y="0" width="1000" height="2000" fill="none" stroke="#000" stroke-width="1"/></g><g id="channels"><path d="M 1000.0 545.3 L 997.2 540.8 L 994.1 535.9 L 990.9 531.1 L 987.5 526.5 L 983.9 522.1 L 980.2 517.9 L 976.2 514.0 L 976.2 514.0 L 972.0 510.2 L 967.6 506.7 L 963.1 503.3 L 958.4 500.0 L 953.6 496.9 L 948.7 493.9 L 943.7 491.0 L 938.6 488.2 L 933.5 485.4 L 928.2 482.7 L 923.0 480.1 L 917.7 477.6 L 912.5 475.0 L 907.2 472.5 L 902.0 470.0 L 896.8 467.5 L 896.8 467.5 L 891.7 465.0 L 886.4 462.6 L 881.2 460.3 L 875.9 458.0 L 870.5 455.8 L 865.2 453.7 L 859.9 451.5 L 854.5 449.5 L 849.0 447.4 L 843.7 445.4 L 838.2 443.3 L 832.8 441.3 L 827.4 439.3 L 821.9 437.4 L 816.5 435.4 L 811.1 433.3 L 811.1 433.3 L 805.7 431.2 L 800.3 429.3 L 794.9 427.4 L 789.4 425.4 L 783.9 423.6 L 778.5 421.7 L 773.0 419.8 L 767.6 418.0 L 762.1 416.1 L 756.6 414.2 L 751.2 412.3 L 745.8 410.3 L 740.3 408.3 L 735.0 406.3 L 729.6 404.2 L 724.3 402.0 L 724.3 402.0 L 718.9 399.8 L 713.6 397.6 L 708.3 395.3 L 703.0 393.0 L 697.7 390.7 L 692.5 388.3 L 687.2 386.0 L 682.0 383.5 L 676.7 381.1 L 671.5 378.6 L 666.4 376.1 L 661.2 373.4 L 656.1 370.8 L 651.0 368.2 L 645.8 365.6 L 640.8 362.8 L 640.8 362.8 L 635.8 360.0 L 630.7 357.2 L 625.8 354.4 L 620.7 351.4 L 615.8 348.5 L 610.8 345.6 L 605.9 342.5 L 601.0 339.5 L 596.1 336.4 L 591.2 333.3 L 586.4 330.1 L 581.6 327.0 L 576.8 323.8 L 572.0 320.5 L 567.2 317.3 L 562.4 314.1 L 562.4 314.1 L 557.6 310.8 L 552.8 307.6 L 547.8 304.4 L 542.9 301.2 L 537.8 298.0 L 532.9 294.7 L 527.9 291.5 L 523.0 288.2 L 518.2 284.8 L 513.5 281.4 L 509.0 277.9 L 504.5 274.2 L 500.3 270.5 L 496.3 266.6 L 492.5 262.6 L 488.9 258.4 L 488.9 258.4 L 485.5 254.1 L 482.1 249.5 L 478.8 244.9 L 475.5 240.2 L 472.3 235.4 L 469.3 230.4 L 466.5 225.3 L 463.8 220.1 L 461.4 215.0 L 459.2 209.7 L 457.3 204.5 L 455.6 199.2 L 454.3 194.0 L 453.3 188.8 L 452.8 183.6 L 452.6 178.4 L 452.6 178.4 L 453.1 173.1 L 454.5 167.4 L 456.7 161.3 L 459.4 155.1 L 462.5 148.7 L 466.2 142.4 L 469.9 136.0 L 473.6 129.8 L 477.4 123.8 L 480.9 118.0 L 484.1 112.7 L 486.8 107.8 L 488.9 103.5 L 490.4 99.8 L 490.9 96.8 L 490.4 94.7 L 490.4 94.7 L 488.8 93.3 L 486.2 93.0 L 482.7 93.3 L 478.6 94.3 L 473.8 96.0 L 468.5 98.1 L 463.0 100.5 L 457.2 103.2 L 451.3 106.2 L 445.5 109.1 L 439.9 112.0 L 434.6 114.7 L 429.7 117.2 L 425.4 119.4 L 421.9 121.2 L 419.2 122.4 L 416.9 68.8 L 415.0 66.3 L 412.7 63.2 L 410.0 59.4 L 406.9 55.1 L 403.6 50.4 L 400.1 45.4 L 396.3 40.3 L 392.5 35.0 L 388.6 29.9 L 384.8 24.8 L 381.0 20.0 L 377.4 15.6 L 373.9 11.7 L 370.8 8.3 L 368.0 5.6 L 365.4 3.7 L 365.4 3.7 L 363.3 2.6 L 361.6 2.0 L 360.1 2.0 L 358.7 2.4 L 357.6 3.3 L 356.6 4.4 L 355.7 5.9 L 354.9 7.6 L 354.0 9.5 L 353.1 11.5 L 352.2 13.5 L 351.0 15.6 L 349.7 17.5 L 348.2 19.5 L 346.5 21.2 L 344.4 22.6 L 344.4 22.6 L 342.0 23.9 L 339.4 25.4 L 336.6 26.7 L 333.7 28.1 L 330.7 29.6 L 327.5 31.0 L 324.2 32.5 L 320.8 33.9 L 317.4 35.4 L 313.9 36.9 L 310.3 38.5 L 306.9 40.1 L 303.4 41.6 L 299.9 43.2 L 296.5 44.8 L 293.2 46.4 L 293.2 46.4 L 289.8 47.9 L 286.0 49.5 L 282.0 51.1 L 277.9 52.6 L 273.7 54.1 L 269.5 55.6 L 265.2 57.2 L 261.1 58.8 L 257.2 60.4 L 253.5 62.1 L 250.0 63.7 L 246.9 65.6 L 244.3 67.4 L 242.1 69.5 L 240.5 71.5 L 239.5 73.7 L 239.5 73.7 L 239.3 76.0 L 239.9 78.4 L 241.2 81.0 L 243.1 83.6 L 245.5 86.4 L 248.3 89.3 L 251.4 92.1 L 254.5 95.1 L 257.8 98.0 L 260.9 101.0 L 263.8 103.9 L 266.4 106.8 L 268.6 109.6 L 270.3 112.4 L 271.3 115.1 L 271.5 117.7 L 271.5 117.7 L 270.9 120.2 L 269.3 122.6 L 267.2 125.1 L 264.3 127.5 L 261.0 129.9 L 257.4 132.3 L 253.6 134.6 L 249.9 136.9 L 246.1 139.2 L 242.6 141.4 L 239.4 143.6 L 236.8 145.8 L 234.7 148.0 L 233.5 150.1 L 233.1 152.2 L 233.8 154.2 L 233.8 154.2 L 235.6 156.1 L 238.2 157.9 L 241.5 159.5 L 245.6 161.0 L 250.3 162.4 L 255.4 163.9 L 260.9 165.3 L 266.7 166.7 L 272.6 168.2 L 278.8 169.7 L 284.8 171.3 L 290.7 173.1 L 296.5 175.0 L 301.9 177.1 L 306.9 179.6 L 311.3 182.2 L 311.3 182.2 L 315.5 185.0 L 319.5 188.1 L 323.4 191.4 L 327.2 194.9 L 330.9 198.5 L 334.6 202.2 L 338.1 206.0 L 341.7 210.0 L 345.1 214.0 L 348.5 218.0 L 351.8 222.2 L 355.2 226.4 L 358.5 230.5 L 361.7 234.6 L 365.1 238.7 L 368.4 242.7 L 368.4 242.7 L 371.7 246.8 L 374.9 250.9 L 378.0 255.0 L 381.2 259.2 L 384.2 263.4 L 387.3 267.6 L 390.2 271.9 L 393.2 276.2 L 396.2 280.5 L 399.2 284.7 L 402.2 289.0 L 405.2 293.3 L 408.2 297.6 L 411.2 301.8 L 414.3 306.0 L 417.4 310.2 L 417.4 310.2 L 420.6 314.4 L 423.7 318.5 L 426.8 322.8 L 430.0 327.0 L 433.0 331.2 L 436.1 335.4 L 439.3 339.6 L 442.4 343.8 L 445.6 347.9 L 448.8 352.0 L 452.0 356.1 L 455.4 360.1 L 458.8 364.0 L 462.3 367.9 L 465.8 371.7 L 469.4 375.3 L 469.4 375.3 L 473.2 378.9 L 477.0 382.4 L 480.9 386.0 L 484.7 389.3 L 488.8 392.7 L 492.8 396.0 L 496.8 399.3 L 501.0 402.5 L 505.1 405.6 L 509.4 408.7 L 513.6 411.8 L 518.0 414.7 L 522.3 417.6 L 526.6 420.5 L 531.0 423.3 L 535.5 425.9 L 535.5 425.9 L 539.9 428.6 L 544.4 431.2 L 548.9 433.7 L 553.5 436.1 L 558.1 438.5 L 562.8 440.8 L 567.5 443.1 L 572.3 445.3 L 577.0 447.4 L 581.8 449.6 L 586.6 451.6 L 591.5 453.7 L 596.3 455.7 L 601.1 457.7 L 605.9 459.8 L 610.7 461.8 L 610.7 461.8 L 615.5 463.7 L 620.4 465.8 L 625.2 467.6 L 630.0 469.5 L 634.9 471.4 L 639.8 473.2 L 644.7 475.0 L 649.6 476.8 L 654.5 478.5 L 659.4 480.3 L 664.4 482.1 L 669.3 483.7 L 674.2 485.4 L 679.2 487.2 L 684.1 488.9 L 689.0 490.6 L 689.0 490.6 L 694.1 492.3 L 699.3 493.8 L 704.8 495.3 L 710.4 496.8 L 716.1 498.2 L 721.9 499.6 L 727.5 501.0 L 733.1 502.5 L 738.6 503.9 L 743.8 505.4 L 748.8 507.0 L 753.5 508.7 L 757.9 510.5 L 761.8 512.5 L 765.3 514.6 L 768.2 516.8 L 768.2 516.8 L 770.7 519.3 L 773.0 522.0 L 775.1 525.0 L 776.9 528.1 L 778.4 531.4 L 779.6 534.7 L 780.5 538.1 L 781.2 541.5 L 781.5 545.0 L 781.5 548.4 L 781.2 551.7 L 780.5 554.9 L 779.5 557.9 L 778.1 560.8 L 776.3 563.4 L 774.2 565.8 L 774.2 565.8 L 771.5 567.9 L 768.2 569.8 L 764.4 571.5 L 760.2 573.1 L 755.4 574.5 L 750.3 575.9 L 744.9 577.1 L 739.3 578.2 L 733.5 579.4 L 727.7 580.5 L 721.7 581.6 L 715.8 582.7 L 710.0 583.9 L 704.4 585.1 L 698.9 586.5 L 693.8 588.0 L 693.8 588.0 L 688.8 589.5 L 683.8 591.1 L 678.8 592.7 L 673.9 594.3 L 668.9 596.0 L 664.1 597.6 L 659.1 599.3 L 654.2 601.0 L 649.3 602.8 L 644.3 604.4 L 639.4 606.1 L 634.5 607.9 L 629.5 609.6 L 624.6 611.3 L 619.7 612.9 L 614.8 614.6 L 614.8 614.6 L 609.8 616.3 L 604.8 618.0 L 599.9 619.7 L 595.0 621.4 L 590.1 623.1 L 585.1 624.9 L 580.2 626.5 L 575.3 628.2 L 570.3 630.0 L 565.4 631.6 L 560.5 633.3 L 555.5 634.9 L 550.5 636.4 L 545.5 637.9 L 540.5 639.3 L 535.5 640.7 L 535.5 640.7 L 530.5 642.1 L 525.5 643.3 L 520.3 644.6 L 515.3 645.8 L 510.3 647.0 L 505.1 648.0 L 500.0 649.1 L 494.9 650.2 L 489.8 651.2 L 484.7 652.2 L 479.6 653.2 L 474.4 654.2 L 469.3 655.1 L 464.1 656.0 L 459.0 656.9 L 453.9 657.9 L 453.9 657.9 L 448.8 658.7 L 443.6 659.6 L 438.4 660.3 L 433.3 661.1 L 428.1 661.8 L 423.0 662.5 L 417.8 663.2 L 412.7 663.8 L 407.4 664.5 L 402.2 665.1 L 397.1 665.8 L 391.9 666.4 L 386.8 667.1 L 381.6 667.8 L 376.4 668.5 L 371.2 669.3 L 371.2 669.3 L 366.1 670.1 L 360.9 670.8 L 355.8 671.6 L 350.7 672.4 L 345.5 673.2 L 340.3 673.9 L 335.2 674.8 L 330.0 675.5 L 324.9 676.4 L 319.7 677.2 L 314.5 677.9 L 309.4 678.8 L 304.3 679.6 L 299.1 680.4 L 294.0 681.2 L 288.8 682.1 L 288.8 682.1 L 283.6 682.8 L 278.5 683.7 L 273.4 684.6 L 268.3 685.4 L 263.0 686.3 L 257.9 687.2 L 252.8 688.0 L 247.7 689.0 L 242.6 689.8 L 237.3 690.6 L 232.2 691.5 L 227.1 692.3 L 221.9 693.1 L 216.8 693.8 L 211.6 694.5 L 206.4 695.3 L 206.4 695.3 L 201.2 695.8 L 196.1 696.4 L 190.9 696.9 L 185.7 697.4 L 180.5 697.9 L 175.3 698.3 L 170.1 698.7 L 164.9 699.1 L 159.7 699.5 L 154.5 700.0 L 149.3 700.4 L 144.1 700.9 L 138.9 701.3 L 133.7 701.8 L 128.6 702.4 L 123.4 703.0 L 123.4 703.0 L 118.2 703.7 L 113.0 704.3 L 107.8 704.9 L 102.7 705.6 L 97.5 706.3 L 92.3 706.9 L 87.2 707.7 L 81.9 708.4 L 76.8 709.2 L 71.7 710.0 L 66.5 710.8 L 61.4 711.7 L 56.2 712.6 L 51.2 713.6 L 46.1 714.7 L 41.0 715.8 L 41.0 715.8 L 35.9 717.0 L 30.9 718.3 L 25.8 719.5 L 20.8 720.9 L 15.8 722.3 L 10.7 723.7 L 5.8 725.2 L 0.7 726.7 L 0.0 726.9" fill="none" stroke="#a05bff" stroke-width="6.0" stroke-opacity="0.9"/><path d="M 0.0 906.2 L 3.7 905.7 L 9.2 904.8 L 14.8 904.2 L 20.5 903.5 L 26.1 902.8 L 31.7 902.2 L 37.3 901.6 L 42.9 901.1 L 42.9 901.1 L 48.5 900.6 L 54.2 900.2 L 59.9 899.9 L 65.5 899.5 L 71.1 899.2 L 76.8 899.0 L 82.4 898.7 L 88.1 898.5 L 93.8 898.4 L 99.4 898.3 L 105.1 898.2 L 110.8 898.2 L 116.4 898.2 L 122.0 898.2 L 127.6 898.3 L 133.3 898.4 L 133.3 898.4 L 139.1 898.4 L 145.4 898.4 L 151.8 898.3 L 158.6 898.0 L 165.4 897.8 L 172.2 897.6 L 179.0 897.4 L 185.7 897.4 L 192.1 897.5 L 198.1 897.9 L 203.8 898.4 L 209.0 899.1 L 213.6 900.2 L 217.4 901.6 L 220.5 903.3 L 222.8 905.5 L 222.8 905.5 L 224.2 908.2 L 224.9 911.4 L 225.0 915.0 L 224.4 919.0 L 223.3 923.4 L 221.7 928.0 L 219.7 932.8 L 217.3 937.8 L 214.6 942.8 L 211.6 947.8 L 208.4 952.9 L 205.0 957.8 L 201.6 962.6 L 198.0 967.2 L 194.6 971.4 L 191.1 975.4 L 191.1 975.4 L 187.7 979.1 L 183.9 982.6 L 179.8 986.1 L 175.5 989.4 L 171.0 992.7 L 166.4 995.9 L 161.5 999.0 L 156.5 1002.0 L 151.5 1005.0 L 146.4 1008.0 L 141.2 1010.9 L 136.0 1013.9 L 130.9 1016.7 L 125.9 1019.7 L 120.8 1022.6 L 116.0 1025.5 L 116.0 1025.5 L 111.1 1028.4 L 106.2 1031.3 L 101.3 1034.0 L 96.4 1036.8 L 91.4 1039.6 L 86.5 1042.3 L 81.5 1044.9 L 76.5 1047.6 L 71.5 1050.2 L 66.6 1052.9 L 61.5 1055.6 L 56.6 1058.3 L 51.6 1061.0 L 46.7 1063.7 L 41.7 1066.4 L 36.8 1069.2 L 36.8 1069.2 L 31.9 1072.1 L 27.0 1074.9 L 22.1 1077.7 L 17.3 1080.6 L 12.3 1083.4 L 7.4 1086.3 L 2.6 1089.1 L 0.0 1090.7" fill="none" stroke="#a05bff" stroke-width="6.0" stroke-opacity="0.9"/><path d="M 0.0 1269.1 L 0.0 1269.1 L 5.0 1267.2 L 10.0 1265.3 L 15.0 1263.3 L 20.0 1261.4 L 25.0 1259.5 L 29.9 1257.5 L 34.9 1255.5 L 39.9 1253.4 L 39.9 1253.4 L 44.8 1251.3 L 49.7 1249.2 L 54.6 1247.1 L 59.5 1245.0 L 64.4 1242.9 L 69.3 1240.8 L 74.2 1238.7 L 79.2 1236.5 L 84.0 1234.4 L 88.9 1232.3 L 93.8 1230.2 L 98.7 1228.0 L 103.5 1225.8 L 108.4 1223.5 L 113.3 1221.3 L 118.1 1219.1 L 118.1 1219.1 L 122.9 1216.7 L 127.7 1214.4 L 132.4 1211.9 L 137.2 1209.5 L 141.9 1207.0 L 146.7 1204.5 L 151.4 1202.0 L 156.1 1199.5 L 160.8 1197.0 L 165.6 1194.5 L 170.3 1192.0 L 175.1 1189.6 L 179.9 1187.2 L 184.7 1185.0 L 189.5 1182.7 L 194.4 1180.5 L 194.4 1180.5 L 199.3 1178.4 L 204.2 1176.5 L 209.2 1174.6 L 214.2 1172.6 L 219.2 1170.9 L 224.2 1169.1 L 229.4 1167.3 L 234.4 1165.6 L 239.4 1163.8 L 244.5 1162.1 L 249.5 1160.4 L 254.6 1158.6 L 259.6 1156.7 L 264.6 1154.9 L 269.6 1153.0 L 274.6 1151.0 L 274.6 1151.0 L 279.4 1148.9 L 284.4 1146.8 L 289.3 1144.7 L 294.2 1142.7 L 299.1 1140.6 L 304.0 1138.4 L 308.9 1136.3 L 313.8 1134.2 L 318.7 1131.9 L 323.4 1129.6 L 328.3 1127.3 L 333.1 1125.0 L 337.8 1122.6 L 342.5 1120.1 L 347.2 1117.6 L 351.8 1115.0 L 351.8 1115.0 L 356.5 1112.3 L 361.0 1109.6 L 365.5 1106.8 L 370.0 1103.8 L 374.4 1100.9 L 378.8 1097.9 L 383.3 1094.8 L 387.6 1091.7 L 392.0 1088.6 L 396.3 1085.4 L 400.6 1082.3 L 405.0 1079.2 L 409.4 1076.1 L 413.7 1073.0 L 418.1 1070.0 L 422.6 1067.0 L 422.6 1067.0 L 426.9 1063.9 L 431.4 1060.9 L 435.8 1057.9 L 440.1 1054.8 L 444.5 1051.7 L 448.9 1048.6 L 453.2 1045.5 L 457.6 1042.4 L 462.0 1039.4 L 466.4 1036.4 L 470.9 1033.4 L 475.3 1030.5 L 479.9 1027.6 L 484.3 1024.8 L 488.9 1022.0 L 493.5 1019.3 L 493.5 1019.3 L 498.2 1016.7 L 502.8 1014.2 L 507.5 1011.6 L 512.2 1009.1 L 517.0 1006.6 L 521.7 1004.2 L 526.5 1001.8 L 531.3 999.4 L 536.1 997.1 L 541.0 995.0 L 545.9 992.8 L 550.7 990.7 L 555.7 988.6 L 560.7 986.6 L 565.6 984.7 L 570.6 982.9 L 570.6 982.9 L 575.6 981.1 L 580.7 979.5 L 585.8 978.0 L 590.9 976.6 L 596.0 975.2 L 601.2 973.9 L 606.4 972.7 L 611.6 971.5 L 616.9 970.4 L 622.1 969.2 L 627.4 968.0 L 632.6 966.8 L 637.8 965.6 L 643.0 964.4 L 648.2 963.1 L 653.4 961.8 L 653.4 961.8 L 658.5 960.4 L 663.6 958.9 L 668.9 957.6 L 674.0 956.2 L 679.1 954.7 L 684.3 953.4 L 689.4 952.0 L 694.6 950.4 L 699.7 949.0 L 704.8 947.6 L 709.9 946.1 L 715.1 944.6 L 720.2 943.1 L 725.3 941.5 L 730.3 939.9 L 735.5 938.3 L 735.5 938.3 L 740.6 936.4 L 745.9 934.4 L 751.3 932.2 L 756.6 929.9 L 762.1 927.3 L 767.6 924.9 L 773.0 922.4 L 778.4 920.0 L 783.7 917.7 L 788.8 915.5 L 793.8 913.7 L 798.7 912.0 L 803.3 910.7 L 807.8 909.8 L 811.9 909.3 L 815.8 909.3 L 815.8 909.3 L 819.5 909.8 L 823.2 910.6 L 826.9 911.9 L 830.6 913.5 L 834.2 915.4 L 837.6 917.6 L 840.8 920.0 L 843.8 922.6 L 846.5 925.4 L 848.9 928.3 L 850.8 931.3 L 852.4 934.3 L 853.5 937.4 L 854.1 940.4 L 854.2 943.5 L 853.6 946.4 L 853.6 946.4 L 852.3 949.4 L 850.4 952.4 L 847.7 955.6 L 844.5 958.8 L 840.8 962.2 L 836.7 965.6 L 832.1 969.1 L 827.4 972.7 L 822.4 976.2 L 817.3 979.8 L 812.2 983.5 L 807.0 987.0 L 801.9 990.6 L 797.0 994.1 L 792.4 997.6 L 788.1 1001.0 L 788.1 1001.0 L 784.0 1004.4 L 779.9 1007.7 L 775.7 1011.2 L 771.6 1014.5 L 767.5 1017.9 L 763.3 1021.3 L 759.2 1024.6 L 755.0 1028.0 L 750.8 1031.3 L 746.6 1034.6 L 742.5 1038.0 L 738.3 1041.3 L 734.1 1044.7 L 729.9 1048.0 L 725.8 1051.3 L 721.6 1054.6 L 721.6 1054.6 L 717.4 1058.0 L 713.3 1061.3 L 709.2 1064.8 L 705.1 1068.2 L 700.9 1071.6 L 696.8 1075.0 L 692.7 1078.5 L 688.6 1081.9 L 684.4 1085.3 L 680.2 1088.5 L 676.0 1091.8 L 671.7 1095.1 L 667.4 1098.2 L 663.1 1101.2 L 658.7 1104.2 L 654.2 1107.0 L 654.2 1107.0 L 649.7 1109.8 L 645.1 1112.5 L 640.4 1115.0 L 635.7 1117.5 L 631.0 1120.0 L 626.2 1122.3 L 621.3 1124.6 L 616.5 1126.8 L 611.6 1129.0 L 606.7 1131.2 L 601.8 1133.4 L 596.9 1135.6 L 592.0 1137.7 L 587.1 1139.9 L 582.2 1142.0 L 577.4 1144.1 L 577.4 1144.1 L 572.5 1146.3 L 567.5 1148.5 L 562.7 1150.6 L 557.8 1152.7 L 552.8 1154.7 L 547.9 1156.8 L 542.9 1158.8 L 538.0 1160.9 L 533.0 1162.9 L 528.2 1164.9 L 523.2 1166.9 L 518.2 1168.9 L 513.3 1171.0 L 508.4 1173.1 L 503.5 1175.2 L 498.6 1177.4 L 498.6 1177.4 L 493.7 1179.6 L 488.9 1181.9 L 484.1 1184.2 L 479.3 1186.6 L 474.5 1189.0 L 469.7 1191.4 L 464.9 1193.9 L 460.1 1196.2 L 455.3 1198.7 L 450.5 1201.0 L 445.7 1203.3 L 440.9 1205.6 L 436.0 1207.7 L 431.0 1209.8 L 426.2 1211.8 L 421.1 1213.6 L 421.1 1213.6 L 416.2 1215.4 L 411.1 1217.1 L 406.1 1218.9 L 401.0 1220.6 L 395.9 1222.3 L 390.7 1223.9 L 385.6 1225.5 L 380.5 1226.9 L 375.3 1228.2 L 370.1 1229.5 L 364.9 1230.7 L 359.7 1231.7 L 354.5 1232.6 L 349.2 1233.4 L 344.0 1233.9 L 338.8 1234.3 L 338.8 1234.3 L 333.6 1234.4 L 328.2 1234.3 L 322.9 1233.8 L 317.5 1233.0 L 312.0 1232.2 L 306.5 1231.1 L 301.0 1230.0 L 295.6 1228.8 L 290.2 1227.6 L 284.8 1226.6 L 279.4 1225.5 L 274.2 1224.6 L 269.0 1223.9 L 264.0 1223.5 L 259.1 1223.4 L 254.2 1223.5 L 254.2 1223.5 L 249.6 1224.0 L 245.2 1224.8 L 240.8 1225.7 L 236.5 1226.8 L 232.4 1228.1 L 228.4 1229.5 L 224.3 1231.0 L 220.4 1232.6 L 216.4 1234.3 L 212.4 1236.0 L 208.4 1237.8 L 204.4 1239.6 L 200.3 1241.3 L 196.1 1243.0 L 191.7 1244.6 L 187.3 1246.2 L 187.3 1246.2 L 182.6 1247.6 L 177.5 1249.1 L 172.2 1250.5 L 166.8 1251.9 L 161.2 1253.3 L 155.4 1254.7 L 149.7 1256.0 L 144.1 1257.5 L 138.6 1259.0 L 133.4 1260.5 L 128.3 1262.1 L 123.6 1263.8 L 119.3 1265.5 L 115.5 1267.4 L 112.2 1269.3 L 109.5 1271.4 L 109.5 1271.4 L 107.4 1273.7 L 105.9 1276.0 L 104.9 1278.5 L 104.3 1281.2 L 104.1 1283.9 L 104.3 1286.8 L 104.7 1289.6 L 105.3 1292.6 L 106.1 1295.5 L 107.0 1298.5 L 107.9 1301.4 L 108.7 1304.3 L 109.5 1307.0 L 110.2 1309.8 L 110.6 1312.5 L 110.8 1315.0 L 110.8 1315.0 L 110.7 1317.5 L 110.3 1320.0 L 109.7 1322.6 L 109.0 1325.1 L 108.2 1327.7 L 107.4 1330.1 L 106.6 1332.6 L 105.9 1335.1 L 105.4 1337.3 L 105.0 1339.6 L 104.9 1341.8 L 105.0 1343.8 L 105.5 1345.7 L 106.6 1347.5 L 108.0 1349.1 L 109.9 1350.5 L 109.9 1350.5 L 112.4 1351.8 L 115.3 1353.0 L 118.7 1354.1 L 122.5 1355.1 L 126.6 1355.9 L 131.1 1356.7 L 135.8 1357.3 L 140.7 1357.9 L 145.8 1358.3 L 150.9 1358.6 L 156.1 1358.8 L 161.4 1358.8 L 166.6 1358.6 L 171.7 1358.3 L 176.8 1357.8 L 181.7 1357.3 L 181.7 1357.3 L 186.4 1356.4 L 191.2 1355.3 L 196.1 1354.0 L 201.1 1352.4 L 206.0 1350.7 L 211.1 1348.8 L 216.1 1346.8 L 221.1 1344.7 L 226.3 1342.6 L 231.3 1340.4 L 236.4 1338.2 L 241.5 1336.0 L 246.7 1333.9 L 251.7 1331.9 L 256.8 1330.0 L 261.9 1328.2 L 261.9 1328.2 L 267.0 1326.5 L 272.0 1324.8 L 277.1 1323.2 L 282.2 1321.6 L 287.3 1320.0 L 292.4 1318.4 L 297.5 1316.9 L 302.6 1315.3 L 307.7 1313.7 L 312.9 1312.2 L 318.0 1310.6 L 323.0 1309.1 L 328.1 1307.5 L 333.3 1306.0 L 338.4 1304.4 L 343.4 1302.8 L 343.4 1302.8 L 348.6 1301.2 L 353.7 1299.5 L 358.7 1298.0 L 363.8 1296.4 L 368.9 1294.7 L 374.0 1293.1 L 379.1 1291.4 L 384.2 1289.8 L 389.2 1288.1 L 394.3 1286.4 L 399.4 1284.8 L 404.5 1283.2 L 409.5 1281.6 L 414.7 1279.9 L 419.7 1278.3 L 424.8 1276.6 L 424.8 1276.6 L 429.9 1275.0 L 435.0 1273.4 L 440.1 1271.7 L 445.2 1270.1 L 450.3 1268.6 L 455.3 1267.0 L 460.4 1265.4 L 465.6 1263.7 L 470.6 1262.1 L 475.7 1260.5 L 480.9 1258.9 L 485.9 1257.2 L 491.0 1255.6 L 496.1 1253.9 L 501.2 1252.3 L 506.2 1250.7 L 506.2 1250.7 L 511.3 1249.0 L 516.4 1247.3 L 521.4 1245.6 L 526.5 1243.9 L 531.6 1242.2 L 536.6 1240.5 L 541.7 1238.8 L 546.8 1237.1 L 551.8 1235.4 L 556.9 1233.6 L 561.9 1231.9 L 567.0 1230.2 L 572.0 1228.4 L 577.0 1226.6 L 582.1 1224.9 L 587.1 1223.1 L 587.1 1223.1 L 592.2 1221.3 L 597.3 1219.7 L 602.3 1217.9 L 607.4 1216.1 L 612.4 1214.4 L 617.4 1212.6 L 622.5 1210.9 L 627.5 1209.1 L 632.6 1207.3 L 637.6 1205.6 L 642.6 1203.7 L 647.6 1201.8 L 652.6 1199.9 L 657.6 1198.0 L 662.6 1196.0 L 667.5 1194.0 L 667.5 1194.0 L 672.4 1191.9 L 677.3 1189.8 L 682.2 1187.7 L 687.1 1185.5 L 692.0 1183.3 L 696.8 1181.0 L 701.6 1178.8 L 706.5 1176.5 L 711.3 1174.2 L 716.1 1171.9 L 720.9 1169.5 L 725.6 1167.1 L 730.4 1164.6 L 735.1 1162.2 L 739.8 1159.7 L 744.5 1157.2 L 744.5 1157.2 L 749.2 1154.6 L 753.9 1152.0 L 758.5 1149.3 L 763.1 1146.6 L 767.6 1143.8 L 772.2 1141.0 L 776.7 1138.2 L 781.2 1135.3 L 785.8 1132.5 L 790.3 1129.6 L 794.8 1126.8 L 799.3 1123.9 L 803.8 1121.0 L 808.4 1118.1 L 812.8 1115.3 L 817.4 1112.5 L 817.4 1112.5 L 822.0 1109.6 L 826.5 1106.9 L 831.1 1104.0 L 835.6 1101.2 L 840.1 1098.4 L 844.7 1095.6 L 849.2 1092.7 L 853.7 1090.0 L 858.3 1087.1 L 862.8 1084.3 L 867.3 1081.5 L 871.9 1078.6 L 876.3 1075.8 L 880.9 1072.9 L 885.4 1070.1 L 889.9 1067.3 L 889.9 1067.3 L 894.5 1064.4 L 899.0 1061.6 L 903.5 1058.8 L 908.1 1055.9 L 912.7 1053.2 L 917.2 1050.4 L 921.8 1047.5 L 926.3 1044.8 L 930.8 1041.9 L 935.4 1039.1 L 939.9 1036.2 L 944.4 1033.4 L 948.8 1030.4 L 953.3 1027.4 L 957.6 1024.4 L 962.0 1021.3 L 962.0 1021.3 L 966.4 1018.2 L 970.7 1015.1 L 975.2 1012.0 L 979.6 1008.9 L 984.0 1005.8 L 988.4 1002.7 L 992.8 999.5 L 997.1 996.3 L 1000.0 994.1" fill="none" stroke="#a05bff" stroke-width="6.0" stroke-opacity="0.9"/><path d="M 904.0 2000.0 L 904.7 1998.4 L 907.0 1993.3 L 909.1 1988.3 L 911.2 1983.2 L 913.4 1978.1 L 915.5 1973.0 L 917.5 1967.9 L 919.5 1962.8 L 921.5 1957.7 L 923.4 1952.5 L 923.4 1952.5 L 925.4 1947.4 L 927.3 1942.2 L 929.1 1937.0 L 930.9 1931.8 L 932.6 1926.6 L 934.4 1921.3 L 936.1 1916.2 L 937.8 1910.9 L 939.5 1905.6 L 941.1 1900.4 L 942.7 1895.1 L 944.2 1889.8 L 945.8 1884.5 L 947.3 1879.3 L 948.7 1874.0 L 950.2 1868.7 L 950.2 1868.7 L 951.5 1863.3 L 952.9 1858.0 L 954.1 1852.6 L 955.3 1847.3 L 956.4 1841.8 L 957.5 1836.5 L 958.7 1831.0 L 959.7 1825.7 L 960.8 1820.2 L 961.9 1814.8 L 962.9 1809.5 L 963.9 1804.0 L 965.0 1798.6 L 966.2 1793.3 L 967.3 1787.8 L 968.5 1782.4 L 968.5 1782.4 L 969.7 1777.1 L 970.8 1771.7 L 972.0 1766.4 L 973.3 1761.0 L 974.5 1755.6 L 975.7 1750.2 L 976.9 1744.8 L 978.1 1739.5 L 979.3 1734.1 L 980.6 1728.7 L 981.9 1723.4 L 983.2 1718.1 L 984.6 1712.7 L 986.0 1707.4 L 987.3 1702.1 L 988.8 1696.8 L 988.8 1696.8 L 990.3 1691.5 L 991.7 1686.2 L 993.3 1680.9 L 994.9 1675.5 L 996.4 1670.2 L 998.0 1665.0 L 999.6 1659.7 L 1000.0 1658.4" fill="none" stroke="#39ff88" stroke-width="6.0" stroke-opacity="0.9"/></g><g id="clips"><circle cx="1000.0" cy="545.3" r="2" fill="none" stroke="#0b5" stroke-width="0.6"/><circle cx="833.8" cy="441.7" r="2" fill="none" stroke="#0b5" stroke-width="0.6"/><circle cx="648.5" cy="367.0" r="2" fill="none" stroke="#0b5" stroke-width="0.6"/><circle cx="485.0" cy="253.4" r="2" fill="none" stroke="#0b5" stroke-width="0.6"/><circle cx="468.1" cy="98.3" r="2" fill="none" stroke="#0b5" stroke-width="0.6"/><circle cx="357.5" cy="3.4" r="2" fill="none" stroke="#0b5" stroke-width="0.6"/><circle cx="271.0" cy="120.0" r="2" fill="none" stroke="#0b5" stroke-width="0.6"/><circle cx="356.1" cy="227.5" r="2" fill="none" stroke="#0b5" stroke-width="0.6"/><circle cx="479.3" cy="384.5" r="2" fill="none" stroke="#0b5" stroke-width="0.6"/><circle cx="654.3" cy="478.4" r="2" fill="none" stroke="#0b5" stroke-width="0.6"/><circle cx="751.8" cy="575.5" r="2" fill="none" stroke="#0b5" stroke-width="0.6"/><circle cx="560.6" cy="633.3" r="2" fill="none" stroke="#0b5" stroke-width="0.6"/><circle cx="364.4" cy="670.3" r="2" fill="none" stroke="#0b5" stroke-width="0.6"/><circle cx="166.5" cy="699.0" r="2" fill="none" stroke="#0b5" stroke-width="0.6"/><circle cx="0.0" cy="726.9" r="2" fill="none" stroke="#0b5" stroke-width="0.6"/><circle cx="0.0" cy="906.2" r="2" fill="none" stroke="#0b5" stroke-width="0.6"/><circle cx="199.6" cy="898.0" r="2" fill="none" stroke="#0b5" stroke-width="0.6"/><circle cx="112.3" cy="1027.7" r="2" fill="none" stroke="#0b5" stroke-width="0.6"/><circle cx="0.0" cy="1090.7" r="2" fill="none" stroke="#0b5" stroke-width="0.6"/><circle cx="0.0" cy="1269.1" r="2" fill="none" stroke="#0b5" stroke-width="0.6"/><circle cx="181.9" cy="1186.3" r="2" fill="none" stroke="#0b5" stroke-width="0.6"/><circle cx="365.1" cy="1107.1" r="2" fill="none" stroke="#0b5" stroke-width="0.6"/><circle cx="532.8" cy="998.7" r="2" fill="none" stroke="#0b5" stroke-width="0.6"/><circle cx="724.2" cy="941.9" r="2" fill="none" stroke="#0b5" stroke-width="0.6"/><circle cx="822.4" cy="976.2" r="2" fill="none" stroke="#0b5" stroke-width="0.6"/><circle cx="665.2" cy="1099.7" r="2" fill="none" stroke="#0b5" stroke-width="0.6"/><circle cx="484.3" cy="1184.1" r="2" fill="none" stroke="#0b5" stroke-width="0.6"/><circle cx="294.2" cy="1228.5" r="2" fill="none" stroke="#0b5" stroke-width="0.6"/><circle cx="105.7" cy="1276.5" r="2" fill="none" stroke="#0b5" stroke-width="0.6"/><circle cx="228.3" cy="1341.7" r="2" fill="none" stroke="#0b5" stroke-width="0.6"/><circle cx="418.1" cy="1278.8" r="2" fill="none" stroke="#0b5" stroke-width="0.6"/><circle cx="607.9" cy="1215.9" r="2" fill="none" stroke="#0b5" stroke-width="0.6"/><circle cx="788.3" cy="1130.9" r="2" fill="none" stroke="#0b5" stroke-width="0.6"/><circle cx="957.6" cy="1024.4" r="2" fill="none" stroke="#0b5" stroke-width="0.6"/><circle cx="904.0" cy="2000.0" r="2" fill="none" stroke="#0b5" stroke-width="0.6"/><circle cx="962.9" cy="1809.4" r="2" fill="none" stroke="#0b5" stroke-width="0.6"/><circle cx="1000.0" cy="1658.4" r="2" fill="none" stroke="#0b5" stroke-width="0.6"/></g><g id="power"><circle cx="904.0" cy="2000.0" r="5" fill="none" stroke="#e33" stroke-width="1"/><circle cx="0.0" cy="1090.7" r="5" fill="none" stroke="#e33" stroke-width="1"/><circle cx="0.0" cy="906.2" r="5" fill="none" stroke="#e33" stroke-width="1"/><circle cx="0.0" cy="726.9" r="5" fill="none" stroke="#e33" stroke-width="1"/><circle cx="1000.0" cy="1658.4" r="5" fill="none" stroke="#e33" stroke-width="1"/><circle cx="1000.0" cy="994.1" r="5" fill="none" stroke="#e33" stroke-width="1"/><circle cx="1000.0" cy="545.3" r="5" fill="none" stroke="#e33" stroke-width="1"/></g><g id="bridges"></g></svg>