<svg xmlns="http://www.w3.org/2000/svg" width="1000mm" height="500mm" viewBox="0 0 1000 500"><g id="outline"><rect x="0" y="0" width="1000" height="500" fill="none" stroke="#000" stroke-width="1"/></g><g id="channels"><path d="M 904.0 500.0 L 904.7 498.4 L 907.0 493.3 L 909.1 488.3 L 911.2 483.2 L 913.4 478.1 L 915.5 473.0 L 917.5 467.9 L 919.5 462.8 L 921.5 457.7 L 923.4 452.5 L 923.4 452.5 L 925.4 447.4 L 927.3 442.2 L 929.1 437.0 L 930.9 431.8 L 932.6 426.6 L 934.4 421.3 L 936.1 416.2 L 937.8 410.9 L 939.5 405.6 L 941.1 400.4 L 942.7 395.1 L 944.2 389.8 L 945.8 384.5 L 947.3 379.3 L 948.7 374.0 L 950.2 368.7 L 950.2 368.7 L 951.5 363.3 L 952.9 358.0 L 954.1 352.6 L 955.3 347.3 L 956.4 341.8 L 957.5 336.5 L 958.7 331.0 L 959.7 325.7 L 960.8 320.2 L 961.9 314.8 L 962.9 309.5 L 963.9 304.0 L 965.0 298.6 L 966.2 293.3 L 967.3 287.8 L 968.5 282.4 L 968.5 282.4 L 969.7 277.1 L 970.8 271.7 L 972.0 266.4 L 973.3 261.0 L 974.5 255.6 L 975.7 250.2 L 976.9 244.8 L 978.1 239.5 L 979.3 234.1 L 980.6 228.7 L 981.9 223.4 L 983.2 218.1 L 984.6 212.7 L 986.0 207.4 L 987.3 202.1 L 988.8 196.8 L 988.8 196.8 L 990.3 191.5 L 991.7 186.2 L 993.3 180.9 L 994.9 175.5 L 996.4 170.2 L 998.0 165.0 L 999.6 159.7 L 1000.0 158.4" fill="none" stroke="#39ff88" stroke-width="6.0" stroke-opacity="0.9"/></g><g id="clips"><circle cx="904.0" cy="500.0" r="2" fill="none" stroke="#0b5" stroke-width="0.6"/><circle cx="962.9" cy="309.4" r="2" fill="none" stroke="#0b5" stroke-width="0.6"/><circle cx="1000.0" cy="158.4" r="2" fill="none" stroke="#0b5" stroke-width="0.6"/></g><g id="power"><circle cx="904.0" cy="500.0" r="5" fill="none" stroke="#e33" stroke-width="1"/><circle cx="1000.0" cy="158.4" r="5" fill="none" stroke="#e33" stroke-width="1"/></g><g id="bridges"></g></svg>