<svg xmlns="http://www.w3.org/2000/svg" width="2000mm" height="1000mm" viewBox="0 0 2000 1000"><g id="outline"><rect x="0" y="0" width="2000" height="1000" fill="none" stroke="#000" stroke-width="1"/></g><g id="channels"><path d="M 0.0 915.7 L 0.4 915.4 L 5.7 911.8 L 11.0 908.3 L 11.0 908.3 L 16.3 904.9 L 21.6 901.4 L 27.0 898.0 L 32.4 894.7 L 37.8 891.3 L 43.3 888.1 L 48.8 884.8 L 54.3 881.7 L 59.8 878.5 L 65.4 875.4 L 71.0 872.4 L 76.6 869.4 L 82.2 866.5 L 87.9 863.7 L 93.6 860.9 L 99.3 858.2 L 99.3 858.2 L 105.1 855.5 L 110.9 853.0 L 116.7 850.5 L 122.6 848.1 L 128.5 845.8 L 134.4 843.5 L 140.4 841.3 L 146.4 839.1 L 152.4 836.9 L 158.4 834.8 L 164.4 832.7 L 170.4 830.7 L 176.5 828.6 L 182.5 826.6 L 188.5 824.5 L 194.5 822.4 L 194.5 822.4 L 200.6 820.4 L 206.6 818.5 L 212.7 816.6 L 218.8 814.8 L 224.9 813.0 L 231.0 811.2 L 237.2 809.5 L 243.3 807.7 L 249.4 806.0 L 255.5 804.2 L 261.6 802.3 L 267.7 800.5 L 273.7 798.5 L 279.8 796.5 L 285.7 794.4 L 291.7 792.2 L 291.7 792.2 L 297.6 790.0 L 303.6 787.7 L 309.5 785.4 L 315.5 783.1 L 321.4 780.8 L 327.4 778.4 L 333.3 776.0 L 339.2 773.5 L 345.0 770.9 L 350.8 768.3 L 356.5 765.5 L 362.2 762.7 L 367.8 759.8 L 373.4 756.8 L 378.8 753.6 L 384.2 750.4 L 384.2 750.4 L 389.5 747.0 L 394.7 743.4 L 399.9 739.8 L 404.9 736.0 L 410.0 732.1 L 414.9 728.2 L 419.8 724.1 L 424.7 720.0 L 429.5 715.8 L 434.2 711.5 L 438.9 707.3 L 443.6 702.9 L 448.3 698.6 L 452.9 694.2 L 457.5 689.8 L 462.1 685.4 L 462.1 685.4 L 466.6 681.0 L 471.0 676.4 L 475.3 671.7 L 479.5 666.9 L 483.7 662.1 L 487.8 657.2 L 491.9 652.3 L 495.9 647.3 L 500.0 642.4 L 504.2 637.5 L 508.3 632.7 L 512.6 628.0 L 516.9 623.3 L 521.3 618.8 L 525.8 614.4 L 530.5 610.1 L 530.5 610.1 L 535.2 606.0 L 540.1 601.9 L 545.0 597.9 L 550.0 594.0 L 555.0 590.1 L 560.1 586.3 L 565.2 582.6 L 570.4 578.9 L 575.7 575.3 L 581.0 571.8 L 586.3 568.3 L 591.7 564.9 L 597.1 561.6 L 602.6 558.4 L 608.0 555.2 L 613.6 552.2 L 613.6 552.2 L 619.1 549.2 L 624.8 546.4 L 630.5 543.6 L 636.3 541.0 L 642.1 538.5 L 648.0 536.1 L 653.9 533.7 L 659.8 531.4 L 665.8 529.1 L 671.7 526.8 L 677.7 524.5 L 683.7 522.2 L 689.6 519.9 L 695.5 517.6 L 701.4 515.2 L 707.3 512.7 L 707.3 512.7 L 713.2 510.2 L 719.0 507.7 L 724.8 505.2 L 730.7 502.7 L 736.5 500.2 L 742.4 497.7 L 748.2 495.2 L 754.1 492.6 L 759.9 490.1 L 765.7 487.5 L 771.5 485.0 L 777.3 482.4 L 783.1 479.8 L 788.9 477.1 L 794.7 474.5 L 800.4 471.8 L 800.4 471.8 L 806.2 469.0 L 811.9 466.2 L 817.5 463.3 L 823.2 460.4 L 828.8 457.4 L 834.5 454.5 L 840.1 451.5 L 845.7 448.5 L 851.3 445.5 L 857.0 442.5 L 862.6 439.6 L 868.3 436.7 L 874.0 433.9 L 879.7 431.2 L 885.5 428.5 L 891.3 425.9 L 891.3 425.9 L 897.1 423.4 L 903.0 421.1 L 908.9 418.8 L 914.9 416.5 L 920.8 414.4 L 926.8 412.3 L 932.9 410.2 L 938.9 408.1 L 944.9 406.0 L 950.9 404.0 L 956.9 401.9 L 962.9 399.8 L 968.9 397.6 L 974.9 395.4 L 980.8 393.1 L 986.7 390.7 L 986.7 390.7 L 992.5 388.2 L 998.4 385.8 L 1004.2 383.3 L 1010.1 380.9 L 1015.9 378.4 L 1021.8 375.8 L 1027.6 373.3 L 1033.4 370.7 L 1039.2 368.0 L 1044.9 365.3 L 1050.7 362.6 L 1056.4 359.8 L 1062.0 356.9 L 1067.6 354.0 L 1073.2 351.0 L 1078.7 347.9 L 1078.7 347.9 L 1084.2 344.7 L 1089.6 341.5 L 1095.0 338.1 L 1100.3 334.6 L 1105.6 331.1 L 1110.8 327.5 L 1116.1 323.9 L 1121.3 320.2 L 1126.5 316.5 L 1131.6 312.7 L 1136.8 309.0 L 1142.0 305.3 L 1147.2 301.6 L 1152.4 297.9 L 1157.6 294.3 L 1162.9 290.7 L 1162.9 290.7 L 1168.1 287.1 L 1173.4 283.5 L 1178.6 279.9 L 1183.8 276.2 L 1189.0 272.5 L 1194.2 268.8 L 1199.4 265.2 L 1204.6 261.5 L 1209.9 257.9 L 1215.1 254.3 L 1220.4 250.8 L 1225.7 247.3 L 1231.1 243.8 L 1236.4 240.5 L 1241.9 237.2 L 1247.4 234.0 L 1247.4 234.0 L 1252.9 230.9 L 1258.4 227.9 L 1264.0 224.8 L 1269.6 221.8 L 1275.3 218.9 L 1280.9 216.0 L 1286.6 213.1 L 1292.4 210.3 L 1298.1 207.6 L 1303.9 205.0 L 1309.7 202.4 L 1315.5 199.9 L 1321.4 197.4 L 1327.3 195.1 L 1333.2 192.8 L 1339.1 190.6 L 1339.1 190.6 L 1345.1 188.5 L 1351.1 186.6 L 1357.2 184.8 L 1363.3 183.1 L 1369.4 181.5 L 1375.6 179.9 L 1381.8 178.5 L 1388.0 177.1 L 1394.2 175.7 L 1400.5 174.3 L 1406.7 172.9 L 1412.9 171.5 L 1419.1 170.1 L 1425.3 168.6 L 1431.5 167.1 L 1437.7 165.5 L 1437.7 165.5 L 1443.8 163.8 L 1449.9 162.1 L 1456.1 160.5 L 1462.2 158.8 L 1468.3 157.1 L 1474.5 155.5 L 1480.6 153.8 L 1486.7 152.0 L 1492.8 150.3 L 1498.9 148.6 L 1505.0 146.8 L 1511.1 145.0 L 1517.2 143.2 L 1523.3 141.3 L 1529.3 139.4 L 1535.4 137.5 L 1535.4 137.5 L 1541.5 135.3 L 1547.8 132.9 L 1554.2 130.3 L 1560.6 127.5 L 1567.1 124.5 L 1573.6 121.6 L 1580.1 118.6 L 1586.5 115.7 L 1592.8 113.0 L 1598.9 110.4 L 1604.9 108.2 L 1610.7 106.2 L 1616.2 104.7 L 1621.5 103.6 L 1626.4 103.0 L 1631.0 103.0 L 1631.0 103.0 L 1635.4 103.6 L 1639.9 104.6 L 1644.3 106.1 L 1648.7 108.0 L 1652.9 110.3 L 1657.0 112.9 L 1660.8 115.8 L 1664.4 118.9 L 1667.6 122.2 L 1670.4 125.6 L 1672.7 129.2 L 1674.6 132.8 L 1675.9 136.5 L 1676.6 140.1 L 1676.7 143.7 L 1676.0 147.2 L 1676.0 147.2 L 1674.5 150.7 L 1672.2 154.3 L 1669.0 158.1 L 1665.2 162.0 L 1660.8 166.0 L 1655.9 170.1 L 1650.5 174.2 L 1644.8 178.5 L 1638.9 182.7 L 1632.8 187.0 L 1626.7 191.3 L 1620.6 195.5 L 1614.5 199.8 L 1608.7 204.0 L 1603.2 208.1 L 1598.1 212.2 L 1598.1 212.2 L 1593.2 216.2 L 1588.3 220.2 L 1583.3 224.3 L 1578.4 228.3 L 1573.5 232.3 L 1568.5 236.3 L 1563.6 240.3 L 1558.6 244.3 L 1553.7 248.3 L 1548.7 252.2 L 1543.8 256.2 L 1538.8 260.2 L 1533.8 264.2 L 1528.8 268.1 L 1523.9 272.1 L 1518.9 276.0 L 1518.9 276.0 L 1513.9 280.0 L 1509.0 284.0 L 1504.1 288.1 L 1499.2 292.2 L 1494.3 296.2 L 1489.4 300.3 L 1484.5 304.4 L 1479.6 308.5 L 1474.6 312.5 L 1469.6 316.4 L 1464.6 320.3 L 1459.5 324.2 L 1454.4 327.9 L 1449.2 331.5 L 1444.0 335.0 L 1438.7 338.4 L 1438.7 338.4 L 1433.3 341.7 L 1427.8 344.9 L 1422.2 347.9 L 1416.6 350.9 L 1411.0 353.8 L 1405.3 356.6 L 1399.5 359.3 L 1393.8 362.0 L 1388.0 364.6 L 1382.1 367.2 L 1376.3 369.8 L 1370.5 372.4 L 1364.6 374.9 L 1358.8 377.5 L 1353.0 380.0 L 1347.2 382.6 L 1347.2 382.6 L 1341.4 385.2 L 1335.5 387.8 L 1329.7 390.3 L 1323.9 392.8 L 1318.0 395.2 L 1312.1 397.7 L 1306.2 400.1 L 1300.3 402.5 L 1294.4 404.9 L 1288.6 407.3 L 1282.7 409.7 L 1276.8 412.1 L 1270.9 414.6 L 1265.1 417.1 L 1259.2 419.6 L 1253.4 422.2 L 1253.4 422.2 L 1247.6 424.8 L 1241.9 427.5 L 1236.1 430.3 L 1230.4 433.1 L 1224.7 436.0 L 1219.0 438.9 L 1213.3 441.8 L 1207.6 444.6 L 1201.9 447.5 L 1196.2 450.3 L 1190.4 453.0 L 1184.7 455.7 L 1178.9 458.3 L 1173.0 460.7 L 1167.2 463.1 L 1161.2 465.3 L 1161.2 465.3 L 1155.3 467.4 L 1149.3 469.5 L 1143.3 471.6 L 1137.2 473.6 L 1131.1 475.6 L 1125.0 477.5 L 1118.9 479.4 L 1112.8 481.1 L 1106.6 482.7 L 1100.4 484.2 L 1094.3 485.6 L 1088.1 486.8 L 1081.9 487.9 L 1075.6 488.8 L 1069.4 489.5 L 1063.2 489.9 L 1063.2 489.9 L 1057.0 490.1 L 1050.6 489.9 L 1044.2 489.3 L 1037.8 488.4 L 1031.3 487.4 L 1024.7 486.1 L 1018.2 484.8 L 1011.7 483.4 L 1005.3 482.0 L 998.9 480.7 L 992.5 479.4 L 986.3 478.4 L 980.1 477.6 L 974.1 477.1 L 968.3 476.9 L 962.5 477.1 L 962.5 477.1 L 957.0 477.7 L 951.7 478.6 L 946.5 479.7 L 941.4 481.0 L 936.5 482.5 L 931.7 484.2 L 926.9 486.0 L 922.2 487.9 L 917.5 489.9 L 912.7 492.0 L 908.0 494.1 L 903.2 496.2 L 898.3 498.3 L 893.3 500.3 L 888.1 502.2 L 882.8 504.1 L 882.8 504.1 L 877.2 505.8 L 871.2 507.5 L 864.9 509.2 L 858.4 510.9 L 851.7 512.5 L 844.9 514.2 L 838.1 515.8 L 831.4 517.5 L 824.9 519.3 L 818.6 521.1 L 812.6 523.0 L 807.0 525.0 L 801.9 527.1 L 797.3 529.3 L 793.4 531.6 L 790.2 534.1 L 790.2 534.1 L 787.7 536.8 L 785.9 539.6 L 784.7 542.6 L 784.0 545.8 L 783.8 549.0 L 784.0 552.4 L 784.5 555.8 L 785.2 559.3 L 786.1 562.8 L 787.2 566.3 L 788.3 569.8 L 789.3 573.2 L 790.2 576.5 L 791.0 579.8 L 791.5 583.0 L 791.7 586.0 L 791.7 586.0 L 791.6 589.0 L 791.1 592.0 L 790.4 595.0 L 789.6 598.0 L 788.7 601.1 L 787.7 604.0 L 786.8 607.0 L 785.9 609.9 L 785.3 612.6 L 784.8 615.3 L 784.7 617.9 L 784.9 620.3 L 785.5 622.6 L 786.7 624.7 L 788.4 626.6 L 790.7 628.2 L 790.7 628.2 L 793.6 629.8 L 797.1 631.2 L 801.2 632.5 L 805.7 633.7 L 810.6 634.7 L 815.9 635.6 L 821.5 636.4 L 827.3 637.1 L 833.4 637.6 L 839.5 637.9 L 845.7 638.1 L 852.0 638.1 L 858.2 637.9 L 864.3 637.6 L 870.3 637.0 L 876.1 636.3 L 876.1 636.3 L 881.8 635.3 L 887.5 634.0 L 893.3 632.4 L 899.2 630.5 L 905.1 628.5 L 911.1 626.2 L 917.1 623.9 L 923.1 621.4 L 929.2 618.8 L 935.2 616.2 L 941.3 613.6 L 947.4 611.0 L 953.5 608.5 L 959.5 606.1 L 965.6 603.8 L 971.6 601.7 L 971.6 601.7 L 977.7 599.7 L 983.7 597.7 L 989.7 595.7 L 995.8 593.8 L 1001.9 591.9 L 1007.9 590.1 L 1014.0 588.2 L 1020.1 586.4 L 1026.2 584.5 L 1032.3 582.7 L 1038.4 580.8 L 1044.4 579.0 L 1050.5 577.1 L 1056.6 575.3 L 1062.7 573.4 L 1068.7 571.5 L 1068.7 571.5 L 1074.8 569.6 L 1080.9 567.6 L 1086.9 565.7 L 1093.0 563.8 L 1099.0 561.8 L 1105.1 559.9 L 1111.1 557.9 L 1117.2 556.0 L 1123.2 554.0 L 1129.3 552.0 L 1135.3 550.1 L 1141.4 548.1 L 1147.4 546.2 L 1153.5 544.2 L 1159.5 542.3 L 1165.6 540.3 L 1165.6 540.3 L 1171.6 538.4 L 1177.7 536.5 L 1183.8 534.5 L 1189.8 532.6 L 1195.9 530.7 L 1201.9 528.8 L 1208.0 526.9 L 1214.1 524.9 L 1220.1 523.0 L 1226.2 521.1 L 1232.3 519.2 L 1238.3 517.2 L 1244.4 515.3 L 1250.4 513.3 L 1256.5 511.3 L 1262.5 509.4 L 1262.5 509.4 L 1268.5 507.4 L 1274.6 505.4 L 1280.6 503.4 L 1286.6 501.3 L 1292.7 499.3 L 1298.7 497.3 L 1304.7 495.3 L 1310.8 493.2 L 1316.8 491.2 L 1322.8 489.1 L 1328.8 487.1 L 1334.8 485.0 L 1340.8 482.9 L 1346.8 480.8 L 1352.8 478.7 L 1358.8 476.6 L 1358.8 476.6 L 1364.8 474.5 L 1370.9 472.5 L 1376.9 470.4 L 1382.9 468.3 L 1388.9 466.2 L 1394.9 464.1 L 1400.9 462.1 L 1406.9 459.9 L 1412.9 457.8 L 1418.9 455.7 L 1424.9 453.5 L 1430.8 451.2 L 1436.8 449.0 L 1442.7 446.7 L 1448.6 444.3 L 1454.5 441.9 L 1454.5 441.9 L 1460.3 439.4 L 1466.2 436.9 L 1472.0 434.4 L 1477.8 431.8 L 1483.6 429.2 L 1489.4 426.5 L 1495.1 423.8 L 1500.9 421.1 L 1506.6 418.4 L 1512.4 415.6 L 1518.1 412.8 L 1523.7 409.9 L 1529.4 407.0 L 1535.0 404.1 L 1540.6 401.1 L 1546.2 398.1 L 1546.2 398.1 L 1551.8 395.0 L 1557.3 391.9 L 1562.8 388.7 L 1568.3 385.5 L 1573.7 382.2 L 1579.1 378.9 L 1584.5 375.5 L 1589.9 372.1 L 1595.3 368.7 L 1600.7 365.3 L 1606.0 361.9 L 1611.4 358.5 L 1616.8 355.0 L 1622.2 351.6 L 1627.5 348.2 L 1632.9 344.9 L 1632.9 344.9 L 1638.4 341.5 L 1643.8 338.2 L 1649.2 334.8 L 1654.6 331.5 L 1660.0 328.1 L 1665.4 324.8 L 1670.8 321.4 L 1676.2 318.1 L 1681.6 314.7 L 1687.0 311.3 L 1692.4 308.0 L 1697.8 304.6 L 1703.1 301.2 L 1708.5 297.8 L 1713.9 294.4 L 1719.3 291.1 L 1719.3 291.1 L 1724.7 287.7 L 1730.1 284.3 L 1735.5 281.0 L 1740.9 277.6 L 1746.4 274.3 L 1751.8 271.0 L 1757.2 267.6 L 1762.6 264.3 L 1768.0 260.9 L 1773.4 257.5 L 1778.8 254.1 L 1784.1 250.7 L 1789.4 247.2 L 1794.7 243.6 L 1799.9 240.0 L 1805.1 236.3 L 1805.1 236.3 L 1810.3 232.7 L 1815.5 229.0 L 1820.8 225.3 L 1826.0 221.6 L 1831.3 217.9 L 1836.5 214.2 L 1841.8 210.4 L 1846.9 206.6 L 1852.0 202.7 L 1857.0 198.8 L 1861.9 194.7 L 1866.7 190.6 L 1871.4 186.4 L 1875.9 182.0 L 1880.3 177.6 L 1884.5 173.0 L 1884.5 173.0 L 1888.6 168.2 L 1892.5 163.4 L 1896.3 158.4 L 1900.0 153.3 L 1903.6 148.2 L 1907.1 142.9 L 1910.5 137.6 L 1913.8 132.1 L 1916.9 126.6 L 1920.0 121.1 L 1923.0 115.5 L 1925.8 109.8 L 1928.6 104.2 L 1931.3 98.4 L 1933.8 92.7 L 1936.3 87.0 L 1936.3 87.0 L 1938.5 81.0 L 1940.3 74.8 L 1941.8 68.3 L 1943.1 61.6 L 1944.1 54.8 L 1945.0 47.9 L 1945.9 41.0 L 1946.7 34.1 L 1947.7 27.4 L 1948.8 20.9 L 1950.1 14.6 L 1951.7 8.6 L 1953.6 3.0 L 1955.0 0.0" fill="none" stroke="#a05bff" stroke-width="6.0" stroke-opacity="0.9"/><path d="M 407.9 0.0 L 406.8 0.7 L 401.6 4.0 L 396.3 7.3 L 391.0 10.6 L 385.8 13.9 L 380.5 17.2 L 375.3 20.5 L 370.0 23.8 L 364.7 27.0 L 359.4 30.2 L 354.0 33.4 L 348.7 36.5 L 348.7 36.5 L 343.3 39.6 L 337.9 42.6 L 332.5 45.6 L 327.0 48.6 L 321.6 51.6 L 316.1 54.5 L 310.7 57.5 L 305.2 60.4 L 299.7 63.3 L 294.2 66.2 L 288.7 69.1 L 283.2 72.0 L 277.7 74.9 L 272.3 77.8 L 266.8 80.7 L 261.3 83.6 L 261.3 83.6 L 255.8 86.5 L 250.3 89.3 L 244.7 92.1 L 239.2 94.8 L 233.6 97.6 L 228.0 100.3 L 222.4 103.1 L 216.8 105.8 L 211.3 108.6 L 205.7 111.4 L 200.2 114.3 L 194.8 117.2 L 189.3 120.2 L 184.0 123.2 L 178.6 126.4 L 173.4 129.6 L 173.4 129.6 L 168.2 133.0 L 163.0 136.4 L 157.9 139.8 L 152.8 143.4 L 147.7 147.0 L 142.7 150.6 L 137.7 154.3 L 132.7 158.0 L 127.8 161.8 L 122.9 165.6 L 118.0 169.5 L 113.1 173.3 L 108.3 177.2 L 103.5 181.2 L 98.7 185.1 L 93.9 189.1 L 93.9 189.1 L 89.1 193.0 L 84.4 197.1 L 79.8 201.2 L 75.1 205.3 L 70.5 209.5 L 66.0 213.6 L 61.4 217.9 L 56.9 222.1 L 52.4 226.4 L 47.9 230.7 L 43.3 234.9 L 38.8 239.2 L 34.3 243.5 L 29.8 247.7 L 25.3 252.0 L 20.7 256.2 L 20.7 256.2 L 16.2 260.5 L 11.7 264.8 L 7.3 269.1 L 2.8 273.5 L 0.0 276.3" fill="none" stroke="#a05bff" stroke-width="6.0" stroke-opacity="0.9"/><path d="M 0.0 400.0 L 4.9 397.0 L 10.7 393.6 L 16.5 390.2 L 22.3 386.9 L 28.2 383.7 L 28.2 383.7 L 34.1 380.6 L 40.1 377.5 L 46.1 374.6 L 52.2 371.7 L 58.3 368.9 L 64.5 366.2 L 70.7 363.5 L 76.9 360.9 L 83.1 358.3 L 89.3 355.7 L 95.6 353.2 L 101.9 350.7 L 108.1 348.2 L 114.4 345.6 L 120.6 343.1 L 126.9 340.6 L 126.9 340.6 L 133.1 338.0 L 139.3 335.5 L 145.6 333.1 L 151.9 330.6 L 158.2 328.2 L 164.4 325.8 L 170.7 323.4 L 177.0 321.0 L 183.3 318.6 L 189.6 316.3 L 195.9 313.9 L 202.2 311.5 L 208.5 309.1 L 214.8 306.7 L 221.1 304.3 L 227.3 301.8 L 227.3 301.8 L 233.6 299.4 L 239.9 297.0 L 246.3 294.7 L 252.7 292.4 L 259.0 290.2 L 265.4 287.9 L 271.8 285.6 L 278.2 283.3 L 284.5 280.9 L 290.8 278.5 L 297.0 276.0 L 303.2 273.4 L 309.3 270.6 L 315.3 267.8 L 321.3 264.7 L 327.1 261.5 L 327.1 261.5 L 332.8 258.1 L 338.5 254.6 L 344.0 250.8 L 349.4 246.9 L 354.8 242.9 L 360.1 238.8 L 365.3 234.6 L 370.5 230.4 L 375.7 226.1 L 380.9 221.7 L 386.1 217.4 L 391.3 213.1 L 396.5 208.9 L 401.8 204.7 L 407.1 200.6 L 412.5 196.6 L 412.5 196.6 L 417.9 192.6 L 423.2 188.6 L 428.6 184.5 L 433.9 180.3 L 439.2 176.2 L 444.5 172.0 L 449.9 167.9 L 455.3 163.8 L 460.7 159.8 L 466.1 155.9 L 471.6 152.1 L 477.2 148.5 L 482.8 145.0 L 488.6 141.7 L 494.4 138.6 L 500.4 135.8 L 500.4 135.8 L 506.4 133.1 L 512.6 130.7 L 518.8 128.5 L 525.2 126.4 L 531.6 124.5 L 538.1 122.7 L 544.7 121.1 L 551.2 119.5 L 557.9 118.0 L 564.5 116.7 L 571.2 115.3 L 577.9 114.0 L 584.6 112.8 L 591.2 111.5 L 597.9 110.2 L 604.5 108.9 L 604.5 108.9 L 611.0 107.6 L 617.6 106.3 L 624.3 105.1 L 630.9 103.9 L 637.5 102.8 L 644.2 101.7 L 650.8 100.6 L 657.5 99.6 L 664.2 98.7 L 670.8 97.7 L 677.5 96.9 L 684.2 96.1 L 690.9 95.3 L 697.6 94.6 L 704.3 93.9 L 710.9 93.3 L 710.9 93.3 L 717.6 92.7 L 724.4 92.2 L 731.1 91.8 L 737.8 91.3 L 744.5 91.0 L 751.3 90.7 L 758.0 90.4 L 764.7 90.2 L 771.5 90.0 L 778.2 89.9 L 785.0 89.8 L 791.7 89.8 L 798.4 89.8 L 805.1 89.8 L 811.8 89.9 L 818.5 90.1 L 818.5 90.1 L 825.5 90.1 L 832.9 90.1 L 840.6 89.9 L 848.6 89.6 L 856.8 89.3 L 864.9 89.1 L 873.0 88.9 L 880.9 88.9 L 888.5 89.0 L 895.7 89.4 L 902.5 90.0 L 908.6 90.9 L 914.1 92.2 L 918.7 93.8 L 922.4 95.9 L 925.1 98.5 L 925.1 98.5 L 926.8 101.7 L 927.6 105.5 L 927.7 109.8 L 927.0 114.6 L 925.7 119.8 L 923.8 125.3 L 921.4 131.0 L 918.5 136.9 L 915.3 142.9 L 911.7 148.9 L 907.9 154.9 L 903.9 160.8 L 899.8 166.5 L 895.6 171.9 L 891.5 177.0 L 887.4 181.7 L 887.4 181.7 L 883.3 186.1 L 878.8 190.3 L 873.9 194.4 L 868.8 198.4 L 863.4 202.3 L 857.9 206.1 L 852.1 209.8 L 846.2 213.4 L 840.2 217.0 L 834.1 220.5 L 828.0 224.0 L 821.8 227.5 L 815.7 230.9 L 809.7 234.4 L 803.7 237.9 L 797.9 241.3 L 797.9 241.3 L 792.1 244.8 L 786.3 248.2 L 780.5 251.5 L 774.6 254.8 L 768.7 258.1 L 762.8 261.3 L 756.9 264.5 L 750.9 267.7 L 745.0 270.8 L 739.1 274.0 L 733.1 277.2 L 727.2 280.4 L 721.3 283.6 L 715.4 286.8 L 709.5 290.1 L 703.7 293.4 L 703.7 293.4 L 697.8 296.8 L 692.0 300.2 L 686.2 303.5 L 680.4 306.9 L 674.5 310.3 L 668.7 313.7 L 662.9 317.1 L 657.1 320.6 L 651.4 324.0 L 645.6 327.5 L 639.8 331.0 L 634.1 334.5 L 628.4 338.0 L 622.7 341.6 L 617.0 345.1 L 611.3 348.8 L 611.3 348.8 L 605.7 352.4 L 600.1 356.1 L 594.5 359.9 L 588.9 363.6 L 583.3 367.4 L 577.8 371.2 L 572.3 375.1 L 566.8 378.9 L 561.2 382.8 L 555.7 386.7 L 550.2 390.5 L 544.7 394.4 L 539.2 398.2 L 533.6 402.1 L 528.1 405.9 L 522.5 409.7 L 522.5 409.7 L 516.9 413.4 L 511.4 417.2 L 505.8 421.0 L 500.2 424.8 L 494.7 428.6 L 489.1 432.4 L 483.5 436.1 L 478.0 439.9 L 472.4 443.6 L 466.8 447.4 L 461.2 451.1 L 455.5 454.8 L 449.9 458.4 L 444.2 462.1 L 438.5 465.7 L 432.8 469.2 L 432.8 469.2 L 427.1 472.8 L 421.3 476.2 L 415.5 479.6 L 409.7 483.0 L 403.9 486.4 L 398.0 489.7 L 392.2 493.0 L 386.3 496.3 L 380.4 499.6 L 374.6 502.9 L 368.7 506.2 L 362.8 509.5 L 357.0 512.9 L 351.2 516.2 L 345.4 519.6 L 339.6 523.1 L 339.6 523.1 L 333.8 526.6 L 328.0 530.0 L 322.2 533.4 L 316.4 536.7 L 310.5 540.1 L 304.7 543.5 L 298.8 546.9 L 293.0 550.4 L 287.3 553.8 L 281.6 557.4 L 275.9 561.0 L 270.3 564.7 L 264.8 568.5 L 259.4 572.4 L 254.0 576.4 L 248.8 580.6 L 248.8 580.6 L 243.7 584.9 L 238.8 589.4 L 233.9 594.0 L 229.2 598.7 L 224.5 603.6 L 219.9 608.5 L 215.4 613.5 L 210.9 618.5 L 206.4 623.6 L 202.0 628.7 L 197.5 633.7 L 193.0 638.8 L 188.5 643.8 L 183.9 648.7 L 179.3 653.6 L 174.5 658.4 L 174.5 658.4 L 169.8 663.1 L 165.0 667.9 L 160.3 672.8 L 155.6 677.6 L 150.9 682.5 L 146.2 687.4 L 141.4 692.3 L 136.7 697.0 L 131.8 701.8 L 126.9 706.4 L 122.0 710.9 L 116.9 715.3 L 111.8 719.5 L 106.6 723.6 L 101.2 727.5 L 95.7 731.2 L 95.7 731.2 L 90.1 734.6 L 84.3 737.9 L 78.4 740.9 L 72.4 743.7 L 66.3 746.4 L 60.1 749.0 L 53.8 751.4 L 47.5 753.8 L 41.1 756.1 L 34.7 758.4 L 28.3 760.6 L 22.0 762.9 L 15.6 765.2 L 9.3 767.6 L 3.0 770.0 L 0.0 771.3" fill="none" stroke="#a05bff" stroke-width="6.0" stroke-opacity="0.9"/><path d="M 1781.4 1000.0 L 1783.5 998.1 L 1787.9 993.7 L 1791.9 989.2 L 1795.4 984.5 L 1795.4 984.5 L 1798.7 979.5 L 1802.0 974.1 L 1805.3 968.5 L 1808.5 962.7 L 1811.6 956.7 L 1814.5 950.6 L 1817.1 944.5 L 1819.4 938.5 L 1821.4 932.5 L 1822.9 926.7 L 1824.0 921.2 L 1824.6 915.9 L 1824.6 911.0 L 1823.9 906.5 L 1822.6 902.4 L 1820.6 899.0 L 1820.6 899.0 L 1817.6 896.0 L 1813.8 893.5 L 1809.2 891.4 L 1803.8 889.6 L 1797.8 888.2 L 1791.3 887.0 L 1784.3 886.1 L 1777.0 885.4 L 1769.4 884.9 L 1761.7 884.5 L 1753.9 884.2 L 1746.1 883.9 L 1738.5 883.7 L 1731.1 883.4 L 1724.0 883.1 L 1717.3 882.7 L 1717.3 882.7 L 1710.7 882.2 L 1703.9 881.5 L 1697.0 880.7 L 1690.1 879.9 L 1683.0 879.0 L 1676.0 878.3 L 1668.9 877.6 L 1662.0 877.1 L 1655.1 876.7 L 1648.4 876.7 L 1641.9 876.9 L 1635.6 877.6 L 1629.5 878.6 L 1623.7 880.1 L 1618.3 882.1 L 1613.3 884.7 L 1613.3 884.7 L 1608.7 887.9 L 1604.4 891.7 L 1600.4 896.1 L 1596.7 901.0 L 1593.3 906.3 L 1590.1 911.9 L 1587.0 917.9 L 1584.2 924.1 L 1581.4 930.5 L 1578.8 937.0 L 1576.1 943.5 L 1573.6 950.1 L 1571.0 956.6 L 1568.3 963.0 L 1565.6 969.2 L 1562.8 975.2 L 1562.8 975.2 L 1559.9 981.1 L 1557.0 986.9 L 1554.2 992.8 L 1551.5 998.8 L 1550.9 1000.0" fill="none" stroke="#39ff88" stroke-width="6.0" stroke-opacity="0.9"/></g><g id="clips"><circle cx="0.0" cy="915.7" r="2" fill="none" stroke="#0b5" stroke-width="0.6"/><circle cx="1955.0" cy="0.0" r="2" fill="none" stroke="#0b5" stroke-width="0.6"/><circle cx="407.9" cy="0.0" r="2" fill="none" stroke="#0b5" stroke-width="0.6"/><circle cx="0.0" cy="276.3" r="2" fill="none" stroke="#0b5" stroke-width="0.6"/><circle cx="0.0" cy="400.0" r="2" fill="none" stroke="#0b5" stroke-width="0.6"/><circle cx="0.0" cy="771.3" r="2" fill="none" stroke="#0b5" stroke-width="0.6"/><circle cx="1781.4" cy="1000.0" r="2" fill="none" stroke="#0b5" stroke-width="0.6"/><circle cx="1550.9" cy="1000.0" r="2" fill="none" stroke="#0b5" stroke-width="0.6"/></g><g id="power"><circle cx="0.0" cy="915.7" r="5" fill="none" stroke="#e33" stroke-width="1"/><circle cx="1955.0" cy="0.0" r="5" fill="none" stroke="#e33" stroke-width="1"/><circle cx="408.0" cy="0.0" r="5" fill="none" stroke="#e33" stroke-width="1"/><circle cx="0.0" cy="276.3" r="5" fill="none" stroke="#e33" stroke-width="1"/><circle cx="0.0" cy="400.0" r="5" fill="none" stroke="#e33" stroke-width="1"/><circle cx="0.0" cy="771.3" r="5" fill="none" stroke="#e33" stroke-width="1"/><circle cx="1781.4" cy="1000.0" r="5" fill="none" stroke="#e33" stroke-width="1"/><circle cx="1551.0" cy="1000.0" r="5" fill="none" stroke="#e33" stroke-width="1"/></g></svg>