<svg xmlns="http://www.w3.org/2000/svg" width="2000mm" height="1000mm" viewBox="0 0 2000 1000"><g id="outline"><rect x="0" y="0" width="2000" height="1000" fill="none" stroke="#000" stroke-width="1"/></g><g id="channels"><path d="M 1011.9 0.0 L 1010.3 0.8 L 1004.3 3.6 L 998.4 6.5 L 992.4 9.4 L 986.4 12.2 L 980.5 15.0 L 974.5 17.8 L 968.4 20.5 L 962.4 23.2 L 956.4 25.9 L 950.3 28.5 L 944.2 31.0 L 938.1 33.5 L 932.0 35.9 L 925.8 38.3 L 925.8 38.3 L 919.6 40.5 L 913.3 42.5 L 906.9 44.4 L 900.5 46.2 L 894.0 47.8 L 887.5 49.5 L 881.0 51.0 L 874.5 52.6 L 868.1 54.2 L 861.6 55.9 L 855.2 57.7 L 848.9 59.6 L 842.7 61.6 L 836.6 63.8 L 830.5 66.3 L 824.6 69.0 L 824.6 69.0 L 818.7 71.9 L 812.4 74.9 L 805.9 78.1 L 799.3 81.4 L 792.6 84.8 L 786.0 88.4 L 779.5 92.0 L 773.2 95.8 L 767.2 99.6 L 761.5 103.5 L 756.3 107.5 L 751.6 111.6 L 747.5 115.7 L 744.0 119.9 L 741.4 124.1 L 739.5 128.3 L 739.5 128.3 L 738.5 132.7 L 738.2 137.5 L 738.5 142.4 L 739.4 147.6 L 740.8 152.9 L 742.8 158.2 L 745.2 163.6 L 748.1 169.0 L 751.3 174.4 L 754.8 179.5 L 758.6 184.6 L 762.7 189.4 L 766.9 193.9 L 771.2 198.0 L 775.7 201.8 L 780.2 205.2 L 780.2 205.2 L 784.9 208.1 L 790.1 210.6 L 795.6 212.8 L 801.6 214.7 L 807.8 216.4 L 814.3 217.8 L 820.9 219.1 L 827.8 220.2 L 834.8 221.2 L 841.9 222.0 L 849.0 222.9 L 856.1 223.7 L 863.1 224.6 L 870.0 225.5 L 876.8 226.5 L 883.4 227.7 L 883.4 227.7 L 889.9 228.9 L 896.4 230.1 L 902.9 231.4 L 909.4 232.6 L 915.9 233.8 L 922.4 235.0 L 928.9 236.1 L 935.5 237.3 L 942.0 238.3 L 948.5 239.4 L 955.1 240.4 L 961.6 241.3 L 968.1 242.2 L 974.7 243.0 L 981.2 243.8 L 987.8 244.4 L 987.8 244.4 L 994.4 245.1 L 1001.0 245.7 L 1007.6 246.4 L 1014.2 247.0 L 1020.8 247.6 L 1027.5 248.2 L 1034.1 248.7 L 1040.7 249.1 L 1047.4 249.4 L 1054.0 249.6 L 1060.6 249.8 L 1067.2 249.7 L 1073.8 249.6 L 1080.3 249.2 L 1086.8 248.7 L 1093.3 248.0 L 1093.3 248.0 L 1099.7 247.2 L 1106.2 246.2 L 1112.6 245.0 L 1119.1 243.7 L 1125.5 242.3 L 1132.0 240.7 L 1138.4 239.1 L 1144.7 237.3 L 1151.1 235.4 L 1157.4 233.3 L 1163.7 231.2 L 1169.9 229.0 L 1176.1 226.7 L 1182.2 224.3 L 1188.3 221.8 L 1194.3 219.2 L 1194.3 219.2 L 1200.2 216.5 L 1206.1 213.6 L 1211.9 210.5 L 1217.6 207.3 L 1223.3 204.0 L 1229.0 200.6 L 1234.6 197.1 L 1240.2 193.5 L 1245.7 189.8 L 1251.3 186.1 L 1256.8 182.4 L 1262.3 178.8 L 1267.9 175.1 L 1273.4 171.4 L 1279.0 167.9 L 1284.6 164.4 L 1284.6 164.4 L 1290.2 160.9 L 1295.8 157.3 L 1301.4 153.7 L 1306.9 150.1 L 1312.5 146.5 L 1318.0 142.9 L 1323.5 139.2 L 1329.1 135.6 L 1334.6 132.0 L 1340.2 128.5 L 1345.8 125.0 L 1351.4 121.5 L 1357.1 118.1 L 1362.8 114.8 L 1368.5 111.5 L 1374.3 108.4 L 1374.3 108.4 L 1380.2 105.4 L 1386.1 102.5 L 1392.1 99.6 L 1398.1 96.9 L 1404.1 94.3 L 1410.2 91.7 L 1416.3 89.1 L 1422.4 86.6 L 1428.5 84.1 L 1434.7 81.6 L 1440.8 79.0 L 1446.8 76.4 L 1452.9 73.8 L 1458.9 71.1 L 1464.9 68.3 L 1470.8 65.5 L 1470.8 65.5 L 1476.7 62.6 L 1482.7 59.7 L 1488.8 56.9 L 1494.8 54.1 L 1500.9 51.3 L 1506.9 48.5 L 1513.0 45.7 L 1518.9 42.7 L 1524.8 39.7 L 1530.7 36.6 L 1536.4 33.4 L 1542.0 30.0 L 1547.5 26.5 L 1552.8 22.8 L 1557.9 18.9 L 1562.9 14.8 L 1562.9 14.8 L 1567.6 10.5 L 1572.1 5.9 L 1576.4 1.0 L 1577.2 0.0" fill="none" stroke="#2b6bff" stroke-width="6.0" stroke-opacity="0.9"/><path d="M 1921.7 0.0 L 1915.4 5.0 L 1908.8 10.0 L 1902.2 14.9 L 1895.6 19.5 L 1889.2 23.8 L 1883.0 27.7 L 1877.2 31.2 L 1877.2 31.2 L 1871.5 34.3 L 1865.7 37.2 L 1859.7 39.8 L 1853.7 42.3 L 1847.5 44.6 L 1841.3 46.8 L 1835.0 48.9 L 1828.6 50.9 L 1822.2 52.8 L 1815.8 54.8 L 1809.4 56.7 L 1803.0 58.7 L 1796.7 60.7 L 1790.3 62.8 L 1784.1 65.0 L 1777.9 67.4 L 1777.9 67.4 L 1771.8 69.8 L 1765.6 72.2 L 1759.4 74.6 L 1753.3 77.0 L 1747.1 79.4 L 1740.9 81.8 L 1734.8 84.2 L 1728.7 86.7 L 1722.6 89.2 L 1716.5 91.8 L 1710.4 94.4 L 1704.4 97.1 L 1698.4 99.9 L 1692.5 102.8 L 1686.6 105.7 L 1680.8 108.8 L 1680.8 108.8 L 1675.0 111.9 L 1669.3 115.2 L 1663.7 118.6 L 1658.1 122.1 L 1652.5 125.6 L 1647.0 129.2 L 1641.5 132.9 L 1636.0 136.6 L 1630.5 140.4 L 1625.1 144.2 L 1619.7 148.0 L 1614.2 151.8 L 1608.8 155.5 L 1603.4 159.3 L 1597.9 163.1 L 1592.4 166.7 L 1592.4 166.7 L 1586.9 170.4 L 1581.5 174.1 L 1576.0 177.9 L 1570.5 181.6 L 1565.1 185.3 L 1559.7 189.1 L 1554.2 192.8 L 1548.8 196.6 L 1543.3 200.3 L 1537.9 204.1 L 1532.4 207.8 L 1527.0 211.5 L 1521.5 215.3 L 1516.0 218.9 L 1510.5 222.6 L 1505.0 226.2 L 1505.0 226.2 L 1499.5 229.8 L 1493.9 233.4 L 1488.3 237.0 L 1482.8 240.5 L 1477.2 244.1 L 1471.6 247.6 L 1466.0 251.1 L 1460.4 254.6 L 1454.8 258.1 L 1449.2 261.6 L 1443.6 265.1 L 1437.9 268.6 L 1432.3 272.0 L 1426.7 275.5 L 1421.1 279.0 L 1415.4 282.4 L 1415.4 282.4 L 1409.8 285.9 L 1404.2 289.4 L 1398.5 292.8 L 1392.9 296.3 L 1387.3 299.8 L 1381.7 303.2 L 1376.0 306.7 L 1370.4 310.1 L 1364.7 313.5 L 1359.1 316.9 L 1353.4 320.3 L 1347.7 323.7 L 1342.0 327.0 L 1336.3 330.3 L 1330.5 333.6 L 1324.8 336.9 L 1324.8 336.9 L 1319.0 340.1 L 1313.2 343.3 L 1307.4 346.5 L 1301.7 349.7 L 1295.9 352.9 L 1290.0 356.0 L 1284.2 359.1 L 1278.4 362.2 L 1272.5 365.3 L 1266.6 368.3 L 1260.7 371.3 L 1254.8 374.3 L 1248.9 377.2 L 1242.9 380.0 L 1236.9 382.8 L 1230.9 385.5 L 1230.9 385.5 L 1224.9 388.2 L 1218.9 390.9 L 1212.8 393.6 L 1206.7 396.2 L 1200.6 398.8 L 1194.5 401.4 L 1188.4 403.9 L 1182.2 406.4 L 1176.1 408.8 L 1169.9 411.1 L 1163.7 413.3 L 1157.4 415.5 L 1151.2 417.6 L 1144.9 419.5 L 1138.6 421.4 L 1132.2 423.1 L 1132.2 423.1 L 1125.9 424.8 L 1119.5 426.3 L 1113.1 427.7 L 1106.6 429.0 L 1100.1 430.2 L 1093.6 431.3 L 1087.1 432.3 L 1080.5 433.3 L 1074.0 434.2 L 1067.4 435.0 L 1060.8 435.8 L 1054.2 436.6 L 1047.7 437.3 L 1041.1 438.0 L 1034.5 438.7 L 1027.9 439.4 L 1027.9 439.4 L 1021.4 440.0 L 1014.8 440.6 L 1008.2 441.1 L 1001.6 441.5 L 995.0 441.9 L 988.4 442.3 L 981.8 442.6 L 975.2 442.9 L 968.6 443.1 L 962.0 443.4 L 955.4 443.6 L 948.8 443.8 L 942.2 444.1 L 935.6 444.3 L 929.0 444.6 L 922.3 444.9 L 922.3 444.9 L 915.7 445.2 L 909.1 445.5 L 902.5 445.9 L 895.9 446.2 L 889.3 446.5 L 882.7 446.8 L 876.1 447.1 L 869.5 447.5 L 862.9 447.8 L 856.3 448.1 L 849.7 448.3 L 843.1 448.6 L 836.5 448.9 L 829.9 449.1 L 823.3 449.3 L 816.7 449.6 L 816.7 449.6 L 810.1 449.8 L 803.5 450.0 L 796.9 450.2 L 790.3 450.5 L 783.7 450.7 L 777.0 451.0 L 770.4 451.2 L 763.8 451.4 L 757.2 451.6 L 750.6 451.7 L 744.0 451.8 L 737.4 451.8 L 730.8 451.8 L 724.2 451.7 L 717.6 451.5 L 711.0 451.2 L 711.0 451.2 L 704.4 450.9 L 697.8 450.5 L 691.2 450.1 L 684.6 449.6 L 678.1 449.0 L 671.5 448.5 L 664.9 447.8 L 658.3 447.1 L 651.7 446.4 L 645.2 445.6 L 638.6 444.7 L 632.1 443.8 L 625.5 442.8 L 619.0 441.7 L 612.5 440.6 L 606.1 439.4 L 606.1 439.4 L 599.6 438.2 L 593.1 436.9 L 586.5 435.6 L 580.0 434.3 L 573.5 433.0 L 567.0 431.6 L 560.4 430.1 L 554.0 428.5 L 547.5 426.9 L 541.1 425.1 L 534.8 423.2 L 528.5 421.3 L 522.3 419.1 L 516.1 416.8 L 510.1 414.4 L 504.1 411.8 L 504.1 411.8 L 498.2 409.0 L 492.4 406.1 L 486.6 403.1 L 480.8 399.9 L 475.1 396.6 L 469.5 393.2 L 463.9 389.6 L 458.4 386.0 L 453.0 382.2 L 447.6 378.3 L 442.3 374.4 L 437.1 370.3 L 432.0 366.2 L 427.0 361.9 L 422.1 357.6 L 417.3 353.2 L 417.3 353.2 L 412.6 348.7 L 408.1 344.0 L 403.7 339.2 L 399.4 334.2 L 395.2 329.1 L 391.1 323.9 L 387.1 318.7 L 383.1 313.3 L 379.2 307.9 L 375.4 302.5 L 371.5 297.0 L 367.7 291.6 L 363.8 286.2 L 359.9 280.8 L 356.0 275.4 L 352.0 270.1 L 352.0 270.1 L 348.0 264.8 L 344.1 259.5 L 340.2 254.2 L 336.3 248.9 L 332.4 243.5 L 328.6 238.1 L 324.7 232.7 L 320.9 227.4 L 317.0 222.0 L 313.1 216.6 L 309.2 211.3 L 305.3 206.0 L 301.3 200.7 L 297.3 195.5 L 293.3 190.3 L 289.1 185.1 L 289.1 185.1 L 285.0 179.9 L 280.9 174.7 L 276.8 169.5 L 272.7 164.3 L 268.5 159.0 L 264.4 153.8 L 260.2 148.6 L 255.9 143.5 L 251.7 138.4 L 247.3 133.4 L 242.9 128.5 L 238.4 123.7 L 233.8 119.0 L 229.1 114.5 L 224.2 110.1 L 219.3 105.9 L 219.3 105.9 L 214.2 101.8 L 209.0 97.8 L 203.8 93.8 L 198.4 89.9 L 192.9 86.0 L 187.4 82.3 L 181.8 78.7 L 176.1 75.2 L 170.3 71.9 L 164.5 68.7 L 158.6 65.7 L 152.7 62.9 L 146.7 60.2 L 140.7 57.8 L 134.6 55.6 L 128.5 53.7 L 128.5 53.7 L 122.2 52.1 L 115.4 50.7 L 108.2 49.7 L 100.8 48.8 L 93.2 48.3 L 85.6 47.9 L 77.9 47.6 L 70.4 47.5 L 63.0 47.5 L 55.8 47.6 L 49.1 47.7 L 42.7 47.8 L 36.9 47.9 L 31.7 48.0 L 27.3 48.0 L 23.5 47.8" fill="none" stroke="#2b6bff" stroke-width="6.0" stroke-opacity="0.9"/></g><g id="clips"><circle cx="1011.9" cy="0.0" r="2" fill="none" stroke="#0b5" stroke-width="0.6"/><circle cx="1577.2" cy="0.0" r="2" fill="none" stroke="#0b5" stroke-width="0.6"/><circle cx="1921.7" cy="0.0" r="2" fill="none" stroke="#0b5" stroke-width="0.6"/><circle cx="23.5" cy="47.8" r="2" fill="none" stroke="#0b5" stroke-width="0.6"/></g><g id="power"><circle cx="1011.9" cy="0.0" r="5" fill="none" stroke="#e33" stroke-width="1"/><circle cx="1577.2" cy="0.0" r="5" fill="none" stroke="#e33" stroke-width="1"/><circle cx="1921.7" cy="0.0" r="5" fill="none" stroke="#e33" stroke-width="1"/></g><g id="bridges"></g></svg>