<svg xmlns="http://www.w3.org/2000/svg" width="2000mm" height="1000mm" viewBox="0 0 2000 1000"><g id="outline"><rect x="0" y="0" width="2000" height="1000" fill="none" stroke="#000" stroke-width="1"/></g><g id="channels"><path d="M 1955.0 1000.0 L 1956.0 997.9 L 1958.8 993.2 L 1962.2 989.1 L 1962.2 989.1 L 1966.3 985.6 L 1971.1 982.5 L 1976.6 979.8 L 1982.7 977.5 L 1989.1 975.6 L 1995.8 973.9 L 2000.0 973.1" fill="none" stroke="#a05bff" stroke-width="6.0" stroke-opacity="0.9"/><path d="M 2000.0 777.7 L 1995.9 780.3 L 1989.9 783.8 L 1984.0 786.8 L 1978.2 789.2 L 1972.5 790.8 L 1966.9 791.7 L 1961.4 791.5 L 1961.4 791.5 L 1956.0 790.4 L 1950.7 788.6 L 1945.5 786.1 L 1940.3 782.9 L 1935.3 779.2 L 1930.3 774.9 L 1925.4 770.3 L 1920.6 765.4 L 1915.9 760.1 L 1911.2 754.7 L 1906.6 749.1 L 1902.0 743.5 L 1897.5 737.9 L 1893.1 732.4 L 1888.6 727.0 L 1884.3 721.9 L 1884.3 721.9 L 1880.0 716.8 L 1876.0 711.5 L 1872.1 705.9 L 1868.4 700.1 L 1864.8 694.3 L 1861.2 688.3 L 1857.7 682.3 L 1854.2 676.3 L 1850.7 670.3 L 1847.0 664.3 L 1843.3 658.5 L 1839.5 652.8 L 1835.4 647.3 L 1831.2 642.1 L 1826.7 637.1 L 1822.0 632.4 L 1822.0 632.4 L 1817.0 627.9 L 1811.8 623.7 L 1806.4 619.7 L 1800.8 615.8 L 1795.1 612.1 L 1789.2 608.5 L 1783.3 605.0 L 1777.2 601.7 L 1771.1 598.4 L 1764.9 595.2 L 1758.7 592.1 L 1752.4 589.1 L 1746.2 586.0 L 1739.9 583.0 L 1733.7 580.1 L 1727.5 577.1 L 1727.5 577.1 L 1721.4 574.1 L 1715.1 571.2 L 1708.9 568.5 L 1702.6 565.8 L 1696.2 563.1 L 1689.9 560.6 L 1683.5 558.0 L 1677.1 555.6 L 1670.6 553.1 L 1664.2 550.7 L 1657.7 548.3 L 1651.3 545.9 L 1644.8 543.5 L 1638.3 541.2 L 1631.9 538.8 L 1625.5 536.3 L 1625.5 536.3 L 1619.0 533.9 L 1612.6 531.6 L 1606.1 529.3 L 1599.6 527.0 L 1593.1 524.8 L 1586.6 522.5 L 1580.1 520.3 L 1573.6 518.1 L 1567.1 515.9 L 1560.6 513.6 L 1554.1 511.3 L 1547.7 509.0 L 1541.2 506.6 L 1534.8 504.2 L 1528.4 501.7 L 1522.1 499.1 L 1522.1 499.1 L 1515.7 496.5 L 1509.4 493.8 L 1503.1 491.1 L 1496.8 488.4 L 1490.5 485.6 L 1484.2 482.8 L 1478.0 480.0 L 1471.8 477.1 L 1465.5 474.2 L 1459.3 471.2 L 1453.2 468.2 L 1447.0 465.1 L 1440.9 462.0 L 1434.8 458.9 L 1428.7 455.7 L 1422.7 452.4 L 1422.7 452.4 L 1416.7 449.1 L 1410.7 445.8 L 1404.8 442.4 L 1398.8 438.9 L 1392.9 435.4 L 1387.0 431.9 L 1381.2 428.3 L 1375.3 424.7 L 1369.5 421.0 L 1363.7 417.3 L 1357.9 413.5 L 1352.2 409.8 L 1346.5 406.0 L 1340.8 402.1 L 1335.1 398.3 L 1329.4 394.4 L 1329.4 394.4 L 1323.7 390.5 L 1317.9 386.7 L 1312.0 382.9 L 1306.1 379.1 L 1300.1 375.3 L 1294.2 371.4 L 1288.3 367.5 L 1282.5 363.6 L 1276.8 359.6 L 1271.2 355.5 L 1265.8 351.3 L 1260.5 346.9 L 1255.5 342.5 L 1250.7 337.9 L 1246.1 333.1 L 1241.9 328.1 L 1241.9 328.1 L 1237.8 323.0 L 1233.8 317.6 L 1229.8 312.1 L 1225.9 306.5 L 1222.1 300.7 L 1218.5 294.8 L 1215.2 288.7 L 1212.0 282.6 L 1209.1 276.5 L 1206.5 270.2 L 1204.2 264.0 L 1202.2 257.7 L 1200.7 251.5 L 1199.5 245.3 L 1198.9 239.1 L 1198.7 232.9 L 1198.7 232.9 L 1199.3 226.6 L 1200.9 219.8 L 1203.5 212.6 L 1206.7 205.2 L 1210.5 197.6 L 1214.8 190.0 L 1219.2 182.4 L 1223.7 175.0 L 1228.2 167.9 L 1232.4 161.0 L 1236.2 154.7 L 1239.4 148.9 L 1241.9 143.7 L 1243.6 139.3 L 1244.2 135.7 L 1243.6 133.2 L 1243.6 133.2 L 1241.7 131.6 L 1238.7 131.2 L 1234.5 131.6 L 1229.6 132.8 L 1223.9 134.8 L 1217.6 137.3 L 1211.0 140.2 L 1204.1 143.4 L 1197.1 146.9 L 1190.2 150.4 L 1183.5 153.9 L 1177.2 157.1 L 1171.4 160.1 L 1166.3 162.7 L 1162.1 164.8 L 1158.9 166.2" fill="none" stroke="#a05bff" stroke-width="6.0" stroke-opacity="0.9"/><path d="M 1156.1 102.4 L 1153.9 99.5 L 1151.1 95.7 L 1147.9 91.2 L 1144.3 86.1 L 1140.3 80.5 L 1136.1 74.6 L 1131.6 68.5 L 1127.1 62.2 L 1122.5 56.1 L 1117.9 50.1 L 1113.4 44.3 L 1109.1 39.1 L 1105.0 34.4 L 1101.3 30.4 L 1097.9 27.2 L 1094.9 24.9 L 1094.9 24.9 L 1092.4 23.6 L 1090.3 22.9 L 1088.5 22.9 L 1086.9 23.4 L 1085.6 24.4 L 1084.4 25.8 L 1083.3 27.5 L 1082.3 29.6 L 1081.3 31.8 L 1080.2 34.2 L 1079.1 36.6 L 1077.7 39.1 L 1076.2 41.4 L 1074.4 43.7 L 1072.3 45.7 L 1069.8 47.4 L 1069.8 47.4 L 1067.0 49.0 L 1063.9 50.7 L 1060.6 52.3 L 1057.1 54.0 L 1053.5 55.7 L 1049.7 57.4 L 1045.8 59.2 L 1041.7 60.9 L 1037.7 62.7 L 1033.5 64.5 L 1029.3 66.4 L 1025.2 68.2 L 1021.0 70.1 L 1016.9 71.9 L 1012.8 73.8 L 1008.9 75.7 L 1008.9 75.7 L 1004.8 77.6 L 1000.3 79.4 L 995.6 81.3 L 990.7 83.1 L 985.7 84.9 L 980.7 86.7 L 975.6 88.6 L 970.7 90.5 L 966.0 92.4 L 961.6 94.4 L 957.5 96.4 L 953.8 98.6 L 950.7 100.8 L 948.1 103.2 L 946.2 105.6 L 945.0 108.2 L 945.0 108.2 L 944.7 111.0 L 945.4 113.9 L 947.0 116.9 L 949.3 120.1 L 952.1 123.4 L 955.4 126.8 L 959.1 130.2 L 962.8 133.7 L 966.7 137.2 L 970.4 140.7 L 973.9 144.2 L 977.0 147.7 L 979.6 151.0 L 981.6 154.3 L 982.8 157.5 L 983.1 160.6 L 983.1 160.6 L 982.3 163.6 L 980.5 166.5 L 977.9 169.4 L 974.5 172.3 L 970.6 175.2 L 966.3 178.0 L 961.8 180.8 L 957.3 183.5 L 952.8 186.2 L 948.7 188.9 L 944.9 191.5 L 941.8 194.1 L 939.3 196.7 L 937.8 199.2 L 937.4 201.7 L 938.2 204.1 L 938.2 204.1 L 940.3 206.4 L 943.4 208.5 L 947.4 210.4 L 952.2 212.2 L 957.8 213.9 L 963.9 215.6 L 970.4 217.3 L 977.3 219.0 L 984.4 220.7 L 991.7 222.5 L 998.9 224.5 L 1005.9 226.6 L 1012.8 228.9 L 1019.2 231.4 L 1025.2 234.3 L 1030.5 237.4 L 1030.5 237.4 L 1035.4 240.8 L 1040.2 244.5 L 1044.9 248.4 L 1049.4 252.5 L 1053.8 256.8 L 1058.2 261.2 L 1062.4 265.8 L 1066.6 270.5 L 1070.7 275.3 L 1074.7 280.1 L 1078.7 285.1 L 1082.7 290.0 L 1086.6 294.9 L 1090.5 299.8 L 1094.5 304.7 L 1098.4 309.5 L 1098.4 309.5 L 1102.3 314.3 L 1106.1 319.2 L 1109.9 324.1 L 1113.6 329.1 L 1117.2 334.1 L 1120.9 339.1 L 1124.4 344.2 L 1128.0 349.3 L 1131.5 354.4 L 1135.1 359.5 L 1138.6 364.6 L 1142.2 369.7 L 1145.8 374.8 L 1149.4 379.8 L 1153.1 384.8 L 1156.8 389.8 L 1156.8 389.8 L 1160.6 394.8 L 1164.3 399.7 L 1168.0 404.8 L 1171.7 409.8 L 1175.3 414.8 L 1179.0 419.8 L 1182.8 424.8 L 1186.5 429.8 L 1190.3 434.7 L 1194.1 439.6 L 1198.0 444.5 L 1202.0 449.2 L 1206.0 453.9 L 1210.2 458.5 L 1214.4 463.0 L 1218.7 467.3 L 1218.7 467.3 L 1223.2 471.6 L 1227.7 475.8 L 1232.3 480.0 L 1236.9 484.0 L 1241.7 488.0 L 1246.5 492.0 L 1251.3 495.9 L 1256.3 499.7 L 1261.2 503.4 L 1266.3 507.1 L 1271.3 510.7 L 1276.5 514.2 L 1281.6 517.7 L 1286.8 521.1 L 1292.0 524.4 L 1297.3 527.6 L 1297.3 527.6 L 1302.6 530.8 L 1307.9 533.9 L 1313.3 536.8 L 1318.8 539.7 L 1324.3 542.5 L 1329.9 545.3 L 1335.5 548.0 L 1341.2 550.6 L 1346.8 553.1 L 1352.5 555.7 L 1358.2 558.1 L 1364.0 560.6 L 1369.7 563.0 L 1375.4 565.4 L 1381.2 567.9 L 1386.9 570.3 L 1386.9 570.3 L 1392.6 572.6 L 1398.4 575.0 L 1404.1 577.2 L 1409.9 579.5 L 1415.7 581.7 L 1421.5 583.9 L 1427.4 586.0 L 1433.2 588.1 L 1439.0 590.2 L 1444.9 592.3 L 1450.8 594.4 L 1456.6 596.4 L 1462.5 598.4 L 1468.4 600.5 L 1474.2 602.5 L 1480.1 604.6 L 1480.1 604.6 L 1486.1 606.6 L 1492.4 608.4 L 1498.9 610.2 L 1505.6 612.0 L 1512.4 613.6 L 1519.2 615.3 L 1525.9 617.0 L 1532.6 618.7 L 1539.1 620.4 L 1545.3 622.2 L 1551.3 624.1 L 1556.9 626.1 L 1562.1 628.3 L 1566.7 630.6 L 1570.9 633.1 L 1574.4 635.8 L 1574.4 635.8 L 1577.4 638.7 L 1580.1 642.0 L 1582.6 645.5 L 1584.7 649.2 L 1586.5 653.1 L 1587.9 657.1 L 1589.0 661.1 L 1589.8 665.2 L 1590.2 669.3 L 1590.2 673.4 L 1589.8 677.3 L 1589.0 681.1 L 1587.8 684.7 L 1586.1 688.1 L 1584.0 691.2 L 1581.5 694.1 L 1581.5 694.1 L 1578.3 696.6 L 1574.4 698.9 L 1569.9 700.9 L 1564.8 702.8 L 1559.1 704.5 L 1553.1 706.1 L 1546.6 707.5 L 1540.0 708.9 L 1533.1 710.3 L 1526.1 711.6 L 1519.0 712.9 L 1512.0 714.2 L 1505.1 715.6 L 1498.4 717.1 L 1491.9 718.7 L 1485.8 720.5 L 1485.8 720.5 L 1479.8 722.3 L 1473.9 724.2 L 1468.0 726.1 L 1462.1 728.0 L 1456.2 730.0 L 1450.4 732.0 L 1444.5 734.0 L 1438.6 736.0 L 1432.8 738.1 L 1426.9 740.1 L 1421.0 742.1 L 1415.2 744.2 L 1409.3 746.2 L 1403.4 748.2 L 1397.6 750.2 L 1391.7 752.2 L 1391.7 752.2 L 1385.8 754.2 L 1379.9 756.2 L 1374.0 758.2 L 1368.2 760.3 L 1362.3 762.3 L 1356.4 764.4 L 1350.6 766.4 L 1344.7 768.4 L 1338.8 770.5 L 1332.9 772.4 L 1327.1 774.4 L 1321.1 776.3 L 1315.2 778.1 L 1309.3 779.9 L 1303.3 781.6 L 1297.4 783.3 L 1297.4 783.3 L 1291.4 784.9 L 1285.4 786.4 L 1279.3 787.9 L 1273.3 789.3 L 1267.3 790.7 L 1261.2 792.0 L 1255.1 793.3 L 1249.0 794.6 L 1242.9 795.8 L 1236.9 797.0 L 1230.8 798.1 L 1224.6 799.3 L 1218.5 800.4 L 1212.4 801.5 L 1206.3 802.6 L 1200.2 803.7 L 1200.2 803.7 L 1194.1 804.7 L 1188.0 805.7 L 1181.8 806.6 L 1175.7 807.5 L 1169.5 808.4 L 1163.4 809.2 L 1157.2 810.0 L 1151.1 810.8 L 1144.9 811.6 L 1138.7 812.3 L 1132.6 813.1 L 1126.4 813.9 L 1120.3 814.7 L 1114.1 815.5 L 1108.0 816.4 L 1101.8 817.3 L 1101.8 817.3 L 1095.7 818.2 L 1089.5 819.1 L 1083.4 820.0 L 1077.3 821.0 L 1071.1 821.9 L 1065.0 822.8 L 1058.9 823.8 L 1052.7 824.7 L 1046.6 825.7 L 1040.5 826.7 L 1034.3 827.6 L 1028.2 828.6 L 1022.1 829.6 L 1015.9 830.5 L 1009.8 831.5 L 1003.7 832.5 L 1003.7 832.5 L 997.5 833.4 L 991.4 834.4 L 985.3 835.5 L 979.2 836.5 L 973.0 837.5 L 966.9 838.6 L 960.8 839.6 L 954.7 840.7 L 948.6 841.7 L 942.4 842.7 L 936.3 843.7 L 930.2 844.7 L 924.0 845.6 L 917.9 846.5 L 911.7 847.3 L 905.6 848.2 L 905.6 848.2 L 899.4 848.9 L 893.3 849.6 L 887.1 850.2 L 880.9 850.8 L 874.7 851.3 L 868.5 851.8 L 862.3 852.3 L 856.2 852.8 L 850.0 853.3 L 843.8 853.8 L 837.6 854.3 L 831.4 854.9 L 825.2 855.4 L 819.0 856.0 L 812.9 856.7 L 806.7 857.4 L 806.7 857.4 L 800.6 858.2 L 794.4 859.0 L 788.2 859.7 L 782.1 860.5 L 775.9 861.3 L 769.7 862.1 L 763.6 863.0 L 757.4 863.8 L 751.3 864.8 L 745.2 865.7 L 739.0 866.7 L 732.9 867.8 L 726.8 868.9 L 720.8 870.1 L 714.7 871.4 L 708.6 872.7 L 708.6 872.7 L 702.6 874.1 L 696.6 875.6 L 690.6 877.1 L 684.6 878.7 L 678.6 880.4 L 672.6 882.1 L 666.7 883.8 L 660.7 885.6 L 654.8 887.5 L 648.9 889.4 L 643.0 891.3 L 637.1 893.3 L 631.2 895.3 L 625.3 897.3 L 619.5 899.4 L 613.7 901.5 L 613.7 901.5 L 607.8 903.6 L 602.0 905.8 L 596.2 908.0 L 590.5 910.3 L 584.7 912.6 L 579.0 915.0 L 573.2 917.4 L 567.5 919.8 L 561.8 922.3 L 556.1 924.8 L 550.4 927.3 L 544.8 929.8 L 539.1 932.4 L 533.5 934.9 L 527.8 937.5 L 522.2 940.1 L 522.2 940.1 L 516.6 942.7 L 510.9 945.4 L 505.3 948.0 L 499.7 950.7 L 494.2 953.4 L 488.6 956.2 L 483.0 958.9 L 477.5 961.7 L 471.9 964.5 L 466.4 967.4 L 460.9 970.2 L 455.4 973.1 L 449.9 976.0 L 444.4 979.0 L 439.0 981.9 L 433.6 984.9 L 433.6 984.9 L 428.1 988.0 L 422.8 991.1 L 417.4 994.2 L 412.1 997.4 L 407.9 1000.0" fill="none" stroke="#a05bff" stroke-width="6.0" stroke-opacity="0.9"/></g><g id="clips"><circle cx="1955.0" cy="1000.0" r="2" fill="none" stroke="#0b5" stroke-width="0.6"/><circle cx="2000.0" cy="777.7" r="2" fill="none" stroke="#0b5" stroke-width="0.6"/><circle cx="1158.9" cy="166.2" r="2" fill="none" stroke="#0b5" stroke-width="0.6"/><circle cx="1156.1" cy="102.4" r="2" fill="none" stroke="#0b5" stroke-width="0.6"/><circle cx="407.9" cy="1000.0" r="2" fill="none" stroke="#0b5" stroke-width="0.6"/></g><g id="power"><circle cx="1955.0" cy="1000.0" r="5" fill="none" stroke="#e33" stroke-width="1"/><circle cx="2000.0" cy="973.1" r="5" fill="none" stroke="#e33" stroke-width="1"/><circle cx="2000.0" cy="777.7" r="5" fill="none" stroke="#e33" stroke-width="1"/><circle cx="408.0" cy="1000.0" r="5" fill="none" stroke="#e33" stroke-width="1"/></g></svg>