<svg xmlns="http://www.w3.org/2000/svg" width="1000mm" height="1000mm" viewBox="0 0 1000 1000"><g id="outline"><rect x="0" y="0" width="1000" height="1000" fill="none" stroke="#000" stroke-width="1"/></g><g id="channels"><path d="M 1000.0 945.3 L 997.2 940.8 L 994.1 935.9 L 990.9 931.1 L 987.5 926.5 L 983.9 922.1 L 980.2 917.9 L 976.2 914.0 L 976.2 914.0 L 972.0 910.2 L 967.6 906.7 L 963.1 903.3 L 958.4 900.0 L 953.6 896.9 L 948.7 893.9 L 943.7 891.0 L 938.6 888.2 L 933.5 885.4 L 928.2 882.7 L 923.0 880.1 L 917.7 877.6 L 912.5 875.0 L 907.2 872.5 L 902.0 870.0 L 896.8 867.5 L 896.8 867.5 L 891.7 865.0 L 886.4 862.6 L 881.2 860.3 L 875.9 858.0 L 870.5 855.8 L 865.2 853.7 L 859.9 851.5 L 854.5 849.5 L 849.0 847.4 L 843.7 845.4 L 838.2 843.3 L 832.8 841.3 L 827.4 839.3 L 821.9 837.4 L 816.5 835.4 L 811.1 833.3 L 811.1 833.3 L 805.7 831.2 L 800.3 829.3 L 794.9 827.4 L 789.4 825.4 L 783.9 823.6 L 778.5 821.7 L 773.0 819.8 L 767.6 818.0 L 762.1 816.1 L 756.6 814.2 L 751.2 812.3 L 745.8 810.3 L 740.3 808.3 L 735.0 806.3 L 729.6 804.2 L 724.3 802.0 L 724.3 802.0 L 718.9 799.8 L 713.6 797.6 L 708.3 795.3 L 703.0 793.0 L 697.7 790.7 L 692.5 788.3 L 687.2 786.0 L 682.0 783.5 L 676.7 781.1 L 671.5 778.6 L 666.4 776.1 L 661.2 773.4 L 656.1 770.8 L 651.0 768.2 L 645.8 765.6 L 640.8 762.8 L 640.8 762.8 L 635.8 760.0 L 630.7 757.2 L 625.8 754.4 L 620.7 751.4 L 615.8 748.5 L 610.8 745.6 L 605.9 742.5 L 601.0 739.5 L 596.1 736.4 L 591.2 733.3 L 586.4 730.1 L 581.6 727.0 L 576.8 723.8 L 572.0 720.5 L 567.2 717.3 L 562.4 714.1 L 562.4 714.1 L 557.6 710.8 L 552.8 707.6 L 547.8 704.4 L 542.9 701.2 L 537.8 698.0 L 532.9 694.7 L 527.9 691.5 L 523.0 688.2 L 518.2 684.8 L 513.5 681.4 L 509.0 677.9 L 504.5 674.2 L 500.3 670.5 L 496.3 666.6 L 492.5 662.6 L 488.9 658.4 L 488.9 658.4 L 485.5 654.1 L 482.1 649.5 L 478.8 644.9 L 475.5 640.2 L 472.3 635.4 L 469.3 630.4 L 466.5 625.3 L 463.8 620.1 L 461.4 615.0 L 459.2 609.7 L 457.3 604.5 L 455.6 599.2 L 454.3 594.0 L 453.3 588.8 L 452.8 583.6 L 452.6 578.4 L 452.6 578.4 L 453.1 573.1 L 454.5 567.4 L 456.7 561.3 L 459.4 555.1 L 462.5 548.7 L 466.2 542.4 L 469.9 536.0 L 473.6 529.8 L 477.4 523.8 L 480.9 518.0 L 484.1 512.7 L 486.8 507.8 L 488.9 503.5 L 490.4 499.8 L 490.9 496.8 L 490.4 494.7 L 490.4 494.7 L 488.8 493.3 L 486.2 493.0 L 482.7 493.3 L 478.6 494.3 L 473.8 496.0 L 468.5 498.1 L 463.0 500.5 L 457.2 503.2 L 451.3 506.2 L 445.5 509.1 L 439.9 512.0 L 434.6 514.7 L 429.7 517.2 L 425.4 519.4 L 421.9 521.2 L 419.2 522.4 L 416.9 468.8 L 415.0 466.3 L 412.7 463.2 L 410.0 459.4 L 406.9 455.1 L 403.6 450.4 L 400.1 445.4 L 396.3 440.3 L 392.5 435.0 L 388.6 429.9 L 384.8 424.8 L 381.0 420.0 L 377.4 415.6 L 373.9 411.7 L 370.8 408.3 L 368.0 405.6 L 365.4 403.7 L 365.4 403.7 L 363.3 402.6 L 361.6 402.0 L 360.1 402.0 L 358.7 402.4 L 357.6 403.3 L 356.6 404.4 L 355.7 405.9 L 354.9 407.6 L 354.0 409.5 L 353.1 411.5 L 352.2 413.5 L 351.0 415.6 L 349.7 417.5 L 348.2 419.5 L 346.5 421.2 L 344.4 422.6 L 344.4 422.6 L 342.0 423.9 L 339.4 425.4 L 336.6 426.7 L 333.7 428.1 L 330.7 429.6 L 327.5 431.0 L 324.2 432.5 L 320.8 433.9 L 317.4 435.4 L 313.9 436.9 L 310.3 438.5 L 306.9 440.1 L 303.4 441.6 L 299.9 443.2 L 296.5 444.8 L 293.2 446.4 L 293.2 446.4 L 289.8 447.9 L 286.0 449.5 L 282.0 451.1 L 277.9 452.6 L 273.7 454.1 L 269.5 455.6 L 265.2 457.2 L 261.1 458.8 L 257.2 460.4 L 253.5 462.1 L 250.0 463.7 L 246.9 465.6 L 244.3 467.4 L 242.1 469.5 L 240.5 471.5 L 239.5 473.7 L 239.5 473.7 L 239.3 476.0 L 239.9 478.4 L 241.2 481.0 L 243.1 483.6 L 245.5 486.4 L 248.3 489.3 L 251.4 492.1 L 254.5 495.1 L 257.8 498.0 L 260.9 501.0 L 263.8 503.9 L 266.4 506.8 L 268.6 509.6 L 270.3 512.4 L 271.3 515.1 L 271.5 517.7 L 271.5 517.7 L 270.9 520.2 L 269.3 522.6 L 267.2 525.1 L 264.3 527.5 L 261.0 529.9 L 257.4 532.3 L 253.6 534.6 L 249.9 536.9 L 246.1 539.2 L 242.6 541.4 L 239.4 543.6 L 236.8 545.8 L 234.7 548.0 L 233.5 550.1 L 233.1 552.2 L 233.8 554.2 L 233.8 554.2 L 235.6 556.1 L 238.2 557.9 L 241.5 559.5 L 245.6 561.0 L 250.3 562.4 L 255.4 563.9 L 260.9 565.3 L 266.7 566.7 L 272.6 568.2 L 278.8 569.7 L 284.8 571.3 L 290.7 573.1 L 296.5 575.0 L 301.9 577.1 L 306.9 579.6 L 311.3 582.2 L 311.3 582.2 L 315.5 585.0 L 319.5 588.1 L 323.4 591.4 L 327.2 594.9 L 330.9 598.5 L 334.6 602.2 L 338.1 606.0 L 341.7 610.0 L 345.1 614.0 L 348.5 618.0 L 351.8 622.2 L 355.2 626.4 L 358.5 630.5 L 361.7 634.6 L 365.1 638.7 L 368.4 642.7 L 368.4 642.7 L 371.7 646.8 L 374.9 650.9 L 378.0 655.0 L 381.2 659.2 L 384.2 663.4 L 387.3 667.6 L 390.2 671.9 L 393.2 676.2 L 396.2 680.5 L 399.2 684.7 L 402.2 689.0 L 405.2 693.3 L 408.2 697.6 L 411.2 701.8 L 414.3 706.0 L 417.4 710.2 L 417.4 710.2 L 420.6 714.4 L 423.7 718.5 L 426.8 722.8 L 430.0 727.0 L 433.0 731.2 L 436.1 735.4 L 439.3 739.6 L 442.4 743.8 L 445.6 747.9 L 448.8 752.0 L 452.0 756.1 L 455.4 760.1 L 458.8 764.0 L 462.3 767.9 L 465.8 771.7 L 469.4 775.3 L 469.4 775.3 L 473.2 778.9 L 477.0 782.4 L 480.9 786.0 L 484.7 789.3 L 488.8 792.7 L 492.8 796.0 L 496.8 799.3 L 501.0 802.5 L 505.1 805.6 L 509.4 808.7 L 513.6 811.8 L 518.0 814.7 L 522.3 817.6 L 526.6 820.5 L 531.0 823.3 L 535.5 825.9 L 535.5 825.9 L 539.9 828.6 L 544.4 831.2 L 548.9 833.7 L 553.5 836.1 L 558.1 838.5 L 562.8 840.8 L 567.5 843.1 L 572.3 845.3 L 577.0 847.4 L 581.8 849.6 L 586.6 851.6 L 591.5 853.7 L 596.3 855.7 L 601.1 857.7 L 605.9 859.8 L 610.7 861.8 L 610.7 861.8 L 615.5 863.7 L 620.4 865.8 L 625.2 867.6 L 630.0 869.5 L 634.9 871.4 L 639.8 873.2 L 644.7 875.0 L 649.6 876.8 L 654.5 878.5 L 659.4 880.3 L 664.4 882.1 L 669.3 883.7 L 674.2 885.4 L 679.2 887.2 L 684.1 888.9 L 689.0 890.6 L 689.0 890.6 L 694.1 892.3 L 699.3 893.8 L 704.8 895.3 L 710.4 896.8 L 716.1 898.2 L 721.9 899.6 L 727.5 901.0 L 733.1 902.5 L 738.6 903.9 L 743.8 905.4 L 748.8 907.0 L 753.5 908.7 L 757.9 910.5 L 761.8 912.5 L 765.3 914.6 L 768.2 916.8 L 768.2 916.8 L 770.7 919.3 L 773.0 922.0 L 775.1 925.0 L 776.9 928.1 L 778.4 931.4 L 779.6 934.7 L 780.5 938.1 L 781.2 941.5 L 781.5 945.0 L 781.5 948.4 L 781.2 951.7 L 780.5 954.9 L 779.5 957.9 L 778.1 960.8 L 776.3 963.4 L 774.2 965.8 L 774.2 965.8 L 771.5 967.9 L 768.2 969.8 L 764.4 971.5 L 760.2 973.1 L 755.4 974.5 L 750.3 975.9 L 744.9 977.1 L 739.3 978.2 L 733.5 979.4 L 727.7 980.5 L 721.7 981.6 L 715.8 982.7 L 710.0 983.9 L 704.4 985.1 L 698.9 986.5 L 693.8 988.0 L 693.8 988.0 L 688.8 989.5 L 683.8 991.1 L 678.8 992.7 L 673.9 994.3 L 668.9 996.0 L 664.1 997.6 L 659.1 999.3 L 657.1 1000.0" fill="none" stroke="#a05bff" stroke-width="6.0" stroke-opacity="0.9"/></g><g id="clips"><circle cx="1000.0" cy="945.3" r="2" fill="none" stroke="#0b5" stroke-width="0.6"/><circle cx="833.8" cy="841.7" r="2" fill="none" stroke="#0b5" stroke-width="0.6"/><circle cx="648.5" cy="767.0" r="2" fill="none" stroke="#0b5" stroke-width="0.6"/><circle cx="485.0" cy="653.4" r="2" fill="none" stroke="#0b5" stroke-width="0.6"/><circle cx="468.1" cy="498.3" r="2" fill="none" stroke="#0b5" stroke-width="0.6"/><circle cx="357.5" cy="403.4" r="2" fill="none" stroke="#0b5" stroke-width="0.6"/><circle cx="271.0" cy="520.0" r="2" fill="none" stroke="#0b5" stroke-width="0.6"/><circle cx="356.1" cy="627.5" r="2" fill="none" stroke="#0b5" stroke-width="0.6"/><circle cx="479.3" cy="784.5" r="2" fill="none" stroke="#0b5" stroke-width="0.6"/><circle cx="654.3" cy="878.4" r="2" fill="none" stroke="#0b5" stroke-width="0.6"/><circle cx="751.8" cy="975.5" r="2" fill="none" stroke="#0b5" stroke-width="0.6"/><circle cx="657.1" cy="1000.0" r="2" fill="none" stroke="#0b5" stroke-width="0.6"/></g><g id="power"><circle cx="657.2" cy="1000.0" r="5" fill="none" stroke="#e33" stroke-width="1"/><circle cx="1000.0" cy="945.3" r="5" fill="none" stroke="#e33" stroke-width="1"/></g><g id="bridges"></g></svg>