<svg xmlns="http://www.w3.org/2000/svg" width="2000mm" height="1000mm" viewBox="0 0 2000 1000"><g id="outline"><rect x="0" y="0" width="2000" height="1000" fill="none" stroke="#000" stroke-width="1"/></g><g id="channels"><path d="M 341.9 0.0 L 343.0 2.5 L 346.0 8.6 L 349.3 14.6 L 352.7 20.6 L 356.3 26.5 L 360.1 32.4 L 363.9 38.2 L 367.8 43.9 L 371.7 49.5 L 375.6 55.1 L 379.4 60.5 L 379.4 60.5 L 383.3 65.9 L 387.4 71.1 L 391.6 76.3 L 396.0 81.3 L 400.5 86.2 L 405.1 91.1 L 409.9 95.9 L 414.6 100.7 L 419.5 105.5 L 424.3 110.2 L 429.2 114.9 L 434.1 119.7 L 438.9 124.4 L 443.7 129.2 L 448.5 134.0 L 453.1 138.9 L 453.1 138.9 L 457.8 143.7 L 462.4 148.6 L 467.1 153.4 L 471.8 158.2 L 476.5 163.0 L 481.3 167.9 L 486.0 172.7 L 490.7 177.5 L 495.3 182.3 L 500.0 187.2 L 504.6 192.1 L 509.2 197.0 L 513.7 202.0 L 518.1 207.0 L 522.5 212.1 L 526.8 217.2 L 526.8 217.2 L 531.1 222.4 L 535.4 227.6 L 539.7 232.8 L 543.9 238.0 L 548.1 243.3 L 552.3 248.6 L 556.4 253.9 L 560.5 259.3 L 564.5 264.7 L 568.4 270.2 L 572.3 275.7 L 576.0 281.2 L 579.6 286.9 L 583.1 292.5 L 586.5 298.3 L 589.7 304.1 L 589.7 304.1 L 592.8 310.0 L 595.8 316.0 L 598.7 322.0 L 601.4 328.2 L 604.1 334.3 L 606.7 340.6 L 609.1 346.9 L 611.5 353.2 L 613.8 359.6 L 616.0 366.0 L 618.2 372.4 L 620.3 378.8 L 622.3 385.2 L 624.2 391.7 L 626.1 398.1 L 628.0 404.5 L 628.0 404.5 L 629.7 411.1 L 631.3 417.9 L 632.7 424.9 L 634.0 432.1 L 635.2 439.4 L 636.3 446.6 L 637.3 453.9 L 638.4 461.1 L 639.4 468.2 L 640.4 475.1 L 641.5 481.7 L 642.7 488.1 L 644.0 494.0 L 645.3 499.6 L 646.9 504.7 L 648.6 509.3 L 648.6 509.3 L 650.4 513.3 L 652.4 516.7 L 654.5 519.5 L 656.7 521.8 L 659.0 523.7 L 661.3 525.4 L 663.7 526.8 L 666.1 528.0 L 668.6 529.2 L 671.0 530.5 L 673.5 531.8 L 676.0 533.3 L 678.5 535.1 L 680.9 537.2 L 683.3 539.7 L 685.7 542.8 L 685.7 542.8 L 688.0 546.5 L 690.3 550.8 L 692.5 555.6 L 694.8 560.8 L 697.0 566.3 L 699.3 572.0 L 701.5 577.8 L 703.7 583.6 L 706.0 589.2 L 708.3 594.6 L 710.6 599.7 L 713.0 604.4 L 715.3 608.4 L 717.8 611.9 L 720.2 614.5 L 722.8 616.3 L 722.8 616.3 L 725.4 617.2 L 728.3 617.3 L 731.3 616.6 L 734.5 615.2 L 737.7 613.4 L 740.9 611.0 L 744.2 608.4 L 747.4 605.5 L 750.6 602.5 L 753.6 599.4 L 756.5 596.3 L 759.3 593.5 L 761.7 590.8 L 764.0 588.6 L 765.9 586.7 L 767.5 585.5" fill="none" stroke="#39ff88" stroke-width="6.0" stroke-opacity="0.9"/><path d="M 722.7 426.1 L 723.3 427.6 L 724.1 429.5 L 724.9 431.7 L 725.8 434.1 L 726.8 436.7 L 727.8 439.5 L 729.0 442.5 L 730.1 445.6 L 731.4 448.7 L 732.6 451.9 L 734.0 455.2 L 735.3 458.4 L 736.6 461.5 L 738.0 464.5 L 739.3 467.4 L 740.7 470.1 L 740.7 470.1 L 742.1 472.9 L 743.5 475.8 L 744.9 478.8 L 746.4 481.9 L 747.9 485.1 L 749.4 488.2 L 751.0 491.3 L 752.5 494.3 L 754.1 497.2 L 755.8 499.9 L 757.4 502.5 L 759.0 504.7 L 760.7 506.7 L 762.4 508.3 L 764.0 509.6 L 765.7 510.4 L 765.7 510.4 L 767.4 510.8 L 769.3 510.6 L 771.2 510.1 L 773.2 509.1 L 775.2 507.8 L 777.3 506.3 L 779.4 504.6 L 781.4 502.7 L 783.4 500.8 L 785.3 498.8 L 787.1 496.9 L 788.8 495.1 L 790.4 493.4 L 791.8 492.0 L 793.0 490.8 L 794.0 490.0" fill="none" stroke="#39ff88" stroke-width="6.0" stroke-opacity="0.9"/><path d="M 786.3 599.8 L 787.5 602.6 L 789.0 606.5 L 790.8 611.3 L 792.9 616.9 L 795.1 622.9 L 797.5 629.3 L 800.0 635.8 L 802.5 642.4 L 805.0 648.7 L 807.5 654.6 L 809.9 659.9 L 812.2 664.5 L 814.3 668.1 L 816.2 670.6 L 817.9 671.7 L 819.2 671.4 L 819.2 671.4 L 820.1 669.2 L 820.7 665.4 L 821.0 659.9 L 821.1 653.2 L 820.9 645.5 L 820.7 637.0 L 820.3 627.9 L 820.0 618.5 L 819.6 609.1 L 819.4 599.9 L 819.3 591.2 L 819.4 583.1 L 819.8 576.0 L 820.4 570.0 L 821.5 565.5 L 823.0 562.7 L 823.0 562.7 L 824.9 561.5 L 827.2 561.7 L 829.8 563.2 L 832.8 565.6 L 836.0 568.9 L 839.4 572.9 L 842.9 577.3 L 846.5 582.1 L 850.3 587.0 L 854.0 591.8 L 857.6 596.5 L 861.2 600.7 L 864.7 604.3 L 868.0 607.2 L 871.1 609.2 L 873.9 610.0 L 873.9 610.0 L 876.6 610.0 L 879.4 609.6 L 882.3 608.7 L 885.2 607.5 L 888.1 605.9 L 891.0 604.0 L 893.7 601.7 L 896.4 599.1 L 898.8 596.3 L 901.0 593.1 L 903.0 589.7 L 904.7 586.1 L 906.0 582.3 L 906.9 578.3 L 907.4 574.1 L 907.4 569.7 L 907.4 569.7 L 907.0 565.1 L 906.1 559.9 L 904.8 554.4 L 903.1 548.4 L 901.1 542.2 L 898.8 535.7 L 896.2 529.0 L 893.4 522.2 L 890.4 515.3 L 887.2 508.3 L 883.9 501.4 L 880.5 494.5 L 877.1 487.8 L 873.6 481.2 L 870.2 474.9 L 866.8 468.9 L 866.8 468.9 L 863.3 463.1 L 859.7 457.4 L 855.9 451.8 L 852.0 446.2 L 847.9 440.7 L 843.8 435.3 L 839.5 430.0 L 835.2 424.6 L 830.8 419.3 L 826.4 414.1 L 821.9 408.9 L 817.4 403.6 L 813.0 398.4 L 808.5 393.2 L 804.1 388.0 L 799.7 382.7 L 799.7 382.7 L 795.3 377.5 L 790.9 372.3 L 786.4 367.2 L 781.8 362.1 L 777.2 357.0 L 772.6 351.9 L 768.0 346.9 L 763.4 341.8 L 758.8 336.8 L 754.2 331.7 L 749.6 326.6 L 745.1 321.5 L 740.6 316.3 L 736.2 311.1 L 731.8 305.9 L 727.5 300.6 L 727.5 300.6 L 723.3 295.3 L 719.1 289.9 L 714.9 284.5 L 710.8 279.0 L 706.7 273.6 L 702.6 268.1 L 698.5 262.5 L 694.5 257.0 L 690.6 251.4 L 686.6 245.9 L 682.7 240.3 L 678.8 234.7 L 674.9 229.0 L 671.0 223.4 L 667.2 217.7 L 663.4 212.1 L 663.4 212.1 L 659.6 206.4 L 655.8 200.7 L 652.1 195.0 L 648.4 189.2 L 644.7 183.5 L 641.0 177.7 L 637.4 171.9 L 633.8 166.1 L 630.2 160.3 L 626.7 154.4 L 623.1 148.6 L 619.6 142.7 L 616.1 136.8 L 612.7 130.9 L 609.2 125.0 L 605.8 119.1 L 605.8 119.1 L 602.4 113.2 L 598.9 107.2 L 595.4 101.3 L 591.8 95.4 L 588.2 89.5 L 584.6 83.5 L 581.1 77.5 L 577.6 71.6 L 574.3 65.5 L 571.0 59.5 L 567.9 53.4 L 564.9 47.3 L 562.1 41.1 L 559.4 34.9 L 557.0 28.7 L 554.9 22.4 L 554.9 22.4 L 552.9 16.0 L 550.9 9.5 L 549.1 2.9 L 548.3 0.0" fill="none" stroke="#39ff88" stroke-width="6.0" stroke-opacity="0.9"/><path d="M 1226.7 1000.0 L 1230.2 994.0 L 1233.7 987.8 L 1237.2 981.6 L 1240.7 975.3 L 1244.1 969.0 L 1247.5 962.7 L 1250.9 956.3 L 1254.2 950.0 L 1257.6 943.6 L 1260.9 937.3 L 1264.2 931.0 L 1264.2 931.0 L 1267.6 924.7 L 1270.8 918.3 L 1274.1 911.9 L 1277.3 905.5 L 1280.5 899.1 L 1283.6 892.7 L 1286.7 886.3 L 1289.8 879.8 L 1292.9 873.4 L 1296.0 866.9 L 1299.1 860.4 L 1302.2 854.0 L 1305.2 847.5 L 1308.3 841.1 L 1311.5 834.6 L 1314.6 828.2 L 1314.6 828.2 L 1317.8 821.8 L 1321.0 815.4 L 1324.2 809.0 L 1327.4 802.6 L 1330.6 796.2 L 1333.9 789.8 L 1337.1 783.4 L 1340.3 777.0 L 1343.5 770.6 L 1346.7 764.2 L 1349.9 757.8 L 1353.0 751.4 L 1356.1 744.9 L 1359.1 738.5 L 1362.1 732.0 L 1365.1 725.4 L 1365.1 725.4 L 1368.0 718.9 L 1370.9 712.4 L 1373.9 705.9 L 1376.9 699.3 L 1379.8 692.8 L 1382.7 686.2 L 1385.6 679.6 L 1388.4 673.0 L 1391.2 666.4 L 1393.9 659.8 L 1396.5 653.1 L 1398.9 646.4 L 1401.3 639.7 L 1403.5 632.9 L 1405.6 626.2 L 1407.5 619.3 L 1407.5 619.3 L 1409.3 612.5 L 1411.1 605.5 L 1412.7 598.6 L 1414.2 591.6 L 1415.7 584.5 L 1417.0 577.5 L 1418.3 570.4 L 1419.4 563.2 L 1420.4 556.1 L 1421.3 549.0 L 1422.1 541.9 L 1422.7 534.7 L 1423.3 527.6 L 1423.6 520.5 L 1423.9 513.4 L 1423.9 506.3 L 1423.9 506.3 L 1423.7 499.1 L 1423.0 491.7 L 1422.0 484.1 L 1420.6 476.3 L 1419.1 468.5 L 1417.3 460.7 L 1415.5 452.9 L 1413.7 445.2 L 1412.0 437.6 L 1410.4 430.3 L 1409.0 423.2 L 1407.9 416.4 L 1407.1 410.0 L 1406.8 404.0 L 1407.0 398.5 L 1407.7 393.5 L 1407.7 393.5 L 1409.0 388.8 L 1410.8 384.2 L 1412.9 379.8 L 1415.4 375.6 L 1418.3 371.5 L 1421.4 367.8 L 1424.7 364.4 L 1428.3 361.3 L 1431.9 358.7 L 1435.7 356.6 L 1439.5 354.9 L 1443.3 353.8 L 1447.0 353.3 L 1450.7 353.4 L 1454.2 354.3 L 1457.6 355.8 L 1457.6 355.8 L 1460.9 358.5 L 1464.5 362.5 L 1468.2 367.5 L 1472.0 373.6 L 1475.9 380.4 L 1479.9 387.7 L 1483.8 395.6 L 1487.6 403.6 L 1491.4 411.8 L 1495.0 419.8 L 1498.4 427.5 L 1501.7 434.9 L 1504.6 441.5 L 1507.2 447.4 L 1509.5 452.3 L 1511.4 456.1" fill="none" stroke="#2b6bff" stroke-width="6.0" stroke-opacity="0.9"/><path d="M 1522.1 385.8 L 1523.2 382.6 L 1524.4 378.4 L 1525.9 373.5 L 1527.5 367.9 L 1529.2 361.9 L 1531.1 355.4 L 1533.1 348.7 L 1535.2 341.9 L 1537.3 335.0 L 1539.6 328.2 L 1541.8 321.6 L 1544.1 315.4 L 1546.4 309.7 L 1548.8 304.5 L 1551.1 300.1 L 1553.3 296.5 L 1553.3 296.5 L 1555.7 293.4 L 1558.2 290.6 L 1561.0 288.0 L 1563.8 285.7 L 1566.8 283.6 L 1569.8 281.9 L 1572.8 280.4 L 1575.8 279.3 L 1578.7 278.6 L 1581.5 278.2 L 1584.1 278.3 L 1586.5 278.7 L 1588.7 279.6 L 1590.7 280.9 L 1592.3 282.7 L 1593.5 285.0 L 1593.5 285.0 L 1594.3 288.3 L 1594.6 292.8 L 1594.4 298.4 L 1593.8 304.9 L 1593.0 312.1 L 1591.9 319.7 L 1590.8 327.6 L 1589.5 335.6 L 1588.3 343.5 L 1587.2 351.0 L 1586.3 358.0 L 1585.7 364.3 L 1585.4 369.7 L 1585.5 374.0 L 1586.1 376.9 L 1587.3 378.4 L 1587.3 378.4 L 1589.1 378.2 L 1591.4 376.5 L 1594.2 373.5 L 1597.3 369.4 L 1600.8 364.4 L 1604.6 358.7 L 1608.5 352.4 L 1612.6 345.9 L 1616.7 339.1 L 1620.9 332.5 L 1624.9 326.1 L 1628.8 320.1 L 1632.5 314.7 L 1636.0 310.2 L 1639.0 306.6 L 1641.7 304.3 L 1641.7 304.3 L 1644.1 302.9 L 1646.4 302.0 L 1648.6 301.6 L 1650.8 301.7 L 1652.8 302.1 L 1654.6 303.0 L 1656.4 304.1 L 1658.0 305.6 L 1659.5 307.4 L 1660.9 309.5 L 1662.1 311.7 L 1663.1 314.2 L 1664.0 316.8 L 1664.7 319.6 L 1665.3 322.5 L 1665.6 325.4 L 1665.6 325.4 L 1665.6 328.8 L 1665.1 333.1 L 1664.2 338.1 L 1662.9 343.7 L 1661.4 349.6 L 1659.7 355.8 L 1657.9 362.1 L 1656.0 368.4 L 1654.3 374.4 L 1652.6 380.2 L 1651.2 385.4 L 1650.1 390.0 L 1649.4 393.8 L 1649.2 396.7 L 1649.4 398.5 L 1650.4 399.1 L 1650.4 399.1 L 1652.0 398.1 L 1654.2 395.7 L 1657.1 392.0 L 1660.4 387.2 L 1664.1 381.6 L 1668.2 375.3 L 1672.4 368.5 L 1676.8 361.5 L 1681.2 354.5 L 1685.5 347.7 L 1689.7 341.2 L 1693.7 335.4 L 1697.4 330.3 L 1700.7 326.4 L 1703.4 323.6 L 1705.6 322.3 L 1705.6 322.3 L 1707.3 322.2 L 1708.8 323.1 L 1710.0 324.8 L 1711.0 327.3 L 1711.8 330.4 L 1712.3 334.0 L 1712.7 338.1 L 1712.9 342.7 L 1713.0 347.5 L 1712.8 352.5 L 1712.6 357.7 L 1712.2 362.9 L 1711.6 368.1 L 1711.0 373.1 L 1710.2 377.9 L 1709.4 382.4 L 1709.4 382.4 L 1708.2 387.0 L 1706.4 392.3 L 1704.1 398.0 L 1701.5 404.0 L 1698.6 410.3 L 1695.6 416.6 L 1692.4 423.0 L 1689.3 429.3 L 1686.3 435.2 L 1683.6 440.9 L 1681.1 446.0 L 1679.1 450.6 L 1677.6 454.4 L 1676.7 457.4 L 1676.6 459.4 L 1677.2 460.3 L 1677.2 460.3 L 1678.8 459.9 L 1681.4 458.0 L 1684.8 454.9 L 1688.8 450.7 L 1693.4 445.7 L 1698.5 440.1 L 1703.8 434.0 L 1709.4 427.7 L 1714.9 421.4 L 1720.4 415.3 L 1725.7 409.6 L 1730.7 404.5 L 1735.2 400.2 L 1739.1 396.9 L 1742.3 394.9 L 1744.7 394.2 L 1744.7 394.2 L 1746.4 394.9 L 1747.8 396.6 L 1748.8 399.1 L 1749.5 402.3 L 1749.9 406.3 L 1750.1 410.8 L 1749.9 415.8 L 1749.4 421.2 L 1748.8 426.8 L 1747.8 432.6 L 1746.7 438.5 L 1745.3 444.3 L 1743.8 450.0 L 1742.1 455.5 L 1740.2 460.7 L 1738.2 465.4 L 1738.2 465.4 L 1735.9 469.9 L 1733.3 474.4 L 1730.3 479.0 L 1727.1 483.6 L 1723.6 488.3 L 1719.9 492.9 L 1716.0 497.5 L 1712.0 502.1 L 1707.8 506.7 L 1703.5 511.3 L 1699.2 515.8 L 1694.8 520.3 L 1690.4 524.8 L 1686.1 529.2 L 1681.8 533.5 L 1677.6 537.7 L 1677.6 537.7 L 1673.4 541.9 L 1669.1 545.9 L 1664.7 549.8 L 1660.2 553.7 L 1655.7 557.5 L 1651.1 561.2 L 1646.4 564.9 L 1641.8 568.6 L 1637.1 572.3 L 1632.5 576.1 L 1627.9 579.8 L 1623.3 583.6 L 1618.9 587.5 L 1614.5 591.4 L 1610.2 595.5 L 1606.0 599.6 L 1606.0 599.6 L 1601.9 603.8 L 1597.8 608.1 L 1593.7 612.4 L 1589.7 616.7 L 1585.7 621.1 L 1581.7 625.5 L 1577.8 630.0 L 1574.0 634.5 L 1570.2 639.0 L 1566.4 643.6 L 1562.8 648.3 L 1559.2 653.0 L 1555.7 657.7 L 1552.4 662.5 L 1549.1 667.4 L 1545.9 672.3 L 1545.9 672.3 L 1542.8 677.3 L 1539.9 682.4 L 1537.0 687.5 L 1534.3 692.7 L 1531.7 698.0 L 1529.2 703.4 L 1526.7 708.7 L 1524.3 714.2 L 1521.9 719.6 L 1519.6 725.1 L 1517.3 730.6 L 1515.0 736.1 L 1512.7 741.5 L 1510.4 747.0 L 1508.1 752.5 L 1505.8 757.9 L 1505.8 757.9 L 1503.4 763.4 L 1501.2 768.8 L 1498.9 774.3 L 1496.7 779.8 L 1494.5 785.3 L 1492.3 790.8 L 1490.1 796.3 L 1488.0 801.8 L 1485.9 807.3 L 1483.7 812.8 L 1481.6 818.4 L 1479.4 823.9 L 1477.3 829.4 L 1475.1 834.9 L 1472.9 840.4 L 1470.6 845.9 L 1470.6 845.9 L 1468.4 851.3 L 1466.1 856.8 L 1463.8 862.3 L 1461.6 867.7 L 1459.3 873.2 L 1457.0 878.6 L 1454.7 884.1 L 1452.4 889.5 L 1450.0 895.0 L 1447.7 900.4 L 1445.4 905.9 L 1443.1 911.3 L 1440.8 916.8 L 1438.5 922.2 L 1436.2 927.7 L 1433.9 933.1 L 1433.9 933.1 L 1431.7 938.6 L 1429.4 944.1 L 1427.2 949.6 L 1425.0 955.1 L 1422.9 960.6 L 1420.7 966.1 L 1418.5 971.6 L 1416.3 977.1 L 1414.1 982.6 L 1411.9 988.1 L 1409.6 993.6 L 1407.3 999.0 L 1406.9 1000.0" fill="none" stroke="#2b6bff" stroke-width="6.0" stroke-opacity="0.9"/><path d="M 1723.5 1000.0 L 1724.2 999.2 L 1729.1 993.7 L 1734.0 988.2 L 1739.0 982.7 L 1743.9 977.1 L 1748.8 971.6 L 1753.7 966.1 L 1758.6 960.5 L 1763.5 955.0 L 1768.4 949.5 L 1768.4 949.5 L 1773.3 944.0 L 1778.2 938.4 L 1783.1 932.9 L 1788.0 927.4 L 1793.0 921.9 L 1797.9 916.4 L 1802.8 910.9 L 1807.7 905.3 L 1812.6 899.8 L 1817.5 894.3 L 1822.4 888.7 L 1827.2 883.2 L 1832.1 877.6 L 1837.0 872.0 L 1841.8 866.5 L 1846.6 860.9 L 1846.6 860.9 L 1851.4 855.3 L 1856.2 849.6 L 1861.0 844.0 L 1865.8 838.4 L 1870.5 832.7 L 1875.3 827.1 L 1880.0 821.4 L 1884.8 815.7 L 1889.5 810.0 L 1894.2 804.4 L 1898.9 798.7 L 1903.7 793.0 L 1908.4 787.3 L 1913.1 781.6 L 1917.8 775.9 L 1922.5 770.2 L 1922.5 770.2 L 1927.1 764.5 L 1931.8 758.7 L 1936.4 753.0 L 1941.1 747.2 L 1945.7 741.4 L 1950.3 735.6 L 1954.9 729.9 L 1959.5 724.1 L 1964.1 718.3 L 1968.7 712.5 L 1973.3 706.8 L 1978.0 701.0 L 1982.6 695.3 L 1987.4 689.6 L 1992.1 684.0 L 1996.9 678.3 L 1996.9 678.3 L 2000.0 674.6" fill="none" stroke="#2b6bff" stroke-width="6.0" stroke-opacity="0.9"/></g><g id="clips"><circle cx="341.9" cy="0.0" r="2" fill="none" stroke="#0b5" stroke-width="0.6"/><circle cx="767.5" cy="585.5" r="2" fill="none" stroke="#0b5" stroke-width="0.6"/><circle cx="722.7" cy="426.1" r="2" fill="none" stroke="#0b5" stroke-width="0.6"/><circle cx="794.0" cy="490.0" r="2" fill="none" stroke="#0b5" stroke-width="0.6"/><circle cx="786.3" cy="599.8" r="2" fill="none" stroke="#0b5" stroke-width="0.6"/><circle cx="548.3" cy="0.0" r="2" fill="none" stroke="#0b5" stroke-width="0.6"/><circle cx="1226.7" cy="1000.0" r="2" fill="none" stroke="#0b5" stroke-width="0.6"/><circle cx="1511.4" cy="456.1" r="2" fill="none" stroke="#0b5" stroke-width="0.6"/><circle cx="1522.1" cy="385.8" r="2" fill="none" stroke="#0b5" stroke-width="0.6"/><circle cx="1406.9" cy="1000.0" r="2" fill="none" stroke="#0b5" stroke-width="0.6"/><circle cx="1723.5" cy="1000.0" r="2" fill="none" stroke="#0b5" stroke-width="0.6"/><circle cx="2000.0" cy="674.6" r="2" fill="none" stroke="#0b5" stroke-width="0.6"/></g><g id="power"><circle cx="2000.0" cy="674.7" r="5" fill="none" stroke="#e33" stroke-width="1"/><circle cx="1226.7" cy="1000.0" r="5" fill="none" stroke="#e33" stroke-width="1"/><circle cx="1406.9" cy="1000.0" r="5" fill="none" stroke="#e33" stroke-width="1"/><circle cx="1723.5" cy="1000.0" r="5" fill="none" stroke="#e33" stroke-width="1"/><circle cx="341.8" cy="0.0" r="5" fill="none" stroke="#e33" stroke-width="1"/><circle cx="548.3" cy="0.0" r="5" fill="none" stroke="#e33" stroke-width="1"/></g></svg>