<svg xmlns="http://www.w3.org/2000/svg" width="2000mm" height="1000mm" viewBox="0 0 2000 1000"><g id="outline"><rect x="0" y="0" width="2000" height="1000" fill="none" stroke="#000" stroke-width="1"/></g><g id="channels"><path d="M 1375.2 31.9 L 1377.4 33.5 L 1380.5 35.4 L 1384.2 37.5 L 1388.4 39.8 L 1393.0 42.3 L 1397.9 45.0 L 1402.9 47.9 L 1408.0 50.9 L 1412.9 54.2 L 1417.6 57.6 L 1422.0 61.2 L 1425.8 65.0 L 1429.1 69.0 L 1431.5 73.1 L 1433.2 77.4 L 1433.8 81.8 L 1433.8 81.8 L 1433.5 86.5 L 1432.5 91.6 L 1430.8 97.0 L 1428.4 102.7 L 1425.6 108.6 L 1422.3 114.7 L 1418.6 121.0 L 1414.5 127.3 L 1410.2 133.7 L 1405.7 140.2 L 1401.0 146.5 L 1396.3 152.9 L 1391.6 159.1 L 1386.9 165.1 L 1382.4 170.9 L 1378.0 176.5 L 1378.0 176.5 L 1373.7 181.8 L 1369.1 187.0 L 1364.3 192.0 L 1359.3 196.9 L 1354.1 201.7 L 1348.9 206.4 L 1343.6 211.1 L 1338.2 215.8 L 1332.9 220.5 L 1327.6 225.2 L 1322.4 230.0 L 1317.3 234.8 L 1312.4 239.8 L 1307.7 244.9 L 1303.3 250.2 L 1299.1 255.7 L 1299.1 255.7 L 1295.2 261.5 L 1291.7 267.7 L 1288.5 274.1 L 1285.6 280.7 L 1282.8 287.5 L 1280.2 294.4 L 1277.6 301.3 L 1275.1 308.2 L 1272.5 315.1 L 1269.8 321.8 L 1267.0 328.3 L 1264.0 334.5 L 1260.7 340.5 L 1257.1 346.0 L 1253.1 351.2 L 1248.6 355.8 L 1248.6 355.8 L 1243.8 360.1 L 1238.7 364.0 L 1233.3 367.7 L 1227.6 371.1 L 1221.8 374.2 L 1215.7 377.1 L 1209.4 379.8 L 1203.0 382.3 L 1196.5 384.5 L 1189.9 386.6 L 1183.3 388.5 L 1176.5 390.3 L 1169.8 391.9 L 1163.1 393.3 L 1156.4 394.6 L 1149.8 395.8 L 1149.8 395.8 L 1143.1 396.8 L 1136.3 397.2 L 1129.5 397.4 L 1122.5 397.1 L 1115.5 396.7 L 1108.4 396.0 L 1101.3 395.3 L 1094.1 394.4 L 1087.0 393.6 L 1079.8 392.8 L 1072.7 392.1 L 1065.6 391.7 L 1058.5 391.4 L 1051.5 391.5 L 1044.6 392.0 L 1037.8 392.9 L 1037.8 392.9 L 1031.1 394.1 L 1024.3 395.6 L 1017.6 397.3 L 1010.9 399.2 L 1004.3 401.3 L 997.7 403.5 L 991.1 406.0 L 984.5 408.5 L 978.0 411.2 L 971.5 413.9 L 965.0 416.8 L 958.6 419.7 L 952.2 422.7 L 945.8 425.7 L 939.5 428.7 L 933.2 431.8 L 933.2 431.8 L 927.0 434.8 L 920.8 438.1 L 914.6 441.4 L 908.5 444.9 L 902.5 448.4 L 896.5 452.0 L 890.5 455.7 L 884.5 459.4 L 878.6 463.2 L 872.7 467.0 L 866.7 470.8 L 860.8 474.6 L 854.9 478.4 L 848.9 482.2 L 843.0 485.9 L 837.0 489.6 L 837.0 489.6 L 831.0 493.2 L 825.0 496.9 L 819.0 500.5 L 813.0 504.2 L 807.1 507.9 L 801.1 511.6 L 795.1 515.3 L 789.2 519.0 L 783.2 522.7 L 777.2 526.3 L 771.3 530.0 L 765.3 533.7 L 759.3 537.3 L 753.3 541.0 L 747.3 544.6 L 741.3 548.2 L 741.3 548.2 L 735.3 551.9 L 729.3 555.5 L 723.3 559.2 L 717.3 562.9 L 711.3 566.5 L 705.3 570.2 L 699.3 573.9 L 693.3 577.5 L 687.3 581.2 L 681.2 584.7 L 675.2 588.3 L 669.1 591.7 L 663.0 595.1 L 656.8 598.5 L 650.6 601.7 L 644.4 604.9 L 644.4 604.9 L 638.1 608.0 L 631.8 611.1 L 625.5 614.2 L 619.2 617.2 L 612.8 620.2 L 606.4 623.2 L 600.0 626.1 L 593.6 628.9 L 587.1 631.7 L 580.6 634.3 L 574.1 636.9 L 567.6 639.4 L 561.0 641.8 L 554.4 644.0 L 547.7 646.1 L 541.1 648.1 L 541.1 648.1 L 534.4 649.9 L 527.6 651.5 L 520.7 652.9 L 513.9 654.2 L 506.9 655.3 L 500.0 656.3 L 493.0 657.3 L 486.0 658.1 L 479.0 659.0 L 472.0 659.8 L 465.0 660.7 L 458.0 661.6 L 451.1 662.6 L 444.1 663.7 L 437.3 664.9 L 430.4 666.3 L 430.4 666.3 L 423.5 667.7 L 416.6 669.0 L 409.6 670.3 L 402.6 671.6 L 395.6 672.9 L 388.6 674.2 L 381.6 675.5 L 374.7 676.9 L 367.8 678.5 L 361.0 680.2 L 354.2 682.0 L 347.6 684.1 L 341.1 686.3 L 334.7 688.8 L 328.5 691.6 L 322.4 694.6 L 322.4 694.6 L 316.5 698.0 L 310.7 701.6 L 305.1 705.5 L 299.5 709.6 L 294.1 713.9 L 288.7 718.4 L 283.5 723.1 L 278.3 727.9 L 273.2 732.8 L 268.2 737.9 L 263.3 743.0 L 258.4 748.1 L 253.5 753.3 L 248.7 758.5 L 244.0 763.7 L 239.2 768.8 L 239.2 768.8 L 234.6 774.0 L 230.0 779.3 L 225.5 784.6 L 221.1 790.1 L 216.8 795.6 L 212.6 801.2 L 208.3 806.8 L 204.2 812.5 L 200.1 818.2 L 196.0 823.9 L 191.9 829.7 L 187.8 835.4 L 183.8 841.2 L 179.7 846.9 L 175.6 852.7 L 171.5 858.3 L 171.5 858.3 L 167.4 864.0 L 163.3 869.7 L 159.3 875.5 L 155.2 881.2 L 151.2 886.9 L 147.2 892.7 L 143.2 898.4 L 139.2 904.2 L 135.2 910.0 L 131.2 915.8 L 127.3 921.6 L 123.3 927.4 L 119.3 933.1 L 115.4 938.9 L 111.4 944.7 L 107.4 950.5 L 107.4 950.5 L 103.4 956.3 L 99.5 962.1 L 95.5 967.9 L 91.6 973.7 L 87.7 979.5 L 83.7 985.3 L 79.8 991.1 L 75.9 996.9 L 73.8 1000.0" fill="none" stroke="#2b6bff" stroke-width="6.0" stroke-opacity="0.9"/><path d="M 313.3 1000.0 L 313.6 999.8 L 319.6 996.1 L 319.6 996.1 L 325.5 992.4 L 331.4 988.6 L 337.3 984.7 L 343.2 980.9 L 349.1 977.0 L 355.0 973.1 L 360.8 969.2 L 366.7 965.4 L 372.6 961.6 L 378.6 957.8 L 384.5 954.1 L 390.5 950.4 L 396.5 946.9 L 402.6 943.5 L 408.8 940.1 L 415.0 936.9 L 415.0 936.9 L 421.2 933.9 L 427.5 930.8 L 433.8 927.8 L 440.2 924.9 L 446.6 922.0 L 453.0 919.2 L 459.5 916.5 L 466.0 913.9 L 472.5 911.3 L 479.1 908.9 L 485.7 906.5 L 492.3 904.2 L 498.9 902.1 L 505.6 900.0 L 512.3 898.1 L 519.0 896.2 L 519.0 896.2 L 525.7 894.6 L 532.5 893.2 L 539.4 891.9 L 546.3 890.8 L 553.2 889.8 L 560.2 889.0 L 567.2 888.2 L 574.2 887.5 L 581.2 886.8 L 588.2 886.1 L 595.3 885.4 L 602.3 884.6 L 609.3 883.8 L 616.3 882.8 L 623.2 881.8 L 630.1 880.6 L 630.1 880.6 L 637.0 879.3 L 643.9 877.9 L 650.7 876.4 L 657.6 874.9 L 664.4 873.3 L 671.2 871.7 L 678.0 870.0 L 684.9 868.4 L 691.7 866.7 L 698.5 865.0 L 705.3 863.3 L 712.1 861.6 L 718.9 860.0 L 725.8 858.4 L 732.6 856.8 L 739.5 855.3 L 739.5 855.3 L 746.3 853.8 L 753.2 852.4 L 760.0 850.9 L 766.9 849.5 L 773.8 848.1 L 780.7 846.7 L 787.5 845.3 L 794.4 843.9 L 801.3 842.5 L 808.2 841.2 L 815.1 839.8 L 821.9 838.5 L 828.8 837.1 L 835.7 835.8 L 842.6 834.4 L 849.5 833.1 L 849.5 833.1 L 856.4 831.7 L 863.3 830.4 L 870.2 829.2 L 877.1 827.9 L 884.0 826.7 L 890.9 825.5 L 897.8 824.3 L 904.7 823.1 L 911.7 821.8 L 918.6 820.5 L 925.5 819.3 L 932.3 817.9 L 939.2 816.5 L 946.1 815.1 L 952.9 813.6 L 959.8 812.0 L 959.8 812.0 L 966.6 810.4 L 973.4 808.8 L 980.2 807.1 L 987.0 805.4 L 993.8 803.7 L 1000.6 801.9 L 1007.4 800.1 L 1014.2 798.3 L 1021.0 796.4 L 1027.7 794.5 L 1034.4 792.5 L 1041.2 790.4 L 1047.8 788.3 L 1054.5 786.2 L 1061.1 784.0 L 1067.8 781.7 L 1067.8 781.7 L 1074.4 779.4 L 1081.0 777.0 L 1087.7 774.7 L 1094.3 772.3 L 1101.0 769.9 L 1107.6 767.5 L 1114.3 765.0 L 1120.8 762.4 L 1127.4 759.7 L 1133.9 757.0 L 1140.3 754.1 L 1146.6 751.1 L 1152.8 748.0 L 1159.0 744.8 L 1165.0 741.4 L 1170.9 737.8 L 1170.9 737.8 L 1176.7 734.0 L 1182.5 730.1 L 1188.1 726.1 L 1193.7 721.9 L 1199.2 717.7 L 1204.7 713.2 L 1210.0 708.7 L 1215.3 704.1 L 1220.5 699.4 L 1225.7 694.6 L 1230.8 689.7 L 1235.7 684.8 L 1240.7 679.8 L 1245.5 674.7 L 1250.3 669.6 L 1255.0 664.5 L 1255.0 664.5 L 1259.6 659.3 L 1264.1 654.0 L 1268.4 648.5 L 1272.7 643.0 L 1277.0 637.4 L 1281.1 631.7 L 1285.2 626.0 L 1289.2 620.2 L 1293.1 614.4 L 1297.0 608.5 L 1300.9 602.6 L 1304.7 596.7 L 1308.5 590.7 L 1312.3 584.8 L 1316.1 578.9 L 1319.9 573.0 L 1319.9 573.0 L 1323.7 567.1 L 1327.5 561.2 L 1331.2 555.2 L 1335.0 549.3 L 1338.7 543.3 L 1342.3 537.3 L 1346.0 531.3 L 1349.6 525.3 L 1353.1 519.2 L 1356.6 513.1 L 1360.1 507.0 L 1363.5 500.9 L 1366.8 494.7 L 1370.1 488.5 L 1373.3 482.3 L 1376.5 476.0 L 1376.5 476.0 L 1379.5 469.8 L 1382.5 463.4 L 1385.4 457.1 L 1388.2 450.6 L 1391.0 444.2 L 1393.7 437.7 L 1396.4 431.2 L 1399.0 424.7 L 1401.6 418.2 L 1404.2 411.7 L 1406.7 405.1 L 1409.3 398.6 L 1411.8 392.0 L 1414.3 385.5 L 1416.9 379.0 L 1419.4 372.5 L 1419.4 372.5 L 1421.9 365.7 L 1424.2 358.4 L 1426.4 350.7 L 1428.6 342.8 L 1430.7 334.7 L 1432.7 326.6 L 1434.8 318.5 L 1436.9 310.6 L 1439.0 303.0 L 1441.3 295.9 L 1443.6 289.3 L 1446.2 283.3 L 1448.9 278.1 L 1451.8 273.7 L 1455.0 270.4 L 1458.5 268.1 L 1458.5 268.1 L 1462.3 267.1 L 1466.7 267.4 L 1471.5 268.8 L 1476.7 271.2 L 1482.1 274.4 L 1487.6 278.2 L 1493.3 282.5 L 1499.0 287.2 L 1504.6 292.1 L 1510.0 297.1 L 1515.2 301.9 L 1520.0 306.5 L 1524.5 310.7 L 1528.5 314.4 L 1531.9 317.3 L 1534.6 319.4" fill="none" stroke="#2b6bff" stroke-width="6.0" stroke-opacity="0.9"/><path d="M 1562.4 311.7 L 1563.8 315.1 L 1565.8 319.3 L 1568.2 324.0 L 1571.0 329.3 L 1574.0 335.1 L 1577.2 341.3 L 1580.5 347.9 L 1583.8 354.7 L 1587.0 361.6 L 1590.0 368.7 L 1592.8 375.9 L 1595.2 383.0 L 1597.3 390.0 L 1598.8 396.8 L 1599.7 403.4 L 1599.9 409.6 L 1599.9 409.6 L 1599.5 415.7 L 1598.6 421.7 L 1597.1 427.7 L 1595.3 433.8 L 1593.0 439.8 L 1590.4 445.8 L 1587.6 451.8 L 1584.5 457.8 L 1581.2 463.8 L 1577.9 469.8 L 1574.5 475.7 L 1571.0 481.7 L 1567.7 487.6 L 1564.4 493.6 L 1561.2 499.5 L 1558.3 505.5 L 1558.3 505.5 L 1555.4 511.4 L 1552.5 517.2 L 1549.5 523.1 L 1546.4 528.9 L 1543.3 534.7 L 1540.1 540.5 L 1537.0 546.3 L 1533.8 552.1 L 1530.6 558.0 L 1527.5 563.8 L 1524.4 569.6 L 1521.4 575.5 L 1518.4 581.4 L 1515.5 587.3 L 1512.7 593.3 L 1510.0 599.3 L 1510.0 599.3 L 1507.5 605.4 L 1505.3 611.6 L 1503.2 618.0 L 1501.3 624.5 L 1499.5 631.0 L 1497.7 637.5 L 1496.0 644.1 L 1494.2 650.6 L 1492.4 657.1 L 1490.5 663.5 L 1488.4 669.8 L 1486.2 675.9 L 1483.7 681.9 L 1481.0 687.7 L 1477.9 693.3 L 1474.5 698.7 L 1474.5 698.7 L 1470.8 703.8 L 1466.9 708.8 L 1462.6 713.6 L 1458.2 718.3 L 1453.6 722.8 L 1448.8 727.2 L 1443.8 731.5 L 1438.7 735.7 L 1433.5 739.8 L 1428.2 743.8 L 1422.8 747.7 L 1417.4 751.5 L 1411.9 755.2 L 1406.4 758.9 L 1400.9 762.5 L 1395.4 766.0 L 1395.4 766.0 L 1389.9 769.5 L 1384.2 772.7 L 1378.5 775.8 L 1372.6 778.7 L 1366.6 781.5 L 1360.6 784.2 L 1354.5 786.9 L 1348.3 789.5 L 1342.2 792.1 L 1336.0 794.7 L 1329.9 797.3 L 1323.8 799.9 L 1317.8 802.7 L 1311.8 805.5 L 1305.9 808.5 L 1300.0 811.7 L 1300.0 811.7 L 1294.3 814.9 L 1288.6 818.2 L 1282.9 821.5 L 1277.2 824.9 L 1271.6 828.4 L 1266.0 831.9 L 1260.4 835.4 L 1254.8 839.0 L 1249.3 842.6 L 1243.8 846.2 L 1238.3 849.9 L 1232.9 853.7 L 1227.4 857.4 L 1222.0 861.2 L 1216.6 865.0 L 1211.2 868.9 L 1211.2 868.9 L 1205.9 872.7 L 1200.6 876.7 L 1195.4 880.7 L 1190.2 884.8 L 1185.0 888.9 L 1179.9 893.1 L 1174.8 897.3 L 1169.7 901.5 L 1164.6 905.7 L 1159.5 909.9 L 1154.4 914.2 L 1149.3 918.4 L 1144.2 922.6 L 1139.1 926.7 L 1133.9 930.8 L 1128.7 934.9 L 1128.7 934.9 L 1123.5 939.0 L 1118.3 943.0 L 1113.1 947.1 L 1107.8 951.2 L 1102.6 955.2 L 1097.4 959.3 L 1092.2 963.3 L 1086.9 967.3 L 1081.6 971.3 L 1076.4 975.3 L 1071.1 979.3 L 1065.8 983.2 L 1060.4 987.1 L 1055.1 991.0 L 1049.7 994.8 L 1044.3 998.6 L 1044.3 998.6 L 1042.2 1000.0" fill="none" stroke="#2b6bff" stroke-width="6.0" stroke-opacity="0.9"/><path d="M 0.0 674.6 L 1.6 672.7 L 6.4 667.0 L 11.2 661.4 L 15.9 655.7 L 20.7 650.0 L 25.5 644.3 L 30.3 638.7 L 35.1 633.1 L 40.0 627.5 L 44.9 622.0 L 49.9 616.5 L 55.0 611.1 L 60.1 605.8 L 65.2 600.6 L 70.5 595.4 L 75.9 590.4 L 75.9 590.4 L 81.3 585.5 L 86.8 580.5 L 92.3 575.7 L 97.9 570.8 L 103.6 566.1 L 109.3 561.4 L 115.0 556.7 L 120.9 552.2 L 126.8 547.7 L 132.7 543.3 L 138.7 539.0 L 144.8 534.8 L 150.9 530.7 L 157.1 526.7 L 163.3 522.8 L 169.6 519.1 L 169.6 519.1 L 176.0 515.5 L 182.5 512.0 L 189.0 508.7 L 195.6 505.6 L 202.3 502.5 L 209.1 499.5 L 215.9 496.7 L 222.8 493.9 L 229.7 491.1 L 236.6 488.4 L 243.6 485.8 L 250.5 483.2 L 257.5 480.6 L 264.4 478.0 L 271.3 475.4 L 278.2 472.7 L 278.2 472.7 L 285.1 470.1 L 292.0 467.5 L 299.0 464.9 L 305.9 462.4 L 312.9 459.9 L 319.8 457.5 L 326.8 455.0 L 333.8 452.6 L 340.8 450.3 L 347.8 447.9 L 354.8 445.6 L 361.9 443.3 L 368.9 441.0 L 375.9 438.7 L 383.0 436.4 L 390.0 434.2 L 390.0 434.2 L 397.0 432.0 L 404.1 429.8 L 411.1 427.6 L 418.2 425.5 L 425.3 423.3 L 432.4 421.2 L 439.5 419.1 L 446.6 417.1 L 453.7 415.0 L 460.8 413.0 L 467.9 411.0 L 475.0 409.0 L 482.1 407.0 L 489.2 405.0 L 496.3 403.1 L 503.5 401.1 L 503.5 401.1 L 510.6 399.2 L 517.7 397.3 L 524.9 395.4 L 532.0 393.6 L 539.2 391.8 L 546.4 389.9 L 553.5 388.2 L 560.7 386.4 L 567.9 384.6 L 575.1 382.8 L 582.2 381.0 L 589.4 379.3 L 596.6 377.5 L 603.7 375.7 L 610.9 373.9 L 618.1 372.1 L 618.1 372.1 L 625.2 370.2 L 632.4 368.4 L 639.5 366.6 L 646.7 364.7 L 653.9 362.9 L 661.0 361.1 L 668.2 359.2 L 675.3 357.4 L 682.5 355.5 L 689.6 353.7 L 696.8 351.8 L 703.9 350.0 L 711.1 348.2 L 718.3 346.4 L 725.4 344.5 L 732.6 342.7 L 732.6 342.7 L 739.7 340.9 L 746.9 339.1 L 754.1 337.3 L 761.2 335.5 L 768.4 333.7 L 775.6 331.9 L 782.7 330.1 L 789.9 328.3 L 797.1 326.5 L 804.2 324.7 L 811.4 322.9 L 818.6 321.2 L 825.8 319.4 L 832.9 317.6 L 840.1 315.9 L 847.3 314.1 L 847.3 314.1 L 854.5 312.4 L 861.7 310.7 L 868.9 309.2 L 876.2 307.6 L 883.4 306.1 L 890.7 304.6 L 897.9 303.1 L 905.2 301.6 L 912.4 300.0 L 919.7 298.4 L 926.8 296.7 L 934.0 294.9 L 941.1 293.0 L 948.2 291.1 L 955.3 288.9 L 962.2 286.7 L 962.2 286.7 L 969.2 284.3 L 976.1 281.8 L 983.0 279.2 L 989.9 276.5 L 996.7 273.7 L 1003.5 270.9 L 1010.3 267.9 L 1017.1 264.9 L 1023.8 261.9 L 1030.5 258.7 L 1037.1 255.5 L 1043.8 252.3 L 1050.4 249.0 L 1057.0 245.6 L 1063.5 242.3 L 1070.0 238.8 L 1070.0 238.8 L 1076.5 235.3 L 1083.0 231.8 L 1089.5 228.2 L 1095.9 224.6 L 1102.4 220.9 L 1108.8 217.2 L 1115.1 213.4 L 1121.5 209.5 L 1127.7 205.6 L 1134.0 201.6 L 1140.2 197.6 L 1146.3 193.5 L 1152.4 189.3 L 1158.5 185.0 L 1164.4 180.7 L 1170.3 176.3 L 1170.3 176.3 L 1176.1 171.8 L 1181.9 167.3 L 1187.6 162.6 L 1193.3 157.9 L 1198.8 153.1 L 1204.4 148.2 L 1209.9 143.3 L 1215.3 138.3 L 1220.7 133.3 L 1226.1 128.2 L 1231.4 123.1 L 1236.7 117.9 L 1242.0 112.7 L 1247.2 107.5 L 1252.4 102.3 L 1257.6 97.1 L 1257.6 97.1 L 1262.9 91.7 L 1268.4 86.0 L 1274.1 80.0 L 1279.8 73.7 L 1285.6 67.4 L 1291.3 61.0 L 1297.0 54.6 L 1302.6 48.3 L 1308.0 42.2 L 1313.1 36.3 L 1318.0 30.6 L 1322.6 25.4 L 1326.8 20.6 L 1330.5 16.2 L 1333.8 12.5 L 1336.6 9.4" fill="none" stroke="#2b6bff" stroke-width="6.0" stroke-opacity="0.9"/></g><g id="clips"><circle cx="1375.2" cy="31.9" r="2" fill="none" stroke="#0b5" stroke-width="0.6"/><circle cx="73.8" cy="1000.0" r="2" fill="none" stroke="#0b5" stroke-width="0.6"/><circle cx="313.3" cy="1000.0" r="2" fill="none" stroke="#0b5" stroke-width="0.6"/><circle cx="1534.6" cy="319.4" r="2" fill="none" stroke="#0b5" stroke-width="0.6"/><circle cx="1562.4" cy="311.7" r="2" fill="none" stroke="#0b5" stroke-width="0.6"/><circle cx="1042.2" cy="1000.0" r="2" fill="none" stroke="#0b5" stroke-width="0.6"/><circle cx="0.0" cy="674.6" r="2" fill="none" stroke="#0b5" stroke-width="0.6"/><circle cx="1336.6" cy="9.4" r="2" fill="none" stroke="#0b5" stroke-width="0.6"/></g><g id="power"><circle cx="0.0" cy="674.7" r="5" fill="none" stroke="#e33" stroke-width="1"/><circle cx="73.8" cy="1000.0" r="5" fill="none" stroke="#e33" stroke-width="1"/><circle cx="313.4" cy="1000.0" r="5" fill="none" stroke="#e33" stroke-width="1"/><circle cx="1042.3" cy="1000.0" r="5" fill="none" stroke="#e33" stroke-width="1"/></g></svg>