<svg xmlns="http://www.w3.org/2000/svg" width="2000mm" height="1000mm" viewBox="0 0 2000 1000"><g id="outline"><rect x="0" y="0" width="2000" height="1000" fill="none" stroke="#000" stroke-width="1"/></g><g id="channels"><path d="M 2000.0 436.0 L 1996.4 434.9 L 1990.0 432.6 L 1983.6 430.0 L 1977.3 427.3 L 1971.0 424.4 L 1964.9 421.3 L 1958.9 418.1 L 1953.0 414.7 L 1947.2 411.2 L 1947.2 411.2 L 1941.7 407.4 L 1936.3 403.2 L 1931.1 398.6 L 1926.1 393.7 L 1921.2 388.6 L 1916.4 383.3 L 1911.7 377.9 L 1907.0 372.3 L 1902.4 366.7 L 1897.7 361.1 L 1892.9 355.5 L 1888.1 350.1 L 1883.2 344.7 L 1878.2 339.6 L 1872.9 334.7 L 1867.5 330.1 L 1867.5 330.1 L 1861.9 325.8 L 1856.1 321.7 L 1850.1 317.8 L 1843.9 314.1 L 1837.7 310.5 L 1831.3 307.0 L 1824.9 303.6 L 1818.5 300.1 L 1812.2 296.7 L 1805.9 293.2 L 1799.7 289.6 L 1793.6 285.9 L 1787.6 282.0 L 1781.9 278.0 L 1776.4 273.7 L 1771.2 269.1 L 1771.2 269.1 L 1766.0 264.4 L 1760.8 259.5 L 1755.5 254.4 L 1750.2 249.3 L 1745.0 244.0 L 1739.8 238.6 L 1734.9 233.1 L 1730.1 227.5 L 1725.5 221.8 L 1721.3 216.0 L 1717.4 210.1 L 1713.9 204.2 L 1710.8 198.2 L 1708.2 192.2 L 1706.1 186.1 L 1704.6 179.9 L 1704.6 179.9 L 1703.7 173.4 L 1703.2 166.4 L 1703.2 158.8 L 1703.7 151.0 L 1704.5 142.8 L 1705.7 134.6 L 1707.3 126.4 L 1709.2 118.3 L 1711.4 110.5 L 1713.9 103.0 L 1716.7 95.9 L 1719.6 89.5 L 1722.8 83.8 L 1726.2 78.9 L 1729.7 75.0 L 1733.3 72.1 L 1733.3 72.1 L 1737.2 70.2 L 1741.5 69.3 L 1746.2 69.2 L 1751.2 69.8 L 1756.5 71.1 L 1762.0 73.0 L 1767.8 75.4 L 1773.7 78.1 L 1779.7 81.3 L 1785.9 84.7 L 1792.1 88.2 L 1798.3 91.9 L 1804.4 95.5 L 1810.5 99.1 L 1816.5 102.5 L 1822.3 105.7 L 1822.3 105.7 L 1828.0 108.9 L 1833.8 112.3 L 1839.6 115.9 L 1845.4 119.7 L 1851.2 123.7 L 1857.1 127.8 L 1863.0 131.9 L 1868.8 136.2 L 1874.8 140.5 L 1880.7 144.8 L 1886.6 149.1 L 1892.5 153.5 L 1898.5 157.7 L 1904.5 161.9 L 1910.4 166.0 L 1916.4 169.9 L 1916.4 169.9 L 1922.3 173.9 L 1928.3 177.8 L 1934.2 181.8 L 1940.2 185.9 L 1946.1 189.9 L 1952.0 193.9 L 1958.0 197.9 L 1964.0 201.9 L 1970.0 205.8 L 1976.0 209.6 L 1982.1 213.4 L 1988.2 217.0 L 1994.4 220.5 L 2000.0 223.5" fill="none" stroke="#ff7a1a" stroke-width="6.0" stroke-opacity="0.9"/></g><g id="clips"><circle cx="2000.0" cy="436.0" r="2" fill="none" stroke="#0b5" stroke-width="0.6"/><circle cx="2000.0" cy="223.5" r="2" fill="none" stroke="#0b5" stroke-width="0.6"/></g><g id="power"><circle cx="2000.0" cy="436.0" r="5" fill="none" stroke="#e33" stroke-width="1"/><circle cx="2000.0" cy="223.5" r="5" fill="none" stroke="#e33" stroke-width="1"/></g></svg>