<svg xmlns="http://www.w3.org/2000/svg" width="2000mm" height="1000mm" viewBox="0 0 2000 1000"><g id="outline"><rect x="0" y="0" width="2000" height="1000" fill="none" stroke="#000" stroke-width="1"/></g><g id="channels"><path d="M 1292.9 1000.0 L 1291.9 997.8 L 1289.2 991.9 L 1286.6 986.0 L 1284.0 980.1 L 1281.4 974.2 L 1278.9 968.2 L 1276.4 962.3 L 1273.9 956.3 L 1271.4 950.3 L 1269.0 944.3 L 1266.5 938.4 L 1264.1 932.4 L 1261.7 926.4 L 1261.7 926.4 L 1259.3 920.4 L 1256.9 914.4 L 1254.7 908.3 L 1252.4 902.3 L 1250.2 896.2 L 1248.1 890.1 L 1245.9 884.0 L 1243.7 877.9 L 1241.6 871.8 L 1239.4 865.7 L 1237.1 859.7 L 1234.8 853.6 L 1232.5 847.6 L 1230.1 841.6 L 1227.6 835.7 L 1225.1 829.8 L 1225.1 829.8 L 1222.4 823.9 L 1219.8 818.0 L 1217.1 812.1 L 1214.4 806.2 L 1211.7 800.3 L 1209.0 794.4 L 1206.2 788.6 L 1203.3 782.7 L 1200.4 777.0 L 1197.4 771.2 L 1194.4 765.5 L 1191.2 759.9 L 1188.0 754.3 L 1184.7 748.8 L 1181.3 743.4 L 1177.8 738.0 L 1177.8 738.0 L 1174.2 732.7 L 1170.5 727.4 L 1166.7 722.2 L 1162.9 717.1 L 1158.9 711.9 L 1154.9 706.9 L 1150.8 701.9 L 1146.7 696.9 L 1142.4 692.0 L 1138.1 687.2 L 1133.8 682.4 L 1129.3 677.7 L 1124.9 673.1 L 1120.3 668.5 L 1115.7 664.0 L 1111.1 659.6 L 1111.1 659.6 L 1106.3 655.2 L 1101.5 651.1 L 1096.5 647.0 L 1091.4 643.1 L 1086.2 639.2 L 1081.0 635.4 L 1075.7 631.7 L 1070.4 628.0 L 1065.1 624.3 L 1059.7 620.6 L 1054.4 616.9 L 1049.1 613.1 L 1043.8 609.3 L 1038.6 605.5 L 1033.5 601.6 L 1028.5 597.5 L 1028.5 597.5 L 1023.5 593.4 L 1018.5 589.4 L 1013.4 585.3 L 1008.4 581.2 L 1003.4 577.1 L 998.4 573.0 L 993.4 568.8 L 988.5 564.6 L 983.6 560.4 L 978.8 556.1 L 974.0 551.7 L 969.4 547.2 L 964.8 542.7 L 960.4 538.1 L 956.1 533.4 L 951.9 528.5 L 951.9 528.5 L 947.9 523.6 L 944.0 518.5 L 940.2 513.4 L 936.5 508.1 L 932.9 502.8 L 929.4 497.4 L 925.9 491.9 L 922.6 486.3 L 919.3 480.8 L 916.0 475.1 L 912.8 469.5 L 909.7 463.8 L 906.5 458.1 L 903.4 452.5 L 900.3 446.8 L 897.2 441.1 L 897.2 441.1 L 894.1 435.5 L 891.2 429.8 L 888.3 424.0 L 885.4 418.2 L 882.6 412.4 L 879.9 406.5 L 877.2 400.7 L 874.5 394.8 L 871.8 388.9 L 869.1 383.0 L 866.4 377.1 L 863.7 371.3 L 861.0 365.4 L 858.2 359.6 L 855.3 353.8 L 852.4 348.0 L 852.4 348.0 L 849.5 342.2 L 846.6 336.5 L 843.6 330.7 L 840.7 325.0 L 837.7 319.3 L 834.7 313.6 L 831.7 307.8 L 828.7 302.1 L 825.6 296.4 L 822.5 290.8 L 819.4 285.1 L 816.3 279.4 L 813.2 273.8 L 810.0 268.2 L 806.8 262.6 L 803.6 257.0 L 803.6 257.0 L 800.3 251.4 L 796.9 245.9 L 793.5 240.5 L 790.0 235.0 L 786.4 229.6 L 782.9 224.2 L 779.3 218.8 L 775.7 213.4 L 772.1 208.0 L 768.6 202.6 L 765.1 197.2 L 761.6 191.7 L 758.2 186.2 L 754.9 180.7 L 751.7 175.1 L 748.6 169.5 L 748.6 169.5 L 745.5 163.8 L 742.6 158.1 L 739.7 152.3 L 736.9 146.5 L 734.2 140.7 L 731.5 134.8 L 728.9 128.9 L 726.3 123.0 L 723.7 117.1 L 721.1 111.2 L 718.5 105.2 L 715.9 99.3 L 713.4 93.4 L 710.7 87.5 L 708.1 81.6 L 705.4 75.8 L 705.4 75.8 L 702.7 69.9 L 700.1 64.0 L 697.5 58.1 L 695.0 52.1 L 692.4 46.2 L 689.9 40.2 L 687.3 34.3 L 684.8 28.3 L 682.2 22.4 L 679.5 16.5 L 676.8 10.7 L 674.0 4.9 L 671.6 0.0" fill="none" stroke="#00e5ff" stroke-width="6.0" stroke-opacity="0.9"/><path d="M 807.5 0.0 L 807.1 4.1 L 806.2 10.9 L 805.0 17.8 L 803.7 24.7 L 802.4 31.5 L 801.0 38.4 L 799.6 45.1 L 798.3 51.7 L 797.2 58.2 L 796.4 64.4 L 795.8 70.5 L 795.5 76.3 L 795.7 81.8 L 796.3 87.0 L 796.3 87.0 L 797.3 91.8 L 798.8 96.2 L 800.5 100.2 L 802.6 104.0 L 804.9 107.6 L 807.5 110.9 L 810.2 114.1 L 813.0 117.2 L 816.0 120.3 L 819.0 123.4 L 822.0 126.5 L 824.9 129.7 L 827.8 133.0 L 830.6 136.5 L 833.2 140.3 L 835.6 144.3 L 835.6 144.3 L 838.0 148.7 L 840.2 153.4 L 842.5 158.4 L 844.8 163.6 L 847.0 169.0 L 849.2 174.4 L 851.4 179.9 L 853.6 185.4 L 855.7 190.8 L 857.9 196.0 L 860.0 201.1 L 862.1 205.9 L 864.2 210.4 L 866.2 214.6 L 868.2 218.3 L 870.3 221.5 L 870.3 221.5 L 872.2 224.3 L 874.1 226.6 L 876.0 228.5 L 877.8 230.0 L 879.5 231.3 L 881.2 232.3 L 883.0 233.1 L 884.7 233.7 L 886.4 234.3 L 888.2 234.8 L 889.9 235.3 L 891.8 235.9 L 893.7 236.6 L 895.7 237.5 L 897.7 238.5 L 899.9 239.9 L 899.9 239.9 L 902.1 241.5 L 904.5 243.5 L 907.0 245.6 L 909.5 248.0 L 912.1 250.5 L 914.7 253.0 L 917.4 255.5 L 920.1 258.0 L 922.9 260.4 L 925.6 262.6 L 928.2 264.5 L 930.9 266.2 L 933.5 267.5 L 936.0 268.4 L 938.4 268.8 L 940.7 268.7 L 940.7 268.7 L 943.0 268.0 L 945.2 266.6 L 947.3 264.7 L 949.3 262.3 L 951.4 259.6 L 953.4 256.5 L 955.3 253.2 L 957.3 249.8 L 959.2 246.3 L 961.1 242.8 L 963.0 239.5 L 964.9 236.4 L 966.9 233.5 L 968.8 231.1 L 970.8 229.0 L 972.8 227.5 L 972.8 227.5 L 975.0 226.7 L 977.3 226.4 L 979.8 226.7 L 982.4 227.5 L 985.0 228.5 L 987.7 229.7 L 990.3 231.1 L 992.9 232.4 L 995.3 233.6 L 997.7 234.6 L 999.8 235.3 L 1001.7 235.5 L 1003.3 235.2 L 1004.6 234.3 L 1005.5 232.6 L 1006.0 230.0 L 1006.0 230.0 L 1006.1 226.5 L 1005.9 222.3 L 1005.4 217.4 L 1004.7 212.0 L 1003.6 206.0 L 1002.4 199.6 L 1000.9 192.9 L 999.3 185.9 L 997.5 178.7 L 995.5 171.4 L 993.5 164.1 L 991.4 156.8 L 989.2 149.7 L 987.0 142.8 L 984.7 136.2 L 982.5 130.0 L 982.5 130.0 L 980.2 124.0 L 977.6 118.2 L 974.9 112.3 L 972.0 106.6 L 969.0 100.9 L 965.9 95.2 L 962.8 89.5 L 959.6 83.9 L 956.3 78.3 L 953.1 72.6 L 949.9 67.0 L 946.7 61.3 L 943.6 55.6 L 940.7 49.8 L 937.8 44.0 L 935.2 38.1 L 935.2 38.1 L 932.7 32.2 L 930.3 26.2 L 927.9 20.2 L 925.7 14.2 L 923.5 8.1 L 921.4 2.0 L 920.7 0.0" fill="none" stroke="#00e5ff" stroke-width="6.0" stroke-opacity="0.9"/><path d="M 23.3 0.0 L 24.5 5.1 L 25.8 11.2 L 27.1 17.4 L 28.5 23.6 L 29.9 29.8 L 31.3 35.9 L 32.7 42.1 L 32.7 42.1 L 34.2 48.2 L 35.7 54.4 L 37.3 60.5 L 38.9 66.6 L 40.5 72.7 L 42.1 78.8 L 43.8 85.0 L 45.4 91.1 L 47.1 97.2 L 48.7 103.3 L 50.3 109.4 L 51.9 115.5 L 53.5 121.6 L 55.0 127.8 L 56.5 133.9 L 57.9 140.1 L 57.9 140.1 L 59.3 146.2 L 60.7 152.4 L 62.1 158.6 L 63.4 164.8 L 64.7 170.9 L 66.0 177.1 L 67.3 183.3 L 68.6 189.5 L 69.8 195.7 L 71.0 201.9 L 72.2 208.1 L 73.4 214.4 L 74.6 220.6 L 75.7 226.8 L 76.8 233.0 L 77.9 239.2 L 77.9 239.2 L 79.0 245.5 L 80.0 251.7 L 81.0 258.0 L 81.9 264.2 L 82.8 270.5 L 83.6 276.8 L 84.5 283.0 L 85.3 289.3 L 86.2 295.6 L 87.0 301.9 L 88.0 308.1 L 88.9 314.4 L 89.9 320.6 L 91.0 326.8 L 92.1 333.0 L 93.4 339.2 L 93.4 339.2 L 94.7 345.4 L 96.0 351.6 L 97.4 357.8 L 98.8 363.9 L 100.2 370.1 L 101.7 376.2 L 103.3 382.4 L 104.8 388.5 L 106.4 394.6 L 108.1 400.7 L 109.8 406.8 L 111.5 412.9 L 113.3 419.0 L 115.2 425.0 L 117.1 431.0 L 119.0 437.0 L 119.0 437.0 L 121.0 443.0 L 123.1 449.0 L 125.2 454.9 L 127.4 460.9 L 129.6 466.8 L 131.9 472.7 L 134.2 478.6 L 136.6 484.5 L 139.0 490.3 L 141.4 496.2 L 143.9 502.0 L 146.3 507.8 L 148.9 513.6 L 151.4 519.4 L 154.0 525.2 L 156.6 530.9 L 156.6 530.9 L 159.2 536.7 L 161.9 542.4 L 164.6 548.1 L 167.4 553.8 L 170.1 559.5 L 172.9 565.2 L 175.8 570.8 L 178.7 576.4 L 181.6 582.1 L 184.5 587.7 L 187.4 593.3 L 190.4 598.9 L 193.4 604.4 L 196.4 610.0 L 199.4 615.6 L 202.4 621.1 L 202.4 621.1 L 205.5 626.7 L 208.5 632.2 L 211.6 637.7 L 214.7 643.2 L 217.8 648.7 L 221.0 654.2 L 224.1 659.7 L 227.3 665.2 L 230.5 670.6 L 233.8 676.1 L 237.0 681.5 L 240.3 686.9 L 243.6 692.3 L 246.9 697.7 L 250.2 703.1 L 253.6 708.4 L 253.6 708.4 L 257.0 713.8 L 260.4 719.1 L 263.9 724.4 L 267.3 729.6 L 270.9 734.9 L 274.4 740.1 L 277.9 745.4 L 281.5 750.6 L 285.1 755.8 L 288.7 761.0 L 292.3 766.2 L 295.9 771.4 L 299.5 776.6 L 303.2 781.7 L 306.8 786.9 L 310.4 792.1 L 310.4 792.1 L 314.1 797.2 L 317.8 802.3 L 321.6 807.4 L 325.4 812.5 L 329.2 817.5 L 333.0 822.6 L 336.9 827.6 L 340.7 832.7 L 344.5 837.7 L 348.3 842.8 L 352.1 847.8 L 355.8 853.0 L 359.4 858.1 L 363.0 863.3 L 366.6 868.5 L 370.0 873.8 L 370.0 873.8 L 373.4 879.1 L 376.7 884.5 L 379.8 890.0 L 383.0 895.5 L 386.0 901.0 L 389.0 906.6 L 392.0 912.2 L 395.0 917.8 L 398.0 923.4 L 400.9 929.0 L 403.9 934.5 L 407.0 940.1 L 410.0 945.6 L 413.1 951.1 L 416.3 956.6 L 419.6 962.0 L 419.6 962.0 L 422.9 967.4 L 426.3 972.7 L 429.6 978.1 L 433.0 983.5 L 436.4 988.8 L 439.8 994.1 L 443.2 999.4 L 443.6 1000.0" fill="none" stroke="#00e5ff" stroke-width="6.0" stroke-opacity="0.9"/><path d="M 681.6 1000.0 L 681.0 998.7 L 678.1 992.5 L 675.2 986.3 L 672.3 980.1 L 669.4 974.0 L 666.6 967.8 L 666.6 967.8 L 663.7 961.5 L 660.9 955.3 L 658.2 949.0 L 655.5 942.7 L 652.9 936.4 L 650.2 930.0 L 647.6 923.7 L 644.9 917.4 L 642.2 911.1 L 639.5 904.8 L 636.7 898.6 L 633.9 892.4 L 630.9 886.2 L 627.9 880.1 L 624.8 874.0 L 621.6 868.1 L 621.6 868.1 L 618.3 862.1 L 614.9 856.2 L 611.5 850.2 L 608.1 844.3 L 604.6 838.5 L 601.0 832.6 L 597.4 826.8 L 593.7 821.1 L 590.0 815.4 L 586.1 809.7 L 582.2 804.1 L 578.2 798.6 L 574.1 793.2 L 570.0 787.8 L 565.7 782.6 L 561.3 777.4 L 561.3 777.4 L 556.8 772.4 L 552.0 767.6 L 547.0 762.9 L 541.8 758.4 L 536.5 754.0 L 531.1 749.7 L 525.7 745.4 L 520.2 741.2 L 514.8 736.9 L 509.4 732.6 L 504.0 728.2 L 498.8 723.8 L 493.8 719.2 L 488.9 714.5 L 484.2 709.6 L 479.8 704.5 L 479.8 704.5 L 475.6 699.3 L 471.6 693.9 L 467.6 688.4 L 463.7 682.8 L 460.0 677.2 L 456.3 671.4 L 452.8 665.6 L 449.3 659.7 L 446.0 653.8 L 442.8 647.7 L 439.6 641.7 L 436.5 635.6 L 433.6 629.4 L 430.7 623.3 L 427.9 617.1 L 425.2 610.9 L 425.2 610.9 L 422.6 604.6 L 420.2 598.3 L 417.9 591.9 L 415.8 585.5 L 413.7 578.9 L 411.7 572.4 L 409.9 565.8 L 408.1 559.2 L 406.3 552.5 L 404.6 545.8 L 403.0 539.2 L 401.4 532.5 L 399.7 525.8 L 398.1 519.1 L 396.5 512.5 L 394.8 505.8 L 394.8 505.8 L 393.1 499.2 L 391.4 492.6 L 389.8 486.0 L 388.1 479.3 L 386.5 472.7 L 384.9 466.0 L 383.3 459.4 L 381.7 452.7 L 380.2 446.0 L 378.8 439.3 L 377.4 432.7 L 376.0 426.0 L 374.7 419.3 L 373.4 412.5 L 372.3 405.8 L 371.2 399.1 L 371.2 399.1 L 370.1 392.3 L 369.2 385.6 L 368.3 378.8 L 367.5 372.0 L 366.8 365.2 L 366.1 358.4 L 365.4 351.6 L 364.8 344.8 L 364.2 338.0 L 363.7 331.2 L 363.1 324.4 L 362.6 317.5 L 362.1 310.7 L 361.5 303.9 L 361.0 297.1 L 360.4 290.3 L 360.4 290.3 L 359.7 283.3 L 358.7 276.2 L 357.7 268.8 L 356.5 261.4 L 355.2 253.9 L 353.9 246.3 L 352.7 238.8 L 351.6 231.4 L 350.6 224.1 L 349.8 217.0 L 349.3 210.2 L 349.0 203.6 L 349.1 197.4 L 349.6 191.5 L 350.6 186.1 L 352.0 181.2 L 352.0 181.2 L 354.0 176.6 L 356.4 172.2 L 359.3 167.9 L 362.6 163.8 L 366.1 159.9 L 370.0 156.2 L 374.1 152.9 L 378.5 149.9 L 383.0 147.3 L 387.6 145.0 L 392.3 143.3 L 397.0 141.9 L 401.7 141.1 L 406.4 140.9 L 410.9 141.2 L 415.3 142.1 L 415.3 142.1 L 419.7 143.8 L 424.2 146.3 L 428.9 149.5 L 433.6 153.3 L 438.3 157.7 L 443.2 162.7 L 448.0 168.0 L 452.9 173.6 L 457.8 179.5 L 462.6 185.6 L 467.4 191.7 L 472.2 197.9 L 476.9 204.0 L 481.6 210.0 L 486.1 215.7 L 490.5 221.1 L 490.5 221.1 L 494.8 226.4 L 499.1 231.7 L 503.3 237.1 L 507.4 242.5 L 511.5 248.0 L 515.5 253.5 L 519.5 259.0 L 523.5 264.6 L 527.4 270.2 L 531.4 275.8 L 535.2 281.5 L 539.1 287.1 L 543.0 292.8 L 546.8 298.5 L 550.6 304.1 L 554.5 309.8 L 554.5 309.8 L 558.3 315.5 L 562.0 321.2 L 565.7 326.9 L 569.4 332.7 L 573.1 338.5 L 576.7 344.3 L 580.3 350.1 L 583.9 355.9 L 587.5 361.7 L 591.1 367.5 L 594.7 373.3 L 598.3 379.1 L 602.0 384.9 L 605.7 390.7 L 609.4 396.4 L 613.2 402.1 L 613.2 402.1 L 617.0 407.7 L 620.8 413.4 L 624.7 419.1 L 628.5 424.7 L 632.4 430.3 L 636.3 435.9 L 640.2 441.6 L 644.1 447.2 L 648.1 452.7 L 652.1 458.3 L 656.1 463.8 L 660.1 469.4 L 664.1 474.9 L 668.2 480.4 L 672.2 485.9 L 676.3 491.3 L 676.3 491.3 L 680.5 496.8 L 684.7 502.2 L 688.9 507.6 L 693.1 512.9 L 697.4 518.2 L 701.7 523.6 L 706.0 528.9 L 710.3 534.2 L 714.7 539.4 L 719.0 544.7 L 723.4 550.0 L 727.7 555.3 L 732.0 560.6 L 736.3 565.9 L 740.6 571.2 L 744.9 576.5 L 744.9 576.5 L 749.2 581.9 L 753.5 587.2 L 757.7 592.6 L 762.0 597.9 L 766.3 603.2 L 770.6 608.5 L 774.9 613.9 L 779.1 619.2 L 783.4 624.6 L 787.6 629.9 L 791.9 635.3 L 796.1 640.7 L 800.3 646.1 L 804.5 651.5 L 808.7 656.9 L 812.8 662.3 L 812.8 662.3 L 816.9 667.8 L 821.0 673.2 L 825.1 678.7 L 829.2 684.2 L 833.3 689.7 L 837.4 695.2 L 841.4 700.7 L 845.4 706.2 L 849.4 711.7 L 853.4 717.3 L 857.4 722.8 L 861.4 728.4 L 865.3 734.0 L 869.2 739.6 L 873.1 745.3 L 876.9 750.9 L 876.9 750.9 L 880.7 756.6 L 884.4 762.3 L 888.1 768.1 L 891.7 774.0 L 895.2 779.8 L 898.7 785.7 L 902.3 791.6 L 905.8 797.5 L 909.3 803.4 L 912.9 809.2 L 916.5 815.0 L 920.1 820.8 L 923.9 826.5 L 927.7 832.1 L 931.6 837.7 L 935.6 843.2 L 935.6 843.2 L 939.8 848.6 L 943.9 854.0 L 948.1 859.4 L 952.4 864.7 L 956.7 870.0 L 961.1 875.2 L 965.5 880.4 L 970.0 885.6 L 974.5 890.7 L 979.1 895.8 L 983.8 900.7 L 988.5 905.7 L 993.3 910.5 L 998.1 915.3 L 1003.0 920.0 L 1008.0 924.6 L 1008.0 924.6 L 1013.0 929.1 L 1018.3 933.5 L 1023.6 937.7 L 1029.0 941.9 L 1034.6 945.9 L 1040.1 949.9 L 1045.8 953.8 L 1051.4 957.7 L 1057.1 961.5 L 1062.8 965.4 L 1068.4 969.3 L 1074.0 973.3 L 1079.6 977.3 L 1085.1 981.4 L 1090.4 985.6 L 1095.7 989.9 L 1095.7 989.9 L 1100.9 994.3 L 1106.1 998.8 L 1107.5 1000.0" fill="none" stroke="#00e5ff" stroke-width="6.0" stroke-opacity="0.9"/></g><g id="clips"><circle cx="1292.9" cy="1000.0" r="2" fill="none" stroke="#0b5" stroke-width="0.6"/><circle cx="671.6" cy="0.0" r="2" fill="none" stroke="#0b5" stroke-width="0.6"/><circle cx="807.5" cy="0.0" r="2" fill="none" stroke="#0b5" stroke-width="0.6"/><circle cx="920.7" cy="0.0" r="2" fill="none" stroke="#0b5" stroke-width="0.6"/><circle cx="23.3" cy="0.0" r="2" fill="none" stroke="#0b5" stroke-width="0.6"/><circle cx="443.6" cy="1000.0" r="2" fill="none" stroke="#0b5" stroke-width="0.6"/><circle cx="681.6" cy="1000.0" r="2" fill="none" stroke="#0b5" stroke-width="0.6"/><circle cx="1107.5" cy="1000.0" r="2" fill="none" stroke="#0b5" stroke-width="0.6"/></g><g id="power"><circle cx="443.6" cy="1000.0" r="5" fill="none" stroke="#e33" stroke-width="1"/><circle cx="681.6" cy="1000.0" r="5" fill="none" stroke="#e33" stroke-width="1"/><circle cx="1107.5" cy="1000.0" r="5" fill="none" stroke="#e33" stroke-width="1"/><circle cx="1292.9" cy="1000.0" r="5" fill="none" stroke="#e33" stroke-width="1"/><circle cx="23.3" cy="0.0" r="5" fill="none" stroke="#e33" stroke-width="1"/><circle cx="671.6" cy="0.0" r="5" fill="none" stroke="#e33" stroke-width="1"/><circle cx="807.5" cy="0.0" r="5" fill="none" stroke="#e33" stroke-width="1"/><circle cx="920.7" cy="0.0" r="5" fill="none" stroke="#e33" stroke-width="1"/></g><g id="bridges"></g></svg>