<svg xmlns="http://www.w3.org/2000/svg" width="2000mm" height="1000mm" viewBox="0 0 2000 1000"><g id="outline"><rect x="0" y="0" width="2000" height="1000" fill="none" stroke="#000" stroke-width="1"/></g><g id="channels"><path d="M 1830.1 1.7 L 1829.7 0.0" fill="none" stroke="#ffd23d" stroke-width="6.0" stroke-opacity="0.9"/><path d="M 1913.1 0.0 L 1912.1 1.2 L 1907.7 6.2 L 1903.4 11.0 L 1899.3 15.5 L 1895.5 19.6 L 1891.9 23.5 L 1888.8 27.0 L 1886.1 30.0 L 1883.9 32.6" fill="none" stroke="#ffd23d" stroke-width="6.0" stroke-opacity="0.9"/><path d="M 798.6 1000.0 L 798.4 999.3 L 796.9 992.1 L 795.8 985.3 L 795.0 979.0 L 794.6 973.3 L 794.7 968.2 L 795.3 963.8 L 796.4 960.3 L 798.2 957.8 L 798.2 957.8 L 800.7 956.3 L 804.0 955.5 L 808.0 955.5 L 812.5 956.2 L 817.6 957.4 L 823.0 959.3 L 828.8 961.6 L 834.9 964.3 L 841.1 967.3 L 847.4 970.7 L 853.7 974.2 L 859.9 977.9 L 865.9 981.7 L 871.7 985.5 L 877.1 989.2 L 882.0 992.9 L 882.0 992.9 L 886.7 996.6 L 890.5 1000.0" fill="none" stroke="#00e5ff" stroke-width="6.0" stroke-opacity="0.9"/><path d="M 1085.0 1000.0 L 1081.5 995.2 L 1081.5 995.2 L 1077.6 990.0 L 1073.8 984.8 L 1070.0 979.6 L 1066.2 974.4 L 1062.4 969.2 L 1058.6 963.9 L 1054.8 958.7 L 1051.0 953.5 L 1047.1 948.3 L 1043.3 943.1 L 1039.5 937.8 L 1035.7 932.6 L 1031.9 927.4 L 1028.1 922.2 L 1024.3 917.0 L 1020.5 911.7 L 1020.5 911.7 L 1016.7 906.5 L 1013.0 901.3 L 1009.2 896.0 L 1005.5 890.7 L 1001.7 885.5 L 998.0 880.2 L 994.2 874.9 L 990.5 869.7 L 986.7 864.4 L 983.0 859.2 L 979.2 853.9 L 975.4 848.7 L 971.5 843.5 L 967.6 838.4 L 963.7 833.3 L 959.8 828.2 L 959.8 828.2 L 955.8 823.1 L 951.8 818.0 L 947.8 812.9 L 943.8 807.8 L 939.8 802.7 L 935.8 797.6 L 931.7 792.6 L 927.6 787.5 L 923.5 782.6 L 919.3 777.6 L 915.1 772.7 L 910.8 767.9 L 906.5 763.1 L 902.1 758.4 L 897.6 753.8 L 893.1 749.2 L 893.1 749.2 L 888.5 744.7 L 883.9 740.2 L 879.3 735.6 L 874.6 731.0 L 869.8 726.4 L 865.1 721.9 L 860.2 717.5 L 855.3 713.1 L 850.4 708.9 L 845.3 704.8 L 840.2 700.9 L 835.0 697.1 L 829.8 693.5 L 824.4 690.2 L 818.9 687.1 L 813.4 684.3 L 813.4 684.3 L 807.6 681.8 L 801.8 679.7 L 795.8 677.8 L 789.6 676.2 L 783.4 674.8 L 777.1 673.7 L 770.7 672.6 L 764.2 671.7 L 757.8 670.9 L 751.3 670.0 L 744.8 669.2 L 738.3 668.3 L 731.9 667.4 L 725.6 666.3 L 719.3 665.1 L 713.1 663.6 L 713.1 663.6 L 706.9 662.2 L 700.4 660.9 L 693.7 659.8 L 686.9 658.7 L 680.0 657.6 L 673.1 656.6 L 666.3 655.4 L 659.6 654.2 L 653.1 652.8 L 646.8 651.2 L 640.9 649.4 L 635.3 647.2 L 630.1 644.8 L 625.4 641.9 L 621.2 638.6 L 617.7 634.9 L 617.7 634.9 L 614.8 630.4 L 612.5 625.1 L 610.7 619.2 L 609.4 612.6 L 608.5 605.6 L 608.0 598.3 L 607.8 590.8 L 607.9 583.3 L 608.1 575.8 L 608.5 568.4 L 608.9 561.4 L 609.3 554.8 L 609.7 548.8 L 610.0 543.4 L 610.1 538.9 L 610.0 535.3" fill="none" stroke="#00e5ff" stroke-width="6.0" stroke-opacity="0.9"/><path d="M 638.5 459.3 L 637.7 455.6 L 636.9 451.0 L 636.1 445.7 L 635.2 439.7 L 634.3 433.2 L 633.2 426.3 L 632.1 419.0 L 630.8 411.4 L 629.3 403.8 L 627.7 396.0 L 625.8 388.4 L 623.7 380.9 L 621.4 373.6 L 618.7 366.7 L 615.8 360.3 L 612.6 354.4 L 612.6 354.4 L 609.0 348.9 L 605.1 343.3 L 600.9 337.8 L 596.4 332.4 L 591.6 327.0 L 586.7 321.8 L 581.5 316.7 L 576.1 311.7 L 570.6 307.0 L 564.9 302.5 L 559.1 298.2 L 553.2 294.2 L 547.3 290.5 L 541.3 287.1 L 535.3 284.1 L 529.2 281.5 L 529.2 281.5 L 523.0 279.1 L 516.6 277.0 L 509.8 275.1 L 502.9 273.4 L 495.8 272.0 L 488.6 270.8 L 481.3 269.9 L 474.0 269.3 L 466.7 269.0 L 459.5 269.0 L 452.4 269.3 L 445.4 270.0 L 438.6 270.9 L 432.0 272.3 L 425.7 273.9 L 419.7 276.0 L 419.7 276.0 L 413.9 278.5 L 408.1 281.5 L 402.5 284.9 L 396.9 288.7 L 391.4 293.0 L 386.1 297.5 L 380.9 302.3 L 375.8 307.5 L 371.0 312.8 L 366.3 318.3 L 361.8 324.0 L 357.5 329.8 L 353.5 335.6 L 349.7 341.5 L 346.2 347.4 L 343.0 353.3 L 343.0 353.3 L 340.1 359.3 L 337.4 365.5 L 334.9 371.9 L 332.6 378.5 L 330.6 385.3 L 328.8 392.2 L 327.2 399.2 L 325.8 406.3 L 324.6 413.4 L 323.6 420.6 L 322.8 427.8 L 322.3 435.0 L 321.9 442.1 L 321.7 449.1 L 321.7 456.1 L 321.8 462.9 L 321.8 462.9 L 322.2 469.6 L 322.9 476.4 L 323.7 483.2 L 324.8 490.0 L 326.1 496.8 L 327.6 503.6 L 329.3 510.4 L 331.2 517.2 L 333.2 523.9 L 335.4 530.6 L 337.8 537.2 L 340.3 543.7 L 342.9 550.2 L 345.6 556.5 L 348.5 562.8 L 351.4 569.0 L 351.4 569.0 L 354.8 575.0 L 358.7 581.0 L 363.2 586.8 L 368.1 592.5 L 373.3 598.2 L 378.7 603.8 L 384.2 609.3 L 389.6 614.8 L 394.8 620.2 L 399.8 625.6 L 404.3 631.1 L 408.4 636.5 L 411.8 641.9 L 414.5 647.4 L 416.4 652.9 L 417.3 658.5 L 417.3 658.5 L 417.3 664.2 L 416.6 669.9 L 415.2 675.8 L 413.3 681.7 L 410.8 687.6 L 407.8 693.5 L 404.4 699.4 L 400.6 705.3 L 396.5 711.1 L 392.1 716.9 L 387.5 722.5 L 382.8 728.0 L 378.0 733.4 L 373.2 738.5 L 368.4 743.5 L 363.7 748.3 L 363.7 748.3 L 358.8 752.7 L 353.5 756.8 L 347.9 760.7 L 342.0 764.3 L 335.9 767.8 L 329.5 771.1 L 323.1 774.3 L 316.6 777.4 L 310.0 780.6 L 303.5 783.8 L 297.1 787.1 L 290.8 790.6 L 284.8 794.2 L 278.9 798.1 L 273.4 802.3 L 268.2 806.8 L 268.2 806.8 L 263.3 811.6 L 258.5 816.5 L 253.9 821.6 L 249.4 826.9 L 245.1 832.4 L 240.8 837.9 L 236.7 843.6 L 232.7 849.4 L 228.8 855.3 L 225.0 861.3 L 221.3 867.3 L 217.7 873.4 L 214.3 879.5 L 210.9 885.6 L 207.6 891.8 L 204.4 897.9 L 204.4 897.9 L 201.3 904.2 L 198.4 910.5 L 195.6 916.8 L 193.0 923.3 L 190.5 929.8 L 188.1 936.4 L 185.8 943.1 L 183.6 949.8 L 181.4 956.5 L 179.3 963.2 L 177.2 970.0 L 175.1 976.8 L 173.1 983.5 L 171.0 990.3 L 168.9 997.0 L 167.9 1000.0" fill="none" stroke="#00e5ff" stroke-width="6.0" stroke-opacity="0.9"/><path d="M 514.7 518.9 L 513.2 519.0 L 511.3 519.2 L 509.2 519.3 L 506.9 519.5 L 504.3 519.6 L 501.6 519.8 L 498.7 520.0 L 495.7 520.3 L 492.6 520.5 L 489.4 520.7 L 486.2 521.0 L 483.1 521.2 L 480.0 521.5 L 476.9 521.7 L 474.0 522.0 L 471.2 522.2 L 471.2 522.2 L 468.5 522.5 L 465.8 522.7 L 463.1 522.9 L 460.4 523.2 L 457.6 523.4 L 454.9 523.7 L 452.2 524.0 L 449.5 524.2 L 446.8 524.5 L 444.1 524.8 L 441.4 525.1 L 438.7 525.4 L 436.0 525.8 L 433.3 526.1 L 430.6 526.5 L 427.9 526.9 L 427.9 526.9 L 425.1 527.3 L 422.2 527.8 L 419.2 528.3 L 416.2 528.9 L 413.0 529.5 L 409.9 530.1 L 406.8 530.7 L 403.8 531.3 L 400.9 531.9 L 398.0 532.5 L 395.3 533.1 L 392.8 533.6 L 390.5 534.1 L 388.5 534.5 L 386.7 534.9 L 385.2 535.2" fill="none" stroke="#00e5ff" stroke-width="6.0" stroke-opacity="0.9"/></g><g id="clips"><circle cx="1830.1" cy="1.7" r="2" fill="none" stroke="#0b5" stroke-width="0.6"/><circle cx="1913.1" cy="0.0" r="2" fill="none" stroke="#0b5" stroke-width="0.6"/><circle cx="798.6" cy="1000.0" r="2" fill="none" stroke="#0b5" stroke-width="0.6"/><circle cx="890.5" cy="1000.0" r="2" fill="none" stroke="#0b5" stroke-width="0.6"/><circle cx="1085.0" cy="1000.0" r="2" fill="none" stroke="#0b5" stroke-width="0.6"/><circle cx="610.0" cy="535.3" r="2" fill="none" stroke="#0b5" stroke-width="0.6"/><circle cx="638.5" cy="459.3" r="2" fill="none" stroke="#0b5" stroke-width="0.6"/><circle cx="167.9" cy="1000.0" r="2" fill="none" stroke="#0b5" stroke-width="0.6"/><circle cx="514.7" cy="518.9" r="2" fill="none" stroke="#0b5" stroke-width="0.6"/><circle cx="385.2" cy="535.2" r="2" fill="none" stroke="#0b5" stroke-width="0.6"/></g><g id="power"><circle cx="798.6" cy="1000.0" r="5" fill="none" stroke="#e33" stroke-width="1"/><circle cx="890.5" cy="1000.0" r="5" fill="none" stroke="#e33" stroke-width="1"/><circle cx="1085.0" cy="1000.0" r="5" fill="none" stroke="#e33" stroke-width="1"/><circle cx="167.9" cy="1000.0" r="5" fill="none" stroke="#e33" stroke-width="1"/><circle cx="1829.7" cy="0.0" r="5" fill="none" stroke="#e33" stroke-width="1"/><circle cx="1913.2" cy="0.0" r="5" fill="none" stroke="#e33" stroke-width="1"/></g></svg>