<svg xmlns="http://www.w3.org/2000/svg" width="1000mm" height="2000mm" viewBox="0 0 1000 2000"><g id="outline"><rect x="0" y="0" width="1000" height="2000" fill="none" stroke="#000" stroke-width="1"/></g><g id="channels"><path d="M 110.4 0.0 L 109.9 1.8 L 108.5 7.6 L 107.1 13.3 L 105.5 19.1 L 104.0 24.8 L 102.5 30.5 L 100.8 36.2 L 99.3 41.9 L 97.6 47.6 L 95.9 53.3 L 94.3 59.0 L 92.5 64.7 L 90.9 70.4 L 89.1 76.0 L 87.4 81.7 L 87.4 81.7 L 85.5 87.4 L 83.5 93.1 L 81.4 98.7 L 79.2 104.3 L 76.9 109.8 L 74.6 115.4 L 72.2 121.0 L 70.0 126.5 L 67.7 132.2 L 65.6 137.8 L 63.6 143.4 L 61.8 149.0 L 60.2 154.6 L 58.8 160.2 L 57.7 165.9 L 56.8 171.6 L 56.8 171.6 L 56.2 177.3 L 55.7 183.1 L 55.4 189.0 L 55.2 194.9 L 55.2 200.8 L 55.3 206.8 L 55.6 212.8 L 55.9 218.6 L 56.6 224.5 L 57.3 230.4 L 58.2 236.3 L 59.3 242.0 L 60.6 247.7 L 62.1 253.3 L 63.7 258.8 L 65.6 264.2 L 65.6 264.2 L 67.7 269.5 L 70.1 274.8 L 72.8 279.9 L 75.6 285.0 L 78.6 290.0 L 81.9 295.1 L 85.3 300.1 L 88.8 304.9 L 92.4 309.7 L 96.2 314.5 L 100.1 319.2 L 103.9 323.9 L 107.9 328.5 L 111.8 333.0 L 115.7 337.5 L 119.7 341.9 L 119.7 341.9 L 123.5 346.3 L 127.5 350.8 L 131.5 355.1 L 135.7 359.4 L 139.8 363.6 L 144.1 367.9 L 148.4 372.0 L 152.8 376.1 L 157.2 380.0 L 161.7 384.0 L 166.2 387.8 L 170.8 391.5 L 175.5 395.1 L 180.3 398.7 L 185.1 402.0 L 190.0 405.3 L 190.0 405.3 L 194.9 408.3 L 200.0 411.4 L 205.1 414.1 L 210.3 416.8 L 215.6 419.4 L 221.1 421.9 L 226.5 424.3 L 231.9 426.7 L 237.4 428.9 L 243.0 431.1 L 248.6 433.3 L 254.2 435.4 L 259.7 437.5 L 265.3 439.6 L 270.8 441.8 L 276.4 443.9 L 276.4 443.9 L 281.9 446.2 L 287.4 448.3 L 293.0 450.3 L 298.5 452.3 L 304.1 454.3 L 309.7 456.2 L 315.4 458.1 L 321.0 460.0 L 326.6 462.0 L 332.3 463.8 L 337.9 465.8 L 343.5 467.7 L 349.1 469.6 L 354.7 471.5 L 360.3 473.6 L 365.9 475.6 L 365.9 475.6 L 371.5 477.7 L 377.0 479.8 L 382.5 482.0 L 387.9 484.2 L 393.5 486.5 L 399.0 488.8 L 404.5 491.1 L 409.9 493.4 L 415.5 495.7 L 421.0 497.9 L 426.5 500.1 L 432.0 502.2 L 437.5 504.3 L 443.1 506.2 L 448.8 508.1 L 454.4 509.9 L 454.4 509.9 L 460.1 511.6 L 465.8 513.1 L 471.5 514.7 L 477.3 516.2 L 483.0 517.5 L 488.8 518.8 L 494.6 520.1 L 500.4 521.4 L 506.2 522.6 L 512.0 523.8 L 517.9 524.9 L 523.6 526.0 L 529.5 527.1 L 535.3 528.2 L 541.2 529.3 L 547.0 530.4 L 547.0 530.4 L 552.8 531.4 L 558.7 532.5 L 564.6 533.4 L 570.4 534.3 L 576.3 535.1 L 582.2 535.9 L 588.0 536.8 L 593.9 537.6 L 599.8 538.3 L 605.7 539.2 L 611.6 540.0 L 617.5 540.8 L 623.4 541.7 L 629.3 542.6 L 635.1 543.5 L 640.9 544.4 L 640.9 544.4 L 646.8 545.4 L 652.7 546.3 L 658.6 547.2 L 664.6 548.0 L 670.6 548.8 L 676.6 549.7 L 682.4 550.5 L 688.4 551.4 L 694.3 552.4 L 700.2 553.4 L 706.0 554.6 L 711.8 555.9 L 717.5 557.4 L 723.1 558.9 L 728.6 560.8 L 734.1 562.8 L 734.1 562.8 L 739.4 565.0 L 744.8 567.2 L 750.2 569.7 L 755.7 572.2 L 761.1 574.9 L 766.3 577.6 L 771.7 580.5 L 776.8 583.5 L 781.9 586.6 L 786.9 589.9 L 791.7 593.3 L 796.3 596.9 L 800.8 600.5 L 805.2 604.3 L 809.3 608.4 L 813.2 612.4 L 813.2 612.4 L 816.9 616.7 L 820.3 621.3 L 823.6 626.0 L 826.7 631.0 L 829.5 636.1 L 832.3 641.4 L 834.9 646.7 L 837.5 652.1 L 839.9 657.8 L 842.2 663.4 L 844.4 669.0 L 846.6 674.7 L 848.7 680.4 L 850.8 686.0 L 852.9 691.6 L 855.0 697.1 L 855.0 697.1 L 857.1 702.7 L 859.1 708.3 L 861.0 713.8 L 862.8 719.5 L 864.5 725.1 L 866.2 730.8 L 867.8 736.5 L 869.4 742.3 L 870.9 748.0 L 872.4 753.8 L 873.9 759.6 L 875.4 765.3 L 876.8 771.1 L 878.3 776.9 L 879.9 782.6 L 881.3 788.4 L 881.3 788.4 L 882.8 794.1 L 884.3 799.9 L 885.8 805.6 L 887.1 811.4 L 888.5 817.2 L 889.8 823.0 L 891.2 828.8 L 892.5 834.5 L 893.9 840.3 L 895.2 846.1 L 896.6 851.9 L 898.0 857.7 L 899.5 863.4 L 900.9 869.2 L 902.5 874.9 L 904.1 880.6 L 904.1 880.6 L 905.7 886.3 L 907.4 892.0 L 909.0 897.7 L 910.7 903.3 L 912.4 909.0 L 914.1 914.7 L 915.9 920.4 L 917.7 926.0 L 919.5 931.6 L 921.4 937.3 L 923.3 943.0 L 925.2 948.6 L 927.3 954.1 L 929.3 959.7 L 931.4 965.2 L 933.6 970.7 L 933.6 970.7 L 935.9 976.2 L 938.3 981.6 L 940.8 986.9 L 943.4 992.3 L 946.2 997.6 L 949.0 1002.9 L 951.7 1008.2 L 954.5 1013.5 L 957.3 1018.8 L 960.0 1024.1 L 962.8 1029.3 L 965.3 1034.7 L 967.8 1040.0 L 970.2 1045.4 L 972.4 1050.9 L 974.5 1056.4 L 974.5 1056.4 L 976.6 1062.0 L 978.7 1068.0 L 980.9 1074.1 L 983.0 1080.4 L 985.2 1086.8 L 987.3 1093.1 L 989.4 1099.5 L 991.2 1105.9 L 992.8 1112.1 L 994.3 1118.0 L 995.6 1123.8 L 996.5 1129.3 L 997.2 1134.5 L 997.4 1139.2 L 997.4 1143.5 L 996.8 1147.3 L 996.8 1147.3 L 995.7 1150.5 L 994.0 1153.3 L 991.9 1155.7 L 989.4 1157.6 L 986.6 1159.2 L 983.4 1160.6 L 980.0 1161.7 L 976.4 1162.6 L 972.7 1163.4 L 969.0 1164.0 L 965.3 1164.6 L 961.7 1165.2 L 958.3 1165.9 L 955.0 1166.6 L 952.1 1167.4 L 949.4 1168.4 L 949.4 1168.4 L 947.1 1169.6 L 944.9 1170.9 L 942.9 1172.3 L 941.0 1173.8 L 939.1 1175.2 L 937.4 1176.6 L 935.6 1177.9 L 934.0 1179.3 L 932.3 1180.5 L 930.7 1181.6 L 928.9 1182.5 L 927.2 1183.3 L 925.4 1183.8 L 923.5 1184.1 L 921.5 1184.1 L 919.3 1183.8 L 919.3 1183.8 L 917.1 1183.4 L 914.7 1182.7 L 912.3 1182.0 L 909.7 1181.1 L 907.1 1179.9 L 904.4 1178.7 L 901.8 1177.2 L 899.0 1175.6 L 896.3 1173.8 L 893.7 1171.8 L 891.1 1169.6 L 888.5 1167.2 L 886.0 1164.5 L 883.6 1161.6 L 881.3 1158.5 L 879.1 1155.2 L 879.1 1155.2 L 877.0 1151.6 L 874.8 1147.7 L 872.7 1143.4 L 870.5 1138.9 L 868.4 1134.1 L 866.3 1129.1 L 864.2 1123.9 L 862.2 1118.6 L 860.4 1113.2 L 858.7 1107.5 L 857.1 1101.9 L 855.7 1096.3 L 854.5 1090.6 L 853.5 1085.0 L 852.6 1079.4 L 852.1 1073.9 L 852.1 1073.9 L 851.9 1068.4 L 852.1 1062.7 L 852.7 1057.1 L 853.6 1051.3 L 854.7 1045.5 L 856.0 1039.6 L 857.3 1033.8 L 858.8 1027.9 L 860.3 1021.9 L 861.7 1015.9 L 863.0 1010.0 L 864.1 1004.0 L 865.0 998.2 L 865.6 992.3 L 865.9 986.4 L 865.7 980.6 L 865.7 980.6 L 865.2 974.9 L 864.4 969.1 L 863.4 963.4 L 862.2 957.6 L 860.8 951.9 L 859.3 946.2 L 857.6 940.5 L 855.8 934.8 L 853.9 929.1 L 851.9 923.4 L 849.9 917.7 L 847.8 912.0 L 845.7 906.4 L 843.6 900.8 L 841.6 895.2 L 839.6 889.6 L 839.6 889.6 L 837.6 884.1 L 835.5 878.5 L 833.4 872.9 L 831.3 867.4 L 829.1 861.9 L 826.9 856.4 L 824.6 850.9 L 822.3 845.4 L 819.9 839.9 L 817.5 834.5 L 815.0 829.1 L 812.5 823.6 L 810.0 818.3 L 807.5 813.0 L 804.9 807.6 L 802.2 802.3 L 802.2 802.3 L 799.6 797.0 L 797.0 791.6 L 794.4 786.2 L 791.8 780.7 L 789.2 775.2 L 786.6 769.8 L 783.8 764.4 L 781.1 759.0 L 778.2 753.8 L 775.3 748.6 L 772.2 743.5 L 769.0 738.5 L 765.7 733.7 L 762.2 729.1 L 758.6 724.6 L 754.8 720.4 L 754.8 720.4 L 750.7 716.3 L 746.6 712.3 L 742.1 708.4 L 737.6 704.7 L 733.0 701.1 L 728.3 697.6 L 723.5 694.2 L 718.5 690.9 L 713.4 687.7 L 708.3 684.8 L 703.0 682.0 L 697.8 679.2 L 692.5 676.6 L 687.1 674.1 L 681.8 671.8 L 676.5 669.7 L 676.5 669.7 L 671.0 667.7 L 665.5 666.0 L 659.8 664.5 L 654.1 663.2 L 648.4 662.0 L 642.5 661.0 L 636.6 660.1 L 630.6 659.3 L 624.7 658.6 L 618.7 657.8 L 612.7 657.2 L 606.7 656.6 L 600.7 655.9 L 594.8 655.3 L 588.8 654.5 L 582.9 653.6 L 582.9 653.6 L 577.1 652.7 L 571.2 651.8 L 565.3 650.9 L 559.4 649.8 L 553.5 648.8 L 547.7 647.8 L 541.8 646.9 L 535.9 646.0 L 530.0 645.1 L 524.1 644.2 L 518.2 643.5 L 512.3 642.9 L 506.4 642.2 L 500.6 641.7 L 494.7 641.4 L 488.8 641.1 L 488.8 641.1 L 482.8 640.9 L 476.5 640.6 L 469.9 640.3 L 463.2 640.0 L 456.4 639.7 L 449.6 639.4 L 442.9 639.4 L 436.2 639.4 L 429.7 639.5 L 423.6 639.9 L 417.6 640.5 L 412.1 641.3 L 406.9 642.4 L 402.3 643.9 L 398.3 645.6 L 394.8 647.8 L 394.8 647.8 L 392.0 650.5 L 389.4 653.7 L 387.2 657.4 L 385.4 661.6 L 383.8 666.0 L 382.6 670.8 L 381.8 675.8 L 381.3 680.8 L 381.2 685.9 L 381.5 691.1 L 382.2 696.0 L 383.2 700.8 L 384.5 705.3 L 386.2 709.6 L 388.3 713.4 L 390.8 716.7 L 390.8 716.7 L 393.8 719.6 L 397.5 722.2 L 401.8 724.6 L 406.6 726.8 L 411.9 728.8 L 417.6 730.5 L 423.6 732.2 L 429.7 733.7 L 436.2 735.2 L 442.7 736.7 L 449.2 738.1 L 455.8 739.5 L 462.3 741.0 L 468.5 742.6 L 474.6 744.2 L 480.4 746.1 L 480.4 746.1 L 486.0 747.9 L 491.7 749.7 L 497.5 751.2 L 503.3 752.9 L 509.2 754.4 L 515.0 756.0 L 520.9 757.6 L 526.7 759.2 L 532.4 760.9 L 538.1 762.7 L 543.7 764.7 L 549.1 766.8 L 554.5 769.1 L 559.7 771.6 L 564.8 774.3 L 569.6 777.3 L 569.6 777.3 L 574.3 780.5 L 579.1 784.0 L 584.0 787.6 L 588.8 791.3 L 593.5 795.3 L 598.2 799.3 L 602.7 803.6 L 607.0 808.0 L 611.1 812.4 L 615.1 817.0 L 618.8 821.7 L 622.2 826.5 L 625.2 831.4 L 627.9 836.2 L 630.2 841.2 L 632.1 846.2 L 632.1 846.2 L 633.6 851.3 L 634.8 856.8 L 635.7 862.5 L 636.3 868.3 L 636.7 874.4 L 636.8 880.6 L 636.6 886.7 L 636.2 893.0 L 635.3 899.2 L 634.3 905.2 L 633.0 911.2 L 631.5 917.0 L 629.7 922.6 L 627.6 927.9 L 625.3 932.9 L 622.7 937.5 L 622.7 937.5 L 619.8 941.9 L 616.5 946.2 L 612.7 950.3 L 608.7 954.3 L 604.2 958.1 L 599.5 961.8 L 594.6 965.3 L 589.5 968.7 L 584.2 971.8 L 578.8 974.8 L 573.2 977.5 L 567.7 980.1 L 562.1 982.4 L 556.6 984.4 L 551.1 986.2 L 545.6 987.8 L 545.6 987.8 L 540.2 989.0 L 534.6 990.1 L 528.9 990.7 L 523.0 991.3 L 517.1 991.5 L 511.0 991.5 L 505.0 991.3 L 498.9 991.0 L 492.7 990.4 L 486.7 989.7 L 480.6 988.8 L 474.6 987.7 L 468.6 986.5 L 462.8 985.2 L 457.0 983.7 L 451.5 982.1 L 451.5 982.1 L 446.0 980.5 L 440.5 978.7 L 435.1 976.5 L 429.6 974.3 L 424.2 971.9 L 418.8 969.4 L 413.5 966.6 L 408.3 963.7 L 403.0 960.8 L 398.0 957.7 L 393.0 954.4 L 388.0 951.1 L 383.3 947.6 L 378.6 944.0 L 374.1 940.3 L 369.6 936.6 L 369.6 936.6 L 365.3 932.5 L 361.2 927.8 L 357.0 922.5 L 353.1 917.0 L 349.1 911.2 L 345.4 905.2 L 341.7 899.3 L 338.0 893.3 L 334.5 887.5 L 331.1 882.0 L 327.7 876.9 L 324.5 872.3 L 321.3 868.3 L 318.2 865.0 L 315.3 862.5 L 312.3 861.0 L 312.3 861.0 L 309.5 860.3 L 306.5 860.4 L 303.5 861.1 L 300.5 862.4 L 297.5 864.2 L 294.7 866.5 L 291.9 869.2 L 289.3 872.3 L 286.8 875.7 L 284.6 879.4 L 282.7 883.2 L 281.1 887.3 L 279.8 891.4 L 278.8 895.6 L 278.3 899.8 L 278.2 903.9 L 278.2 903.9 L 278.7 908.1 L 279.6 912.6 L 281.0 917.4 L 282.9 922.4 L 285.1 927.7 L 287.6 933.1 L 290.3 938.7 L 293.3 944.3 L 296.3 950.1 L 299.5 956.0 L 302.7 961.9 L 305.8 967.7 L 308.8 973.6 L 311.8 979.4 L 314.4 985.0 L 316.9 990.5 L 316.9 990.5 L 319.2 996.0 L 321.4 1001.6 L 323.5 1007.1 L 325.7 1012.6 L 327.8 1018.2 L 329.9 1023.7 L 331.9 1029.3 L 334.0 1034.9 L 336.2 1040.5 L 338.2 1046.0 L 340.4 1051.5 L 342.5 1057.0 L 344.7 1062.6 L 347.0 1068.1 L 349.4 1073.5 L 351.8 1078.9 L 351.8 1078.9 L 354.2 1084.3 L 356.7 1089.7 L 359.1 1095.1 L 361.5 1100.6 L 364.0 1106.1 L 366.5 1111.5 L 369.1 1116.8 L 371.7 1122.3 L 374.3 1127.5 L 377.1 1132.8 L 379.9 1138.0 L 382.8 1143.1 L 385.8 1148.2 L 389.0 1153.2 L 392.3 1158.1 L 395.7 1162.7 L 395.7 1162.7 L 399.3 1167.4 L 402.9 1171.9 L 406.8 1176.4 L 410.8 1180.8 L 414.8 1185.0 L 419.0 1189.2 L 423.2 1193.4 L 427.5 1197.5 L 431.9 1201.6 L 436.3 1205.5 L 440.8 1209.5 L 445.4 1213.3 L 449.9 1217.3 L 454.4 1221.2 L 459.0 1224.9 L 463.5 1228.8 L 463.5 1228.8 L 468.0 1232.6 L 472.6 1236.3 L 477.3 1239.9 L 482.0 1243.5 L 486.8 1247.0 L 491.5 1250.5 L 496.4 1254.0 L 501.3 1257.4 L 506.2 1260.8 L 511.0 1264.2 L 515.8 1267.7 L 520.7 1271.1 L 525.5 1274.6 L 530.3 1278.1 L 535.1 1281.7 L 539.7 1285.4 L 539.7 1285.4 L 544.3 1289.1 L 549.0 1292.7 L 553.5 1296.5 L 558.1 1300.4 L 562.7 1304.1 L 567.3 1308.0 L 571.8 1311.9 L 576.3 1315.7 L 580.8 1319.6 L 585.3 1323.5 L 589.8 1327.2 L 594.4 1331.1 L 598.9 1334.9 L 603.5 1338.6 L 608.1 1342.3 L 612.8 1346.0 L 612.8 1346.0 L 617.4 1349.8 L 622.0 1353.6 L 626.6 1357.5 L 631.2 1361.6 L 635.7 1365.6 L 640.3 1369.7 L 644.9 1373.6 L 649.6 1377.5 L 654.2 1381.3 L 659.0 1385.0 L 663.8 1388.4 L 668.6 1391.7 L 673.5 1394.8 L 678.6 1397.5 L 683.7 1400.0 L 688.9 1402.1 L 688.9 1402.1 L 694.4 1403.7 L 700.0 1404.8 L 705.9 1405.4 L 712.0 1405.7 L 718.1 1405.6 L 724.4 1405.3 L 730.6 1405.0 L 736.9 1404.5 L 743.2 1404.1 L 749.3 1403.6 L 755.4 1403.4 L 761.3 1403.4 L 766.9 1403.8 L 772.3 1404.6 L 777.5 1405.8 L 782.4 1407.6 L 782.4 1407.6 L 787.0 1409.9 L 791.3 1412.7 L 795.5 1415.8 L 799.6 1419.3 L 803.4 1423.1 L 807.2 1427.1 L 810.8 1431.3 L 814.3 1435.6 L 817.6 1440.0 L 820.8 1444.4 L 823.9 1449.0 L 826.9 1453.4 L 829.8 1457.6 L 832.7 1461.8 L 835.4 1465.8 L 838.1 1469.5 L 838.1 1469.5 L 840.7 1473.2 L 843.2 1476.6 L 845.6 1480.2 L 848.0 1483.7 L 850.2 1487.2 L 852.5 1490.7 L 854.5 1494.1 L 856.4 1497.5 L 858.3 1500.8 L 859.9 1504.2 L 861.5 1507.4 L 862.9 1510.6 L 864.1 1513.7 L 865.2 1516.9 L 866.2 1519.8 L 866.9 1522.7 L 866.9 1522.7 L 867.5 1525.7 L 867.9 1528.4 L 868.3 1531.0 L 868.4 1533.5 L 868.4 1536.0 L 868.3 1538.4 L 868.0 1540.7 L 867.6 1543.1 L 867.1 1545.4 L 866.4 1547.8 L 865.6 1550.1 L 864.7 1552.5 L 863.7 1555.0 L 862.5 1557.5 L 861.3 1560.2 L 859.9 1562.9 L 859.9 1562.9 L 858.4 1566.1 L 856.8 1569.5 L 855.1 1573.2 L 853.3 1577.3 L 851.4 1581.4 L 849.3 1585.7 L 847.1 1589.9 L 844.8 1594.0 L 842.4 1598.0 L 839.9 1601.7 L 837.1 1605.0 L 834.2 1607.9 L 831.2 1610.2 L 828.1 1612.1 L 824.8 1613.2 L 821.3 1613.5 L 821.3 1613.5 L 817.6 1613.1 L 813.6 1611.9 L 809.4 1610.1 L 805.0 1607.7 L 800.4 1605.0 L 795.6 1601.7 L 790.8 1598.1 L 785.8 1594.1 L 780.8 1590.0 L 775.7 1585.8 L 770.7 1581.3 L 765.6 1577.0 L 760.5 1572.7 L 755.7 1568.5 L 750.8 1564.5 L 746.2 1560.7 L 746.2 1560.7 L 741.6 1557.1 L 737.1 1553.4 L 732.6 1549.6 L 728.1 1545.8 L 723.6 1541.9 L 719.1 1538.0 L 714.6 1534.1 L 710.2 1530.1 L 705.8 1526.1 L 701.3 1522.1 L 696.9 1518.1 L 692.4 1514.2 L 688.0 1510.2 L 683.5 1506.3 L 678.9 1502.5 L 674.3 1498.6 L 674.3 1498.6 L 669.7 1494.9 L 665.1 1491.1 L 660.5 1487.3 L 655.9 1483.5 L 651.3 1479.8 L 646.7 1476.1 L 642.1 1472.3 L 637.5 1468.6 L 632.9 1465.0 L 628.2 1461.3 L 623.5 1457.7 L 618.8 1454.1 L 614.0 1450.5 L 609.2 1447.0 L 604.4 1443.5 L 599.5 1440.1 L 599.5 1440.1 L 594.7 1436.8 L 589.7 1433.5 L 584.7 1430.3 L 579.8 1427.1 L 574.8 1423.9 L 569.7 1420.8 L 564.7 1417.7 L 559.5 1414.6 L 554.5 1411.6 L 549.3 1408.6 L 544.3 1405.6 L 539.1 1402.6 L 534.0 1399.6 L 528.8 1396.7 L 523.6 1393.7 L 518.5 1390.7 L 518.5 1390.7 L 513.4 1387.8 L 508.2 1384.8 L 503.0 1382.0 L 497.8 1379.1 L 492.6 1376.4 L 487.3 1373.5 L 482.1 1370.8 L 476.8 1368.0 L 471.6 1365.2 L 466.3 1362.4 L 461.1 1359.5 L 455.9 1356.7 L 450.8 1353.7 L 445.6 1350.8 L 440.6 1347.8 L 435.5 1344.6 L 435.5 1344.6 L 430.5 1341.5 L 425.5 1338.4 L 420.4 1335.2 L 415.5 1331.9 L 410.5 1328.7 L 405.5 1325.4 L 400.6 1322.1 L 395.7 1318.8 L 390.8 1315.4 L 385.9 1312.0 L 381.1 1308.5 L 376.4 1304.9 L 371.7 1301.3 L 367.0 1297.7 L 362.4 1293.9 L 357.9 1290.2 L 357.9 1290.2 L 353.4 1286.4 L 348.8 1282.5 L 344.3 1278.6 L 339.9 1274.6 L 335.5 1270.6 L 331.2 1266.5 L 326.9 1262.4 L 322.6 1258.2 L 318.4 1254.0 L 314.3 1249.8 L 310.2 1245.5 L 306.2 1241.0 L 302.3 1236.6 L 298.4 1232.1 L 294.7 1227.5 L 291.1 1222.9 L 291.1 1222.9 L 287.5 1218.2 L 284.1 1213.4 L 280.7 1208.6 L 277.5 1203.7 L 274.3 1198.6 L 271.2 1193.6 L 268.3 1188.5 L 265.2 1183.4 L 262.4 1178.2 L 259.4 1173.0 L 256.6 1167.7 L 253.8 1162.5 L 251.0 1157.3 L 248.1 1152.1 L 245.3 1146.8 L 242.4 1141.6 L 242.4 1141.6 L 239.6 1136.4 L 236.8 1131.2 L 234.0 1125.9 L 231.4 1120.7 L 228.7 1115.4 L 226.0 1110.0 L 223.5 1104.8 L 220.8 1099.4 L 218.2 1094.1 L 215.5 1088.8 L 212.9 1083.4 L 210.2 1078.1 L 207.5 1072.9 L 204.9 1067.6 L 202.0 1062.3 L 199.3 1057.1 L 199.3 1057.1 L 196.4 1051.9 L 193.5 1046.7 L 190.6 1041.6 L 187.7 1036.3 L 184.7 1031.2 L 181.8 1026.1 L 178.7 1021.0 L 175.8 1015.8 L 172.8 1010.7 L 169.7 1005.6 L 166.7 1000.5 L 163.7 995.4 L 160.6 990.3 L 157.6 985.2 L 154.5 980.1 L 151.4 975.1 L 151.4 975.1 L 148.4 969.9 L 145.3 964.9 L 142.3 959.7 L 139.4 954.6 L 136.3 949.5 L 133.3 944.4 L 130.3 939.3 L 127.1 934.2 L 124.1 929.2 L 121.0 924.1 L 117.8 919.0 L 114.6 914.1 L 111.4 909.1 L 108.1 904.1 L 104.8 899.3 L 101.4 894.4 L 101.4 894.4 L 98.0 889.6 L 94.5 884.8 L 90.9 880.0 L 87.3 875.3 L 83.7 870.6 L 80.0 866.0 L 76.3 861.4 L 72.6 856.7 L 68.8 852.1 L 65.0 847.6 L 61.3 843.0 L 57.4 838.4 L 53.5 833.9 L 49.7 829.4 L 45.8 824.9 L 41.9 820.4 L 41.9 820.4 L 38.0 816.0 L 34.0 811.6 L 30.1 807.2 L 26.1 802.7 L 22.1 798.4 L 18.0 794.1 L 14.0 789.8 L 9.8 785.5 L 5.8 781.1 L 1.6 776.9 L 0.0 775.2" fill="none" stroke="#ff3ea5" stroke-width="6.0" stroke-opacity="0.9"/></g><g id="clips"><circle cx="110.4" cy="0.0" r="2" fill="none" stroke="#0b5" stroke-width="0.6"/><circle cx="55.3" cy="191.4" r="2" fill="none" stroke="#0b5" stroke-width="0.6"/><circle cx="140.7" cy="364.5" r="2" fill="none" stroke="#0b5" stroke-width="0.6"/><circle cx="315.0" cy="458.0" r="2" fill="none" stroke="#0b5" stroke-width="0.6"/><circle cx="504.0" cy="522.2" r="2" fill="none" stroke="#0b5" stroke-width="0.6"/><circle cx="701.5" cy="553.7" r="2" fill="none" stroke="#0b5" stroke-width="0.6"/><circle cx="846.9" cy="675.5" r="2" fill="none" stroke="#0b5" stroke-width="0.6"/><circle cx="900.6" cy="867.9" r="2" fill="none" stroke="#0b5" stroke-width="0.6"/><circle cx="973.4" cy="1053.6" r="2" fill="none" stroke="#0b5" stroke-width="0.6"/><circle cx="906.9" cy="1179.8" r="2" fill="none" stroke="#0b5" stroke-width="0.6"/><circle cx="864.8" cy="999.2" r="2" fill="none" stroke="#0b5" stroke-width="0.6"/><circle cx="806.1" cy="810.1" r="2" fill="none" stroke="#0b5" stroke-width="0.6"/><circle cx="674.4" cy="668.9" r="2" fill="none" stroke="#0b5" stroke-width="0.6"/><circle cx="476.8" cy="640.6" r="2" fill="none" stroke="#0b5" stroke-width="0.6"/><circle cx="428.7" cy="733.5" r="2" fill="none" stroke="#0b5" stroke-width="0.6"/><circle cx="609.3" cy="810.5" r="2" fill="none" stroke="#0b5" stroke-width="0.6"/><circle cx="574.3" cy="976.9" r="2" fill="none" stroke="#0b5" stroke-width="0.6"/><circle cx="385.7" cy="949.4" r="2" fill="none" stroke="#0b5" stroke-width="0.6"/><circle cx="284.2" cy="925.4" r="2" fill="none" stroke="#0b5" stroke-width="0.6"/><circle cx="364.9" cy="1108.2" r="2" fill="none" stroke="#0b5" stroke-width="0.6"/><circle cx="497.1" cy="1254.5" r="2" fill="none" stroke="#0b5" stroke-width="0.6"/><circle cx="652.7" cy="1380.0" r="2" fill="none" stroke="#0b5" stroke-width="0.6"/><circle cx="825.9" cy="1451.9" r="2" fill="none" stroke="#0b5" stroke-width="0.6"/><circle cx="812.3" cy="1611.3" r="2" fill="none" stroke="#0b5" stroke-width="0.6"/><circle cx="657.7" cy="1485.0" r="2" fill="none" stroke="#0b5" stroke-width="0.6"/><circle cx="490.9" cy="1375.5" r="2" fill="none" stroke="#0b5" stroke-width="0.6"/><circle cx="326.9" cy="1262.4" r="2" fill="none" stroke="#0b5" stroke-width="0.6"/><circle cx="218.9" cy="1095.5" r="2" fill="none" stroke="#0b5" stroke-width="0.6"/><circle cx="119.6" cy="921.9" r="2" fill="none" stroke="#0b5" stroke-width="0.6"/><circle cx="0.0" cy="775.2" r="2" fill="none" stroke="#0b5" stroke-width="0.6"/></g><g id="power"><circle cx="110.4" cy="0.0" r="5" fill="none" stroke="#e33" stroke-width="1"/><circle cx="0.0" cy="775.2" r="5" fill="none" stroke="#e33" stroke-width="1"/></g><g id="bridges"></g></svg>