<svg xmlns="http://www.w3.org/2000/svg" width="1000mm" height="2000mm" viewBox="0 0 1000 2000"><g id="outline"><rect x="0" y="0" width="1000" height="2000" fill="none" stroke="#000" stroke-width="1"/></g><g id="channels"><path d="M 1000.0 312.3 L 995.1 315.3 L 989.2 319.0 L 983.2 322.7 L 977.2 326.3 L 971.3 330.0 L 965.3 333.7 L 959.3 337.3 L 953.3 341.0 L 947.3 344.6 L 941.3 348.2 L 941.3 348.2 L 935.3 351.9 L 929.3 355.5 L 923.3 359.2 L 917.3 362.9 L 911.3 366.5 L 905.3 370.2 L 899.3 373.9 L 893.3 377.5 L 887.3 381.2 L 881.2 384.7 L 875.2 388.3 L 869.1 391.7 L 863.0 395.1 L 856.8 398.5 L 850.6 401.7 L 844.4 404.9 L 844.4 404.9 L 838.1 408.0 L 831.8 411.1 L 825.5 414.2 L 819.2 417.2 L 812.8 420.2 L 806.4 423.2 L 800.0 426.1 L 793.6 428.9 L 787.1 431.7 L 780.6 434.3 L 774.1 436.9 L 767.6 439.4 L 761.0 441.8 L 754.4 444.0 L 747.7 446.1 L 741.1 448.1 L 741.1 448.1 L 734.4 449.9 L 727.6 451.5 L 720.7 452.9 L 713.9 454.2 L 706.9 455.3 L 700.0 456.3 L 693.0 457.3 L 686.0 458.1 L 679.0 459.0 L 672.0 459.8 L 665.0 460.7 L 658.0 461.6 L 651.1 462.6 L 644.1 463.7 L 637.3 464.9 L 630.4 466.3 L 630.4 466.3 L 623.5 467.7 L 616.6 469.0 L 609.6 470.3 L 602.6 471.6 L 595.6 472.9 L 588.6 474.2 L 581.6 475.5 L 574.7 476.9 L 567.8 478.5 L 561.0 480.2 L 554.2 482.0 L 547.6 484.1 L 541.1 486.3 L 534.7 488.8 L 528.5 491.6 L 522.4 494.6 L 522.4 494.6 L 516.5 498.0 L 510.7 501.6 L 505.1 505.5 L 499.5 509.6 L 494.1 513.9 L 488.7 518.4 L 483.5 523.1 L 478.3 527.9 L 473.2 532.8 L 468.2 537.9 L 463.3 543.0 L 458.4 548.1 L 453.5 553.3 L 448.7 558.5 L 444.0 563.7 L 439.2 568.8 L 439.2 568.8 L 434.6 574.0 L 430.0 579.3 L 425.5 584.6 L 421.1 590.1 L 416.8 595.6 L 412.6 601.2 L 408.3 606.8 L 404.2 612.5 L 400.1 618.2 L 396.0 623.9 L 391.9 629.7 L 387.8 635.4 L 383.8 641.2 L 379.7 646.9 L 375.6 652.7 L 371.5 658.3 L 371.5 658.3 L 367.4 664.0 L 363.3 669.7 L 359.3 675.5 L 355.2 681.2 L 351.2 686.9 L 347.2 692.7 L 343.2 698.4 L 339.2 704.2 L 335.2 710.0 L 331.2 715.8 L 327.3 721.6 L 323.3 727.4 L 319.3 733.1 L 315.4 738.9 L 311.4 744.7 L 307.4 750.5 L 307.4 750.5 L 303.4 756.3 L 299.5 762.1 L 295.5 767.9 L 291.6 773.7 L 287.7 779.5 L 283.7 785.3 L 279.8 791.1 L 275.9 796.9 L 271.9 802.7 L 268.0 808.5 L 264.1 814.4 L 260.1 820.2 L 256.2 826.0 L 252.2 831.7 L 248.2 837.5 L 244.2 843.3 L 244.2 843.3 L 240.2 849.0 L 236.0 854.8 L 231.8 860.5 L 227.5 866.2 L 223.2 871.8 L 218.9 877.5 L 214.6 883.2 L 210.3 888.9 L 206.1 894.6 L 201.9 900.3 L 197.8 906.0 L 193.9 911.7 L 190.0 917.5 L 186.4 923.3 L 182.8 929.1 L 179.5 935.0 L 179.5 935.0 L 176.2 941.2 L 172.5 948.0 L 168.8 955.1 L 164.9 962.5 L 161.1 970.1 L 157.3 977.7 L 153.7 985.3 L 150.3 992.8 L 147.2 999.9 L 144.5 1006.7 L 142.3 1012.9 L 140.7 1018.5 L 139.7 1023.4 L 139.4 1027.5 L 139.9 1030.5 L 141.2 1032.5 L 141.2 1032.5 L 143.6 1033.4 L 146.9 1033.3 L 151.1 1032.2 L 156.1 1030.4 L 161.7 1027.8 L 167.9 1024.6 L 174.5 1020.9 L 181.5 1016.8 L 188.8 1012.3 L 196.2 1007.6 L 203.7 1002.8 L 211.1 998.0 L 218.3 993.3 L 225.3 988.7 L 231.9 984.5 L 238.0 980.6 L 238.0 980.6 L 243.9 976.8 L 249.7 973.0 L 255.4 969.0 L 261.1 965.0 L 266.8 960.9 L 272.4 956.7 L 278.0 952.5 L 283.7 948.3 L 289.3 944.0 L 294.9 939.7 L 300.5 935.5 L 306.2 931.3 L 311.9 927.1 L 317.6 923.0 L 323.3 918.9 L 329.1 915.0 L 329.1 915.0 L 334.9 911.1 L 340.8 907.2 L 346.7 903.4 L 352.6 899.6 L 358.5 895.8 L 364.4 892.1 L 370.4 888.3 L 376.3 884.6 L 382.3 880.9 L 388.3 877.3 L 394.2 873.6 L 400.2 869.9 L 406.2 866.2 L 412.2 862.5 L 418.1 858.9 L 424.1 855.1 L 424.1 855.1 L 430.0 851.4 L 436.0 847.7 L 442.0 844.0 L 447.9 840.3 L 453.9 836.6 L 459.9 832.9 L 465.8 829.3 L 471.8 825.6 L 477.8 821.9 L 483.7 818.2 L 489.7 814.5 L 495.7 810.8 L 501.7 807.2 L 507.6 803.5 L 513.6 799.8 L 519.6 796.1 L 519.6 796.1 L 525.5 792.4 L 531.4 788.6 L 537.3 784.7 L 543.2 780.9 L 549.1 777.0 L 555.0 773.1 L 560.8 769.2 L 566.7 765.4 L 572.6 761.6 L 578.6 757.8 L 584.5 754.1 L 590.5 750.4 L 596.5 746.9 L 602.6 743.5 L 608.8 740.1 L 615.0 736.9 L 615.0 736.9 L 621.2 733.9 L 627.5 730.8 L 633.8 727.8 L 640.2 724.9 L 646.6 722.0 L 653.0 719.2 L 659.5 716.5 L 666.0 713.9 L 672.5 711.3 L 679.1 708.9 L 685.7 706.5 L 692.3 704.2 L 698.9 702.1 L 705.6 700.0 L 712.3 698.1 L 719.0 696.2 L 719.0 696.2 L 725.7 694.6 L 732.5 693.2 L 739.4 691.9 L 746.3 690.8 L 753.2 689.8 L 760.2 689.0 L 767.2 688.2 L 774.2 687.5 L 781.2 686.8 L 788.2 686.1 L 795.3 685.4 L 802.3 684.6 L 809.3 683.8 L 816.3 682.8 L 823.2 681.8 L 830.1 680.6 L 830.1 680.6 L 837.0 679.3 L 843.9 677.9 L 850.7 676.4 L 857.6 674.9 L 864.4 673.3 L 871.2 671.7 L 878.0 670.0 L 884.9 668.4 L 891.7 666.7 L 898.5 665.0 L 905.3 663.3 L 912.1 661.6 L 918.9 660.0 L 925.8 658.4 L 932.6 656.8 L 939.5 655.3 L 939.5 655.3 L 946.3 653.8 L 953.2 652.4 L 960.0 650.9 L 966.9 649.5 L 973.8 648.1 L 980.7 646.7 L 987.5 645.3 L 994.4 643.9 L 1000.0 642.8" fill="none" stroke="#2b6bff" stroke-width="6.0" stroke-opacity="0.9"/><path d="M 1000.0 918.2 L 996.2 919.1 L 989.7 920.7 L 983.3 922.2 L 976.8 923.8 L 970.4 925.2 L 964.0 926.7 L 957.5 928.1 L 957.5 928.1 L 951.1 929.5 L 944.6 930.7 L 938.0 931.8 L 931.5 932.8 L 924.9 933.8 L 918.4 934.7 L 911.8 935.6 L 905.2 936.4 L 898.7 937.3 L 892.1 938.2 L 885.5 939.2 L 879.0 940.2 L 872.5 941.4 L 866.0 942.6 L 859.6 944.0 L 853.2 945.5 L 853.2 945.5 L 846.8 947.1 L 840.4 948.7 L 834.0 950.3 L 827.6 952.0 L 821.2 953.7 L 814.8 955.5 L 808.4 957.4 L 802.1 959.3 L 795.8 961.4 L 789.5 963.5 L 783.4 965.8 L 777.2 968.1 L 771.2 970.7 L 765.2 973.3 L 759.4 976.2 L 753.6 979.2 L 753.6 979.2 L 748.0 982.4 L 742.4 985.8 L 737.0 989.4 L 731.6 993.2 L 726.4 997.1 L 721.1 1001.1 L 716.0 1005.3 L 710.9 1009.5 L 705.8 1013.8 L 700.8 1018.2 L 695.8 1022.6 L 690.8 1027.1 L 685.8 1031.5 L 680.9 1035.9 L 675.9 1040.3 L 670.9 1044.6 L 670.9 1044.6 L 665.9 1049.0 L 660.9 1053.3 L 656.0 1057.7 L 651.1 1062.2 L 646.3 1066.6 L 641.4 1071.1 L 636.6 1075.6 L 631.8 1080.2 L 627.0 1084.7 L 622.2 1089.3 L 617.4 1093.8 L 612.6 1098.4 L 607.8 1102.9 L 603.0 1107.5 L 598.2 1112.0 L 593.3 1116.5 L 593.3 1116.5 L 588.5 1121.0 L 583.6 1125.5 L 578.8 1130.0 L 573.9 1134.5 L 569.1 1139.0 L 564.2 1143.5 L 559.4 1148.0 L 554.5 1152.5 L 549.7 1157.0 L 544.8 1161.4 L 540.0 1165.9 L 535.2 1170.4 L 530.3 1174.9 L 525.5 1179.4 L 520.6 1183.9 L 515.8 1188.4 L 515.8 1188.4 L 510.9 1192.9 L 506.0 1197.4 L 501.2 1201.8 L 496.3 1206.3 L 491.4 1210.7 L 486.4 1215.1 L 481.5 1219.6 L 476.7 1224.0 L 471.8 1228.5 L 466.9 1233.0 L 462.1 1237.4 L 457.2 1242.0 L 452.4 1246.5 L 447.7 1251.1 L 443.0 1255.7 L 438.3 1260.4 L 438.3 1260.4 L 433.7 1265.1 L 429.0 1269.8 L 424.4 1274.5 L 419.9 1279.3 L 415.3 1284.1 L 410.8 1288.9 L 406.3 1293.7 L 401.8 1298.6 L 397.4 1303.5 L 392.9 1308.4 L 388.5 1313.3 L 384.2 1318.2 L 379.8 1323.2 L 375.5 1328.2 L 371.2 1333.2 L 366.9 1338.2 L 366.9 1338.2 L 362.7 1343.3 L 358.5 1348.5 L 354.5 1353.7 L 350.5 1359.0 L 346.6 1364.4 L 342.7 1369.8 L 338.8 1375.2 L 334.9 1380.5 L 331.0 1385.9 L 327.0 1391.2 L 323.0 1396.5 L 318.9 1401.7 L 314.8 1406.7 L 310.5 1411.7 L 306.1 1416.6 L 301.5 1421.3 L 301.5 1421.3 L 296.8 1425.9 L 292.1 1430.4 L 287.3 1434.9 L 282.4 1439.4 L 277.4 1443.8 L 272.4 1448.1 L 267.3 1452.3 L 262.1 1456.5 L 256.9 1460.5 L 251.6 1464.5 L 246.2 1468.4 L 240.8 1472.2 L 235.4 1475.8 L 229.8 1479.4 L 224.3 1482.8 L 218.6 1486.1 L 218.6 1486.1 L 212.9 1489.3 L 207.1 1492.3 L 201.2 1495.2 L 195.3 1498.0 L 189.2 1500.6 L 183.2 1503.2 L 177.0 1505.6 L 170.8 1508.0 L 164.6 1510.3 L 158.3 1512.5 L 152.0 1514.7 L 145.7 1516.8 L 139.4 1518.9 L 133.1 1521.0 L 126.8 1523.1 L 120.6 1525.2 L 120.6 1525.2 L 114.3 1527.2 L 108.0 1529.2 L 101.7 1531.1 L 95.3 1532.9 L 89.0 1534.7 L 82.6 1536.4 L 76.2 1538.1 L 69.8 1539.7 L 63.4 1541.4 L 57.0 1543.0 L 50.6 1544.6 L 44.1 1546.2 L 37.7 1547.8 L 31.3 1549.4 L 24.9 1551.1 L 18.5 1552.8 L 18.5 1552.8 L 12.1 1554.4 L 5.7 1556.1 L 0.0 1557.6" fill="none" stroke="#2b6bff" stroke-width="6.0" stroke-opacity="0.9"/><path d="M 0.0 1796.1 L 4.1 1794.3 L 10.2 1791.7 L 16.3 1789.1 L 22.4 1786.6 L 28.5 1784.1 L 34.7 1781.6 L 40.8 1779.0 L 46.8 1776.4 L 52.9 1773.8 L 58.9 1771.1 L 64.9 1768.3 L 70.8 1765.5 L 70.8 1765.5 L 76.7 1762.6 L 82.7 1759.7 L 88.8 1756.9 L 94.8 1754.1 L 100.9 1751.3 L 106.9 1748.5 L 113.0 1745.7 L 118.9 1742.7 L 124.8 1739.7 L 130.7 1736.6 L 136.4 1733.4 L 142.0 1730.0 L 147.5 1726.5 L 152.8 1722.8 L 157.9 1718.9 L 162.9 1714.8 L 162.9 1714.8 L 167.6 1710.5 L 172.1 1705.9 L 176.4 1701.0 L 180.6 1696.0 L 184.6 1690.8 L 188.5 1685.5 L 192.2 1680.0 L 195.9 1674.5 L 199.6 1668.9 L 203.2 1663.3 L 206.9 1657.6 L 210.6 1652.0 L 214.3 1646.5 L 218.1 1641.0 L 222.0 1635.7 L 226.1 1630.5 L 226.1 1630.5 L 230.2 1625.2 L 234.4 1619.8 L 238.7 1614.2 L 243.0 1608.5 L 247.3 1602.8 L 251.6 1597.0 L 256.0 1591.3 L 260.4 1585.7 L 264.7 1580.3 L 269.1 1575.0 L 273.5 1570.1 L 277.8 1565.4 L 282.1 1561.1 L 286.4 1557.2 L 290.6 1553.7 L 294.8 1550.8 L 294.8 1550.8 L 299.0 1548.3 L 303.4 1546.2 L 308.0 1544.5 L 312.6 1543.1 L 317.2 1542.1 L 321.8 1541.3 L 326.4 1540.9 L 330.9 1540.6 L 335.3 1540.6 L 339.5 1540.8 L 343.5 1541.2 L 347.2 1541.7 L 350.7 1542.4 L 353.8 1543.2 L 356.6 1544.0 L 359.0 1545.0 L 359.0 1545.0 L 360.8 1546.3 L 361.9 1548.2 L 362.6 1550.8 L 362.8 1553.7 L 362.6 1557.0 L 362.2 1560.5 L 361.6 1564.0 L 360.9 1567.6 L 360.2 1571.0 L 359.7 1574.1 L 359.3 1576.8 L 359.2 1579.1 L 359.5 1580.8 L 360.2 1581.7 L 361.5 1581.8 L 363.5 1580.9 L 363.5 1580.9 L 366.2 1578.9 L 369.5 1575.7 L 373.4 1571.4 L 377.8 1566.2 L 382.6 1560.4 L 387.6 1554.1 L 392.9 1547.4 L 398.2 1540.5 L 403.6 1533.7 L 408.8 1527.1 L 413.9 1520.9 L 418.6 1515.2 L 423.0 1510.2 L 427.0 1506.1 L 430.3 1503.1 L 433.1 1501.4 L 433.1 1501.4 L 435.1 1500.9 L 436.7 1501.4 L 437.8 1502.8 L 438.6 1504.9 L 439.0 1507.7 L 439.1 1511.1 L 439.0 1514.8 L 438.8 1518.8 L 438.5 1523.0 L 438.1 1527.3 L 437.8 1531.5 L 437.5 1535.5 L 437.4 1539.2 L 437.5 1542.5 L 437.9 1545.2 L 438.6 1547.2 L 438.6 1547.2 L 439.5 1548.8 L 440.4 1550.1 L 441.5 1551.2 L 442.5 1552.1 L 443.7 1552.8 L 444.9 1553.4 L 446.2 1553.8 L 447.5 1554.1 L 449.0 1554.3 L 450.4 1554.5 L 452.0 1554.6 L 453.6 1554.7 L 455.2 1554.7 L 456.9 1554.8 L 458.7 1555.0 L 460.6 1555.2 L 460.6 1555.2 L 462.6 1555.3 L 465.0 1555.1 L 467.6 1554.8 L 470.4 1554.3 L 473.3 1553.7 L 476.4 1553.1 L 479.4 1552.5 L 482.4 1551.9 L 485.4 1551.4 L 488.2 1551.1 L 490.8 1550.9 L 493.1 1551.0 L 495.1 1551.4 L 496.8 1552.1 L 498.0 1553.2 L 498.7 1554.7 L 498.7 1554.7 L 498.8 1556.9 L 498.2 1559.7 L 497.0 1563.0 L 495.3 1566.8 L 493.2 1570.9 L 490.9 1575.3 L 488.4 1579.8 L 485.8 1584.4 L 483.3 1589.0 L 480.9 1593.5 L 478.8 1597.7 L 477.1 1601.6 L 475.9 1605.1 L 475.2 1608.0 L 475.3 1610.4 L 476.1 1612.0 L 476.1 1612.0 L 478.0 1612.7 L 480.9 1612.7 L 484.6 1611.9 L 489.0 1610.5 L 493.9 1608.7 L 499.3 1606.5 L 504.9 1604.1 L 510.5 1601.6 L 516.1 1599.2 L 521.5 1597.0 L 526.5 1595.0 L 531.0 1593.5 L 534.7 1592.5 L 537.7 1592.2 L 539.6 1592.8 L 540.5 1594.2 L 540.5 1594.2 L 540.0 1596.8 L 538.2 1600.3 L 535.3 1604.6 L 531.4 1609.7 L 526.9 1615.4 L 521.8 1621.5 L 516.4 1627.8 L 510.8 1634.4 L 505.2 1640.9 L 499.8 1647.3 L 494.8 1653.5 L 490.4 1659.2 L 486.8 1664.4 L 484.1 1668.9 L 482.6 1672.6 L 482.4 1675.3 L 482.4 1675.3 L 483.7 1677.0 L 486.4 1677.8 L 490.4 1677.9 L 495.4 1677.3 L 501.1 1676.1 L 507.5 1674.6 L 514.2 1672.7 L 521.2 1670.8 L 528.0 1668.8 L 534.6 1666.9 L 540.8 1665.2 L 546.2 1663.9 L 550.8 1663.0 L 554.3 1662.7 L 556.5 1663.1 L 557.2 1664.4 L 557.2 1664.4 L 556.5 1666.5 L 554.7 1669.3 L 552.0 1672.6 L 548.5 1676.4 L 544.3 1680.6 L 539.4 1685.1 L 533.9 1689.9 L 528.1 1694.9 L 521.8 1699.9 L 515.4 1705.0 L 508.8 1710.0 L 502.2 1714.9 L 495.6 1719.5 L 489.2 1723.8 L 483.0 1727.7 L 477.2 1731.2 L 477.2 1731.2 L 471.5 1734.3 L 465.7 1737.2 L 459.7 1739.8 L 453.7 1742.3 L 447.5 1744.6 L 441.3 1746.8 L 435.0 1748.9 L 428.6 1750.9 L 422.2 1752.8 L 415.8 1754.8 L 409.4 1756.7 L 403.0 1758.7 L 396.7 1760.7 L 390.3 1762.8 L 384.1 1765.0 L 377.9 1767.4 L 377.9 1767.4 L 371.8 1769.8 L 365.6 1772.2 L 359.4 1774.6 L 353.3 1777.0 L 347.1 1779.4 L 340.9 1781.8 L 334.8 1784.2 L 328.7 1786.7 L 322.6 1789.2 L 316.5 1791.8 L 310.4 1794.4 L 304.4 1797.1 L 298.4 1799.9 L 292.5 1802.8 L 286.6 1805.7 L 280.8 1808.8 L 280.8 1808.8 L 275.0 1811.9 L 269.3 1815.2 L 263.7 1818.6 L 258.1 1822.1 L 252.5 1825.6 L 247.0 1829.2 L 241.5 1832.9 L 236.0 1836.6 L 230.5 1840.4 L 225.1 1844.2 L 219.7 1848.0 L 214.2 1851.8 L 208.8 1855.5 L 203.4 1859.3 L 197.9 1863.1 L 192.4 1866.7 L 192.4 1866.7 L 186.9 1870.4 L 181.5 1874.1 L 176.0 1877.9 L 170.5 1881.6 L 165.1 1885.3 L 159.7 1889.1 L 154.2 1892.8 L 148.8 1896.6 L 143.3 1900.3 L 137.9 1904.1 L 132.4 1907.8 L 127.0 1911.5 L 121.5 1915.3 L 116.0 1918.9 L 110.5 1922.6 L 105.0 1926.2 L 105.0 1926.2 L 99.5 1929.8 L 93.9 1933.4 L 88.3 1937.0 L 82.8 1940.5 L 77.2 1944.1 L 71.6 1947.6 L 66.0 1951.1 L 60.4 1954.6 L 54.8 1958.1 L 49.2 1961.6 L 43.6 1965.1 L 37.9 1968.6 L 32.3 1972.0 L 26.7 1975.5 L 21.1 1979.0 L 15.4 1982.4 L 15.4 1982.4 L 9.8 1985.9 L 4.2 1989.4 L 0.0 1991.9" fill="none" stroke="#2b6bff" stroke-width="6.0" stroke-opacity="0.9"/><path d="M 0.0 714.0 L 2.8 710.9 L 7.7 705.3 L 12.6 699.8 L 17.5 694.3 L 22.4 688.7 L 27.2 683.2 L 32.1 677.6 L 37.0 672.0 L 41.8 666.5 L 46.6 660.9 L 46.6 660.9 L 51.4 655.3 L 56.2 649.6 L 61.0 644.0 L 65.8 638.4 L 70.5 632.7 L 75.3 627.1 L 80.0 621.4 L 84.8 615.7 L 89.5 610.0 L 94.2 604.4 L 98.9 598.7 L 103.7 593.0 L 108.4 587.3 L 113.1 581.6 L 117.8 575.9 L 122.5 570.2 L 122.5 570.2 L 127.1 564.5 L 131.8 558.7 L 136.4 553.0 L 141.1 547.2 L 145.7 541.4 L 150.3 535.6 L 154.9 529.9 L 159.5 524.1 L 164.1 518.3 L 168.7 512.5 L 173.3 506.8 L 178.0 501.0 L 182.6 495.3 L 187.4 489.6 L 192.1 484.0 L 196.9 478.3 L 196.9 478.3 L 201.6 472.7 L 206.4 467.0 L 211.2 461.4 L 215.9 455.7 L 220.7 450.0 L 225.5 444.3 L 230.3 438.7 L 235.1 433.1 L 240.0 427.5 L 244.9 422.0 L 249.9 416.5 L 255.0 411.1 L 260.1 405.8 L 265.2 400.6 L 270.5 395.4 L 275.9 390.4 L 275.9 390.4 L 281.3 385.5 L 286.8 380.5 L 292.3 375.7 L 297.9 370.8 L 303.6 366.1 L 309.3 361.4 L 315.0 356.7 L 320.9 352.2 L 326.8 347.7 L 332.7 343.3 L 338.7 339.0 L 344.8 334.8 L 350.9 330.7 L 357.1 326.7 L 363.3 322.8 L 369.6 319.1 L 369.6 319.1 L 376.0 315.5 L 382.5 312.0 L 389.0 308.7 L 395.6 305.6 L 402.3 302.5 L 409.1 299.5 L 415.9 296.7 L 422.8 293.9 L 429.7 291.1 L 436.6 288.4 L 443.6 285.8 L 450.5 283.2 L 457.5 280.6 L 464.4 278.0 L 471.3 275.4 L 478.2 272.7 L 478.2 272.7 L 485.1 270.1 L 492.0 267.5 L 499.0 264.9 L 505.9 262.4 L 512.9 259.9 L 519.8 257.5 L 526.8 255.0 L 533.8 252.6 L 540.8 250.3 L 547.8 247.9 L 554.8 245.6 L 561.9 243.3 L 568.9 241.0 L 575.9 238.7 L 583.0 236.4 L 590.0 234.2 L 590.0 234.2 L 597.0 232.0 L 604.1 229.8 L 611.1 227.6 L 618.2 225.5 L 625.3 223.3 L 632.4 221.2 L 639.5 219.1 L 646.6 217.1 L 653.7 215.0 L 660.8 213.0 L 667.9 211.0 L 675.0 209.0 L 682.1 207.0 L 689.2 205.0 L 696.3 203.1 L 703.5 201.1 L 703.5 201.1 L 710.6 199.2 L 717.7 197.3 L 724.9 195.4 L 732.0 193.6 L 739.2 191.8 L 746.4 189.9 L 753.5 188.2 L 760.7 186.4 L 767.9 184.6 L 775.1 182.8 L 782.2 181.0 L 789.4 179.3 L 796.6 177.5 L 803.7 175.7 L 810.9 173.9 L 818.1 172.1 L 818.1 172.1 L 825.2 170.2 L 832.4 168.4 L 839.5 166.6 L 846.7 164.7 L 853.9 162.9 L 861.0 161.1 L 868.2 159.2 L 875.3 157.4 L 882.5 155.5 L 889.6 153.7 L 896.8 151.8 L 903.9 150.0 L 911.1 148.2 L 918.3 146.4 L 925.4 144.5 L 932.6 142.7 L 932.6 142.7 L 939.7 140.9 L 946.9 139.1 L 954.1 137.3 L 961.2 135.5 L 968.4 133.7 L 975.6 131.9 L 982.7 130.1 L 989.9 128.3 L 997.1 126.5 L 1000.0 125.8" fill="none" stroke="#2b6bff" stroke-width="6.0" stroke-opacity="0.9"/></g><g id="clips"><circle cx="1000.0" cy="312.3" r="2" fill="none" stroke="#0b5" stroke-width="0.6"/><circle cx="1000.0" cy="642.8" r="2" fill="none" stroke="#0b5" stroke-width="0.6"/><circle cx="1000.0" cy="918.2" r="2" fill="none" stroke="#0b5" stroke-width="0.6"/><circle cx="0.0" cy="1557.6" r="2" fill="none" stroke="#0b5" stroke-width="0.6"/><circle cx="0.0" cy="1796.1" r="2" fill="none" stroke="#0b5" stroke-width="0.6"/><circle cx="0.0" cy="1991.9" r="2" fill="none" stroke="#0b5" stroke-width="0.6"/><circle cx="0.0" cy="714.0" r="2" fill="none" stroke="#0b5" stroke-width="0.6"/><circle cx="1000.0" cy="125.8" r="2" fill="none" stroke="#0b5" stroke-width="0.6"/></g><g id="power"><circle cx="0.0" cy="1991.9" r="5" fill="none" stroke="#e33" stroke-width="1"/><circle cx="0.0" cy="1796.1" r="5" fill="none" stroke="#e33" stroke-width="1"/><circle cx="0.0" cy="1557.6" r="5" fill="none" stroke="#e33" stroke-width="1"/><circle cx="0.0" cy="714.0" r="5" fill="none" stroke="#e33" stroke-width="1"/><circle cx="1000.0" cy="918.1" r="5" fill="none" stroke="#e33" stroke-width="1"/><circle cx="1000.0" cy="642.8" r="5" fill="none" stroke="#e33" stroke-width="1"/><circle cx="1000.0" cy="312.3" r="5" fill="none" stroke="#e33" stroke-width="1"/><circle cx="1000.0" cy="125.8" r="5" fill="none" stroke="#e33" stroke-width="1"/></g><g id="bridges"><circle cx="371.7" cy="1553.3" r="9" fill="none" stroke="#e6a817" stroke-width="1.5"/></g></svg>