<svg xmlns="http://www.w3.org/2000/svg" width="2000mm" height="1000mm" viewBox="0 0 2000 1000"><g id="outline"><rect x="0" y="0" width="2000" height="1000" fill="none" stroke="#000" stroke-width="1"/></g><g id="channels"><path d="M 2000.0 831.6 L 1995.3 832.9 L 1989.0 834.7 L 1982.6 836.4 L 1976.2 838.1 L 1969.8 839.7 L 1963.4 841.4 L 1957.0 843.0 L 1950.6 844.6 L 1944.1 846.2 L 1937.7 847.8 L 1931.3 849.4 L 1924.9 851.1 L 1918.5 852.8 L 1918.5 852.8 L 1912.1 854.4 L 1905.7 856.1 L 1899.3 857.8 L 1892.9 859.4 L 1886.5 861.1 L 1880.1 862.7 L 1873.7 864.4 L 1867.3 866.0 L 1860.9 867.7 L 1854.5 869.3 L 1848.1 871.0 L 1841.7 872.6 L 1835.3 874.3 L 1828.9 875.9 L 1822.5 877.6 L 1816.2 879.3 L 1816.2 879.3 L 1809.8 881.0 L 1803.4 882.7 L 1797.0 884.3 L 1790.6 886.0 L 1784.1 887.6 L 1777.7 889.3 L 1771.3 890.9 L 1764.9 892.6 L 1758.5 894.3 L 1752.2 896.0 L 1745.8 897.8 L 1739.4 899.6 L 1733.1 901.4 L 1726.8 903.3 L 1720.5 905.3 L 1714.2 907.4 L 1714.2 907.4 L 1708.0 909.5 L 1701.7 911.6 L 1695.5 913.8 L 1689.3 916.1 L 1683.1 918.4 L 1676.9 920.7 L 1670.7 923.1 L 1664.6 925.5 L 1658.4 927.9 L 1652.3 930.4 L 1646.2 933.0 L 1640.1 935.5 L 1634.1 938.1 L 1628.0 940.8 L 1622.0 943.5 L 1616.0 946.2 L 1616.0 946.2 L 1610.0 949.0 L 1604.0 951.8 L 1598.1 954.8 L 1592.3 957.8 L 1586.4 960.9 L 1580.6 964.0 L 1574.8 967.1 L 1569.0 970.3 L 1563.1 973.5 L 1557.3 976.7 L 1551.5 979.8 L 1545.7 982.9 L 1539.9 986.0 L 1534.0 989.1 L 1528.1 992.1 L 1522.2 995.0 L 1522.2 995.0 L 1516.2 997.9 L 1511.9 1000.0" fill="none" stroke="#2b6bff" stroke-width="6.0" stroke-opacity="0.9"/><path d="M 177.8 1000.0 L 177.3 999.2 L 173.9 992.9 L 170.7 986.4 L 167.6 979.8 L 164.8 973.1 L 162.2 966.3 L 159.8 959.4 L 157.7 952.6 L 155.7 945.7 L 154.0 938.8 L 152.6 932.0 L 151.4 925.2 L 151.4 925.2 L 150.4 918.4 L 149.7 911.4 L 149.2 904.4 L 148.9 897.2 L 148.9 890.0 L 149.1 882.7 L 149.5 875.4 L 150.1 868.1 L 151.0 860.8 L 152.0 853.5 L 153.3 846.3 L 154.8 839.2 L 156.4 832.2 L 158.3 825.4 L 160.4 818.7 L 162.6 812.1 L 162.6 812.1 L 165.1 805.7 L 167.8 799.2 L 170.7 792.7 L 173.9 786.2 L 177.2 779.8 L 180.8 773.5 L 184.6 767.2 L 188.5 761.1 L 192.7 755.1 L 197.0 749.3 L 201.5 743.7 L 206.2 738.3 L 211.0 733.1 L 216.0 728.2 L 221.1 723.6 L 226.3 719.3 L 226.3 719.3 L 231.8 715.3 L 237.5 711.6 L 243.5 708.0 L 249.7 704.7 L 256.2 701.6 L 262.7 698.7 L 269.5 696.1 L 276.3 693.6 L 283.3 691.3 L 290.3 689.2 L 297.4 687.3 L 304.5 685.6 L 311.6 684.0 L 318.7 682.6 L 325.7 681.4 L 332.6 680.3 L 332.6 680.3 L 339.5 679.4 L 346.5 678.8 L 353.6 678.3 L 360.7 678.0 L 367.8 678.0 L 375.0 678.1 L 382.2 678.3 L 389.4 678.8 L 396.7 679.4 L 403.9 680.2 L 411.1 681.1 L 418.2 682.1 L 425.3 683.3 L 432.4 684.5 L 439.3 685.9 L 446.2 687.4 L 446.2 687.4 L 453.1 689.1 L 460.0 690.8 L 466.9 692.7 L 473.8 694.7 L 480.6 696.9 L 487.5 699.2 L 494.3 701.6 L 501.1 704.2 L 507.8 706.9 L 514.4 709.7 L 520.9 712.7 L 527.4 715.8 L 533.7 719.1 L 539.9 722.5 L 546.0 726.1 L 552.0 729.8 L 552.0 729.8 L 557.8 733.9 L 563.3 738.4 L 568.7 743.4 L 573.8 748.7 L 578.9 754.2 L 583.8 759.9 L 588.7 765.7 L 593.6 771.5 L 598.4 777.2 L 603.3 782.8 L 608.2 788.2 L 613.2 793.2 L 618.3 797.8 L 623.6 801.9 L 629.0 805.5 L 634.7 808.4 L 634.7 808.4 L 640.6 811.0 L 646.9 813.3 L 653.4 815.4 L 660.2 817.2 L 667.0 818.8 L 674.0 820.2 L 681.0 821.2 L 688.0 821.9 L 695.0 822.2 L 701.8 822.2 L 708.4 821.7 L 714.8 820.8 L 720.9 819.5 L 726.6 817.7 L 732.0 815.4 L 736.9 812.6 L 736.9 812.6 L 741.3 809.2 L 745.4 805.0 L 749.3 800.1 L 752.8 794.7 L 756.1 788.7 L 759.1 782.4 L 761.9 775.6 L 764.6 768.5 L 767.1 761.3 L 769.6 753.8 L 771.9 746.3 L 774.2 738.8 L 776.4 731.4 L 778.7 724.0 L 780.9 716.9 L 783.3 710.1 L 783.3 710.1 L 785.5 703.4 L 787.5 696.6 L 789.3 689.6 L 790.9 682.6 L 792.4 675.6 L 793.8 668.5 L 795.2 661.3 L 796.6 654.2 L 798.0 647.1 L 799.5 640.1 L 801.2 633.1 L 803.0 626.2 L 805.0 619.3 L 807.2 612.7 L 809.8 606.1 L 812.6 599.7 L 812.6 599.7 L 815.8 593.5 L 819.1 587.3 L 822.7 581.2 L 826.5 575.2 L 830.4 569.3 L 834.5 563.5 L 838.7 557.7 L 843.0 552.0 L 847.5 546.4 L 852.0 540.8 L 856.7 535.3 L 861.4 529.9 L 866.2 524.6 L 871.0 519.3 L 875.8 514.0 L 880.7 508.9 L 880.7 508.9 L 885.6 503.8 L 890.7 498.8 L 895.9 493.9 L 901.1 489.1 L 906.5 484.5 L 912.0 479.8 L 917.5 475.3 L 923.1 470.7 L 928.7 466.3 L 934.4 461.8 L 940.0 457.4 L 945.7 452.9 L 951.3 448.5 L 957.0 444.0 L 962.6 439.5 L 968.1 435.0 L 968.1 435.0 L 973.6 430.4 L 979.1 425.9 L 984.7 421.3 L 990.2 416.8 L 995.8 412.3 L 1001.3 407.8 L 1006.9 403.3 L 1012.4 398.8 L 1018.0 394.3 L 1023.6 389.8 L 1029.2 385.3 L 1034.7 380.8 L 1040.3 376.4 L 1045.9 371.9 L 1051.5 367.4 L 1057.1 363.0 L 1057.1 363.0 L 1062.7 358.5 L 1068.3 354.1 L 1073.9 349.6 L 1079.5 345.2 L 1085.2 340.8 L 1090.8 336.4 L 1096.4 332.0 L 1102.1 327.6 L 1107.7 323.2 L 1113.4 318.8 L 1119.0 314.4 L 1124.6 309.9 L 1130.2 305.5 L 1135.8 301.0 L 1141.3 296.5 L 1146.9 292.0 L 1146.9 292.0 L 1152.4 287.5 L 1158.0 283.0 L 1163.6 278.5 L 1169.2 274.0 L 1174.8 269.5 L 1180.4 265.0 L 1186.0 260.5 L 1191.5 256.0 L 1197.0 251.4 L 1202.5 246.8 L 1207.9 242.1 L 1213.3 237.4 L 1218.6 232.7 L 1223.9 227.8 L 1229.0 222.9 L 1234.1 217.9 L 1234.1 217.9 L 1239.1 212.8 L 1244.0 207.7 L 1248.9 202.5 L 1253.8 197.2 L 1258.6 191.9 L 1263.3 186.5 L 1268.0 181.1 L 1272.6 175.6 L 1277.2 170.1 L 1281.7 164.6 L 1286.1 158.9 L 1290.5 153.3 L 1294.8 147.6 L 1299.1 141.9 L 1303.3 136.1 L 1307.4 130.2 L 1307.4 130.2 L 1311.4 124.4 L 1315.3 118.4 L 1319.1 112.4 L 1322.9 106.3 L 1326.6 100.2 L 1330.2 94.0 L 1333.7 87.8 L 1337.2 81.6 L 1340.7 75.3 L 1344.1 69.0 L 1347.5 62.7 L 1350.9 56.3 L 1354.2 50.0 L 1357.6 43.6 L 1360.9 37.3 L 1364.2 31.0 L 1364.2 31.0 L 1367.6 24.7 L 1370.8 18.3 L 1374.1 11.9 L 1377.3 5.5 L 1380.0 0.0" fill="none" stroke="#2b6bff" stroke-width="6.0" stroke-opacity="0.9"/><path d="M 1547.9 0.0 L 1547.7 0.4 L 1545.4 5.9 L 1543.1 11.3 L 1540.8 16.8 L 1538.5 22.2 L 1536.2 27.7 L 1533.9 33.1 L 1533.9 33.1 L 1531.7 38.6 L 1529.4 44.1 L 1527.2 49.6 L 1525.0 55.1 L 1522.9 60.6 L 1520.7 66.1 L 1518.5 71.6 L 1516.3 77.1 L 1514.1 82.6 L 1511.9 88.1 L 1509.6 93.6 L 1507.3 99.0 L 1505.0 104.5 L 1502.6 109.9 L 1500.1 115.2 L 1497.6 120.6 L 1497.6 120.6 L 1495.0 125.9 L 1492.5 131.2 L 1489.9 136.5 L 1487.2 141.9 L 1484.6 147.2 L 1481.9 152.4 L 1479.2 157.7 L 1476.4 162.9 L 1473.6 168.2 L 1470.7 173.3 L 1467.8 178.5 L 1464.8 183.5 L 1461.7 188.6 L 1458.5 193.5 L 1455.3 198.5 L 1452.0 203.3 L 1452.0 203.3 L 1448.5 208.1 L 1445.0 212.8 L 1441.4 217.5 L 1437.8 222.1 L 1434.0 226.6 L 1430.2 231.2 L 1426.3 235.6 L 1422.4 240.1 L 1418.4 244.5 L 1414.4 248.8 L 1410.3 253.2 L 1406.2 257.5 L 1402.2 261.8 L 1398.1 266.1 L 1394.0 270.4 L 1389.9 274.7 L 1389.9 274.7 L 1385.8 278.9 L 1381.7 283.2 L 1377.5 287.4 L 1373.3 291.5 L 1369.1 295.7 L 1364.8 299.8 L 1360.6 303.9 L 1356.3 308.0 L 1352.0 312.0 L 1347.6 316.1 L 1343.3 320.1 L 1339.0 324.1 L 1334.6 328.2 L 1330.3 332.2 L 1325.9 336.2 L 1321.6 340.2 L 1321.6 340.2 L 1317.3 344.3 L 1312.9 348.3 L 1308.5 352.2 L 1304.1 356.2 L 1299.7 360.2 L 1295.3 364.1 L 1290.9 368.1 L 1286.5 372.0 L 1282.1 375.9 L 1277.7 379.9 L 1273.2 383.8 L 1268.8 387.7 L 1264.4 391.7 L 1260.0 395.7 L 1255.6 399.6 L 1251.3 403.6 L 1251.3 403.6 L 1246.8 407.7 L 1242.1 412.0 L 1237.2 416.5 L 1232.2 421.1 L 1227.2 425.8 L 1222.1 430.5 L 1217.1 435.2 L 1212.1 439.8 L 1207.4 444.2 L 1202.7 448.5 L 1198.4 452.6 L 1194.3 456.4 L 1190.5 459.9 L 1187.2 463.0 L 1184.3 465.7 L 1181.8 468.0" fill="none" stroke="#2b6bff" stroke-width="6.0" stroke-opacity="0.9"/><path d="M 979.3 599.9 L 983.0 598.0 L 987.4 595.7 L 992.5 593.0 L 998.1 590.0 L 1004.3 586.8 L 1010.9 583.3 L 1017.9 579.7 L 1025.1 575.9 L 1032.6 572.0 L 1040.2 568.0 L 1047.8 564.1 L 1055.5 560.2 L 1063.0 556.3 L 1070.4 552.6 L 1077.5 549.0 L 1084.4 545.7 L 1084.4 545.7 L 1091.0 542.4 L 1097.6 539.2 L 1104.3 535.9 L 1110.9 532.7 L 1117.5 529.4 L 1124.2 526.2 L 1130.9 523.0 L 1137.5 519.9 L 1144.2 516.7 L 1150.9 513.6 L 1157.7 510.6 L 1164.4 507.5 L 1171.2 504.6 L 1178.0 501.7 L 1184.8 498.8 L 1191.6 496.1 L 1191.6 496.1 L 1198.5 493.4 L 1205.4 490.7 L 1212.3 488.2 L 1219.2 485.7 L 1226.2 483.3 L 1233.2 480.9 L 1240.2 478.5 L 1247.2 476.2 L 1254.3 473.9 L 1261.3 471.7 L 1268.3 469.4 L 1275.4 467.2 L 1282.4 464.9 L 1289.5 462.6 L 1296.5 460.3 L 1303.5 458.0 L 1303.5 458.0 L 1310.5 455.7 L 1317.6 453.4 L 1324.6 451.2 L 1331.7 449.0 L 1338.8 446.9 L 1345.9 444.7 L 1353.0 442.6 L 1360.0 440.4 L 1367.1 438.2 L 1374.1 436.0 L 1381.2 433.7 L 1388.2 431.3 L 1395.1 428.9 L 1402.0 426.3 L 1408.9 423.7 L 1415.7 420.9 L 1415.7 420.9 L 1422.5 418.1 L 1429.3 415.1 L 1436.0 412.2 L 1442.7 409.1 L 1449.4 406.0 L 1456.1 402.8 L 1462.7 399.6 L 1469.4 396.2 L 1475.9 392.9 L 1482.5 389.4 L 1489.0 385.9 L 1495.5 382.4 L 1501.9 378.8 L 1508.3 375.1 L 1514.6 371.3 L 1520.9 367.5 L 1520.9 367.5 L 1527.2 363.6 L 1533.4 359.7 L 1539.5 355.6 L 1545.6 351.5 L 1551.7 347.3 L 1557.7 343.0 L 1563.7 338.6 L 1569.7 334.3 L 1575.6 329.8 L 1581.5 325.4 L 1587.4 320.9 L 1593.3 316.4 L 1599.1 311.8 L 1605.0 307.3 L 1610.8 302.7 L 1616.7 298.2 L 1616.7 298.2 L 1622.5 293.7 L 1628.3 289.1 L 1634.1 284.6 L 1639.9 280.0 L 1645.7 275.4 L 1651.5 270.8 L 1657.2 266.1 L 1663.0 261.4 L 1668.6 256.7 L 1674.3 252.0 L 1680.0 247.2 L 1685.6 242.4 L 1691.1 237.5 L 1696.6 232.6 L 1702.1 227.7 L 1707.5 222.7 L 1707.5 222.7 L 1712.9 217.6 L 1718.2 212.5 L 1723.5 207.3 L 1728.7 202.1 L 1733.9 196.9 L 1739.0 191.6 L 1744.1 186.2 L 1749.2 180.9 L 1754.3 175.5 L 1759.3 170.1 L 1764.4 164.6 L 1769.4 159.2 L 1774.4 153.8 L 1779.4 148.3 L 1784.4 142.9 L 1789.4 137.5 L 1789.4 137.5 L 1794.5 132.1 L 1799.5 126.6 L 1804.4 121.2 L 1809.4 115.7 L 1814.3 110.2 L 1819.3 104.7 L 1824.2 99.2 L 1829.1 93.7 L 1834.0 88.2 L 1839.0 82.7 L 1843.9 77.1 L 1848.8 71.6 L 1853.7 66.1 L 1858.6 60.5 L 1863.5 55.0 L 1868.4 49.5 L 1868.4 49.5 L 1873.3 44.0 L 1878.2 38.4 L 1883.1 32.9 L 1888.0 27.4 L 1893.0 21.9 L 1897.9 16.4 L 1902.8 10.9 L 1907.7 5.3 L 1912.4 0.0" fill="none" stroke="#2b6bff" stroke-width="6.0" stroke-opacity="0.9"/></g><g id="clips"><circle cx="2000.0" cy="831.6" r="2" fill="none" stroke="#0b5" stroke-width="0.6"/><circle cx="1511.9" cy="1000.0" r="2" fill="none" stroke="#0b5" stroke-width="0.6"/><circle cx="177.8" cy="1000.0" r="2" fill="none" stroke="#0b5" stroke-width="0.6"/><circle cx="1380.0" cy="0.0" r="2" fill="none" stroke="#0b5" stroke-width="0.6"/><circle cx="1547.9" cy="0.0" r="2" fill="none" stroke="#0b5" stroke-width="0.6"/><circle cx="1181.8" cy="468.0" r="2" fill="none" stroke="#0b5" stroke-width="0.6"/><circle cx="979.3" cy="599.9" r="2" fill="none" stroke="#0b5" stroke-width="0.6"/><circle cx="1912.4" cy="0.0" r="2" fill="none" stroke="#0b5" stroke-width="0.6"/></g><g id="power"><circle cx="2000.0" cy="831.6" r="5" fill="none" stroke="#e33" stroke-width="1"/><circle cx="1380.0" cy="0.0" r="5" fill="none" stroke="#e33" stroke-width="1"/><circle cx="1547.9" cy="0.0" r="5" fill="none" stroke="#e33" stroke-width="1"/><circle cx="1912.4" cy="0.0" r="5" fill="none" stroke="#e33" stroke-width="1"/><circle cx="177.8" cy="1000.0" r="5" fill="none" stroke="#e33" stroke-width="1"/><circle cx="1511.9" cy="1000.0" r="5" fill="none" stroke="#e33" stroke-width="1"/></g><g id="bridges"></g></svg>