<svg xmlns="http://www.w3.org/2000/svg" width="1000mm" height="1500mm" viewBox="0 0 1000 1500"><g id="outline"><rect x="0" y="0" width="1000" height="1500" fill="none" stroke="#000" stroke-width="1"/></g><g id="channels"><path d="M 0.0 963.3 L 1.8 964.7 L 6.5 968.3 L 11.3 972.0 L 16.0 975.6 L 20.7 979.1 L 25.5 982.7 L 25.5 982.7 L 30.3 986.2 L 35.0 989.7 L 39.9 993.1 L 44.9 996.6 L 49.8 999.9 L 54.8 1003.3 L 59.7 1006.7 L 64.7 1010.1 L 69.5 1013.6 L 74.3 1017.0 L 79.1 1020.6 L 83.8 1024.2 L 88.4 1028.0 L 92.8 1031.8 L 97.1 1035.7 L 101.4 1039.8 L 101.4 1039.8 L 105.5 1043.9 L 109.6 1048.1 L 113.9 1052.5 L 118.0 1056.8 L 122.2 1061.2 L 126.2 1065.7 L 130.2 1070.2 L 134.0 1074.9 L 137.7 1079.6 L 141.2 1084.4 L 144.5 1089.3 L 147.6 1094.1 L 150.5 1099.2 L 153.0 1104.3 L 155.2 1109.4 L 157.1 1114.7 L 157.1 1114.7 L 158.7 1120.0 L 159.8 1125.5 L 160.6 1131.1 L 161.2 1136.8 L 161.4 1142.7 L 161.4 1148.6 L 161.3 1154.6 L 161.0 1160.6 L 160.4 1166.6 L 159.9 1172.7 L 159.2 1178.8 L 158.6 1184.9 L 157.9 1190.9 L 157.3 1197.0 L 156.8 1203.0 L 156.3 1208.9 L 156.3 1208.9 L 155.8 1214.8 L 155.3 1220.6 L 154.7 1226.5 L 154.1 1232.4 L 153.3 1238.3 L 152.6 1244.2 L 151.8 1250.1 L 151.0 1256.0 L 150.1 1261.9 L 149.2 1267.7 L 148.4 1273.6 L 147.5 1279.5 L 146.6 1285.4 L 145.7 1291.3 L 144.9 1297.2 L 144.1 1303.1 L 144.1 1303.1 L 143.3 1309.0 L 142.5 1314.9 L 141.8 1320.7 L 140.9 1326.6 L 140.2 1332.4 L 139.4 1338.3 L 138.6 1344.2 L 137.8 1350.1 L 137.0 1356.0 L 136.1 1361.9 L 135.3 1367.8 L 134.5 1373.6 L 133.6 1379.5 L 132.6 1385.3 L 131.7 1391.2 L 130.8 1397.1 L 130.8 1397.1 L 129.8 1402.9 L 128.8 1408.8 L 127.8 1414.6 L 126.8 1420.5 L 125.7 1426.4 L 124.6 1432.2 L 123.6 1438.0 L 122.5 1443.8 L 121.4 1449.6 L 120.2 1455.5 L 119.1 1461.3 L 117.9 1467.1 L 116.6 1472.9 L 115.4 1478.7 L 114.1 1484.5 L 112.8 1490.3 L 112.8 1490.3 L 111.4 1496.1 L 110.4 1500.0" fill="none" stroke="#ff3ea5" stroke-width="6.0" stroke-opacity="0.9"/></g><g id="clips"><circle cx="0.0" cy="963.3" r="2" fill="none" stroke="#0b5" stroke-width="0.6"/><circle cx="148.3" cy="1095.3" r="2" fill="none" stroke="#0b5" stroke-width="0.6"/><circle cx="145.6" cy="1292.0" r="2" fill="none" stroke="#0b5" stroke-width="0.6"/><circle cx="113.0" cy="1489.2" r="2" fill="none" stroke="#0b5" stroke-width="0.6"/></g><g id="power"><circle cx="110.4" cy="1500.0" r="5" fill="none" stroke="#e33" stroke-width="1"/><circle cx="0.0" cy="963.3" r="5" fill="none" stroke="#e33" stroke-width="1"/></g><g id="bridges"></g></svg>