<svg xmlns="http://www.w3.org/2000/svg" width="2000mm" height="1000mm" viewBox="0 0 2000 1000"><g id="outline"><rect x="0" y="0" width="2000" height="1000" fill="none" stroke="#000" stroke-width="1"/></g><g id="channels"><path d="M 743.5 0.0 L 745.8 5.3 L 748.2 11.2 L 750.5 17.2 L 750.5 17.2 L 752.7 23.3 L 755.0 29.8 L 757.4 36.4 L 759.7 43.3 L 762.1 50.2 L 764.4 57.1 L 766.6 64.1 L 768.6 71.0 L 770.4 77.7 L 772.0 84.2 L 773.4 90.5 L 774.4 96.5 L 775.1 102.1 L 775.4 107.2 L 775.3 111.9 L 774.7 116.0 L 774.7 116.0 L 773.5 119.5 L 771.7 122.5 L 769.4 125.1 L 766.7 127.2 L 763.6 129.0 L 760.1 130.5 L 756.4 131.7 L 752.5 132.6 L 748.5 133.5 L 744.5 134.2 L 740.5 134.8 L 736.5 135.5 L 732.8 136.2 L 729.3 137.0 L 726.1 137.9 L 723.2 139.0 L 723.2 139.0 L 720.7 140.3 L 718.3 141.7 L 716.1 143.2 L 714.0 144.8 L 712.0 146.3 L 710.1 147.9 L 708.2 149.3 L 706.4 150.8 L 704.6 152.1 L 702.8 153.3 L 700.9 154.3 L 699.0 155.1 L 697.1 155.7 L 695.0 156.0 L 692.8 156.0 L 690.5 155.7 L 690.5 155.7 L 688.1 155.2 L 685.5 154.5 L 682.8 153.7 L 680.0 152.7 L 677.2 151.5 L 674.3 150.1 L 671.4 148.5 L 668.4 146.8 L 665.5 144.8 L 662.6 142.6 L 659.8 140.2 L 657.0 137.6 L 654.3 134.7 L 651.6 131.6 L 649.1 128.2 L 646.8 124.6 L 646.8 124.6 L 644.5 120.7 L 642.1 116.4 L 639.8 111.8 L 637.4 106.9 L 635.1 101.7 L 632.8 96.2 L 630.6 90.6 L 628.4 84.8 L 626.4 78.9 L 624.6 72.8 L 622.9 66.7 L 621.3 60.6 L 620.0 54.4 L 618.9 48.3 L 618.0 42.2 L 617.4 36.2 L 617.4 36.2 L 617.2 30.2 L 617.4 24.1 L 618.1 18.0 L 619.0 11.7 L 620.2 5.4 L 621.4 0.0" fill="none" stroke="#ff3ea5" stroke-width="6.0" stroke-opacity="0.9"/><path d="M 56.6 0.0 L 58.8 5.9 L 61.2 11.9 L 63.5 17.9 L 65.9 23.9 L 68.4 29.9 L 71.0 35.8 L 73.6 41.7 L 73.6 41.7 L 76.2 47.5 L 78.9 53.4 L 81.5 59.3 L 84.2 65.2 L 86.9 71.2 L 89.6 77.1 L 92.4 82.9 L 95.2 88.8 L 98.1 94.5 L 101.1 100.3 L 104.1 105.9 L 107.3 111.5 L 110.6 117.0 L 114.0 122.4 L 117.6 127.7 L 121.3 132.8 L 121.3 132.8 L 125.2 137.9 L 129.2 142.8 L 133.4 147.6 L 137.7 152.4 L 142.1 157.0 L 146.6 161.6 L 151.2 166.1 L 155.9 170.6 L 160.7 175.0 L 165.5 179.3 L 170.4 183.6 L 175.3 187.8 L 180.2 192.1 L 185.1 196.3 L 190.1 200.4 L 195.0 204.6 L 195.0 204.6 L 199.9 208.7 L 204.9 212.8 L 210.0 216.7 L 215.1 220.6 L 220.3 224.4 L 225.5 228.2 L 230.8 232.0 L 236.1 235.7 L 241.4 239.4 L 246.7 243.1 L 251.9 246.9 L 257.2 250.6 L 262.4 254.4 L 267.6 258.2 L 272.8 262.1 L 277.9 266.1 L 277.9 266.1 L 282.9 270.1 L 288.0 274.1 L 292.9 278.2 L 297.9 282.4 L 302.8 286.5 L 307.8 290.7 L 312.7 294.9 L 317.6 299.1 L 322.5 303.3 L 327.4 307.5 L 332.3 311.6 L 337.3 315.8 L 342.2 319.9 L 347.2 324.0 L 352.2 328.0 L 357.3 332.0 L 357.3 332.0 L 362.3 336.1 L 367.3 340.3 L 372.3 344.5 L 377.3 348.9 L 382.2 353.3 L 387.2 357.7 L 392.2 362.0 L 397.3 366.2 L 402.3 370.4 L 407.5 374.4 L 412.7 378.1 L 418.0 381.7 L 423.3 385.0 L 428.8 388.0 L 434.4 390.7 L 440.0 393.0 L 440.0 393.0 L 446.0 394.7 L 452.1 395.9 L 458.5 396.6 L 465.1 396.9 L 471.8 396.8 L 478.6 396.5 L 485.4 396.1 L 492.2 395.6 L 499.0 395.1 L 505.7 394.6 L 512.3 394.4 L 518.7 394.4 L 524.8 394.8 L 530.7 395.7 L 536.3 397.0 L 541.6 399.0 L 541.6 399.0 L 546.6 401.5 L 551.3 404.5 L 555.9 407.9 L 560.3 411.7 L 564.5 415.8 L 568.6 420.1 L 572.5 424.7 L 576.3 429.4 L 579.9 434.2 L 583.4 439.0 L 586.8 443.9 L 590.0 448.7 L 593.2 453.3 L 596.3 457.9 L 599.3 462.2 L 602.2 466.2 L 602.2 466.2 L 605.0 470.2 L 607.7 474.0 L 610.4 477.9 L 613.0 481.7 L 615.4 485.5 L 617.8 489.3 L 620.0 493.0 L 622.1 496.7 L 624.1 500.3 L 625.9 503.9 L 627.6 507.4 L 629.1 510.9 L 630.5 514.3 L 631.6 517.7 L 632.7 520.9 L 633.5 524.1 L 633.5 524.1 L 634.2 527.3 L 634.6 530.2 L 635.0 533.1 L 635.1 535.8 L 635.1 538.5 L 635.0 541.1 L 634.7 543.6 L 634.3 546.2 L 633.7 548.7 L 633.0 551.3 L 632.1 553.8 L 631.1 556.5 L 630.0 559.2 L 628.7 561.9 L 627.4 564.8 L 625.9 567.8 L 625.9 567.8 L 624.3 571.2 L 622.5 574.9 L 620.7 579.0 L 618.7 583.4 L 616.6 587.9 L 614.4 592.5 L 612.0 597.1 L 609.5 601.6 L 606.9 605.9 L 604.1 609.9 L 601.1 613.5 L 598.0 616.7 L 594.7 619.2 L 591.3 621.2 L 587.7 622.4 L 583.9 622.7 L 583.9 622.7 L 579.9 622.3 L 575.6 621.0 L 571.0 619.1 L 566.2 616.5 L 561.2 613.5 L 556.0 609.9 L 550.8 606.0 L 545.4 601.7 L 539.9 597.2 L 534.4 592.6 L 528.9 587.8 L 523.4 583.1 L 517.9 578.4 L 512.6 573.8 L 507.3 569.5 L 502.3 565.4 L 502.3 565.4 L 497.3 561.5 L 492.4 557.4 L 487.5 553.3 L 482.6 549.2 L 477.7 544.9 L 472.9 540.7 L 468.0 536.4 L 463.2 532.1 L 458.4 527.7 L 453.5 523.4 L 448.7 519.1 L 443.8 514.8 L 439.0 510.5 L 434.1 506.2 L 429.1 502.1 L 424.2 497.9 L 424.2 497.9 L 419.2 493.8 L 414.2 489.7 L 409.2 485.6 L 404.2 481.5 L 399.2 477.4 L 394.2 473.4 L 389.2 469.3 L 384.2 465.3 L 379.1 461.3 L 374.0 457.3 L 368.9 453.4 L 363.8 449.5 L 358.6 445.6 L 353.4 441.8 L 348.2 438.0 L 342.9 434.3 L 342.9 434.3 L 337.6 430.7 L 332.2 427.1 L 326.8 423.6 L 321.4 420.1 L 316.0 416.7 L 310.5 413.3 L 305.0 409.9 L 299.4 406.6 L 293.9 403.3 L 288.3 400.0 L 282.8 396.8 L 277.2 393.5 L 271.6 390.3 L 266.0 387.1 L 260.4 383.8 L 254.8 380.6 L 254.8 380.6 L 249.3 377.4 L 243.6 374.2 L 238.0 371.1 L 232.3 368.0 L 226.6 365.0 L 220.9 361.9 L 215.2 358.9 L 209.5 355.9 L 203.8 352.9 L 198.1 349.8 L 192.4 346.7 L 186.8 343.6 L 181.2 340.4 L 175.6 337.2 L 170.1 333.9 L 164.6 330.5 L 164.6 330.5 L 159.1 327.1 L 153.7 323.7 L 148.2 320.2 L 142.8 316.7 L 137.4 313.2 L 132.0 309.6 L 126.6 306.0 L 121.3 302.4 L 116.0 298.7 L 110.7 295.0 L 105.5 291.2 L 100.3 287.3 L 95.2 283.4 L 90.1 279.5 L 85.1 275.4 L 80.2 271.3 L 80.2 271.3 L 75.3 267.2 L 70.4 263.0 L 65.5 258.7 L 60.7 254.4 L 55.9 250.0 L 51.2 245.6 L 46.5 241.1 L 41.9 236.6 L 37.3 232.0 L 32.8 227.4 L 28.4 222.7 L 24.0 217.9 L 19.8 213.1 L 15.6 208.2 L 11.5 203.2 L 7.6 198.2 L 7.6 198.2 L 3.7 193.1 L 0.0 187.9 L 0.0 187.9" fill="none" stroke="#ff3ea5" stroke-width="6.0" stroke-opacity="0.9"/></g><g id="clips"><circle cx="743.5" cy="0.0" r="2" fill="none" stroke="#0b5" stroke-width="0.6"/><circle cx="621.4" cy="0.0" r="2" fill="none" stroke="#0b5" stroke-width="0.6"/><circle cx="56.6" cy="0.0" r="2" fill="none" stroke="#0b5" stroke-width="0.6"/><circle cx="0.0" cy="187.9" r="2" fill="none" stroke="#0b5" stroke-width="0.6"/></g><g id="power"><circle cx="743.4" cy="0.0" r="5" fill="none" stroke="#e33" stroke-width="1"/><circle cx="621.4" cy="0.0" r="5" fill="none" stroke="#e33" stroke-width="1"/><circle cx="56.6" cy="0.0" r="5" fill="none" stroke="#e33" stroke-width="1"/><circle cx="0.0" cy="187.8" r="5" fill="none" stroke="#e33" stroke-width="1"/></g></svg>