<svg xmlns="http://www.w3.org/2000/svg" width="1500mm" height="1000mm" viewBox="0 0 1500 1000"><g id="outline"><rect x="0" y="0" width="1500" height="1000" fill="none" stroke="#000" stroke-width="1"/></g><g id="channels"><path d="M 242.1 0.0 L 239.2 4.2 L 235.2 10.0 L 231.2 15.8 L 227.3 21.6 L 223.3 27.4 L 219.3 33.1 L 215.4 38.9 L 211.4 44.7 L 207.4 50.5 L 207.4 50.5 L 203.4 56.3 L 199.5 62.1 L 195.5 67.9 L 191.6 73.7 L 187.7 79.5 L 183.7 85.3 L 179.8 91.1 L 175.9 96.9 L 171.9 102.7 L 168.0 108.5 L 164.1 114.4 L 160.1 120.2 L 156.2 126.0 L 152.2 131.7 L 148.2 137.5 L 144.2 143.3 L 144.2 143.3 L 140.2 149.0 L 136.0 154.8 L 131.8 160.5 L 127.5 166.2 L 123.2 171.8 L 118.9 177.5 L 114.6 183.2 L 110.3 188.9 L 106.1 194.6 L 101.9 200.3 L 97.8 206.0 L 93.9 211.7 L 90.0 217.5 L 86.4 223.3 L 82.8 229.1 L 79.5 235.0 L 79.5 235.0 L 76.2 241.2 L 72.5 248.0 L 68.8 255.1 L 64.9 262.5 L 61.1 270.1 L 57.3 277.7 L 53.7 285.3 L 50.3 292.8 L 47.2 299.9 L 44.5 306.7 L 42.3 312.9 L 40.7 318.5 L 39.7 323.4 L 39.4 327.5 L 39.9 330.5 L 41.2 332.5 L 41.2 332.5 L 43.6 333.4 L 46.9 333.3 L 51.1 332.2 L 56.1 330.4 L 61.7 327.8 L 67.9 324.6 L 74.5 320.9 L 81.5 316.8 L 88.8 312.3 L 96.2 307.6 L 103.7 302.8 L 111.1 298.0 L 118.3 293.3 L 125.3 288.7 L 131.9 284.5 L 138.0 280.6 L 138.0 280.6 L 143.9 276.8 L 149.7 273.0 L 155.4 269.0 L 161.1 265.0 L 166.8 260.9 L 172.4 256.7 L 178.0 252.5 L 183.7 248.3 L 189.3 244.0 L 194.9 239.7 L 200.5 235.5 L 206.2 231.3 L 211.9 227.1 L 217.6 223.0 L 223.3 218.9 L 229.1 215.0 L 229.1 215.0 L 234.9 211.1 L 240.8 207.2 L 246.7 203.4 L 252.6 199.6 L 258.5 195.8 L 264.4 192.1 L 270.4 188.3 L 276.3 184.6 L 282.3 180.9 L 288.3 177.3 L 294.2 173.6 L 300.2 169.9 L 306.2 166.2 L 312.2 162.5 L 318.1 158.9 L 324.1 155.1 L 324.1 155.1 L 330.0 151.4 L 336.0 147.7 L 342.0 144.0 L 347.9 140.3 L 353.9 136.6 L 359.9 132.9 L 365.8 129.3 L 371.8 125.6 L 377.8 121.9 L 383.7 118.2 L 389.7 114.5 L 395.7 110.8 L 401.7 107.2 L 407.6 103.5 L 413.6 99.8 L 419.6 96.1 L 419.6 96.1 L 425.5 92.4 L 431.4 88.6 L 437.3 84.7 L 443.2 80.9 L 449.1 77.0 L 455.0 73.1 L 460.8 69.2 L 466.7 65.4 L 472.6 61.6 L 478.6 57.8 L 484.5 54.1 L 490.5 50.4 L 496.5 46.9 L 502.6 43.5 L 508.8 40.1 L 515.0 36.9 L 515.0 36.9 L 521.2 33.9 L 527.5 30.8 L 533.8 27.8 L 540.2 24.9 L 546.6 22.0 L 553.0 19.2 L 559.5 16.5 L 566.0 13.9 L 572.5 11.3 L 579.1 8.9 L 585.7 6.5 L 592.3 4.2 L 598.9 2.1 L 605.6 0.0 L 605.6 0.0" fill="none" stroke="#2b6bff" stroke-width="6.0" stroke-opacity="0.9"/><path d="M 1271.5 0.0 L 1269.7 1.5 L 1264.6 5.7 L 1259.5 9.9 L 1254.4 14.2 L 1249.3 18.4 L 1244.2 22.6 L 1239.1 26.7 L 1233.9 30.8 L 1228.7 34.9 L 1228.7 34.9 L 1223.5 39.0 L 1218.3 43.0 L 1213.1 47.1 L 1207.8 51.2 L 1202.6 55.2 L 1197.4 59.3 L 1192.2 63.3 L 1186.9 67.3 L 1181.6 71.3 L 1176.4 75.3 L 1171.1 79.3 L 1165.8 83.2 L 1160.4 87.1 L 1155.1 91.0 L 1149.7 94.8 L 1144.3 98.6 L 1144.3 98.6 L 1138.8 102.3 L 1133.4 106.0 L 1127.9 109.7 L 1122.4 113.4 L 1116.9 117.1 L 1111.4 120.7 L 1105.8 124.3 L 1100.3 127.9 L 1094.7 131.4 L 1089.1 134.9 L 1083.4 138.4 L 1077.8 141.8 L 1072.1 145.2 L 1066.4 148.5 L 1060.6 151.7 L 1054.9 154.9 L 1054.9 154.9 L 1049.1 158.1 L 1043.3 161.2 L 1037.4 164.3 L 1031.6 167.4 L 1025.7 170.4 L 1019.8 173.4 L 1013.8 176.4 L 1007.9 179.2 L 1001.9 182.1 L 995.9 184.9 L 989.9 187.6 L 983.8 190.2 L 977.7 192.8 L 971.6 195.3 L 965.5 197.7 L 959.3 200.0 L 959.3 200.0 L 953.1 202.3 L 946.9 204.4 L 940.7 206.5 L 934.4 208.5 L 928.1 210.4 L 921.7 212.3 L 915.4 214.1 L 909.0 215.8 L 902.6 217.5 L 896.2 219.1 L 889.7 220.7 L 883.3 222.2 L 876.8 223.8 L 870.4 225.2 L 864.0 226.7 L 857.5 228.1 L 857.5 228.1 L 851.1 229.5 L 844.6 230.7 L 838.0 231.8 L 831.5 232.8 L 824.9 233.8 L 818.4 234.7 L 811.8 235.6 L 805.2 236.4 L 798.7 237.3 L 792.1 238.2 L 785.5 239.2 L 779.0 240.2 L 772.5 241.4 L 766.0 242.6 L 759.6 244.0 L 753.2 245.5 L 753.2 245.5 L 746.8 247.1 L 740.4 248.7 L 734.0 250.3 L 727.6 252.0 L 721.2 253.7 L 714.8 255.5 L 708.4 257.4 L 702.1 259.3 L 695.8 261.4 L 689.5 263.5 L 683.4 265.8 L 677.2 268.1 L 671.2 270.7 L 665.2 273.3 L 659.4 276.2 L 653.6 279.2 L 653.6 279.2 L 648.0 282.4 L 642.4 285.8 L 637.0 289.4 L 631.6 293.2 L 626.4 297.1 L 621.1 301.1 L 616.0 305.3 L 610.9 309.5 L 605.8 313.8 L 600.8 318.2 L 595.8 322.6 L 590.8 327.1 L 585.8 331.5 L 580.9 335.9 L 575.9 340.3 L 570.9 344.6 L 570.9 344.6 L 565.9 349.0 L 560.9 353.3 L 556.0 357.7 L 551.1 362.2 L 546.3 366.6 L 541.4 371.1 L 536.6 375.6 L 531.8 380.2 L 527.0 384.7 L 522.2 389.3 L 517.4 393.8 L 512.6 398.4 L 507.8 402.9 L 503.0 407.5 L 498.2 412.0 L 493.3 416.5 L 493.3 416.5 L 488.5 421.0 L 483.6 425.5 L 478.8 430.0 L 473.9 434.5 L 469.1 439.0 L 464.2 443.5 L 459.4 448.0 L 454.5 452.5 L 449.7 457.0 L 444.8 461.4 L 440.0 465.9 L 435.2 470.4 L 430.3 474.9 L 425.5 479.4 L 420.6 483.9 L 415.8 488.4 L 415.8 488.4 L 410.9 492.9 L 406.0 497.4 L 401.2 501.8 L 396.3 506.3 L 391.4 510.7 L 386.4 515.1 L 381.5 519.6 L 376.7 524.0 L 371.8 528.5 L 366.9 533.0 L 362.1 537.4 L 357.2 542.0 L 352.4 546.5 L 347.7 551.1 L 343.0 555.7 L 338.3 560.4 L 338.3 560.4 L 333.7 565.1 L 329.0 569.8 L 324.4 574.5 L 319.9 579.3 L 315.3 584.1 L 310.8 588.9 L 306.3 593.7 L 301.8 598.6 L 297.4 603.5 L 292.9 608.4 L 288.5 613.3 L 284.2 618.2 L 279.8 623.2 L 275.5 628.2 L 271.2 633.2 L 266.9 638.2 L 266.9 638.2 L 262.7 643.3 L 258.5 648.5 L 254.5 653.7 L 250.5 659.0 L 246.6 664.4 L 242.7 669.8 L 238.8 675.2 L 234.9 680.5 L 231.0 685.9 L 227.0 691.2 L 223.0 696.5 L 218.9 701.7 L 214.8 706.7 L 210.5 711.7 L 206.1 716.6 L 201.5 721.3 L 201.5 721.3 L 196.8 725.9 L 192.1 730.4 L 187.3 734.9 L 182.4 739.4 L 177.4 743.8 L 172.4 748.1 L 167.3 752.3 L 162.1 756.5 L 156.9 760.5 L 151.6 764.5 L 146.2 768.4 L 140.8 772.2 L 135.4 775.8 L 129.8 779.4 L 124.3 782.8 L 118.6 786.1 L 118.6 786.1 L 112.9 789.3 L 107.1 792.3 L 101.2 795.2 L 95.3 798.0 L 89.2 800.6 L 83.2 803.2 L 77.0 805.6 L 70.8 808.0 L 64.6 810.3 L 58.3 812.5 L 52.0 814.7 L 45.7 816.8 L 39.4 818.9 L 33.1 821.0 L 26.8 823.1 L 20.6 825.2 L 20.6 825.2 L 14.3 827.2 L 8.0 829.2 L 1.7 831.1 L 0.0 831.6" fill="none" stroke="#2b6bff" stroke-width="6.0" stroke-opacity="0.9"/><path d="M 77.2 1000.0 L 80.6 996.0 L 84.6 990.8 L 88.5 985.5 L 92.2 980.0 L 95.9 974.5 L 99.6 968.9 L 103.2 963.3 L 106.9 957.6 L 110.6 952.0 L 114.3 946.5 L 118.1 941.0 L 122.0 935.7 L 126.1 930.5 L 126.1 930.5 L 130.2 925.2 L 134.4 919.8 L 138.7 914.2 L 143.0 908.5 L 147.3 902.8 L 151.6 897.0 L 156.0 891.3 L 160.4 885.7 L 164.7 880.3 L 169.1 875.0 L 173.5 870.1 L 177.8 865.4 L 182.1 861.1 L 186.4 857.2 L 190.6 853.7 L 194.8 850.8 L 194.8 850.8 L 199.0 848.3 L 203.4 846.2 L 208.0 844.5 L 212.6 843.1 L 217.2 842.1 L 221.8 841.3 L 226.4 840.9 L 230.9 840.6 L 235.3 840.6 L 239.5 840.8 L 243.5 841.2 L 247.2 841.7 L 250.7 842.4 L 253.8 843.2 L 256.6 844.0 L 259.0 845.0 L 259.0 845.0 L 260.8 846.3 L 261.9 848.2 L 262.6 850.8 L 262.8 853.7 L 262.6 857.0 L 262.2 860.5 L 261.6 864.0 L 260.9 867.6 L 260.2 871.0 L 259.7 874.1 L 259.3 876.8 L 259.2 879.1 L 259.5 880.8 L 260.2 881.7 L 261.5 881.8 L 263.5 880.9 L 263.5 880.9 L 266.2 878.9 L 269.5 875.7 L 273.4 871.4 L 277.8 866.2 L 282.6 860.4 L 287.6 854.1 L 292.9 847.4 L 298.2 840.5 L 303.6 833.7 L 308.8 827.1 L 313.9 820.9 L 318.6 815.2 L 323.0 810.2 L 327.0 806.1 L 330.3 803.1 L 333.1 801.4 L 333.1 801.4 L 335.1 800.9 L 336.7 801.4 L 337.8 802.8 L 338.6 804.9 L 339.0 807.7 L 339.1 811.1 L 339.0 814.8 L 338.8 818.8 L 338.5 823.0 L 338.1 827.3 L 337.8 831.5 L 337.5 835.5 L 337.4 839.2 L 337.5 842.5 L 337.9 845.2 L 338.6 847.2 L 338.6 847.2 L 339.5 848.8 L 340.4 850.1 L 341.5 851.2 L 342.5 852.1 L 343.7 852.8 L 344.9 853.4 L 346.2 853.8 L 347.5 854.1 L 349.0 854.3 L 350.4 854.5 L 352.0 854.6 L 353.6 854.7 L 355.2 854.7 L 356.9 854.8 L 358.7 855.0 L 360.6 855.2 L 360.6 855.2 L 362.6 855.3 L 365.0 855.1 L 367.6 854.8 L 370.4 854.3 L 373.3 853.7 L 376.4 853.1 L 379.4 852.5 L 382.4 851.9 L 385.4 851.4 L 388.2 851.1 L 390.8 850.9 L 393.1 851.0 L 395.1 851.4 L 396.8 852.1 L 398.0 853.2 L 398.7 854.7 L 398.7 854.7 L 398.8 856.9 L 398.2 859.7 L 397.0 863.0 L 395.3 866.8 L 393.2 870.9 L 390.9 875.3 L 388.4 879.8 L 385.8 884.4 L 383.3 889.0 L 380.9 893.5 L 378.8 897.7 L 377.1 901.6 L 375.9 905.1 L 375.2 908.0 L 375.3 910.4 L 376.1 912.0 L 376.1 912.0 L 378.0 912.7 L 380.9 912.7 L 384.6 911.9 L 389.0 910.5 L 393.9 908.7 L 399.3 906.5 L 404.9 904.1 L 410.5 901.6 L 416.1 899.2 L 421.5 897.0 L 426.5 895.0 L 431.0 893.5 L 434.7 892.5 L 437.7 892.2 L 439.6 892.8 L 440.5 894.2 L 440.5 894.2 L 440.0 896.8 L 438.2 900.3 L 435.3 904.6 L 431.4 909.7 L 426.9 915.4 L 421.8 921.5 L 416.4 927.8 L 410.8 934.4 L 405.2 940.9 L 399.8 947.3 L 394.8 953.5 L 390.4 959.2 L 386.8 964.4 L 384.1 968.9 L 382.6 972.6 L 382.4 975.3 L 382.4 975.3 L 383.7 977.0 L 386.4 977.8 L 390.4 977.9 L 395.4 977.3 L 401.1 976.1 L 407.5 974.6 L 414.2 972.7 L 421.2 970.8 L 428.0 968.8 L 434.6 966.9 L 440.8 965.2 L 446.2 963.9 L 450.8 963.0 L 454.3 962.7 L 456.5 963.1 L 457.2 964.4 L 457.2 964.4 L 456.5 966.5 L 454.7 969.3 L 452.0 972.6 L 448.5 976.4 L 444.3 980.6 L 439.4 985.1 L 433.9 989.9 L 428.1 994.9 L 421.8 999.9 L 421.7 1000.0" fill="none" stroke="#2b6bff" stroke-width="6.0" stroke-opacity="0.9"/></g><g id="clips"><circle cx="242.1" cy="0.0" r="2" fill="none" stroke="#0b5" stroke-width="0.6"/><circle cx="605.6" cy="0.0" r="2" fill="none" stroke="#0b5" stroke-width="0.6"/><circle cx="1271.5" cy="0.0" r="2" fill="none" stroke="#0b5" stroke-width="0.6"/><circle cx="0.0" cy="831.6" r="2" fill="none" stroke="#0b5" stroke-width="0.6"/><circle cx="77.2" cy="1000.0" r="2" fill="none" stroke="#0b5" stroke-width="0.6"/><circle cx="421.7" cy="1000.0" r="2" fill="none" stroke="#0b5" stroke-width="0.6"/></g><g id="power"><circle cx="0.0" cy="831.6" r="5" fill="none" stroke="#e33" stroke-width="1"/><circle cx="242.1" cy="0.0" r="5" fill="none" stroke="#e33" stroke-width="1"/><circle cx="1271.5" cy="0.0" r="5" fill="none" stroke="#e33" stroke-width="1"/><circle cx="77.2" cy="1000.0" r="5" fill="none" stroke="#e33" stroke-width="1"/><circle cx="421.7" cy="1000.0" r="5" fill="none" stroke="#e33" stroke-width="1"/></g><g id="bridges"><circle cx="271.7" cy="853.3" r="9" fill="none" stroke="#e6a817" stroke-width="1.5"/></g></svg>