<svg xmlns="http://www.w3.org/2000/svg" width="2000mm" height="1000mm" viewBox="0 0 2000 1000"><g id="outline"><rect x="0" y="0" width="2000" height="1000" fill="none" stroke="#000" stroke-width="1"/></g><g id="channels"><path d="M 510.0 0.0 L 511.4 5.2 L 513.2 11.6 L 513.2 11.6 L 515.1 18.1 L 517.1 24.5 L 519.0 30.9 L 521.0 37.4 L 523.0 43.8 L 525.0 50.2 L 527.1 56.6 L 529.2 63.0 L 531.4 69.4 L 533.6 75.7 L 535.8 82.0 L 538.1 88.4 L 540.5 94.6 L 542.9 100.9 L 545.4 107.1 L 547.9 113.4 L 547.9 113.4 L 550.6 119.5 L 553.3 125.6 L 556.1 131.7 L 559.0 137.8 L 562.0 143.8 L 565.0 149.8 L 568.1 155.8 L 571.2 161.8 L 574.4 167.7 L 577.5 173.7 L 580.6 179.7 L 583.7 185.6 L 586.8 191.6 L 589.8 197.6 L 592.8 203.6 L 595.7 209.7 L 595.7 209.7 L 598.6 215.8 L 601.6 221.8 L 604.7 227.8 L 607.8 233.9 L 610.9 239.9 L 614.1 245.9 L 617.1 252.0 L 620.2 258.1 L 623.1 264.1 L 626.0 270.2 L 628.7 276.4 L 631.3 282.5 L 633.8 288.7 L 636.0 295.0 L 638.0 301.3 L 639.8 307.6 L 639.8 307.6 L 641.5 314.1 L 643.0 320.6 L 644.5 327.1 L 645.8 333.8 L 647.0 340.5 L 648.1 347.2 L 649.1 353.9 L 649.8 360.7 L 650.5 367.5 L 650.9 374.2 L 651.1 380.9 L 651.2 387.6 L 651.0 394.3 L 650.6 400.8 L 650.0 407.4 L 649.1 413.8 L 649.1 413.8 L 647.9 420.2 L 646.4 426.5 L 644.6 432.8 L 642.6 439.1 L 640.4 445.4 L 637.9 451.6 L 635.3 457.8 L 632.5 464.0 L 629.5 470.1 L 626.5 476.2 L 623.3 482.3 L 620.1 488.3 L 616.8 494.3 L 613.5 500.2 L 610.2 506.1 L 606.9 511.9 L 606.9 511.9 L 603.6 517.7 L 600.1 523.4 L 596.5 529.0 L 592.8 534.5 L 588.9 540.1 L 585.0 545.5 L 581.0 551.0 L 577.0 556.4 L 572.9 561.8 L 568.8 567.1 L 564.7 572.5 L 560.6 577.8 L 556.5 583.2 L 552.4 588.6 L 548.4 594.0 L 544.4 599.4 L 544.4 599.4 L 540.5 604.9 L 536.5 610.3 L 532.6 615.8 L 528.6 621.2 L 524.6 626.6 L 520.6 632.0 L 516.7 637.4 L 512.7 642.9 L 508.7 648.3 L 504.7 653.7 L 500.8 659.1 L 496.8 664.6 L 492.9 670.0 L 488.9 675.5 L 485.0 681.0 L 481.1 686.4 L 481.1 686.4 L 477.3 691.9 L 473.4 697.4 L 469.6 703.0 L 465.7 708.5 L 461.9 714.0 L 458.1 719.6 L 454.3 725.1 L 450.5 730.7 L 446.8 736.2 L 443.0 741.8 L 439.2 747.4 L 435.4 752.9 L 431.6 758.5 L 427.9 764.1 L 424.1 769.6 L 420.3 775.2 L 420.3 775.2 L 416.5 780.7 L 412.5 786.2 L 408.5 791.7 L 404.4 797.1 L 400.3 802.5 L 396.2 808.0 L 392.1 813.4 L 388.1 818.9 L 384.1 824.4 L 380.2 829.9 L 376.4 835.4 L 372.7 841.0 L 369.2 846.7 L 365.9 852.5 L 362.8 858.3 L 359.9 864.2 L 359.9 864.2 L 357.1 870.2 L 354.3 876.3 L 351.6 882.6 L 348.8 888.9 L 346.2 895.2 L 343.7 901.7 L 341.3 908.1 L 339.1 914.6 L 337.1 921.1 L 335.4 927.6 L 333.9 934.1 L 332.8 940.6 L 332.0 947.0 L 331.5 953.3 L 331.5 959.6 L 331.8 965.8 L 331.8 965.8 L 332.7 971.9 L 334.0 978.1 L 335.7 984.2 L 337.8 990.3 L 340.2 996.4 L 341.9 1000.0" fill="none" stroke="#39ff88" stroke-width="6.0" stroke-opacity="0.9"/><path d="M 548.3 1000.0 L 547.3 996.3 L 545.6 989.6 L 544.1 982.9 L 542.7 976.1 L 541.5 969.3 L 540.6 962.6 L 539.8 955.8 L 539.2 949.1 L 539.0 942.4 L 539.0 935.7 L 539.3 929.2 L 539.9 922.7 L 540.8 916.3 L 540.8 916.3 L 542.1 910.0 L 543.9 903.7 L 545.9 897.4 L 548.4 891.2 L 551.1 885.0 L 554.0 878.8 L 557.2 872.7 L 560.6 866.6 L 564.2 860.6 L 567.8 854.6 L 571.6 848.7 L 575.4 842.8 L 579.3 836.9 L 583.1 831.1 L 586.9 825.3 L 590.7 819.6 L 590.7 819.6 L 594.4 813.9 L 598.2 808.3 L 602.1 802.7 L 606.1 797.2 L 610.2 791.7 L 614.3 786.2 L 618.5 780.8 L 622.8 775.4 L 627.1 770.1 L 631.5 764.8 L 636.0 759.6 L 640.4 754.4 L 645.0 749.3 L 649.5 744.2 L 654.1 739.1 L 658.8 734.1 L 658.8 734.1 L 663.4 729.2 L 668.2 724.3 L 673.0 719.5 L 677.9 714.8 L 682.9 710.1 L 687.9 705.4 L 692.9 700.8 L 698.0 696.2 L 703.1 691.7 L 708.3 687.2 L 713.4 682.7 L 718.6 678.2 L 723.8 673.7 L 729.0 669.2 L 734.1 664.7 L 739.3 660.2 L 739.3 660.2 L 744.4 655.8 L 749.6 651.3 L 754.8 646.9 L 760.1 642.5 L 765.3 638.1 L 770.6 633.8 L 775.9 629.5 L 781.2 625.1 L 786.5 620.8 L 791.8 616.5 L 797.0 612.1 L 802.3 607.8 L 807.6 603.4 L 812.8 599.0 L 818.0 594.6 L 823.2 590.1 L 823.2 590.1 L 828.3 585.5 L 833.3 580.6 L 838.3 575.6 L 843.3 570.5 L 848.2 565.2 L 853.1 560.0 L 858.0 554.7 L 863.0 549.5 L 867.9 544.5 L 872.9 539.6 L 877.9 535.0 L 883.0 530.6 L 888.2 526.5 L 893.4 522.8 L 898.8 519.5 L 904.2 516.7 L 904.2 516.7 L 909.9 514.2 L 916.0 511.8 L 922.3 509.5 L 928.8 507.4 L 935.4 505.5 L 942.1 503.8 L 948.8 502.4 L 955.5 501.3 L 962.1 500.6 L 968.5 500.2 L 974.6 500.3 L 980.5 500.8 L 986.0 501.9 L 991.1 503.4 L 995.7 505.5 L 999.8 508.3 L 999.8 508.3 L 1003.3 511.7 L 1006.1 516.1 L 1008.5 521.2 L 1010.3 527.0 L 1011.8 533.3 L 1013.0 540.1 L 1014.0 547.3 L 1014.9 554.8 L 1015.6 562.4 L 1016.4 570.2 L 1017.2 578.0 L 1018.2 585.7 L 1019.4 593.2 L 1020.9 600.5 L 1022.8 607.4 L 1025.1 613.8 L 1025.1 613.8 L 1027.7 620.0 L 1030.5 626.3 L 1033.3 632.7 L 1036.2 639.0 L 1039.2 645.4 L 1042.4 651.7 L 1045.7 657.9 L 1049.1 664.0 L 1052.7 670.0 L 1056.4 675.9 L 1060.3 681.5 L 1064.4 686.9 L 1068.6 692.1 L 1073.0 697.0 L 1077.7 701.5 L 1082.5 705.7 L 1082.5 705.7 L 1087.6 709.6 L 1092.9 713.2 L 1098.5 716.4 L 1104.4 719.4 L 1110.4 722.2 L 1116.6 724.7 L 1123.0 727.0 L 1129.5 729.2 L 1136.1 731.2 L 1142.7 733.1 L 1149.4 734.9 L 1156.2 736.6 L 1162.9 738.2 L 1169.6 739.8 L 1176.2 741.5 L 1182.8 743.1 L 1182.8 743.1 L 1189.3 744.7 L 1196.0 746.3 L 1202.6 747.9 L 1209.3 749.4 L 1216.1 750.8 L 1222.9 752.2 L 1229.7 753.4 L 1236.5 754.6 L 1243.4 755.6 L 1250.2 756.5 L 1257.1 757.3 L 1263.9 757.9 L 1270.7 758.4 L 1277.5 758.7 L 1284.3 758.8 L 1291.0 758.7 L 1291.0 758.7 L 1297.7 758.4 L 1304.5 758.1 L 1311.3 757.6 L 1318.2 757.0 L 1325.0 756.2 L 1331.9 755.3 L 1338.7 754.2 L 1345.6 753.0 L 1352.3 751.7 L 1359.0 750.1 L 1365.6 748.4 L 1372.1 746.5 L 1378.5 744.4 L 1384.8 742.0 L 1390.9 739.5 L 1396.9 736.8 L 1396.9 736.8 L 1402.8 733.8 L 1408.7 730.6 L 1414.6 727.2 L 1420.5 723.5 L 1426.3 719.7 L 1432.0 715.7 L 1437.6 711.5 L 1443.1 707.2 L 1448.4 702.6 L 1453.5 698.0 L 1458.5 693.1 L 1463.2 688.2 L 1467.7 683.1 L 1471.9 677.9 L 1475.8 672.6 L 1479.4 667.2 L 1479.4 667.2 L 1482.8 661.7 L 1485.9 655.9 L 1488.9 649.8 L 1491.6 643.6 L 1494.2 637.2 L 1496.5 630.6 L 1498.6 623.9 L 1500.5 617.2 L 1502.1 610.3 L 1503.6 603.5 L 1504.8 596.6 L 1505.7 589.7 L 1506.5 582.9 L 1507.0 576.1 L 1507.2 569.5 L 1507.2 562.9 L 1507.2 562.9 L 1506.9 556.4 L 1506.4 549.8 L 1505.6 543.1 L 1504.6 536.3 L 1503.4 529.6 L 1501.9 522.8 L 1500.2 516.0 L 1498.2 509.3 L 1496.1 502.7 L 1493.7 496.1 L 1491.1 489.7 L 1488.3 483.5 L 1485.3 477.4 L 1482.1 471.5 L 1478.7 465.8 L 1475.1 460.4 L 1475.1 460.4 L 1471.3 455.1 L 1467.2 450.0 L 1462.8 445.1 L 1458.1 440.2 L 1453.1 435.5 L 1448.0 430.9 L 1442.7 426.5 L 1437.2 422.2 L 1431.5 418.1 L 1425.7 414.1 L 1419.9 410.3 L 1413.9 406.6 L 1408.0 403.1 L 1401.9 399.8 L 1395.9 396.6 L 1389.9 393.7 L 1389.9 393.7 L 1383.9 390.9 L 1377.7 388.5 L 1371.4 386.3 L 1364.9 384.4 L 1358.4 382.7 L 1351.7 381.2 L 1345.0 379.8 L 1338.2 378.5 L 1331.5 377.2 L 1324.6 376.1 L 1317.8 374.9 L 1311.0 373.7 L 1304.2 372.4 L 1297.5 371.1 L 1290.8 369.6 L 1284.2 368.0 L 1284.2 368.0 L 1277.5 366.4 L 1270.6 365.0 L 1263.5 363.8 L 1256.3 362.7 L 1249.1 361.6 L 1241.8 360.5 L 1234.6 359.4 L 1227.5 358.1 L 1220.5 356.8 L 1213.7 355.2 L 1207.2 353.4 L 1200.9 351.4 L 1195.0 349.0 L 1189.6 346.2 L 1184.5 342.9 L 1180.0 339.2 L 1180.0 339.2 L 1175.9 335.0 L 1172.1 330.3 L 1168.5 325.2 L 1165.3 319.7 L 1162.3 313.9 L 1159.6 307.7 L 1157.2 301.4 L 1155.0 294.8 L 1153.2 288.1 L 1151.6 281.3 L 1150.3 274.5 L 1149.4 267.7 L 1148.6 260.9 L 1148.2 254.2 L 1148.1 247.7 L 1148.2 241.4 L 1148.2 241.4 L 1148.8 235.2 L 1150.0 228.9 L 1151.6 222.7 L 1153.6 216.4 L 1156.0 210.1 L 1158.7 203.9 L 1161.7 197.6 L 1164.8 191.3 L 1168.1 184.9 L 1171.4 178.6 L 1174.8 172.3 L 1178.1 165.9 L 1181.2 159.5 L 1184.3 153.2 L 1187.0 146.8 L 1189.5 140.4 L 1189.5 140.4 L 1191.8 134.0 L 1194.2 127.5 L 1196.5 121.1 L 1198.8 114.7 L 1201.1 108.2 L 1203.4 101.8 L 1205.6 95.3 L 1207.8 88.9 L 1209.9 82.4 L 1212.0 75.9 L 1214.0 69.3 L 1215.9 62.8 L 1217.7 56.2 L 1219.4 49.6 L 1221.0 43.0 L 1222.5 36.4 L 1222.5 36.4 L 1223.8 29.7 L 1225.0 23.0 L 1226.2 16.3 L 1227.2 9.6 L 1228.2 2.8 L 1228.5 0.0" fill="none" stroke="#39ff88" stroke-width="6.0" stroke-opacity="0.9"/><path d="M 1212.3 433.9 L 1213.4 433.9 L 1214.6 433.8 L 1216.1 433.7 L 1217.7 433.5 L 1219.4 433.4 L 1221.3 433.3 L 1223.3 433.1 L 1225.3 433.0 L 1227.4 432.8 L 1229.6 432.7 L 1231.7 432.6 L 1233.9 432.6 L 1236.0 432.5 L 1238.1 432.5 L 1240.1 432.6 L 1241.9 432.7 L 1241.9 432.7 L 1243.8 432.8 L 1245.6 432.9 L 1247.5 433.1 L 1249.4 433.3 L 1251.2 433.5 L 1253.1 433.7 L 1254.9 434.0 L 1256.8 434.2 L 1258.7 434.5 L 1260.5 434.9 L 1262.3 435.2 L 1264.1 435.6 L 1266.0 436.1 L 1267.7 436.5 L 1269.5 437.0 L 1271.3 437.6 L 1271.3 437.6 L 1273.1 438.2 L 1274.9 438.9 L 1276.8 439.7 L 1278.7 440.6 L 1280.7 441.5 L 1282.6 442.4 L 1284.5 443.4 L 1286.4 444.4 L 1288.2 445.3 L 1289.9 446.3 L 1291.6 447.2 L 1293.1 448.0 L 1294.5 448.8 L 1295.8 449.5 L 1296.9 450.1 L 1297.8 450.5" fill="none" stroke="#39ff88" stroke-width="6.0" stroke-opacity="0.9"/></g><g id="clips"><circle cx="510.0" cy="0.0" r="2" fill="none" stroke="#0b5" stroke-width="0.6"/><circle cx="341.9" cy="1000.0" r="2" fill="none" stroke="#0b5" stroke-width="0.6"/><circle cx="548.3" cy="1000.0" r="2" fill="none" stroke="#0b5" stroke-width="0.6"/><circle cx="1228.5" cy="0.0" r="2" fill="none" stroke="#0b5" stroke-width="0.6"/><circle cx="1212.3" cy="433.9" r="2" fill="none" stroke="#0b5" stroke-width="0.6"/><circle cx="1297.8" cy="450.5" r="2" fill="none" stroke="#0b5" stroke-width="0.6"/></g><g id="power"><circle cx="341.8" cy="1000.0" r="5" fill="none" stroke="#e33" stroke-width="1"/><circle cx="548.3" cy="1000.0" r="5" fill="none" stroke="#e33" stroke-width="1"/><circle cx="509.9" cy="0.0" r="5" fill="none" stroke="#e33" stroke-width="1"/><circle cx="1228.5" cy="0.0" r="5" fill="none" stroke="#e33" stroke-width="1"/></g></svg>