<svg xmlns="http://www.w3.org/2000/svg" width="2000mm" height="1000mm" viewBox="0 0 2000 1000"><g id="outline"><rect x="0" y="0" width="2000" height="1000" fill="none" stroke="#000" stroke-width="1"/></g><g id="channels"><path d="M 0.0 354.8 L 3.6 356.2 L 9.7 358.4 L 15.7 360.6 L 21.8 362.7 L 27.9 364.8 L 34.0 366.9 L 40.1 369.0 L 46.2 371.1 L 52.4 373.1 L 58.5 375.2 L 64.6 377.3 L 70.7 379.4 L 76.8 381.5 L 82.9 383.7 L 88.9 385.9 L 88.9 385.9 L 95.0 388.2 L 101.0 390.5 L 107.0 392.9 L 112.9 395.3 L 118.9 397.8 L 124.9 400.3 L 130.9 402.8 L 136.8 405.3 L 142.8 407.7 L 148.8 410.1 L 154.8 412.5 L 160.8 414.8 L 166.8 417.1 L 172.9 419.2 L 179.0 421.2 L 185.1 423.2 L 185.1 423.2 L 191.3 425.0 L 197.5 426.7 L 203.7 428.4 L 210.0 430.0 L 216.2 431.5 L 222.5 432.9 L 228.8 434.3 L 235.1 435.7 L 241.4 437.0 L 247.7 438.3 L 254.1 439.5 L 260.4 440.7 L 266.8 441.9 L 273.1 443.1 L 279.5 444.3 L 285.8 445.5 L 285.8 445.5 L 292.1 446.6 L 298.5 447.7 L 304.9 448.7 L 311.2 449.7 L 317.6 450.6 L 324.0 451.5 L 330.4 452.4 L 336.8 453.3 L 343.2 454.1 L 349.6 455.0 L 356.0 455.9 L 362.4 456.8 L 368.8 457.7 L 375.2 458.7 L 381.5 459.7 L 387.9 460.7 L 387.9 460.7 L 394.3 461.8 L 400.7 462.8 L 407.1 463.7 L 413.6 464.6 L 420.1 465.5 L 426.6 466.4 L 433.0 467.3 L 439.5 468.3 L 445.9 469.4 L 452.3 470.5 L 458.6 471.8 L 464.9 473.2 L 471.1 474.8 L 477.2 476.5 L 483.2 478.5 L 489.1 480.7 L 489.1 480.7 L 494.9 483.1 L 500.8 485.5 L 506.7 488.2 L 512.6 490.9 L 518.5 493.8 L 524.2 496.8 L 530.0 499.9 L 535.6 503.2 L 541.1 506.6 L 546.5 510.1 L 551.8 513.8 L 556.8 517.7 L 561.7 521.7 L 566.4 525.8 L 570.9 530.2 L 575.1 534.6 L 575.1 534.6 L 579.1 539.3 L 582.9 544.3 L 586.4 549.4 L 589.8 554.8 L 592.9 560.4 L 595.9 566.1 L 598.7 571.9 L 601.5 577.8 L 604.1 583.9 L 606.6 590.0 L 609.0 596.1 L 611.4 602.3 L 613.7 608.5 L 616.0 614.6 L 618.3 620.7 L 620.6 626.7 L 620.6 626.7 L 622.9 632.7 L 625.0 638.8 L 627.1 644.8 L 629.0 651.0 L 630.9 657.1 L 632.7 663.3 L 634.5 669.5 L 636.2 675.8 L 637.9 682.0 L 639.5 688.3 L 641.1 694.6 L 642.7 700.8 L 644.3 707.1 L 645.9 713.4 L 647.6 719.6 L 649.2 725.9 L 649.2 725.9 L 650.8 732.1 L 652.4 738.4 L 654.0 744.6 L 655.5 750.9 L 657.0 757.2 L 658.4 763.5 L 659.9 769.8 L 661.3 776.0 L 662.8 782.3 L 664.3 788.6 L 665.8 794.9 L 667.3 801.2 L 668.9 807.4 L 670.5 813.7 L 672.2 819.9 L 673.9 826.1 L 673.9 826.1 L 675.7 832.3 L 677.5 838.5 L 679.3 844.7 L 681.1 850.8 L 683.0 857.0 L 684.8 863.2 L 686.8 869.4 L 688.7 875.5 L 690.7 881.6 L 692.7 887.8 L 694.8 893.9 L 696.9 900.0 L 699.1 906.0 L 701.3 912.1 L 703.6 918.1 L 706.0 924.1 L 706.0 924.1 L 708.5 930.0 L 711.1 935.9 L 713.8 941.7 L 716.7 947.5 L 719.7 953.3 L 722.7 959.1 L 725.7 964.8 L 728.7 970.6 L 731.8 976.3 L 734.7 982.1 L 737.7 987.8 L 740.5 993.6 L 743.2 999.4 L 743.5 1000.0" fill="none" stroke="#ff3ea5" stroke-width="6.0" stroke-opacity="0.9"/><path d="M 621.4 1000.0 L 621.6 999.0 L 623.1 992.6 L 624.7 986.2 L 626.3 979.7 L 627.9 973.2 L 629.3 966.8 L 630.5 960.3 L 631.4 953.9 L 632.1 947.5 L 632.4 941.1 L 632.2 934.8 L 632.2 934.8 L 631.6 928.6 L 630.8 922.3 L 629.7 916.1 L 628.4 909.8 L 626.9 903.6 L 625.2 897.4 L 623.4 891.2 L 621.4 885.0 L 619.4 878.8 L 617.2 872.6 L 615.0 866.5 L 612.7 860.3 L 610.5 854.2 L 608.2 848.1 L 606.0 842.0 L 603.8 835.9 L 603.8 835.9 L 601.6 829.9 L 599.4 823.8 L 597.1 817.8 L 594.8 811.8 L 592.4 805.8 L 590.0 799.8 L 587.5 793.8 L 585.0 787.9 L 582.4 781.9 L 579.8 776.0 L 577.1 770.1 L 574.4 764.2 L 571.7 758.4 L 568.9 752.6 L 566.1 746.8 L 563.2 741.0 L 563.2 741.0 L 560.4 735.2 L 557.5 729.4 L 554.7 723.5 L 551.9 717.5 L 549.0 711.6 L 546.2 705.7 L 543.2 699.8 L 540.2 694.0 L 537.1 688.3 L 533.9 682.6 L 530.6 677.1 L 527.1 671.7 L 523.5 666.5 L 519.7 661.4 L 515.8 656.6 L 511.6 652.0 L 511.6 652.0 L 507.2 647.5 L 502.7 643.2 L 497.9 639.0 L 493.0 634.9 L 488.0 631.0 L 482.8 627.2 L 477.6 623.5 L 472.2 619.9 L 466.7 616.5 L 461.1 613.3 L 455.4 610.2 L 449.7 607.2 L 443.9 604.4 L 438.1 601.7 L 432.3 599.2 L 426.5 596.9 L 426.5 596.9 L 420.6 594.7 L 414.6 592.9 L 408.4 591.2 L 402.2 589.8 L 396.0 588.5 L 389.6 587.4 L 383.2 586.4 L 376.7 585.6 L 370.2 584.8 L 363.7 584.0 L 357.2 583.3 L 350.7 582.6 L 344.2 581.9 L 337.7 581.2 L 331.2 580.4 L 324.8 579.4 L 324.8 579.4 L 318.5 578.4 L 312.1 577.4 L 305.7 576.4 L 299.3 575.3 L 292.9 574.2 L 286.5 573.1 L 280.1 572.1 L 273.7 571.1 L 267.3 570.1 L 260.9 569.2 L 254.5 568.4 L 248.1 567.7 L 241.7 567.0 L 235.3 566.5 L 228.9 566.1 L 222.5 565.8 L 222.5 565.8 L 216.0 565.6 L 209.1 565.3 L 202.0 564.9 L 194.7 564.6 L 187.3 564.3 L 179.9 564.0 L 172.6 563.9 L 165.4 563.9 L 158.3 564.1 L 151.6 564.5 L 145.1 565.1 L 139.1 566.0 L 133.5 567.2 L 128.5 568.8 L 124.1 570.7 L 120.4 573.1 L 120.4 573.1 L 117.3 576.0 L 114.5 579.5 L 112.1 583.5 L 110.1 588.1 L 108.4 592.9 L 107.1 598.1 L 106.2 603.5 L 105.7 609.0 L 105.6 614.5 L 105.9 620.1 L 106.6 625.5 L 107.7 630.7 L 109.1 635.6 L 111.0 640.2 L 113.3 644.4 L 116.0 648.0 L 116.0 648.0 L 119.3 651.1 L 123.3 654.0 L 128.0 656.6 L 133.2 658.9 L 138.9 661.1 L 145.1 663.0 L 151.6 664.8 L 158.3 666.5 L 165.3 668.1 L 172.4 669.7 L 179.5 671.2 L 186.7 672.8 L 193.7 674.4 L 200.5 676.1 L 207.1 677.9 L 213.4 679.9 L 213.4 679.9 L 219.5 681.9 L 225.7 683.8 L 232.0 685.5 L 238.3 687.3 L 244.7 689.0 L 251.0 690.7 L 257.4 692.4 L 263.7 694.2 L 269.9 696.0 L 276.1 698.0 L 282.2 700.1 L 288.1 702.4 L 293.9 704.9 L 299.6 707.6 L 305.1 710.6 L 310.3 713.8 L 310.3 713.8 L 315.5 717.3 L 320.7 721.1 L 326.0 725.0 L 331.2 729.1 L 336.3 733.4 L 341.4 737.8 L 346.3 742.4 L 351.0 747.2 L 355.5 752.0 L 359.8 757.0 L 363.8 762.1 L 367.5 767.3 L 370.8 772.6 L 373.7 777.9 L 376.2 783.3 L 378.3 788.7 L 378.3 788.7 L 379.9 794.3 L 381.2 800.2 L 382.2 806.4 L 382.9 812.8 L 383.3 819.4 L 383.4 826.1 L 383.2 832.8 L 382.7 839.6 L 381.8 846.3 L 380.7 852.9 L 379.3 859.4 L 377.6 865.7 L 375.7 871.8 L 373.4 877.5 L 370.9 883.0 L 368.1 888.0 L 368.1 888.0 L 364.9 892.7 L 361.3 897.4 L 357.2 901.9 L 352.8 906.2 L 348.0 910.4 L 342.9 914.4 L 337.5 918.2 L 332.0 921.9 L 326.2 925.3 L 320.3 928.5 L 314.3 931.5 L 308.3 934.3 L 302.2 936.8 L 296.2 939.0 L 290.2 940.9 L 284.3 942.6 L 284.3 942.6 L 278.4 944.0 L 272.3 945.1 L 266.1 945.8 L 259.7 946.4 L 253.3 946.7 L 246.7 946.7 L 240.1 946.5 L 233.5 946.1 L 226.8 945.5 L 220.2 944.7 L 213.6 943.7 L 207.1 942.5 L 200.6 941.2 L 194.3 939.8 L 188.0 938.2 L 182.0 936.5 L 182.0 936.5 L 176.0 934.7 L 170.0 932.7 L 164.1 930.4 L 158.2 928.0 L 152.3 925.4 L 146.4 922.6 L 140.7 919.6 L 135.0 916.5 L 129.3 913.3 L 123.8 909.9 L 118.4 906.3 L 113.0 902.7 L 107.8 898.9 L 102.7 895.0 L 97.8 891.0 L 93.0 887.0 L 93.0 887.0 L 88.3 882.5 L 83.8 877.4 L 79.3 871.7 L 75.0 865.7 L 70.7 859.4 L 66.6 852.9 L 62.6 846.4 L 58.6 839.9 L 54.8 833.6 L 51.1 827.6 L 47.4 822.1 L 43.9 817.1 L 40.5 812.7 L 37.1 809.2 L 33.9 806.5 L 30.7 804.8 L 30.7 804.8 L 27.6 804.1 L 24.4 804.2 L 21.1 804.9 L 17.8 806.3 L 14.6 808.3 L 11.5 810.8 L 8.5 813.7 L 5.7 817.1 L 3.0 820.8 L 0.6 824.8 L 0.0 826.0" fill="none" stroke="#ff3ea5" stroke-width="6.0" stroke-opacity="0.9"/><path d="M 0.0 874.7 L 1.1 877.3 L 3.8 883.2 L 6.8 889.3 L 10.0 895.4 L 13.3 901.7 L 16.8 908.1 L 20.2 914.5 L 23.6 920.8 L 26.9 927.2 L 30.1 933.5 L 33.0 939.6 L 35.7 945.6 L 35.7 945.6 L 38.2 951.6 L 40.6 957.6 L 42.9 963.6 L 45.2 969.6 L 47.5 975.7 L 49.8 981.7 L 52.0 987.8 L 54.3 993.8 L 56.6 999.9 L 56.6 1000.0" fill="none" stroke="#ff3ea5" stroke-width="6.0" stroke-opacity="0.9"/><path d="M 132.1 748.1 L 131.9 748.4 L 131.7 748.8 L 131.4 749.3 L 131.1 749.8 L 130.8 750.4 L 130.4 751.0 L 130.1 751.6 L 129.7 752.3 L 129.3 753.0 L 128.9 753.7 L 128.5 754.4 L 128.1 755.1 L 127.8 755.8 L 127.4 756.4 L 127.0 757.1 L 126.7 757.7 L 126.7 757.7 L 126.4 758.3 L 126.0 758.9 L 125.7 759.5 L 125.4 760.1 L 125.1 760.7 L 124.7 761.3 L 124.4 762.0 L 124.1 762.6 L 123.8 763.2 L 123.4 763.8 L 123.1 764.4 L 122.8 765.0 L 122.5 765.6 L 122.1 766.2 L 121.8 766.8 L 121.5 767.5 L 121.5 767.5 L 121.2 768.1 L 120.8 768.7 L 120.5 769.4 L 120.1 770.1 L 119.7 770.8 L 119.4 771.5 L 119.0 772.3 L 118.6 773.0 L 118.3 773.6 L 117.9 774.3 L 117.6 774.9 L 117.3 775.5 L 117.0 776.0 L 116.8 776.5 L 116.6 776.9 L 116.4 777.2" fill="none" stroke="#ff3ea5" stroke-width="6.0" stroke-opacity="0.9"/></g><g id="clips"><circle cx="0.0" cy="354.8" r="2" fill="none" stroke="#0b5" stroke-width="0.6"/><circle cx="743.5" cy="1000.0" r="2" fill="none" stroke="#0b5" stroke-width="0.6"/><circle cx="621.4" cy="1000.0" r="2" fill="none" stroke="#0b5" stroke-width="0.6"/><circle cx="0.0" cy="826.0" r="2" fill="none" stroke="#0b5" stroke-width="0.6"/><circle cx="0.0" cy="874.7" r="2" fill="none" stroke="#0b5" stroke-width="0.6"/><circle cx="56.6" cy="1000.0" r="2" fill="none" stroke="#0b5" stroke-width="0.6"/><circle cx="132.1" cy="748.1" r="2" fill="none" stroke="#0b5" stroke-width="0.6"/></g><g id="power"><circle cx="0.0" cy="354.8" r="5" fill="none" stroke="#e33" stroke-width="1"/><circle cx="743.4" cy="1000.0" r="5" fill="none" stroke="#e33" stroke-width="1"/><circle cx="621.4" cy="1000.0" r="5" fill="none" stroke="#e33" stroke-width="1"/><circle cx="0.0" cy="826.1" r="5" fill="none" stroke="#e33" stroke-width="1"/><circle cx="0.0" cy="874.6" r="5" fill="none" stroke="#e33" stroke-width="1"/><circle cx="56.6" cy="1000.0" r="5" fill="none" stroke="#e33" stroke-width="1"/></g></svg>