<svg xmlns="http://www.w3.org/2000/svg" width="1000mm" height="1000mm" viewBox="0 0 1000 1000"><g id="outline"><rect x="0" y="0" width="1000" height="1000" fill="none" stroke="#000" stroke-width="1"/></g><g id="channels"><path d="M 671.6 1000.0 L 671.1 999.1 L 668.1 993.4 L 665.0 987.8 L 661.8 982.2 L 661.8 982.2 L 658.5 976.8 L 655.0 971.4 L 651.4 966.0 L 647.8 960.7 L 644.0 955.5 L 640.2 950.3 L 636.3 945.1 L 632.4 940.0 L 628.4 934.9 L 624.4 929.8 L 620.3 924.7 L 616.3 919.7 L 612.2 914.6 L 608.2 909.6 L 604.1 904.5 L 600.1 899.4 L 600.1 899.4 L 596.1 894.4 L 592.1 889.3 L 588.0 884.3 L 583.9 879.3 L 579.8 874.4 L 575.6 869.4 L 571.5 864.5 L 567.3 859.5 L 563.2 854.6 L 559.0 849.6 L 554.8 844.7 L 550.7 839.7 L 546.6 834.7 L 542.5 829.7 L 538.5 824.7 L 534.5 819.6 L 534.5 819.6 L 530.5 814.6 L 526.4 809.5 L 522.4 804.5 L 518.4 799.4 L 514.3 794.3 L 510.3 789.3 L 506.3 784.2 L 502.3 779.1 L 498.4 773.9 L 494.5 768.8 L 490.6 763.6 L 486.8 758.4 L 483.1 753.1 L 479.5 747.8 L 475.9 742.4 L 472.5 737.0 L 472.5 737.0 L 469.1 731.6 L 465.7 726.0 L 462.4 720.5 L 459.2 714.9 L 456.0 709.3 L 452.9 703.6 L 449.9 697.9 L 446.9 692.2 L 443.9 686.4 L 441.1 680.6 L 438.3 674.8 L 435.5 668.9 L 432.8 663.1 L 430.2 657.2 L 427.7 651.3 L 425.2 645.3 L 425.2 645.3 L 422.8 639.3 L 420.6 633.3 L 418.5 627.2 L 416.4 621.1 L 414.5 615.0 L 412.6 608.8 L 410.8 602.6 L 409.0 596.4 L 407.2 590.2 L 405.5 583.9 L 403.8 577.7 L 402.0 571.5 L 400.2 565.2 L 398.4 559.0 L 396.5 552.9 L 394.5 546.7 L 394.5 546.7 L 392.5 540.6 L 390.5 534.4 L 388.6 528.3 L 386.6 522.1 L 384.6 516.0 L 382.7 509.8 L 380.7 503.6 L 378.7 497.5 L 376.6 491.4 L 374.5 485.3 L 372.4 479.2 L 370.2 473.1 L 368.0 467.1 L 365.7 461.0 L 363.4 455.0 L 360.9 449.1 L 360.9 449.1 L 358.3 443.2 L 355.5 437.3 L 352.6 431.5 L 349.6 425.8 L 346.4 420.0 L 343.2 414.3 L 340.0 408.6 L 336.8 402.9 L 333.6 397.2 L 330.5 391.5 L 327.5 385.8 L 324.5 380.1 L 321.8 374.3 L 319.2 368.4 L 316.9 362.6 L 314.8 356.6 L 314.8 356.6 L 312.8 350.4 L 310.6 343.7 L 308.4 336.6 L 306.2 329.2 L 304.1 321.7 L 302.0 314.2 L 300.1 306.6 L 298.4 299.3 L 296.9 292.1 L 295.8 285.3 L 295.0 279.0 L 294.6 273.3 L 294.7 268.2 L 295.3 263.8 L 296.4 260.3 L 298.2 257.8 L 298.2 257.8 L 300.7 256.3 L 304.0 255.5 L 308.0 255.5 L 312.5 256.2 L 317.6 257.4 L 323.0 259.3 L 328.8 261.6 L 334.9 264.3 L 341.1 267.3 L 347.4 270.7 L 353.7 274.2 L 359.9 277.9 L 365.9 281.7 L 371.7 285.5 L 377.1 289.2 L 382.0 292.9 L 382.0 292.9 L 386.7 296.6 L 391.2 300.6 L 395.6 304.9 L 399.9 309.5 L 404.1 314.3 L 408.3 319.3 L 412.4 324.4 L 416.4 329.6 L 420.5 334.9 L 424.5 340.3 L 428.5 345.7 L 432.5 351.0 L 436.6 356.3 L 440.8 361.4 L 445.0 366.5 L 449.3 371.4 L 449.3 371.4 L 453.6 376.1 L 458.0 380.9 L 462.4 385.6 L 466.9 390.3 L 471.3 394.9 L 475.8 399.6 L 480.3 404.2 L 484.8 408.8 L 489.3 413.5 L 493.8 418.1 L 498.3 422.7 L 502.8 427.3 L 507.4 431.9 L 511.8 436.6 L 516.3 441.2 L 520.8 445.9 L 520.8 445.9 L 525.3 450.6 L 529.8 455.2 L 534.4 459.8 L 538.9 464.3 L 543.6 468.9 L 548.2 473.4 L 552.8 478.0 L 557.3 482.6 L 561.9 487.2 L 566.4 491.8 L 570.8 496.5 L 575.2 501.3 L 579.4 506.1 L 583.6 511.0 L 587.6 516.0 L 591.6 521.0 L 591.6 521.0 L 595.4 526.2 L 599.1 531.4 L 602.7 536.8 L 606.2 542.2 L 609.6 547.6 L 613.0 553.1 L 616.3 558.7 L 619.5 564.3 L 622.7 569.9 L 625.9 575.5 L 629.0 581.2 L 632.1 586.9 L 635.2 592.6 L 638.2 598.3 L 641.3 604.0 L 644.3 609.7 L 644.3 609.7 L 647.4 615.4 L 650.3 621.1 L 653.3 626.9 L 656.1 632.7 L 658.9 638.5 L 661.7 644.3 L 664.5 650.1 L 667.2 656.0 L 670.0 661.8 L 672.7 667.7 L 675.5 673.5 L 678.3 679.4 L 681.1 685.2 L 683.9 691.0 L 686.8 696.8 L 689.8 702.5 L 689.8 702.5 L 692.8 708.2 L 695.8 713.9 L 698.9 719.6 L 702.1 725.2 L 705.2 730.9 L 708.4 736.5 L 711.5 742.1 L 714.7 747.7 L 717.9 753.3 L 721.1 759.0 L 724.3 764.6 L 727.5 770.2 L 730.7 775.8 L 733.9 781.4 L 737.0 787.1 L 740.1 792.7 L 740.1 792.7 L 743.3 798.4 L 746.5 804.0 L 749.8 809.6 L 753.1 815.2 L 756.5 820.8 L 759.9 826.4 L 763.2 832.0 L 766.5 837.6 L 769.7 843.2 L 772.9 848.9 L 776.0 854.6 L 778.9 860.3 L 781.7 866.1 L 784.3 871.9 L 786.8 877.8 L 789.0 883.7 L 789.0 883.7 L 791.1 889.7 L 793.0 895.8 L 794.9 902.0 L 796.6 908.2 L 798.2 914.4 L 799.7 920.7 L 801.1 927.0 L 802.4 933.3 L 803.5 939.7 L 804.6 946.0 L 805.5 952.4 L 806.3 958.8 L 806.9 965.2 L 807.5 971.6 L 807.9 978.0 L 808.2 984.3 L 808.2 984.3 L 808.2 990.8 L 807.8 997.4 L 807.5 1000.0" fill="none" stroke="#00e5ff" stroke-width="6.0" stroke-opacity="0.9"/><path d="M 920.7 1000.0 L 919.3 995.9 L 917.2 989.8 L 915.2 983.7 L 913.1 977.5 L 911.1 971.4 L 909.0 965.3 L 906.9 959.2 L 904.7 953.1 L 902.5 947.0 L 900.2 941.0 L 900.2 941.0 L 897.9 935.0 L 895.5 929.0 L 893.1 923.0 L 890.6 917.0 L 888.2 911.1 L 885.7 905.1 L 883.2 899.2 L 880.7 893.2 L 878.1 887.3 L 875.6 881.3 L 873.1 875.4 L 870.6 869.4 L 868.1 863.5 L 865.6 857.5 L 863.1 851.6 L 860.7 845.6 L 860.7 845.6 L 858.2 839.6 L 855.8 833.6 L 853.4 827.6 L 851.0 821.6 L 848.6 815.6 L 846.2 809.6 L 843.8 803.6 L 841.4 797.6 L 839.0 791.6 L 836.6 785.6 L 834.2 779.6 L 831.8 773.7 L 829.4 767.7 L 827.0 761.7 L 824.6 755.7 L 822.2 749.7 L 822.2 749.7 L 819.7 743.7 L 817.3 737.7 L 814.9 731.7 L 812.5 725.8 L 810.0 719.8 L 807.6 713.8 L 805.2 707.8 L 802.7 701.8 L 800.3 695.9 L 797.8 689.9 L 795.4 683.9 L 792.9 677.9 L 790.4 672.0 L 787.9 666.0 L 785.4 660.1 L 782.9 654.1 L 782.9 654.1 L 780.4 648.2 L 777.8 642.2 L 775.3 636.3 L 772.8 630.4 L 770.2 624.4 L 767.6 618.5 L 765.1 612.6 L 762.5 606.6 L 759.9 600.7 L 757.3 594.8 L 754.7 588.9 L 752.1 583.0 L 749.5 577.1 L 746.8 571.2 L 744.2 565.3 L 741.5 559.4 L 741.5 559.4 L 738.9 553.5 L 736.2 547.6 L 733.6 541.7 L 731.0 535.8 L 728.4 529.9 L 725.7 524.0 L 723.1 518.1 L 720.4 512.2 L 717.7 506.3 L 715.0 500.5 L 712.3 494.6 L 709.5 488.8 L 706.6 483.0 L 703.7 477.3 L 700.7 471.5 L 697.7 465.9 L 697.7 465.9 L 694.6 460.2 L 691.4 454.6 L 688.2 449.0 L 684.9 443.5 L 681.6 437.9 L 678.2 432.4 L 674.8 426.9 L 671.4 421.5 L 667.9 416.0 L 664.4 410.6 L 660.8 405.2 L 657.3 399.8 L 653.7 394.4 L 650.1 389.0 L 646.5 383.7 L 642.8 378.3 L 642.8 378.3 L 639.2 373.0 L 635.5 367.7 L 631.7 362.5 L 628.0 357.3 L 624.1 352.1 L 620.3 346.9 L 616.4 341.7 L 612.5 336.5 L 608.6 331.4 L 604.7 326.2 L 600.8 321.1 L 596.9 315.9 L 593.0 310.8 L 589.2 305.6 L 585.3 300.4 L 581.5 295.2 L 581.5 295.2 L 577.6 290.0 L 573.8 284.8 L 570.0 279.6 L 566.2 274.4 L 562.4 269.2 L 558.6 263.9 L 554.8 258.7 L 551.0 253.5 L 547.1 248.3 L 543.3 243.1 L 539.5 237.8 L 535.7 232.6 L 531.9 227.4 L 528.1 222.2 L 524.3 217.0 L 520.5 211.7 L 520.5 211.7 L 516.7 206.5 L 513.0 201.3 L 509.2 196.0 L 505.5 190.7 L 501.7 185.5 L 498.0 180.2 L 494.2 174.9 L 490.5 169.7 L 486.7 164.4 L 483.0 159.2 L 479.2 153.9 L 475.4 148.7 L 471.5 143.5 L 467.6 138.4 L 463.7 133.3 L 459.8 128.2 L 459.8 128.2 L 455.8 123.1 L 451.8 118.0 L 447.8 112.9 L 443.8 107.8 L 439.8 102.7 L 435.8 97.6 L 431.7 92.6 L 427.6 87.5 L 423.5 82.6 L 419.3 77.6 L 415.1 72.7 L 410.8 67.9 L 406.5 63.1 L 402.1 58.4 L 397.6 53.8 L 393.1 49.2 L 393.1 49.2 L 388.5 44.7 L 383.9 40.2 L 379.3 35.6 L 374.6 31.0 L 369.8 26.4 L 365.1 21.9 L 360.2 17.5 L 355.3 13.1 L 350.4 8.9 L 345.3 4.8 L 340.2 0.9 L 339.0 0.0" fill="none" stroke="#00e5ff" stroke-width="6.0" stroke-opacity="0.9"/><path d="M 0.0 887.9 L 1.2 893.6 L 2.5 899.8 L 3.8 906.0 L 5.0 912.2 L 6.3 918.4 L 7.6 924.6 L 8.8 930.8 L 10.1 937.0 L 11.4 943.2 L 11.4 943.2 L 12.8 949.3 L 14.1 955.5 L 15.4 961.7 L 16.7 967.9 L 18.0 974.1 L 19.2 980.3 L 20.5 986.5 L 21.8 992.7 L 23.1 998.9 L 23.3 1000.0" fill="none" stroke="#00e5ff" stroke-width="6.0" stroke-opacity="0.9"/></g><g id="clips"><circle cx="671.6" cy="1000.0" r="2" fill="none" stroke="#0b5" stroke-width="0.6"/><circle cx="807.5" cy="1000.0" r="2" fill="none" stroke="#0b5" stroke-width="0.6"/><circle cx="920.7" cy="1000.0" r="2" fill="none" stroke="#0b5" stroke-width="0.6"/><circle cx="339.0" cy="0.0" r="2" fill="none" stroke="#0b5" stroke-width="0.6"/><circle cx="0.0" cy="887.9" r="2" fill="none" stroke="#0b5" stroke-width="0.6"/><circle cx="23.3" cy="1000.0" r="2" fill="none" stroke="#0b5" stroke-width="0.6"/></g><g id="power"><circle cx="0.0" cy="887.6" r="5" fill="none" stroke="#e33" stroke-width="1"/><circle cx="339.0" cy="0.0" r="5" fill="none" stroke="#e33" stroke-width="1"/><circle cx="23.3" cy="1000.0" r="5" fill="none" stroke="#e33" stroke-width="1"/><circle cx="671.6" cy="1000.0" r="5" fill="none" stroke="#e33" stroke-width="1"/><circle cx="807.5" cy="1000.0" r="5" fill="none" stroke="#e33" stroke-width="1"/><circle cx="920.7" cy="1000.0" r="5" fill="none" stroke="#e33" stroke-width="1"/></g><g id="bridges"></g></svg>