<svg xmlns="http://www.w3.org/2000/svg" width="1000mm" height="2000mm" viewBox="0 0 1000 2000"><g id="outline"><rect x="0" y="0" width="1000" height="2000" fill="none" stroke="#000" stroke-width="1"/></g><g id="channels"><path d="M 0.0 1464.1 L 0.4 1463.7 L 5.0 1459.7 L 9.5 1455.8 L 14.2 1451.8 L 18.9 1448.0 L 23.5 1444.1 L 28.3 1440.3 L 33.0 1436.5 L 37.8 1432.7 L 42.5 1428.8 L 47.2 1425.0 L 51.9 1421.3 L 56.6 1417.4 L 61.4 1413.5 L 61.4 1413.5 L 66.0 1409.6 L 70.7 1405.8 L 75.3 1401.9 L 80.0 1398.1 L 84.7 1394.2 L 89.4 1390.4 L 94.1 1386.5 L 98.7 1382.6 L 103.5 1378.8 L 108.1 1375.0 L 112.8 1371.2 L 117.6 1367.3 L 122.2 1363.4 L 127.0 1359.6 L 131.6 1355.8 L 136.4 1352.0 L 136.4 1352.0 L 141.1 1348.1 L 145.7 1344.3 L 150.5 1340.5 L 155.1 1336.6 L 159.8 1332.7 L 164.5 1328.9 L 169.2 1325.1 L 173.9 1321.2 L 178.5 1317.3 L 183.3 1313.5 L 187.9 1309.7 L 192.7 1305.9 L 197.5 1302.2 L 202.2 1298.4 L 207.0 1294.7 L 211.8 1290.9 L 211.8 1290.9 L 216.6 1287.2 L 221.4 1283.6 L 226.3 1280.0 L 231.2 1276.4 L 236.1 1272.8 L 241.0 1269.3 L 246.0 1265.7 L 250.9 1262.2 L 255.8 1258.7 L 260.8 1255.1 L 265.7 1251.7 L 270.7 1248.1 L 275.6 1244.5 L 280.5 1241.0 L 285.4 1237.4 L 290.3 1233.9 L 290.3 1233.9 L 295.1 1230.2 L 300.1 1226.7 L 304.9 1223.0 L 309.9 1219.5 L 314.7 1215.9 L 319.6 1212.3 L 324.6 1208.7 L 329.4 1205.1 L 334.3 1201.5 L 339.1 1197.9 L 344.0 1194.2 L 348.8 1190.5 L 353.7 1186.8 L 358.4 1183.1 L 363.2 1179.4 L 367.9 1175.6 L 367.9 1175.6 L 372.7 1171.8 L 377.4 1168.0 L 382.0 1164.2 L 386.7 1160.3 L 391.3 1156.3 L 396.0 1152.5 L 400.6 1148.5 L 405.2 1144.5 L 409.8 1140.6 L 414.4 1136.6 L 418.9 1132.6 L 423.5 1128.6 L 428.0 1124.6 L 432.6 1120.7 L 437.3 1116.7 L 441.8 1112.7 L 441.8 1112.7 L 446.4 1108.8 L 451.0 1104.8 L 455.6 1100.9 L 460.2 1096.9 L 464.7 1092.9 L 469.4 1088.9 L 474.0 1085.0 L 478.5 1081.1 L 483.1 1077.0 L 487.7 1073.0 L 492.2 1069.1 L 496.8 1065.0 L 501.3 1061.0 L 505.8 1056.9 L 510.3 1052.9 L 514.8 1048.8 L 514.8 1048.8 L 519.2 1044.7 L 523.8 1040.7 L 528.3 1036.5 L 532.9 1032.5 L 537.5 1028.5 L 542.0 1024.5 L 546.6 1020.4 L 551.0 1016.3 L 555.5 1012.2 L 559.9 1008.1 L 564.3 1003.8 L 568.5 999.5 L 572.6 995.1 L 576.7 990.7 L 580.6 986.2 L 584.5 981.6 L 584.5 981.6 L 588.1 976.8 L 591.6 971.9 L 595.0 966.9 L 598.3 961.8 L 601.4 956.6 L 604.4 951.3 L 607.4 946.0 L 610.4 940.7 L 613.3 935.4 L 616.3 930.0 L 619.2 924.7 L 622.2 919.3 L 625.2 914.0 L 628.3 908.8 L 631.4 903.7 L 634.6 898.6 L 634.6 898.6 L 638.0 893.3 L 641.3 887.7 L 644.7 881.7 L 648.1 875.5 L 651.5 869.2 L 654.9 862.8 L 658.3 856.7 L 661.8 850.5 L 665.3 844.8 L 668.9 839.4 L 672.4 834.5 L 675.9 830.2 L 679.6 826.5 L 683.2 823.7 L 686.9 821.8 L 690.6 820.8 L 690.6 820.8 L 694.4 820.8 L 698.6 821.8 L 702.9 823.5 L 707.4 826.0 L 712.0 829.1 L 716.7 832.8 L 721.3 837.0 L 725.9 841.7 L 730.4 846.6 L 734.7 851.8 L 738.7 857.2 L 742.5 862.8 L 745.9 868.2 L 748.9 873.7 L 751.5 879.0 L 753.5 884.0 L 753.5 884.0 L 755.2 889.0 L 756.4 894.4 L 757.4 900.0 L 758.0 905.7 L 758.5 911.6 L 758.5 917.7 L 758.4 923.8 L 757.9 930.1 L 757.3 936.3 L 756.5 942.5 L 755.4 948.7 L 754.1 954.9 L 752.7 960.9 L 751.0 966.7 L 749.2 972.4 L 747.3 977.8 L 747.3 977.8 L 745.0 983.1 L 742.4 988.3 L 739.5 993.3 L 736.2 998.2 L 732.8 1003.1 L 729.0 1007.8 L 725.2 1012.6 L 721.1 1017.3 L 716.9 1022.0 L 712.8 1026.6 L 708.6 1031.3 L 704.5 1035.9 L 700.3 1040.6 L 696.3 1045.4 L 692.5 1050.2 L 688.9 1055.1 L 688.9 1055.1 L 685.5 1060.0 L 682.0 1065.1 L 678.7 1070.1 L 675.4 1075.3 L 672.2 1080.5 L 669.0 1085.7 L 665.7 1090.9 L 662.5 1096.0 L 659.3 1101.2 L 656.0 1106.3 L 652.7 1111.3 L 649.2 1116.3 L 645.8 1121.2 L 642.1 1126.0 L 638.4 1130.6 L 634.6 1135.2 L 634.6 1135.2 L 630.6 1139.6 L 626.6 1144.0 L 622.6 1148.3 L 618.4 1152.6 L 614.3 1156.8 L 610.0 1161.0 L 605.7 1165.0 L 601.3 1169.0 L 596.8 1172.9 L 592.3 1176.8 L 587.7 1180.5 L 583.0 1184.1 L 578.3 1187.7 L 573.6 1191.1 L 568.7 1194.4 L 563.7 1197.6 L 563.7 1197.6 L 558.6 1200.7 L 553.3 1203.4 L 547.9 1205.9 L 542.3 1208.2 L 536.6 1210.4 L 531.0 1212.5 L 525.2 1214.6 L 519.3 1216.6 L 513.5 1218.5 L 507.7 1220.6 L 502.0 1222.7 L 496.4 1225.0 L 490.8 1227.4 L 485.4 1230.0 L 480.1 1232.9 L 475.1 1236.1 L 475.1 1236.1 L 470.2 1239.5 L 465.4 1243.0 L 460.7 1246.8 L 456.2 1250.6 L 451.7 1254.7 L 447.3 1258.8 L 442.9 1263.1 L 438.7 1267.4 L 434.4 1271.8 L 430.2 1276.3 L 426.1 1280.8 L 421.9 1285.3 L 417.7 1289.9 L 413.6 1294.4 L 409.5 1298.9 L 405.4 1303.3 L 405.4 1303.3 L 401.3 1307.7 L 397.2 1312.2 L 393.1 1316.6 L 389.1 1321.2 L 385.1 1325.8 L 381.1 1330.4 L 377.2 1335.0 L 373.3 1339.6 L 369.4 1344.3 L 365.5 1348.9 L 361.6 1353.7 L 357.8 1358.3 L 353.9 1363.0 L 350.0 1367.7 L 346.1 1372.4 L 342.3 1377.0 L 342.3 1377.0 L 338.5 1381.8 L 334.7 1386.5 L 331.0 1391.2 L 327.3 1396.1 L 323.5 1400.9 L 319.8 1405.8 L 316.2 1410.6 L 312.5 1415.4 L 308.8 1420.3 L 305.1 1425.1 L 301.3 1429.8 L 297.6 1434.5 L 293.7 1439.3 L 289.9 1443.9 L 285.9 1448.5 L 281.9 1453.0 L 281.9 1453.0 L 277.8 1457.5 L 273.7 1461.9 L 269.5 1466.3 L 265.3 1470.7 L 261.1 1475.0 L 256.8 1479.3 L 252.5 1483.5 L 248.1 1487.8 L 243.8 1492.0 L 239.4 1496.2 L 235.0 1500.3 L 230.6 1504.5 L 226.1 1508.6 L 221.6 1512.7 L 217.1 1516.7 L 212.6 1520.8 L 212.6 1520.8 L 208.0 1524.8 L 203.4 1528.7 L 198.7 1532.5 L 193.9 1536.3 L 189.0 1540.0 L 184.2 1543.7 L 179.3 1547.4 L 174.5 1551.0 L 169.6 1554.8 L 164.8 1558.5 L 160.0 1562.3 L 155.4 1566.1 L 150.8 1570.1 L 146.3 1574.1 L 142.0 1578.3 L 137.8 1582.6 L 137.8 1582.6 L 133.7 1587.0 L 129.7 1591.5 L 125.8 1596.1 L 122.0 1600.7 L 118.2 1605.5 L 114.6 1610.3 L 110.8 1615.2 L 107.3 1620.0 L 103.9 1625.0 L 100.4 1630.0 L 97.0 1635.0 L 93.7 1640.1 L 90.4 1645.3 L 87.3 1650.4 L 84.1 1655.6 L 81.0 1660.7 L 81.0 1660.7 L 78.0 1666.0 L 75.1 1671.2 L 72.3 1676.6 L 69.6 1682.0 L 66.9 1687.4 L 64.3 1692.9 L 61.7 1698.4 L 59.3 1703.9 L 56.8 1709.5 L 54.4 1715.1 L 52.0 1720.7 L 49.5 1726.3 L 47.2 1731.9 L 44.8 1737.5 L 42.4 1743.1 L 39.9 1748.6 L 39.9 1748.6 L 37.4 1754.2 L 35.1 1759.8 L 32.7 1765.3 L 30.3 1770.9 L 28.0 1776.5 L 25.7 1782.1 L 23.3 1787.7 L 21.0 1793.4 L 18.7 1798.9 L 16.5 1804.6 L 14.1 1810.2 L 11.8 1815.8 L 9.5 1821.4 L 7.2 1827.0 L 4.8 1832.6 L 2.4 1838.1 L 2.4 1838.1 L 0.1 1843.7 L 0.0 1843.9" fill="none" stroke="#39ff88" stroke-width="6.0" stroke-opacity="0.9"/><path d="M 0.0 658.4 L 1.2 654.4 L 3.0 649.2 L 4.6 643.9 L 6.4 638.7 L 8.2 633.5 L 9.9 628.3 L 11.7 623.1 L 13.6 618.0 L 15.5 612.8 L 15.5 612.8 L 17.4 607.5 L 19.1 602.1 L 20.8 596.5 L 22.4 590.9 L 23.9 585.2 L 25.6 579.5 L 27.2 573.8 L 28.9 568.2 L 30.7 562.8 L 32.8 557.5 L 35.0 552.6 L 37.3 547.8 L 40.0 543.4 L 43.0 539.4 L 46.2 535.8 L 49.8 532.8 L 49.8 532.8 L 53.7 530.2 L 58.1 528.0 L 62.8 526.2 L 67.8 524.9 L 73.0 523.7 L 78.4 523.0 L 84.0 522.4 L 89.8 522.1 L 95.6 522.0 L 101.6 521.9 L 107.5 521.9 L 113.5 522.0 L 119.4 522.1 L 125.2 522.1 L 130.9 522.1 L 136.5 522.0 L 136.5 522.0 L 142.1 521.7 L 148.1 521.3 L 154.3 520.9 L 160.7 520.4 L 167.2 520.0 L 173.7 519.6 L 180.2 519.2 L 186.6 519.0 L 192.8 518.9 L 198.7 519.1 L 204.2 519.5 L 209.4 520.1 L 214.0 521.2 L 218.1 522.5 L 221.4 524.3 L 224.2 526.5 L 224.2 526.5 L 226.2 529.2 L 227.6 532.5 L 228.6 536.2 L 229.0 540.3 L 229.0 544.8 L 228.6 549.4 L 227.8 554.4 L 226.7 559.6 L 225.3 564.8 L 223.6 570.2 L 221.8 575.5 L 219.7 580.8 L 217.5 585.9 L 215.3 590.9 L 213.0 595.7 L 210.7 600.1 L 210.7 600.1 L 208.2 604.4 L 205.2 608.5 L 201.9 612.6 L 198.4 616.5 L 194.5 620.3 L 190.5 624.2 L 186.2 628.1 L 182.0 631.9 L 177.7 635.6 L 173.3 639.5 L 169.0 643.4 L 164.9 647.4 L 160.8 651.4 L 157.0 655.5 L 153.5 659.8 L 150.3 664.2 L 150.3 664.2 L 147.2 668.6 L 144.3 673.3 L 141.4 677.9 L 138.7 682.6 L 136.0 687.4 L 133.4 692.2 L 130.9 697.1 L 128.5 702.0 L 126.1 707.0 L 123.9 712.1 L 121.7 717.1 L 119.7 722.2 L 117.7 727.3 L 115.8 732.4 L 114.0 737.6 L 112.2 742.8 L 112.2 742.8 L 110.7 748.0 L 109.4 753.3 L 108.3 758.6 L 107.5 764.1 L 106.7 769.6 L 106.0 775.1 L 105.4 780.6 L 104.8 786.2 L 104.2 791.8 L 103.5 797.3 L 102.8 802.8 L 102.0 808.3 L 101.0 813.7 L 99.8 819.0 L 98.4 824.3 L 96.7 829.4 L 96.7 829.4 L 94.8 834.5 L 92.6 839.4 L 90.2 844.3 L 87.8 849.1 L 85.1 853.9 L 82.3 858.7 L 79.5 863.3 L 76.6 868.0 L 73.6 872.7 L 70.6 877.3 L 67.6 881.9 L 64.7 886.6 L 61.8 891.3 L 58.9 896.0 L 56.2 900.8 L 53.6 905.5 L 53.6 905.5 L 51.0 910.4 L 48.2 915.1 L 45.5 920.0 L 42.8 924.7 L 40.1 929.5 L 37.3 934.3 L 34.7 939.1 L 32.0 943.9 L 29.4 948.8 L 26.9 953.7 L 24.4 958.6 L 22.1 963.5 L 19.9 968.4 L 17.8 973.5 L 15.9 978.6 L 14.1 983.7 L 14.1 983.7 L 12.5 988.9 L 11.1 994.1 L 9.8 999.4 L 8.7 1004.8 L 7.6 1010.2 L 6.8 1015.6 L 5.9 1021.0 L 5.1 1026.5 L 4.5 1032.1 L 3.8 1037.5 L 3.2 1043.0 L 2.6 1048.6 L 2.0 1054.1 L 1.3 1059.6 L 0.7 1065.1 L 0.0 1069.8" fill="none" stroke="#39ff88" stroke-width="6.0" stroke-opacity="0.9"/></g><g id="clips"><circle cx="0.0" cy="1464.1" r="2" fill="none" stroke="#0b5" stroke-width="0.6"/><circle cx="154.5" cy="1337.1" r="2" fill="none" stroke="#0b5" stroke-width="0.6"/><circle cx="313.9" cy="1216.5" r="2" fill="none" stroke="#0b5" stroke-width="0.6"/><circle cx="468.5" cy="1089.7" r="2" fill="none" stroke="#0b5" stroke-width="0.6"/><circle cx="606.9" cy="947.0" r="2" fill="none" stroke="#0b5" stroke-width="0.6"/><circle cx="728.8" cy="844.8" r="2" fill="none" stroke="#0b5" stroke-width="0.6"/><circle cx="714.4" cy="1024.8" r="2" fill="none" stroke="#0b5" stroke-width="0.6"/><circle cx="589.1" cy="1179.4" r="2" fill="none" stroke="#0b5" stroke-width="0.6"/><circle cx="422.4" cy="1284.7" r="2" fill="none" stroke="#0b5" stroke-width="0.6"/><circle cx="294.5" cy="1438.3" r="2" fill="none" stroke="#0b5" stroke-width="0.6"/><circle cx="147.4" cy="1573.1" r="2" fill="none" stroke="#0b5" stroke-width="0.6"/><circle cx="42.9" cy="1741.9" r="2" fill="none" stroke="#0b5" stroke-width="0.6"/><circle cx="0.0" cy="1843.9" r="2" fill="none" stroke="#0b5" stroke-width="0.6"/><circle cx="0.0" cy="658.4" r="2" fill="none" stroke="#0b5" stroke-width="0.6"/><circle cx="111.3" cy="522.0" r="2" fill="none" stroke="#0b5" stroke-width="0.6"/><circle cx="206.8" cy="606.3" r="2" fill="none" stroke="#0b5" stroke-width="0.6"/><circle cx="106.2" cy="773.4" r="2" fill="none" stroke="#0b5" stroke-width="0.6"/><circle cx="26.7" cy="954.0" r="2" fill="none" stroke="#0b5" stroke-width="0.6"/><circle cx="0.0" cy="1069.8" r="2" fill="none" stroke="#0b5" stroke-width="0.6"/></g><g id="power"><circle cx="0.0" cy="1843.9" r="5" fill="none" stroke="#e33" stroke-width="1"/><circle cx="0.0" cy="1464.1" r="5" fill="none" stroke="#e33" stroke-width="1"/><circle cx="0.0" cy="1069.8" r="5" fill="none" stroke="#e33" stroke-width="1"/><circle cx="0.0" cy="658.4" r="5" fill="none" stroke="#e33" stroke-width="1"/></g><g id="bridges"></g></svg>