<svg xmlns="http://www.w3.org/2000/svg" width="2000mm" height="1000mm" viewBox="0 0 2000 1000"><g id="outline"><rect x="0" y="0" width="2000" height="1000" fill="none" stroke="#000" stroke-width="1"/></g><g id="channels"><path d="M 1829.7 1000.0 L 1829.2 998.1 L 1828.0 993.8 L 1826.6 988.9 L 1825.0 983.3 L 1823.3 977.3 L 1821.5 970.9 L 1819.6 964.1 L 1817.6 957.0 L 1815.6 949.7 L 1813.6 942.3 L 1811.7 934.8 L 1809.8 927.3 L 1808.1 919.9 L 1806.4 912.7 L 1804.9 905.7 L 1803.6 899.0 L 1803.6 899.0 L 1802.5 892.5 L 1801.5 885.9 L 1800.6 879.3 L 1799.8 872.8 L 1799.0 866.2 L 1798.3 859.5 L 1797.7 852.9 L 1797.1 846.3 L 1796.5 839.6 L 1796.0 833.0 L 1795.4 826.3 L 1794.8 819.7 L 1794.2 813.1 L 1793.6 806.4 L 1792.9 799.8 L 1792.2 793.2 L 1792.2 793.2 L 1791.4 786.6 L 1790.6 780.0 L 1789.8 773.4 L 1789.0 766.8 L 1788.1 760.2 L 1787.3 753.6 L 1786.5 747.0 L 1785.6 740.4 L 1784.8 733.8 L 1783.9 727.2 L 1783.1 720.6 L 1782.2 714.0 L 1781.3 707.4 L 1780.4 700.8 L 1779.6 694.2 L 1778.7 687.6 L 1778.7 687.6 L 1777.8 681.1 L 1776.9 674.5 L 1775.9 667.9 L 1775.0 661.3 L 1774.0 654.7 L 1773.1 648.1 L 1772.1 641.5 L 1771.2 635.0 L 1770.2 628.4 L 1769.2 621.8 L 1768.3 615.2 L 1767.4 608.6 L 1766.5 602.0 L 1765.6 595.5 L 1764.7 588.9 L 1763.9 582.3 L 1763.9 582.3 L 1763.1 575.7 L 1762.4 569.0 L 1761.8 562.4 L 1761.2 555.8 L 1760.7 549.1 L 1760.2 542.5 L 1759.6 535.8 L 1759.1 529.2 L 1758.5 522.5 L 1757.9 515.9 L 1757.3 509.3 L 1756.5 502.7 L 1755.7 496.1 L 1754.8 489.5 L 1753.7 483.0 L 1752.5 476.5 L 1752.5 476.5 L 1751.2 470.0 L 1749.8 463.5 L 1748.3 457.0 L 1746.8 450.6 L 1745.1 444.2 L 1743.4 437.7 L 1741.6 431.3 L 1739.8 424.9 L 1737.9 418.6 L 1736.0 412.2 L 1734.0 405.8 L 1732.0 399.5 L 1729.9 393.2 L 1727.8 386.9 L 1725.7 380.6 L 1723.6 374.3 L 1723.6 374.3 L 1721.4 368.0 L 1719.2 361.8 L 1716.9 355.5 L 1714.5 349.3 L 1712.1 343.1 L 1709.6 337.0 L 1707.1 330.8 L 1704.6 324.6 L 1702.1 318.5 L 1699.5 312.3 L 1696.9 306.2 L 1694.4 300.0 L 1691.8 293.9 L 1689.3 287.7 L 1686.8 281.6 L 1684.3 275.4 L 1684.3 275.4 L 1681.8 269.2 L 1679.3 263.1 L 1676.8 256.9 L 1674.4 250.7 L 1671.9 244.5 L 1669.4 238.4 L 1666.9 232.2 L 1664.4 226.0 L 1661.9 219.9 L 1659.4 213.7 L 1657.0 207.5 L 1654.5 201.4 L 1652.0 195.2 L 1649.5 189.0 L 1647.1 182.8 L 1644.6 176.6 L 1644.6 176.6 L 1642.2 170.5 L 1639.6 164.3 L 1637.1 158.2 L 1634.5 152.0 L 1631.9 145.9 L 1629.3 139.7 L 1626.8 133.6 L 1624.2 127.4 L 1621.7 121.2 L 1619.2 115.1 L 1616.8 108.9 L 1614.4 102.7 L 1612.2 96.4 L 1610.0 90.2 L 1607.9 83.9 L 1605.9 77.6 L 1605.9 77.6 L 1604.0 71.2 L 1602.1 64.8 L 1600.3 58.4 L 1598.6 52.0 L 1596.9 45.6 L 1595.3 39.1 L 1593.7 32.7 L 1592.2 26.2 L 1590.8 19.7 L 1589.4 13.2 L 1588.1 6.7 L 1586.9 0.1 L 1586.9 0.0" fill="none" stroke="#ffd23d" stroke-width="6.0" stroke-opacity="0.9"/><path d="M 883.3 0.0 L 884.4 3.5 L 886.4 9.8 L 888.5 16.1 L 890.7 22.4 L 892.8 28.7 L 894.9 35.0 L 897.1 41.3 L 899.2 47.6 L 901.3 53.9 L 903.4 60.2 L 905.4 66.6 L 907.5 72.9 L 909.5 79.2 L 909.5 79.2 L 911.4 85.6 L 913.3 92.0 L 915.2 98.4 L 917.0 104.8 L 918.8 111.2 L 920.6 117.6 L 922.4 124.0 L 924.2 130.4 L 926.0 136.8 L 927.8 143.2 L 929.6 149.6 L 931.4 156.0 L 933.3 162.4 L 935.2 168.7 L 937.2 175.1 L 939.3 181.4 L 939.3 181.4 L 941.3 187.7 L 943.3 194.1 L 945.3 200.5 L 947.2 206.9 L 949.2 213.3 L 951.2 219.6 L 953.2 226.0 L 955.3 232.4 L 957.5 238.7 L 959.7 245.0 L 962.0 251.2 L 964.4 257.4 L 967.0 263.5 L 969.6 269.5 L 972.5 275.4 L 975.5 281.3 L 975.5 281.3 L 978.6 287.0 L 981.9 292.7 L 985.3 298.4 L 988.9 304.0 L 992.5 309.5 L 996.3 315.0 L 1000.1 320.4 L 1004.1 325.8 L 1008.1 331.1 L 1012.2 336.4 L 1016.4 341.6 L 1020.6 346.7 L 1024.9 351.8 L 1029.2 356.9 L 1033.6 361.9 L 1037.9 366.9 L 1037.9 366.9 L 1042.4 371.7 L 1047.1 376.4 L 1052.0 381.0 L 1057.0 385.4 L 1062.0 389.8 L 1067.2 394.1 L 1072.4 398.4 L 1077.6 402.7 L 1082.8 407.0 L 1087.9 411.3 L 1093.0 415.6 L 1097.9 420.1 L 1102.7 424.7 L 1107.3 429.4 L 1111.8 434.2 L 1115.9 439.2 L 1115.9 439.2 L 1120.0 444.4 L 1123.9 449.6 L 1127.8 455.0 L 1131.5 460.4 L 1135.2 465.9 L 1138.8 471.5 L 1142.2 477.1 L 1145.6 482.9 L 1148.8 488.7 L 1152.0 494.5 L 1155.0 500.4 L 1157.9 506.3 L 1160.6 512.3 L 1163.3 518.3 L 1165.8 524.4 L 1168.2 530.5 L 1168.2 530.5 L 1170.4 536.7 L 1172.3 542.9 L 1174.0 549.3 L 1175.4 555.7 L 1176.8 562.2 L 1178.0 568.8 L 1179.1 575.4 L 1180.1 582.0 L 1181.1 588.7 L 1182.1 595.3 L 1183.2 602.0 L 1184.3 608.6 L 1185.5 615.2 L 1186.8 621.7 L 1188.4 628.2 L 1190.1 634.6 L 1190.1 634.6 L 1192.0 641.0 L 1193.9 647.3 L 1195.9 653.6 L 1197.9 660.0 L 1200.0 666.3 L 1202.2 672.5 L 1204.4 678.8 L 1206.7 685.1 L 1209.1 691.3 L 1211.5 697.5 L 1213.9 703.6 L 1216.5 709.8 L 1219.0 715.9 L 1221.7 722.0 L 1224.4 728.0 L 1227.2 734.1 L 1227.2 734.1 L 1230.1 740.0 L 1233.2 745.9 L 1236.4 751.7 L 1239.8 757.5 L 1243.3 763.3 L 1246.8 769.0 L 1250.4 774.7 L 1254.0 780.3 L 1257.6 786.0 L 1261.1 791.7 L 1264.6 797.4 L 1268.0 803.1 L 1271.2 808.9 L 1274.2 814.7 L 1277.1 820.6 L 1279.7 826.6 L 1279.7 826.6 L 1282.3 832.8 L 1285.2 839.3 L 1288.3 846.0 L 1291.4 852.9 L 1294.5 860.0 L 1297.6 867.1 L 1300.5 874.2 L 1303.1 881.1 L 1305.5 888.0 L 1307.5 894.6 L 1309.1 900.9 L 1310.1 906.9 L 1310.5 912.4 L 1310.2 917.5 L 1309.2 922.0 L 1307.3 925.9 L 1307.3 925.9 L 1304.4 929.2 L 1300.6 932.2 L 1295.9 934.9 L 1290.4 937.2 L 1284.3 939.1 L 1277.6 940.8 L 1270.5 942.1 L 1263.0 943.0 L 1255.4 943.7 L 1247.7 944.0 L 1239.9 944.0 L 1232.3 943.8 L 1225.0 943.2 L 1218.0 942.3 L 1211.4 941.1 L 1205.5 939.7 L 1205.5 939.7 L 1199.9 937.8 L 1194.3 935.6 L 1188.7 932.8 L 1183.3 929.8 L 1177.9 926.3 L 1172.6 922.6 L 1167.4 918.5 L 1162.3 914.2 L 1157.3 909.7 L 1152.4 905.0 L 1147.7 900.1 L 1143.2 895.2 L 1138.8 890.1 L 1134.6 885.0 L 1130.5 879.9 L 1126.7 874.8 L 1126.7 874.8 L 1123.1 869.5 L 1119.8 864.1 L 1116.8 858.4 L 1114.0 852.5 L 1111.3 846.4 L 1108.9 840.2 L 1106.5 833.9 L 1104.3 827.5 L 1102.1 821.1 L 1100.0 814.6 L 1097.8 808.1 L 1095.6 801.7 L 1093.3 795.2 L 1091.0 788.9 L 1088.5 782.7 L 1085.8 776.5 L 1085.8 776.5 L 1083.0 770.5 L 1080.2 764.5 L 1077.3 758.5 L 1074.3 752.6 L 1071.3 746.6 L 1068.3 740.7 L 1065.3 734.8 L 1062.3 728.8 L 1059.2 722.9 L 1056.2 717.0 L 1053.1 711.1 L 1050.1 705.2 L 1047.1 699.2 L 1044.1 693.3 L 1041.2 687.3 L 1038.3 681.3 L 1038.3 681.3 L 1035.4 675.3 L 1032.6 669.3 L 1029.8 663.3 L 1027.1 657.2 L 1024.3 651.1 L 1021.6 645.1 L 1018.9 639.0 L 1016.2 632.9 L 1013.5 626.8 L 1010.8 620.8 L 1008.0 614.7 L 1005.2 608.7 L 1002.4 602.6 L 999.6 596.6 L 996.7 590.7 L 993.7 584.7 L 993.7 584.7 L 990.8 578.8 L 987.7 572.8 L 984.7 566.9 L 981.7 561.0 L 978.6 555.1 L 975.5 549.2 L 972.4 543.3 L 969.3 537.5 L 966.1 531.6 L 962.9 525.8 L 959.7 520.0 L 956.4 514.2 L 953.1 508.4 L 949.7 502.7 L 946.3 497.0 L 942.9 491.3 L 942.9 491.3 L 939.4 485.7 L 935.8 480.0 L 932.2 474.5 L 928.6 468.9 L 924.9 463.4 L 921.2 457.9 L 917.4 452.4 L 913.6 446.9 L 909.8 441.5 L 906.0 436.0 L 902.1 430.6 L 898.3 425.2 L 894.4 419.7 L 890.6 414.3 L 886.8 408.8 L 882.9 403.4 L 882.9 403.4 L 879.1 398.0 L 875.3 392.5 L 871.4 387.1 L 867.6 381.7 L 863.7 376.3 L 859.8 370.9 L 855.9 365.5 L 852.0 360.1 L 848.1 354.7 L 844.2 349.3 L 840.3 343.9 L 836.5 338.5 L 832.6 333.1 L 828.7 327.7 L 824.9 322.3 L 821.0 316.8 L 821.0 316.8 L 817.2 311.4 L 813.4 306.0 L 809.5 300.5 L 805.7 295.1 L 801.9 289.7 L 798.0 284.2 L 794.2 278.8 L 790.4 273.3 L 786.6 267.9 L 782.8 262.4 L 779.0 256.9 L 775.3 251.5 L 771.5 246.0 L 767.8 240.5 L 764.1 234.9 L 760.4 229.4 L 760.4 229.4 L 756.7 223.9 L 753.0 218.3 L 749.4 212.7 L 745.8 207.2 L 742.2 201.6 L 738.6 196.0 L 735.1 190.3 L 731.5 184.7 L 728.0 179.1 L 724.4 173.5 L 720.9 167.8 L 717.3 162.2 L 713.8 156.6 L 710.2 151.0 L 706.7 145.3 L 703.1 139.7 L 703.1 139.7 L 699.6 134.1 L 696.0 128.5 L 692.5 122.8 L 689.0 117.2 L 685.4 111.6 L 681.9 105.9 L 678.4 100.3 L 674.9 94.6 L 671.3 89.0 L 667.8 83.4 L 664.2 77.7 L 660.7 72.1 L 657.1 66.5 L 653.5 60.9 L 649.9 55.3 L 646.3 49.7 L 646.3 49.7 L 642.6 44.2 L 638.9 38.7 L 635.1 33.2 L 631.2 27.8 L 627.3 22.3 L 623.3 16.9 L 619.4 11.5 L 615.5 6.1 L 611.6 0.6 L 611.2 0.0" fill="none" stroke="#ffd23d" stroke-width="6.0" stroke-opacity="0.9"/><path d="M 1870.5 0.0 L 1871.1 3.1 L 1872.5 9.7 L 1873.7 16.2 L 1875.0 22.7 L 1876.1 29.2 L 1876.1 29.2 L 1877.2 35.8 L 1878.3 42.3 L 1879.4 48.9 L 1880.5 55.5 L 1881.6 62.1 L 1882.6 68.6 L 1883.5 75.2 L 1884.4 81.8 L 1885.3 88.4 L 1886.1 95.0 L 1886.8 101.6 L 1887.5 108.2 L 1888.1 114.8 L 1888.5 121.5 L 1888.9 128.1 L 1889.2 134.7 L 1889.2 134.7 L 1889.4 141.3 L 1889.4 147.9 L 1889.3 154.6 L 1889.1 161.2 L 1888.8 167.8 L 1888.5 174.5 L 1888.0 181.1 L 1887.6 187.7 L 1887.0 194.4 L 1886.5 201.0 L 1885.9 207.7 L 1885.4 214.3 L 1884.8 221.0 L 1884.3 227.6 L 1883.8 234.3 L 1883.4 240.9 L 1883.4 240.9 L 1882.9 247.5 L 1882.4 254.2 L 1881.9 260.8 L 1881.4 267.4 L 1880.8 274.1 L 1880.2 280.7 L 1879.6 287.3 L 1879.1 294.0 L 1878.5 300.6 L 1878.0 307.3 L 1877.5 313.9 L 1877.1 320.5 L 1876.8 327.2 L 1876.5 333.8 L 1876.3 340.4 L 1876.2 347.1 L 1876.2 347.1 L 1876.1 353.7 L 1876.1 360.3 L 1876.0 367.0 L 1876.0 373.7 L 1876.1 380.4 L 1876.1 387.0 L 1876.3 393.7 L 1876.5 400.4 L 1876.7 407.0 L 1877.1 413.7 L 1877.5 420.3 L 1878.1 426.9 L 1878.8 433.5 L 1879.6 440.1 L 1880.5 446.6 L 1881.6 453.1 L 1881.6 453.1 L 1882.9 459.6 L 1884.3 466.0 L 1886.0 472.4 L 1887.9 478.7 L 1889.8 485.1 L 1891.9 491.4 L 1894.1 497.7 L 1896.4 503.9 L 1898.6 510.2 L 1900.9 516.5 L 1903.2 522.8 L 1905.4 529.1 L 1907.5 535.4 L 1909.6 541.7 L 1911.5 548.1 L 1913.3 554.5 L 1913.3 554.5 L 1915.0 560.9 L 1916.6 567.3 L 1918.2 573.7 L 1919.8 580.2 L 1921.3 586.6 L 1922.7 593.1 L 1924.2 599.6 L 1925.6 606.0 L 1927.0 612.5 L 1928.3 619.0 L 1929.7 625.5 L 1931.0 632.0 L 1932.3 638.5 L 1933.6 645.0 L 1934.8 651.5 L 1936.1 658.0 L 1936.1 658.0 L 1937.3 664.5 L 1938.4 671.1 L 1939.4 677.6 L 1940.4 684.2 L 1941.3 690.8 L 1942.3 697.4 L 1943.1 704.0 L 1944.1 710.5 L 1945.0 717.1 L 1945.9 723.7 L 1947.0 730.2 L 1948.1 736.8 L 1949.2 743.3 L 1950.5 749.8 L 1951.9 756.2 L 1953.5 762.6 L 1953.5 762.6 L 1955.3 769.0 L 1957.5 775.4 L 1960.0 781.8 L 1962.7 788.1 L 1965.6 794.5 L 1968.6 800.8 L 1971.6 807.1 L 1974.5 813.4 L 1977.3 819.7 L 1980.0 825.9 L 1982.4 832.1 L 1984.4 838.3 L 1986.1 844.5 L 1987.3 850.7 L 1988.0 856.8 L 1988.0 862.9 L 1988.0 862.9 L 1987.5 869.1 L 1986.6 875.2 L 1985.1 881.4 L 1983.3 887.5 L 1981.1 893.7 L 1978.6 899.8 L 1975.8 906.0 L 1972.8 912.0 L 1969.7 918.1 L 1966.3 924.0 L 1962.9 929.9 L 1959.4 935.7 L 1955.9 941.5 L 1952.4 947.1 L 1948.9 952.6 L 1945.6 957.9 L 1945.6 957.9 L 1942.2 963.3 L 1938.4 968.8 L 1934.4 974.3 L 1930.1 979.8 L 1925.7 985.3 L 1921.2 990.7 L 1916.6 996.0 L 1913.1 1000.0" fill="none" stroke="#ffd23d" stroke-width="6.0" stroke-opacity="0.9"/></g><g id="clips"><circle cx="1829.7" cy="1000.0" r="2" fill="none" stroke="#0b5" stroke-width="0.6"/><circle cx="1586.9" cy="0.0" r="2" fill="none" stroke="#0b5" stroke-width="0.6"/><circle cx="883.3" cy="0.0" r="2" fill="none" stroke="#0b5" stroke-width="0.6"/><circle cx="611.2" cy="0.0" r="2" fill="none" stroke="#0b5" stroke-width="0.6"/><circle cx="1870.5" cy="0.0" r="2" fill="none" stroke="#0b5" stroke-width="0.6"/><circle cx="1913.1" cy="1000.0" r="2" fill="none" stroke="#0b5" stroke-width="0.6"/></g><g id="power"><circle cx="1829.7" cy="1000.0" r="5" fill="none" stroke="#e33" stroke-width="1"/><circle cx="1913.2" cy="1000.0" r="5" fill="none" stroke="#e33" stroke-width="1"/><circle cx="1586.9" cy="0.0" r="5" fill="none" stroke="#e33" stroke-width="1"/><circle cx="883.2" cy="0.0" r="5" fill="none" stroke="#e33" stroke-width="1"/><circle cx="611.1" cy="0.0" r="5" fill="none" stroke="#e33" stroke-width="1"/><circle cx="1870.5" cy="0.0" r="5" fill="none" stroke="#e33" stroke-width="1"/></g></svg>