<svg xmlns="http://www.w3.org/2000/svg" width="1000mm" height="2000mm" viewBox="0 0 1000 2000"><g id="outline"><rect x="0" y="0" width="1000" height="2000" fill="none" stroke="#000" stroke-width="1"/></g><g id="channels"><path d="M 1000.0 159.5 L 998.0 159.3 L 992.1 159.0 L 986.1 158.8 L 980.1 158.5 L 974.2 158.4 L 968.2 158.3 L 962.2 158.3 L 956.3 158.3 L 950.3 158.4 L 950.3 158.4 L 944.4 158.6 L 938.5 158.9 L 932.5 159.3 L 926.5 159.9 L 920.6 160.6 L 914.7 161.3 L 908.7 162.1 L 902.8 162.9 L 896.8 163.8 L 890.8 164.6 L 884.9 165.5 L 878.9 166.3 L 873.0 167.1 L 867.0 167.8 L 861.0 168.5 L 855.1 169.0 L 855.1 169.0 L 849.1 169.5 L 843.1 170.0 L 837.2 170.4 L 831.2 170.8 L 825.2 171.2 L 819.3 171.6 L 813.2 171.9 L 807.3 172.3 L 801.3 172.6 L 795.3 172.9 L 789.4 173.2 L 783.3 173.5 L 777.4 173.8 L 771.4 174.0 L 765.4 174.3 L 759.4 174.5 L 759.4 174.5 L 753.4 174.8 L 747.5 175.0 L 741.5 175.3 L 735.4 175.5 L 729.5 175.6 L 723.5 175.9 L 717.5 176.1 L 711.5 176.2 L 705.5 176.3 L 699.6 176.5 L 693.5 176.6 L 687.6 176.8 L 681.6 177.1 L 675.6 177.2 L 669.6 177.4 L 663.6 177.7 L 663.6 177.7 L 657.7 177.9 L 651.6 178.2 L 645.6 178.5 L 639.7 178.8 L 633.7 179.2 L 627.8 179.6 L 621.7 179.9 L 615.7 180.3 L 609.8 180.7 L 603.8 180.9 L 597.8 181.3 L 591.8 181.5 L 585.8 181.7 L 579.9 181.9 L 573.8 182.0 L 567.9 182.0 L 567.9 182.0 L 561.9 182.1 L 555.9 182.1 L 549.9 182.2 L 543.8 182.2 L 537.9 182.3 L 531.8 182.2 L 525.8 182.2 L 519.7 182.1 L 513.8 181.9 L 507.8 181.7 L 501.8 181.3 L 495.8 180.9 L 489.9 180.4 L 483.9 179.8 L 478.1 179.0 L 472.3 178.1 L 472.3 178.1 L 466.4 177.0 L 460.6 175.8 L 454.8 174.5 L 449.0 173.1 L 443.2 171.7 L 437.4 170.1 L 431.6 168.5 L 425.9 166.7 L 420.2 164.9 L 414.5 163.0 L 408.9 160.9 L 403.2 158.8 L 397.7 156.7 L 392.2 154.4 L 386.8 152.0 L 381.3 149.6 L 381.3 149.6 L 375.9 147.0 L 370.6 144.3 L 365.4 141.5 L 360.2 138.6 L 355.1 135.6 L 350.0 132.4 L 344.9 129.2 L 339.9 125.9 L 334.8 122.5 L 329.8 119.2 L 324.9 115.8 L 319.9 112.5 L 314.9 109.0 L 309.9 105.7 L 304.9 102.4 L 299.9 99.0 L 299.9 99.0 L 294.9 95.8 L 289.9 92.3 L 284.9 88.8 L 279.8 85.3 L 274.9 81.6 L 269.9 77.9 L 265.0 74.3 L 259.9 70.7 L 255.0 67.1 L 250.1 63.7 L 245.1 60.2 L 240.3 56.9 L 235.4 53.7 L 230.5 50.6 L 225.6 47.8 L 220.9 45.1 L 220.9 45.1 L 216.0 42.4 L 210.9 39.6 L 205.8 36.5 L 200.7 33.5 L 195.5 30.4 L 190.3 27.5 L 185.1 24.6 L 180.0 21.9 L 175.1 19.6 L 170.2 17.6 L 165.6 16.0 L 161.1 14.9 L 156.9 14.4 L 153.0 14.5 L 149.4 15.3 L 146.1 16.9 L 146.1 16.9 L 143.1 19.3 L 140.1 22.6 L 137.3 26.7 L 134.6 31.5 L 132.2 36.9 L 129.8 42.8 L 127.7 49.1 L 125.9 55.7 L 124.3 62.5 L 122.9 69.4 L 121.9 76.3 L 121.2 83.2 L 120.8 89.7 L 120.8 96.1 L 121.2 102.0 L 122.0 107.4 L 122.0 107.4 L 123.3 112.6 L 125.0 117.8 L 127.2 122.8 L 129.8 127.8 L 132.7 132.8 L 136.0 137.8 L 139.5 142.6 L 143.4 147.4 L 147.4 152.1 L 151.6 156.7 L 155.9 161.3 L 160.3 165.7 L 164.7 170.0 L 169.2 174.3 L 173.6 178.4 L 177.9 182.4 L 177.9 182.4 L 182.3 186.2 L 186.9 189.8 L 191.7 193.2 L 196.8 196.5 L 201.9 199.6 L 207.1 202.6 L 212.4 205.5 L 217.7 208.4 L 223.0 211.3 L 228.4 214.2 L 233.8 217.1 L 239.0 220.2 L 244.2 223.3 L 249.3 226.5 L 254.1 230.0 L 258.8 233.6 L 258.8 233.6 L 263.4 237.5 L 267.8 241.6 L 272.0 245.9 L 276.1 250.4 L 280.2 254.9 L 284.2 259.6 L 288.1 264.3 L 292.0 269.0 L 296.0 273.7 L 299.9 278.3 L 303.9 282.7 L 308.1 287.0 L 312.3 291.1 L 316.6 295.0 L 321.2 298.5 L 325.8 301.7 L 325.8 301.7 L 330.6 304.7 L 335.6 307.5 L 340.6 310.2 L 345.8 312.8 L 351.1 315.2 L 356.4 317.5 L 361.7 319.7 L 367.1 321.6 L 372.6 323.4 L 378.2 325.0 L 383.7 326.4 L 389.3 327.6 L 394.9 328.6 L 400.5 329.4 L 406.2 329.9 L 411.7 330.2 L 411.7 330.2 L 417.3 330.1 L 423.0 329.7 L 428.7 328.8 L 434.4 327.6 L 440.2 326.2 L 446.0 324.5 L 451.8 322.6 L 457.6 320.6 L 463.5 318.6 L 469.3 316.6 L 475.2 314.7 L 481.1 312.7 L 487.0 311.0 L 492.9 309.5 L 498.7 308.3 L 504.7 307.3 L 504.7 307.3 L 510.6 306.6 L 516.5 306.0 L 522.4 305.5 L 528.4 305.2 L 534.3 304.8 L 540.4 304.7 L 546.4 304.6 L 552.3 304.5 L 558.4 304.5 L 564.4 304.6 L 570.4 304.7 L 576.4 304.7 L 582.4 304.9 L 588.4 305.1 L 594.4 305.3 L 600.4 305.5 L 600.4 305.5 L 606.3 305.7 L 612.3 305.9 L 618.3 306.2 L 624.3 306.4 L 630.3 306.7 L 636.3 307.0 L 642.3 307.4 L 648.3 307.9 L 654.2 308.3 L 660.3 308.9 L 666.2 309.4 L 672.1 310.0 L 678.1 310.7 L 684.0 311.5 L 689.9 312.3 L 695.9 313.1 L 695.9 313.1 L 701.8 314.2 L 707.6 315.2 L 713.4 316.4 L 719.3 317.6 L 725.2 318.9 L 731.0 320.3 L 736.8 321.7 L 742.6 323.1 L 748.5 324.7 L 754.3 326.2 L 760.1 327.7 L 765.9 329.2 L 771.6 330.7 L 777.4 332.3 L 783.2 333.8 L 789.0 335.2 L 789.0 335.2 L 794.8 336.7 L 800.6 338.3 L 806.4 339.9 L 812.1 341.6 L 817.9 343.4 L 823.6 345.1 L 829.4 346.8 L 835.2 348.5 L 840.9 350.2 L 846.7 351.9 L 852.5 353.4 L 858.3 354.9 L 864.0 356.3 L 869.8 357.7 L 875.7 358.9 L 881.6 360.0 L 881.6 360.0 L 887.5 360.9 L 893.4 361.7 L 899.3 362.4 L 905.3 362.9 L 911.3 363.3 L 917.2 363.6 L 923.3 364.0 L 929.2 364.2 L 935.2 364.5 L 941.2 364.7 L 947.2 365.1 L 953.2 365.4 L 959.1 365.8 L 965.1 366.3 L 971.1 367.0 L 976.9 367.7 L 976.9 367.7 L 982.8 368.5 L 988.8 369.3 L 994.8 370.0 L 1000.0 370.7" fill="none" stroke="#ff7a1a" stroke-width="6.0" stroke-opacity="0.9"/><path d="M 1000.0 488.1 L 999.3 488.5 L 993.9 491.4 L 989.0 494.3 L 989.0 494.3 L 984.2 497.4 L 979.3 500.4 L 974.4 503.4 L 969.6 506.6 L 964.7 509.8 L 959.9 513.1 L 955.2 516.5 L 950.6 520.0 L 946.1 523.5 L 941.7 527.2 L 937.5 531.0 L 933.6 534.9 L 929.8 538.9 L 926.4 543.1 L 923.1 547.5 L 920.2 552.0 L 920.2 552.0 L 917.6 556.7 L 915.7 562.0 L 914.2 567.6 L 913.1 573.5 L 912.3 579.5 L 911.7 585.8 L 911.2 592.1 L 910.8 598.4 L 910.3 604.6 L 909.8 610.8 L 909.1 616.6 L 908.0 622.3 L 906.6 627.6 L 904.8 632.4 L 902.4 636.9 L 899.5 640.7 L 899.5 640.7 L 896.1 644.0 L 892.1 647.0 L 887.8 649.6 L 883.1 651.9 L 878.2 653.8 L 873.0 655.6 L 867.6 657.1 L 861.9 658.4 L 856.2 659.6 L 850.4 660.6 L 844.4 661.4 L 838.5 662.2 L 832.6 663.0 L 826.8 663.8 L 821.0 664.5 L 815.5 665.4 L 815.5 665.4 L 810.0 666.1 L 804.4 666.6 L 798.8 667.0 L 793.1 667.1 L 787.4 667.1 L 781.6 667.1 L 775.8 667.0 L 770.1 666.9 L 764.3 666.7 L 758.5 666.5 L 752.6 666.4 L 746.9 666.5 L 741.1 666.7 L 735.4 667.0 L 729.6 667.5 L 723.9 668.1 L 723.9 668.1 L 718.3 669.1 L 712.7 670.5 L 707.1 672.1 L 701.4 673.9 L 695.8 675.9 L 690.2 678.0 L 684.6 680.1 L 679.0 682.2 L 673.5 684.2 L 667.9 686.1 L 662.4 687.8 L 656.9 689.3 L 651.4 690.5 L 646.0 691.4 L 640.5 691.8 L 635.1 691.8 L 635.1 691.8 L 629.8 691.5 L 624.3 690.8 L 618.7 690.0 L 613.1 688.9 L 607.5 687.6 L 601.9 686.1 L 596.3 684.3 L 590.8 682.4 L 585.4 680.3 L 580.1 678.0 L 575.1 675.4 L 570.1 672.7 L 565.4 669.9 L 560.9 666.8 L 556.7 663.6 L 552.7 660.1 L 552.7 660.1 L 548.9 656.4 L 545.0 652.1 L 541.1 647.3 L 537.1 642.2 L 533.3 636.7 L 529.6 631.1 L 526.2 625.3 L 523.0 619.4 L 520.2 613.6 L 517.6 607.9 L 515.6 602.4 L 514.1 597.1 L 513.2 592.3 L 512.8 587.8 L 513.2 584.0 L 514.2 580.6 L 514.2 580.6 L 516.1 577.8 L 518.9 575.6 L 522.5 573.5 L 526.7 571.9 L 531.6 570.7 L 536.9 569.7 L 542.7 568.8 L 548.8 568.3 L 555.1 567.7 L 561.6 567.3 L 568.3 567.0 L 574.8 566.7 L 581.4 566.3 L 587.7 565.9 L 593.8 565.3 L 599.5 564.6 L 599.5 564.6 L 605.1 564.0 L 610.7 563.4 L 616.3 562.9 L 622.0 562.5 L 627.8 562.0 L 633.6 561.7 L 639.3 561.4 L 645.1 561.1 L 650.9 560.7 L 656.7 560.4 L 662.4 559.9 L 668.2 559.3 L 674.0 558.6 L 679.7 557.8 L 685.3 556.9 L 690.8 555.7 L 690.8 555.7 L 696.5 554.6 L 702.0 553.2 L 707.6 551.9 L 713.2 550.4 L 718.7 548.8 L 724.3 547.3 L 729.8 545.6 L 735.4 543.8 L 740.8 541.9 L 746.2 539.9 L 751.6 537.8 L 756.9 535.7 L 762.2 533.4 L 767.3 531.0 L 772.4 528.4 L 777.4 525.8 L 777.4 525.8 L 782.2 523.0 L 787.1 520.0 L 791.9 517.0 L 796.6 513.7 L 801.3 510.5 L 805.8 507.0 L 810.4 503.5 L 814.9 499.8 L 819.4 496.1 L 823.7 492.3 L 828.1 488.5 L 832.4 484.7 L 836.7 480.7 L 840.9 476.9 L 845.1 472.9 L 849.2 469.0 L 849.2 469.0 L 853.4 464.8 L 857.7 460.4 L 862.1 455.8 L 866.6 450.9 L 871.0 445.9 L 875.4 440.9 L 879.8 435.9 L 884.0 430.8 L 888.1 426.0 L 892.0 421.3 L 895.7 416.7 L 899.2 412.5 L 902.4 408.7 L 905.2 405.2 L 907.7 402.3 L 909.8 399.8" fill="none" stroke="#ff7a1a" stroke-width="6.0" stroke-opacity="0.9"/><path d="M 233.5 1822.0 L 236.6 1821.3 L 240.4 1820.4 L 244.8 1819.5 L 249.8 1818.6 L 255.3 1817.6 L 261.1 1816.5 L 267.1 1815.3 L 273.4 1813.9 L 279.8 1812.4 L 286.2 1810.8 L 292.5 1809.0 L 298.6 1807.0 L 304.5 1804.7 L 310.0 1802.3 L 315.1 1799.5 L 319.7 1796.6 L 319.7 1796.6 L 324.0 1793.3 L 328.3 1789.7 L 332.5 1785.7 L 336.6 1781.6 L 340.6 1777.2 L 344.5 1772.6 L 348.3 1767.9 L 351.9 1763.0 L 355.3 1757.9 L 358.4 1752.9 L 361.3 1747.7 L 363.8 1742.5 L 366.1 1737.3 L 367.9 1732.1 L 369.4 1727.0 L 370.4 1722.0 L 370.4 1722.0 L 371.2 1716.8 L 371.5 1711.5 L 371.5 1705.9 L 371.2 1700.3 L 370.6 1694.5 L 369.7 1688.7 L 368.6 1682.8 L 367.1 1677.0 L 365.4 1671.3 L 363.4 1665.7 L 361.3 1660.2 L 358.9 1654.9 L 356.2 1649.9 L 353.5 1645.2 L 350.4 1640.7 L 347.2 1636.6 L 347.2 1636.6 L 343.7 1632.8 L 339.8 1629.2 L 335.6 1625.8 L 331.0 1622.5 L 326.2 1619.4 L 321.1 1616.5 L 315.8 1613.8 L 310.4 1611.3 L 304.7 1608.9 L 299.1 1606.7 L 293.3 1604.7 L 287.6 1602.9 L 281.8 1601.3 L 276.2 1599.9 L 270.5 1598.7 L 265.1 1597.6 L 265.1 1597.6 L 259.7 1596.8 L 254.2 1596.3 L 248.6 1596.0 L 242.9 1595.8 L 237.2 1595.9 L 231.5 1596.2 L 225.8 1596.6 L 220.0 1597.3 L 214.3 1598.1 L 208.5 1599.0 L 202.8 1600.1 L 197.0 1601.3 L 191.4 1602.5 L 185.9 1603.9 L 180.3 1605.4 L 175.0 1606.9 L 175.0 1606.9 L 169.6 1608.7 L 164.2 1611.2 L 158.8 1613.9 L 153.5 1617.1 L 148.2 1620.6 L 142.9 1624.2 L 137.7 1627.9 L 132.5 1631.5 L 127.4 1634.9 L 122.3 1638.2 L 117.2 1641.2 L 112.3 1643.7 L 107.4 1645.7 L 102.6 1647.0 L 97.9 1647.8 L 93.3 1647.6 L 93.3 1647.6 L 88.8 1646.7 L 84.3 1645.2 L 79.9 1643.1 L 75.6 1640.4 L 71.4 1637.3 L 67.2 1633.7 L 63.1 1629.8 L 59.0 1625.7 L 55.1 1621.2 L 51.1 1616.7 L 47.3 1612.0 L 43.4 1607.3 L 39.6 1602.6 L 35.9 1598.0 L 32.2 1593.4 L 28.5 1589.2 L 28.5 1589.2 L 24.9 1584.9 L 21.6 1580.4 L 18.3 1575.7 L 15.2 1570.8 L 12.2 1566.0 L 9.1 1560.9 L 6.2 1555.9 L 3.3 1550.9 L 0.3 1545.8 L 0.0 1545.3" fill="none" stroke="#a05bff" stroke-width="6.0" stroke-opacity="0.9"/><path d="M 0.0 1994.1 L 1.4 1993.0 L 5.6 1989.8 L 9.7 1986.3 L 13.8 1982.9 L 17.7 1979.3 L 21.5 1975.6 L 25.2 1971.9 L 28.7 1968.1 L 28.7 1968.1 L 32.2 1964.1 L 35.4 1960.0 L 38.6 1955.8 L 41.7 1951.5 L 44.8 1947.3 L 47.7 1942.8 L 50.5 1938.3 L 53.3 1933.7 L 55.9 1929.1 L 58.5 1924.5 L 61.0 1919.8 L 63.4 1915.0 L 65.8 1910.3 L 68.0 1905.4 L 70.1 1900.6 L 72.2 1895.8 L 72.2 1895.8 L 74.1 1890.8 L 75.6 1885.6 L 76.8 1880.1 L 77.9 1874.5 L 78.8 1868.8 L 79.5 1863.0 L 80.3 1857.2 L 81.0 1851.4 L 81.8 1845.8 L 82.7 1840.3 L 83.8 1835.0 L 85.2 1830.0 L 86.8 1825.3 L 88.8 1821.0 L 91.1 1817.1 L 94.0 1813.6 L 94.0 1813.6 L 97.4 1810.7 L 101.5 1808.1 L 106.1 1805.8 L 111.2 1803.9 L 116.6 1802.3 L 122.2 1800.8 L 128.1 1799.7 L 133.9 1798.7 L 139.8 1797.9 L 145.4 1797.2 L 150.8 1796.6 L 156.0 1796.1 L 160.7 1795.6 L 164.8 1795.2 L 168.3 1794.7 L 171.2 1794.1 L 233.5 1822.0" fill="none" stroke="#a05bff" stroke-width="6.0" stroke-opacity="0.9"/></g><g id="clips"><circle cx="1000.0" cy="159.5" r="2" fill="none" stroke="#0b5" stroke-width="0.6"/><circle cx="800.8" cy="172.6" r="2" fill="none" stroke="#0b5" stroke-width="0.6"/><circle cx="601.0" cy="181.1" r="2" fill="none" stroke="#0b5" stroke-width="0.6"/><circle cx="403.9" cy="159.1" r="2" fill="none" stroke="#0b5" stroke-width="0.6"/><circle cx="234.8" cy="53.3" r="2" fill="none" stroke="#0b5" stroke-width="0.6"/><circle cx="123.0" cy="111.6" r="2" fill="none" stroke="#0b5" stroke-width="0.6"/><circle cx="268.7" cy="242.5" r="2" fill="none" stroke="#0b5" stroke-width="0.6"/><circle cx="437.4" cy="326.9" r="2" fill="none" stroke="#0b5" stroke-width="0.6"/><circle cx="634.3" cy="306.9" r="2" fill="none" stroke="#0b5" stroke-width="0.6"/><circle cx="829.7" cy="346.9" r="2" fill="none" stroke="#0b5" stroke-width="0.6"/><circle cx="1000.0" cy="370.7" r="2" fill="none" stroke="#0b5" stroke-width="0.6"/><circle cx="1000.0" cy="488.1" r="2" fill="none" stroke="#0b5" stroke-width="0.6"/><circle cx="896.4" cy="643.7" r="2" fill="none" stroke="#0b5" stroke-width="0.6"/><circle cx="701.2" cy="674.0" r="2" fill="none" stroke="#0b5" stroke-width="0.6"/><circle cx="527.6" cy="627.6" r="2" fill="none" stroke="#0b5" stroke-width="0.6"/><circle cx="660.2" cy="560.1" r="2" fill="none" stroke="#0b5" stroke-width="0.6"/><circle cx="838.5" cy="479.1" r="2" fill="none" stroke="#0b5" stroke-width="0.6"/><circle cx="909.8" cy="399.8" r="2" fill="none" stroke="#0b5" stroke-width="0.6"/><circle cx="233.5" cy="1822.0" r="2" fill="none" stroke="#0b5" stroke-width="0.6"/><circle cx="371.4" cy="1704.6" r="2" fill="none" stroke="#0b5" stroke-width="0.6"/><circle cx="231.0" cy="1596.2" r="2" fill="none" stroke="#0b5" stroke-width="0.6"/><circle cx="53.2" cy="1619.1" r="2" fill="none" stroke="#0b5" stroke-width="0.6"/><circle cx="0.0" cy="1545.3" r="2" fill="none" stroke="#0b5" stroke-width="0.6"/><circle cx="0.0" cy="1994.1" r="2" fill="none" stroke="#0b5" stroke-width="0.6"/><circle cx="88.6" cy="1821.4" r="2" fill="none" stroke="#0b5" stroke-width="0.6"/><circle cx="233.5" cy="1822.0" r="2" fill="none" stroke="#0b5" stroke-width="0.6"/></g><g id="power"><circle cx="0.0" cy="1994.1" r="5" fill="none" stroke="#e33" stroke-width="1"/><circle cx="0.0" cy="1545.3" r="5" fill="none" stroke="#e33" stroke-width="1"/><circle cx="1000.0" cy="488.1" r="5" fill="none" stroke="#e33" stroke-width="1"/><circle cx="1000.0" cy="370.7" r="5" fill="none" stroke="#e33" stroke-width="1"/><circle cx="1000.0" cy="159.5" r="5" fill="none" stroke="#e33" stroke-width="1"/></g><g id="bridges"><circle cx="233.5" cy="1822.0" r="9" fill="none" stroke="#e6a817" stroke-width="1.5"/></g></svg>