<svg xmlns="http://www.w3.org/2000/svg" width="1000mm" height="2000mm" viewBox="0 0 1000 2000"><g id="outline"><rect x="0" y="0" width="1000" height="2000" fill="none" stroke="#000" stroke-width="1"/></g><g id="channels"><path d="M 0.0 583.6 L 3.4 582.6 L 8.9 581.6 L 14.4 580.6 L 20.1 579.8 L 25.8 579.3 L 31.6 578.8 L 37.3 578.5 L 43.1 578.4 L 48.6 578.3 L 54.2 578.4 L 59.6 578.5 L 59.6 578.5 L 64.9 578.8 L 70.3 579.3 L 75.6 580.1 L 80.9 581.1 L 86.2 582.2 L 91.6 583.5 L 97.0 585.0 L 102.3 586.5 L 107.6 588.1 L 112.9 589.8 L 118.3 591.5 L 123.6 593.2 L 128.9 595.0 L 134.3 596.7 L 139.5 598.3 L 144.8 599.8 L 144.8 599.8 L 150.1 601.4 L 155.4 603.0 L 160.6 604.7 L 165.9 606.5 L 171.0 608.2 L 176.3 610.0 L 181.5 611.8 L 186.7 613.6 L 191.9 615.5 L 197.2 617.2 L 202.4 618.9 L 207.6 620.6 L 212.9 622.2 L 218.1 623.7 L 223.4 625.2 L 228.8 626.4 L 228.8 626.4 L 234.2 627.7 L 239.5 628.9 L 244.9 630.2 L 250.3 631.4 L 255.8 632.6 L 261.2 633.7 L 266.7 634.7 L 272.2 635.7 L 277.7 636.6 L 283.2 637.5 L 288.6 638.1 L 294.1 638.7 L 299.5 639.1 L 305.0 639.4 L 310.4 639.5 L 315.8 639.4 L 315.8 639.4 L 321.2 639.2 L 326.5 638.8 L 332.0 638.2 L 337.4 637.6 L 342.8 636.8 L 348.2 635.9 L 353.6 635.0 L 359.0 633.8 L 364.3 632.6 L 369.7 631.2 L 375.0 629.7 L 380.2 628.2 L 385.5 626.4 L 390.6 624.7 L 395.7 622.8 L 400.8 621.0 L 400.8 621.0 L 405.8 618.7 L 410.8 616.2 L 415.8 613.3 L 420.9 610.1 L 425.9 606.8 L 430.8 603.4 L 435.8 599.8 L 440.7 596.3 L 445.5 592.9 L 450.2 589.5 L 454.8 586.4 L 459.4 583.5 L 463.9 581.0 L 468.2 579.0 L 472.4 577.3 L 476.6 576.2 L 476.6 576.2 L 480.5 575.6 L 484.2 575.5 L 487.6 575.9 L 491.0 576.7 L 494.1 577.8 L 497.1 579.2 L 500.2 580.7 L 503.1 582.4 L 506.1 584.2 L 509.2 586.0 L 512.2 587.8 L 515.5 589.5 L 518.8 591.0 L 522.3 592.2 L 526.0 593.3 L 530.0 593.9 L 530.0 593.9 L 534.4 594.2 L 539.3 594.2 L 544.7 594.0 L 550.4 593.6 L 556.4 592.9 L 562.5 592.3 L 568.5 591.6 L 574.6 590.9 L 580.4 590.3 L 586.0 589.7 L 591.1 589.2 L 595.8 589.0 L 599.9 589.0 L 603.4 589.3 L 606.0 589.9 L 607.8 590.9 L 607.8 590.9 L 608.3 592.4 L 607.8 594.3 L 606.1 596.7 L 603.6 599.4 L 600.4 602.3 L 596.7 605.5 L 592.7 608.8 L 588.5 612.2 L 584.3 615.5 L 580.4 618.8 L 576.7 621.9 L 573.7 624.8 L 571.4 627.4 L 569.9 629.7 L 569.5 631.5 L 570.4 632.9 L 570.4 632.9 L 572.7 633.6 L 576.3 634.0 L 581.0 633.9 L 586.7 633.4 L 593.1 632.8 L 600.1 631.8 L 607.3 630.8 L 614.8 629.5 L 622.2 628.3 L 629.5 627.2 L 636.4 626.2 L 642.6 625.4 L 648.1 624.8 L 652.7 624.5 L 656.1 624.5 L 658.1 625.1 L 658.1 625.1 L 658.8 626.0 L 658.5 627.3 L 657.2 628.9 L 655.0 630.7 L 652.2 632.7 L 648.8 634.9 L 644.9 637.3 L 640.8 639.7 L 636.5 642.2 L 632.2 644.7 L 627.9 647.2 L 623.9 649.6 L 620.2 651.9 L 617.0 654.1 L 614.4 656.1 L 612.7 657.8 L 612.7 657.8 L 611.5 659.5 L 610.6 660.9 L 610.0 662.3 L 609.7 663.6 L 609.6 664.8 L 609.6 666.0 L 609.9 667.1 L 610.3 668.3 L 610.8 669.3 L 611.4 670.4 L 611.9 671.6 L 612.6 672.8 L 613.1 673.9 L 613.6 675.2 L 613.9 676.5 L 614.1 677.9 L 614.1 677.9 L 614.4 679.4 L 615.1 680.9 L 615.9 682.5 L 617.0 684.2 L 618.1 685.9 L 619.3 687.6 L 620.4 689.3 L 621.4 691.1 L 622.2 692.9 L 622.8 694.6 L 623.1 696.3 L 623.1 698.0 L 622.6 699.8 L 621.6 701.4 L 620.0 703.0 L 617.8 704.6 L 617.8 704.6 L 614.8 706.1 L 611.0 707.4 L 606.5 708.7 L 601.3 709.9 L 595.7 711.0 L 589.8 712.2 L 583.5 713.3 L 577.1 714.5 L 570.5 715.7 L 564.1 717.0 L 557.8 718.4 L 551.9 719.9 L 546.2 721.5 L 541.1 723.3 L 536.6 725.3 L 532.7 727.4 L 532.7 727.4 L 529.7 730.0 L 527.2 732.9 L 525.3 736.2 L 523.9 739.8 L 522.8 743.5 L 521.9 747.4 L 521.2 751.4 L 520.6 755.3 L 520.0 759.2 L 519.4 762.9 L 518.5 766.4 L 517.4 769.7 L 515.9 772.5 L 514.0 775.0 L 511.5 777.1 L 508.5 778.5 L 508.5 778.5 L 504.8 779.4 L 500.6 779.9 L 496.1 780.0 L 491.2 779.8 L 486.0 779.3 L 480.6 778.5 L 475.0 777.4 L 469.1 776.2 L 463.2 774.9 L 457.2 773.4 L 451.3 771.8 L 445.3 770.2 L 439.3 768.5 L 433.5 767.0 L 428.0 765.5 L 422.5 764.0 L 422.5 764.0 L 417.3 762.6 L 412.0 761.0 L 406.8 759.2 L 401.6 757.4 L 396.5 755.4 L 391.3 753.3 L 386.2 751.2 L 381.0 749.1 L 375.8 747.1 L 370.7 745.0 L 365.5 743.1 L 360.4 741.3 L 355.1 739.5 L 349.9 738.0 L 344.6 736.7 L 339.3 735.6 L 339.3 735.6 L 333.9 734.7 L 328.5 734.0 L 323.1 733.3 L 317.7 732.9 L 312.2 732.5 L 306.7 732.4 L 301.2 732.2 L 295.7 732.2 L 290.2 732.2 L 284.7 732.1 L 279.1 732.3 L 273.5 732.4 L 268.1 732.5 L 262.5 732.6 L 257.0 732.7 L 251.5 732.8 L 251.5 732.8 L 246.0 732.8 L 240.5 732.9 L 235.0 733.1 L 229.6 733.4 L 224.0 733.6 L 218.5 733.9 L 213.0 734.3 L 207.6 734.6 L 202.0 734.9 L 196.6 735.3 L 191.0 735.6 L 185.6 735.9 L 180.0 736.1 L 174.5 736.4 L 169.0 736.5 L 163.5 736.6 L 163.5 736.6 L 157.9 736.7 L 151.9 736.6 L 145.8 736.6 L 139.4 736.5 L 133.1 736.4 L 126.6 736.3 L 120.2 736.1 L 113.9 735.9 L 107.8 735.7 L 102.0 735.6 L 96.5 735.4 L 91.2 735.2 L 86.5 735.1 L 82.2 734.9 L 78.5 734.8 L 75.5 734.7 L 37.6 743.4 L 37.9 746.6 L 38.3 750.4 L 38.6 754.9 L 39.1 759.8 L 39.6 765.2 L 40.1 770.9 L 40.7 777.0 L 41.3 783.4 L 41.9 789.9 L 42.6 796.5 L 43.3 803.1 L 44.0 809.8 L 44.8 816.3 L 45.6 822.6 L 46.4 828.8 L 47.3 834.6 L 47.3 834.6 L 48.2 840.3 L 49.3 845.9 L 50.4 851.5 L 51.5 857.2 L 52.8 862.8 L 54.0 868.4 L 55.3 874.0 L 56.7 879.6 L 57.9 885.2 L 59.2 890.8 L 60.4 896.4 L 61.7 902.0 L 62.9 907.7 L 64.0 913.3 L 65.0 918.9 L 65.9 924.6 L 65.9 924.6 L 66.8 930.2 L 67.6 936.0 L 68.4 941.6 L 69.2 947.3 L 69.9 953.0 L 70.5 958.7 L 71.2 964.4 L 71.8 970.2 L 72.4 975.8 L 72.9 981.5 L 73.5 987.3 L 73.9 993.0 L 74.3 998.7 L 74.7 1004.4 L 75.0 1010.2 L 75.4 1015.9 L 75.4 1015.9 L 75.6 1021.6 L 75.9 1027.3 L 76.1 1033.1 L 76.3 1038.9 L 76.5 1044.6 L 76.6 1050.4 L 76.7 1056.1 L 76.8 1061.9 L 76.8 1067.6 L 76.7 1073.4 L 76.6 1079.1 L 76.4 1084.9 L 76.1 1090.6 L 75.7 1096.3 L 75.3 1102.0 L 74.8 1107.7 L 74.8 1107.7 L 74.1 1113.3 L 73.4 1119.0 L 72.5 1124.6 L 71.6 1130.3 L 70.6 1135.9 L 69.5 1141.6 L 68.3 1147.2 L 67.1 1152.8 L 65.9 1158.4 L 64.6 1164.0 L 63.2 1169.5 L 61.9 1175.2 L 60.5 1180.7 L 59.2 1186.3 L 57.7 1191.9 L 56.4 1197.5 L 56.4 1197.5 L 54.8 1203.0 L 53.1 1208.6 L 51.1 1214.1 L 49.1 1219.8 L 46.9 1225.4 L 44.6 1231.0 L 42.4 1236.5 L 40.2 1242.2 L 38.2 1247.7 L 36.2 1253.2 L 34.5 1258.6 L 33.0 1264.1 L 31.9 1269.5 L 31.1 1274.9 L 30.7 1280.2 L 30.7 1285.5 L 30.7 1285.5 L 31.2 1290.7 L 31.9 1296.2 L 32.8 1301.7 L 34.0 1307.3 L 35.4 1312.9 L 37.1 1318.5 L 39.0 1324.0 L 41.1 1329.5 L 43.5 1334.8 L 46.1 1339.8 L 48.9 1344.8 L 51.9 1349.4 L 55.0 1353.7 L 58.5 1357.6 L 62.1 1361.2 L 65.9 1364.4 L 65.9 1364.4 L 70.0 1367.1 L 74.5 1369.4 L 79.3 1371.2 L 84.4 1372.7 L 89.9 1373.8 L 95.4 1374.8 L 101.3 1375.5 L 107.2 1376.0 L 113.3 1376.5 L 119.4 1376.7 L 125.6 1377.0 L 131.7 1377.3 L 137.8 1377.6 L 143.8 1378.0 L 149.7 1378.5 L 155.5 1379.3 L 155.5 1379.3 L 161.1 1380.0 L 166.8 1380.7 L 172.6 1381.2 L 178.3 1381.7 L 184.1 1382.1 L 189.9 1382.5 L 195.8 1382.8 L 201.5 1383.3 L 207.3 1383.8 L 213.0 1384.4 L 218.7 1385.0 L 224.3 1385.9 L 229.9 1386.9 L 235.4 1388.2 L 240.8 1389.7 L 246.0 1391.5 L 246.0 1391.5 L 251.3 1393.4 L 256.6 1395.5 L 262.0 1397.7 L 267.2 1400.1 L 272.5 1402.7 L 277.7 1405.4 L 282.9 1408.2 L 288.0 1411.1 L 293.0 1414.2 L 297.8 1417.4 L 302.5 1420.8 L 307.1 1424.3 L 311.4 1428.0 L 315.5 1431.7 L 319.4 1435.6 L 323.0 1439.7 L 323.0 1439.7 L 326.5 1443.9 L 329.9 1448.4 L 333.1 1453.0 L 336.1 1457.9 L 339.0 1462.8 L 341.7 1467.9 L 344.3 1473.2 L 346.6 1478.5 L 348.9 1484.0 L 350.9 1489.5 L 352.8 1495.0 L 354.4 1500.5 L 355.8 1506.1 L 357.0 1511.6 L 358.0 1517.1 L 358.9 1522.5 L 358.9 1522.5 L 359.4 1528.0 L 359.9 1533.6 L 360.0 1539.3 L 360.0 1545.0 L 359.8 1550.9 L 359.4 1556.8 L 358.8 1562.6 L 358.0 1568.5 L 357.0 1574.2 L 355.9 1580.0 L 354.5 1585.7 L 352.9 1591.3 L 351.2 1596.7 L 349.2 1602.1 L 347.2 1607.2 L 344.8 1612.1 L 344.8 1612.1 L 342.3 1616.9 L 339.5 1621.7 L 336.4 1626.4 L 333.1 1631.1 L 329.6 1635.6 L 325.9 1640.1 L 322.0 1644.4 L 318.0 1648.7 L 313.8 1652.8 L 309.5 1656.8 L 305.0 1660.6 L 300.5 1664.3 L 295.9 1667.9 L 291.3 1671.3 L 286.7 1674.5 L 282.0 1677.5 L 282.0 1677.5 L 277.2 1680.3 L 272.3 1682.9 L 267.3 1685.4 L 262.1 1687.8 L 256.9 1689.9 L 251.5 1691.9 L 246.0 1693.8 L 240.6 1695.5 L 234.9 1697.1 L 229.3 1698.6 L 223.6 1700.0 L 218.0 1701.3 L 212.3 1702.4 L 206.7 1703.4 L 201.0 1704.2 L 195.4 1705.1 L 195.4 1705.1 L 189.9 1705.7 L 184.2 1706.3 L 178.5 1706.6 L 172.7 1706.8 L 167.0 1706.9 L 161.2 1706.8 L 155.4 1706.7 L 149.6 1706.4 L 143.8 1706.0 L 138.0 1705.6 L 132.2 1705.1 L 126.4 1704.5 L 120.6 1703.8 L 115.0 1703.1 L 109.3 1702.3 L 103.7 1701.5 L 103.7 1701.5 L 98.0 1700.8 L 92.4 1699.9 L 86.6 1699.2 L 80.9 1698.4 L 75.1 1697.6 L 69.3 1696.7 L 63.6 1695.7 L 57.9 1694.6 L 52.3 1693.3 L 46.8 1692.0 L 41.4 1690.4 L 36.1 1688.6 L 30.9 1686.6 L 26.0 1684.5 L 21.2 1681.9 L 16.6 1679.1 L 16.6 1679.1 L 12.2 1676.0 L 7.9 1672.7 L 3.8 1669.0 L 0.0 1665.2" fill="none" stroke="#39ff88" stroke-width="6.0" stroke-opacity="0.9"/></g><g id="clips"><circle cx="0.0" cy="583.6" r="2" fill="none" stroke="#0b5" stroke-width="0.6"/><circle cx="194.0" cy="616.2" r="2" fill="none" stroke="#0b5" stroke-width="0.6"/><circle cx="389.6" cy="625.0" r="2" fill="none" stroke="#0b5" stroke-width="0.6"/><circle cx="572.0" cy="591.2" r="2" fill="none" stroke="#0b5" stroke-width="0.6"/><circle cx="647.8" cy="635.5" r="2" fill="none" stroke="#0b5" stroke-width="0.6"/><circle cx="523.5" cy="741.2" r="2" fill="none" stroke="#0b5" stroke-width="0.6"/><circle cx="356.9" cy="740.1" r="2" fill="none" stroke="#0b5" stroke-width="0.6"/><circle cx="157.8" cy="736.7" r="2" fill="none" stroke="#0b5" stroke-width="0.6"/><circle cx="45.5" cy="821.8" r="2" fill="none" stroke="#0b5" stroke-width="0.6"/><circle cx="75.5" cy="1019.2" r="2" fill="none" stroke="#0b5" stroke-width="0.6"/><circle cx="50.4" cy="1216.2" r="2" fill="none" stroke="#0b5" stroke-width="0.6"/><circle cx="102.5" cy="1375.6" r="2" fill="none" stroke="#0b5" stroke-width="0.6"/><circle cx="295.4" cy="1415.8" r="2" fill="none" stroke="#0b5" stroke-width="0.6"/><circle cx="352.2" cy="1593.6" r="2" fill="none" stroke="#0b5" stroke-width="0.6"/><circle cx="198.5" cy="1704.6" r="2" fill="none" stroke="#0b5" stroke-width="0.6"/><circle cx="5.5" cy="1670.5" r="2" fill="none" stroke="#0b5" stroke-width="0.6"/></g><g id="power"><circle cx="0.0" cy="1665.2" r="5" fill="none" stroke="#e33" stroke-width="1"/><circle cx="0.0" cy="583.6" r="5" fill="none" stroke="#e33" stroke-width="1"/></g><g id="bridges"><circle cx="613.8" cy="641.4" r="9" fill="none" stroke="#e6a817" stroke-width="1.5"/><circle cx="615.5" cy="666.0" r="9" fill="none" stroke="#e6a817" stroke-width="1.5"/></g></svg>