<svg xmlns="http://www.w3.org/2000/svg" width="1500mm" height="1000mm" viewBox="0 0 1500 1000"><g id="outline"><rect x="0" y="0" width="1500" height="1000" fill="none" stroke="#000" stroke-width="1"/></g><g id="channels"><path d="M 1500.0 772.1 L 1495.6 772.9 L 1488.6 774.2 L 1481.6 775.5 L 1474.7 776.9 L 1467.8 778.5 L 1461.0 780.2 L 1454.2 782.0 L 1447.6 784.1 L 1441.1 786.3 L 1434.7 788.8 L 1428.5 791.6 L 1422.4 794.6 L 1422.4 794.6 L 1416.5 798.0 L 1410.7 801.6 L 1405.1 805.5 L 1399.5 809.6 L 1394.1 813.9 L 1388.7 818.4 L 1383.5 823.1 L 1378.3 827.9 L 1373.2 832.8 L 1368.2 837.9 L 1363.3 843.0 L 1358.4 848.1 L 1353.5 853.3 L 1348.7 858.5 L 1344.0 863.7 L 1339.2 868.8 L 1339.2 868.8 L 1334.6 874.0 L 1330.0 879.3 L 1325.5 884.6 L 1321.1 890.1 L 1316.8 895.6 L 1312.6 901.2 L 1308.3 906.8 L 1304.2 912.5 L 1300.1 918.2 L 1296.0 923.9 L 1291.9 929.7 L 1287.8 935.4 L 1283.8 941.2 L 1279.7 946.9 L 1275.6 952.7 L 1271.5 958.3 L 1271.5 958.3 L 1267.4 964.0 L 1263.3 969.7 L 1259.3 975.5 L 1255.2 981.2 L 1251.2 986.9 L 1247.2 992.7 L 1243.2 998.4 L 1242.1 1000.0" fill="none" stroke="#2b6bff" stroke-width="6.0" stroke-opacity="0.9"/><path d="M 380.0 1000.0 L 380.5 999.1 L 383.6 992.7 L 386.7 986.3 L 389.8 979.8 L 392.9 973.4 L 396.0 966.9 L 399.1 960.4 L 402.2 954.0 L 405.2 947.5 L 408.3 941.1 L 411.5 934.6 L 414.6 928.2 L 414.6 928.2 L 417.8 921.8 L 421.0 915.4 L 424.2 909.0 L 427.4 902.6 L 430.6 896.2 L 433.9 889.8 L 437.1 883.4 L 440.3 877.0 L 443.5 870.6 L 446.7 864.2 L 449.9 857.8 L 453.0 851.4 L 456.1 844.9 L 459.1 838.5 L 462.1 832.0 L 465.1 825.4 L 465.1 825.4 L 468.0 818.9 L 470.9 812.4 L 473.9 805.9 L 476.9 799.3 L 479.8 792.8 L 482.7 786.2 L 485.6 779.6 L 488.4 773.0 L 491.2 766.4 L 493.9 759.8 L 496.5 753.1 L 498.9 746.4 L 501.3 739.7 L 503.5 732.9 L 505.6 726.2 L 507.5 719.3 L 507.5 719.3 L 509.3 712.5 L 511.1 705.5 L 512.7 698.6 L 514.2 691.6 L 515.7 684.5 L 517.0 677.5 L 518.3 670.4 L 519.4 663.2 L 520.4 656.1 L 521.3 649.0 L 522.1 641.9 L 522.7 634.7 L 523.3 627.6 L 523.6 620.5 L 523.9 613.4 L 523.9 606.3 L 523.9 606.3 L 523.7 599.1 L 523.0 591.7 L 522.0 584.1 L 520.6 576.3 L 519.1 568.5 L 517.3 560.7 L 515.5 552.9 L 513.7 545.2 L 512.0 537.6 L 510.4 530.3 L 509.0 523.2 L 507.9 516.4 L 507.1 510.0 L 506.8 504.0 L 507.0 498.5 L 507.7 493.5 L 507.7 493.5 L 509.0 488.8 L 510.8 484.2 L 512.9 479.8 L 515.4 475.6 L 518.3 471.5 L 521.4 467.8 L 524.7 464.4 L 528.3 461.3 L 531.9 458.7 L 535.7 456.6 L 539.5 454.9 L 543.3 453.8 L 547.0 453.3 L 550.7 453.4 L 554.2 454.3 L 557.6 455.8 L 557.6 455.8 L 560.9 458.5 L 564.5 462.5 L 568.2 467.5 L 572.0 473.6 L 575.9 480.4 L 579.9 487.7 L 583.8 495.6 L 587.6 503.6 L 591.4 511.8 L 595.0 519.8 L 598.4 527.5 L 601.7 534.9 L 604.6 541.5 L 607.2 547.4 L 609.5 552.3 L 611.4 556.1" fill="none" stroke="#2b6bff" stroke-width="6.0" stroke-opacity="0.9"/><path d="M 622.1 485.8 L 623.2 482.6 L 624.4 478.4 L 625.9 473.5 L 627.5 467.9 L 629.2 461.9 L 631.1 455.4 L 633.1 448.7 L 635.2 441.9 L 637.3 435.0 L 639.6 428.2 L 641.8 421.6 L 644.1 415.4 L 646.4 409.7 L 648.8 404.5 L 651.1 400.1 L 653.3 396.5 L 653.3 396.5 L 655.7 393.4 L 658.2 390.6 L 661.0 388.0 L 663.8 385.7 L 666.8 383.6 L 669.8 381.9 L 672.8 380.4 L 675.8 379.3 L 678.7 378.6 L 681.5 378.2 L 684.1 378.3 L 686.5 378.7 L 688.7 379.6 L 690.7 380.9 L 692.3 382.7 L 693.5 385.0 L 693.5 385.0 L 694.3 388.3 L 694.6 392.8 L 694.4 398.4 L 693.8 404.9 L 693.0 412.1 L 691.9 419.7 L 690.8 427.6 L 689.5 435.6 L 688.3 443.5 L 687.2 451.0 L 686.3 458.0 L 685.7 464.3 L 685.4 469.7 L 685.5 474.0 L 686.1 476.9 L 687.3 478.4 L 687.3 478.4 L 689.1 478.2 L 691.4 476.5 L 694.2 473.5 L 697.3 469.4 L 700.8 464.4 L 704.6 458.7 L 708.5 452.4 L 712.6 445.9 L 716.7 439.1 L 720.9 432.5 L 724.9 426.1 L 728.8 420.1 L 732.5 414.7 L 736.0 410.2 L 739.0 406.6 L 741.7 404.3 L 741.7 404.3 L 744.1 402.9 L 746.4 402.0 L 748.6 401.6 L 750.8 401.7 L 752.8 402.1 L 754.6 403.0 L 756.4 404.1 L 758.0 405.6 L 759.5 407.4 L 760.9 409.5 L 762.1 411.7 L 763.1 414.2 L 764.0 416.8 L 764.7 419.6 L 765.3 422.5 L 765.6 425.4 L 765.6 425.4 L 765.6 428.8 L 765.1 433.1 L 764.2 438.1 L 762.9 443.7 L 761.4 449.6 L 759.7 455.8 L 757.9 462.1 L 756.0 468.4 L 754.3 474.4 L 752.6 480.2 L 751.2 485.4 L 750.1 490.0 L 749.4 493.8 L 749.2 496.7 L 749.4 498.5 L 750.4 499.1 L 750.4 499.1 L 752.0 498.1 L 754.2 495.7 L 757.1 492.0 L 760.4 487.2 L 764.1 481.6 L 768.2 475.3 L 772.4 468.5 L 776.8 461.5 L 781.2 454.5 L 785.5 447.7 L 789.7 441.2 L 793.7 435.4 L 797.4 430.3 L 800.7 426.4 L 803.4 423.6 L 805.6 422.3 L 805.6 422.3 L 807.3 422.2 L 808.8 423.1 L 810.0 424.8 L 811.0 427.3 L 811.8 430.4 L 812.3 434.0 L 812.7 438.1 L 812.9 442.7 L 813.0 447.5 L 812.8 452.5 L 812.6 457.7 L 812.2 462.9 L 811.6 468.1 L 811.0 473.1 L 810.2 477.9 L 809.4 482.4 L 809.4 482.4 L 808.2 487.0 L 806.4 492.3 L 804.1 498.0 L 801.5 504.0 L 798.6 510.3 L 795.6 516.6 L 792.4 523.0 L 789.3 529.3 L 786.3 535.2 L 783.6 540.9 L 781.1 546.0 L 779.1 550.6 L 777.6 554.4 L 776.7 557.4 L 776.6 559.4 L 777.2 560.3 L 777.2 560.3 L 778.8 559.9 L 781.4 558.0 L 784.8 554.9 L 788.8 550.7 L 793.4 545.7 L 798.5 540.1 L 803.8 534.0 L 809.4 527.7 L 814.9 521.4 L 820.4 515.3 L 825.7 509.6 L 830.7 504.5 L 835.2 500.2 L 839.1 496.9 L 842.3 494.9 L 844.7 494.2 L 844.7 494.2 L 846.4 494.9 L 847.8 496.6 L 848.8 499.1 L 849.5 502.3 L 849.9 506.3 L 850.1 510.8 L 849.9 515.8 L 849.4 521.2 L 848.8 526.8 L 847.8 532.6 L 846.7 538.5 L 845.3 544.3 L 843.8 550.0 L 842.1 555.5 L 840.2 560.7 L 838.2 565.4 L 838.2 565.4 L 835.9 569.9 L 833.3 574.4 L 830.3 579.0 L 827.1 583.6 L 823.6 588.3 L 819.9 592.9 L 816.0 597.5 L 812.0 602.1 L 807.8 606.7 L 803.5 611.3 L 799.2 615.8 L 794.8 620.3 L 790.4 624.8 L 786.1 629.2 L 781.8 633.5 L 777.6 637.7 L 777.6 637.7 L 773.4 641.9 L 769.1 645.9 L 764.7 649.8 L 760.2 653.7 L 755.7 657.5 L 751.1 661.2 L 746.4 664.9 L 741.8 668.6 L 737.1 672.3 L 732.5 676.1 L 727.9 679.8 L 723.3 683.6 L 718.9 687.5 L 714.5 691.4 L 710.2 695.5 L 706.0 699.6 L 706.0 699.6 L 701.9 703.8 L 697.8 708.1 L 693.7 712.4 L 689.7 716.7 L 685.7 721.1 L 681.7 725.5 L 677.8 730.0 L 674.0 734.5 L 670.2 739.0 L 666.4 743.6 L 662.8 748.3 L 659.2 753.0 L 655.7 757.7 L 652.4 762.5 L 649.1 767.4 L 645.9 772.3 L 645.9 772.3 L 642.8 777.3 L 639.9 782.4 L 637.0 787.5 L 634.3 792.7 L 631.7 798.0 L 629.2 803.4 L 626.7 808.7 L 624.3 814.2 L 621.9 819.6 L 619.6 825.1 L 617.3 830.6 L 615.0 836.1 L 612.7 841.5 L 610.4 847.0 L 608.1 852.5 L 605.8 857.9 L 605.8 857.9 L 603.4 863.4 L 601.2 868.8 L 598.9 874.3 L 596.7 879.8 L 594.5 885.3 L 592.3 890.8 L 590.1 896.3 L 588.0 901.8 L 585.9 907.3 L 583.7 912.8 L 581.6 918.4 L 579.4 923.9 L 577.3 929.4 L 575.1 934.9 L 572.9 940.4 L 570.6 945.9 L 570.6 945.9 L 568.4 951.3 L 566.1 956.8 L 563.8 962.3 L 561.6 967.7 L 559.3 973.2 L 557.0 978.6 L 554.7 984.1 L 552.4 989.5 L 550.0 995.0 L 547.9 1000.0" fill="none" stroke="#2b6bff" stroke-width="6.0" stroke-opacity="0.9"/><path d="M 912.4 1000.0 L 912.6 999.8 L 917.5 994.3 L 922.4 988.7 L 927.2 983.2 L 932.1 977.6 L 937.0 972.0 L 941.8 966.5 L 946.6 960.9 L 946.6 960.9 L 951.4 955.3 L 956.2 949.6 L 961.0 944.0 L 965.8 938.4 L 970.5 932.7 L 975.3 927.1 L 980.0 921.4 L 984.8 915.7 L 989.5 910.0 L 994.2 904.4 L 998.9 898.7 L 1003.7 893.0 L 1008.4 887.3 L 1013.1 881.6 L 1017.8 875.9 L 1022.5 870.2 L 1022.5 870.2 L 1027.1 864.5 L 1031.8 858.7 L 1036.4 853.0 L 1041.1 847.2 L 1045.7 841.4 L 1050.3 835.6 L 1054.9 829.9 L 1059.5 824.1 L 1064.1 818.3 L 1068.7 812.5 L 1073.3 806.8 L 1078.0 801.0 L 1082.6 795.3 L 1087.4 789.6 L 1092.1 784.0 L 1096.9 778.3 L 1096.9 778.3 L 1101.6 772.7 L 1106.4 767.0 L 1111.2 761.4 L 1115.9 755.7 L 1120.7 750.0 L 1125.5 744.3 L 1130.3 738.7 L 1135.1 733.1 L 1140.0 727.5 L 1144.9 722.0 L 1149.9 716.5 L 1155.0 711.1 L 1160.1 705.8 L 1165.2 700.6 L 1170.5 695.4 L 1175.9 690.4 L 1175.9 690.4 L 1181.3 685.5 L 1186.8 680.5 L 1192.3 675.7 L 1197.9 670.8 L 1203.6 666.1 L 1209.3 661.4 L 1215.0 656.7 L 1220.9 652.2 L 1226.8 647.7 L 1232.7 643.3 L 1238.7 639.0 L 1244.8 634.8 L 1250.9 630.7 L 1257.1 626.7 L 1263.3 622.8 L 1269.6 619.1 L 1269.6 619.1 L 1276.0 615.5 L 1282.5 612.0 L 1289.0 608.7 L 1295.6 605.6 L 1302.3 602.5 L 1309.1 599.5 L 1315.9 596.7 L 1322.8 593.9 L 1329.7 591.1 L 1336.6 588.4 L 1343.6 585.8 L 1350.5 583.2 L 1357.5 580.6 L 1364.4 578.0 L 1371.3 575.4 L 1378.2 572.7 L 1378.2 572.7 L 1385.1 570.1 L 1392.0 567.5 L 1399.0 564.9 L 1405.9 562.4 L 1412.9 559.9 L 1419.8 557.5 L 1426.8 555.0 L 1433.8 552.6 L 1440.8 550.3 L 1447.8 547.9 L 1454.8 545.6 L 1461.9 543.3 L 1468.9 541.0 L 1475.9 538.7 L 1483.0 536.4 L 1490.0 534.2 L 1490.0 534.2 L 1497.0 532.0 L 1500.0 531.1" fill="none" stroke="#2b6bff" stroke-width="6.0" stroke-opacity="0.9"/></g><g id="clips"><circle cx="1500.0" cy="772.1" r="2" fill="none" stroke="#0b5" stroke-width="0.6"/><circle cx="1242.1" cy="1000.0" r="2" fill="none" stroke="#0b5" stroke-width="0.6"/><circle cx="380.0" cy="1000.0" r="2" fill="none" stroke="#0b5" stroke-width="0.6"/><circle cx="611.4" cy="556.1" r="2" fill="none" stroke="#0b5" stroke-width="0.6"/><circle cx="622.1" cy="485.8" r="2" fill="none" stroke="#0b5" stroke-width="0.6"/><circle cx="547.9" cy="1000.0" r="2" fill="none" stroke="#0b5" stroke-width="0.6"/><circle cx="912.4" cy="1000.0" r="2" fill="none" stroke="#0b5" stroke-width="0.6"/><circle cx="1500.0" cy="531.1" r="2" fill="none" stroke="#0b5" stroke-width="0.6"/></g><g id="power"><circle cx="1500.0" cy="772.1" r="5" fill="none" stroke="#e33" stroke-width="1"/><circle cx="1500.0" cy="531.1" r="5" fill="none" stroke="#e33" stroke-width="1"/><circle cx="380.0" cy="1000.0" r="5" fill="none" stroke="#e33" stroke-width="1"/><circle cx="547.9" cy="1000.0" r="5" fill="none" stroke="#e33" stroke-width="1"/><circle cx="912.4" cy="1000.0" r="5" fill="none" stroke="#e33" stroke-width="1"/><circle cx="1242.1" cy="1000.0" r="5" fill="none" stroke="#e33" stroke-width="1"/></g><g id="bridges"><circle cx="775.3" cy="440.4" r="9" fill="none" stroke="#e6a817" stroke-width="1.5"/><circle cx="775.3" cy="440.4" r="9" fill="none" stroke="#e6a817" stroke-width="1.5"/><circle cx="770.5" cy="455.2" r="9" fill="none" stroke="#e6a817" stroke-width="1.5"/><circle cx="770.5" cy="455.2" r="9" fill="none" stroke="#e6a817" stroke-width="1.5"/><circle cx="804.0" cy="519.0" r="9" fill="none" stroke="#e6a817" stroke-width="1.5"/></g></svg>