<svg xmlns="http://www.w3.org/2000/svg" width="2000mm" height="1000mm" viewBox="0 0 2000 1000"><g id="outline"><rect x="0" y="0" width="2000" height="1000" fill="none" stroke="#000" stroke-width="1"/></g><g id="channels"><path d="M 2000.0 486.6 L 1999.3 487.2 L 1994.2 491.3 L 1988.9 495.0 L 1983.4 498.1 L 1977.8 500.6 L 1977.8 500.6 L 1972.0 502.4 L 1965.8 503.5 L 1959.4 504.0 L 1952.8 504.0 L 1946.0 503.6 L 1939.1 502.7 L 1932.1 501.6 L 1925.1 500.1 L 1918.0 498.5 L 1910.9 496.8 L 1904.0 495.0 L 1897.1 493.3 L 1890.3 491.7 L 1883.7 490.2 L 1877.4 488.9 L 1871.2 488.0 L 1871.2 488.0 L 1865.1 487.0 L 1858.6 485.8 L 1851.8 484.3 L 1844.9 482.6 L 1838.0 480.9 L 1831.1 479.1 L 1824.4 477.4 L 1817.9 475.8 L 1811.8 474.4 L 1806.1 473.2 L 1800.9 472.4 L 1796.4 472.0 L 1792.6 472.1 L 1789.7 472.7 L 1787.7 474.0 L 1786.7 475.9 L 1786.7 475.9 L 1787.0 478.7 L 1788.6 482.5 L 1791.3 487.2 L 1795.1 492.5 L 1799.6 498.4 L 1804.8 504.7 L 1810.6 511.3 L 1816.6 518.1 L 1822.8 524.9 L 1829.0 531.6 L 1835.1 538.0 L 1840.8 544.1 L 1846.0 549.6 L 1850.6 554.5 L 1854.3 558.6 L 1857.1 561.8" fill="none" stroke="#00e5ff" stroke-width="6.0" stroke-opacity="0.9"/><path d="M 1784.0 561.4 L 1781.2 563.6 L 1777.6 566.1 L 1773.4 569.0 L 1768.7 572.2 L 1763.5 575.7 L 1758.0 579.5 L 1752.3 583.5 L 1746.3 587.7 L 1740.4 592.0 L 1734.5 596.4 L 1728.7 601.0 L 1723.1 605.5 L 1717.8 610.1 L 1713.0 614.6 L 1708.6 619.1 L 1704.9 623.5 L 1704.9 623.5 L 1701.5 628.0 L 1698.1 633.0 L 1694.7 638.2 L 1691.5 643.7 L 1688.4 649.4 L 1685.5 655.1 L 1682.8 660.9 L 1680.3 666.5 L 1678.2 672.0 L 1676.4 677.3 L 1674.9 682.3 L 1673.9 686.8 L 1673.3 690.9 L 1673.2 694.5 L 1673.7 697.4 L 1674.7 699.6 L 1674.7 699.6 L 1676.5 700.9 L 1679.2 701.3 L 1682.7 700.9 L 1686.8 699.9 L 1691.5 698.3 L 1696.7 696.4 L 1702.2 694.1 L 1707.8 691.7 L 1713.6 689.2 L 1719.3 686.9 L 1724.9 684.7 L 1730.3 682.9 L 1735.2 681.5 L 1739.6 680.7 L 1743.5 680.7 L 1746.6 681.4 L 1746.6 681.4 L 1749.0 682.9 L 1751.0 685.0 L 1752.5 687.6 L 1753.7 690.6 L 1754.5 693.9 L 1755.1 697.6 L 1755.6 701.6 L 1755.9 705.7 L 1756.1 710.0 L 1756.4 714.3 L 1756.6 718.7 L 1757.0 722.9 L 1757.6 727.1 L 1758.4 731.1 L 1759.5 734.8 L 1760.9 738.3 L 1760.9 738.3 L 1762.7 741.6 L 1764.6 744.9 L 1766.7 748.3 L 1768.9 751.8 L 1771.3 755.2 L 1773.8 758.6 L 1776.3 761.9 L 1778.9 765.2 L 1781.6 768.3 L 1784.2 771.4 L 1786.8 774.3 L 1789.4 777.0 L 1791.8 779.6 L 1794.2 782.0 L 1796.5 784.1 L 1798.6 786.0 L 1798.6 786.0 L 1800.6 787.6 L 1802.5 789.0 L 1804.2 790.1 L 1805.8 791.1 L 1807.3 791.9 L 1808.9 792.5 L 1810.3 793.0 L 1811.8 793.3 L 1813.3 793.6 L 1814.9 793.8 L 1816.5 793.9 L 1818.3 793.9 L 1820.1 794.0 L 1822.1 794.0 L 1824.2 794.0 L 1826.6 794.1 L 1826.6 794.1 L 1829.1 794.1 L 1831.9 793.9 L 1834.8 793.6 L 1837.9 793.1 L 1841.0 792.6 L 1844.3 792.0 L 1847.7 791.4 L 1851.1 790.8 L 1854.5 790.1 L 1857.9 789.6 L 1861.3 789.1 L 1864.6 788.7 L 1867.9 788.5 L 1871.0 788.5 L 1874.0 788.6 L 1876.9 788.9 L 1876.9 788.9 L 1879.7 789.7 L 1882.4 791.1 L 1885.1 792.9 L 1887.8 795.0 L 1890.5 797.4 L 1893.1 799.9 L 1895.7 802.4 L 1898.2 804.9 L 1900.6 807.2 L 1903.0 809.2 L 1905.3 810.8 L 1907.5 811.9 L 1909.7 812.4 L 1911.8 812.2 L 1913.7 811.2 L 1915.6 809.3 L 1915.6 809.3 L 1917.3 806.4 L 1918.7 802.6 L 1919.8 797.9 L 1920.8 792.6 L 1921.6 786.7 L 1922.3 780.3 L 1923.0 773.5 L 1923.7 766.5 L 1924.5 759.2 L 1925.3 751.8 L 1926.3 744.5 L 1927.5 737.2 L 1928.9 730.2 L 1930.7 723.6 L 1932.8 717.3 L 1935.2 711.6 L 1935.2 711.6 L 1938.1 706.2 L 1941.2 701.0 L 1944.6 695.8 L 1948.2 690.8 L 1952.1 685.9 L 1956.2 681.0 L 1960.4 676.3 L 1964.8 671.6 L 1969.2 666.9 L 1973.8 662.4 L 1978.4 657.8 L 1983.0 653.3 L 1987.6 648.8 L 1992.2 644.4 L 1996.8 639.9 L 2000.0 636.7" fill="none" stroke="#00e5ff" stroke-width="6.0" stroke-opacity="0.9"/><path d="M 102.1 0.0 L 101.9 0.3 L 97.8 6.0 L 93.9 11.7 L 90.0 17.5 L 86.4 23.3 L 82.8 29.1 L 79.5 35.0 L 79.5 35.0 L 76.2 41.2 L 72.5 48.0 L 68.8 55.1 L 64.9 62.5 L 61.1 70.1 L 57.3 77.7 L 53.7 85.3 L 50.3 92.8 L 47.2 99.9 L 44.5 106.7 L 42.3 112.9 L 40.7 118.5 L 39.7 123.4 L 39.4 127.5 L 39.9 130.5 L 41.2 132.5 L 41.2 132.5 L 43.6 133.4 L 46.9 133.3 L 51.1 132.2 L 56.1 130.4 L 61.7 127.8 L 67.9 124.6 L 74.5 120.9 L 81.5 116.8 L 88.8 112.3 L 96.2 107.6 L 103.7 102.8 L 111.1 98.0 L 118.3 93.3 L 125.3 88.7 L 131.9 84.5 L 138.0 80.6 L 138.0 80.6 L 143.9 76.8 L 149.7 73.0 L 155.4 69.0 L 161.1 65.0 L 166.8 60.9 L 172.4 56.7 L 178.0 52.5 L 183.7 48.3 L 189.3 44.0 L 194.9 39.7 L 200.5 35.5 L 206.2 31.3 L 211.9 27.1 L 217.6 23.0 L 223.3 18.9 L 229.1 15.0 L 229.1 15.0 L 234.9 11.1 L 240.8 7.2 L 246.7 3.4 L 252.0 0.0" fill="none" stroke="#2b6bff" stroke-width="6.0" stroke-opacity="0.9"/><path d="M 959.3 0.0 L 959.3 0.0 L 959.3 0.0 L 953.1 2.3 L 946.9 4.4 L 940.7 6.5 L 934.4 8.5 L 928.1 10.4 L 921.7 12.3 L 915.4 14.1 L 909.0 15.8 L 902.6 17.5 L 896.2 19.1 L 889.7 20.7 L 883.3 22.2 L 876.8 23.8 L 870.4 25.2 L 864.0 26.7 L 857.5 28.1 L 857.5 28.1 L 851.1 29.5 L 844.6 30.7 L 838.0 31.8 L 831.5 32.8 L 824.9 33.8 L 818.4 34.7 L 811.8 35.6 L 805.2 36.4 L 798.7 37.3 L 792.1 38.2 L 785.5 39.2 L 779.0 40.2 L 772.5 41.4 L 766.0 42.6 L 759.6 44.0 L 753.2 45.5 L 753.2 45.5 L 746.8 47.1 L 740.4 48.7 L 734.0 50.3 L 727.6 52.0 L 721.2 53.7 L 714.8 55.5 L 708.4 57.4 L 702.1 59.3 L 695.8 61.4 L 689.5 63.5 L 683.4 65.8 L 677.2 68.1 L 671.2 70.7 L 665.2 73.3 L 659.4 76.2 L 653.6 79.2 L 653.6 79.2 L 648.0 82.4 L 642.4 85.8 L 637.0 89.4 L 631.6 93.2 L 626.4 97.1 L 621.1 101.1 L 616.0 105.3 L 610.9 109.5 L 605.8 113.8 L 600.8 118.2 L 595.8 122.6 L 590.8 127.1 L 585.8 131.5 L 580.9 135.9 L 575.9 140.3 L 570.9 144.6 L 570.9 144.6 L 565.9 149.0 L 560.9 153.3 L 556.0 157.7 L 551.1 162.2 L 546.3 166.6 L 541.4 171.1 L 536.6 175.6 L 531.8 180.2 L 527.0 184.7 L 522.2 189.3 L 517.4 193.8 L 512.6 198.4 L 507.8 202.9 L 503.0 207.5 L 498.2 212.0 L 493.3 216.5 L 493.3 216.5 L 488.5 221.0 L 483.6 225.5 L 478.8 230.0 L 473.9 234.5 L 469.1 239.0 L 464.2 243.5 L 459.4 248.0 L 454.5 252.5 L 449.7 257.0 L 444.8 261.4 L 440.0 265.9 L 435.2 270.4 L 430.3 274.9 L 425.5 279.4 L 420.6 283.9 L 415.8 288.4 L 415.8 288.4 L 410.9 292.9 L 406.0 297.4 L 401.2 301.8 L 396.3 306.3 L 391.4 310.7 L 386.4 315.1 L 381.5 319.6 L 376.7 324.0 L 371.8 328.5 L 366.9 333.0 L 362.1 337.4 L 357.2 342.0 L 352.4 346.5 L 347.7 351.1 L 343.0 355.7 L 338.3 360.4 L 338.3 360.4 L 333.7 365.1 L 329.0 369.8 L 324.4 374.5 L 319.9 379.3 L 315.3 384.1 L 310.8 388.9 L 306.3 393.7 L 301.8 398.6 L 297.4 403.5 L 292.9 408.4 L 288.5 413.3 L 284.2 418.2 L 279.8 423.2 L 275.5 428.2 L 271.2 433.2 L 266.9 438.2 L 266.9 438.2 L 262.7 443.3 L 258.5 448.5 L 254.5 453.7 L 250.5 459.0 L 246.6 464.4 L 242.7 469.8 L 238.8 475.2 L 234.9 480.5 L 231.0 485.9 L 227.0 491.2 L 223.0 496.5 L 218.9 501.7 L 214.8 506.7 L 210.5 511.7 L 206.1 516.6 L 201.5 521.3 L 201.5 521.3 L 196.8 525.9 L 192.1 530.4 L 187.3 534.9 L 182.4 539.4 L 177.4 543.8 L 172.4 548.1 L 167.3 552.3 L 162.1 556.5 L 156.9 560.5 L 151.6 564.5 L 146.2 568.4 L 140.8 572.2 L 135.4 575.8 L 129.8 579.4 L 124.3 582.8 L 118.6 586.1 L 118.6 586.1 L 112.9 589.3 L 107.1 592.3 L 101.2 595.2 L 95.3 598.0 L 89.2 600.6 L 83.2 603.2 L 77.0 605.6 L 70.8 608.0 L 64.6 610.3 L 58.3 612.5 L 52.0 614.7 L 45.7 616.8 L 39.4 618.9 L 33.1 621.0 L 26.8 623.1 L 20.6 625.2 L 20.6 625.2 L 14.3 627.2 L 8.0 629.2 L 1.7 631.1 L 0.0 631.6" fill="none" stroke="#2b6bff" stroke-width="6.0" stroke-opacity="0.9"/><path d="M 0.0 851.7 L 0.9 851.3 L 6.9 848.5 L 13.0 845.7 L 18.9 842.7 L 24.8 839.7 L 30.7 836.6 L 36.4 833.4 L 42.0 830.0 L 47.5 826.5 L 52.8 822.8 L 57.9 818.9 L 62.9 814.8 L 62.9 814.8 L 67.6 810.5 L 72.1 805.9 L 76.4 801.0 L 80.6 796.0 L 84.6 790.8 L 88.5 785.5 L 92.2 780.0 L 95.9 774.5 L 99.6 768.9 L 103.2 763.3 L 106.9 757.6 L 110.6 752.0 L 114.3 746.5 L 118.1 741.0 L 122.0 735.7 L 126.1 730.5 L 126.1 730.5 L 130.2 725.2 L 134.4 719.8 L 138.7 714.2 L 143.0 708.5 L 147.3 702.8 L 151.6 697.0 L 156.0 691.3 L 160.4 685.7 L 164.7 680.3 L 169.1 675.0 L 173.5 670.1 L 177.8 665.4 L 182.1 661.1 L 186.4 657.2 L 190.6 653.7 L 194.8 650.8 L 194.8 650.8 L 199.0 648.3 L 203.4 646.2 L 208.0 644.5 L 212.6 643.1 L 217.2 642.1 L 221.8 641.3 L 226.4 640.9 L 230.9 640.6 L 235.3 640.6 L 239.5 640.8 L 243.5 641.2 L 247.2 641.7 L 250.7 642.4 L 253.8 643.2 L 256.6 644.0 L 259.0 645.0 L 259.0 645.0 L 260.8 646.3 L 261.9 648.2 L 262.6 650.8 L 262.8 653.7 L 262.6 657.0 L 262.2 660.5 L 261.6 664.0 L 260.9 667.6 L 260.2 671.0 L 259.7 674.1 L 259.3 676.8 L 259.2 679.1 L 259.5 680.8 L 260.2 681.7 L 261.5 681.8 L 263.5 680.9 L 263.5 680.9 L 266.2 678.9 L 269.5 675.7 L 273.4 671.4 L 277.8 666.2 L 282.6 660.4 L 287.6 654.1 L 292.9 647.4 L 298.2 640.5 L 303.6 633.7 L 308.8 627.1 L 313.9 620.9 L 318.6 615.2 L 323.0 610.2 L 327.0 606.1 L 330.3 603.1 L 333.1 601.4 L 333.1 601.4 L 335.1 600.9 L 336.7 601.4 L 337.8 602.8 L 338.6 604.9 L 339.0 607.7 L 339.1 611.1 L 339.0 614.8 L 338.8 618.8 L 338.5 623.0 L 338.1 627.3 L 337.8 631.5 L 337.5 635.5 L 337.4 639.2 L 337.5 642.5 L 337.9 645.2 L 338.6 647.2 L 338.6 647.2 L 339.5 648.8 L 340.4 650.1 L 341.5 651.2 L 342.5 652.1 L 343.7 652.8 L 344.9 653.4 L 346.2 653.8 L 347.5 654.1 L 349.0 654.3 L 350.4 654.5 L 352.0 654.6 L 353.6 654.7 L 355.2 654.7 L 356.9 654.8 L 358.7 655.0 L 360.6 655.2 L 360.6 655.2 L 362.6 655.3 L 365.0 655.1 L 367.6 654.8 L 370.4 654.3 L 373.3 653.7 L 376.4 653.1 L 379.4 652.5 L 382.4 651.9 L 385.4 651.4 L 388.2 651.1 L 390.8 650.9 L 393.1 651.0 L 395.1 651.4 L 396.8 652.1 L 398.0 653.2 L 398.7 654.7 L 398.7 654.7 L 398.8 656.9 L 398.2 659.7 L 397.0 663.0 L 395.3 666.8 L 393.2 670.9 L 390.9 675.3 L 388.4 679.8 L 385.8 684.4 L 383.3 689.0 L 380.9 693.5 L 378.8 697.7 L 377.1 701.6 L 375.9 705.1 L 375.2 708.0 L 375.3 710.4 L 376.1 712.0 L 376.1 712.0 L 378.0 712.7 L 380.9 712.7 L 384.6 711.9 L 389.0 710.5 L 393.9 708.7 L 399.3 706.5 L 404.9 704.1 L 410.5 701.6 L 416.1 699.2 L 421.5 697.0 L 426.5 695.0 L 431.0 693.5 L 434.7 692.5 L 437.7 692.2 L 439.6 692.8 L 440.5 694.2 L 440.5 694.2 L 440.0 696.8 L 438.2 700.3 L 435.3 704.6 L 431.4 709.7 L 426.9 715.4 L 421.8 721.5 L 416.4 727.8 L 410.8 734.4 L 405.2 740.9 L 399.8 747.3 L 394.8 753.5 L 390.4 759.2 L 386.8 764.4 L 384.1 768.9 L 382.6 772.6 L 382.4 775.3 L 382.4 775.3 L 383.7 777.0 L 386.4 777.8 L 390.4 777.9 L 395.4 777.3 L 401.1 776.1 L 407.5 774.6 L 414.2 772.7 L 421.2 770.8 L 428.0 768.8 L 434.6 766.9 L 440.8 765.2 L 446.2 763.9 L 450.8 763.0 L 454.3 762.7 L 456.5 763.1 L 457.2 764.4 L 457.2 764.4 L 456.5 766.5 L 454.7 769.3 L 452.0 772.6 L 448.5 776.4 L 444.3 780.6 L 439.4 785.1 L 433.9 789.9 L 428.1 794.9 L 421.8 799.9 L 415.4 805.0 L 408.8 810.0 L 402.2 814.9 L 395.6 819.5 L 389.2 823.8 L 383.0 827.7 L 377.2 831.2 L 377.2 831.2 L 371.5 834.3 L 365.7 837.2 L 359.7 839.8 L 353.7 842.3 L 347.5 844.6 L 341.3 846.8 L 335.0 848.9 L 328.6 850.9 L 322.2 852.8 L 315.8 854.8 L 309.4 856.7 L 303.0 858.7 L 296.7 860.7 L 290.3 862.8 L 284.1 865.0 L 277.9 867.4 L 277.9 867.4 L 271.8 869.8 L 265.6 872.2 L 259.4 874.6 L 253.3 877.0 L 247.1 879.4 L 240.9 881.8 L 234.8 884.2 L 228.7 886.7 L 222.6 889.2 L 216.5 891.8 L 210.4 894.4 L 204.4 897.1 L 198.4 899.9 L 192.5 902.8 L 186.6 905.7 L 180.8 908.8 L 180.8 908.8 L 175.0 911.9 L 169.3 915.2 L 163.7 918.6 L 158.1 922.1 L 152.5 925.6 L 147.0 929.2 L 141.5 932.9 L 136.0 936.6 L 130.5 940.4 L 125.1 944.2 L 119.7 948.0 L 114.2 951.8 L 108.8 955.5 L 103.4 959.3 L 97.9 963.1 L 92.4 966.7 L 92.4 966.7 L 86.9 970.4 L 81.5 974.1 L 76.0 977.9 L 70.5 981.6 L 65.1 985.3 L 59.7 989.1 L 54.2 992.8 L 48.8 996.6 L 43.7 1000.0" fill="none" stroke="#2b6bff" stroke-width="6.0" stroke-opacity="0.9"/></g><g id="clips"><circle cx="2000.0" cy="486.6" r="2" fill="none" stroke="#0b5" stroke-width="0.6"/><circle cx="1857.1" cy="561.8" r="2" fill="none" stroke="#0b5" stroke-width="0.6"/><circle cx="1784.0" cy="561.4" r="2" fill="none" stroke="#0b5" stroke-width="0.6"/><circle cx="2000.0" cy="636.7" r="2" fill="none" stroke="#0b5" stroke-width="0.6"/><circle cx="102.1" cy="0.0" r="2" fill="none" stroke="#0b5" stroke-width="0.6"/><circle cx="252.0" cy="0.0" r="2" fill="none" stroke="#0b5" stroke-width="0.6"/><circle cx="959.3" cy="0.0" r="2" fill="none" stroke="#0b5" stroke-width="0.6"/><circle cx="0.0" cy="631.6" r="2" fill="none" stroke="#0b5" stroke-width="0.6"/><circle cx="0.0" cy="851.7" r="2" fill="none" stroke="#0b5" stroke-width="0.6"/><circle cx="43.7" cy="1000.0" r="2" fill="none" stroke="#0b5" stroke-width="0.6"/></g><g id="power"><circle cx="2000.0" cy="486.6" r="5" fill="none" stroke="#e33" stroke-width="1"/><circle cx="2000.0" cy="636.7" r="5" fill="none" stroke="#e33" stroke-width="1"/><circle cx="102.2" cy="0.0" r="5" fill="none" stroke="#e33" stroke-width="1"/><circle cx="252.1" cy="0.0" r="5" fill="none" stroke="#e33" stroke-width="1"/><circle cx="959.4" cy="0.0" r="5" fill="none" stroke="#e33" stroke-width="1"/><circle cx="0.0" cy="631.6" r="5" fill="none" stroke="#e33" stroke-width="1"/><circle cx="0.0" cy="851.7" r="5" fill="none" stroke="#e33" stroke-width="1"/><circle cx="43.8" cy="1000.0" r="5" fill="none" stroke="#e33" stroke-width="1"/></g></svg>