<svg xmlns="http://www.w3.org/2000/svg" width="1000mm" height="1000mm" viewBox="0 0 1000 1000"><g id="outline"><rect x="0" y="0" width="1000" height="1000" fill="none" stroke="#000" stroke-width="1"/></g><g id="channels"><path d="M 233.5 722.0 L 236.6 721.3 L 240.4 720.4 L 244.8 719.5 L 249.8 718.6 L 255.3 717.6 L 261.1 716.5 L 267.1 715.3 L 273.4 713.9 L 279.8 712.4 L 286.2 710.8 L 292.5 709.0 L 298.6 707.0 L 304.5 704.7 L 310.0 702.3 L 315.1 699.5 L 319.7 696.6 L 319.7 696.6 L 324.0 693.3 L 328.3 689.7 L 332.5 685.7 L 336.6 681.6 L 340.6 677.2 L 344.5 672.6 L 348.3 667.9 L 351.9 663.0 L 355.3 657.9 L 358.4 652.9 L 361.3 647.7 L 363.8 642.5 L 366.1 637.3 L 367.9 632.1 L 369.4 627.0 L 370.4 622.0 L 370.4 622.0 L 371.2 616.8 L 371.5 611.5 L 371.5 605.9 L 371.2 600.3 L 370.6 594.5 L 369.7 588.7 L 368.6 582.8 L 367.1 577.0 L 365.4 571.3 L 363.4 565.7 L 361.3 560.2 L 358.9 554.9 L 356.2 549.9 L 353.5 545.2 L 350.4 540.7 L 347.2 536.6 L 347.2 536.6 L 343.7 532.8 L 339.8 529.2 L 335.6 525.8 L 331.0 522.5 L 326.2 519.4 L 321.1 516.5 L 315.8 513.8 L 310.4 511.3 L 304.7 508.9 L 299.1 506.7 L 293.3 504.7 L 287.6 502.9 L 281.8 501.3 L 276.2 499.9 L 270.5 498.7 L 265.1 497.6 L 265.1 497.6 L 259.7 496.8 L 254.2 496.3 L 248.6 496.0 L 242.9 495.8 L 237.2 495.9 L 231.5 496.2 L 225.8 496.6 L 220.0 497.3 L 214.3 498.1 L 208.5 499.0 L 202.8 500.1 L 197.0 501.3 L 191.4 502.5 L 185.9 503.9 L 180.3 505.4 L 175.0 506.9 L 175.0 506.9 L 169.6 508.7 L 164.2 511.2 L 158.8 513.9 L 153.5 517.1 L 148.2 520.6 L 142.9 524.2 L 137.7 527.9 L 132.5 531.5 L 127.4 534.9 L 122.3 538.2 L 117.2 541.2 L 112.3 543.7 L 107.4 545.7 L 102.6 547.0 L 97.9 547.8 L 93.3 547.6 L 93.3 547.6 L 88.8 546.7 L 84.3 545.2 L 79.9 543.1 L 75.6 540.4 L 71.4 537.3 L 67.2 533.7 L 63.1 529.8 L 59.0 525.7 L 55.1 521.2 L 51.1 516.7 L 47.3 512.0 L 43.4 507.3 L 39.6 502.6 L 35.9 498.0 L 32.2 493.4 L 28.5 489.2 L 28.5 489.2 L 24.9 484.9 L 21.6 480.4 L 18.3 475.7 L 15.2 470.8 L 12.2 466.0 L 9.1 460.9 L 6.2 455.9 L 3.3 450.9 L 0.3 445.8 L 0.0 445.3" fill="none" stroke="#a05bff" stroke-width="6.0" stroke-opacity="0.9"/><path d="M 0.0 894.1 L 1.4 893.0 L 5.6 889.8 L 9.7 886.3 L 13.8 882.9 L 17.7 879.3 L 21.5 875.6 L 25.2 871.9 L 28.7 868.1 L 28.7 868.1 L 32.2 864.1 L 35.4 860.0 L 38.6 855.8 L 41.7 851.5 L 44.8 847.3 L 47.7 842.8 L 50.5 838.3 L 53.3 833.7 L 55.9 829.1 L 58.5 824.5 L 61.0 819.8 L 63.4 815.0 L 65.8 810.3 L 68.0 805.4 L 70.1 800.6 L 72.2 795.8 L 72.2 795.8 L 74.1 790.8 L 75.6 785.6 L 76.8 780.1 L 77.9 774.5 L 78.8 768.8 L 79.5 763.0 L 80.3 757.2 L 81.0 751.4 L 81.8 745.8 L 82.7 740.3 L 83.8 735.0 L 85.2 730.0 L 86.8 725.3 L 88.8 721.0 L 91.1 717.1 L 94.0 713.6 L 94.0 713.6 L 97.4 710.7 L 101.5 708.1 L 106.1 705.8 L 111.2 703.9 L 116.6 702.3 L 122.2 700.8 L 128.1 699.7 L 133.9 698.7 L 139.8 697.9 L 145.4 697.2 L 150.8 696.6 L 156.0 696.1 L 160.7 695.6 L 164.8 695.2 L 168.3 694.7 L 171.2 694.1 L 233.5 722.0" fill="none" stroke="#a05bff" stroke-width="6.0" stroke-opacity="0.9"/></g><g id="clips"><circle cx="233.5" cy="722.0" r="2" fill="none" stroke="#0b5" stroke-width="0.6"/><circle cx="371.4" cy="604.6" r="2" fill="none" stroke="#0b5" stroke-width="0.6"/><circle cx="231.0" cy="496.2" r="2" fill="none" stroke="#0b5" stroke-width="0.6"/><circle cx="53.2" cy="519.1" r="2" fill="none" stroke="#0b5" stroke-width="0.6"/><circle cx="0.0" cy="445.3" r="2" fill="none" stroke="#0b5" stroke-width="0.6"/><circle cx="0.0" cy="894.1" r="2" fill="none" stroke="#0b5" stroke-width="0.6"/><circle cx="88.6" cy="721.4" r="2" fill="none" stroke="#0b5" stroke-width="0.6"/><circle cx="233.5" cy="722.0" r="2" fill="none" stroke="#0b5" stroke-width="0.6"/></g><g id="power"><circle cx="0.0" cy="894.1" r="5" fill="none" stroke="#e33" stroke-width="1"/><circle cx="0.0" cy="445.3" r="5" fill="none" stroke="#e33" stroke-width="1"/></g><g id="bridges"><circle cx="233.5" cy="722.0" r="9" fill="none" stroke="#e6a817" stroke-width="1.5"/></g></svg>