<svg xmlns="http://www.w3.org/2000/svg" width="1500mm" height="1000mm" viewBox="0 0 1500 1000"><g id="outline"><rect x="0" y="0" width="1500" height="1000" fill="none" stroke="#000" stroke-width="1"/></g><g id="channels"><path d="M 975.2 131.9 L 977.4 133.5 L 980.5 135.4 L 984.2 137.5 L 988.4 139.8 L 993.0 142.3 L 997.9 145.0 L 1002.9 147.9 L 1008.0 150.9 L 1012.9 154.2 L 1017.6 157.6 L 1022.0 161.2 L 1025.8 165.0 L 1029.1 169.0 L 1031.5 173.1 L 1033.2 177.4 L 1033.8 181.8 L 1033.8 181.8 L 1033.5 186.5 L 1032.5 191.6 L 1030.8 197.0 L 1028.4 202.7 L 1025.6 208.6 L 1022.3 214.7 L 1018.6 221.0 L 1014.5 227.3 L 1010.2 233.7 L 1005.7 240.2 L 1001.0 246.5 L 996.3 252.9 L 991.6 259.1 L 986.9 265.1 L 982.4 270.9 L 978.0 276.5 L 978.0 276.5 L 973.7 281.8 L 969.1 287.0 L 964.3 292.0 L 959.3 296.9 L 954.1 301.7 L 948.9 306.4 L 943.6 311.1 L 938.2 315.8 L 932.9 320.5 L 927.6 325.2 L 922.4 330.0 L 917.3 334.8 L 912.4 339.8 L 907.7 344.9 L 903.3 350.2 L 899.1 355.7 L 899.1 355.7 L 895.2 361.5 L 891.7 367.7 L 888.5 374.1 L 885.6 380.7 L 882.8 387.5 L 880.2 394.4 L 877.6 401.3 L 875.1 408.2 L 872.5 415.1 L 869.8 421.8 L 867.0 428.3 L 864.0 434.5 L 860.7 440.5 L 857.1 446.0 L 853.1 451.2 L 848.6 455.8 L 848.6 455.8 L 843.8 460.1 L 838.7 464.0 L 833.3 467.7 L 827.6 471.1 L 821.8 474.2 L 815.7 477.1 L 809.4 479.8 L 803.0 482.3 L 796.5 484.5 L 789.9 486.6 L 783.3 488.5 L 776.5 490.3 L 769.8 491.9 L 763.1 493.3 L 756.4 494.6 L 749.8 495.8 L 749.8 495.8 L 743.1 496.8 L 736.3 497.2 L 729.5 497.4 L 722.5 497.1 L 715.5 496.7 L 708.4 496.0 L 701.3 495.3 L 694.1 494.4 L 687.0 493.6 L 679.8 492.8 L 672.7 492.1 L 665.6 491.7 L 658.5 491.4 L 651.5 491.5 L 644.6 492.0 L 637.8 492.9 L 637.8 492.9 L 631.1 494.1 L 624.3 495.6 L 617.6 497.3 L 610.9 499.2 L 604.3 501.3 L 597.7 503.5 L 591.1 506.0 L 584.5 508.5 L 578.0 511.2 L 571.5 513.9 L 565.0 516.8 L 558.6 519.7 L 552.2 522.7 L 545.8 525.7 L 539.5 528.7 L 533.2 531.8 L 533.2 531.8 L 527.0 534.8 L 520.8 538.1 L 514.6 541.4 L 508.5 544.9 L 502.5 548.4 L 496.5 552.0 L 490.5 555.7 L 484.5 559.4 L 478.6 563.2 L 472.7 567.0 L 466.7 570.8 L 460.8 574.6 L 454.9 578.4 L 448.9 582.2 L 443.0 585.9 L 437.0 589.6 L 437.0 589.6 L 431.0 593.2 L 425.0 596.9 L 419.0 600.5 L 413.0 604.2 L 407.1 607.9 L 401.1 611.6 L 395.1 615.3 L 389.2 619.0 L 383.2 622.7 L 377.2 626.3 L 371.3 630.0 L 365.3 633.7 L 359.3 637.3 L 353.3 641.0 L 347.3 644.6 L 341.3 648.2 L 341.3 648.2 L 335.3 651.9 L 329.3 655.5 L 323.3 659.2 L 317.3 662.9 L 311.3 666.5 L 305.3 670.2 L 299.3 673.9 L 293.3 677.5 L 287.3 681.2 L 281.2 684.7 L 275.2 688.3 L 269.1 691.7 L 263.0 695.1 L 256.8 698.5 L 250.6 701.7 L 244.4 704.9 L 244.4 704.9 L 238.1 708.0 L 231.8 711.1 L 225.5 714.2 L 219.2 717.2 L 212.8 720.2 L 206.4 723.2 L 200.0 726.1 L 193.6 728.9 L 187.1 731.7 L 180.6 734.3 L 174.1 736.9 L 167.6 739.4 L 161.0 741.8 L 154.4 744.0 L 147.7 746.1 L 141.1 748.1 L 141.1 748.1 L 134.4 749.9 L 127.6 751.5 L 120.7 752.9 L 113.9 754.2 L 106.9 755.3 L 100.0 756.3 L 93.0 757.3 L 86.0 758.1 L 79.0 759.0 L 72.0 759.8 L 65.0 760.7 L 58.0 761.6 L 51.1 762.6 L 44.1 763.7 L 37.3 764.9 L 30.4 766.3 L 30.4 766.3 L 23.5 767.7 L 16.6 769.0 L 9.6 770.3 L 2.6 771.6 L 0.0 772.1" fill="none" stroke="#2b6bff" stroke-width="6.0" stroke-opacity="0.9"/><path d="M 105.6 1000.0 L 105.6 1000.0 L 112.3 998.1 L 119.0 996.2 L 119.0 996.2 L 125.7 994.6 L 132.5 993.2 L 139.4 991.9 L 146.3 990.8 L 153.2 989.8 L 160.2 989.0 L 167.2 988.2 L 174.2 987.5 L 181.2 986.8 L 188.2 986.1 L 195.3 985.4 L 202.3 984.6 L 209.3 983.8 L 216.3 982.8 L 223.2 981.8 L 230.1 980.6 L 230.1 980.6 L 237.0 979.3 L 243.9 977.9 L 250.7 976.4 L 257.6 974.9 L 264.4 973.3 L 271.2 971.7 L 278.0 970.0 L 284.9 968.4 L 291.7 966.7 L 298.5 965.0 L 305.3 963.3 L 312.1 961.6 L 318.9 960.0 L 325.8 958.4 L 332.6 956.8 L 339.5 955.3 L 339.5 955.3 L 346.3 953.8 L 353.2 952.4 L 360.0 950.9 L 366.9 949.5 L 373.8 948.1 L 380.7 946.7 L 387.5 945.3 L 394.4 943.9 L 401.3 942.5 L 408.2 941.2 L 415.1 939.8 L 421.9 938.5 L 428.8 937.1 L 435.7 935.8 L 442.6 934.4 L 449.5 933.1 L 449.5 933.1 L 456.4 931.7 L 463.3 930.4 L 470.2 929.2 L 477.1 927.9 L 484.0 926.7 L 490.9 925.5 L 497.8 924.3 L 504.7 923.1 L 511.7 921.8 L 518.6 920.5 L 525.5 919.3 L 532.3 917.9 L 539.2 916.5 L 546.1 915.1 L 552.9 913.6 L 559.8 912.0 L 559.8 912.0 L 566.6 910.4 L 573.4 908.8 L 580.2 907.1 L 587.0 905.4 L 593.8 903.7 L 600.6 901.9 L 607.4 900.1 L 614.2 898.3 L 621.0 896.4 L 627.7 894.5 L 634.4 892.5 L 641.2 890.4 L 647.8 888.3 L 654.5 886.2 L 661.1 884.0 L 667.8 881.7 L 667.8 881.7 L 674.4 879.4 L 681.0 877.0 L 687.7 874.7 L 694.3 872.3 L 701.0 869.9 L 707.6 867.5 L 714.3 865.0 L 720.8 862.4 L 727.4 859.7 L 733.9 857.0 L 740.3 854.1 L 746.6 851.1 L 752.8 848.0 L 759.0 844.8 L 765.0 841.4 L 770.9 837.8 L 770.9 837.8 L 776.7 834.0 L 782.5 830.1 L 788.1 826.1 L 793.7 821.9 L 799.2 817.7 L 804.7 813.2 L 810.0 808.7 L 815.3 804.1 L 820.5 799.4 L 825.7 794.6 L 830.8 789.7 L 835.7 784.8 L 840.7 779.8 L 845.5 774.7 L 850.3 769.6 L 855.0 764.5 L 855.0 764.5 L 859.6 759.3 L 864.1 754.0 L 868.4 748.5 L 872.7 743.0 L 877.0 737.4 L 881.1 731.7 L 885.2 726.0 L 889.2 720.2 L 893.1 714.4 L 897.0 708.5 L 900.9 702.6 L 904.7 696.7 L 908.5 690.7 L 912.3 684.8 L 916.1 678.9 L 919.9 673.0 L 919.9 673.0 L 923.7 667.1 L 927.5 661.2 L 931.2 655.2 L 935.0 649.3 L 938.7 643.3 L 942.3 637.3 L 946.0 631.3 L 949.6 625.3 L 953.1 619.2 L 956.6 613.1 L 960.1 607.0 L 963.5 600.9 L 966.8 594.7 L 970.1 588.5 L 973.3 582.3 L 976.5 576.0 L 976.5 576.0 L 979.5 569.8 L 982.5 563.4 L 985.4 557.1 L 988.2 550.6 L 991.0 544.2 L 993.7 537.7 L 996.4 531.2 L 999.0 524.7 L 1001.6 518.2 L 1004.2 511.7 L 1006.7 505.1 L 1009.3 498.6 L 1011.8 492.0 L 1014.3 485.5 L 1016.9 479.0 L 1019.4 472.5 L 1019.4 472.5 L 1021.9 465.7 L 1024.2 458.4 L 1026.4 450.7 L 1028.6 442.8 L 1030.7 434.7 L 1032.7 426.6 L 1034.8 418.5 L 1036.9 410.6 L 1039.0 403.0 L 1041.3 395.9 L 1043.6 389.3 L 1046.2 383.3 L 1048.9 378.1 L 1051.8 373.7 L 1055.0 370.4 L 1058.5 368.1 L 1058.5 368.1 L 1062.3 367.1 L 1066.7 367.4 L 1071.5 368.8 L 1076.7 371.2 L 1082.1 374.4 L 1087.6 378.2 L 1093.3 382.5 L 1099.0 387.2 L 1104.6 392.1 L 1110.0 397.1 L 1115.2 401.9 L 1120.0 406.5 L 1124.5 410.7 L 1128.5 414.4 L 1131.9 417.3 L 1134.6 419.4" fill="none" stroke="#2b6bff" stroke-width="6.0" stroke-opacity="0.9"/><path d="M 1162.4 411.7 L 1163.8 415.1 L 1165.8 419.3 L 1168.2 424.0 L 1171.0 429.3 L 1174.0 435.1 L 1177.2 441.3 L 1180.5 447.9 L 1183.8 454.7 L 1187.0 461.6 L 1190.0 468.7 L 1192.8 475.9 L 1195.2 483.0 L 1197.3 490.0 L 1198.8 496.8 L 1199.7 503.4 L 1199.9 509.6 L 1199.9 509.6 L 1199.5 515.7 L 1198.6 521.7 L 1197.1 527.7 L 1195.3 533.8 L 1193.0 539.8 L 1190.4 545.8 L 1187.6 551.8 L 1184.5 557.8 L 1181.2 563.8 L 1177.9 569.8 L 1174.5 575.7 L 1171.0 581.7 L 1167.7 587.6 L 1164.4 593.6 L 1161.2 599.5 L 1158.3 605.5 L 1158.3 605.5 L 1155.4 611.4 L 1152.5 617.2 L 1149.5 623.1 L 1146.4 628.9 L 1143.3 634.7 L 1140.1 640.5 L 1137.0 646.3 L 1133.8 652.1 L 1130.6 658.0 L 1127.5 663.8 L 1124.4 669.6 L 1121.4 675.5 L 1118.4 681.4 L 1115.5 687.3 L 1112.7 693.3 L 1110.0 699.3 L 1110.0 699.3 L 1107.5 705.4 L 1105.3 711.6 L 1103.2 718.0 L 1101.3 724.5 L 1099.5 731.0 L 1097.7 737.5 L 1096.0 744.1 L 1094.2 750.6 L 1092.4 757.1 L 1090.5 763.5 L 1088.4 769.8 L 1086.2 775.9 L 1083.7 781.9 L 1081.0 787.7 L 1077.9 793.3 L 1074.5 798.7 L 1074.5 798.7 L 1070.8 803.8 L 1066.9 808.8 L 1062.6 813.6 L 1058.2 818.3 L 1053.6 822.8 L 1048.8 827.2 L 1043.8 831.5 L 1038.7 835.7 L 1033.5 839.8 L 1028.2 843.8 L 1022.8 847.7 L 1017.4 851.5 L 1011.9 855.2 L 1006.4 858.9 L 1000.9 862.5 L 995.4 866.0 L 995.4 866.0 L 989.9 869.5 L 984.2 872.7 L 978.5 875.8 L 972.6 878.7 L 966.6 881.5 L 960.6 884.2 L 954.5 886.9 L 948.3 889.5 L 942.2 892.1 L 936.0 894.7 L 929.9 897.3 L 923.8 899.9 L 917.8 902.7 L 911.8 905.5 L 905.9 908.5 L 900.0 911.7 L 900.0 911.7 L 894.3 914.9 L 888.6 918.2 L 882.9 921.5 L 877.2 924.9 L 871.6 928.4 L 866.0 931.9 L 860.4 935.4 L 854.8 939.0 L 849.3 942.6 L 843.8 946.2 L 838.3 949.9 L 832.9 953.7 L 827.4 957.4 L 822.0 961.2 L 816.6 965.0 L 811.2 968.9 L 811.2 968.9 L 805.9 972.7 L 800.6 976.7 L 795.4 980.7 L 790.2 984.8 L 785.0 988.9 L 779.9 993.1 L 774.8 997.3 L 771.5 1000.0" fill="none" stroke="#2b6bff" stroke-width="6.0" stroke-opacity="0.9"/><path d="M 0.0 531.1 L 4.1 529.8 L 11.1 527.6 L 18.2 525.5 L 25.3 523.3 L 32.4 521.2 L 39.5 519.1 L 46.6 517.1 L 53.7 515.0 L 60.8 513.0 L 67.9 511.0 L 75.0 509.0 L 82.1 507.0 L 89.2 505.0 L 96.3 503.1 L 103.5 501.1 L 103.5 501.1 L 110.6 499.2 L 117.7 497.3 L 124.9 495.4 L 132.0 493.6 L 139.2 491.8 L 146.4 489.9 L 153.5 488.2 L 160.7 486.4 L 167.9 484.6 L 175.1 482.8 L 182.2 481.0 L 189.4 479.3 L 196.6 477.5 L 203.7 475.7 L 210.9 473.9 L 218.1 472.1 L 218.1 472.1 L 225.2 470.2 L 232.4 468.4 L 239.5 466.6 L 246.7 464.7 L 253.9 462.9 L 261.0 461.1 L 268.2 459.2 L 275.3 457.4 L 282.5 455.5 L 289.6 453.7 L 296.8 451.8 L 303.9 450.0 L 311.1 448.2 L 318.3 446.4 L 325.4 444.5 L 332.6 442.7 L 332.6 442.7 L 339.7 440.9 L 346.9 439.1 L 354.1 437.3 L 361.2 435.5 L 368.4 433.7 L 375.6 431.9 L 382.7 430.1 L 389.9 428.3 L 397.1 426.5 L 404.2 424.7 L 411.4 422.9 L 418.6 421.2 L 425.8 419.4 L 432.9 417.6 L 440.1 415.9 L 447.3 414.1 L 447.3 414.1 L 454.5 412.4 L 461.7 410.7 L 468.9 409.2 L 476.2 407.6 L 483.4 406.1 L 490.7 404.6 L 497.9 403.1 L 505.2 401.6 L 512.4 400.0 L 519.7 398.4 L 526.8 396.7 L 534.0 394.9 L 541.1 393.0 L 548.2 391.1 L 555.3 388.9 L 562.2 386.7 L 562.2 386.7 L 569.2 384.3 L 576.1 381.8 L 583.0 379.2 L 589.9 376.5 L 596.7 373.7 L 603.5 370.9 L 610.3 367.9 L 617.1 364.9 L 623.8 361.9 L 630.5 358.7 L 637.1 355.5 L 643.8 352.3 L 650.4 349.0 L 657.0 345.6 L 663.5 342.3 L 670.0 338.8 L 670.0 338.8 L 676.5 335.3 L 683.0 331.8 L 689.5 328.2 L 695.9 324.6 L 702.4 320.9 L 708.8 317.2 L 715.1 313.4 L 721.5 309.5 L 727.7 305.6 L 734.0 301.6 L 740.2 297.6 L 746.3 293.5 L 752.4 289.3 L 758.5 285.0 L 764.4 280.7 L 770.3 276.3 L 770.3 276.3 L 776.1 271.8 L 781.9 267.3 L 787.6 262.6 L 793.3 257.9 L 798.8 253.1 L 804.4 248.2 L 809.9 243.3 L 815.3 238.3 L 820.7 233.3 L 826.1 228.2 L 831.4 223.1 L 836.7 217.9 L 842.0 212.7 L 847.2 207.5 L 852.4 202.3 L 857.6 197.1 L 857.6 197.1 L 862.9 191.7 L 868.4 186.0 L 874.1 180.0 L 879.8 173.7 L 885.6 167.4 L 891.3 161.0 L 897.0 154.6 L 902.6 148.3 L 908.0 142.2 L 913.1 136.3 L 918.0 130.6 L 922.6 125.4 L 926.8 120.6 L 930.5 116.2 L 933.8 112.5 L 936.6 109.4" fill="none" stroke="#2b6bff" stroke-width="6.0" stroke-opacity="0.9"/></g><g id="clips"><circle cx="975.2" cy="131.9" r="2" fill="none" stroke="#0b5" stroke-width="0.6"/><circle cx="0.0" cy="772.1" r="2" fill="none" stroke="#0b5" stroke-width="0.6"/><circle cx="105.6" cy="1000.0" r="2" fill="none" stroke="#0b5" stroke-width="0.6"/><circle cx="1134.6" cy="419.4" r="2" fill="none" stroke="#0b5" stroke-width="0.6"/><circle cx="1162.4" cy="411.7" r="2" fill="none" stroke="#0b5" stroke-width="0.6"/><circle cx="771.5" cy="1000.0" r="2" fill="none" stroke="#0b5" stroke-width="0.6"/><circle cx="0.0" cy="531.1" r="2" fill="none" stroke="#0b5" stroke-width="0.6"/><circle cx="936.6" cy="109.4" r="2" fill="none" stroke="#0b5" stroke-width="0.6"/></g><g id="power"><circle cx="0.0" cy="772.1" r="5" fill="none" stroke="#e33" stroke-width="1"/><circle cx="0.0" cy="531.1" r="5" fill="none" stroke="#e33" stroke-width="1"/><circle cx="771.5" cy="1000.0" r="5" fill="none" stroke="#e33" stroke-width="1"/></g><g id="bridges"></g></svg>