<svg xmlns="http://www.w3.org/2000/svg" width="2000mm" height="1000mm" viewBox="0 0 2000 1000"><g id="outline"><rect x="0" y="0" width="2000" height="1000" fill="none" stroke="#000" stroke-width="1"/></g><g id="channels"><path d="M 1529.5 0.0 L 1528.4 2.7 L 1525.6 8.6 L 1522.3 14.7 L 1518.6 21.0 L 1514.5 27.3 L 1510.2 33.7 L 1505.7 40.2 L 1501.0 46.5 L 1496.3 52.9 L 1491.6 59.1 L 1486.9 65.1 L 1482.4 70.9 L 1478.0 76.5 L 1478.0 76.5 L 1473.7 81.8 L 1469.1 87.0 L 1464.3 92.0 L 1459.3 96.9 L 1454.1 101.7 L 1448.9 106.4 L 1443.6 111.1 L 1438.2 115.8 L 1432.9 120.5 L 1427.6 125.2 L 1422.4 130.0 L 1417.3 134.8 L 1412.4 139.8 L 1407.7 144.9 L 1403.3 150.2 L 1399.1 155.7 L 1399.1 155.7 L 1395.2 161.5 L 1391.7 167.7 L 1388.5 174.1 L 1385.6 180.7 L 1382.8 187.5 L 1380.2 194.4 L 1377.6 201.3 L 1375.1 208.2 L 1372.5 215.1 L 1369.8 221.8 L 1367.0 228.3 L 1364.0 234.5 L 1360.7 240.5 L 1357.1 246.0 L 1353.1 251.2 L 1348.6 255.8 L 1348.6 255.8 L 1343.8 260.1 L 1338.7 264.0 L 1333.3 267.7 L 1327.6 271.1 L 1321.8 274.2 L 1315.7 277.1 L 1309.4 279.8 L 1303.0 282.3 L 1296.5 284.5 L 1289.9 286.6 L 1283.3 288.5 L 1276.5 290.3 L 1269.8 291.9 L 1263.1 293.3 L 1256.4 294.6 L 1249.8 295.8 L 1249.8 295.8 L 1243.1 296.8 L 1236.3 297.2 L 1229.5 297.4 L 1222.5 297.1 L 1215.5 296.7 L 1208.4 296.0 L 1201.3 295.3 L 1194.1 294.4 L 1187.0 293.6 L 1179.8 292.8 L 1172.7 292.1 L 1165.6 291.7 L 1158.5 291.4 L 1151.5 291.5 L 1144.6 292.0 L 1137.8 292.9 L 1137.8 292.9 L 1131.1 294.1 L 1124.3 295.6 L 1117.6 297.3 L 1110.9 299.2 L 1104.3 301.3 L 1097.7 303.5 L 1091.1 306.0 L 1084.5 308.5 L 1078.0 311.2 L 1071.5 313.9 L 1065.0 316.8 L 1058.6 319.7 L 1052.2 322.7 L 1045.8 325.7 L 1039.5 328.7 L 1033.2 331.8 L 1033.2 331.8 L 1027.0 334.8 L 1020.8 338.1 L 1014.6 341.4 L 1008.5 344.9 L 1002.5 348.4 L 996.5 352.0 L 990.5 355.7 L 984.5 359.4 L 978.6 363.2 L 972.7 367.0 L 966.7 370.8 L 960.8 374.6 L 954.9 378.4 L 948.9 382.2 L 943.0 385.9 L 937.0 389.6 L 937.0 389.6 L 931.0 393.2 L 925.0 396.9 L 919.0 400.5 L 913.0 404.2 L 907.1 407.9 L 901.1 411.6 L 895.1 415.3 L 889.2 419.0 L 883.2 422.7 L 877.2 426.3 L 871.3 430.0 L 865.3 433.7 L 859.3 437.3 L 853.3 441.0 L 847.3 444.6 L 841.3 448.2 L 841.3 448.2 L 835.3 451.9 L 829.3 455.5 L 823.3 459.2 L 817.3 462.9 L 811.3 466.5 L 805.3 470.2 L 799.3 473.9 L 793.3 477.5 L 787.3 481.2 L 781.2 484.7 L 775.2 488.3 L 769.1 491.7 L 763.0 495.1 L 756.8 498.5 L 750.6 501.7 L 744.4 504.9 L 744.4 504.9 L 738.1 508.0 L 731.8 511.1 L 725.5 514.2 L 719.2 517.2 L 712.8 520.2 L 706.4 523.2 L 700.0 526.1 L 693.6 528.9 L 687.1 531.7 L 680.6 534.3 L 674.1 536.9 L 667.6 539.4 L 661.0 541.8 L 654.4 544.0 L 647.7 546.1 L 641.1 548.1 L 641.1 548.1 L 634.4 549.9 L 627.6 551.5 L 620.7 552.9 L 613.9 554.2 L 606.9 555.3 L 600.0 556.3 L 593.0 557.3 L 586.0 558.1 L 579.0 559.0 L 572.0 559.8 L 565.0 560.7 L 558.0 561.6 L 551.1 562.6 L 544.1 563.7 L 537.3 564.9 L 530.4 566.3 L 530.4 566.3 L 523.5 567.7 L 516.6 569.0 L 509.6 570.3 L 502.6 571.6 L 495.6 572.9 L 488.6 574.2 L 481.6 575.5 L 474.7 576.9 L 467.8 578.5 L 461.0 580.2 L 454.2 582.0 L 447.6 584.1 L 441.1 586.3 L 434.7 588.8 L 428.5 591.6 L 422.4 594.6 L 422.4 594.6 L 416.5 598.0 L 410.7 601.6 L 405.1 605.5 L 399.5 609.6 L 394.1 613.9 L 388.7 618.4 L 383.5 623.1 L 378.3 627.9 L 373.2 632.8 L 368.2 637.9 L 363.3 643.0 L 358.4 648.1 L 353.5 653.3 L 348.7 658.5 L 344.0 663.7 L 339.2 668.8 L 339.2 668.8 L 334.6 674.0 L 330.0 679.3 L 325.5 684.6 L 321.1 690.1 L 316.8 695.6 L 312.6 701.2 L 308.3 706.8 L 304.2 712.5 L 300.1 718.2 L 296.0 723.9 L 291.9 729.7 L 287.8 735.4 L 283.8 741.2 L 279.7 746.9 L 275.6 752.7 L 271.5 758.3 L 271.5 758.3 L 267.4 764.0 L 263.3 769.7 L 259.3 775.5 L 255.2 781.2 L 251.2 786.9 L 247.2 792.7 L 243.2 798.4 L 239.2 804.2 L 235.2 810.0 L 231.2 815.8 L 227.3 821.6 L 223.3 827.4 L 219.3 833.1 L 215.4 838.9 L 211.4 844.7 L 207.4 850.5 L 207.4 850.5 L 203.4 856.3 L 199.5 862.1 L 195.5 867.9 L 191.6 873.7 L 187.7 879.5 L 183.7 885.3 L 179.8 891.1 L 175.9 896.9 L 171.9 902.7 L 168.0 908.5 L 164.1 914.4 L 160.1 920.2 L 156.2 926.0 L 152.2 931.7 L 148.2 937.5 L 144.2 943.3 L 144.2 943.3 L 140.2 949.0 L 136.0 954.8 L 131.8 960.5 L 127.5 966.2 L 123.2 971.8 L 118.9 977.5 L 114.6 983.2 L 110.3 988.9 L 106.1 994.6 L 102.1 1000.0" fill="none" stroke="#2b6bff" stroke-width="6.0" stroke-opacity="0.9"/><path d="M 252.0 1000.0 L 252.6 999.6 L 258.5 995.8 L 264.4 992.1 L 270.4 988.3 L 276.3 984.6 L 282.3 980.9 L 288.3 977.3 L 294.2 973.6 L 300.2 969.9 L 306.2 966.2 L 312.2 962.5 L 318.1 958.9 L 324.1 955.1 L 324.1 955.1 L 330.0 951.4 L 336.0 947.7 L 342.0 944.0 L 347.9 940.3 L 353.9 936.6 L 359.9 932.9 L 365.8 929.3 L 371.8 925.6 L 377.8 921.9 L 383.7 918.2 L 389.7 914.5 L 395.7 910.8 L 401.7 907.2 L 407.6 903.5 L 413.6 899.8 L 419.6 896.1 L 419.6 896.1 L 425.5 892.4 L 431.4 888.6 L 437.3 884.7 L 443.2 880.9 L 449.1 877.0 L 455.0 873.1 L 460.8 869.2 L 466.7 865.4 L 472.6 861.6 L 478.6 857.8 L 484.5 854.1 L 490.5 850.4 L 496.5 846.9 L 502.6 843.5 L 508.8 840.1 L 515.0 836.9 L 515.0 836.9 L 521.2 833.9 L 527.5 830.8 L 533.8 827.8 L 540.2 824.9 L 546.6 822.0 L 553.0 819.2 L 559.5 816.5 L 566.0 813.9 L 572.5 811.3 L 579.1 808.9 L 585.7 806.5 L 592.3 804.2 L 598.9 802.1 L 605.6 800.0 L 612.3 798.1 L 619.0 796.2 L 619.0 796.2 L 625.7 794.6 L 632.5 793.2 L 639.4 791.9 L 646.3 790.8 L 653.2 789.8 L 660.2 789.0 L 667.2 788.2 L 674.2 787.5 L 681.2 786.8 L 688.2 786.1 L 695.3 785.4 L 702.3 784.6 L 709.3 783.8 L 716.3 782.8 L 723.2 781.8 L 730.1 780.6 L 730.1 780.6 L 737.0 779.3 L 743.9 777.9 L 750.7 776.4 L 757.6 774.9 L 764.4 773.3 L 771.2 771.7 L 778.0 770.0 L 784.9 768.4 L 791.7 766.7 L 798.5 765.0 L 805.3 763.3 L 812.1 761.6 L 818.9 760.0 L 825.8 758.4 L 832.6 756.8 L 839.5 755.3 L 839.5 755.3 L 846.3 753.8 L 853.2 752.4 L 860.0 750.9 L 866.9 749.5 L 873.8 748.1 L 880.7 746.7 L 887.5 745.3 L 894.4 743.9 L 901.3 742.5 L 908.2 741.2 L 915.1 739.8 L 921.9 738.5 L 928.8 737.1 L 935.7 735.8 L 942.6 734.4 L 949.5 733.1 L 949.5 733.1 L 956.4 731.7 L 963.3 730.4 L 970.2 729.2 L 977.1 727.9 L 984.0 726.7 L 990.9 725.5 L 997.8 724.3 L 1004.7 723.1 L 1011.7 721.8 L 1018.6 720.5 L 1025.5 719.3 L 1032.3 717.9 L 1039.2 716.5 L 1046.1 715.1 L 1052.9 713.6 L 1059.8 712.0 L 1059.8 712.0 L 1066.6 710.4 L 1073.4 708.8 L 1080.2 707.1 L 1087.0 705.4 L 1093.8 703.7 L 1100.6 701.9 L 1107.4 700.1 L 1114.2 698.3 L 1121.0 696.4 L 1127.7 694.5 L 1134.4 692.5 L 1141.2 690.4 L 1147.8 688.3 L 1154.5 686.2 L 1161.1 684.0 L 1167.8 681.7 L 1167.8 681.7 L 1174.4 679.4 L 1181.0 677.0 L 1187.7 674.7 L 1194.3 672.3 L 1201.0 669.9 L 1207.6 667.5 L 1214.3 665.0 L 1220.8 662.4 L 1227.4 659.7 L 1233.9 657.0 L 1240.3 654.1 L 1246.6 651.1 L 1252.8 648.0 L 1259.0 644.8 L 1265.0 641.4 L 1270.9 637.8 L 1270.9 637.8 L 1276.7 634.0 L 1282.5 630.1 L 1288.1 626.1 L 1293.7 621.9 L 1299.2 617.7 L 1304.7 613.2 L 1310.0 608.7 L 1315.3 604.1 L 1320.5 599.4 L 1325.7 594.6 L 1330.8 589.7 L 1335.7 584.8 L 1340.7 579.8 L 1345.5 574.7 L 1350.3 569.6 L 1355.0 564.5 L 1355.0 564.5 L 1359.6 559.3 L 1364.1 554.0 L 1368.4 548.5 L 1372.7 543.0 L 1377.0 537.4 L 1381.1 531.7 L 1385.2 526.0 L 1389.2 520.2 L 1393.1 514.4 L 1397.0 508.5 L 1400.9 502.6 L 1404.7 496.7 L 1408.5 490.7 L 1412.3 484.8 L 1416.1 478.9 L 1419.9 473.0 L 1419.9 473.0 L 1423.7 467.1 L 1427.5 461.2 L 1431.2 455.2 L 1435.0 449.3 L 1438.7 443.3 L 1442.3 437.3 L 1446.0 431.3 L 1449.6 425.3 L 1453.1 419.2 L 1456.6 413.1 L 1460.1 407.0 L 1463.5 400.9 L 1466.8 394.7 L 1470.1 388.5 L 1473.3 382.3 L 1476.5 376.0 L 1476.5 376.0 L 1479.5 369.8 L 1482.5 363.4 L 1485.4 357.1 L 1488.2 350.6 L 1491.0 344.2 L 1493.7 337.7 L 1496.4 331.2 L 1499.0 324.7 L 1501.6 318.2 L 1504.2 311.7 L 1506.7 305.1 L 1509.3 298.6 L 1511.8 292.0 L 1514.3 285.5 L 1516.9 279.0 L 1519.4 272.5 L 1519.4 272.5 L 1521.9 265.7 L 1524.2 258.4 L 1526.4 250.7 L 1528.6 242.8 L 1530.7 234.7 L 1532.7 226.6 L 1534.8 218.5 L 1536.9 210.6 L 1539.0 203.0 L 1541.3 195.9 L 1543.6 189.3 L 1546.2 183.3 L 1548.9 178.1 L 1551.8 173.7 L 1555.0 170.4 L 1558.5 168.1 L 1558.5 168.1 L 1562.3 167.1 L 1566.7 167.4 L 1571.5 168.8 L 1576.7 171.2 L 1582.1 174.4 L 1587.6 178.2 L 1593.3 182.5 L 1599.0 187.2 L 1604.6 192.1 L 1610.0 197.1 L 1615.2 201.9 L 1620.0 206.5 L 1624.5 210.7 L 1628.5 214.4 L 1631.9 217.3 L 1634.6 219.4" fill="none" stroke="#2b6bff" stroke-width="6.0" stroke-opacity="0.9"/><path d="M 1662.4 211.7 L 1663.8 215.1 L 1665.8 219.3 L 1668.2 224.0 L 1671.0 229.3 L 1674.0 235.1 L 1677.2 241.3 L 1680.5 247.9 L 1683.8 254.7 L 1687.0 261.6 L 1690.0 268.7 L 1692.8 275.9 L 1695.2 283.0 L 1697.3 290.0 L 1698.8 296.8 L 1699.7 303.4 L 1699.9 309.6 L 1699.9 309.6 L 1699.5 315.7 L 1698.6 321.7 L 1697.1 327.7 L 1695.3 333.8 L 1693.0 339.8 L 1690.4 345.8 L 1687.6 351.8 L 1684.5 357.8 L 1681.2 363.8 L 1677.9 369.8 L 1674.5 375.7 L 1671.0 381.7 L 1667.7 387.6 L 1664.4 393.6 L 1661.2 399.5 L 1658.3 405.5 L 1658.3 405.5 L 1655.4 411.4 L 1652.5 417.2 L 1649.5 423.1 L 1646.4 428.9 L 1643.3 434.7 L 1640.1 440.5 L 1637.0 446.3 L 1633.8 452.1 L 1630.6 458.0 L 1627.5 463.8 L 1624.4 469.6 L 1621.4 475.5 L 1618.4 481.4 L 1615.5 487.3 L 1612.7 493.3 L 1610.0 499.3 L 1610.0 499.3 L 1607.5 505.4 L 1605.3 511.6 L 1603.2 518.0 L 1601.3 524.5 L 1599.5 531.0 L 1597.7 537.5 L 1596.0 544.1 L 1594.2 550.6 L 1592.4 557.1 L 1590.5 563.5 L 1588.4 569.8 L 1586.2 575.9 L 1583.7 581.9 L 1581.0 587.7 L 1577.9 593.3 L 1574.5 598.7 L 1574.5 598.7 L 1570.8 603.8 L 1566.9 608.8 L 1562.6 613.6 L 1558.2 618.3 L 1553.6 622.8 L 1548.8 627.2 L 1543.8 631.5 L 1538.7 635.7 L 1533.5 639.8 L 1528.2 643.8 L 1522.8 647.7 L 1517.4 651.5 L 1511.9 655.2 L 1506.4 658.9 L 1500.9 662.5 L 1495.4 666.0 L 1495.4 666.0 L 1489.9 669.5 L 1484.2 672.7 L 1478.5 675.8 L 1472.6 678.7 L 1466.6 681.5 L 1460.6 684.2 L 1454.5 686.9 L 1448.3 689.5 L 1442.2 692.1 L 1436.0 694.7 L 1429.9 697.3 L 1423.8 699.9 L 1417.8 702.7 L 1411.8 705.5 L 1405.9 708.5 L 1400.0 711.7 L 1400.0 711.7 L 1394.3 714.9 L 1388.6 718.2 L 1382.9 721.5 L 1377.2 724.9 L 1371.6 728.4 L 1366.0 731.9 L 1360.4 735.4 L 1354.8 739.0 L 1349.3 742.6 L 1343.8 746.2 L 1338.3 749.9 L 1332.9 753.7 L 1327.4 757.4 L 1322.0 761.2 L 1316.6 765.0 L 1311.2 768.9 L 1311.2 768.9 L 1305.9 772.7 L 1300.6 776.7 L 1295.4 780.7 L 1290.2 784.8 L 1285.0 788.9 L 1279.9 793.1 L 1274.8 797.3 L 1269.7 801.5 L 1264.6 805.7 L 1259.5 809.9 L 1254.4 814.2 L 1249.3 818.4 L 1244.2 822.6 L 1239.1 826.7 L 1233.9 830.8 L 1228.7 834.9 L 1228.7 834.9 L 1223.5 839.0 L 1218.3 843.0 L 1213.1 847.1 L 1207.8 851.2 L 1202.6 855.2 L 1197.4 859.3 L 1192.2 863.3 L 1186.9 867.3 L 1181.6 871.3 L 1176.4 875.3 L 1171.1 879.3 L 1165.8 883.2 L 1160.4 887.1 L 1155.1 891.0 L 1149.7 894.8 L 1144.3 898.6 L 1144.3 898.6 L 1138.8 902.3 L 1133.4 906.0 L 1127.9 909.7 L 1122.4 913.4 L 1116.9 917.1 L 1111.4 920.7 L 1105.8 924.3 L 1100.3 927.9 L 1094.7 931.4 L 1089.1 934.9 L 1083.4 938.4 L 1077.8 941.8 L 1072.1 945.2 L 1066.4 948.5 L 1060.6 951.7 L 1054.9 954.9 L 1054.9 954.9 L 1049.1 958.1 L 1043.3 961.2 L 1037.4 964.3 L 1031.6 967.4 L 1025.7 970.4 L 1019.8 973.4 L 1013.8 976.4 L 1007.9 979.2 L 1001.9 982.1 L 995.9 984.9 L 989.9 987.6 L 983.8 990.2 L 977.7 992.8 L 971.6 995.3 L 965.5 997.7 L 959.3 1000.0 L 959.3 1000.0 L 959.3 1000.0" fill="none" stroke="#2b6bff" stroke-width="6.0" stroke-opacity="0.9"/><path d="M 0.0 697.4 L 3.7 693.0 L 8.4 687.3 L 13.1 681.6 L 17.8 675.9 L 22.5 670.2 L 22.5 670.2 L 27.1 664.5 L 31.8 658.7 L 36.4 653.0 L 41.1 647.2 L 45.7 641.4 L 50.3 635.6 L 54.9 629.9 L 59.5 624.1 L 64.1 618.3 L 68.7 612.5 L 73.3 606.8 L 78.0 601.0 L 82.6 595.3 L 87.4 589.6 L 92.1 584.0 L 96.9 578.3 L 96.9 578.3 L 101.6 572.7 L 106.4 567.0 L 111.2 561.4 L 115.9 555.7 L 120.7 550.0 L 125.5 544.3 L 130.3 538.7 L 135.1 533.1 L 140.0 527.5 L 144.9 522.0 L 149.9 516.5 L 155.0 511.1 L 160.1 505.8 L 165.2 500.6 L 170.5 495.4 L 175.9 490.4 L 175.9 490.4 L 181.3 485.5 L 186.8 480.5 L 192.3 475.7 L 197.9 470.8 L 203.6 466.1 L 209.3 461.4 L 215.0 456.7 L 220.9 452.2 L 226.8 447.7 L 232.7 443.3 L 238.7 439.0 L 244.8 434.8 L 250.9 430.7 L 257.1 426.7 L 263.3 422.8 L 269.6 419.1 L 269.6 419.1 L 276.0 415.5 L 282.5 412.0 L 289.0 408.7 L 295.6 405.6 L 302.3 402.5 L 309.1 399.5 L 315.9 396.7 L 322.8 393.9 L 329.7 391.1 L 336.6 388.4 L 343.6 385.8 L 350.5 383.2 L 357.5 380.6 L 364.4 378.0 L 371.3 375.4 L 378.2 372.7 L 378.2 372.7 L 385.1 370.1 L 392.0 367.5 L 399.0 364.9 L 405.9 362.4 L 412.9 359.9 L 419.8 357.5 L 426.8 355.0 L 433.8 352.6 L 440.8 350.3 L 447.8 347.9 L 454.8 345.6 L 461.9 343.3 L 468.9 341.0 L 475.9 338.7 L 483.0 336.4 L 490.0 334.2 L 490.0 334.2 L 497.0 332.0 L 504.1 329.8 L 511.1 327.6 L 518.2 325.5 L 525.3 323.3 L 532.4 321.2 L 539.5 319.1 L 546.6 317.1 L 553.7 315.0 L 560.8 313.0 L 567.9 311.0 L 575.0 309.0 L 582.1 307.0 L 589.2 305.0 L 596.3 303.1 L 603.5 301.1 L 603.5 301.1 L 610.6 299.2 L 617.7 297.3 L 624.9 295.4 L 632.0 293.6 L 639.2 291.8 L 646.4 289.9 L 653.5 288.2 L 660.7 286.4 L 667.9 284.6 L 675.1 282.8 L 682.2 281.0 L 689.4 279.3 L 696.6 277.5 L 703.7 275.7 L 710.9 273.9 L 718.1 272.1 L 718.1 272.1 L 725.2 270.2 L 732.4 268.4 L 739.5 266.6 L 746.7 264.7 L 753.9 262.9 L 761.0 261.1 L 768.2 259.2 L 775.3 257.4 L 782.5 255.5 L 789.6 253.7 L 796.8 251.8 L 803.9 250.0 L 811.1 248.2 L 818.3 246.4 L 825.4 244.5 L 832.6 242.7 L 832.6 242.7 L 839.7 240.9 L 846.9 239.1 L 854.1 237.3 L 861.2 235.5 L 868.4 233.7 L 875.6 231.9 L 882.7 230.1 L 889.9 228.3 L 897.1 226.5 L 904.2 224.7 L 911.4 222.9 L 918.6 221.2 L 925.8 219.4 L 932.9 217.6 L 940.1 215.9 L 947.3 214.1 L 947.3 214.1 L 954.5 212.4 L 961.7 210.7 L 968.9 209.2 L 976.2 207.6 L 983.4 206.1 L 990.7 204.6 L 997.9 203.1 L 1005.2 201.6 L 1012.4 200.0 L 1019.7 198.4 L 1026.8 196.7 L 1034.0 194.9 L 1041.1 193.0 L 1048.2 191.1 L 1055.3 188.9 L 1062.2 186.7 L 1062.2 186.7 L 1069.2 184.3 L 1076.1 181.8 L 1083.0 179.2 L 1089.9 176.5 L 1096.7 173.7 L 1103.5 170.9 L 1110.3 167.9 L 1117.1 164.9 L 1123.8 161.9 L 1130.5 158.7 L 1137.1 155.5 L 1143.8 152.3 L 1150.4 149.0 L 1157.0 145.6 L 1163.5 142.3 L 1170.0 138.8 L 1170.0 138.8 L 1176.5 135.3 L 1183.0 131.8 L 1189.5 128.2 L 1195.9 124.6 L 1202.4 120.9 L 1208.8 117.2 L 1215.1 113.4 L 1221.5 109.5 L 1227.7 105.6 L 1234.0 101.6 L 1240.2 97.6 L 1246.3 93.5 L 1252.4 89.3 L 1258.5 85.0 L 1264.4 80.7 L 1270.3 76.3 L 1270.3 76.3 L 1276.1 71.8 L 1281.9 67.3 L 1287.6 62.6 L 1293.3 57.9 L 1298.8 53.1 L 1304.4 48.2 L 1309.9 43.3 L 1315.3 38.3 L 1320.7 33.3 L 1326.1 28.2 L 1331.4 23.1 L 1336.7 17.9 L 1342.0 12.7 L 1347.2 7.5 L 1352.4 2.3 L 1354.7 0.0" fill="none" stroke="#2b6bff" stroke-width="6.0" stroke-opacity="0.9"/></g><g id="clips"><circle cx="1529.5" cy="0.0" r="2" fill="none" stroke="#0b5" stroke-width="0.6"/><circle cx="102.1" cy="1000.0" r="2" fill="none" stroke="#0b5" stroke-width="0.6"/><circle cx="252.0" cy="1000.0" r="2" fill="none" stroke="#0b5" stroke-width="0.6"/><circle cx="1634.6" cy="219.4" r="2" fill="none" stroke="#0b5" stroke-width="0.6"/><circle cx="1662.4" cy="211.7" r="2" fill="none" stroke="#0b5" stroke-width="0.6"/><circle cx="959.3" cy="1000.0" r="2" fill="none" stroke="#0b5" stroke-width="0.6"/><circle cx="0.0" cy="697.4" r="2" fill="none" stroke="#0b5" stroke-width="0.6"/><circle cx="1354.7" cy="0.0" r="2" fill="none" stroke="#0b5" stroke-width="0.6"/></g><g id="power"><circle cx="1529.6" cy="0.0" r="5" fill="none" stroke="#e33" stroke-width="1"/><circle cx="102.2" cy="1000.0" r="5" fill="none" stroke="#e33" stroke-width="1"/><circle cx="252.1" cy="1000.0" r="5" fill="none" stroke="#e33" stroke-width="1"/><circle cx="959.4" cy="1000.0" r="5" fill="none" stroke="#e33" stroke-width="1"/><circle cx="0.0" cy="697.5" r="5" fill="none" stroke="#e33" stroke-width="1"/><circle cx="1354.7" cy="0.0" r="5" fill="none" stroke="#e33" stroke-width="1"/></g></svg>