<svg xmlns="http://www.w3.org/2000/svg" width="2000mm" height="1000mm" viewBox="0 0 2000 1000"><g id="outline"><rect x="0" y="0" width="2000" height="1000" fill="none" stroke="#000" stroke-width="1"/></g><g id="channels"><path d="M 463.6 269.4 L 463.0 273.1 L 462.3 277.6 L 461.5 282.8 L 460.5 288.5 L 459.5 294.8 L 458.4 301.5 L 457.2 308.5 L 456.0 315.9 L 454.8 323.4 L 453.6 331.1 L 452.4 338.9 L 451.2 346.6 L 450.0 354.2 L 448.9 361.6 L 447.8 368.8 L 446.8 375.7 L 446.8 375.7 L 445.9 382.3 L 444.9 389.0 L 444.0 395.7 L 443.1 402.3 L 442.1 409.0 L 441.2 415.7 L 440.3 422.3 L 439.5 429.0 L 438.6 435.7 L 437.8 442.3 L 437.0 449.0 L 436.3 455.7 L 435.6 462.4 L 434.9 469.1 L 434.3 475.8 L 433.8 482.5 L 433.8 482.5 L 433.3 489.2 L 432.8 495.9 L 432.3 502.6 L 431.9 509.3 L 431.5 516.0 L 431.1 522.7 L 430.8 529.5 L 430.5 536.2 L 430.3 542.9 L 430.1 549.6 L 430.0 556.4 L 429.9 563.1 L 429.9 569.8 L 430.0 576.5 L 430.2 583.2 L 430.4 589.9 L 430.4 589.9 L 430.8 596.6 L 431.2 603.3 L 431.7 610.0 L 432.3 616.7 L 432.9 623.4 L 433.6 630.1 L 434.4 636.7 L 435.2 643.4 L 436.0 650.1 L 436.9 656.8 L 437.9 663.4 L 438.8 670.1 L 439.8 676.8 L 440.9 683.4 L 441.9 690.0 L 442.9 696.7 L 442.9 696.7 L 444.0 703.3 L 445.1 709.9 L 446.3 716.6 L 447.5 723.2 L 448.7 729.8 L 450.0 736.4 L 451.3 743.0 L 452.7 749.6 L 454.0 756.2 L 455.4 762.7 L 456.8 769.3 L 458.2 775.9 L 459.6 782.5 L 461.0 789.1 L 462.4 795.6 L 463.8 802.2 L 463.8 802.2 L 465.2 808.8 L 466.6 815.4 L 468.0 821.9 L 469.4 828.5 L 470.9 835.1 L 472.3 841.7 L 473.8 848.2 L 475.3 854.8 L 476.7 861.3 L 478.2 867.9 L 479.7 874.5 L 481.2 881.0 L 482.7 887.6 L 484.3 894.1 L 485.8 900.7 L 487.3 907.2 L 487.3 907.2 L 488.9 913.7 L 490.4 920.3 L 491.9 926.8 L 493.4 933.4 L 495.0 940.0 L 496.5 946.5 L 498.0 953.1 L 499.6 959.6 L 501.2 966.1 L 502.8 972.7 L 504.4 979.2 L 506.1 985.7 L 507.8 992.2 L 509.6 998.7 L 510.0 1000.0" fill="none" stroke="#39ff88" stroke-width="6.0" stroke-opacity="0.9"/><path d="M 1228.5 1000.0 L 1229.0 996.0 L 1229.8 989.2 L 1230.6 982.4 L 1231.2 975.6 L 1231.8 968.8 L 1232.4 961.9 L 1232.9 955.1 L 1233.3 948.3 L 1233.8 941.4 L 1234.2 934.6 L 1234.6 927.8 L 1234.6 927.8 L 1234.9 921.0 L 1235.2 914.1 L 1235.5 907.3 L 1235.7 900.5 L 1235.9 893.7 L 1236.0 886.8 L 1236.1 880.0 L 1236.1 873.2 L 1236.1 866.3 L 1236.0 859.5 L 1235.9 852.6 L 1235.8 845.8 L 1235.6 839.0 L 1235.3 832.2 L 1235.1 825.3 L 1234.8 818.5 L 1234.8 818.5 L 1234.4 811.7 L 1233.9 804.9 L 1233.3 798.1 L 1232.6 791.3 L 1231.8 784.5 L 1231.0 777.7 L 1230.2 770.9 L 1229.4 764.1 L 1228.5 757.3 L 1227.7 750.5 L 1226.9 743.7 L 1226.1 736.9 L 1225.5 730.1 L 1224.9 723.3 L 1224.3 716.5 L 1223.9 709.7 L 1223.9 709.7 L 1223.6 702.7 L 1223.4 695.3 L 1223.2 687.7 L 1223.1 679.9 L 1223.1 671.9 L 1223.1 664.0 L 1223.1 656.1 L 1223.2 648.3 L 1223.3 640.7 L 1223.3 633.4 L 1223.4 626.5 L 1223.5 620.1 L 1223.6 614.2 L 1223.7 608.9 L 1223.7 604.3 L 1223.8 600.5" fill="none" stroke="#39ff88" stroke-width="6.0" stroke-opacity="0.9"/><path d="M 1269.7 594.9 L 1273.3 595.4 L 1277.7 596.0 L 1282.7 596.7 L 1288.3 597.4 L 1294.5 598.3 L 1301.0 599.2 L 1307.9 600.1 L 1315.1 601.1 L 1322.5 602.1 L 1330.1 603.1 L 1337.7 604.1 L 1345.2 605.0 L 1352.7 605.9 L 1360.0 606.7 L 1367.0 607.5 L 1373.7 608.1 L 1373.7 608.1 L 1380.2 608.7 L 1386.8 609.2 L 1393.3 609.6 L 1399.9 610.0 L 1406.4 610.3 L 1413.0 610.7 L 1419.5 610.9 L 1426.1 611.2 L 1432.6 611.5 L 1439.2 611.8 L 1445.7 612.1 L 1452.3 612.5 L 1458.8 612.9 L 1465.3 613.3 L 1471.9 613.9 L 1478.4 614.5 L 1478.4 614.5 L 1484.9 615.1 L 1491.4 615.7 L 1498.0 616.2 L 1504.5 616.8 L 1511.1 617.4 L 1517.7 617.9 L 1524.2 618.6 L 1530.8 619.3 L 1537.3 620.0 L 1543.8 620.9 L 1550.3 621.8 L 1556.7 622.9 L 1563.1 624.1 L 1569.4 625.5 L 1575.7 627.1 L 1582.0 628.8 L 1582.0 628.8 L 1588.1 630.7 L 1594.2 633.0 L 1600.2 635.4 L 1606.2 638.1 L 1612.1 640.9 L 1618.0 643.8 L 1623.8 646.9 L 1629.7 650.0 L 1635.5 653.1 L 1641.3 656.2 L 1647.2 659.3 L 1653.0 662.3 L 1658.9 665.1 L 1664.9 667.9 L 1670.9 670.5 L 1676.9 672.8 L 1676.9 672.8 L 1683.2 675.2 L 1689.6 677.7 L 1696.3 680.2 L 1703.1 682.9 L 1710.0 685.6 L 1716.9 688.2 L 1723.8 690.7 L 1730.6 693.0 L 1737.4 695.2 L 1743.9 697.1 L 1750.2 698.8 L 1756.3 700.0 L 1762.1 700.9 L 1767.4 701.3 L 1772.4 701.2 L 1776.9 700.6 L 1776.9 700.6 L 1780.7 699.3 L 1783.9 697.2 L 1786.5 694.5 L 1788.6 691.3 L 1790.3 687.6 L 1791.8 683.5 L 1793.0 679.2 L 1794.2 674.7 L 1795.4 670.1 L 1796.7 665.5 L 1798.2 661.0 L 1800.0 656.7 L 1802.1 652.7 L 1804.8 649.0 L 1808.1 645.8 L 1812.0 643.2 L 1812.0 643.2 L 1816.8 641.1 L 1822.4 639.3 L 1828.7 637.8 L 1835.6 636.6 L 1842.8 635.6 L 1850.4 634.7 L 1858.2 634.0 L 1866.1 633.4 L 1873.8 632.8 L 1881.4 632.2 L 1888.6 631.6 L 1895.4 631.0 L 1901.6 630.2 L 1907.1 629.2 L 1911.8 628.1 L 1915.5 626.7 L 1915.5 626.7 L 1918.3 625.1 L 1920.4 623.4 L 1921.8 621.6 L 1922.6 619.6 L 1922.9 617.6 L 1922.7 615.5 L 1922.2 613.4 L 1921.5 611.2 L 1920.5 609.0 L 1919.4 606.8 L 1918.2 604.6 L 1917.1 602.5 L 1916.1 600.4 L 1915.3 598.4 L 1914.7 596.5 L 1914.5 594.7 L 1914.5 594.7 L 1914.4 593.0 L 1914.2 591.4 L 1913.8 589.8 L 1913.3 588.4 L 1912.7 586.9 L 1912.2 585.5 L 1911.7 584.1 L 1911.2 582.8 L 1910.9 581.4 L 1910.7 580.0 L 1910.8 578.6 L 1911.0 577.2 L 1911.6 575.7 L 1912.5 574.1 L 1913.7 572.5 L 1915.3 570.7 L 1915.3 570.7 L 1917.6 568.9 L 1920.9 566.8 L 1924.9 564.6 L 1929.6 562.4 L 1934.6 560.0 L 1940.0 557.6 L 1945.4 555.2 L 1950.8 552.8 L 1956.0 550.4 L 1960.9 548.1 L 1965.2 545.9 L 1968.8 543.9 L 1971.6 542.0 L 1973.3 540.3 L 1973.9 538.8 L 1973.2 537.6 L 1973.2 537.6 L 1970.8 536.7 L 1966.8 536.2 L 1961.4 536.0 L 1954.8 536.0 L 1947.3 536.2 L 1939.0 536.6 L 1930.3 537.0 L 1921.3 537.5 L 1912.3 538.0 L 1903.6 538.3 L 1895.2 538.6 L 1887.6 538.6 L 1880.8 538.5 L 1875.2 538.0 L 1871.0 537.1 L 1868.4 535.9 L 1868.4 535.9 L 1867.5 534.2 L 1868.2 532.1 L 1870.2 529.6 L 1873.3 526.8 L 1877.2 523.7 L 1881.9 520.5 L 1887.0 517.1 L 1892.4 513.7 L 1897.7 510.2 L 1902.9 506.8 L 1907.7 503.5 L 1911.8 500.4 L 1915.1 497.5 L 1917.4 494.9 L 1918.3 492.7 L 1917.8 490.9 L 1917.8 490.9 L 1915.9 489.5 L 1912.8 488.4 L 1908.8 487.6 L 1903.9 487.1 L 1898.3 486.8 L 1892.2 486.7 L 1885.5 486.7 L 1878.5 486.7 L 1871.3 486.8 L 1864.0 486.9 L 1856.7 486.9 L 1849.6 486.9 L 1842.8 486.7 L 1836.4 486.3 L 1830.5 485.6 L 1825.4 484.7 L 1825.4 484.7 L 1820.7 483.5 L 1816.5 481.8 L 1812.5 479.9 L 1808.7 477.7 L 1805.1 475.3 L 1801.7 472.8 L 1798.3 470.3 L 1795.0 467.8 L 1791.7 465.4 L 1788.3 463.2 L 1784.9 461.2 L 1781.3 459.5 L 1777.4 458.2 L 1773.4 457.3 L 1769.0 456.9 L 1764.3 457.1 L 1764.3 457.1 L 1759.3 457.9 L 1754.1 459.4 L 1748.7 461.3 L 1743.1 463.7 L 1737.3 466.5 L 1731.4 469.6 L 1725.4 473.0 L 1719.3 476.5 L 1713.1 480.0 L 1706.8 483.6 L 1700.5 487.1 L 1694.2 490.4 L 1687.8 493.5 L 1681.5 496.3 L 1675.2 498.7 L 1669.0 500.7 L 1669.0 500.7 L 1662.8 502.3 L 1656.5 503.9 L 1650.2 505.3 L 1643.8 506.7 L 1637.4 507.9 L 1630.9 508.9 L 1624.4 509.9 L 1617.9 510.7 L 1611.4 511.4 L 1604.9 511.9 L 1598.4 512.3 L 1591.9 512.5 L 1585.4 512.6 L 1578.9 512.6 L 1572.5 512.4 L 1566.1 512.0 L 1566.1 512.0 L 1559.7 511.4 L 1553.3 510.6 L 1546.9 509.6 L 1540.5 508.4 L 1534.1 507.1 L 1527.7 505.6 L 1521.3 503.9 L 1514.9 502.2 L 1508.6 500.3 L 1502.2 498.4 L 1495.9 496.4 L 1489.6 494.3 L 1483.3 492.2 L 1477.1 490.0 L 1470.9 487.9 L 1464.7 485.8 L 1464.7 485.8 L 1458.5 483.6 L 1452.4 481.2 L 1446.4 478.8 L 1440.4 476.2 L 1434.4 473.6 L 1428.4 470.9 L 1422.4 468.2 L 1416.5 465.4 L 1410.5 462.6 L 1404.6 459.8 L 1398.6 457.0 L 1392.7 454.3 L 1386.7 451.6 L 1380.7 448.9 L 1374.7 446.3 L 1368.6 443.8 L 1368.6 443.8 L 1362.5 441.4 L 1356.5 438.8 L 1350.4 436.1 L 1344.3 433.4 L 1338.2 430.7 L 1332.1 428.0 L 1326.0 425.3 L 1319.9 422.8 L 1313.8 420.3 L 1307.6 417.9 L 1301.4 415.7 L 1295.3 413.7 L 1289.1 411.9 L 1282.9 410.3 L 1276.6 409.0 L 1270.4 408.0 L 1270.4 408.0 L 1264.0 407.2 L 1257.4 406.4 L 1250.8 405.8 L 1244.0 405.2 L 1237.2 404.9 L 1230.3 404.7 L 1223.4 404.6 L 1216.6 404.8 L 1209.9 405.3 L 1203.3 405.9 L 1196.8 406.9 L 1190.5 408.1 L 1184.4 409.7 L 1178.6 411.6 L 1173.1 413.9 L 1167.9 416.6 L 1167.9 416.6 L 1162.9 419.7 L 1158.2 423.3 L 1153.6 427.3 L 1149.2 431.7 L 1145.0 436.5 L 1141.0 441.6 L 1137.1 446.9 L 1133.4 452.4 L 1129.9 458.2 L 1126.5 464.0 L 1123.3 470.0 L 1120.2 476.1 L 1117.4 482.1 L 1114.6 488.2 L 1112.1 494.2 L 1109.7 500.1 L 1109.7 500.1 L 1107.5 506.0 L 1105.5 512.1 L 1103.9 518.3 L 1102.4 524.5 L 1101.1 530.9 L 1100.0 537.4 L 1099.0 543.9 L 1098.2 550.5 L 1097.5 557.1 L 1096.8 563.8 L 1096.2 570.5 L 1095.7 577.2 L 1095.1 583.8 L 1094.6 590.4 L 1094.0 597.0 L 1093.3 603.6 L 1093.3 603.6 L 1092.7 610.1 L 1092.1 616.6 L 1091.6 623.1 L 1091.1 629.7 L 1090.6 636.2 L 1090.2 642.7 L 1089.9 649.3 L 1089.6 655.8 L 1089.3 662.4 L 1089.0 669.0 L 1088.8 675.5 L 1088.6 682.1 L 1088.4 688.6 L 1088.2 695.2 L 1088.0 701.7 L 1087.8 708.3 L 1087.8 708.3 L 1087.7 714.9 L 1087.9 721.7 L 1088.2 728.6 L 1088.6 735.6 L 1089.1 742.6 L 1089.6 749.6 L 1090.1 756.6 L 1090.6 763.6 L 1090.9 770.5 L 1091.2 777.2 L 1091.2 783.8 L 1091.1 790.2 L 1090.7 796.4 L 1090.0 802.3 L 1089.0 807.9 L 1087.5 813.2 L 1087.5 813.2 L 1085.7 818.4 L 1083.6 823.7 L 1081.2 829.0 L 1078.5 834.4 L 1075.6 839.6 L 1072.4 844.7 L 1069.1 849.6 L 1065.6 854.2 L 1062.0 858.4 L 1058.3 862.2 L 1054.6 865.5 L 1050.8 868.2 L 1047.0 870.2 L 1043.2 871.5 L 1039.5 872.1 L 1035.8 871.8 L 1035.8 871.8 L 1032.2 870.5 L 1028.4 868.3 L 1024.5 865.1 L 1020.5 861.2 L 1016.5 856.6 L 1012.4 851.4 L 1008.3 845.8 L 1004.2 839.7 L 1000.0 833.3 L 995.9 826.8 L 991.8 820.2 L 987.7 813.5 L 983.7 807.0 L 979.8 800.7 L 976.0 794.6 L 972.3 789.0 L 972.3 789.0 L 968.6 783.6 L 965.0 778.1 L 961.5 772.6 L 957.9 767.1 L 954.5 761.5 L 951.0 755.9 L 947.6 750.3 L 944.2 744.7 L 940.9 739.0 L 937.6 733.3 L 934.4 727.6 L 931.2 721.8 L 928.1 716.1 L 925.0 710.3 L 921.9 704.5 L 918.9 698.7 L 918.9 698.7 L 915.9 692.9 L 912.9 687.0 L 909.8 681.2 L 906.8 675.3 L 903.7 669.4 L 900.7 663.5 L 897.8 657.6 L 894.9 651.6 L 892.2 645.6 L 889.5 639.6 L 887.0 633.6 L 884.7 627.5 L 882.5 621.4 L 880.5 615.2 L 878.7 609.0 L 877.2 602.8 L 877.2 602.8 L 875.9 596.5 L 874.8 590.2 L 873.9 583.8 L 873.2 577.3 L 872.6 570.8 L 872.2 564.3 L 872.0 557.8 L 871.9 551.2 L 871.8 544.6 L 871.9 538.0 L 872.1 531.4 L 872.4 524.8 L 872.7 518.2 L 873.1 511.7 L 873.5 505.1 L 873.9 498.6 L 873.9 498.6 L 874.4 492.1 L 875.0 485.7 L 875.7 479.2 L 876.6 472.7 L 877.5 466.2 L 878.5 459.7 L 879.6 453.2 L 880.8 446.8 L 882.0 440.3 L 883.3 433.8 L 884.5 427.4 L 885.8 420.9 L 887.1 414.5 L 888.4 408.0 L 889.7 401.6 L 890.9 395.1 L 890.9 395.1 L 892.2 388.7 L 893.4 382.3 L 894.6 375.8 L 895.8 369.4 L 897.1 362.9 L 898.3 356.5 L 899.6 350.1 L 900.9 343.6 L 902.3 337.2 L 903.7 330.8 L 905.1 324.4 L 906.6 318.0 L 908.2 311.7 L 909.8 305.3 L 911.4 299.0 L 913.2 292.7 L 913.2 292.7 L 915.1 286.4 L 917.1 280.2 L 919.2 274.0 L 921.4 267.8 L 923.7 261.7 L 926.1 255.5 L 928.5 249.4 L 930.9 243.3 L 933.3 237.2 L 935.7 231.1 L 938.0 224.9 L 940.3 218.8 L 942.4 212.6 L 944.5 206.4 L 946.4 200.2 L 948.2 193.9 L 948.2 193.9 L 949.9 187.6 L 951.6 181.3 L 953.3 174.9 L 955.0 168.6 L 956.6 162.2 L 958.2 155.8 L 959.6 149.4 L 961.1 143.0 L 962.4 136.5 L 963.6 130.1 L 964.6 123.7 L 965.6 117.2 L 966.3 110.8 L 966.9 104.3 L 967.4 97.9 L 967.6 91.4 L 967.6 91.4 L 967.6 85.0 L 967.4 78.6 L 967.0 72.1 L 966.4 65.6 L 965.6 59.1 L 964.7 52.7 L 963.7 46.2 L 962.5 39.7 L 961.3 33.2 L 960.1 26.7 L 958.8 20.2 L 957.4 13.8 L 956.1 7.3 L 954.9 0.8 L 954.7 0.0" fill="none" stroke="#39ff88" stroke-width="6.0" stroke-opacity="0.9"/><path d="M 526.6 0.0 L 525.4 3.3 L 523.2 9.5 L 521.1 15.7 L 518.9 21.9 L 516.8 28.1 L 514.8 34.3 L 512.7 40.5 L 510.8 46.8 L 510.8 46.8 L 508.8 53.0 L 506.8 59.3 L 504.8 65.5 L 502.7 71.8 L 500.7 78.0 L 498.7 84.3 L 496.8 90.6 L 494.9 96.9 L 493.0 103.2 L 491.2 109.5 L 489.5 115.8 L 487.9 122.2 L 486.3 128.5 L 484.9 134.9 L 483.6 141.3 L 482.4 147.7 L 482.4 147.7 L 481.4 154.1 L 480.4 160.5 L 479.6 167.0 L 478.8 173.5 L 478.2 180.0 L 477.6 186.6 L 477.1 193.1 L 476.7 199.6 L 476.3 206.2 L 476.1 212.8 L 475.9 219.3 L 475.7 225.9 L 475.6 232.4 L 475.6 239.0 L 475.6 245.5 L 475.7 252.1 L 475.7 252.1 L 475.8 258.6 L 476.1 265.1 L 476.4 271.6 L 476.9 278.2 L 477.4 284.7 L 477.9 291.2 L 478.6 297.8 L 479.2 304.3 L 480.0 310.8 L 480.7 317.4 L 481.5 323.9 L 482.3 330.4 L 483.1 336.9 L 483.9 343.4 L 484.7 350.0 L 485.4 356.5 L 485.4 356.5 L 486.2 363.2 L 487.1 370.2 L 488.1 377.5 L 489.1 384.9 L 490.1 392.4 L 491.2 400.0 L 492.3 407.5 L 493.3 414.9 L 494.4 422.1 L 495.4 429.0 L 496.4 435.6 L 497.3 441.7 L 498.1 447.3 L 498.9 452.3 L 499.5 456.7 L 500.0 460.3" fill="none" stroke="#39ff88" stroke-width="6.0" stroke-opacity="0.9"/><path d="M 894.0 459.3 L 895.9 455.7 L 898.1 451.4 L 900.8 446.5 L 903.7 441.0 L 906.9 434.9 L 910.3 428.5 L 913.9 421.7 L 917.7 414.7 L 921.5 407.4 L 925.4 400.0 L 929.4 392.5 L 933.2 385.1 L 937.1 377.7 L 940.8 370.6 L 944.3 363.6 L 947.7 357.0 L 947.7 357.0 L 950.9 350.6 L 954.2 344.1 L 957.5 337.7 L 960.7 331.2 L 964.0 324.7 L 967.2 318.3 L 970.4 311.8 L 973.6 305.3 L 976.8 298.8 L 979.9 292.3 L 983.0 285.8 L 986.1 279.3 L 989.1 272.7 L 992.1 266.2 L 995.1 259.6 L 998.0 253.0 L 998.0 253.0 L 1000.8 246.4 L 1003.7 239.7 L 1006.6 233.1 L 1009.5 226.4 L 1012.4 219.8 L 1015.2 213.1 L 1018.0 206.4 L 1020.8 199.7 L 1023.5 193.0 L 1026.1 186.2 L 1028.6 179.4 L 1031.0 172.6 L 1033.3 165.8 L 1035.4 158.9 L 1037.4 152.1 L 1039.3 145.2 L 1039.3 145.2 L 1041.0 138.2 L 1042.6 131.2 L 1044.1 124.2 L 1045.5 117.1 L 1046.7 110.1 L 1047.9 103.0 L 1048.9 95.8 L 1049.9 88.7 L 1050.8 81.5 L 1051.6 74.4 L 1052.3 67.2 L 1053.0 60.0 L 1053.6 52.8 L 1054.2 45.6 L 1054.7 38.4 L 1055.2 31.3 L 1055.2 31.3 L 1055.5 24.1 L 1055.6 16.9 L 1055.4 9.6 L 1055.1 2.3 L 1054.9 0.0" fill="none" stroke="#39ff88" stroke-width="6.0" stroke-opacity="0.9"/></g><g id="clips"><circle cx="463.6" cy="269.4" r="2" fill="none" stroke="#0b5" stroke-width="0.6"/><circle cx="510.0" cy="1000.0" r="2" fill="none" stroke="#0b5" stroke-width="0.6"/><circle cx="1228.5" cy="1000.0" r="2" fill="none" stroke="#0b5" stroke-width="0.6"/><circle cx="1223.8" cy="600.5" r="2" fill="none" stroke="#0b5" stroke-width="0.6"/><circle cx="1269.7" cy="594.9" r="2" fill="none" stroke="#0b5" stroke-width="0.6"/><circle cx="954.7" cy="0.0" r="2" fill="none" stroke="#0b5" stroke-width="0.6"/><circle cx="526.6" cy="0.0" r="2" fill="none" stroke="#0b5" stroke-width="0.6"/><circle cx="500.0" cy="460.3" r="2" fill="none" stroke="#0b5" stroke-width="0.6"/><circle cx="894.0" cy="459.3" r="2" fill="none" stroke="#0b5" stroke-width="0.6"/><circle cx="1054.9" cy="0.0" r="2" fill="none" stroke="#0b5" stroke-width="0.6"/></g><g id="power"><circle cx="509.9" cy="1000.0" r="5" fill="none" stroke="#e33" stroke-width="1"/><circle cx="1228.5" cy="1000.0" r="5" fill="none" stroke="#e33" stroke-width="1"/><circle cx="954.7" cy="0.0" r="5" fill="none" stroke="#e33" stroke-width="1"/><circle cx="526.6" cy="0.0" r="5" fill="none" stroke="#e33" stroke-width="1"/><circle cx="1054.9" cy="0.0" r="5" fill="none" stroke="#e33" stroke-width="1"/></g></svg>