<svg xmlns="http://www.w3.org/2000/svg" width="1000mm" height="2000mm" viewBox="0 0 1000 2000"><g id="outline"><rect x="0" y="0" width="1000" height="2000" fill="none" stroke="#000" stroke-width="1"/></g><g id="channels"><path d="M 1000.0 1059.5 L 998.0 1059.3 L 992.1 1059.0 L 986.1 1058.8 L 980.1 1058.5 L 974.2 1058.4 L 968.2 1058.3 L 962.2 1058.3 L 956.3 1058.3 L 950.3 1058.4 L 950.3 1058.4 L 944.4 1058.6 L 938.5 1058.9 L 932.5 1059.3 L 926.5 1059.9 L 920.6 1060.6 L 914.7 1061.3 L 908.7 1062.1 L 902.8 1062.9 L 896.8 1063.8 L 890.8 1064.6 L 884.9 1065.5 L 878.9 1066.3 L 873.0 1067.1 L 867.0 1067.8 L 861.0 1068.5 L 855.1 1069.0 L 855.1 1069.0 L 849.1 1069.5 L 843.1 1070.0 L 837.2 1070.4 L 831.2 1070.8 L 825.2 1071.2 L 819.3 1071.6 L 813.2 1071.9 L 807.3 1072.3 L 801.3 1072.6 L 795.3 1072.9 L 789.4 1073.2 L 783.3 1073.5 L 777.4 1073.8 L 771.4 1074.0 L 765.4 1074.3 L 759.4 1074.5 L 759.4 1074.5 L 753.4 1074.8 L 747.5 1075.0 L 741.5 1075.3 L 735.4 1075.5 L 729.5 1075.6 L 723.5 1075.9 L 717.5 1076.1 L 711.5 1076.2 L 705.5 1076.3 L 699.6 1076.5 L 693.5 1076.6 L 687.6 1076.8 L 681.6 1077.1 L 675.6 1077.2 L 669.6 1077.4 L 663.6 1077.7 L 663.6 1077.7 L 657.7 1077.9 L 651.6 1078.2 L 645.6 1078.5 L 639.7 1078.8 L 633.7 1079.2 L 627.8 1079.6 L 621.7 1079.9 L 615.7 1080.3 L 609.8 1080.7 L 603.8 1080.9 L 597.8 1081.3 L 591.8 1081.5 L 585.8 1081.7 L 579.9 1081.9 L 573.8 1082.0 L 567.9 1082.0 L 567.9 1082.0 L 561.9 1082.1 L 555.9 1082.1 L 549.9 1082.2 L 543.8 1082.2 L 537.9 1082.3 L 531.8 1082.2 L 525.8 1082.2 L 519.7 1082.1 L 513.8 1081.9 L 507.8 1081.7 L 501.8 1081.3 L 495.8 1080.9 L 489.9 1080.4 L 483.9 1079.8 L 478.1 1079.0 L 472.3 1078.1 L 472.3 1078.1 L 466.4 1077.0 L 460.6 1075.8 L 454.8 1074.5 L 449.0 1073.1 L 443.2 1071.7 L 437.4 1070.1 L 431.6 1068.5 L 425.9 1066.7 L 420.2 1064.9 L 414.5 1063.0 L 408.9 1060.9 L 403.2 1058.8 L 397.7 1056.7 L 392.2 1054.4 L 386.8 1052.0 L 381.3 1049.6 L 381.3 1049.6 L 375.9 1047.0 L 370.6 1044.3 L 365.4 1041.5 L 360.2 1038.6 L 355.1 1035.6 L 350.0 1032.4 L 344.9 1029.2 L 339.9 1025.9 L 334.8 1022.5 L 329.8 1019.2 L 324.9 1015.8 L 319.9 1012.5 L 314.9 1009.0 L 309.9 1005.7 L 304.9 1002.4 L 299.9 999.0 L 299.9 999.0 L 294.9 995.8 L 289.9 992.3 L 284.9 988.8 L 279.8 985.3 L 274.9 981.6 L 269.9 977.9 L 265.0 974.3 L 259.9 970.7 L 255.0 967.1 L 250.1 963.7 L 245.1 960.2 L 240.3 956.9 L 235.4 953.7 L 230.5 950.6 L 225.6 947.8 L 220.9 945.1 L 220.9 945.1 L 216.0 942.4 L 210.9 939.6 L 205.8 936.5 L 200.7 933.5 L 195.5 930.4 L 190.3 927.5 L 185.1 924.6 L 180.0 921.9 L 175.1 919.6 L 170.2 917.6 L 165.6 916.0 L 161.1 914.9 L 156.9 914.4 L 153.0 914.5 L 149.4 915.3 L 146.1 916.9 L 146.1 916.9 L 143.1 919.3 L 140.1 922.6 L 137.3 926.7 L 134.6 931.5 L 132.2 936.9 L 129.8 942.8 L 127.7 949.1 L 125.9 955.7 L 124.3 962.5 L 122.9 969.4 L 121.9 976.3 L 121.2 983.2 L 120.8 989.7 L 120.8 996.1 L 121.2 1002.0 L 122.0 1007.4 L 122.0 1007.4 L 123.3 1012.6 L 125.0 1017.8 L 127.2 1022.8 L 129.8 1027.8 L 132.7 1032.8 L 136.0 1037.8 L 139.5 1042.6 L 143.4 1047.4 L 147.4 1052.1 L 151.6 1056.7 L 155.9 1061.3 L 160.3 1065.7 L 164.7 1070.0 L 169.2 1074.3 L 173.6 1078.4 L 177.9 1082.4 L 177.9 1082.4 L 182.3 1086.2 L 186.9 1089.8 L 191.7 1093.2 L 196.8 1096.5 L 201.9 1099.6 L 207.1 1102.6 L 212.4 1105.5 L 217.7 1108.4 L 223.0 1111.3 L 228.4 1114.2 L 233.8 1117.1 L 239.0 1120.2 L 244.2 1123.3 L 249.3 1126.5 L 254.1 1130.0 L 258.8 1133.6 L 258.8 1133.6 L 263.4 1137.5 L 267.8 1141.6 L 272.0 1145.9 L 276.1 1150.4 L 280.2 1154.9 L 284.2 1159.6 L 288.1 1164.3 L 292.0 1169.0 L 296.0 1173.7 L 299.9 1178.3 L 303.9 1182.7 L 308.1 1187.0 L 312.3 1191.1 L 316.6 1195.0 L 321.2 1198.5 L 325.8 1201.7 L 325.8 1201.7 L 330.6 1204.7 L 335.6 1207.5 L 340.6 1210.2 L 345.8 1212.8 L 351.1 1215.2 L 356.4 1217.5 L 361.7 1219.7 L 367.1 1221.6 L 372.6 1223.4 L 378.2 1225.0 L 383.7 1226.4 L 389.3 1227.6 L 394.9 1228.6 L 400.5 1229.4 L 406.2 1229.9 L 411.7 1230.2 L 411.7 1230.2 L 417.3 1230.1 L 423.0 1229.7 L 428.7 1228.8 L 434.4 1227.6 L 440.2 1226.2 L 446.0 1224.5 L 451.8 1222.6 L 457.6 1220.6 L 463.5 1218.6 L 469.3 1216.6 L 475.2 1214.7 L 481.1 1212.7 L 487.0 1211.0 L 492.9 1209.5 L 498.7 1208.3 L 504.7 1207.3 L 504.7 1207.3 L 510.6 1206.6 L 516.5 1206.0 L 522.4 1205.5 L 528.4 1205.2 L 534.3 1204.8 L 540.4 1204.7 L 546.4 1204.6 L 552.3 1204.5 L 558.4 1204.5 L 564.4 1204.6 L 570.4 1204.7 L 576.4 1204.7 L 582.4 1204.9 L 588.4 1205.1 L 594.4 1205.3 L 600.4 1205.5 L 600.4 1205.5 L 606.3 1205.7 L 612.3 1205.9 L 618.3 1206.2 L 624.3 1206.4 L 630.3 1206.7 L 636.3 1207.0 L 642.3 1207.4 L 648.3 1207.9 L 654.2 1208.3 L 660.3 1208.9 L 666.2 1209.4 L 672.1 1210.0 L 678.1 1210.7 L 684.0 1211.5 L 689.9 1212.3 L 695.9 1213.1 L 695.9 1213.1 L 701.8 1214.2 L 707.6 1215.2 L 713.4 1216.4 L 719.3 1217.6 L 725.2 1218.9 L 731.0 1220.3 L 736.8 1221.7 L 742.6 1223.1 L 748.5 1224.7 L 754.3 1226.2 L 760.1 1227.7 L 765.9 1229.2 L 771.6 1230.7 L 777.4 1232.3 L 783.2 1233.8 L 789.0 1235.2 L 789.0 1235.2 L 794.8 1236.7 L 800.6 1238.3 L 806.4 1239.9 L 812.1 1241.6 L 817.9 1243.4 L 823.6 1245.1 L 829.4 1246.8 L 835.2 1248.5 L 840.9 1250.2 L 846.7 1251.9 L 852.5 1253.4 L 858.3 1254.9 L 864.0 1256.3 L 869.8 1257.7 L 875.7 1258.9 L 881.6 1260.0 L 881.6 1260.0 L 887.5 1260.9 L 893.4 1261.7 L 899.3 1262.4 L 905.3 1262.9 L 911.3 1263.3 L 917.2 1263.6 L 923.3 1264.0 L 929.2 1264.2 L 935.2 1264.5 L 941.2 1264.7 L 947.2 1265.1 L 953.2 1265.4 L 959.1 1265.8 L 965.1 1266.3 L 971.1 1267.0 L 976.9 1267.7 L 976.9 1267.7 L 982.8 1268.5 L 988.8 1269.3 L 994.8 1270.0 L 1000.0 1270.7" fill="none" stroke="#ff7a1a" stroke-width="6.0" stroke-opacity="0.9"/><path d="M 1000.0 1388.1 L 999.3 1388.5 L 993.9 1391.4 L 989.0 1394.3 L 989.0 1394.3 L 984.2 1397.4 L 979.3 1400.4 L 974.4 1403.4 L 969.6 1406.6 L 964.7 1409.8 L 959.9 1413.1 L 955.2 1416.5 L 950.6 1420.0 L 946.1 1423.5 L 941.7 1427.2 L 937.5 1431.0 L 933.6 1434.9 L 929.8 1438.9 L 926.4 1443.1 L 923.1 1447.5 L 920.2 1452.0 L 920.2 1452.0 L 917.6 1456.7 L 915.7 1462.0 L 914.2 1467.6 L 913.1 1473.5 L 912.3 1479.5 L 911.7 1485.8 L 911.2 1492.1 L 910.8 1498.4 L 910.3 1504.6 L 909.8 1510.8 L 909.1 1516.6 L 908.0 1522.3 L 906.6 1527.6 L 904.8 1532.4 L 902.4 1536.9 L 899.5 1540.7 L 899.5 1540.7 L 896.1 1544.0 L 892.1 1547.0 L 887.8 1549.6 L 883.1 1551.9 L 878.2 1553.8 L 873.0 1555.6 L 867.6 1557.1 L 861.9 1558.4 L 856.2 1559.6 L 850.4 1560.6 L 844.4 1561.4 L 838.5 1562.2 L 832.6 1563.0 L 826.8 1563.8 L 821.0 1564.5 L 815.5 1565.4 L 815.5 1565.4 L 810.0 1566.1 L 804.4 1566.6 L 798.8 1567.0 L 793.1 1567.1 L 787.4 1567.1 L 781.6 1567.1 L 775.8 1567.0 L 770.1 1566.9 L 764.3 1566.7 L 758.5 1566.5 L 752.6 1566.4 L 746.9 1566.5 L 741.1 1566.7 L 735.4 1567.0 L 729.6 1567.5 L 723.9 1568.1 L 723.9 1568.1 L 718.3 1569.1 L 712.7 1570.5 L 707.1 1572.1 L 701.4 1573.9 L 695.8 1575.9 L 690.2 1578.0 L 684.6 1580.1 L 679.0 1582.2 L 673.5 1584.2 L 667.9 1586.1 L 662.4 1587.8 L 656.9 1589.3 L 651.4 1590.5 L 646.0 1591.4 L 640.5 1591.8 L 635.1 1591.8 L 635.1 1591.8 L 629.8 1591.5 L 624.3 1590.8 L 618.7 1590.0 L 613.1 1588.9 L 607.5 1587.6 L 601.9 1586.1 L 596.3 1584.3 L 590.8 1582.4 L 585.4 1580.3 L 580.1 1578.0 L 575.1 1575.4 L 570.1 1572.7 L 565.4 1569.9 L 560.9 1566.8 L 556.7 1563.6 L 552.7 1560.1 L 552.7 1560.1 L 548.9 1556.4 L 545.0 1552.1 L 541.1 1547.3 L 537.1 1542.2 L 533.3 1536.7 L 529.6 1531.1 L 526.2 1525.3 L 523.0 1519.4 L 520.2 1513.6 L 517.6 1507.9 L 515.6 1502.4 L 514.1 1497.1 L 513.2 1492.3 L 512.8 1487.8 L 513.2 1484.0 L 514.2 1480.6 L 514.2 1480.6 L 516.1 1477.8 L 518.9 1475.6 L 522.5 1473.5 L 526.7 1471.9 L 531.6 1470.7 L 536.9 1469.7 L 542.7 1468.8 L 548.8 1468.3 L 555.1 1467.7 L 561.6 1467.3 L 568.3 1467.0 L 574.8 1466.7 L 581.4 1466.3 L 587.7 1465.9 L 593.8 1465.3 L 599.5 1464.6 L 599.5 1464.6 L 605.1 1464.0 L 610.7 1463.4 L 616.3 1462.9 L 622.0 1462.5 L 627.8 1462.0 L 633.6 1461.7 L 639.3 1461.4 L 645.1 1461.1 L 650.9 1460.7 L 656.7 1460.4 L 662.4 1459.9 L 668.2 1459.3 L 674.0 1458.6 L 679.7 1457.8 L 685.3 1456.9 L 690.8 1455.7 L 690.8 1455.7 L 696.5 1454.6 L 702.0 1453.2 L 707.6 1451.9 L 713.2 1450.4 L 718.7 1448.8 L 724.3 1447.3 L 729.8 1445.6 L 735.4 1443.8 L 740.8 1441.9 L 746.2 1439.9 L 751.6 1437.8 L 756.9 1435.7 L 762.2 1433.4 L 767.3 1431.0 L 772.4 1428.4 L 777.4 1425.8 L 777.4 1425.8 L 782.2 1423.0 L 787.1 1420.0 L 791.9 1417.0 L 796.6 1413.7 L 801.3 1410.5 L 805.8 1407.0 L 810.4 1403.5 L 814.9 1399.8 L 819.4 1396.1 L 823.7 1392.3 L 828.1 1388.5 L 832.4 1384.7 L 836.7 1380.7 L 840.9 1376.9 L 845.1 1372.9 L 849.2 1369.0 L 849.2 1369.0 L 853.4 1364.8 L 857.7 1360.4 L 862.1 1355.8 L 866.6 1350.9 L 871.0 1345.9 L 875.4 1340.9 L 879.8 1335.9 L 884.0 1330.8 L 888.1 1326.0 L 892.0 1321.3 L 895.7 1316.7 L 899.2 1312.5 L 902.4 1308.7 L 905.2 1305.2 L 907.7 1302.3 L 909.8 1299.8" fill="none" stroke="#ff7a1a" stroke-width="6.0" stroke-opacity="0.9"/></g><g id="clips"><circle cx="1000.0" cy="1059.5" r="2" fill="none" stroke="#0b5" stroke-width="0.6"/><circle cx="800.8" cy="1072.6" r="2" fill="none" stroke="#0b5" stroke-width="0.6"/><circle cx="601.0" cy="1081.1" r="2" fill="none" stroke="#0b5" stroke-width="0.6"/><circle cx="403.9" cy="1059.1" r="2" fill="none" stroke="#0b5" stroke-width="0.6"/><circle cx="234.8" cy="953.3" r="2" fill="none" stroke="#0b5" stroke-width="0.6"/><circle cx="123.0" cy="1011.6" r="2" fill="none" stroke="#0b5" stroke-width="0.6"/><circle cx="268.7" cy="1142.5" r="2" fill="none" stroke="#0b5" stroke-width="0.6"/><circle cx="437.4" cy="1226.9" r="2" fill="none" stroke="#0b5" stroke-width="0.6"/><circle cx="634.3" cy="1206.9" r="2" fill="none" stroke="#0b5" stroke-width="0.6"/><circle cx="829.7" cy="1246.9" r="2" fill="none" stroke="#0b5" stroke-width="0.6"/><circle cx="1000.0" cy="1270.7" r="2" fill="none" stroke="#0b5" stroke-width="0.6"/><circle cx="1000.0" cy="1388.1" r="2" fill="none" stroke="#0b5" stroke-width="0.6"/><circle cx="896.4" cy="1543.7" r="2" fill="none" stroke="#0b5" stroke-width="0.6"/><circle cx="701.2" cy="1574.0" r="2" fill="none" stroke="#0b5" stroke-width="0.6"/><circle cx="527.6" cy="1527.6" r="2" fill="none" stroke="#0b5" stroke-width="0.6"/><circle cx="660.2" cy="1460.1" r="2" fill="none" stroke="#0b5" stroke-width="0.6"/><circle cx="838.5" cy="1379.1" r="2" fill="none" stroke="#0b5" stroke-width="0.6"/><circle cx="909.8" cy="1299.8" r="2" fill="none" stroke="#0b5" stroke-width="0.6"/></g><g id="power"><circle cx="1000.0" cy="1388.1" r="5" fill="none" stroke="#e33" stroke-width="1"/><circle cx="1000.0" cy="1270.7" r="5" fill="none" stroke="#e33" stroke-width="1"/><circle cx="1000.0" cy="1059.5" r="5" fill="none" stroke="#e33" stroke-width="1"/></g><g id="bridges"></g></svg>