<svg xmlns="http://www.w3.org/2000/svg" width="2000mm" height="1000mm" viewBox="0 0 2000 1000"><g id="outline"><rect x="0" y="0" width="2000" height="1000" fill="none" stroke="#000" stroke-width="1"/></g><g id="channels"><path d="M 839.0 1000.0 L 835.0 997.1 L 829.8 993.5 L 824.4 990.2 L 818.9 987.1 L 813.4 984.3 L 813.4 984.3 L 807.6 981.8 L 801.8 979.7 L 795.8 977.8 L 789.6 976.2 L 783.4 974.8 L 777.1 973.7 L 770.7 972.6 L 764.2 971.7 L 757.8 970.9 L 751.3 970.0 L 744.8 969.2 L 738.3 968.3 L 731.9 967.4 L 725.6 966.3 L 719.3 965.1 L 713.1 963.6 L 713.1 963.6 L 706.9 962.2 L 700.4 960.9 L 693.7 959.8 L 686.9 958.7 L 680.0 957.6 L 673.1 956.6 L 666.3 955.4 L 659.6 954.2 L 653.1 952.8 L 646.8 951.2 L 640.9 949.4 L 635.3 947.2 L 630.1 944.8 L 625.4 941.9 L 621.2 938.6 L 617.7 934.9 L 617.7 934.9 L 614.8 930.4 L 612.5 925.1 L 610.7 919.2 L 609.4 912.6 L 608.5 905.6 L 608.0 898.3 L 607.8 890.8 L 607.9 883.3 L 608.1 875.8 L 608.5 868.4 L 608.9 861.4 L 609.3 854.8 L 609.7 848.8 L 610.0 843.4 L 610.1 838.9 L 610.0 835.3" fill="none" stroke="#00e5ff" stroke-width="6.0" stroke-opacity="0.9"/><path d="M 638.5 759.3 L 637.7 755.6 L 636.9 751.0 L 636.1 745.7 L 635.2 739.7 L 634.3 733.2 L 633.2 726.3 L 632.1 719.0 L 630.8 711.4 L 629.3 703.8 L 627.7 696.0 L 625.8 688.4 L 623.7 680.9 L 621.4 673.6 L 618.7 666.7 L 615.8 660.3 L 612.6 654.4 L 612.6 654.4 L 609.0 648.9 L 605.1 643.3 L 600.9 637.8 L 596.4 632.4 L 591.6 627.0 L 586.7 621.8 L 581.5 616.7 L 576.1 611.7 L 570.6 607.0 L 564.9 602.5 L 559.1 598.2 L 553.2 594.2 L 547.3 590.5 L 541.3 587.1 L 535.3 584.1 L 529.2 581.5 L 529.2 581.5 L 523.0 579.1 L 516.6 577.0 L 509.8 575.1 L 502.9 573.4 L 495.8 572.0 L 488.6 570.8 L 481.3 569.9 L 474.0 569.3 L 466.7 569.0 L 459.5 569.0 L 452.4 569.3 L 445.4 570.0 L 438.6 570.9 L 432.0 572.3 L 425.7 573.9 L 419.7 576.0 L 419.7 576.0 L 413.9 578.5 L 408.1 581.5 L 402.5 584.9 L 396.9 588.7 L 391.4 593.0 L 386.1 597.5 L 380.9 602.3 L 375.8 607.5 L 371.0 612.8 L 366.3 618.3 L 361.8 624.0 L 357.5 629.8 L 353.5 635.6 L 349.7 641.5 L 346.2 647.4 L 343.0 653.3 L 343.0 653.3 L 340.1 659.3 L 337.4 665.5 L 334.9 671.9 L 332.6 678.5 L 330.6 685.3 L 328.8 692.2 L 327.2 699.2 L 325.8 706.3 L 324.6 713.4 L 323.6 720.6 L 322.8 727.8 L 322.3 735.0 L 321.9 742.1 L 321.7 749.1 L 321.7 756.1 L 321.8 762.9 L 321.8 762.9 L 322.2 769.6 L 322.9 776.4 L 323.7 783.2 L 324.8 790.0 L 326.1 796.8 L 327.6 803.6 L 329.3 810.4 L 331.2 817.2 L 333.2 823.9 L 335.4 830.6 L 337.8 837.2 L 340.3 843.7 L 342.9 850.2 L 345.6 856.5 L 348.5 862.8 L 351.4 869.0 L 351.4 869.0 L 354.8 875.0 L 358.7 881.0 L 363.2 886.8 L 368.1 892.5 L 373.3 898.2 L 378.7 903.8 L 384.2 909.3 L 389.6 914.8 L 394.8 920.2 L 399.8 925.6 L 404.3 931.1 L 408.4 936.5 L 411.8 941.9 L 414.5 947.4 L 416.4 952.9 L 417.3 958.5 L 417.3 958.5 L 417.3 964.2 L 416.6 969.9 L 415.2 975.8 L 413.3 981.7 L 410.8 987.6 L 407.8 993.5 L 404.4 999.4 L 404.0 1000.0" fill="none" stroke="#00e5ff" stroke-width="6.0" stroke-opacity="0.9"/><path d="M 514.7 818.9 L 513.2 819.0 L 511.3 819.2 L 509.2 819.3 L 506.9 819.5 L 504.3 819.6 L 501.6 819.8 L 498.7 820.0 L 495.7 820.3 L 492.6 820.5 L 489.4 820.7 L 486.2 821.0 L 483.1 821.2 L 480.0 821.5 L 476.9 821.7 L 474.0 822.0 L 471.2 822.2 L 471.2 822.2 L 468.5 822.5 L 465.8 822.7 L 463.1 822.9 L 460.4 823.2 L 457.6 823.4 L 454.9 823.7 L 452.2 824.0 L 449.5 824.2 L 446.8 824.5 L 444.1 824.8 L 441.4 825.1 L 438.7 825.4 L 436.0 825.8 L 433.3 826.1 L 430.6 826.5 L 427.9 826.9 L 427.9 826.9 L 425.1 827.3 L 422.2 827.8 L 419.2 828.3 L 416.2 828.9 L 413.0 829.5 L 409.9 830.1 L 406.8 830.7 L 403.8 831.3 L 400.9 831.9 L 398.0 832.5 L 395.3 833.1 L 392.8 833.6 L 390.5 834.1 L 388.5 834.5 L 386.7 834.9 L 385.2 835.2" fill="none" stroke="#00e5ff" stroke-width="6.0" stroke-opacity="0.9"/></g><g id="clips"><circle cx="839.0" cy="1000.0" r="2" fill="none" stroke="#0b5" stroke-width="0.6"/><circle cx="610.0" cy="835.3" r="2" fill="none" stroke="#0b5" stroke-width="0.6"/><circle cx="638.5" cy="759.3" r="2" fill="none" stroke="#0b5" stroke-width="0.6"/><circle cx="404.0" cy="1000.0" r="2" fill="none" stroke="#0b5" stroke-width="0.6"/><circle cx="514.7" cy="818.9" r="2" fill="none" stroke="#0b5" stroke-width="0.6"/><circle cx="385.2" cy="835.2" r="2" fill="none" stroke="#0b5" stroke-width="0.6"/></g><g id="power"><circle cx="404.0" cy="1000.0" r="5" fill="none" stroke="#e33" stroke-width="1"/><circle cx="839.0" cy="1000.0" r="5" fill="none" stroke="#e33" stroke-width="1"/></g><g id="bridges"></g></svg>