<svg xmlns="http://www.w3.org/2000/svg" width="2000mm" height="1000mm" viewBox="0 0 2000 1000"><g id="outline"><rect x="0" y="0" width="2000" height="1000" fill="none" stroke="#000" stroke-width="1"/></g><g id="channels"><path d="M 1475.2 931.9 L 1477.4 933.5 L 1480.5 935.4 L 1484.2 937.5 L 1488.4 939.8 L 1493.0 942.3 L 1497.9 945.0 L 1502.9 947.9 L 1508.0 950.9 L 1512.9 954.2 L 1517.6 957.6 L 1522.0 961.2 L 1525.8 965.0 L 1529.1 969.0 L 1531.5 973.1 L 1533.2 977.4 L 1533.8 981.8 L 1533.8 981.8 L 1533.5 986.5 L 1532.5 991.6 L 1530.8 997.0 L 1529.5 1000.0" fill="none" stroke="#2b6bff" stroke-width="6.0" stroke-opacity="0.9"/><path d="M 1354.7 1000.0 L 1357.6 997.1 L 1357.6 997.1 L 1362.9 991.7 L 1368.4 986.0 L 1374.1 980.0 L 1379.8 973.7 L 1385.6 967.4 L 1391.3 961.0 L 1397.0 954.6 L 1402.6 948.3 L 1408.0 942.2 L 1413.1 936.3 L 1418.0 930.6 L 1422.6 925.4 L 1426.8 920.6 L 1430.5 916.2 L 1433.8 912.5 L 1436.6 909.4" fill="none" stroke="#2b6bff" stroke-width="6.0" stroke-opacity="0.9"/></g><g id="clips"><circle cx="1475.2" cy="931.9" r="2" fill="none" stroke="#0b5" stroke-width="0.6"/><circle cx="1529.5" cy="1000.0" r="2" fill="none" stroke="#0b5" stroke-width="0.6"/><circle cx="1354.7" cy="1000.0" r="2" fill="none" stroke="#0b5" stroke-width="0.6"/><circle cx="1436.6" cy="909.4" r="2" fill="none" stroke="#0b5" stroke-width="0.6"/></g><g id="power"><circle cx="1529.6" cy="1000.0" r="5" fill="none" stroke="#e33" stroke-width="1"/><circle cx="1354.7" cy="1000.0" r="5" fill="none" stroke="#e33" stroke-width="1"/></g></svg>