<svg xmlns="http://www.w3.org/2000/svg" width="2000mm" height="1000mm" viewBox="0 0 2000 1000"><g id="outline"><rect x="0" y="0" width="2000" height="1000" fill="none" stroke="#000" stroke-width="1"/></g><g id="channels"><path d="M 0.0 530.4 L 1.6 530.2 L 7.1 529.2 L 11.8 528.1 L 15.5 526.7 L 15.5 526.7 L 18.3 525.1 L 20.4 523.4 L 21.8 521.6 L 22.6 519.6 L 22.9 517.6 L 22.7 515.5 L 22.2 513.4 L 21.5 511.2 L 20.5 509.0 L 19.4 506.8 L 18.2 504.6 L 17.1 502.5 L 16.1 500.4 L 15.3 498.4 L 14.7 496.5 L 14.5 494.7 L 14.5 494.7 L 14.4 493.0 L 14.2 491.4 L 13.8 489.8 L 13.3 488.4 L 12.7 486.9 L 12.2 485.5 L 11.7 484.1 L 11.2 482.8 L 10.9 481.4 L 10.7 480.0 L 10.8 478.6 L 11.0 477.2 L 11.6 475.7 L 12.5 474.1 L 13.7 472.5 L 15.3 470.7 L 15.3 470.7 L 17.6 468.9 L 20.9 466.8 L 24.9 464.6 L 29.6 462.4 L 34.6 460.0 L 40.0 457.6 L 45.4 455.2 L 50.8 452.8 L 56.0 450.4 L 60.9 448.1 L 65.2 445.9 L 68.8 443.9 L 71.6 442.0 L 73.3 440.3 L 73.9 438.8 L 73.2 437.6 L 73.2 437.6 L 70.8 436.7 L 66.8 436.2 L 61.4 436.0 L 54.8 436.0 L 47.3 436.2 L 39.0 436.6 L 30.3 437.0 L 21.3 437.5 L 12.3 438.0 L 3.6 438.3 L 0.0 438.4" fill="none" stroke="#39ff88" stroke-width="6.0" stroke-opacity="0.9"/><path d="M 0.0 408.7 L 2.9 406.8 L 7.7 403.5 L 11.8 400.4 L 15.1 397.5 L 17.4 394.9 L 18.3 392.7 L 17.8 390.9 L 17.8 390.9 L 15.9 389.5 L 12.8 388.4 L 8.8 387.6 L 3.9 387.1 L 0.0 386.9" fill="none" stroke="#39ff88" stroke-width="6.0" stroke-opacity="0.9"/></g><g id="clips"><circle cx="0.0" cy="530.4" r="2" fill="none" stroke="#0b5" stroke-width="0.6"/><circle cx="0.0" cy="438.4" r="2" fill="none" stroke="#0b5" stroke-width="0.6"/><circle cx="0.0" cy="408.7" r="2" fill="none" stroke="#0b5" stroke-width="0.6"/></g><g id="power"><circle cx="0.0" cy="530.4" r="5" fill="none" stroke="#e33" stroke-width="1"/><circle cx="0.0" cy="438.4" r="5" fill="none" stroke="#e33" stroke-width="1"/><circle cx="0.0" cy="408.7" r="5" fill="none" stroke="#e33" stroke-width="1"/><circle cx="0.0" cy="386.9" r="5" fill="none" stroke="#e33" stroke-width="1"/></g></svg>