<svg xmlns="http://www.w3.org/2000/svg" width="1000mm" height="2000mm" viewBox="0 0 1000 2000"><g id="outline"><rect x="0" y="0" width="1000" height="2000" fill="none" stroke="#000" stroke-width="1"/></g><g id="channels"><path d="M 0.0 1125.8 L 4.2 1124.7 L 11.4 1122.9 L 18.6 1121.2 L 25.8 1119.4 L 32.9 1117.6 L 40.1 1115.9 L 47.3 1114.1 L 47.3 1114.1 L 54.5 1112.4 L 61.7 1110.7 L 68.9 1109.2 L 76.2 1107.6 L 83.4 1106.1 L 90.7 1104.6 L 97.9 1103.1 L 105.2 1101.6 L 112.4 1100.0 L 119.7 1098.4 L 126.8 1096.7 L 134.0 1094.9 L 141.1 1093.0 L 148.2 1091.1 L 155.3 1088.9 L 162.2 1086.7 L 162.2 1086.7 L 169.2 1084.3 L 176.1 1081.8 L 183.0 1079.2 L 189.9 1076.5 L 196.7 1073.7 L 203.5 1070.9 L 210.3 1067.9 L 217.1 1064.9 L 223.8 1061.9 L 230.5 1058.7 L 237.1 1055.5 L 243.8 1052.3 L 250.4 1049.0 L 257.0 1045.6 L 263.5 1042.3 L 270.0 1038.8 L 270.0 1038.8 L 276.5 1035.3 L 283.0 1031.8 L 289.5 1028.2 L 295.9 1024.6 L 302.4 1020.9 L 308.8 1017.2 L 315.1 1013.4 L 321.5 1009.5 L 327.7 1005.6 L 334.0 1001.6 L 340.2 997.6 L 346.3 993.5 L 352.4 989.3 L 358.5 985.0 L 364.4 980.7 L 370.3 976.3 L 370.3 976.3 L 376.1 971.8 L 381.9 967.3 L 387.6 962.6 L 393.3 957.9 L 398.8 953.1 L 404.4 948.2 L 409.9 943.3 L 415.3 938.3 L 420.7 933.3 L 426.1 928.2 L 431.4 923.1 L 436.7 917.9 L 442.0 912.7 L 447.2 907.5 L 452.4 902.3 L 457.6 897.1 L 457.6 897.1 L 462.9 891.7 L 468.4 886.0 L 474.1 880.0 L 479.8 873.7 L 485.6 867.4 L 491.3 861.0 L 497.0 854.6 L 502.6 848.3 L 508.0 842.2 L 513.1 836.3 L 518.0 830.6 L 522.6 825.4 L 526.8 820.6 L 530.5 816.2 L 533.8 812.5 L 536.6 809.4 L 575.2 831.9 L 577.4 833.5 L 580.5 835.4 L 584.2 837.5 L 588.4 839.8 L 593.0 842.3 L 597.9 845.0 L 602.9 847.9 L 608.0 850.9 L 612.9 854.2 L 617.6 857.6 L 622.0 861.2 L 625.8 865.0 L 629.1 869.0 L 631.5 873.1 L 633.2 877.4 L 633.8 881.8 L 633.8 881.8 L 633.5 886.5 L 632.5 891.6 L 630.8 897.0 L 628.4 902.7 L 625.6 908.6 L 622.3 914.7 L 618.6 921.0 L 614.5 927.3 L 610.2 933.7 L 605.7 940.2 L 601.0 946.5 L 596.3 952.9 L 591.6 959.1 L 586.9 965.1 L 582.4 970.9 L 578.0 976.5 L 578.0 976.5 L 573.7 981.8 L 569.1 987.0 L 564.3 992.0 L 559.3 996.9 L 554.1 1001.7 L 548.9 1006.4 L 543.6 1011.1 L 538.2 1015.8 L 532.9 1020.5 L 527.6 1025.2 L 522.4 1030.0 L 517.3 1034.8 L 512.4 1039.8 L 507.7 1044.9 L 503.3 1050.2 L 499.1 1055.7 L 499.1 1055.7 L 495.2 1061.5 L 491.7 1067.7 L 488.5 1074.1 L 485.6 1080.7 L 482.8 1087.5 L 480.2 1094.4 L 477.6 1101.3 L 475.1 1108.2 L 472.5 1115.1 L 469.8 1121.8 L 467.0 1128.3 L 464.0 1134.5 L 460.7 1140.5 L 457.1 1146.0 L 453.1 1151.2 L 448.6 1155.8 L 448.6 1155.8 L 443.8 1160.1 L 438.7 1164.0 L 433.3 1167.7 L 427.6 1171.1 L 421.8 1174.2 L 415.7 1177.1 L 409.4 1179.8 L 403.0 1182.3 L 396.5 1184.5 L 389.9 1186.6 L 383.3 1188.5 L 376.5 1190.3 L 369.8 1191.9 L 363.1 1193.3 L 356.4 1194.6 L 349.8 1195.8 L 349.8 1195.8 L 343.1 1196.8 L 336.3 1197.2 L 329.5 1197.4 L 322.5 1197.1 L 315.5 1196.7 L 308.4 1196.0 L 301.3 1195.3 L 294.1 1194.4 L 287.0 1193.6 L 279.8 1192.8 L 272.7 1192.1 L 265.6 1191.7 L 258.5 1191.4 L 251.5 1191.5 L 244.6 1192.0 L 237.8 1192.9 L 237.8 1192.9 L 231.1 1194.1 L 224.3 1195.6 L 217.6 1197.3 L 210.9 1199.2 L 204.3 1201.3 L 197.7 1203.5 L 191.1 1206.0 L 184.5 1208.5 L 178.0 1211.2 L 171.5 1213.9 L 165.0 1216.8 L 158.6 1219.7 L 152.2 1222.7 L 145.8 1225.7 L 139.5 1228.7 L 133.2 1231.8 L 133.2 1231.8 L 127.0 1234.8 L 120.8 1238.1 L 114.6 1241.4 L 108.5 1244.9 L 102.5 1248.4 L 96.5 1252.0 L 90.5 1255.7 L 84.5 1259.4 L 78.6 1263.2 L 72.7 1267.0 L 66.7 1270.8 L 60.8 1274.6 L 54.9 1278.4 L 48.9 1282.2 L 43.0 1285.9 L 37.0 1289.6 L 37.0 1289.6 L 31.0 1293.2 L 25.0 1296.9 L 19.0 1300.5 L 13.0 1304.2 L 7.1 1307.9 L 1.1 1311.6 L 0.0 1312.3" fill="none" stroke="#2b6bff" stroke-width="6.0" stroke-opacity="0.9"/><path d="M 0.0 1642.8 L 1.3 1642.5 L 8.2 1641.2 L 15.1 1639.8 L 21.9 1638.5 L 28.8 1637.1 L 35.7 1635.8 L 42.6 1634.4 L 49.5 1633.1 L 49.5 1633.1 L 56.4 1631.7 L 63.3 1630.4 L 70.2 1629.2 L 77.1 1627.9 L 84.0 1626.7 L 90.9 1625.5 L 97.8 1624.3 L 104.7 1623.1 L 111.7 1621.8 L 118.6 1620.5 L 125.5 1619.3 L 132.3 1617.9 L 139.2 1616.5 L 146.1 1615.1 L 152.9 1613.6 L 159.8 1612.0 L 159.8 1612.0 L 166.6 1610.4 L 173.4 1608.8 L 180.2 1607.1 L 187.0 1605.4 L 193.8 1603.7 L 200.6 1601.9 L 207.4 1600.1 L 214.2 1598.3 L 221.0 1596.4 L 227.7 1594.5 L 234.4 1592.5 L 241.2 1590.4 L 247.8 1588.3 L 254.5 1586.2 L 261.1 1584.0 L 267.8 1581.7 L 267.8 1581.7 L 274.4 1579.4 L 281.0 1577.0 L 287.7 1574.7 L 294.3 1572.3 L 301.0 1569.9 L 307.6 1567.5 L 314.3 1565.0 L 320.8 1562.4 L 327.4 1559.7 L 333.9 1557.0 L 340.3 1554.1 L 346.6 1551.1 L 352.8 1548.0 L 359.0 1544.8 L 365.0 1541.4 L 370.9 1537.8 L 370.9 1537.8 L 376.7 1534.0 L 382.5 1530.1 L 388.1 1526.1 L 393.7 1521.9 L 399.2 1517.7 L 404.7 1513.2 L 410.0 1508.7 L 415.3 1504.1 L 420.5 1499.4 L 425.7 1494.6 L 430.8 1489.7 L 435.7 1484.8 L 440.7 1479.8 L 445.5 1474.7 L 450.3 1469.6 L 455.0 1464.5 L 455.0 1464.5 L 459.6 1459.3 L 464.1 1454.0 L 468.4 1448.5 L 472.7 1443.0 L 477.0 1437.4 L 481.1 1431.7 L 485.2 1426.0 L 489.2 1420.2 L 493.1 1414.4 L 497.0 1408.5 L 500.9 1402.6 L 504.7 1396.7 L 508.5 1390.7 L 512.3 1384.8 L 516.1 1378.9 L 519.9 1373.0 L 519.9 1373.0 L 523.7 1367.1 L 527.5 1361.2 L 531.2 1355.2 L 535.0 1349.3 L 538.7 1343.3 L 542.3 1337.3 L 546.0 1331.3 L 549.6 1325.3 L 553.1 1319.2 L 556.6 1313.1 L 560.1 1307.0 L 563.5 1300.9 L 566.8 1294.7 L 570.1 1288.5 L 573.3 1282.3 L 576.5 1276.0 L 576.5 1276.0 L 579.5 1269.8 L 582.5 1263.4 L 585.4 1257.1 L 588.2 1250.6 L 591.0 1244.2 L 593.7 1237.7 L 596.4 1231.2 L 599.0 1224.7 L 601.6 1218.2 L 604.2 1211.7 L 606.7 1205.1 L 609.3 1198.6 L 611.8 1192.0 L 614.3 1185.5 L 616.9 1179.0 L 619.4 1172.5 L 619.4 1172.5 L 621.9 1165.7 L 624.2 1158.4 L 626.4 1150.7 L 628.6 1142.8 L 630.7 1134.7 L 632.7 1126.6 L 634.8 1118.5 L 636.9 1110.6 L 639.0 1103.0 L 641.3 1095.9 L 643.6 1089.3 L 646.2 1083.3 L 648.9 1078.1 L 651.8 1073.7 L 655.0 1070.4 L 658.5 1068.1 L 658.5 1068.1 L 662.3 1067.1 L 666.7 1067.4 L 671.5 1068.8 L 676.7 1071.2 L 682.1 1074.4 L 687.6 1078.2 L 693.3 1082.5 L 699.0 1087.2 L 704.6 1092.1 L 710.0 1097.1 L 715.2 1101.9 L 720.0 1106.5 L 724.5 1110.7 L 728.5 1114.4 L 731.9 1117.3 L 734.6 1119.4 L 762.4 1111.7 L 763.8 1115.1 L 765.8 1119.3 L 768.2 1124.0 L 771.0 1129.3 L 774.0 1135.1 L 777.2 1141.3 L 780.5 1147.9 L 783.8 1154.7 L 787.0 1161.6 L 790.0 1168.7 L 792.8 1175.9 L 795.2 1183.0 L 797.3 1190.0 L 798.8 1196.8 L 799.7 1203.4 L 799.9 1209.6 L 799.9 1209.6 L 799.5 1215.7 L 798.6 1221.7 L 797.1 1227.7 L 795.3 1233.8 L 793.0 1239.8 L 790.4 1245.8 L 787.6 1251.8 L 784.5 1257.8 L 781.2 1263.8 L 777.9 1269.8 L 774.5 1275.7 L 771.0 1281.7 L 767.7 1287.6 L 764.4 1293.6 L 761.2 1299.5 L 758.3 1305.5 L 758.3 1305.5 L 755.4 1311.4 L 752.5 1317.2 L 749.5 1323.1 L 746.4 1328.9 L 743.3 1334.7 L 740.1 1340.5 L 737.0 1346.3 L 733.8 1352.1 L 730.6 1358.0 L 727.5 1363.8 L 724.4 1369.6 L 721.4 1375.5 L 718.4 1381.4 L 715.5 1387.3 L 712.7 1393.3 L 710.0 1399.3 L 710.0 1399.3 L 707.5 1405.4 L 705.3 1411.6 L 703.2 1418.0 L 701.3 1424.5 L 699.5 1431.0 L 697.7 1437.5 L 696.0 1444.1 L 694.2 1450.6 L 692.4 1457.1 L 690.5 1463.5 L 688.4 1469.8 L 686.2 1475.9 L 683.7 1481.9 L 681.0 1487.7 L 677.9 1493.3 L 674.5 1498.7 L 674.5 1498.7 L 670.8 1503.8 L 666.9 1508.8 L 662.6 1513.6 L 658.2 1518.3 L 653.6 1522.8 L 648.8 1527.2 L 643.8 1531.5 L 638.7 1535.7 L 633.5 1539.8 L 628.2 1543.8 L 622.8 1547.7 L 617.4 1551.5 L 611.9 1555.2 L 606.4 1558.9 L 600.9 1562.5 L 595.4 1566.0 L 595.4 1566.0 L 589.9 1569.5 L 584.2 1572.7 L 578.5 1575.8 L 572.6 1578.7 L 566.6 1581.5 L 560.6 1584.2 L 554.5 1586.9 L 548.3 1589.5 L 542.2 1592.1 L 536.0 1594.7 L 529.9 1597.3 L 523.8 1599.9 L 517.8 1602.7 L 511.8 1605.5 L 505.9 1608.5 L 500.0 1611.7 L 500.0 1611.7 L 494.3 1614.9 L 488.6 1618.2 L 482.9 1621.5 L 477.2 1624.9 L 471.6 1628.4 L 466.0 1631.9 L 460.4 1635.4 L 454.8 1639.0 L 449.3 1642.6 L 443.8 1646.2 L 438.3 1649.9 L 432.9 1653.7 L 427.4 1657.4 L 422.0 1661.2 L 416.6 1665.0 L 411.2 1668.9 L 411.2 1668.9 L 405.9 1672.7 L 400.6 1676.7 L 395.4 1680.7 L 390.2 1684.8 L 385.0 1688.9 L 379.9 1693.1 L 374.8 1697.3 L 369.7 1701.5 L 364.6 1705.7 L 359.5 1709.9 L 354.4 1714.2 L 349.3 1718.4 L 344.2 1722.6 L 339.1 1726.7 L 333.9 1730.8 L 328.7 1734.9 L 328.7 1734.9 L 323.5 1739.0 L 318.3 1743.0 L 313.1 1747.1 L 307.8 1751.2 L 302.6 1755.2 L 297.4 1759.3 L 292.2 1763.3 L 286.9 1767.3 L 281.6 1771.3 L 276.4 1775.3 L 271.1 1779.3 L 265.8 1783.2 L 260.4 1787.1 L 255.1 1791.0 L 249.7 1794.8 L 244.3 1798.6 L 244.3 1798.6 L 238.8 1802.3 L 233.4 1806.0 L 227.9 1809.7 L 222.4 1813.4 L 216.9 1817.1 L 211.4 1820.7 L 205.8 1824.3 L 200.3 1827.9 L 194.7 1831.4 L 189.1 1834.9 L 183.4 1838.4 L 177.8 1841.8 L 172.1 1845.2 L 166.4 1848.5 L 160.6 1851.7 L 154.9 1854.9 L 154.9 1854.9 L 149.1 1858.1 L 143.3 1861.2 L 137.4 1864.3 L 131.6 1867.4 L 125.7 1870.4 L 119.8 1873.4 L 113.8 1876.4 L 107.9 1879.2 L 101.9 1882.1 L 95.9 1884.9 L 89.9 1887.6 L 83.8 1890.2 L 77.7 1892.8 L 71.6 1895.3 L 65.5 1897.7 L 59.3 1900.0 L 59.3 1900.0 L 53.1 1902.3 L 46.9 1904.4 L 40.7 1906.5 L 34.4 1908.5 L 28.1 1910.4 L 21.7 1912.3 L 15.4 1914.1 L 9.0 1915.8 L 2.6 1917.5 L 0.0 1918.2" fill="none" stroke="#2b6bff" stroke-width="6.0" stroke-opacity="0.9"/></g><g id="clips"><circle cx="0.0" cy="1125.8" r="2" fill="none" stroke="#0b5" stroke-width="0.6"/><circle cx="193.2" cy="1075.1" r="2" fill="none" stroke="#0b5" stroke-width="0.6"/><circle cx="367.7" cy="978.3" r="2" fill="none" stroke="#0b5" stroke-width="0.6"/><circle cx="510.7" cy="839.0" r="2" fill="none" stroke="#0b5" stroke-width="0.6"/><circle cx="621.8" cy="915.6" r="2" fill="none" stroke="#0b5" stroke-width="0.6"/><circle cx="492.3" cy="1066.7" r="2" fill="none" stroke="#0b5" stroke-width="0.6"/><circle cx="357.7" cy="1194.4" r="2" fill="none" stroke="#0b5" stroke-width="0.6"/><circle cx="162.5" cy="1217.9" r="2" fill="none" stroke="#0b5" stroke-width="0.6"/><circle cx="0.0" cy="1312.3" r="2" fill="none" stroke="#0b5" stroke-width="0.6"/><circle cx="0.0" cy="1642.8" r="2" fill="none" stroke="#0b5" stroke-width="0.6"/><circle cx="196.0" cy="1603.1" r="2" fill="none" stroke="#0b5" stroke-width="0.6"/><circle cx="381.5" cy="1530.8" r="2" fill="none" stroke="#0b5" stroke-width="0.6"/><circle cx="513.7" cy="1382.7" r="2" fill="none" stroke="#0b5" stroke-width="0.6"/><circle cx="606.4" cy="1206.0" r="2" fill="none" stroke="#0b5" stroke-width="0.6"/><circle cx="702.3" cy="1090.1" r="2" fill="none" stroke="#0b5" stroke-width="0.6"/><circle cx="796.1" cy="1231.0" r="2" fill="none" stroke="#0b5" stroke-width="0.6"/><circle cx="706.1" cy="1409.3" r="2" fill="none" stroke="#0b5" stroke-width="0.6"/><circle cx="595.2" cy="1566.1" r="2" fill="none" stroke="#0b5" stroke-width="0.6"/><circle cx="420.4" cy="1662.3" r="2" fill="none" stroke="#0b5" stroke-width="0.6"/><circle cx="262.8" cy="1785.3" r="2" fill="none" stroke="#0b5" stroke-width="0.6"/><circle cx="91.1" cy="1887.1" r="2" fill="none" stroke="#0b5" stroke-width="0.6"/><circle cx="0.0" cy="1918.2" r="2" fill="none" stroke="#0b5" stroke-width="0.6"/></g><g id="power"><circle cx="0.0" cy="1918.1" r="5" fill="none" stroke="#e33" stroke-width="1"/><circle cx="0.0" cy="1642.8" r="5" fill="none" stroke="#e33" stroke-width="1"/><circle cx="0.0" cy="1312.3" r="5" fill="none" stroke="#e33" stroke-width="1"/><circle cx="0.0" cy="1125.8" r="5" fill="none" stroke="#e33" stroke-width="1"/></g><g id="bridges"></g></svg>