<svg xmlns="http://www.w3.org/2000/svg" width="2000mm" height="1000mm" viewBox="0 0 2000 1000"><g id="outline"><rect x="0" y="0" width="2000" height="1000" fill="none" stroke="#000" stroke-width="1"/></g><g id="channels"><path d="M 1586.9 1000.0 L 1585.8 993.6 L 1584.7 987.1 L 1583.7 980.5 L 1582.7 973.9 L 1582.7 973.9 L 1581.9 967.4 L 1581.2 960.8 L 1580.7 954.2 L 1580.3 947.6 L 1579.9 940.9 L 1579.7 934.3 L 1579.4 927.6 L 1579.3 920.9 L 1579.1 914.3 L 1579.0 907.6 L 1578.8 900.9 L 1578.6 894.3 L 1578.4 887.6 L 1578.1 881.0 L 1577.7 874.3 L 1577.2 867.7 L 1577.2 867.7 L 1576.7 861.1 L 1576.2 854.4 L 1575.7 847.8 L 1575.3 841.1 L 1574.8 834.5 L 1574.3 827.8 L 1573.7 821.2 L 1573.1 814.5 L 1572.5 807.9 L 1571.8 801.3 L 1571.0 794.7 L 1570.1 788.1 L 1569.1 781.6 L 1568.0 775.0 L 1566.8 768.5 L 1565.4 762.1 L 1565.4 762.1 L 1563.9 755.7 L 1562.2 749.3 L 1560.4 742.9 L 1558.5 736.5 L 1556.5 730.2 L 1554.4 723.9 L 1552.3 717.6 L 1550.0 711.4 L 1547.7 705.1 L 1545.3 698.9 L 1542.9 692.6 L 1540.5 686.4 L 1538.1 680.2 L 1535.6 674.0 L 1533.1 667.9 L 1530.7 661.7 L 1530.7 661.7 L 1528.2 655.5 L 1525.7 649.4 L 1523.1 643.3 L 1520.4 637.2 L 1517.8 631.1 L 1515.0 625.0 L 1512.3 618.9 L 1509.5 612.9 L 1506.7 606.8 L 1503.9 600.8 L 1501.1 594.8 L 1498.3 588.7 L 1495.5 582.7 L 1492.7 576.7 L 1489.9 570.6 L 1487.2 564.6 L 1487.2 564.6 L 1484.4 558.5 L 1481.6 552.5 L 1478.9 546.4 L 1476.1 540.4 L 1473.4 534.3 L 1470.6 528.3 L 1467.8 522.2 L 1465.1 516.2 L 1462.3 510.1 L 1459.5 504.1 L 1456.7 498.1 L 1453.9 492.0 L 1451.0 486.0 L 1448.2 480.0 L 1445.4 474.0 L 1442.5 468.0 L 1442.5 468.0 L 1439.6 462.0 L 1436.8 456.0 L 1433.9 449.9 L 1431.1 443.9 L 1428.3 437.9 L 1425.4 431.9 L 1422.6 425.8 L 1419.7 419.8 L 1416.8 413.8 L 1413.9 407.9 L 1410.9 401.9 L 1407.9 396.0 L 1404.8 390.1 L 1401.7 384.2 L 1398.6 378.4 L 1395.3 372.6 L 1395.3 372.6 L 1392.1 366.7 L 1388.9 360.7 L 1385.7 354.5 L 1382.6 348.2 L 1379.4 341.8 L 1376.2 335.5 L 1372.9 329.3 L 1369.6 323.1 L 1366.1 317.1 L 1362.6 311.3 L 1358.9 305.7 L 1355.1 300.4 L 1351.2 295.5 L 1347.0 291.0 L 1342.6 286.9 L 1338.0 283.2 L 1338.0 283.2 L 1333.1 280.0 L 1327.9 276.9 L 1322.4 274.0 L 1316.6 271.3 L 1310.6 268.9 L 1304.5 266.8 L 1298.3 264.9 L 1292.0 263.4 L 1285.6 262.2 L 1279.3 261.4 L 1273.1 260.9 L 1267.0 260.8 L 1261.1 261.2 L 1255.4 262.0 L 1249.9 263.3 L 1244.7 265.0 L 1244.7 265.0 L 1239.8 267.4 L 1235.1 270.5 L 1230.5 274.2 L 1226.1 278.5 L 1221.7 283.2 L 1217.5 288.3 L 1213.4 293.9 L 1209.4 299.6 L 1205.4 305.6 L 1201.5 311.8 L 1197.6 318.0 L 1193.8 324.2 L 1190.0 330.3 L 1186.1 336.3 L 1182.3 342.1 L 1178.4 347.6 L 1178.4 347.6 L 1174.5 353.0 L 1170.7 358.5 L 1167.0 363.9 L 1163.3 369.5 L 1159.7 375.0 L 1156.1 380.6 L 1152.5 386.2 L 1148.9 391.9 L 1145.4 397.5 L 1141.8 403.1 L 1138.3 408.8 L 1134.7 414.4 L 1131.1 420.0 L 1127.4 425.6 L 1123.8 431.1 L 1120.1 436.6 L 1120.1 436.6 L 1116.3 442.1 L 1112.6 447.6 L 1108.8 453.1 L 1105.0 458.6 L 1101.3 464.1 L 1097.5 469.5 L 1093.7 475.0 L 1089.9 480.4 L 1086.0 485.9 L 1082.2 491.3 L 1078.3 496.7 L 1074.4 502.1 L 1070.5 507.4 L 1066.5 512.8 L 1062.5 518.1 L 1058.5 523.4 L 1058.5 523.4 L 1054.4 528.6 L 1050.3 533.9 L 1046.2 539.1 L 1042.0 544.2 L 1037.8 549.4 L 1033.6 554.5 L 1029.3 559.7 L 1025.1 564.8 L 1020.8 569.9 L 1016.5 574.9 L 1012.2 580.0 L 1007.9 585.1 L 1003.5 590.1 L 999.2 595.2 L 994.9 600.2 L 990.6 605.3 L 990.6 605.3 L 986.2 610.3 L 981.8 615.3 L 977.4 620.3 L 972.9 625.2 L 968.4 630.2 L 963.9 635.1 L 959.4 640.0 L 955.0 644.9 L 950.5 649.8 L 946.0 654.8 L 941.6 659.7 L 937.2 664.7 L 932.8 669.7 L 928.5 674.8 L 924.3 679.9 L 920.1 685.1 L 920.1 685.1 L 916.0 690.3 L 911.7 695.4 L 907.3 700.6 L 902.9 705.8 L 898.5 711.0 L 894.2 716.2 L 889.8 721.4 L 885.6 726.7 L 881.5 732.0 L 877.5 737.4 L 873.7 742.9 L 870.2 748.4 L 866.8 754.0 L 863.7 759.7 L 861.0 765.5 L 858.6 771.4 L 858.6 771.4 L 856.4 777.4 L 854.5 783.6 L 852.9 789.8 L 851.4 796.2 L 850.2 802.7 L 849.2 809.2 L 848.3 815.8 L 847.7 822.5 L 847.2 829.2 L 846.9 835.9 L 846.7 842.6 L 846.7 849.3 L 846.9 855.9 L 847.1 862.6 L 847.5 869.1 L 848.0 875.6 L 848.0 875.6 L 848.7 882.1 L 849.7 888.5 L 850.9 895.0 L 852.3 901.4 L 853.8 907.8 L 855.6 914.2 L 857.5 920.7 L 859.5 927.1 L 861.5 933.5 L 863.7 939.9 L 865.8 946.2 L 868.0 952.6 L 870.2 959.0 L 872.3 965.4 L 874.4 971.7 L 876.3 978.1 L 876.3 978.1 L 878.3 984.5 L 880.3 990.8 L 882.3 997.1 L 883.3 1000.0" fill="none" stroke="#ffd23d" stroke-width="6.0" stroke-opacity="0.9"/><path d="M 611.2 1000.0 L 607.8 995.2 L 604.1 989.7 L 600.4 984.1 L 596.8 978.6 L 593.4 972.9 L 590.1 967.2 L 586.9 961.4 L 586.9 961.4 L 583.8 955.6 L 580.6 949.7 L 577.4 943.7 L 574.2 937.7 L 571.0 931.7 L 567.9 925.6 L 564.9 919.5 L 562.0 913.3 L 559.3 907.1 L 556.8 900.9 L 554.5 894.7 L 552.5 888.5 L 550.8 882.3 L 549.5 876.0 L 548.4 869.8 L 547.8 863.6 L 547.8 863.6 L 547.6 857.3 L 547.8 851.0 L 548.3 844.7 L 549.1 838.3 L 550.3 831.9 L 551.7 825.4 L 553.3 819.0 L 555.1 812.5 L 557.2 806.1 L 559.3 799.7 L 561.6 793.3 L 564.0 787.0 L 566.5 780.7 L 569.0 774.5 L 571.5 768.3 L 574.0 762.3 L 574.0 762.3 L 576.6 756.3 L 579.5 750.4 L 582.5 744.5 L 585.7 738.7 L 589.0 733.0 L 592.5 727.3 L 596.0 721.6 L 599.6 716.0 L 603.2 710.3 L 606.9 704.7 L 610.5 699.1 L 614.1 693.4 L 617.7 687.7 L 621.1 682.0 L 624.5 676.2 L 627.7 670.4 L 627.7 670.4 L 630.8 664.5 L 633.8 658.6 L 636.8 652.7 L 639.7 646.7 L 642.6 640.7 L 645.5 634.7 L 648.3 628.7 L 651.2 622.7 L 654.0 616.6 L 656.8 610.6 L 659.6 604.6 L 662.5 598.6 L 665.4 592.6 L 668.3 586.6 L 671.3 580.6 L 674.3 574.7 L 674.3 574.7 L 677.3 568.8 L 680.4 562.9 L 683.5 557.0 L 686.6 551.1 L 689.7 545.3 L 692.9 539.4 L 696.0 533.6 L 699.2 527.7 L 702.4 521.9 L 705.6 516.0 L 708.8 510.2 L 712.0 504.4 L 715.3 498.6 L 718.5 492.8 L 721.8 487.0 L 725.0 481.2 L 725.0 481.2 L 728.3 475.4 L 731.6 469.6 L 734.9 463.9 L 738.2 458.1 L 741.6 452.4 L 744.9 446.6 L 748.3 440.9 L 751.7 435.1 L 755.0 429.4 L 758.4 423.7 L 761.8 418.0 L 765.3 412.3 L 768.7 406.6 L 772.1 400.9 L 775.6 395.2 L 779.1 389.5 L 779.1 389.5 L 782.5 383.9 L 786.0 378.2 L 789.5 372.5 L 793.0 366.8 L 796.5 361.2 L 800.0 355.5 L 803.5 349.9 L 807.0 344.2 L 810.6 338.6 L 814.2 333.0 L 817.8 327.4 L 821.4 321.8 L 825.1 316.3 L 828.8 310.8 L 832.5 305.3 L 836.3 299.8 L 836.3 299.8 L 840.1 294.4 L 844.0 289.0 L 847.8 283.6 L 851.7 278.2 L 855.7 272.8 L 859.6 267.5 L 863.6 262.1 L 867.6 256.8 L 871.7 251.6 L 875.7 246.3 L 879.8 241.1 L 884.0 235.9 L 888.1 230.7 L 892.3 225.5 L 896.5 220.3 L 900.7 215.2 L 900.7 215.2 L 905.1 210.2 L 909.5 205.2 L 914.0 200.3 L 918.7 195.4 L 923.4 190.7 L 928.1 185.9 L 932.8 181.1 L 937.5 176.4 L 942.2 171.6 L 946.9 166.8 L 951.4 161.9 L 955.9 157.0 L 960.2 152.0 L 964.3 146.9 L 968.3 141.6 L 972.1 136.3 L 972.1 136.3 L 975.8 130.9 L 979.5 125.3 L 983.2 119.8 L 986.9 114.1 L 990.5 108.4 L 994.0 102.6 L 997.3 96.8 L 1000.6 90.9 L 1003.7 84.9 L 1006.6 78.9 L 1009.3 72.9 L 1011.7 66.8 L 1013.9 60.7 L 1015.8 54.6 L 1017.4 48.4 L 1018.6 42.2 L 1018.6 42.2 L 1019.5 35.9 L 1020.1 29.6 L 1020.3 23.1 L 1020.3 16.6 L 1019.9 10.1 L 1019.4 3.5 L 1019.0 0.0" fill="none" stroke="#ffd23d" stroke-width="6.0" stroke-opacity="0.9"/><path d="M 1686.3 0.0 L 1687.7 4.0 L 1689.8 10.3 L 1691.8 16.6 L 1693.8 23.0 L 1695.7 29.3 L 1697.6 35.7 L 1699.4 42.1 L 1701.2 48.6 L 1702.9 55.0 L 1704.6 61.4 L 1706.2 67.9 L 1707.8 74.3 L 1709.3 80.8 L 1710.8 87.3 L 1710.8 87.3 L 1712.2 93.8 L 1713.5 100.3 L 1714.8 106.8 L 1716.0 113.3 L 1717.2 119.9 L 1718.3 126.4 L 1719.3 133.0 L 1720.3 139.6 L 1721.3 146.1 L 1722.2 152.7 L 1723.2 159.3 L 1724.1 165.9 L 1724.9 172.5 L 1725.8 179.1 L 1726.7 185.7 L 1727.6 192.3 L 1727.6 192.3 L 1728.4 198.9 L 1729.2 205.5 L 1730.0 212.1 L 1730.8 218.7 L 1731.5 225.3 L 1732.2 231.9 L 1732.8 238.6 L 1733.5 245.2 L 1734.1 251.8 L 1734.8 258.4 L 1735.4 265.0 L 1736.1 271.7 L 1736.7 278.3 L 1737.4 284.9 L 1738.1 291.5 L 1738.8 298.1 L 1738.8 298.1 L 1739.6 304.7 L 1740.3 311.3 L 1741.0 318.0 L 1741.8 324.6 L 1742.5 331.2 L 1743.3 337.8 L 1744.0 344.4 L 1744.8 351.0 L 1745.5 357.6 L 1746.3 364.2 L 1747.0 370.8 L 1747.8 377.4 L 1748.6 384.0 L 1749.3 390.6 L 1750.1 397.3 L 1750.9 403.9 L 1750.9 403.9 L 1751.7 410.5 L 1752.5 417.1 L 1753.3 423.7 L 1754.1 430.3 L 1754.9 436.9 L 1755.7 443.5 L 1756.5 450.1 L 1757.3 456.7 L 1758.1 463.3 L 1759.0 469.9 L 1759.8 476.5 L 1760.7 483.1 L 1761.5 489.7 L 1762.4 496.3 L 1763.3 502.9 L 1764.2 509.4 L 1764.2 509.4 L 1765.1 516.0 L 1766.0 522.6 L 1766.9 529.2 L 1767.8 535.8 L 1768.7 542.4 L 1769.7 549.0 L 1770.6 555.6 L 1771.5 562.2 L 1772.5 568.7 L 1773.5 575.3 L 1774.5 581.9 L 1775.5 588.5 L 1776.6 595.0 L 1777.7 601.6 L 1778.8 608.1 L 1780.0 614.7 L 1780.0 614.7 L 1781.2 621.2 L 1782.4 627.8 L 1783.6 634.3 L 1784.9 640.8 L 1786.2 647.3 L 1787.5 653.9 L 1788.8 660.4 L 1790.2 666.9 L 1791.6 673.4 L 1793.0 679.9 L 1794.4 686.4 L 1795.9 692.9 L 1797.3 699.4 L 1798.8 705.9 L 1800.3 712.3 L 1801.8 718.8 L 1801.8 718.8 L 1803.3 725.3 L 1804.9 731.7 L 1806.5 738.2 L 1808.2 744.6 L 1809.9 751.1 L 1811.6 757.5 L 1813.3 763.9 L 1815.0 770.3 L 1816.7 776.8 L 1818.5 783.2 L 1820.2 789.6 L 1821.9 796.0 L 1823.6 802.5 L 1825.3 808.9 L 1827.0 815.3 L 1828.6 821.8 L 1828.6 821.8 L 1830.2 828.2 L 1831.8 834.7 L 1833.4 841.2 L 1835.0 847.6 L 1836.5 854.1 L 1838.1 860.6 L 1839.6 867.0 L 1841.2 873.5 L 1842.7 880.0 L 1844.3 886.4 L 1845.8 892.9 L 1847.3 899.4 L 1848.8 905.9 L 1850.3 912.3 L 1851.8 918.8 L 1853.3 925.3 L 1853.3 925.3 L 1854.8 931.8 L 1856.3 938.3 L 1857.8 944.7 L 1859.4 951.2 L 1860.9 957.7 L 1862.4 964.2 L 1863.9 970.7 L 1865.4 977.2 L 1866.9 983.6 L 1868.3 990.1 L 1869.8 996.6 L 1870.5 1000.0" fill="none" stroke="#ffd23d" stroke-width="6.0" stroke-opacity="0.9"/></g><g id="clips"><circle cx="1586.9" cy="1000.0" r="2" fill="none" stroke="#0b5" stroke-width="0.6"/><circle cx="883.3" cy="1000.0" r="2" fill="none" stroke="#0b5" stroke-width="0.6"/><circle cx="611.2" cy="1000.0" r="2" fill="none" stroke="#0b5" stroke-width="0.6"/><circle cx="1019.0" cy="0.0" r="2" fill="none" stroke="#0b5" stroke-width="0.6"/><circle cx="1686.3" cy="0.0" r="2" fill="none" stroke="#0b5" stroke-width="0.6"/><circle cx="1870.5" cy="1000.0" r="2" fill="none" stroke="#0b5" stroke-width="0.6"/></g><g id="power"><circle cx="1586.9" cy="1000.0" r="5" fill="none" stroke="#e33" stroke-width="1"/><circle cx="883.2" cy="1000.0" r="5" fill="none" stroke="#e33" stroke-width="1"/><circle cx="611.1" cy="1000.0" r="5" fill="none" stroke="#e33" stroke-width="1"/><circle cx="1870.5" cy="1000.0" r="5" fill="none" stroke="#e33" stroke-width="1"/><circle cx="1019.0" cy="0.0" r="5" fill="none" stroke="#e33" stroke-width="1"/><circle cx="1686.3" cy="0.0" r="5" fill="none" stroke="#e33" stroke-width="1"/></g></svg>