<svg xmlns="http://www.w3.org/2000/svg" width="1000mm" height="1000mm" viewBox="0 0 1000 1000"><g id="outline"><rect x="0" y="0" width="1000" height="1000" fill="none" stroke="#000" stroke-width="1"/></g><g id="channels"><path d="M 0.0 817.2 L 4.4 819.4 L 10.4 822.2 L 16.6 824.7 L 23.0 827.0 L 29.5 829.2 L 36.1 831.2 L 42.7 833.1 L 49.4 834.9 L 56.2 836.6 L 62.9 838.2 L 69.6 839.8 L 76.2 841.5 L 82.8 843.1 L 82.8 843.1 L 89.3 844.7 L 96.0 846.3 L 102.6 847.9 L 109.3 849.4 L 116.1 850.8 L 122.9 852.2 L 129.7 853.4 L 136.5 854.6 L 143.4 855.6 L 150.2 856.5 L 157.1 857.3 L 163.9 857.9 L 170.7 858.4 L 177.5 858.7 L 184.3 858.8 L 191.0 858.7 L 191.0 858.7 L 197.7 858.4 L 204.5 858.1 L 211.3 857.6 L 218.2 857.0 L 225.0 856.2 L 231.9 855.3 L 238.7 854.2 L 245.6 853.0 L 252.3 851.7 L 259.0 850.1 L 265.6 848.4 L 272.1 846.5 L 278.5 844.4 L 284.8 842.0 L 290.9 839.5 L 296.9 836.8 L 296.9 836.8 L 302.8 833.8 L 308.7 830.6 L 314.6 827.2 L 320.5 823.5 L 326.3 819.7 L 332.0 815.7 L 337.6 811.5 L 343.1 807.2 L 348.4 802.6 L 353.5 798.0 L 358.5 793.1 L 363.2 788.2 L 367.7 783.1 L 371.9 777.9 L 375.8 772.6 L 379.4 767.2 L 379.4 767.2 L 382.8 761.7 L 385.9 755.9 L 388.9 749.8 L 391.6 743.6 L 394.2 737.2 L 396.5 730.6 L 398.6 723.9 L 400.5 717.2 L 402.1 710.3 L 403.6 703.5 L 404.8 696.6 L 405.7 689.7 L 406.5 682.9 L 407.0 676.1 L 407.2 669.5 L 407.2 662.9 L 407.2 662.9 L 406.9 656.4 L 406.4 649.8 L 405.6 643.1 L 404.6 636.3 L 403.4 629.6 L 401.9 622.8 L 400.2 616.0 L 398.2 609.3 L 396.1 602.7 L 393.7 596.1 L 391.1 589.7 L 388.3 583.5 L 385.3 577.4 L 382.1 571.5 L 378.7 565.8 L 375.1 560.4 L 375.1 560.4 L 371.3 555.1 L 367.2 550.0 L 362.8 545.1 L 358.1 540.2 L 353.1 535.5 L 348.0 530.9 L 342.7 526.5 L 337.2 522.2 L 331.5 518.1 L 325.7 514.1 L 319.9 510.3 L 313.9 506.6 L 308.0 503.1 L 301.9 499.8 L 295.9 496.6 L 289.9 493.7 L 289.9 493.7 L 283.9 490.9 L 277.7 488.5 L 271.4 486.3 L 264.9 484.4 L 258.4 482.7 L 251.7 481.2 L 245.0 479.8 L 238.2 478.5 L 231.5 477.2 L 224.6 476.1 L 217.8 474.9 L 211.0 473.7 L 204.2 472.4 L 197.5 471.1 L 190.8 469.6 L 184.2 468.0 L 184.2 468.0 L 177.5 466.4 L 170.6 465.0 L 163.5 463.8 L 156.3 462.7 L 149.1 461.6 L 141.8 460.5 L 134.6 459.4 L 127.5 458.1 L 120.5 456.8 L 113.7 455.2 L 107.2 453.4 L 100.9 451.4 L 95.0 449.0 L 89.6 446.2 L 84.5 442.9 L 80.0 439.2 L 80.0 439.2 L 75.9 435.0 L 72.1 430.3 L 68.5 425.2 L 65.3 419.7 L 62.3 413.9 L 59.6 407.7 L 57.2 401.4 L 55.0 394.8 L 53.2 388.1 L 51.6 381.3 L 50.3 374.5 L 49.4 367.7 L 48.6 360.9 L 48.2 354.2 L 48.1 347.7 L 48.2 341.4 L 48.2 341.4 L 48.8 335.2 L 50.0 328.9 L 51.6 322.7 L 53.6 316.4 L 56.0 310.1 L 58.7 303.9 L 61.7 297.6 L 64.8 291.3 L 68.1 284.9 L 71.4 278.6 L 74.8 272.3 L 78.1 265.9 L 81.2 259.5 L 84.3 253.2 L 87.0 246.8 L 89.5 240.4 L 89.5 240.4 L 91.8 234.0 L 94.2 227.5 L 96.5 221.1 L 98.8 214.7 L 101.1 208.2 L 103.4 201.8 L 105.6 195.3 L 107.8 188.9 L 109.9 182.4 L 112.0 175.9 L 114.0 169.3 L 115.9 162.8 L 117.7 156.2 L 119.4 149.6 L 121.0 143.0 L 122.5 136.4 L 122.5 136.4 L 123.8 129.7 L 125.0 123.0 L 126.2 116.3 L 127.2 109.6 L 128.2 102.8 L 129.0 96.0 L 129.8 89.2 L 130.6 82.4 L 131.2 75.6 L 131.8 68.8 L 132.4 61.9 L 132.9 55.1 L 133.3 48.3 L 133.8 41.4 L 134.2 34.6 L 134.6 27.8 L 134.6 27.8 L 134.9 21.0 L 135.2 14.1 L 135.5 7.3 L 135.7 0.5 L 135.7 0.0" fill="none" stroke="#39ff88" stroke-width="6.0" stroke-opacity="0.9"/><path d="M 112.3 533.9 L 113.4 533.9 L 114.6 533.8 L 116.1 533.7 L 117.7 533.5 L 119.4 533.4 L 121.3 533.3 L 123.3 533.1 L 125.3 533.0 L 127.4 532.8 L 129.6 532.7 L 131.7 532.6 L 133.9 532.6 L 136.0 532.5 L 138.1 532.5 L 140.1 532.6 L 141.9 532.7 L 141.9 532.7 L 143.8 532.8 L 145.6 532.9 L 147.5 533.1 L 149.4 533.3 L 151.2 533.5 L 153.1 533.7 L 154.9 534.0 L 156.8 534.2 L 158.7 534.5 L 160.5 534.9 L 162.3 535.2 L 164.1 535.6 L 166.0 536.1 L 167.7 536.5 L 169.5 537.0 L 171.3 537.6 L 171.3 537.6 L 173.1 538.2 L 174.9 538.9 L 176.8 539.7 L 178.7 540.6 L 180.7 541.5 L 182.6 542.4 L 184.5 543.4 L 186.4 544.4 L 188.2 545.3 L 189.9 546.3 L 191.6 547.2 L 193.1 548.0 L 194.5 548.8 L 195.8 549.5 L 196.9 550.1 L 197.8 550.5" fill="none" stroke="#39ff88" stroke-width="6.0" stroke-opacity="0.9"/></g><g id="clips"><circle cx="0.0" cy="817.2" r="2" fill="none" stroke="#0b5" stroke-width="0.6"/><circle cx="135.7" cy="0.0" r="2" fill="none" stroke="#0b5" stroke-width="0.6"/><circle cx="112.3" cy="533.9" r="2" fill="none" stroke="#0b5" stroke-width="0.6"/><circle cx="197.8" cy="550.5" r="2" fill="none" stroke="#0b5" stroke-width="0.6"/></g><g id="power"><circle cx="0.0" cy="817.1" r="5" fill="none" stroke="#e33" stroke-width="1"/><circle cx="135.7" cy="0.0" r="5" fill="none" stroke="#e33" stroke-width="1"/></g><g id="bridges"></g></svg>