<svg xmlns="http://www.w3.org/2000/svg" width="2000mm" height="1000mm" viewBox="0 0 2000 1000"><g id="outline"><rect x="0" y="0" width="2000" height="1000" fill="none" stroke="#000" stroke-width="1"/></g><g id="channels"><path d="M 0.0 789.0 L 5.1 785.2 L 11.0 781.2 L 17.0 777.3 L 23.1 773.7 L 29.3 770.3 L 29.3 770.3 L 35.7 767.2 L 42.3 764.4 L 49.0 762.0 L 55.9 759.8 L 62.8 757.8 L 69.9 756.0 L 77.0 754.3 L 84.1 752.7 L 91.3 751.1 L 98.4 749.4 L 105.4 747.6 L 112.4 745.7 L 119.3 743.7 L 126.0 741.4 L 132.6 738.8 L 139.0 735.8 L 139.0 735.8 L 145.3 732.6 L 151.5 729.3 L 157.6 725.9 L 163.6 722.2 L 169.6 718.5 L 175.5 714.7 L 181.3 710.7 L 187.1 706.6 L 192.8 702.4 L 198.4 698.2 L 204.0 693.8 L 209.4 689.3 L 214.9 684.8 L 220.2 680.2 L 225.5 675.5 L 230.7 670.7 L 230.7 670.7 L 235.8 665.8 L 240.8 660.8 L 245.7 655.6 L 250.4 650.2 L 255.1 644.7 L 259.7 639.2 L 264.2 633.5 L 268.7 627.8 L 273.1 622.1 L 277.6 616.4 L 282.1 610.6 L 286.5 604.9 L 291.1 599.2 L 295.6 593.6 L 300.3 588.0 L 305.0 582.6 L 305.0 582.6 L 309.9 577.3 L 315.0 572.1 L 320.3 566.9 L 325.8 561.9 L 331.3 556.9 L 336.8 551.9 L 342.3 546.9 L 347.8 541.9 L 353.2 536.9 L 358.4 531.7 L 363.4 526.5 L 368.1 521.2 L 372.6 515.8 L 376.7 510.2 L 380.4 504.4 L 383.7 498.4 L 383.7 498.4 L 386.7 492.2 L 389.5 485.7 L 392.2 479.0 L 394.7 472.1 L 396.9 465.0 L 399.0 457.8 L 400.8 450.5 L 402.3 443.2 L 403.6 435.9 L 404.5 428.6 L 405.2 421.4 L 405.4 414.4 L 405.4 407.5 L 404.9 400.8 L 404.1 394.3 L 402.8 388.1 L 402.8 388.1 L 401.0 381.9 L 398.6 375.3 L 395.7 368.5 L 392.4 361.6 L 388.6 354.6 L 384.5 347.7 L 380.1 341.0 L 375.4 334.6 L 370.5 328.5 L 365.6 322.9 L 360.5 318.0 L 355.4 313.7 L 350.4 310.2 L 345.5 307.6 L 340.7 306.0 L 336.1 305.5 L 336.1 305.5 L 331.6 306.2 L 327.0 308.0 L 322.4 310.9 L 317.6 314.8 L 312.9 319.4 L 308.1 324.8 L 303.2 330.7 L 298.4 337.1 L 293.5 343.9 L 288.6 350.8 L 283.8 357.9 L 279.0 364.9 L 274.2 371.8 L 269.5 378.5 L 264.8 384.8 L 260.2 390.6 L 260.2 390.6 L 255.7 396.2 L 251.4 401.9 L 247.1 407.7 L 242.9 413.6 L 238.7 419.6 L 234.6 425.5 L 230.4 431.5 L 226.3 437.5 L 222.1 443.4 L 217.9 449.3 L 213.7 455.2 L 209.3 460.9 L 204.8 466.5 L 200.2 472.0 L 195.4 477.4 L 190.5 482.6 L 190.5 482.6 L 185.4 487.6 L 180.2 492.5 L 174.8 497.2 L 169.4 501.9 L 163.8 506.4 L 158.1 510.9 L 152.4 515.3 L 146.6 519.6 L 140.8 523.9 L 134.9 528.1 L 129.0 532.3 L 123.1 536.5 L 117.2 540.7 L 111.3 545.0 L 105.4 549.2 L 99.6 553.5 L 99.6 553.5 L 93.8 557.8 L 88.0 562.0 L 82.2 566.3 L 76.3 570.5 L 70.4 574.7 L 64.5 578.8 L 58.6 583.0 L 52.7 587.2 L 46.8 591.3 L 40.9 595.4 L 34.9 599.5 L 29.0 603.7 L 23.1 607.8 L 17.1 611.9 L 11.2 616.0 L 5.3 620.1 L 5.3 620.1 L 0.0 623.9" fill="none" stroke="#39ff88" stroke-width="6.0" stroke-opacity="0.9"/></g><g id="clips"><circle cx="0.0" cy="789.0" r="2" fill="none" stroke="#0b5" stroke-width="0.6"/><circle cx="0.0" cy="623.9" r="2" fill="none" stroke="#0b5" stroke-width="0.6"/></g><g id="power"><circle cx="0.0" cy="789.0" r="5" fill="none" stroke="#e33" stroke-width="1"/><circle cx="0.0" cy="623.9" r="5" fill="none" stroke="#e33" stroke-width="1"/></g></svg>