<svg xmlns="http://www.w3.org/2000/svg" width="1000mm" height="2000mm" viewBox="0 0 1000 2000"><g id="outline"><rect x="0" y="0" width="1000" height="2000" fill="none" stroke="#000" stroke-width="1"/></g><g id="channels"><path d="M 1000.0 1587.5 L 997.5 1583.8 L 994.4 1579.6 L 994.4 1579.6 L 991.6 1575.2 L 988.7 1570.8 L 986.0 1566.5 L 983.3 1562.0 L 980.7 1557.5 L 978.0 1552.9 L 975.5 1548.4 L 972.8 1543.9 L 970.2 1539.3 L 967.6 1534.8 L 965.0 1530.3 L 962.4 1525.7 L 959.7 1521.3 L 957.0 1516.8 L 954.1 1512.4 L 951.2 1508.2 L 951.2 1508.2 L 948.2 1503.9 L 945.3 1499.6 L 942.3 1495.3 L 939.2 1491.0 L 936.2 1486.7 L 933.2 1482.5 L 930.1 1478.3 L 926.9 1474.1 L 923.7 1470.0 L 920.5 1465.9 L 917.2 1461.9 L 913.9 1457.8 L 910.5 1453.9 L 907.1 1450.0 L 903.5 1446.2 L 900.0 1442.5 L 900.0 1442.5 L 896.3 1438.8 L 892.6 1435.2 L 888.8 1431.6 L 885.0 1428.1 L 881.1 1424.7 L 877.2 1421.2 L 873.1 1417.9 L 869.1 1414.6 L 865.0 1411.3 L 860.9 1408.1 L 856.8 1404.9 L 852.6 1401.7 L 848.4 1398.6 L 844.2 1395.5 L 840.0 1392.4 L 835.8 1389.3 L 835.8 1389.3 L 831.6 1386.3 L 827.4 1383.3 L 823.1 1380.3 L 818.7 1377.4 L 814.4 1374.5 L 810.1 1371.7 L 805.6 1368.8 L 801.2 1366.0 L 796.8 1363.3 L 792.3 1360.5 L 788.0 1357.7 L 783.5 1354.9 L 779.1 1352.2 L 774.6 1349.5 L 770.2 1346.7 L 765.8 1343.9 L 765.8 1343.9 L 761.3 1341.0 L 756.5 1338.0 L 751.6 1334.9 L 746.5 1331.8 L 741.3 1328.5 L 736.2 1325.3 L 731.0 1322.1 L 726.0 1319.0 L 721.1 1315.9 L 716.4 1313.0 L 711.9 1310.3 L 707.7 1307.7 L 703.9 1305.2 L 700.4 1303.1 L 697.4 1301.3 L 695.0 1299.8" fill="none" stroke="#ff7a1a" stroke-width="6.0" stroke-opacity="0.9"/><path d="M 608.9 1256.7 L 605.5 1256.3 L 601.5 1256.0 L 596.8 1255.7 L 591.6 1255.2 L 585.9 1254.8 L 579.7 1254.4 L 573.3 1253.9 L 566.6 1253.3 L 559.8 1252.6 L 552.8 1251.9 L 546.0 1251.0 L 539.1 1249.9 L 532.4 1248.8 L 525.9 1247.4 L 519.8 1245.9 L 514.0 1244.2 L 514.0 1244.2 L 508.4 1242.3 L 503.0 1240.3 L 497.4 1238.1 L 491.9 1235.7 L 486.5 1233.2 L 481.1 1230.6 L 475.8 1227.9 L 470.5 1225.1 L 465.3 1222.1 L 460.2 1219.0 L 455.1 1215.8 L 450.1 1212.5 L 445.2 1209.1 L 440.4 1205.7 L 435.7 1202.1 L 431.0 1198.5 L 431.0 1198.5 L 426.6 1194.6 L 422.3 1190.6 L 418.2 1186.3 L 414.2 1181.9 L 410.4 1177.4 L 406.6 1172.7 L 402.9 1168.0 L 399.2 1163.1 L 395.5 1158.3 L 391.8 1153.4 L 388.1 1148.6 L 384.3 1143.9 L 380.6 1139.2 L 376.6 1134.7 L 372.6 1130.2 L 368.4 1126.0 L 368.4 1126.0 L 364.0 1121.9 L 359.6 1117.9 L 355.1 1114.0 L 350.6 1110.1 L 346.0 1106.3 L 341.3 1102.5 L 336.7 1098.8 L 331.9 1095.1 L 327.2 1091.5 L 322.4 1087.9 L 317.6 1084.2 L 312.9 1080.6 L 308.2 1077.0 L 303.4 1073.4 L 298.7 1069.7 L 294.0 1066.0 L 294.0 1066.0 L 289.3 1062.3 L 284.6 1058.6 L 279.8 1054.9 L 275.1 1051.2 L 270.4 1047.6 L 265.6 1044.0 L 260.9 1040.3 L 256.1 1036.7 L 251.4 1033.0 L 246.6 1029.4 L 241.9 1025.7 L 237.2 1022.0 L 232.5 1018.3 L 227.9 1014.5 L 223.1 1010.7 L 218.5 1006.9 L 218.5 1006.9 L 214.0 1003.1 L 209.4 999.2 L 204.9 995.3 L 200.4 991.2 L 195.9 987.3 L 191.5 983.2 L 187.0 979.2 L 182.7 975.2 L 178.2 971.1 L 173.8 967.1 L 169.3 963.1 L 164.9 959.1 L 160.3 955.2 L 155.8 951.2 L 151.2 947.5 L 146.6 943.6 L 146.6 943.6 L 141.9 939.8 L 137.4 936.0 L 132.8 932.0 L 128.1 928.0 L 123.6 924.0 L 119.0 920.1 L 114.3 916.1 L 109.7 912.3 L 105.0 908.5 L 100.2 904.8 L 95.4 901.3 L 90.4 897.9 L 85.5 894.7 L 80.4 891.8 L 75.3 889.0 L 70.1 886.5 L 70.1 886.5 L 64.7 884.2 L 59.3 882.2 L 53.6 880.4 L 48.0 878.8 L 42.3 877.4 L 36.5 876.1 L 30.6 875.1 L 24.7 874.0 L 18.8 873.1 L 12.7 872.3 L 6.8 871.5 L 0.8 870.8 L 0.0 870.7" fill="none" stroke="#ff7a1a" stroke-width="6.0" stroke-opacity="0.9"/><path d="M 0.0 659.5 L 4.0 659.8 L 10.0 660.3 L 15.8 661.0 L 21.8 661.7 L 27.6 662.6 L 33.5 663.5 L 39.3 664.6 L 45.1 665.9 L 45.1 665.9 L 50.8 667.3 L 56.6 668.8 L 62.2 670.6 L 67.9 672.4 L 73.5 674.4 L 79.2 676.5 L 84.7 678.7 L 90.3 680.9 L 95.9 683.2 L 101.4 685.6 L 107.0 688.0 L 112.5 690.4 L 118.1 692.9 L 123.6 695.2 L 129.2 697.6 L 134.6 700.0 L 134.6 700.0 L 140.2 702.3 L 145.6 704.7 L 151.2 707.1 L 156.6 709.5 L 162.1 711.9 L 167.5 714.4 L 172.9 716.9 L 178.4 719.4 L 183.8 721.9 L 189.2 724.4 L 194.7 727.0 L 200.0 729.6 L 205.4 732.2 L 210.9 734.8 L 216.3 737.4 L 221.6 740.0 L 221.6 740.0 L 227.0 742.6 L 232.4 745.3 L 237.8 748.0 L 243.1 750.6 L 248.4 753.4 L 253.7 756.1 L 259.0 758.9 L 264.3 761.7 L 269.7 764.4 L 275.0 767.2 L 280.3 770.0 L 285.6 772.7 L 290.9 775.3 L 296.3 778.0 L 301.7 780.7 L 307.1 783.3 L 307.1 783.3 L 312.5 785.8 L 318.0 788.4 L 323.4 790.8 L 328.9 793.2 L 334.4 795.7 L 339.8 798.0 L 345.4 800.5 L 350.8 802.8 L 356.4 805.2 L 361.8 807.6 L 367.3 810.0 L 372.8 812.4 L 378.3 814.9 L 383.7 817.3 L 389.1 819.9 L 394.5 822.5 L 394.5 822.5 L 399.9 825.2 L 405.3 827.8 L 410.6 830.5 L 415.9 833.2 L 421.2 836.0 L 426.5 838.8 L 431.9 841.6 L 437.1 844.4 L 442.4 847.2 L 447.7 850.0 L 453.0 852.9 L 458.3 855.6 L 463.6 858.5 L 468.8 861.3 L 474.2 864.0 L 479.5 866.7 L 479.5 866.7 L 484.9 869.4 L 490.2 872.2 L 495.6 874.9 L 500.9 877.6 L 506.2 880.3 L 511.6 882.9 L 517.0 885.6 L 522.4 888.2 L 527.7 890.9 L 533.1 893.6 L 538.5 896.2 L 543.9 898.9 L 549.2 901.5 L 554.6 904.1 L 560.0 906.7 L 565.4 909.4 L 565.4 909.4 L 570.7 912.0 L 576.2 914.5 L 581.6 917.1 L 587.0 919.7 L 592.4 922.3 L 597.8 924.9 L 603.2 927.4 L 608.6 930.0 L 614.1 932.5 L 619.5 935.0 L 624.9 937.5 L 630.3 940.2 L 635.8 942.7 L 641.2 945.2 L 646.6 947.7 L 652.1 950.3 L 652.1 950.3 L 657.4 952.8 L 662.9 955.4 L 668.3 958.0 L 673.7 960.5 L 679.2 963.0 L 684.6 965.5 L 690.0 968.0 L 695.4 970.6 L 700.9 973.2 L 706.3 975.7 L 711.7 978.2 L 717.2 980.7 L 722.5 983.2 L 728.0 985.8 L 733.4 988.4 L 738.8 991.0 L 738.8 991.0 L 744.2 993.5 L 749.7 996.1 L 755.0 998.6 L 760.5 1001.2 L 765.9 1003.7 L 771.2 1006.3 L 776.7 1008.9 L 782.1 1011.6 L 787.5 1014.1 L 792.9 1016.7 L 798.3 1019.3 L 803.8 1021.9 L 809.1 1024.4 L 814.5 1027.0 L 820.0 1029.6 L 825.3 1032.1 L 825.3 1032.1 L 830.7 1034.7 L 836.2 1037.3 L 841.6 1039.8 L 847.0 1042.4 L 852.5 1044.9 L 857.9 1047.4 L 863.3 1049.9 L 868.8 1052.5 L 874.1 1055.0 L 879.6 1057.6 L 885.0 1060.1 L 890.4 1062.7 L 895.8 1065.3 L 901.2 1067.9 L 906.6 1070.6 L 911.9 1073.3 L 911.9 1073.3 L 917.2 1075.9 L 922.6 1078.6 L 928.0 1081.3 L 933.5 1083.9 L 938.8 1086.6 L 944.2 1089.3 L 949.6 1091.9 L 954.9 1094.6 L 960.2 1097.4 L 965.5 1100.2 L 970.8 1103.0 L 976.0 1105.9 L 981.2 1108.9 L 986.4 1111.9 L 991.5 1115.0 L 996.5 1118.2 L 996.5 1118.2 L 1000.0 1120.5" fill="none" stroke="#ff7a1a" stroke-width="6.0" stroke-opacity="0.9"/><path d="M 73.0 957.0 L 69.9 958.2 L 66.3 959.7 L 62.2 961.3 L 57.5 963.2 L 52.4 965.2 L 46.9 967.4 L 41.2 969.6 L 35.2 972.1 L 29.2 974.6 L 23.0 977.2 L 16.8 979.9 L 10.8 982.7 L 4.9 985.5 L 0.0 988.1" fill="none" stroke="#ff7a1a" stroke-width="6.0" stroke-opacity="0.9"/><path d="M 152.0 671.9 L 154.5 669.8 L 157.5 667.0 L 160.9 663.7 L 164.6 660.0 L 168.7 656.0 L 173.2 651.7 L 177.8 647.2 L 182.7 642.7 L 187.7 638.2 L 192.9 633.7 L 198.1 629.4 L 203.5 625.4 L 208.8 621.7 L 214.1 618.4 L 219.3 615.7 L 224.4 613.6 L 224.4 613.6 L 229.5 611.9 L 234.8 610.4 L 240.2 609.2 L 245.7 608.2 L 251.4 607.4 L 257.1 606.9 L 262.9 606.6 L 268.6 606.5 L 274.4 606.7 L 280.2 607.0 L 285.9 607.6 L 291.5 608.4 L 297.1 609.4 L 302.5 610.7 L 307.8 612.2 L 313.0 613.9 L 313.0 613.9 L 318.1 615.9 L 322.9 618.3 L 327.8 621.0 L 332.6 624.0 L 337.2 627.3 L 341.9 630.9 L 346.5 634.6 L 351.0 638.5 L 355.5 642.5 L 360.0 646.6 L 364.4 650.7 L 368.9 654.9 L 373.3 659.0 L 377.7 663.0 L 382.2 667.0 L 386.6 670.8 L 386.6 670.8 L 391.1 674.5 L 395.4 678.3 L 399.9 682.1 L 404.3 686.0 L 408.7 689.8 L 413.0 693.7 L 417.4 697.6 L 421.7 701.4 L 426.0 705.4 L 430.3 709.3 L 434.6 713.3 L 438.9 717.3 L 443.1 721.2 L 447.3 725.3 L 451.5 729.3 L 455.7 733.3 L 455.7 733.3 L 459.9 737.4 L 464.1 741.4 L 468.3 745.5 L 472.5 749.6 L 476.6 753.7 L 480.7 757.8 L 484.8 762.0 L 488.8 766.1 L 493.0 770.3 L 497.0 774.5 L 501.0 778.7 L 505.1 782.9 L 509.1 787.1 L 513.0 791.4 L 517.1 795.6 L 521.0 799.9 L 521.0 799.9 L 525.0 804.3 L 529.3 808.9 L 533.7 813.8 L 538.1 818.8 L 542.6 823.8 L 547.1 828.9 L 551.5 834.1 L 555.9 839.0 L 560.2 843.9 L 564.2 848.6 L 568.1 853.0 L 571.7 857.2 L 574.9 861.0 L 577.9 864.4 L 580.5 867.4 L 582.6 869.8" fill="none" stroke="#ff7a1a" stroke-width="6.0" stroke-opacity="0.9"/><path d="M 588.2 1278.3 L 586.7 1278.2 L 584.9 1278.1 L 582.8 1277.9 L 580.4 1277.7 L 577.9 1277.6 L 575.2 1277.4 L 572.3 1277.2 L 569.3 1277.0 L 566.2 1276.7 L 563.1 1276.4 L 560.0 1276.2 L 556.9 1275.8 L 553.8 1275.5 L 550.7 1275.1 L 547.9 1274.7 L 545.1 1274.3 L 545.1 1274.3 L 542.5 1273.9 L 539.8 1273.5 L 537.2 1273.0 L 534.5 1272.5 L 531.8 1272.0 L 529.2 1271.4 L 526.6 1270.9 L 524.0 1270.2 L 521.3 1269.6 L 518.7 1269.0 L 516.1 1268.3 L 513.5 1267.6 L 510.8 1266.9 L 508.2 1266.2 L 505.6 1265.4 L 503.1 1264.6 L 503.1 1264.6 L 500.4 1263.7 L 497.7 1262.7 L 494.9 1261.6 L 492.0 1260.5 L 489.1 1259.4 L 486.2 1258.2 L 483.4 1256.9 L 480.5 1255.7 L 477.8 1254.6 L 475.1 1253.4 L 472.6 1252.3 L 470.3 1251.2 L 468.2 1250.3 L 466.2 1249.4 L 464.6 1248.7 L 463.2 1248.1" fill="none" stroke="#ff7a1a" stroke-width="6.0" stroke-opacity="0.9"/></g><g id="clips"><circle cx="1000.0" cy="1587.5" r="2" fill="none" stroke="#0b5" stroke-width="0.6"/><circle cx="695.0" cy="1299.8" r="2" fill="none" stroke="#0b5" stroke-width="0.6"/><circle cx="608.9" cy="1256.7" r="2" fill="none" stroke="#0b5" stroke-width="0.6"/><circle cx="0.0" cy="870.7" r="2" fill="none" stroke="#0b5" stroke-width="0.6"/><circle cx="0.0" cy="659.5" r="2" fill="none" stroke="#0b5" stroke-width="0.6"/><circle cx="1000.0" cy="1120.5" r="2" fill="none" stroke="#0b5" stroke-width="0.6"/><circle cx="73.0" cy="957.0" r="2" fill="none" stroke="#0b5" stroke-width="0.6"/><circle cx="152.0" cy="671.9" r="2" fill="none" stroke="#0b5" stroke-width="0.6"/><circle cx="582.6" cy="869.8" r="2" fill="none" stroke="#0b5" stroke-width="0.6"/><circle cx="588.2" cy="1278.3" r="2" fill="none" stroke="#0b5" stroke-width="0.6"/><circle cx="463.2" cy="1248.1" r="2" fill="none" stroke="#0b5" stroke-width="0.6"/></g><g id="power"><circle cx="1000.0" cy="1587.5" r="5" fill="none" stroke="#e33" stroke-width="1"/><circle cx="1000.0" cy="1120.5" r="5" fill="none" stroke="#e33" stroke-width="1"/><circle cx="0.0" cy="988.1" r="5" fill="none" stroke="#e33" stroke-width="1"/><circle cx="0.0" cy="870.7" r="5" fill="none" stroke="#e33" stroke-width="1"/><circle cx="0.0" cy="659.5" r="5" fill="none" stroke="#e33" stroke-width="1"/></g><g id="bridges"><circle cx="594.9" cy="1267.1" r="9" fill="none" stroke="#e6a817" stroke-width="1.5"/><circle cx="592.5" cy="1267.0" r="9" fill="none" stroke="#e6a817" stroke-width="1.5"/><circle cx="594.9" cy="1267.1" r="9" fill="none" stroke="#e6a817" stroke-width="1.5"/><circle cx="546.3" cy="1262.7" r="9" fill="none" stroke="#e6a817" stroke-width="1.5"/><circle cx="526.9" cy="1259.2" r="9" fill="none" stroke="#e6a817" stroke-width="1.5"/><circle cx="475.4" cy="1240.6" r="9" fill="none" stroke="#e6a817" stroke-width="1.5"/></g></svg>