<svg xmlns="http://www.w3.org/2000/svg" width="2000mm" height="1000mm" viewBox="0 0 2000 1000"><g id="outline"><rect x="0" y="0" width="2000" height="1000" fill="none" stroke="#000" stroke-width="1"/></g><g id="channels"><path d="M 454.7 1000.0 L 453.6 994.4 L 452.5 987.9 L 452.5 987.9 L 451.3 981.5 L 450.0 975.0 L 448.6 968.6 L 447.0 962.2 L 445.5 955.8 L 443.9 949.4 L 442.3 942.9 L 440.7 936.5 L 439.2 930.1 L 437.7 923.7 L 436.4 917.3 L 435.2 910.9 L 434.2 904.5 L 433.3 898.0 L 432.7 891.6 L 432.3 885.1 L 432.3 885.1 L 432.1 878.7 L 432.2 872.2 L 432.3 865.7 L 432.7 859.2 L 433.2 852.7 L 433.8 846.2 L 434.5 839.7 L 435.3 833.2 L 436.3 826.7 L 437.3 820.2 L 438.4 813.7 L 439.5 807.2 L 440.7 800.7 L 441.9 794.3 L 443.1 787.8 L 444.4 781.4 L 444.4 781.4 L 445.7 775.0 L 447.1 768.7 L 448.7 762.3 L 450.3 756.0 L 452.0 749.6 L 453.7 743.3 L 455.6 737.0 L 457.4 730.7 L 459.3 724.4 L 461.2 718.1 L 463.1 711.8 L 465.1 705.6 L 466.9 699.3 L 468.8 693.0 L 470.6 686.7 L 472.4 680.3 L 472.4 680.3 L 474.2 674.0 L 475.9 667.7 L 477.7 661.4 L 479.4 655.1 L 481.2 648.8 L 482.9 642.4 L 484.7 636.1 L 486.4 629.8 L 488.2 623.5 L 489.9 617.2 L 491.7 610.9 L 493.4 604.5 L 495.1 598.2 L 496.9 591.9 L 498.6 585.6 L 500.3 579.2 L 500.3 579.2 L 502.0 572.9 L 503.7 566.6 L 505.4 560.3 L 507.1 553.9 L 508.8 547.6 L 510.5 541.3 L 512.2 534.9 L 513.9 528.6 L 515.6 522.3 L 517.3 515.9 L 518.9 509.6 L 520.6 503.2 L 522.2 496.9 L 523.9 490.5 L 525.5 484.2 L 527.1 477.8 L 527.1 477.8 L 528.7 471.5 L 530.2 465.1 L 531.8 458.7 L 533.2 452.3 L 534.7 445.9 L 536.1 439.5 L 537.6 433.1 L 539.0 426.7 L 540.5 420.3 L 542.0 413.9 L 543.5 407.6 L 545.1 401.2 L 546.7 394.9 L 548.4 388.5 L 550.1 382.2 L 552.0 375.9 L 552.0 375.9 L 553.8 369.7 L 555.7 363.4 L 557.5 357.1 L 559.4 350.8 L 561.3 344.5 L 563.2 338.2 L 565.2 331.9 L 567.2 325.6 L 569.3 319.4 L 571.5 313.2 L 573.7 307.1 L 576.1 301.0 L 578.5 294.9 L 581.1 288.9 L 583.7 283.0 L 586.6 277.2 L 586.6 277.2 L 589.5 271.4 L 592.7 265.7 L 595.9 260.0 L 599.3 254.5 L 602.8 248.9 L 606.4 243.5 L 610.1 238.0 L 613.8 232.6 L 617.6 227.3 L 621.4 221.9 L 625.2 216.6 L 629.1 211.2 L 632.9 205.9 L 636.7 200.5 L 640.5 195.1 L 644.2 189.8 L 644.2 189.8 L 648.0 184.4 L 651.7 179.0 L 655.6 173.7 L 659.4 168.4 L 663.3 163.1 L 667.2 157.8 L 671.1 152.5 L 675.0 147.2 L 678.8 141.9 L 682.7 136.6 L 686.5 131.3 L 690.3 125.9 L 693.9 120.5 L 697.6 115.1 L 701.1 109.6 L 704.6 104.0 L 704.6 104.0 L 708.0 98.4 L 711.3 92.8 L 714.5 87.1 L 717.7 81.4 L 720.9 75.7 L 724.0 69.9 L 727.0 64.1 L 730.0 58.3 L 733.0 52.4 L 736.0 46.6 L 738.9 40.7 L 741.8 34.8 L 744.7 28.9 L 747.6 23.0 L 750.5 17.1 L 753.3 11.2 L 753.3 11.2 L 756.2 5.3 L 758.7 0.0" fill="none" stroke="#39ff88" stroke-width="6.0" stroke-opacity="0.9"/><path d="M 472.1 0.0 L 470.5 2.1 L 466.5 7.3 L 462.4 12.4 L 458.3 17.5 L 454.1 22.6 L 449.9 27.6 L 445.7 32.7 L 441.5 37.7 L 437.3 42.8 L 433.1 47.8 L 428.9 52.9 L 424.9 58.0 L 420.8 63.2 L 416.8 68.4 L 413.0 73.6 L 409.2 79.0 L 409.2 79.0 L 405.4 84.3 L 401.8 89.8 L 398.1 95.2 L 394.5 100.7 L 391.0 106.2 L 387.5 111.7 L 384.0 117.3 L 380.6 122.9 L 377.2 128.5 L 373.9 134.1 L 370.6 139.8 L 367.3 145.5 L 364.1 151.2 L 360.9 156.9 L 357.8 162.7 L 354.7 168.4 L 354.7 168.4 L 351.6 174.2 L 348.6 180.0 L 345.7 185.9 L 342.8 191.8 L 340.0 197.7 L 337.2 203.6 L 334.4 209.6 L 331.7 215.5 L 329.0 221.5 L 326.3 227.5 L 323.6 233.5 L 321.0 239.5 L 318.3 245.5 L 315.6 251.5 L 312.9 257.4 L 310.2 263.4 L 310.2 263.4 L 307.5 269.4 L 304.8 275.4 L 302.1 281.3 L 299.4 287.3 L 296.8 293.3 L 294.1 299.3 L 291.4 305.3 L 288.8 311.3 L 286.1 317.2 L 283.4 323.2 L 280.8 329.2 L 278.2 335.2 L 275.5 341.2 L 272.9 347.2 L 270.3 353.3 L 267.6 359.3 L 267.6 359.3 L 265.0 365.3 L 262.4 371.3 L 259.8 377.3 L 257.1 383.3 L 254.5 389.3 L 251.9 395.3 L 249.3 401.3 L 246.7 407.3 L 244.1 413.3 L 241.5 419.4 L 238.9 425.4 L 236.3 431.4 L 233.8 437.5 L 231.2 443.5 L 228.7 449.5 L 226.1 455.6 L 226.1 455.6 L 223.6 461.6 L 221.1 467.7 L 218.6 473.7 L 216.1 479.8 L 213.6 485.9 L 211.1 491.9 L 208.6 498.0 L 206.1 504.1 L 203.7 510.1 L 201.2 516.2 L 198.8 522.3 L 196.4 528.4 L 194.0 534.5 L 191.6 540.6 L 189.2 546.7 L 186.9 552.8 L 186.9 552.8 L 184.6 559.0 L 182.3 565.1 L 180.0 571.2 L 177.7 577.4 L 175.5 583.6 L 173.3 589.7 L 171.1 595.9 L 168.9 602.1 L 166.7 608.3 L 164.6 614.5 L 162.4 620.6 L 160.2 626.8 L 158.0 633.0 L 155.9 639.2 L 153.7 645.4 L 151.5 651.6 L 151.5 651.6 L 149.3 657.7 L 147.1 663.9 L 145.0 670.1 L 142.8 676.3 L 140.6 682.5 L 138.5 688.7 L 136.3 694.9 L 134.2 701.1 L 132.0 707.2 L 129.9 713.4 L 127.7 719.6 L 125.5 725.8 L 123.4 732.0 L 121.2 738.2 L 119.0 744.4 L 116.8 750.5 L 116.8 750.5 L 114.6 756.7 L 112.4 762.9 L 110.2 769.0 L 107.9 775.2 L 105.7 781.4 L 103.4 787.5 L 101.2 793.7 L 99.0 799.9 L 96.7 806.0 L 94.5 812.2 L 92.2 818.3 L 90.0 824.5 L 87.7 830.6 L 85.5 836.8 L 83.2 843.0 L 81.0 849.1 L 81.0 849.1 L 78.8 855.3 L 76.5 861.4 L 74.3 867.6 L 72.1 873.8 L 69.8 879.9 L 67.6 886.1 L 65.3 892.2 L 63.1 898.4 L 60.9 904.6 L 58.6 910.7 L 56.4 916.9 L 54.2 923.1 L 51.9 929.2 L 49.7 935.4 L 47.5 941.6 L 45.3 947.7 L 45.3 947.7 L 43.1 953.9 L 40.9 960.1 L 38.7 966.3 L 36.5 972.4 L 34.2 978.6 L 32.0 984.8 L 29.8 990.9 L 27.6 997.1 L 26.6 1000.0" fill="none" stroke="#39ff88" stroke-width="6.0" stroke-opacity="0.9"/><path d="M 554.9 1000.0 L 554.6 995.0 L 554.1 987.6 L 553.5 980.3 L 553.0 973.0 L 552.5 965.7 L 552.1 958.4 L 551.9 951.2 L 551.8 944.0 L 552.1 936.9 L 552.6 929.8 L 553.4 922.8 L 554.7 915.9 L 554.7 915.9 L 556.3 909.1 L 558.2 902.3 L 560.3 895.6 L 562.7 888.9 L 565.3 882.2 L 568.0 875.6 L 571.0 869.0 L 574.1 862.5 L 577.3 856.0 L 580.6 849.6 L 584.1 843.2 L 587.6 836.8 L 591.2 830.5 L 594.8 824.3 L 598.5 818.0 L 602.2 811.9 L 602.2 811.9 L 605.9 805.8 L 609.8 799.8 L 613.9 793.9 L 618.0 788.0 L 622.3 782.2 L 626.7 776.5 L 631.2 770.8 L 635.7 765.1 L 640.2 759.4 L 644.8 753.8 L 649.4 748.1 L 653.9 742.5 L 658.4 736.8 L 662.9 731.1 L 667.2 725.3 L 671.5 719.5 L 671.5 719.5 L 675.7 713.6 L 680.0 707.8 L 684.2 701.9 L 688.4 696.0 L 692.7 690.2 L 696.9 684.3 L 701.1 678.4 L 705.2 672.5 L 709.4 666.6 L 713.5 660.7 L 717.6 654.7 L 721.6 648.8 L 725.7 642.8 L 729.6 636.7 L 733.6 630.7 L 737.4 624.6 L 737.4 624.6 L 741.3 618.5 L 745.0 612.3 L 748.8 606.2 L 752.4 599.9 L 756.1 593.7 L 759.7 587.4 L 763.2 581.2 L 766.8 574.9 L 770.3 568.6 L 773.8 562.2 L 777.3 555.9 L 780.8 549.6 L 784.3 543.3 L 787.8 537.0 L 791.3 530.6 L 794.8 524.3 L 794.8 524.3 L 798.3 518.0 L 801.8 511.7 L 805.3 505.4 L 808.7 499.0 L 812.1 492.7 L 815.6 486.3 L 819.0 479.9 L 822.4 473.6 L 825.8 467.2 L 829.3 460.9 L 832.7 454.5 L 836.2 448.2 L 839.7 441.9 L 843.2 435.6 L 846.7 429.3 L 850.3 423.0 L 850.3 423.0 L 853.9 416.7 L 857.5 410.4 L 861.0 404.1 L 864.5 397.8 L 868.1 391.4 L 871.6 385.1 L 875.2 378.8 L 878.8 372.5 L 882.4 366.3 L 886.1 360.1 L 889.9 353.9 L 893.7 347.8 L 897.6 341.7 L 901.6 335.7 L 905.7 329.9 L 909.9 324.0 L 909.9 324.0 L 914.2 318.3 L 918.6 312.6 L 923.0 306.9 L 927.5 301.2 L 932.1 295.6 L 936.7 290.1 L 941.4 284.6 L 946.1 279.1 L 950.9 273.8 L 955.9 268.5 L 960.8 263.3 L 965.9 258.1 L 971.0 253.1 L 976.2 248.2 L 981.5 243.3 L 986.9 238.6 L 986.9 238.6 L 992.4 234.0 L 998.0 229.6 L 1003.8 225.4 L 1009.7 221.3 L 1015.7 217.3 L 1021.8 213.4 L 1028.0 209.6 L 1034.2 205.8 L 1040.4 202.1 L 1046.6 198.3 L 1052.8 194.6 L 1059.0 190.8 L 1065.2 186.9 L 1071.3 183.0 L 1077.2 178.9 L 1083.1 174.8 L 1083.1 174.8 L 1089.0 170.5 L 1094.8 166.3 L 1100.6 162.0 L 1106.4 157.7 L 1112.2 153.3 L 1117.9 148.9 L 1123.6 144.5 L 1129.3 140.1 L 1135.0 135.6 L 1140.6 131.1 L 1146.2 126.6 L 1151.8 122.0 L 1157.3 117.3 L 1162.8 112.6 L 1168.2 107.9 L 1173.6 103.1 L 1173.6 103.1 L 1178.9 98.3 L 1184.2 93.3 L 1189.3 88.3 L 1194.5 83.2 L 1199.5 78.1 L 1204.5 72.9 L 1209.5 67.7 L 1214.5 62.4 L 1219.5 57.2 L 1224.4 51.9 L 1229.4 46.6 L 1234.4 41.4 L 1239.4 36.1 L 1244.4 31.0 L 1249.5 25.8 L 1254.6 20.7 L 1254.6 20.7 L 1259.7 15.7 L 1264.9 10.6 L 1270.0 5.5 L 1275.2 0.4 L 1275.6 0.0" fill="none" stroke="#39ff88" stroke-width="6.0" stroke-opacity="0.9"/><path d="M 961.0 0.0 L 959.5 1.0 L 953.5 5.0 L 947.4 9.0 L 941.4 13.0 L 935.4 16.9 L 929.4 20.9 L 923.4 24.9 L 917.4 28.9 L 917.4 28.9 L 911.3 32.9 L 905.3 36.9 L 899.2 40.8 L 893.2 44.7 L 887.1 48.7 L 881.0 52.6 L 874.9 56.5 L 868.8 60.4 L 862.8 64.4 L 856.8 68.4 L 850.8 72.5 L 844.9 76.6 L 839.0 80.7 L 833.2 85.0 L 827.5 89.3 L 821.8 93.8 L 821.8 93.8 L 816.2 98.3 L 810.6 102.9 L 805.1 107.6 L 799.7 112.3 L 794.3 117.1 L 789.0 121.9 L 783.7 126.8 L 778.4 131.8 L 773.2 136.8 L 768.0 141.8 L 762.8 146.8 L 757.6 151.9 L 752.5 157.0 L 747.4 162.1 L 742.2 167.2 L 737.1 172.3 L 737.1 172.3 L 732.1 177.4 L 727.0 182.5 L 722.0 187.7 L 717.0 193.0 L 712.1 198.2 L 707.1 203.5 L 702.2 208.8 L 697.3 214.1 L 692.4 219.4 L 687.6 224.8 L 682.7 230.1 L 677.9 235.5 L 673.0 240.8 L 668.1 246.2 L 663.3 251.5 L 658.4 256.8 L 658.4 256.8 L 653.4 262.3 L 648.1 268.1 L 642.7 274.1 L 637.1 280.2 L 631.5 286.4 L 625.8 292.7 L 620.2 298.9 L 614.7 305.0 L 609.4 310.9 L 604.2 316.6 L 599.4 322.1 L 594.8 327.1 L 590.6 331.8 L 586.9 335.9 L 583.6 339.5 L 580.9 342.5" fill="none" stroke="#39ff88" stroke-width="6.0" stroke-opacity="0.9"/></g><g id="clips"><circle cx="454.7" cy="1000.0" r="2" fill="none" stroke="#0b5" stroke-width="0.6"/><circle cx="758.7" cy="0.0" r="2" fill="none" stroke="#0b5" stroke-width="0.6"/><circle cx="472.1" cy="0.0" r="2" fill="none" stroke="#0b5" stroke-width="0.6"/><circle cx="26.6" cy="1000.0" r="2" fill="none" stroke="#0b5" stroke-width="0.6"/><circle cx="554.9" cy="1000.0" r="2" fill="none" stroke="#0b5" stroke-width="0.6"/><circle cx="1275.6" cy="0.0" r="2" fill="none" stroke="#0b5" stroke-width="0.6"/><circle cx="961.0" cy="0.0" r="2" fill="none" stroke="#0b5" stroke-width="0.6"/><circle cx="580.9" cy="342.5" r="2" fill="none" stroke="#0b5" stroke-width="0.6"/></g><g id="power"><circle cx="454.7" cy="1000.0" r="5" fill="none" stroke="#e33" stroke-width="1"/><circle cx="26.6" cy="1000.0" r="5" fill="none" stroke="#e33" stroke-width="1"/><circle cx="554.9" cy="1000.0" r="5" fill="none" stroke="#e33" stroke-width="1"/><circle cx="758.7" cy="0.0" r="5" fill="none" stroke="#e33" stroke-width="1"/><circle cx="472.2" cy="0.0" r="5" fill="none" stroke="#e33" stroke-width="1"/><circle cx="1275.7" cy="0.0" r="5" fill="none" stroke="#e33" stroke-width="1"/><circle cx="961.1" cy="0.0" r="5" fill="none" stroke="#e33" stroke-width="1"/></g></svg>