<svg xmlns="http://www.w3.org/2000/svg" width="2000mm" height="1000mm" viewBox="0 0 2000 1000"><g id="outline"><rect x="0" y="0" width="2000" height="1000" fill="none" stroke="#000" stroke-width="1"/></g><g id="channels"><path d="M 2000.0 419.6 L 1999.5 419.2 L 1994.9 415.2 L 1994.9 415.2 L 1990.4 411.0 L 1986.0 406.7 L 1981.8 402.3 L 1977.7 397.7 L 1973.7 393.0 L 1969.8 388.2 L 1966.0 383.3 L 1962.3 378.3 L 1958.6 373.2 L 1954.9 368.1 L 1951.4 363.0 L 1947.8 357.8 L 1944.3 352.6 L 1940.8 347.4 L 1937.3 342.3 L 1933.7 337.2 L 1933.7 337.2 L 1930.3 332.0 L 1926.9 326.8 L 1923.6 321.6 L 1920.4 316.3 L 1917.3 310.9 L 1914.1 305.5 L 1911.1 300.1 L 1908.0 294.7 L 1904.9 289.3 L 1901.8 283.9 L 1898.7 278.5 L 1895.6 273.1 L 1892.3 267.8 L 1889.1 262.5 L 1885.7 257.3 L 1882.2 252.2 L 1882.2 252.2 L 1878.7 247.1 L 1875.2 242.0 L 1871.6 236.9 L 1868.0 231.8 L 1864.4 226.7 L 1860.8 221.7 L 1857.1 216.7 L 1853.3 211.7 L 1849.5 206.8 L 1845.7 201.9 L 1841.8 197.1 L 1837.8 192.3 L 1833.8 187.6 L 1829.7 183.0 L 1825.5 178.4 L 1821.3 174.0 L 1821.3 174.0 L 1816.9 169.6 L 1812.5 165.3 L 1808.0 161.0 L 1803.4 156.9 L 1798.8 152.8 L 1794.1 148.7 L 1789.3 144.8 L 1784.5 140.8 L 1779.6 136.9 L 1774.7 133.1 L 1769.8 129.3 L 1764.8 125.5 L 1759.8 121.8 L 1754.9 118.1 L 1749.9 114.4 L 1744.9 110.7 L 1744.9 110.7 L 1739.9 107.1 L 1734.8 103.5 L 1729.7 100.0 L 1724.5 96.5 L 1719.4 93.1 L 1714.2 89.7 L 1708.9 86.3 L 1703.7 83.0 L 1698.4 79.7 L 1693.1 76.4 L 1687.9 73.1 L 1682.6 69.8 L 1677.3 66.5 L 1672.0 63.3 L 1666.8 60.0 L 1661.5 56.6 L 1661.5 56.6 L 1656.1 53.2 L 1650.4 49.6 L 1644.6 45.9 L 1638.5 42.2 L 1632.4 38.3 L 1626.3 34.5 L 1620.1 30.7 L 1614.1 27.0 L 1608.3 23.3 L 1602.7 19.9 L 1597.3 16.6 L 1592.4 13.5 L 1587.8 10.6 L 1583.7 8.1 L 1580.1 5.9 L 1577.2 4.1" fill="none" stroke="#ff7a1a" stroke-width="6.0" stroke-opacity="0.9"/><path d="M 0.0 973.1 L 2.8 972.6 L 9.7 971.4 L 16.7 970.4 L 23.4 969.6 L 29.9 968.9 L 36.0 968.3 L 41.6 967.7 L 46.5 967.2 L 50.7 966.6 L 54.1 965.9" fill="none" stroke="#a05bff" stroke-width="6.0" stroke-opacity="0.9"/><path d="M 128.3 999.1 L 132.0 998.2 L 136.5 997.2 L 141.8 996.1 L 147.7 995.0 L 154.2 993.8 L 161.1 992.5 L 168.3 991.1 L 175.8 989.5 L 183.4 987.7 L 191.0 985.8 L 198.5 983.6 L 205.8 981.2 L 212.8 978.5 L 219.4 975.6 L 225.4 972.3 L 230.9 968.8 L 230.9 968.8 L 236.0 964.9 L 241.1 960.6 L 246.1 955.9 L 251.0 951.0 L 255.8 945.8 L 260.5 940.3 L 265.0 934.7 L 269.2 928.8 L 273.3 922.8 L 277.0 916.8 L 280.4 910.6 L 283.4 904.4 L 286.1 898.2 L 288.3 892.1 L 290.1 886.0 L 291.3 880.0 L 291.3 880.0 L 292.2 873.9 L 292.6 867.5 L 292.6 860.9 L 292.2 854.2 L 291.5 847.3 L 290.5 840.4 L 289.1 833.4 L 287.4 826.5 L 285.3 819.7 L 283.0 813.0 L 280.4 806.5 L 277.6 800.2 L 274.4 794.2 L 271.1 788.6 L 267.5 783.3 L 263.6 778.4 L 263.6 778.4 L 259.5 773.9 L 254.8 769.6 L 249.8 765.5 L 244.4 761.6 L 238.6 757.9 L 232.6 754.4 L 226.3 751.2 L 219.8 748.2 L 213.1 745.4 L 206.4 742.8 L 199.5 740.4 L 192.7 738.3 L 185.8 736.4 L 179.1 734.7 L 172.4 733.2 L 165.9 732.0 L 165.9 732.0 L 159.5 731.0 L 152.9 730.4 L 146.3 730.0 L 139.5 729.8 L 132.7 729.9 L 125.9 730.3 L 119.1 730.8 L 112.2 731.6 L 105.4 732.5 L 98.5 733.6 L 91.7 734.9 L 84.9 736.3 L 78.2 737.8 L 71.6 739.4 L 65.0 741.2 L 58.6 743.0 L 58.6 743.0 L 52.2 745.2 L 45.8 748.1 L 39.4 751.4 L 33.1 755.2 L 26.8 759.3 L 20.5 763.6 L 14.3 768.0 L 8.1 772.3 L 2.0 776.4 L 0.0 777.7" fill="none" stroke="#a05bff" stroke-width="6.0" stroke-opacity="0.9"/><path d="M 80.3 881.5 L 80.3 880.3 L 80.3 878.9 L 80.3 877.3 L 80.3 875.5 L 80.3 873.6 L 80.3 871.5 L 80.3 869.2 L 80.2 866.9 L 80.2 864.6 L 80.2 862.2 L 80.2 859.7 L 80.1 857.3 L 80.1 854.9 L 80.1 852.6 L 80.0 850.3 L 80.0 848.2 L 80.0 848.2 L 79.9 846.1 L 79.8 844.0 L 79.8 842.0 L 79.7 839.9 L 79.7 837.8 L 79.6 835.7 L 79.5 833.6 L 79.4 831.6 L 79.3 829.5 L 79.2 827.4 L 79.1 825.3 L 79.0 823.2 L 78.9 821.2 L 78.8 819.1 L 78.6 817.0 L 78.5 814.9 L 78.5 814.9 L 78.3 812.8 L 78.1 810.5 L 77.9 808.2 L 77.7 805.9 L 77.5 803.4 L 77.2 801.0 L 77.0 798.6 L 76.7 796.3 L 76.5 794.0 L 76.2 791.8 L 76.0 789.7 L 75.8 787.7 L 75.6 786.0 L 75.4 784.3 L 75.2 783.0 L 75.1 781.8" fill="none" stroke="#a05bff" stroke-width="6.0" stroke-opacity="0.9"/></g><g id="clips"><circle cx="2000.0" cy="419.6" r="2" fill="none" stroke="#0b5" stroke-width="0.6"/><circle cx="1577.2" cy="4.1" r="2" fill="none" stroke="#0b5" stroke-width="0.6"/><circle cx="0.0" cy="973.1" r="2" fill="none" stroke="#0b5" stroke-width="0.6"/><circle cx="128.3" cy="999.1" r="2" fill="none" stroke="#0b5" stroke-width="0.6"/><circle cx="0.0" cy="777.7" r="2" fill="none" stroke="#0b5" stroke-width="0.6"/><circle cx="80.3" cy="881.5" r="2" fill="none" stroke="#0b5" stroke-width="0.6"/><circle cx="75.1" cy="781.8" r="2" fill="none" stroke="#0b5" stroke-width="0.6"/></g><g id="power"><circle cx="2000.0" cy="419.6" r="5" fill="none" stroke="#e33" stroke-width="1"/><circle cx="0.0" cy="973.1" r="5" fill="none" stroke="#e33" stroke-width="1"/><circle cx="0.0" cy="777.7" r="5" fill="none" stroke="#e33" stroke-width="1"/></g></svg>