<svg xmlns="http://www.w3.org/2000/svg" width="2000mm" height="1000mm" viewBox="0 0 2000 1000"><g id="outline"><rect x="0" y="0" width="2000" height="1000" fill="none" stroke="#000" stroke-width="1"/></g><g id="channels"><path d="M 1474.7 952.9 L 1470.7 952.4 L 1465.9 952.0 L 1460.3 951.6 L 1454.1 951.1 L 1447.3 950.6 L 1440.0 950.1 L 1432.3 949.5 L 1424.4 948.8 L 1416.3 948.0 L 1408.0 947.1 L 1399.8 946.1 L 1391.6 944.8 L 1383.7 943.4 L 1375.9 941.8 L 1368.6 940.0 L 1361.7 938.0 L 1361.7 938.0 L 1355.1 935.7 L 1348.6 933.3 L 1342.0 930.7 L 1335.5 927.9 L 1329.0 924.9 L 1322.6 921.8 L 1316.3 918.6 L 1310.0 915.2 L 1303.8 911.6 L 1297.7 908.0 L 1291.6 904.2 L 1285.7 900.2 L 1279.9 896.2 L 1274.1 892.1 L 1268.5 887.8 L 1263.0 883.5 L 1263.0 883.5 L 1257.7 878.9 L 1252.6 874.1 L 1247.7 869.0 L 1243.0 863.8 L 1238.4 858.4 L 1233.9 852.8 L 1229.5 847.2 L 1225.1 841.4 L 1220.7 835.7 L 1216.3 829.9 L 1211.9 824.2 L 1207.4 818.5 L 1202.9 813.0 L 1198.2 807.6 L 1193.4 802.3 L 1188.4 797.3 L 1188.4 797.3 L 1183.2 792.4 L 1178.0 787.6 L 1172.6 783.0 L 1167.2 778.3 L 1161.8 773.8 L 1156.2 769.3 L 1150.7 764.9 L 1145.0 760.5 L 1139.4 756.2 L 1133.7 751.9 L 1128.0 747.5 L 1122.4 743.2 L 1116.7 738.9 L 1111.0 734.6 L 1105.4 730.2 L 1099.8 725.8 L 1099.8 725.8 L 1094.2 721.4 L 1088.6 717.0 L 1083.0 712.6 L 1077.4 708.2 L 1071.7 703.9 L 1066.0 699.6 L 1060.4 695.2 L 1054.7 690.9 L 1049.1 686.5 L 1043.4 682.2 L 1037.8 677.8 L 1032.2 673.4 L 1026.6 669.0 L 1021.1 664.5 L 1015.5 660.0 L 1010.0 655.5 L 1010.0 655.5 L 1004.6 650.9 L 999.1 646.3 L 993.8 641.6 L 988.4 636.8 L 983.1 632.1 L 977.8 627.3 L 972.5 622.5 L 967.3 617.7 L 962.0 612.9 L 956.7 608.1 L 951.4 603.3 L 946.1 598.6 L 940.7 593.9 L 935.3 589.2 L 929.8 584.7 L 924.4 580.1 L 924.4 580.1 L 918.8 575.6 L 913.4 571.0 L 907.9 566.3 L 902.4 561.5 L 897.0 556.8 L 891.5 552.1 L 885.9 547.4 L 880.4 542.8 L 874.8 538.3 L 869.1 533.9 L 863.4 529.7 L 857.5 525.7 L 851.6 521.9 L 845.6 518.4 L 839.5 515.1 L 833.3 512.1 L 833.3 512.1 L 826.9 509.4 L 820.4 507.0 L 813.7 504.9 L 807.0 503.0 L 800.2 501.3 L 793.3 499.8 L 786.3 498.5 L 779.2 497.3 L 772.2 496.2 L 765.0 495.2 L 757.9 494.3 L 750.8 493.4 L 743.6 492.5 L 736.5 491.6 L 729.4 490.7 L 722.4 489.8 L 722.4 489.8 L 715.4 488.9 L 708.3 488.1 L 701.2 487.5 L 694.1 487.0 L 687.0 486.6 L 679.9 486.2 L 672.7 485.9 L 665.6 485.6 L 658.5 485.3 L 651.3 484.9 L 644.2 484.5 L 637.1 484.0 L 630.0 483.4 L 622.9 482.6 L 615.9 481.7 L 608.9 480.6 L 608.9 480.6 L 601.9 479.3 L 594.9 477.8 L 588.0 476.2 L 581.1 474.5 L 574.2 472.7 L 567.3 470.9 L 560.5 468.9 L 553.6 466.9 L 546.8 464.9 L 539.9 462.8 L 533.1 460.8 L 526.2 458.7 L 519.4 456.7 L 512.5 454.8 L 505.6 452.9 L 498.7 451.1 L 498.7 451.1 L 491.8 449.4 L 484.9 447.6 L 478.0 445.7 L 471.1 443.9 L 464.2 442.1 L 457.3 440.3 L 450.4 438.5 L 443.4 436.7 L 436.5 435.0 L 429.6 433.3 L 422.7 431.7 L 415.7 430.1 L 408.7 428.7 L 401.8 427.3 L 394.8 426.0 L 387.8 424.8 L 387.8 424.8 L 380.7 423.8 L 373.7 422.8 L 366.6 421.9 L 359.5 421.1 L 352.5 420.3 L 345.4 419.7 L 338.2 419.0 L 331.1 418.5 L 324.0 418.0 L 316.9 417.5 L 309.7 417.1 L 302.6 416.8 L 295.5 416.5 L 288.3 416.2 L 281.2 415.9 L 274.1 415.7 L 274.1 415.7 L 267.0 415.5 L 259.9 415.2 L 252.7 415.0 L 245.6 414.8 L 238.4 414.7 L 231.3 414.6 L 224.1 414.5 L 216.9 414.5 L 209.8 414.6 L 202.7 414.7 L 195.5 414.9 L 188.4 415.3 L 181.3 415.7 L 174.3 416.3 L 167.2 417.0 L 160.2 417.9 L 160.2 417.9 L 153.1 419.0 L 146.1 420.5 L 139.1 422.3 L 132.1 424.3 L 125.1 426.6 L 118.1 428.9 L 111.1 431.3 L 104.1 433.7 L 97.2 436.1 L 90.3 438.3 L 83.4 440.3 L 76.5 442.0 L 69.7 443.4 L 62.9 444.5 L 56.2 445.0 L 49.5 445.1 L 49.5 445.1 L 42.9 444.8 L 36.2 444.1 L 29.5 443.2 L 22.8 442.0 L 16.2 440.6 L 9.6 438.9 L 3.0 437.0 L 0.0 436.0" fill="none" stroke="#ff7a1a" stroke-width="6.0" stroke-opacity="0.9"/><path d="M 0.0 223.5 L 0.6 223.8 L 6.9 227.0 L 13.3 230.1 L 13.3 230.1 L 19.8 233.0 L 26.3 235.8 L 32.8 238.5 L 39.4 241.1 L 46.1 243.6 L 52.8 246.0 L 59.6 248.3 L 66.4 250.5 L 73.2 252.6 L 80.1 254.5 L 87.0 256.4 L 93.9 258.1 L 100.8 259.8 L 107.7 261.3 L 114.6 262.7 L 121.6 264.0 L 121.6 264.0 L 128.5 265.1 L 135.5 266.0 L 142.6 266.8 L 149.6 267.4 L 156.7 267.9 L 163.9 268.3 L 171.0 268.6 L 178.1 268.8 L 185.3 268.9 L 192.5 268.9 L 199.7 269.0 L 206.8 268.9 L 214.0 268.9 L 221.2 268.8 L 228.3 268.8 L 235.4 268.7 L 235.4 268.7 L 242.5 268.7 L 249.7 268.5 L 256.8 268.3 L 263.9 268.1 L 271.0 267.8 L 278.2 267.4 L 285.3 267.1 L 292.4 266.6 L 299.5 266.2 L 306.7 265.8 L 313.8 265.4 L 320.9 264.9 L 328.0 264.5 L 335.1 264.2 L 342.3 263.8 L 349.4 263.5 L 349.4 263.5 L 356.5 263.2 L 363.7 263.0 L 370.8 262.8 L 377.9 262.5 L 385.0 262.3 L 392.2 262.1 L 399.3 261.9 L 406.4 261.8 L 413.5 261.6 L 420.7 261.4 L 427.8 261.1 L 434.9 260.9 L 442.1 260.7 L 449.2 260.4 L 456.3 260.1 L 463.4 259.8 L 463.4 259.8 L 470.6 259.5 L 477.7 259.2 L 484.8 258.9 L 491.9 258.5 L 499.1 258.2 L 506.2 257.8 L 513.3 257.5 L 520.4 257.1 L 527.5 256.7 L 534.7 256.3 L 541.8 255.8 L 548.9 255.4 L 556.0 254.9 L 563.1 254.4 L 570.2 253.8 L 577.3 253.2 L 577.3 253.2 L 584.4 252.6 L 591.5 251.8 L 598.6 250.9 L 605.7 250.0 L 612.8 249.0 L 619.9 248.0 L 627.0 247.0 L 634.1 245.9 L 641.2 245.0 L 648.3 244.0 L 655.3 243.2 L 662.4 242.4 L 669.5 241.7 L 676.6 241.2 L 683.6 240.8 L 690.7 240.6 L 690.7 240.6 L 697.8 240.5 L 704.9 240.5 L 712.0 240.5 L 719.1 240.6 L 726.2 240.7 L 733.3 241.0 L 740.4 241.3 L 747.5 241.7 L 754.6 242.3 L 761.7 242.9 L 768.7 243.7 L 775.8 244.5 L 782.7 245.6 L 789.7 246.7 L 796.6 248.0 L 803.5 249.5 L 803.5 249.5 L 810.3 251.2 L 817.2 253.0 L 823.9 255.1 L 830.7 257.3 L 837.4 259.6 L 844.1 262.1 L 850.7 264.7 L 857.4 267.4 L 864.0 270.1 L 870.6 273.0 L 877.2 275.8 L 883.8 278.7 L 890.4 281.6 L 897.0 284.4 L 903.6 287.3 L 910.1 290.1 L 910.1 290.1 L 916.7 292.8 L 923.2 295.7 L 929.8 298.5 L 936.3 301.4 L 942.8 304.3 L 949.3 307.2 L 955.7 310.2 L 962.2 313.2 L 968.7 316.2 L 975.1 319.2 L 981.6 322.3 L 988.0 325.3 L 994.4 328.4 L 1000.9 331.5 L 1007.3 334.6 L 1013.7 337.7 L 1013.7 337.7 L 1020.1 340.8 L 1026.5 344.0 L 1032.9 347.2 L 1039.2 350.4 L 1045.6 353.7 L 1051.9 356.9 L 1058.2 360.2 L 1064.5 363.5 L 1070.9 366.8 L 1077.2 370.1 L 1083.5 373.4 L 1089.9 376.6 L 1096.2 379.8 L 1102.6 383.0 L 1109.0 386.2 L 1115.4 389.3 L 1115.4 389.3 L 1121.9 392.3 L 1128.4 395.3 L 1134.8 398.2 L 1141.4 401.1 L 1147.9 404.0 L 1154.4 406.8 L 1161.0 409.7 L 1167.5 412.5 L 1174.1 415.3 L 1180.6 418.2 L 1187.1 421.1 L 1193.7 423.9 L 1200.2 426.9 L 1206.6 429.8 L 1213.1 432.8 L 1219.5 435.9 L 1219.5 435.9 L 1225.9 439.1 L 1232.3 442.2 L 1238.7 445.5 L 1245.0 448.7 L 1251.3 452.0 L 1257.6 455.3 L 1264.0 458.7 L 1270.2 462.0 L 1276.5 465.4 L 1282.8 468.7 L 1289.1 472.1 L 1295.4 475.4 L 1301.7 478.8 L 1308.0 482.1 L 1314.4 485.4 L 1320.7 488.6 L 1320.7 488.6 L 1327.1 491.8 L 1333.4 495.1 L 1339.8 498.3 L 1346.2 501.5 L 1352.5 504.7 L 1358.9 507.9 L 1365.3 511.1 L 1371.7 514.2 L 1378.1 517.4 L 1384.5 520.6 L 1390.9 523.7 L 1397.3 526.9 L 1403.7 530.0 L 1410.1 533.1 L 1416.5 536.2 L 1422.9 539.4 L 1422.9 539.4 L 1429.3 542.5 L 1435.8 545.5 L 1442.2 548.6 L 1448.6 551.7 L 1455.1 554.7 L 1461.5 557.8 L 1468.0 560.8 L 1474.4 563.9 L 1480.9 566.9 L 1487.3 569.9 L 1493.8 572.9 L 1500.2 576.0 L 1506.7 579.0 L 1513.2 582.0 L 1519.6 585.0 L 1526.1 588.1 L 1526.1 588.1 L 1532.5 591.1 L 1539.0 594.1 L 1545.4 597.2 L 1551.9 600.2 L 1558.4 603.2 L 1564.8 606.2 L 1571.3 609.2 L 1577.7 612.2 L 1584.2 615.3 L 1590.7 618.3 L 1597.1 621.3 L 1603.6 624.3 L 1610.0 627.3 L 1616.5 630.4 L 1623.0 633.4 L 1629.4 636.5 L 1629.4 636.5 L 1635.8 639.5 L 1642.3 642.6 L 1648.7 645.6 L 1655.2 648.7 L 1661.6 651.7 L 1668.0 654.8 L 1674.5 657.9 L 1680.9 661.0 L 1687.4 664.0 L 1693.8 667.1 L 1700.2 670.2 L 1706.7 673.3 L 1713.1 676.3 L 1719.5 679.4 L 1726.0 682.5 L 1732.4 685.5 L 1732.4 685.5 L 1738.8 688.6 L 1745.3 691.6 L 1751.8 694.6 L 1758.2 697.7 L 1764.7 700.7 L 1771.2 703.7 L 1777.6 706.7 L 1784.1 709.7 L 1790.5 712.7 L 1797.0 715.8 L 1803.4 718.8 L 1809.9 721.9 L 1816.3 725.0 L 1822.7 728.1 L 1829.1 731.3 L 1835.5 734.5 L 1835.5 734.5 L 1841.8 737.6 L 1848.2 740.8 L 1854.6 744.0 L 1861.1 747.1 L 1867.5 750.3 L 1873.9 753.5 L 1880.3 756.7 L 1886.6 759.9 L 1893.0 763.2 L 1899.3 766.5 L 1905.6 769.9 L 1911.8 773.3 L 1918.0 776.9 L 1924.1 780.5 L 1930.2 784.2 L 1936.2 788.0 L 1936.2 788.0 L 1942.1 791.9 L 1948.0 795.9 L 1953.8 799.9 L 1959.6 804.1 L 1965.4 808.3 L 1971.1 812.5 L 1976.7 816.8 L 1982.4 821.2 L 1988.0 825.7 L 1993.5 830.2 L 1999.0 834.7 L 2000.0 835.5" fill="none" stroke="#ff7a1a" stroke-width="6.0" stroke-opacity="0.9"/><path d="M 836.7 596.0 L 833.1 597.5 L 828.8 599.3 L 823.9 601.2 L 818.3 603.4 L 812.2 605.8 L 805.7 608.4 L 798.9 611.1 L 791.8 614.0 L 784.6 617.0 L 777.2 620.1 L 769.9 623.3 L 762.7 626.6 L 755.7 630.0 L 749.0 633.5 L 742.6 637.0 L 736.7 640.5 L 736.7 640.5 L 731.0 644.1 L 725.2 647.7 L 719.4 651.3 L 713.6 655.1 L 707.8 658.9 L 702.1 662.8 L 696.5 666.9 L 691.0 671.0 L 685.7 675.2 L 680.5 679.6 L 675.5 684.1 L 670.8 688.8 L 666.3 693.6 L 662.2 698.6 L 658.3 703.8 L 654.8 709.1 L 654.8 709.1 L 651.8 714.8 L 649.5 721.1 L 647.7 727.7 L 646.4 734.7 L 645.4 741.9 L 644.7 749.4 L 644.1 756.9 L 643.6 764.4 L 643.1 771.8 L 642.5 779.1 L 641.6 786.1 L 640.3 792.8 L 638.7 799.1 L 636.5 804.9 L 633.7 810.2 L 630.2 814.8 L 630.2 814.8 L 626.1 818.7 L 621.4 822.3 L 616.3 825.4 L 610.7 828.1 L 604.8 830.4 L 598.6 832.5 L 592.2 834.3 L 585.5 835.8 L 578.6 837.2 L 571.7 838.4 L 564.6 839.4 L 557.6 840.4 L 550.6 841.3 L 543.6 842.2 L 536.8 843.1 L 530.2 844.1 L 530.2 844.1 L 523.6 845.0 L 517.0 845.6 L 510.3 846.0 L 503.5 846.2 L 496.7 846.2 L 489.8 846.2 L 483.0 846.0 L 476.1 845.9 L 469.2 845.7 L 462.3 845.5 L 455.3 845.4 L 448.5 845.5 L 441.6 845.7 L 434.8 846.0 L 428.0 846.6 L 421.2 847.4 L 421.2 847.4 L 414.5 848.6 L 407.8 850.2 L 401.1 852.1 L 394.4 854.3 L 387.7 856.6 L 381.0 859.1 L 374.4 861.6 L 367.7 864.1 L 361.1 866.5 L 354.5 868.8 L 347.9 870.8 L 341.4 872.6 L 334.8 874.0 L 328.4 875.1 L 321.9 875.6 L 315.5 875.6 L 315.5 875.6 L 309.1 875.2 L 302.6 874.4 L 295.9 873.4 L 289.3 872.1 L 282.6 870.6 L 275.9 868.8 L 269.3 866.7 L 262.7 864.4 L 256.3 861.9 L 250.0 859.1 L 244.0 856.1 L 238.1 852.9 L 232.5 849.5 L 227.1 845.8 L 222.1 842.0 L 217.4 837.9 L 217.4 837.9 L 212.8 833.4 L 208.2 828.3 L 203.5 822.6 L 198.8 816.5 L 194.3 810.0 L 189.9 803.3 L 185.8 796.4 L 182.0 789.4 L 178.6 782.5 L 175.6 775.7 L 173.2 769.1 L 171.4 762.9 L 170.3 757.1 L 169.9 751.8 L 170.3 747.2 L 171.5 743.2 L 171.5 743.2 L 173.8 739.9 L 177.1 737.2 L 181.4 734.8 L 186.4 732.9 L 192.2 731.4 L 198.5 730.2 L 205.4 729.2 L 212.7 728.5 L 220.2 727.9 L 228.0 727.4 L 235.9 727.0 L 243.7 726.6 L 251.5 726.2 L 259.0 725.7 L 266.3 725.0 L 273.1 724.2 L 273.1 724.2 L 279.7 723.4 L 286.4 722.7 L 293.1 722.1 L 299.9 721.6 L 306.7 721.1 L 313.6 720.7 L 320.5 720.4 L 327.4 720.0 L 334.3 719.5 L 341.2 719.1 L 348.0 718.5 L 354.9 717.8 L 361.7 717.0 L 368.5 716.1 L 375.2 715.0 L 381.8 713.6 L 381.8 713.6 L 388.5 712.2 L 395.1 710.6 L 401.8 709.0 L 408.4 707.2 L 415.0 705.4 L 421.6 703.5 L 428.2 701.5 L 434.8 699.4 L 441.3 697.1 L 447.7 694.8 L 454.1 692.3 L 460.4 689.7 L 466.7 687.0 L 472.8 684.1 L 478.9 681.1 L 484.8 678.0 L 484.8 678.0 L 490.6 674.6 L 496.4 671.1 L 502.1 667.5 L 507.7 663.6 L 513.3 659.7 L 518.7 655.6 L 524.1 651.4 L 529.5 647.0 L 534.8 642.6 L 540.0 638.1 L 545.2 633.6 L 550.3 629.0 L 555.4 624.3 L 560.4 619.7 L 565.4 615.0 L 570.3 610.3 L 570.3 610.3 L 575.3 605.4 L 580.5 600.1 L 585.7 594.6 L 591.0 588.8 L 596.3 582.9 L 601.5 576.9 L 606.7 570.9 L 611.7 564.9 L 616.6 559.1 L 621.3 553.5 L 625.7 548.1 L 629.8 543.1 L 633.6 538.5 L 637.0 534.4 L 640.0 530.9 L 642.5 528.0" fill="none" stroke="#ff7a1a" stroke-width="6.0" stroke-opacity="0.9"/><path d="M 930.8 256.7 L 933.8 254.1 L 937.3 250.8 L 941.4 246.9 L 945.8 242.5 L 950.7 237.7 L 956.0 232.6 L 961.5 227.3 L 967.3 221.9 L 973.3 216.5 L 979.5 211.2 L 985.7 206.1 L 992.1 201.3 L 998.4 196.9 L 1004.7 193.0 L 1010.9 189.7 L 1017.0 187.2 L 1017.0 187.2 L 1023.1 185.2 L 1029.4 183.4 L 1035.8 182.0 L 1042.4 180.8 L 1049.1 179.9 L 1055.9 179.3 L 1062.8 178.9 L 1069.6 178.8 L 1076.5 179.0 L 1083.4 179.4 L 1090.2 180.1 L 1096.9 181.1 L 1103.5 182.3 L 1110.0 183.8 L 1116.3 185.6 L 1122.5 187.6 L 1122.5 187.6 L 1128.5 190.0 L 1134.3 192.8 L 1140.1 196.0 L 1145.8 199.6 L 1151.3 203.6 L 1156.9 207.8 L 1162.3 212.2 L 1167.7 216.9 L 1173.1 221.6 L 1178.4 226.5 L 1183.7 231.4 L 1189.0 236.4 L 1194.2 241.3 L 1199.5 246.1 L 1204.8 250.8 L 1210.1 255.4 L 1210.1 255.4 L 1215.4 259.8 L 1220.6 264.3 L 1225.9 268.8 L 1231.1 273.4 L 1236.4 278.0 L 1241.5 282.6 L 1246.7 287.2 L 1251.9 291.8 L 1257.0 296.5 L 1262.1 301.2 L 1267.2 305.9 L 1272.3 310.7 L 1277.4 315.4 L 1282.4 320.2 L 1287.4 325.0 L 1292.4 329.8 L 1292.4 329.8 L 1297.4 334.6 L 1302.4 339.4 L 1307.3 344.3 L 1312.3 349.1 L 1317.2 354.0 L 1322.1 358.9 L 1327.0 363.9 L 1331.8 368.8 L 1336.7 373.8 L 1341.5 378.8 L 1346.3 383.8 L 1351.1 388.8 L 1355.9 393.8 L 1360.6 398.9 L 1365.4 403.9 L 1370.1 409.0 L 1370.1 409.0 L 1374.9 414.3 L 1380.0 419.8 L 1385.2 425.6 L 1390.4 431.5 L 1395.8 437.5 L 1401.1 443.6 L 1406.4 449.7 L 1411.6 455.6 L 1416.7 461.4 L 1421.5 467.0 L 1426.1 472.3 L 1430.4 477.2 L 1434.3 481.8 L 1437.8 485.8 L 1440.9 489.4 L 1443.4 492.3" fill="none" stroke="#ff7a1a" stroke-width="6.0" stroke-opacity="0.9"/><path d="M 1450.1 978.6 L 1448.3 978.4 L 1446.1 978.3 L 1443.6 978.1 L 1440.8 977.9 L 1437.8 977.7 L 1434.6 977.5 L 1431.1 977.2 L 1427.6 977.0 L 1423.9 976.7 L 1420.2 976.3 L 1416.5 976.0 L 1412.8 975.6 L 1409.1 975.2 L 1405.5 974.8 L 1402.1 974.3 L 1398.8 973.8 L 1398.8 973.8 L 1395.7 973.3 L 1392.5 972.8 L 1389.4 972.2 L 1386.2 971.6 L 1383.0 971.0 L 1379.9 970.3 L 1376.7 969.7 L 1373.6 968.9 L 1370.4 968.2 L 1367.3 967.5 L 1364.2 966.7 L 1361.1 965.8 L 1358.0 965.0 L 1354.9 964.1 L 1351.8 963.2 L 1348.8 962.2 L 1348.8 962.2 L 1345.6 961.2 L 1342.4 960.0 L 1339.0 958.7 L 1335.6 957.4 L 1332.1 956.0 L 1328.7 954.6 L 1325.3 953.1 L 1321.9 951.7 L 1318.6 950.3 L 1315.5 948.9 L 1312.5 947.6 L 1309.7 946.3 L 1307.2 945.2 L 1304.9 944.2 L 1302.9 943.3 L 1301.3 942.6" fill="none" stroke="#ff7a1a" stroke-width="6.0" stroke-opacity="0.9"/></g><g id="clips"><circle cx="1474.7" cy="952.9" r="2" fill="none" stroke="#0b5" stroke-width="0.6"/><circle cx="0.0" cy="436.0" r="2" fill="none" stroke="#0b5" stroke-width="0.6"/><circle cx="0.0" cy="223.5" r="2" fill="none" stroke="#0b5" stroke-width="0.6"/><circle cx="2000.0" cy="835.5" r="2" fill="none" stroke="#0b5" stroke-width="0.6"/><circle cx="836.7" cy="596.0" r="2" fill="none" stroke="#0b5" stroke-width="0.6"/><circle cx="642.5" cy="528.0" r="2" fill="none" stroke="#0b5" stroke-width="0.6"/><circle cx="930.8" cy="256.7" r="2" fill="none" stroke="#0b5" stroke-width="0.6"/><circle cx="1443.4" cy="492.3" r="2" fill="none" stroke="#0b5" stroke-width="0.6"/><circle cx="1450.1" cy="978.6" r="2" fill="none" stroke="#0b5" stroke-width="0.6"/><circle cx="1301.3" cy="942.6" r="2" fill="none" stroke="#0b5" stroke-width="0.6"/></g><g id="power"><circle cx="0.0" cy="436.0" r="5" fill="none" stroke="#e33" stroke-width="1"/><circle cx="0.0" cy="223.5" r="5" fill="none" stroke="#e33" stroke-width="1"/><circle cx="2000.0" cy="835.5" r="5" fill="none" stroke="#e33" stroke-width="1"/></g></svg>