<svg xmlns="http://www.w3.org/2000/svg" width="2000mm" height="1000mm" viewBox="0 0 2000 1000"><g id="outline"><rect x="0" y="0" width="2000" height="1000" fill="none" stroke="#000" stroke-width="1"/></g><g id="channels"><path d="M 1863.6 369.4 L 1863.0 373.1 L 1862.3 377.6 L 1861.5 382.8 L 1860.5 388.5 L 1859.5 394.8 L 1858.4 401.5 L 1857.2 408.5 L 1856.0 415.9 L 1854.8 423.4 L 1853.6 431.1 L 1852.4 438.9 L 1851.2 446.6 L 1850.0 454.2 L 1848.9 461.6 L 1847.8 468.8 L 1846.8 475.7 L 1846.8 475.7 L 1845.9 482.3 L 1844.9 489.0 L 1844.0 495.7 L 1843.1 502.3 L 1842.1 509.0 L 1841.2 515.7 L 1840.3 522.3 L 1839.5 529.0 L 1838.6 535.7 L 1837.8 542.3 L 1837.0 549.0 L 1836.3 555.7 L 1835.6 562.4 L 1834.9 569.1 L 1834.3 575.8 L 1833.8 582.5 L 1833.8 582.5 L 1833.3 589.2 L 1832.8 595.9 L 1832.3 602.6 L 1831.9 609.3 L 1831.5 616.0 L 1831.1 622.7 L 1830.8 629.5 L 1830.5 636.2 L 1830.3 642.9 L 1830.1 649.6 L 1830.0 656.4 L 1829.9 663.1 L 1829.9 669.8 L 1830.0 676.5 L 1830.2 683.2 L 1830.4 689.9 L 1830.4 689.9 L 1830.8 696.6 L 1831.2 703.3 L 1831.7 710.0 L 1832.3 716.7 L 1832.9 723.4 L 1833.6 730.1 L 1834.4 736.7 L 1835.2 743.4 L 1836.0 750.1 L 1836.9 756.8 L 1837.9 763.4 L 1838.8 770.1 L 1839.8 776.8 L 1840.9 783.4 L 1841.9 790.0 L 1842.9 796.7 L 1842.9 796.7 L 1844.0 803.3 L 1845.1 809.9 L 1846.3 816.6 L 1847.5 823.2 L 1848.7 829.8 L 1850.0 836.4 L 1851.3 843.0 L 1852.7 849.6 L 1854.0 856.2 L 1855.4 862.7 L 1856.8 869.3 L 1858.2 875.9 L 1859.6 882.5 L 1861.0 889.1 L 1862.4 895.6 L 1863.8 902.2 L 1863.8 902.2 L 1865.2 908.8 L 1866.6 915.4 L 1868.0 921.9 L 1869.4 928.5 L 1870.9 935.1 L 1872.3 941.7 L 1873.8 948.2 L 1875.3 954.8 L 1876.7 961.3 L 1878.2 967.9 L 1879.7 974.5 L 1881.2 981.0 L 1882.7 987.6 L 1884.3 994.1 L 1885.6 1000.0" fill="none" stroke="#39ff88" stroke-width="6.0" stroke-opacity="0.9"/><path d="M 1962.5 0.0 L 1960.9 4.6 L 1958.6 10.7 L 1956.4 16.9 L 1954.2 23.1 L 1951.9 29.2 L 1949.7 35.4 L 1947.5 41.6 L 1945.3 47.7 L 1945.3 47.7 L 1943.1 53.9 L 1940.9 60.1 L 1938.7 66.3 L 1936.5 72.4 L 1934.2 78.6 L 1932.0 84.8 L 1929.8 90.9 L 1927.6 97.1 L 1925.4 103.3 L 1923.2 109.5 L 1921.1 115.7 L 1918.9 121.9 L 1916.8 128.1 L 1914.8 134.3 L 1912.7 140.5 L 1910.8 146.8 L 1910.8 146.8 L 1908.8 153.0 L 1906.8 159.3 L 1904.8 165.5 L 1902.7 171.8 L 1900.7 178.0 L 1898.7 184.3 L 1896.8 190.6 L 1894.9 196.9 L 1893.0 203.2 L 1891.2 209.5 L 1889.5 215.8 L 1887.9 222.2 L 1886.3 228.5 L 1884.9 234.9 L 1883.6 241.3 L 1882.4 247.7 L 1882.4 247.7 L 1881.4 254.1 L 1880.4 260.5 L 1879.6 267.0 L 1878.8 273.5 L 1878.2 280.0 L 1877.6 286.6 L 1877.1 293.1 L 1876.7 299.6 L 1876.3 306.2 L 1876.1 312.8 L 1875.9 319.3 L 1875.7 325.9 L 1875.6 332.4 L 1875.6 339.0 L 1875.6 345.5 L 1875.7 352.1 L 1875.7 352.1 L 1875.8 358.6 L 1876.1 365.1 L 1876.4 371.6 L 1876.9 378.2 L 1877.4 384.7 L 1877.9 391.2 L 1878.6 397.8 L 1879.2 404.3 L 1880.0 410.8 L 1880.7 417.4 L 1881.5 423.9 L 1882.3 430.4 L 1883.1 436.9 L 1883.9 443.4 L 1884.7 450.0 L 1885.4 456.5 L 1885.4 456.5 L 1886.2 463.2 L 1887.1 470.2 L 1888.1 477.5 L 1889.1 484.9 L 1890.1 492.4 L 1891.2 500.0 L 1892.3 507.5 L 1893.3 514.9 L 1894.4 522.1 L 1895.4 529.0 L 1896.4 535.6 L 1897.3 541.7 L 1898.1 547.3 L 1898.9 552.3 L 1899.5 556.7 L 1900.0 560.3" fill="none" stroke="#39ff88" stroke-width="6.0" stroke-opacity="0.9"/></g><g id="clips"><circle cx="1863.6" cy="369.4" r="2" fill="none" stroke="#0b5" stroke-width="0.6"/><circle cx="1885.6" cy="1000.0" r="2" fill="none" stroke="#0b5" stroke-width="0.6"/><circle cx="1962.5" cy="0.0" r="2" fill="none" stroke="#0b5" stroke-width="0.6"/><circle cx="1900.0" cy="560.3" r="2" fill="none" stroke="#0b5" stroke-width="0.6"/></g><g id="power"><circle cx="1885.6" cy="1000.0" r="5" fill="none" stroke="#e33" stroke-width="1"/><circle cx="1962.5" cy="0.0" r="5" fill="none" stroke="#e33" stroke-width="1"/></g><g id="bridges"><circle cx="1869.6" cy="360.8" r="9" fill="none" stroke="#e6a817" stroke-width="1.5"/><circle cx="1867.6" cy="410.1" r="9" fill="none" stroke="#e6a817" stroke-width="1.5"/></g></svg>