<svg xmlns="http://www.w3.org/2000/svg" width="2000mm" height="1000mm" viewBox="0 0 2000 1000"><g id="outline"><rect x="0" y="0" width="2000" height="1000" fill="none" stroke="#000" stroke-width="1"/></g><g id="channels"><path d="M 1019.0 1000.0 L 1018.6 996.8 L 1017.6 990.2 L 1016.5 983.5 L 1015.3 976.8 L 1013.9 970.2 L 1012.5 963.5 L 1011.0 956.9 L 1009.5 950.3 L 1008.1 943.8 L 1006.6 937.3 L 1006.6 937.3 L 1005.1 930.9 L 1003.6 924.5 L 1001.9 918.1 L 1000.1 911.7 L 998.2 905.3 L 996.3 898.9 L 994.2 892.5 L 992.1 886.2 L 989.9 879.9 L 987.7 873.6 L 985.4 867.3 L 983.0 861.1 L 980.6 854.8 L 978.2 848.6 L 975.7 842.5 L 973.2 836.3 L 973.2 836.3 L 970.7 830.2 L 968.1 824.0 L 965.5 817.9 L 962.9 811.7 L 960.2 805.6 L 957.5 799.5 L 954.8 793.4 L 951.9 787.4 L 949.0 781.4 L 946.0 775.4 L 942.9 769.5 L 939.7 763.7 L 936.4 758.0 L 933.0 752.3 L 929.5 746.8 L 925.8 741.4 L 925.8 741.4 L 922.0 736.0 L 918.0 730.7 L 913.9 725.6 L 909.7 720.5 L 905.4 715.4 L 901.0 710.5 L 896.5 705.6 L 891.9 700.8 L 887.2 696.0 L 882.5 691.3 L 877.7 686.6 L 872.9 682.0 L 868.0 677.4 L 863.1 672.9 L 858.2 668.4 L 853.3 663.9 L 853.3 663.9 L 848.4 659.6 L 843.3 655.3 L 838.2 651.1 L 833.0 647.0 L 827.7 642.9 L 822.4 638.9 L 817.0 635.0 L 811.6 631.1 L 806.2 627.1 L 800.8 623.2 L 795.4 619.3 L 790.0 615.4 L 784.7 611.4 L 779.4 607.4 L 774.1 603.3 L 769.0 599.1 L 769.0 599.1 L 763.8 594.9 L 758.7 590.6 L 753.6 586.3 L 748.6 582.0 L 743.5 577.7 L 738.5 573.4 L 733.5 569.0 L 728.5 564.6 L 723.5 560.2 L 718.5 555.8 L 713.6 551.4 L 708.6 546.9 L 703.7 542.5 L 698.7 538.0 L 693.8 533.6 L 688.9 529.1 L 688.9 529.1 L 684.0 524.6 L 679.1 520.0 L 674.3 515.4 L 669.6 510.8 L 664.8 506.1 L 660.1 501.4 L 655.4 496.6 L 650.7 491.9 L 645.9 487.3 L 641.2 482.6 L 636.4 478.0 L 631.5 473.5 L 626.6 469.0 L 621.6 464.6 L 616.6 460.3 L 611.4 456.2 L 611.4 456.2 L 606.2 452.1 L 600.9 448.1 L 595.6 444.1 L 590.2 440.3 L 584.8 436.5 L 579.3 432.7 L 573.8 429.0 L 568.2 425.3 L 562.6 421.7 L 557.0 418.1 L 551.4 414.6 L 545.7 411.1 L 540.1 407.6 L 534.4 404.1 L 528.7 400.7 L 523.0 397.2 L 523.0 397.2 L 517.3 393.8 L 511.6 390.5 L 505.8 387.2 L 500.0 384.0 L 494.2 380.8 L 488.3 377.6 L 482.5 374.5 L 476.6 371.3 L 470.7 368.2 L 464.8 365.1 L 458.9 362.0 L 453.0 358.9 L 447.1 355.8 L 441.3 352.7 L 435.4 349.5 L 429.6 346.4 L 429.6 346.4 L 423.7 343.2 L 417.9 340.0 L 412.0 336.8 L 406.2 333.6 L 400.4 330.4 L 394.5 327.2 L 388.7 324.0 L 382.9 320.8 L 377.0 317.6 L 371.2 314.4 L 365.4 311.2 L 359.6 307.9 L 353.8 304.7 L 348.0 301.4 L 342.2 298.2 L 336.4 294.9 L 336.4 294.9 L 330.6 291.6 L 324.8 288.4 L 318.9 285.2 L 313.0 282.0 L 307.1 278.9 L 301.2 275.7 L 295.3 272.5 L 289.5 269.3 L 283.6 266.0 L 277.9 262.7 L 272.1 259.3 L 266.5 255.8 L 260.9 252.2 L 255.4 248.6 L 250.1 244.8 L 244.8 240.8 L 244.8 240.8 L 239.6 236.8 L 234.3 232.7 L 229.0 228.5 L 223.7 224.3 L 218.5 220.0 L 213.3 215.7 L 208.2 211.2 L 203.2 206.7 L 198.3 202.1 L 193.6 197.3 L 189.1 192.5 L 184.8 187.6 L 180.7 182.5 L 176.8 177.3 L 173.2 172.0 L 169.9 166.6 L 169.9 166.6 L 166.9 160.9 L 164.2 155.1 L 161.7 149.2 L 159.5 143.0 L 157.4 136.8 L 155.6 130.4 L 153.9 123.9 L 152.5 117.4 L 151.1 110.8 L 149.9 104.1 L 148.8 97.4 L 147.9 90.7 L 147.0 84.1 L 146.1 77.4 L 145.4 70.8 L 144.6 64.2 L 144.6 64.2 L 144.0 57.7 L 143.5 51.1 L 143.2 44.5 L 143.0 37.9 L 143.0 31.3 L 143.1 24.6 L 143.2 18.0 L 143.5 11.3 L 143.8 4.6 L 144.1 0.0" fill="none" stroke="#ffd23d" stroke-width="6.0" stroke-opacity="0.9"/><path d="M 289.4 0.0 L 290.2 2.5 L 292.3 8.7 L 294.5 15.0 L 296.8 21.2 L 299.3 27.5 L 301.8 33.6 L 304.5 39.8 L 307.3 45.8 L 310.3 51.8 L 313.4 57.7 L 316.7 63.4 L 320.1 69.0 L 323.7 74.4 L 327.5 79.7 L 331.4 84.8 L 335.5 89.7 L 335.5 89.7 L 339.9 94.4 L 344.5 98.8 L 349.4 103.1 L 354.5 107.2 L 359.7 111.2 L 365.2 115.0 L 370.8 118.7 L 376.5 122.3 L 382.2 125.8 L 388.1 129.2 L 394.0 132.6 L 399.9 135.9 L 405.8 139.2 L 411.7 142.6 L 417.5 145.9 L 423.3 149.3 L 423.3 149.3 L 429.0 152.6 L 434.8 155.9 L 440.6 159.0 L 446.5 162.2 L 452.4 165.2 L 458.3 168.2 L 464.2 171.2 L 470.2 174.2 L 476.2 177.1 L 482.2 180.1 L 488.2 183.0 L 494.1 185.9 L 500.1 188.9 L 506.0 191.9 L 511.9 195.0 L 517.8 198.1 L 517.8 198.1 L 523.6 201.3 L 529.5 204.5 L 535.2 207.8 L 541.0 211.2 L 546.8 214.5 L 552.5 217.9 L 558.3 221.2 L 564.0 224.6 L 569.8 227.9 L 575.6 231.3 L 581.3 234.6 L 587.1 237.8 L 593.0 241.0 L 598.8 244.1 L 604.7 247.1 L 610.7 250.0 L 610.7 250.0 L 616.7 252.9 L 622.7 255.9 L 628.7 258.9 L 634.7 261.9 L 640.7 264.9 L 646.8 267.8 L 652.9 270.7 L 659.0 273.5 L 665.1 276.2 L 671.3 278.8 L 677.5 281.2 L 683.7 283.5 L 689.9 285.6 L 696.1 287.5 L 702.4 289.1 L 708.7 290.5 L 708.7 290.5 L 715.3 291.7 L 722.2 293.0 L 729.5 294.3 L 737.0 295.4 L 744.7 296.5 L 752.4 297.4 L 760.1 298.2 L 767.6 298.7 L 774.9 298.9 L 782.0 298.8 L 788.6 298.4 L 794.8 297.7 L 800.4 296.5 L 805.3 294.8 L 809.5 292.6 L 812.8 289.9 L 812.8 289.9 L 815.4 286.5 L 817.4 282.4 L 818.8 277.5 L 819.7 272.1 L 820.1 266.2 L 820.1 259.8 L 819.6 253.2 L 818.7 246.4 L 817.5 239.4 L 815.9 232.4 L 814.0 225.5 L 811.8 218.7 L 809.4 212.1 L 806.8 205.9 L 804.1 200.2 L 801.1 194.9 L 801.1 194.9 L 797.9 190.0 L 794.2 185.4 L 790.0 180.9 L 785.4 176.6 L 780.5 172.4 L 775.3 168.3 L 769.8 164.4 L 764.1 160.5 L 758.3 156.7 L 752.4 153.0 L 746.4 149.3 L 740.4 145.7 L 734.5 142.1 L 728.6 138.4 L 722.9 134.7 L 717.3 131.0 L 717.3 131.0 L 711.9 127.4 L 706.3 123.8 L 700.6 120.4 L 694.8 117.1 L 689.1 113.8 L 683.2 110.5 L 677.4 107.3 L 671.6 104.1 L 665.8 100.8 L 660.0 97.5 L 654.3 94.1 L 648.6 90.6 L 643.1 87.0 L 637.7 83.3 L 632.4 79.4 L 627.2 75.4 L 627.2 75.4 L 622.1 71.1 L 617.0 66.9 L 611.9 62.5 L 606.9 58.0 L 601.9 53.5 L 597.0 48.8 L 592.1 44.1 L 587.4 39.3 L 582.7 34.4 L 578.2 29.4 L 573.8 24.3 L 569.6 19.2 L 565.6 14.0 L 561.8 8.6 L 558.1 3.2 L 556.1 0.0" fill="none" stroke="#ffd23d" stroke-width="6.0" stroke-opacity="0.9"/><path d="M 964.4 0.0 L 964.7 2.1 L 965.9 9.8 L 967.1 17.5 L 968.3 25.0 L 969.5 32.2 L 970.9 39.1 L 972.3 45.6 L 974.0 51.5 L 975.9 56.8 L 978.0 61.3 L 980.4 65.0 L 983.1 67.8 L 983.1 67.8 L 986.3 69.7 L 990.0 70.9 L 994.2 71.5 L 998.7 71.5 L 1003.5 71.0 L 1008.5 69.9 L 1013.6 68.4 L 1018.7 66.3 L 1023.7 63.9 L 1028.6 61.2 L 1033.2 58.1 L 1037.6 54.7 L 1041.5 51.0 L 1045.0 47.2 L 1047.8 43.2 L 1050.1 39.0 L 1050.1 39.0 L 1051.6 34.5 L 1052.7 29.5 L 1053.3 23.9 L 1053.5 17.9 L 1053.3 11.6 L 1052.8 4.9 L 1052.2 0.0" fill="none" stroke="#ffd23d" stroke-width="6.0" stroke-opacity="0.9"/><path d="M 1262.3 0.0 L 1262.8 3.2 L 1264.0 9.8 L 1264.0 9.8 L 1265.2 16.3 L 1266.4 22.8 L 1267.7 29.4 L 1269.0 35.9 L 1270.3 42.4 L 1271.7 48.9 L 1273.1 55.4 L 1274.5 61.9 L 1275.9 68.4 L 1277.4 74.9 L 1279.0 81.4 L 1280.5 87.8 L 1282.2 94.3 L 1283.8 100.7 L 1285.5 107.1 L 1287.3 113.5 L 1287.3 113.5 L 1289.1 119.9 L 1290.9 126.3 L 1292.8 132.7 L 1294.8 139.0 L 1296.8 145.4 L 1298.8 151.7 L 1300.9 158.0 L 1303.0 164.3 L 1305.1 170.6 L 1307.3 176.9 L 1309.5 183.2 L 1311.7 189.5 L 1314.0 195.7 L 1316.3 202.0 L 1318.6 208.2 L 1320.9 214.5 L 1320.9 214.5 L 1323.3 220.7 L 1325.7 226.9 L 1328.1 233.0 L 1330.6 239.2 L 1333.1 245.4 L 1335.6 251.5 L 1338.2 257.7 L 1340.8 263.8 L 1343.4 269.9 L 1346.0 276.0 L 1348.7 282.1 L 1351.3 288.2 L 1353.9 294.3 L 1356.6 300.4 L 1359.2 306.5 L 1361.9 312.7 L 1361.9 312.7 L 1364.5 318.8 L 1367.2 324.9 L 1369.8 331.0 L 1372.5 337.1 L 1375.2 343.1 L 1377.8 349.2 L 1380.5 355.3 L 1383.2 361.4 L 1385.9 367.5 L 1388.7 373.5 L 1391.4 379.6 L 1394.2 385.7 L 1396.9 391.7 L 1399.7 397.7 L 1402.5 403.8 L 1405.3 409.8 L 1405.3 409.8 L 1408.1 415.8 L 1411.0 421.8 L 1413.8 427.9 L 1416.7 433.9 L 1419.5 439.9 L 1422.4 445.9 L 1425.3 451.8 L 1428.2 457.8 L 1431.2 463.8 L 1434.1 469.8 L 1437.1 475.7 L 1440.0 481.7 L 1443.0 487.6 L 1446.0 493.5 L 1449.1 499.5 L 1452.1 505.4 L 1452.1 505.4 L 1455.2 511.3 L 1458.3 517.1 L 1461.5 523.0 L 1464.7 528.8 L 1467.9 534.6 L 1471.2 540.4 L 1474.4 546.2 L 1477.7 552.0 L 1481.0 557.8 L 1484.2 563.6 L 1487.4 569.4 L 1490.7 575.3 L 1493.8 581.1 L 1496.9 587.0 L 1500.0 592.9 L 1503.0 598.8 L 1503.0 598.8 L 1506.0 604.7 L 1508.9 610.7 L 1511.8 616.7 L 1514.7 622.7 L 1517.5 628.7 L 1520.3 634.7 L 1523.1 640.8 L 1525.9 646.8 L 1528.6 652.9 L 1531.4 658.9 L 1534.1 665.0 L 1536.8 671.1 L 1539.5 677.2 L 1542.2 683.2 L 1544.9 689.3 L 1547.6 695.4 L 1547.6 695.4 L 1550.3 701.5 L 1553.0 707.6 L 1555.6 713.7 L 1558.2 719.8 L 1560.8 725.9 L 1563.3 732.1 L 1565.9 738.2 L 1568.5 744.3 L 1571.1 750.5 L 1573.6 756.6 L 1576.2 762.7 L 1578.9 768.8 L 1581.5 774.9 L 1584.2 781.0 L 1587.0 787.0 L 1589.8 793.1 L 1589.8 793.1 L 1592.6 799.1 L 1595.5 805.1 L 1598.5 811.0 L 1601.5 816.9 L 1604.5 822.9 L 1607.6 828.8 L 1610.7 834.7 L 1613.8 840.6 L 1616.9 846.4 L 1620.0 852.3 L 1623.0 858.2 L 1626.1 864.1 L 1629.1 870.1 L 1632.1 876.0 L 1635.0 882.0 L 1637.9 888.0 L 1637.9 888.0 L 1640.8 894.0 L 1643.7 900.0 L 1646.5 906.0 L 1649.4 912.0 L 1652.2 918.0 L 1655.1 924.0 L 1657.9 930.1 L 1660.7 936.1 L 1663.4 942.2 L 1666.1 948.3 L 1668.8 954.4 L 1671.4 960.5 L 1673.9 966.6 L 1676.4 972.8 L 1678.8 979.0 L 1681.1 985.2 L 1681.1 985.2 L 1683.3 991.4 L 1685.5 997.7 L 1686.3 1000.0" fill="none" stroke="#ffd23d" stroke-width="6.0" stroke-opacity="0.9"/><path d="M 808.8 77.7 L 809.5 77.1 L 810.4 76.4 L 811.5 75.5 L 812.6 74.6 L 813.8 73.6 L 815.2 72.5 L 816.6 71.4 L 818.1 70.2 L 819.6 68.9 L 821.1 67.7 L 822.6 66.4 L 824.1 65.2 L 825.6 63.9 L 827.1 62.7 L 828.5 61.5 L 829.8 60.4 L 829.8 60.4 L 831.1 59.3 L 832.4 58.1 L 833.7 57.0 L 835.0 55.9 L 836.3 54.8 L 837.5 53.7 L 838.8 52.5 L 840.1 51.4 L 841.4 50.2 L 842.6 49.1 L 843.9 48.0 L 845.1 46.8 L 846.4 45.7 L 847.6 44.5 L 848.9 43.3 L 850.1 42.2 L 850.1 42.2 L 851.4 41.0 L 852.8 39.7 L 854.2 38.4 L 855.6 37.1 L 857.0 35.7 L 858.4 34.3 L 859.8 33.0 L 861.2 31.6 L 862.6 30.3 L 863.9 29.0 L 865.1 27.8 L 866.3 26.7 L 867.3 25.7 L 868.3 24.8 L 869.1 24.0 L 869.8 23.3" fill="none" stroke="#ffd23d" stroke-width="6.0" stroke-opacity="0.9"/></g><g id="clips"><circle cx="1019.0" cy="1000.0" r="2" fill="none" stroke="#0b5" stroke-width="0.6"/><circle cx="144.1" cy="0.0" r="2" fill="none" stroke="#0b5" stroke-width="0.6"/><circle cx="289.4" cy="0.0" r="2" fill="none" stroke="#0b5" stroke-width="0.6"/><circle cx="556.1" cy="0.0" r="2" fill="none" stroke="#0b5" stroke-width="0.6"/><circle cx="964.4" cy="0.0" r="2" fill="none" stroke="#0b5" stroke-width="0.6"/><circle cx="1052.2" cy="0.0" r="2" fill="none" stroke="#0b5" stroke-width="0.6"/><circle cx="1262.3" cy="0.0" r="2" fill="none" stroke="#0b5" stroke-width="0.6"/><circle cx="1686.3" cy="1000.0" r="2" fill="none" stroke="#0b5" stroke-width="0.6"/><circle cx="808.8" cy="77.7" r="2" fill="none" stroke="#0b5" stroke-width="0.6"/><circle cx="869.8" cy="23.3" r="2" fill="none" stroke="#0b5" stroke-width="0.6"/></g><g id="power"><circle cx="1019.0" cy="1000.0" r="5" fill="none" stroke="#e33" stroke-width="1"/><circle cx="1686.3" cy="1000.0" r="5" fill="none" stroke="#e33" stroke-width="1"/><circle cx="144.1" cy="0.0" r="5" fill="none" stroke="#e33" stroke-width="1"/><circle cx="289.4" cy="0.0" r="5" fill="none" stroke="#e33" stroke-width="1"/><circle cx="556.1" cy="0.0" r="5" fill="none" stroke="#e33" stroke-width="1"/><circle cx="964.4" cy="0.0" r="5" fill="none" stroke="#e33" stroke-width="1"/><circle cx="1052.2" cy="0.0" r="5" fill="none" stroke="#e33" stroke-width="1"/><circle cx="1262.3" cy="0.0" r="5" fill="none" stroke="#e33" stroke-width="1"/></g></svg>