<svg xmlns="http://www.w3.org/2000/svg" width="1000mm" height="2000mm" viewBox="0 0 1000 2000"><g id="outline"><rect x="0" y="0" width="1000" height="2000" fill="none" stroke="#000" stroke-width="1"/></g><g id="channels"><path d="M 695.0 1699.8 L 697.4 1701.3 L 700.4 1703.1 L 703.9 1705.2 L 707.7 1707.7 L 711.9 1710.3 L 716.4 1713.0 L 721.1 1715.9 L 726.0 1719.0 L 731.0 1722.1 L 736.2 1725.3 L 741.3 1728.5 L 746.5 1731.8 L 751.6 1734.9 L 756.5 1738.0 L 761.3 1741.0 L 765.8 1743.9 L 765.8 1743.9 L 770.2 1746.7 L 774.6 1749.5 L 779.1 1752.2 L 783.5 1754.9 L 788.0 1757.7 L 792.3 1760.5 L 796.8 1763.3 L 801.2 1766.0 L 805.6 1768.8 L 810.1 1771.7 L 814.4 1774.5 L 818.7 1777.4 L 823.1 1780.3 L 827.4 1783.3 L 831.6 1786.3 L 835.8 1789.3 L 835.8 1789.3 L 840.0 1792.4 L 844.2 1795.5 L 848.4 1798.6 L 852.6 1801.7 L 856.8 1804.9 L 860.9 1808.1 L 865.0 1811.3 L 869.1 1814.6 L 873.1 1817.9 L 877.2 1821.2 L 881.1 1824.7 L 885.0 1828.1 L 888.8 1831.6 L 892.6 1835.2 L 896.3 1838.8 L 900.0 1842.5 L 900.0 1842.5 L 903.5 1846.2 L 907.1 1850.0 L 910.5 1853.9 L 913.9 1857.8 L 917.2 1861.9 L 920.5 1865.9 L 923.7 1870.0 L 926.9 1874.1 L 930.1 1878.3 L 933.2 1882.5 L 936.2 1886.7 L 939.2 1891.0 L 942.3 1895.3 L 945.3 1899.6 L 948.2 1903.9 L 951.2 1908.2 L 951.2 1908.2 L 954.1 1912.4 L 957.0 1916.8 L 959.7 1921.3 L 962.4 1925.7 L 965.0 1930.3 L 967.6 1934.8 L 970.2 1939.3 L 972.8 1943.9 L 975.5 1948.4 L 978.0 1952.9 L 980.7 1957.5 L 983.3 1962.0 L 986.0 1966.5 L 988.7 1970.8 L 991.6 1975.2 L 994.4 1979.6 L 994.4 1979.6 L 997.5 1983.8 L 1000.0 1987.5" fill="none" stroke="#ff7a1a" stroke-width="6.0" stroke-opacity="0.9"/><path d="M 1000.0 1520.5 L 996.5 1518.2 L 996.5 1518.2 L 991.5 1515.0 L 986.4 1511.9 L 981.2 1508.9 L 976.0 1505.9 L 970.8 1503.0 L 965.5 1500.2 L 960.2 1497.4 L 954.9 1494.6 L 949.6 1491.9 L 944.2 1489.3 L 938.8 1486.6 L 933.5 1483.9 L 928.0 1481.3 L 922.6 1478.6 L 917.2 1475.9 L 911.9 1473.3 L 911.9 1473.3 L 906.6 1470.6 L 901.2 1467.9 L 895.8 1465.3 L 890.4 1462.7 L 885.0 1460.1 L 879.6 1457.6 L 874.1 1455.0 L 868.8 1452.5 L 863.3 1449.9 L 857.9 1447.4 L 852.5 1444.9 L 847.0 1442.4 L 841.6 1439.8 L 836.2 1437.3 L 830.7 1434.7 L 825.3 1432.1 L 825.3 1432.1 L 820.0 1429.6 L 814.5 1427.0 L 809.1 1424.4 L 803.8 1421.9 L 798.3 1419.3 L 792.9 1416.7 L 787.5 1414.1 L 782.1 1411.6 L 776.7 1408.9 L 771.2 1406.3 L 765.9 1403.7 L 760.5 1401.2 L 755.0 1398.6 L 749.7 1396.1 L 744.2 1393.5 L 738.8 1391.0 L 738.8 1391.0 L 733.4 1388.4 L 728.0 1385.8 L 722.5 1383.2 L 717.2 1380.7 L 711.7 1378.2 L 706.3 1375.7 L 700.9 1373.2 L 695.4 1370.6 L 690.0 1368.0 L 684.6 1365.5 L 679.2 1363.0 L 673.7 1360.5 L 668.3 1358.0 L 662.9 1355.4 L 657.4 1352.8 L 652.1 1350.3 L 652.1 1350.3 L 646.6 1347.7 L 641.2 1345.2 L 635.8 1342.7 L 630.3 1340.2 L 624.9 1337.5 L 619.5 1335.0 L 614.1 1332.5 L 608.6 1330.0 L 603.2 1327.4 L 597.8 1324.9 L 592.4 1322.3 L 587.0 1319.7 L 581.6 1317.1 L 576.2 1314.5 L 570.7 1312.0 L 565.4 1309.4 L 565.4 1309.4 L 560.0 1306.7 L 554.6 1304.1 L 549.2 1301.5 L 543.9 1298.9 L 538.5 1296.2 L 533.1 1293.6 L 527.7 1290.9 L 522.4 1288.2 L 517.0 1285.6 L 511.6 1282.9 L 506.2 1280.3 L 500.9 1277.6 L 495.6 1274.9 L 490.2 1272.2 L 484.9 1269.4 L 479.5 1266.7 L 479.5 1266.7 L 474.2 1264.0 L 468.8 1261.3 L 463.6 1258.5 L 458.3 1255.6 L 453.0 1252.9 L 447.7 1250.0 L 442.4 1247.2 L 437.1 1244.4 L 431.9 1241.6 L 426.5 1238.8 L 421.2 1236.0 L 415.9 1233.2 L 410.6 1230.5 L 405.3 1227.8 L 399.9 1225.2 L 394.5 1222.5 L 394.5 1222.5 L 389.1 1219.9 L 383.7 1217.3 L 378.3 1214.9 L 372.8 1212.4 L 367.3 1210.0 L 361.8 1207.6 L 356.4 1205.2 L 350.8 1202.8 L 345.4 1200.5 L 339.8 1198.0 L 334.4 1195.7 L 328.9 1193.2 L 323.4 1190.8 L 318.0 1188.4 L 312.5 1185.8 L 307.1 1183.3 L 307.1 1183.3 L 301.7 1180.7 L 296.3 1178.0 L 290.9 1175.3 L 285.6 1172.7 L 280.3 1170.0 L 275.0 1167.2 L 269.7 1164.4 L 264.3 1161.7 L 259.0 1158.9 L 253.7 1156.1 L 248.4 1153.4 L 243.1 1150.6 L 237.8 1148.0 L 232.4 1145.3 L 227.0 1142.6 L 221.6 1140.0 L 221.6 1140.0 L 216.3 1137.4 L 210.9 1134.8 L 205.4 1132.2 L 200.0 1129.6 L 194.7 1127.0 L 189.2 1124.4 L 183.8 1121.9 L 178.4 1119.4 L 172.9 1116.9 L 167.5 1114.4 L 162.1 1111.9 L 156.6 1109.5 L 151.2 1107.1 L 145.6 1104.7 L 140.2 1102.3 L 134.6 1100.0 L 134.6 1100.0 L 129.2 1097.6 L 123.6 1095.2 L 118.1 1092.9 L 112.5 1090.4 L 107.0 1088.0 L 101.4 1085.6 L 95.9 1083.2 L 90.3 1080.9 L 84.7 1078.7 L 79.2 1076.5 L 73.5 1074.4 L 67.9 1072.4 L 62.2 1070.6 L 56.6 1068.8 L 50.8 1067.3 L 45.1 1065.9 L 45.1 1065.9 L 39.3 1064.6 L 33.5 1063.5 L 27.6 1062.6 L 21.8 1061.7 L 15.8 1061.0 L 10.0 1060.3 L 4.0 1059.8 L 0.0 1059.5" fill="none" stroke="#ff7a1a" stroke-width="6.0" stroke-opacity="0.9"/><path d="M 0.0 1270.7 L 0.8 1270.8 L 6.8 1271.5 L 12.7 1272.3 L 18.8 1273.1 L 24.7 1274.0 L 30.6 1275.1 L 36.5 1276.1 L 42.3 1277.4 L 48.0 1278.8 L 53.6 1280.4 L 59.3 1282.2 L 64.7 1284.2 L 70.1 1286.5 L 70.1 1286.5 L 75.3 1289.0 L 80.4 1291.8 L 85.5 1294.7 L 90.4 1297.9 L 95.4 1301.3 L 100.2 1304.8 L 105.0 1308.5 L 109.7 1312.3 L 114.3 1316.1 L 119.0 1320.1 L 123.6 1324.0 L 128.1 1328.0 L 132.8 1332.0 L 137.4 1336.0 L 141.9 1339.8 L 146.6 1343.6 L 146.6 1343.6 L 151.2 1347.5 L 155.8 1351.2 L 160.3 1355.2 L 164.9 1359.1 L 169.3 1363.1 L 173.8 1367.1 L 178.2 1371.1 L 182.7 1375.2 L 187.0 1379.2 L 191.5 1383.2 L 195.9 1387.3 L 200.4 1391.2 L 204.9 1395.3 L 209.4 1399.2 L 214.0 1403.1 L 218.5 1406.9 L 218.5 1406.9 L 223.1 1410.7 L 227.9 1414.5 L 232.5 1418.3 L 237.2 1422.0 L 241.9 1425.7 L 246.6 1429.4 L 251.4 1433.0 L 256.1 1436.7 L 260.9 1440.3 L 265.6 1444.0 L 270.4 1447.6 L 275.1 1451.2 L 279.8 1454.9 L 284.6 1458.6 L 289.3 1462.3 L 294.0 1466.0 L 294.0 1466.0 L 298.7 1469.7 L 303.4 1473.4 L 308.2 1477.0 L 312.9 1480.6 L 317.6 1484.2 L 322.4 1487.9 L 327.2 1491.5 L 331.9 1495.1 L 336.7 1498.8 L 341.3 1502.5 L 346.0 1506.3 L 350.6 1510.1 L 355.1 1514.0 L 359.6 1517.9 L 364.0 1521.9 L 368.4 1526.0 L 368.4 1526.0 L 372.6 1530.2 L 376.6 1534.7 L 380.6 1539.2 L 384.3 1543.9 L 388.1 1548.6 L 391.8 1553.4 L 395.5 1558.3 L 399.2 1563.1 L 402.9 1568.0 L 406.6 1572.7 L 410.4 1577.4 L 414.2 1581.9 L 418.2 1586.3 L 422.3 1590.6 L 426.6 1594.6 L 431.0 1598.5 L 431.0 1598.5 L 435.7 1602.1 L 440.4 1605.7 L 445.2 1609.1 L 450.1 1612.5 L 455.1 1615.8 L 460.2 1619.0 L 465.3 1622.1 L 470.5 1625.1 L 475.8 1627.9 L 481.1 1630.6 L 486.5 1633.2 L 491.9 1635.7 L 497.4 1638.1 L 503.0 1640.3 L 508.4 1642.3 L 514.0 1644.2 L 514.0 1644.2 L 519.8 1645.9 L 525.9 1647.4 L 532.4 1648.8 L 539.1 1649.9 L 546.0 1651.0 L 552.8 1651.9 L 559.8 1652.6 L 566.6 1653.3 L 573.3 1653.9 L 579.7 1654.4 L 585.9 1654.8 L 591.6 1655.2 L 596.8 1655.7 L 601.5 1656.0 L 605.5 1656.3 L 608.9 1656.7 L 582.6 1269.8 L 580.5 1267.4 L 577.9 1264.4 L 574.9 1261.0 L 571.7 1257.2 L 568.1 1253.0 L 564.2 1248.6 L 560.2 1243.9 L 555.9 1239.0 L 551.5 1234.1 L 547.1 1228.9 L 542.6 1223.8 L 538.1 1218.8 L 533.7 1213.8 L 529.3 1208.9 L 525.0 1204.3 L 521.0 1199.9 L 521.0 1199.9 L 517.1 1195.6 L 513.0 1191.4 L 509.1 1187.1 L 505.1 1182.9 L 501.0 1178.7 L 497.0 1174.5 L 493.0 1170.3 L 488.8 1166.1 L 484.8 1162.0 L 480.7 1157.8 L 476.6 1153.7 L 472.5 1149.6 L 468.3 1145.5 L 464.1 1141.4 L 459.9 1137.4 L 455.7 1133.3 L 455.7 1133.3 L 451.5 1129.3 L 447.3 1125.3 L 443.1 1121.2 L 438.9 1117.3 L 434.6 1113.3 L 430.3 1109.3 L 426.0 1105.4 L 421.7 1101.4 L 417.4 1097.6 L 413.0 1093.7 L 408.7 1089.8 L 404.3 1086.0 L 399.9 1082.1 L 395.4 1078.3 L 391.1 1074.5 L 386.6 1070.8 L 386.6 1070.8 L 382.2 1067.0 L 377.7 1063.0 L 373.3 1059.0 L 368.9 1054.9 L 364.4 1050.7 L 360.0 1046.6 L 355.5 1042.5 L 351.0 1038.5 L 346.5 1034.6 L 341.9 1030.9 L 337.2 1027.3 L 332.6 1024.0 L 327.8 1021.0 L 322.9 1018.3 L 318.1 1015.9 L 313.0 1013.9 L 313.0 1013.9 L 307.8 1012.2 L 302.5 1010.7 L 297.1 1009.4 L 291.5 1008.4 L 285.9 1007.6 L 280.2 1007.0 L 274.4 1006.7 L 268.6 1006.5 L 262.9 1006.6 L 257.1 1006.9 L 251.4 1007.4 L 245.7 1008.2 L 240.2 1009.2 L 234.8 1010.4 L 229.5 1011.9 L 224.4 1013.6 L 224.4 1013.6 L 219.3 1015.7 L 214.1 1018.4 L 208.8 1021.7 L 203.5 1025.4 L 198.1 1029.4 L 192.9 1033.7 L 187.7 1038.2 L 182.7 1042.7 L 177.8 1047.2 L 173.2 1051.7 L 168.7 1056.0 L 164.6 1060.0 L 160.9 1063.7 L 157.5 1067.0 L 154.5 1069.8 L 152.0 1071.9 L 73.0 1357.0 L 69.9 1358.2 L 66.3 1359.7 L 62.2 1361.3 L 57.5 1363.2 L 52.4 1365.2 L 46.9 1367.4 L 41.2 1369.6 L 35.2 1372.1 L 29.2 1374.6 L 23.0 1377.2 L 16.8 1379.9 L 10.8 1382.7 L 4.9 1385.5 L 0.0 1388.1" fill="none" stroke="#ff7a1a" stroke-width="6.0" stroke-opacity="0.9"/></g><g id="clips"><circle cx="695.0" cy="1699.8" r="2" fill="none" stroke="#0b5" stroke-width="0.6"/><circle cx="862.3" cy="1809.2" r="2" fill="none" stroke="#0b5" stroke-width="0.6"/><circle cx="985.1" cy="1965.1" r="2" fill="none" stroke="#0b5" stroke-width="0.6"/><circle cx="1000.0" cy="1520.5" r="2" fill="none" stroke="#0b5" stroke-width="0.6"/><circle cx="821.6" cy="1430.4" r="2" fill="none" stroke="#0b5" stroke-width="0.6"/><circle cx="640.8" cy="1345.0" r="2" fill="none" stroke="#0b5" stroke-width="0.6"/><circle cx="461.1" cy="1257.1" r="2" fill="none" stroke="#0b5" stroke-width="0.6"/><circle cx="281.0" cy="1170.4" r="2" fill="none" stroke="#0b5" stroke-width="0.6"/><circle cx="100.2" cy="1085.1" r="2" fill="none" stroke="#0b5" stroke-width="0.6"/><circle cx="0.0" cy="1059.5" r="2" fill="none" stroke="#0b5" stroke-width="0.6"/><circle cx="0.0" cy="1270.7" r="2" fill="none" stroke="#0b5" stroke-width="0.6"/><circle cx="170.9" cy="1364.5" r="2" fill="none" stroke="#0b5" stroke-width="0.6"/><circle cx="326.0" cy="1490.6" r="2" fill="none" stroke="#0b5" stroke-width="0.6"/><circle cx="471.5" cy="1625.6" r="2" fill="none" stroke="#0b5" stroke-width="0.6"/><circle cx="605.0" cy="1599.2" r="2" fill="none" stroke="#0b5" stroke-width="0.6"/><circle cx="591.4" cy="1399.7" r="2" fill="none" stroke="#0b5" stroke-width="0.6"/><circle cx="536.7" cy="1217.2" r="2" fill="none" stroke="#0b5" stroke-width="0.6"/><circle cx="394.1" cy="1077.2" r="2" fill="none" stroke="#0b5" stroke-width="0.6"/><circle cx="218.6" cy="1016.1" r="2" fill="none" stroke="#0b5" stroke-width="0.6"/><circle cx="121.9" cy="1180.6" r="2" fill="none" stroke="#0b5" stroke-width="0.6"/><circle cx="57.3" cy="1363.3" r="2" fill="none" stroke="#0b5" stroke-width="0.6"/></g><g id="power"><circle cx="1000.0" cy="1987.5" r="5" fill="none" stroke="#e33" stroke-width="1"/><circle cx="1000.0" cy="1520.5" r="5" fill="none" stroke="#e33" stroke-width="1"/><circle cx="0.0" cy="1388.1" r="5" fill="none" stroke="#e33" stroke-width="1"/><circle cx="0.0" cy="1270.7" r="5" fill="none" stroke="#e33" stroke-width="1"/><circle cx="0.0" cy="1059.5" r="5" fill="none" stroke="#e33" stroke-width="1"/></g><g id="bridges"></g></svg>