<svg xmlns="http://www.w3.org/2000/svg" width="2000mm" height="1000mm" viewBox="0 0 2000 1000"><g id="outline"><rect x="0" y="0" width="2000" height="1000" fill="none" stroke="#000" stroke-width="1"/></g><g id="channels"><path d="M 635.7 1000.0 L 635.9 993.7 L 636.0 986.8 L 636.1 980.0 L 636.1 973.2 L 636.1 966.3 L 636.0 959.5 L 635.9 952.6 L 635.8 945.8 L 635.6 939.0 L 635.3 932.2 L 635.1 925.3 L 634.8 918.5 L 634.8 918.5 L 634.4 911.7 L 633.9 904.9 L 633.3 898.1 L 632.6 891.3 L 631.8 884.5 L 631.0 877.7 L 630.2 870.9 L 629.4 864.1 L 628.5 857.3 L 627.7 850.5 L 626.9 843.7 L 626.1 836.9 L 625.5 830.1 L 624.9 823.3 L 624.3 816.5 L 623.9 809.7 L 623.9 809.7 L 623.6 802.7 L 623.4 795.3 L 623.2 787.7 L 623.1 779.9 L 623.1 771.9 L 623.1 764.0 L 623.1 756.1 L 623.2 748.3 L 623.3 740.7 L 623.3 733.4 L 623.4 726.5 L 623.5 720.1 L 623.6 714.2 L 623.7 708.9 L 623.7 704.3 L 623.8 700.5" fill="none" stroke="#39ff88" stroke-width="6.0" stroke-opacity="0.9"/><path d="M 669.7 694.9 L 673.3 695.4 L 677.7 696.0 L 682.7 696.7 L 688.3 697.4 L 694.5 698.3 L 701.0 699.2 L 707.9 700.1 L 715.1 701.1 L 722.5 702.1 L 730.1 703.1 L 737.7 704.1 L 745.2 705.0 L 752.7 705.9 L 760.0 706.7 L 767.0 707.5 L 773.7 708.1 L 773.7 708.1 L 780.2 708.7 L 786.8 709.2 L 793.3 709.6 L 799.9 710.0 L 806.4 710.3 L 813.0 710.7 L 819.5 710.9 L 826.1 711.2 L 832.6 711.5 L 839.2 711.8 L 845.7 712.1 L 852.3 712.5 L 858.8 712.9 L 865.3 713.3 L 871.9 713.9 L 878.4 714.5 L 878.4 714.5 L 884.9 715.1 L 891.4 715.7 L 898.0 716.2 L 904.5 716.8 L 911.1 717.4 L 917.7 717.9 L 924.2 718.6 L 930.8 719.3 L 937.3 720.0 L 943.8 720.9 L 950.3 721.8 L 956.7 722.9 L 963.1 724.1 L 969.4 725.5 L 975.7 727.1 L 982.0 728.8 L 982.0 728.8 L 988.1 730.7 L 994.2 733.0 L 1000.2 735.4 L 1006.2 738.1 L 1012.1 740.9 L 1018.0 743.8 L 1023.8 746.9 L 1029.7 750.0 L 1035.5 753.1 L 1041.3 756.2 L 1047.2 759.3 L 1053.0 762.3 L 1058.9 765.1 L 1064.9 767.9 L 1070.9 770.5 L 1076.9 772.8 L 1076.9 772.8 L 1083.2 775.2 L 1089.6 777.7 L 1096.3 780.2 L 1103.1 782.9 L 1110.0 785.6 L 1116.9 788.2 L 1123.8 790.7 L 1130.6 793.0 L 1137.4 795.2 L 1143.9 797.1 L 1150.2 798.8 L 1156.3 800.0 L 1162.1 800.9 L 1167.4 801.3 L 1172.4 801.2 L 1176.9 800.6 L 1176.9 800.6 L 1180.7 799.3 L 1183.9 797.2 L 1186.5 794.5 L 1188.6 791.3 L 1190.3 787.6 L 1191.8 783.5 L 1193.0 779.2 L 1194.2 774.7 L 1195.4 770.1 L 1196.7 765.5 L 1198.2 761.0 L 1200.0 756.7 L 1202.1 752.7 L 1204.8 749.0 L 1208.1 745.8 L 1212.0 743.2 L 1212.0 743.2 L 1216.8 741.1 L 1222.4 739.3 L 1228.7 737.8 L 1235.6 736.6 L 1242.8 735.6 L 1250.4 734.7 L 1258.2 734.0 L 1266.1 733.4 L 1273.8 732.8 L 1281.4 732.2 L 1288.6 731.6 L 1295.4 731.0 L 1301.6 730.2 L 1307.1 729.2 L 1311.8 728.1 L 1315.5 726.7 L 1315.5 726.7 L 1318.3 725.1 L 1320.4 723.4 L 1321.8 721.6 L 1322.6 719.6 L 1322.9 717.6 L 1322.7 715.5 L 1322.2 713.4 L 1321.5 711.2 L 1320.5 709.0 L 1319.4 706.8 L 1318.2 704.6 L 1317.1 702.5 L 1316.1 700.4 L 1315.3 698.4 L 1314.7 696.5 L 1314.5 694.7 L 1314.5 694.7 L 1314.4 693.0 L 1314.2 691.4 L 1313.8 689.8 L 1313.3 688.4 L 1312.7 686.9 L 1312.2 685.5 L 1311.7 684.1 L 1311.2 682.8 L 1310.9 681.4 L 1310.7 680.0 L 1310.8 678.6 L 1311.0 677.2 L 1311.6 675.7 L 1312.5 674.1 L 1313.7 672.5 L 1315.3 670.7 L 1315.3 670.7 L 1317.6 668.9 L 1320.9 666.8 L 1324.9 664.6 L 1329.6 662.4 L 1334.6 660.0 L 1340.0 657.6 L 1345.4 655.2 L 1350.8 652.8 L 1356.0 650.4 L 1360.9 648.1 L 1365.2 645.9 L 1368.8 643.9 L 1371.6 642.0 L 1373.3 640.3 L 1373.9 638.8 L 1373.2 637.6 L 1373.2 637.6 L 1370.8 636.7 L 1366.8 636.2 L 1361.4 636.0 L 1354.8 636.0 L 1347.3 636.2 L 1339.0 636.6 L 1330.3 637.0 L 1321.3 637.5 L 1312.3 638.0 L 1303.6 638.3 L 1295.2 638.6 L 1287.6 638.6 L 1280.8 638.5 L 1275.2 638.0 L 1271.0 637.1 L 1268.4 635.9 L 1268.4 635.9 L 1267.5 634.2 L 1268.2 632.1 L 1270.2 629.6 L 1273.3 626.8 L 1277.2 623.7 L 1281.9 620.5 L 1287.0 617.1 L 1292.4 613.7 L 1297.7 610.2 L 1302.9 606.8 L 1307.7 603.5 L 1311.8 600.4 L 1315.1 597.5 L 1317.4 594.9 L 1318.3 592.7 L 1317.8 590.9 L 1317.8 590.9 L 1315.9 589.5 L 1312.8 588.4 L 1308.8 587.6 L 1303.9 587.1 L 1298.3 586.8 L 1292.2 586.7 L 1285.5 586.7 L 1278.5 586.7 L 1271.3 586.8 L 1264.0 586.9 L 1256.7 586.9 L 1249.6 586.9 L 1242.8 586.7 L 1236.4 586.3 L 1230.5 585.6 L 1225.4 584.7 L 1225.4 584.7 L 1220.7 583.5 L 1216.5 581.8 L 1212.5 579.9 L 1208.7 577.7 L 1205.1 575.3 L 1201.7 572.8 L 1198.3 570.3 L 1195.0 567.8 L 1191.7 565.4 L 1188.3 563.2 L 1184.9 561.2 L 1181.3 559.5 L 1177.4 558.2 L 1173.4 557.3 L 1169.0 556.9 L 1164.3 557.1 L 1164.3 557.1 L 1159.3 557.9 L 1154.1 559.4 L 1148.7 561.3 L 1143.1 563.7 L 1137.3 566.5 L 1131.4 569.6 L 1125.4 573.0 L 1119.3 576.5 L 1113.1 580.0 L 1106.8 583.6 L 1100.5 587.1 L 1094.2 590.4 L 1087.8 593.5 L 1081.5 596.3 L 1075.2 598.7 L 1069.0 600.7 L 1069.0 600.7 L 1062.8 602.3 L 1056.5 603.9 L 1050.2 605.3 L 1043.8 606.7 L 1037.4 607.9 L 1030.9 608.9 L 1024.4 609.9 L 1017.9 610.7 L 1011.4 611.4 L 1004.9 611.9 L 998.4 612.3 L 991.9 612.5 L 985.4 612.6 L 978.9 612.6 L 972.5 612.4 L 966.1 612.0 L 966.1 612.0 L 959.7 611.4 L 953.3 610.6 L 946.9 609.6 L 940.5 608.4 L 934.1 607.1 L 927.7 605.6 L 921.3 603.9 L 914.9 602.2 L 908.6 600.3 L 902.2 598.4 L 895.9 596.4 L 889.6 594.3 L 883.3 592.2 L 877.1 590.0 L 870.9 587.9 L 864.7 585.8 L 864.7 585.8 L 858.5 583.6 L 852.4 581.2 L 846.4 578.8 L 840.4 576.2 L 834.4 573.6 L 828.4 570.9 L 822.4 568.2 L 816.5 565.4 L 810.5 562.6 L 804.6 559.8 L 798.6 557.0 L 792.7 554.3 L 786.7 551.6 L 780.7 548.9 L 774.7 546.3 L 768.6 543.8 L 768.6 543.8 L 762.5 541.4 L 756.5 538.8 L 750.4 536.1 L 744.3 533.4 L 738.2 530.7 L 732.1 528.0 L 726.0 525.3 L 719.9 522.8 L 713.8 520.3 L 707.6 517.9 L 701.4 515.7 L 695.3 513.7 L 689.1 511.9 L 682.9 510.3 L 676.6 509.0 L 670.4 508.0 L 670.4 508.0 L 664.0 507.2 L 657.4 506.4 L 650.8 505.8 L 644.0 505.2 L 637.2 504.9 L 630.3 504.7 L 623.4 504.6 L 616.6 504.8 L 609.9 505.3 L 603.3 505.9 L 596.8 506.9 L 590.5 508.1 L 584.4 509.7 L 578.6 511.6 L 573.1 513.9 L 567.9 516.6 L 567.9 516.6 L 562.9 519.7 L 558.2 523.3 L 553.6 527.3 L 549.2 531.7 L 545.0 536.5 L 541.0 541.6 L 537.1 546.9 L 533.4 552.4 L 529.9 558.2 L 526.5 564.0 L 523.3 570.0 L 520.2 576.1 L 517.4 582.1 L 514.6 588.2 L 512.1 594.2 L 509.7 600.1 L 509.7 600.1 L 507.5 606.0 L 505.5 612.1 L 503.9 618.3 L 502.4 624.5 L 501.1 630.9 L 500.0 637.4 L 499.0 643.9 L 498.2 650.5 L 497.5 657.1 L 496.8 663.8 L 496.2 670.5 L 495.7 677.2 L 495.1 683.8 L 494.6 690.4 L 494.0 697.0 L 493.3 703.6 L 493.3 703.6 L 492.7 710.1 L 492.1 716.6 L 491.6 723.1 L 491.1 729.7 L 490.6 736.2 L 490.2 742.7 L 489.9 749.3 L 489.6 755.8 L 489.3 762.4 L 489.0 769.0 L 488.8 775.5 L 488.6 782.1 L 488.4 788.6 L 488.2 795.2 L 488.0 801.7 L 487.8 808.3 L 487.8 808.3 L 487.7 814.9 L 487.9 821.7 L 488.2 828.6 L 488.6 835.6 L 489.1 842.6 L 489.6 849.6 L 490.1 856.6 L 490.6 863.6 L 490.9 870.5 L 491.2 877.2 L 491.2 883.8 L 491.1 890.2 L 490.7 896.4 L 490.0 902.3 L 489.0 907.9 L 487.5 913.2 L 487.5 913.2 L 485.7 918.4 L 483.6 923.7 L 481.2 929.0 L 478.5 934.4 L 475.6 939.6 L 472.4 944.7 L 469.1 949.6 L 465.6 954.2 L 462.0 958.4 L 458.3 962.2 L 454.6 965.5 L 450.8 968.2 L 447.0 970.2 L 443.2 971.5 L 439.5 972.1 L 435.8 971.8 L 435.8 971.8 L 432.2 970.5 L 428.4 968.3 L 424.5 965.1 L 420.5 961.2 L 416.5 956.6 L 412.4 951.4 L 408.3 945.8 L 404.2 939.7 L 400.0 933.3 L 395.9 926.8 L 391.8 920.2 L 387.7 913.5 L 383.7 907.0 L 379.8 900.7 L 376.0 894.6 L 372.3 889.0 L 372.3 889.0 L 368.6 883.6 L 365.0 878.1 L 361.5 872.6 L 357.9 867.1 L 354.5 861.5 L 351.0 855.9 L 347.6 850.3 L 344.2 844.7 L 340.9 839.0 L 337.6 833.3 L 334.4 827.6 L 331.2 821.8 L 328.1 816.1 L 325.0 810.3 L 321.9 804.5 L 318.9 798.7 L 318.9 798.7 L 315.9 792.9 L 312.9 787.0 L 309.8 781.2 L 306.8 775.3 L 303.7 769.4 L 300.7 763.5 L 297.8 757.6 L 294.9 751.6 L 292.2 745.6 L 289.5 739.6 L 287.0 733.6 L 284.7 727.5 L 282.5 721.4 L 280.5 715.2 L 278.7 709.0 L 277.2 702.8 L 277.2 702.8 L 275.9 696.5 L 274.8 690.2 L 273.9 683.8 L 273.2 677.3 L 272.6 670.8 L 272.2 664.3 L 272.0 657.8 L 271.9 651.2 L 271.8 644.6 L 271.9 638.0 L 272.1 631.4 L 272.4 624.8 L 272.7 618.2 L 273.1 611.7 L 273.5 605.1 L 273.9 598.6 L 273.9 598.6 L 274.4 592.1 L 275.0 585.7 L 275.7 579.2 L 276.6 572.7 L 277.5 566.2 L 278.5 559.7 L 279.6 553.2 L 280.8 546.8 L 282.0 540.3 L 283.3 533.8 L 284.5 527.4 L 285.8 520.9 L 287.1 514.5 L 288.4 508.0 L 289.7 501.6 L 290.9 495.1 L 290.9 495.1 L 292.2 488.7 L 293.4 482.3 L 294.6 475.8 L 295.8 469.4 L 297.1 462.9 L 298.3 456.5 L 299.6 450.1 L 300.9 443.6 L 302.3 437.2 L 303.7 430.8 L 305.1 424.4 L 306.6 418.0 L 308.2 411.7 L 309.8 405.3 L 311.4 399.0 L 313.2 392.7 L 313.2 392.7 L 315.1 386.4 L 317.1 380.2 L 319.2 374.0 L 321.4 367.8 L 323.7 361.7 L 326.1 355.5 L 328.5 349.4 L 330.9 343.3 L 333.3 337.2 L 335.7 331.1 L 338.0 324.9 L 340.3 318.8 L 342.4 312.6 L 344.5 306.4 L 346.4 300.2 L 348.2 293.9 L 348.2 293.9 L 349.9 287.6 L 351.6 281.3 L 353.3 274.9 L 355.0 268.6 L 356.6 262.2 L 358.2 255.8 L 359.6 249.4 L 361.1 243.0 L 362.4 236.5 L 363.6 230.1 L 364.6 223.7 L 365.6 217.2 L 366.3 210.8 L 366.9 204.3 L 367.4 197.9 L 367.6 191.4 L 367.6 191.4 L 367.6 185.0 L 367.4 178.6 L 367.0 172.1 L 366.4 165.6 L 365.6 159.1 L 364.7 152.7 L 363.7 146.2 L 362.5 139.7 L 361.3 133.2 L 360.1 126.7 L 358.8 120.2 L 357.4 113.8 L 356.1 107.3 L 354.9 100.8 L 353.6 94.4 L 352.5 87.9 L 352.5 87.9 L 351.3 81.5 L 350.0 75.0 L 348.6 68.6 L 347.0 62.2 L 345.5 55.8 L 343.9 49.4 L 342.3 42.9 L 340.7 36.5 L 339.2 30.1 L 337.7 23.7 L 336.4 17.3 L 335.2 10.9 L 334.2 4.5 L 333.6 0.0" fill="none" stroke="#39ff88" stroke-width="6.0" stroke-opacity="0.9"/><path d="M 294.0 559.3 L 295.9 555.7 L 298.1 551.4 L 300.8 546.5 L 303.7 541.0 L 306.9 534.9 L 310.3 528.5 L 313.9 521.7 L 317.7 514.7 L 321.5 507.4 L 325.4 500.0 L 329.4 492.5 L 333.2 485.1 L 337.1 477.7 L 340.8 470.6 L 344.3 463.6 L 347.7 457.0 L 347.7 457.0 L 350.9 450.6 L 354.2 444.1 L 357.5 437.7 L 360.7 431.2 L 364.0 424.7 L 367.2 418.3 L 370.4 411.8 L 373.6 405.3 L 376.8 398.8 L 379.9 392.3 L 383.0 385.8 L 386.1 379.3 L 389.1 372.7 L 392.1 366.2 L 395.1 359.6 L 398.0 353.0 L 398.0 353.0 L 400.8 346.4 L 403.7 339.7 L 406.6 333.1 L 409.5 326.4 L 412.4 319.8 L 415.2 313.1 L 418.0 306.4 L 420.8 299.7 L 423.5 293.0 L 426.1 286.2 L 428.6 279.4 L 431.0 272.6 L 433.3 265.8 L 435.4 258.9 L 437.4 252.1 L 439.3 245.2 L 439.3 245.2 L 441.0 238.2 L 442.6 231.2 L 444.1 224.2 L 445.5 217.1 L 446.7 210.1 L 447.9 203.0 L 448.9 195.8 L 449.9 188.7 L 450.8 181.5 L 451.6 174.4 L 452.3 167.2 L 453.0 160.0 L 453.6 152.8 L 454.2 145.6 L 454.7 138.4 L 455.2 131.3 L 455.2 131.3 L 455.5 124.1 L 455.6 116.9 L 455.4 109.6 L 455.1 102.3 L 454.6 95.0 L 454.1 87.6 L 453.5 80.3 L 453.0 73.0 L 452.5 65.7 L 452.1 58.4 L 451.9 51.2 L 451.8 44.0 L 452.1 36.9 L 452.6 29.8 L 453.4 22.8 L 454.7 15.9 L 454.7 15.9 L 456.3 9.1 L 458.2 2.3 L 458.9 0.0" fill="none" stroke="#39ff88" stroke-width="6.0" stroke-opacity="0.9"/></g><g id="clips"><circle cx="635.7" cy="1000.0" r="2" fill="none" stroke="#0b5" stroke-width="0.6"/><circle cx="623.8" cy="700.5" r="2" fill="none" stroke="#0b5" stroke-width="0.6"/><circle cx="669.7" cy="694.9" r="2" fill="none" stroke="#0b5" stroke-width="0.6"/><circle cx="333.6" cy="0.0" r="2" fill="none" stroke="#0b5" stroke-width="0.6"/><circle cx="294.0" cy="559.3" r="2" fill="none" stroke="#0b5" stroke-width="0.6"/><circle cx="458.9" cy="0.0" r="2" fill="none" stroke="#0b5" stroke-width="0.6"/></g><g id="power"><circle cx="635.7" cy="1000.0" r="5" fill="none" stroke="#e33" stroke-width="1"/><circle cx="333.6" cy="0.0" r="5" fill="none" stroke="#e33" stroke-width="1"/><circle cx="458.9" cy="0.0" r="5" fill="none" stroke="#e33" stroke-width="1"/></g><g id="bridges"><circle cx="1329.9" cy="649.7" r="9" fill="none" stroke="#e6a817" stroke-width="1.5"/><circle cx="1329.9" cy="649.7" r="9" fill="none" stroke="#e6a817" stroke-width="1.5"/><circle cx="285.3" cy="566.0" r="9" fill="none" stroke="#e6a817" stroke-width="1.5"/><circle cx="292.6" cy="537.0" r="9" fill="none" stroke="#e6a817" stroke-width="1.5"/></g></svg>