<svg xmlns="http://www.w3.org/2000/svg" width="1000mm" height="2000mm" viewBox="0 0 1000 2000"><g id="outline"><rect x="0" y="0" width="1000" height="2000" fill="none" stroke="#000" stroke-width="1"/></g><g id="channels"><path d="M 1000.0 383.9 L 999.6 383.5 L 994.6 378.6 L 989.4 373.8 L 984.1 369.3 L 978.6 365.0 L 973.1 360.9 L 967.4 357.0 L 961.7 353.5 L 956.0 350.2 L 950.2 347.3 L 944.4 344.8 L 944.4 344.8 L 938.4 342.5 L 932.3 340.5 L 925.7 338.7 L 919.1 337.0 L 912.3 335.7 L 905.4 334.6 L 898.4 333.7 L 891.4 333.1 L 884.4 332.8 L 877.4 332.8 L 870.6 333.1 L 863.9 333.8 L 857.4 334.6 L 851.0 336.0 L 845.0 337.5 L 839.2 339.5 L 839.2 339.5 L 833.7 341.9 L 828.1 344.8 L 822.7 348.1 L 817.3 351.7 L 812.1 355.9 L 807.0 360.2 L 802.0 364.8 L 797.1 369.8 L 792.5 374.9 L 788.0 380.2 L 783.7 385.6 L 779.5 391.2 L 775.7 396.8 L 772.0 402.4 L 768.7 408.1 L 765.6 413.8 L 765.6 413.8 L 762.8 419.5 L 760.2 425.5 L 757.8 431.6 L 755.6 437.9 L 753.7 444.5 L 752.0 451.1 L 750.4 457.8 L 749.1 464.6 L 747.9 471.4 L 747.0 478.4 L 746.2 485.3 L 745.7 492.2 L 745.3 499.0 L 745.2 505.7 L 745.2 512.4 L 745.3 519.0 L 745.3 519.0 L 745.6 525.4 L 746.3 531.9 L 747.1 538.5 L 748.1 545.0 L 749.4 551.5 L 750.8 558.0 L 752.5 564.6 L 754.3 571.1 L 756.2 577.5 L 758.3 584.0 L 760.6 590.3 L 763.0 596.5 L 765.5 602.8 L 768.1 608.8 L 770.9 614.9 L 773.7 620.8 L 773.7 620.8 L 776.9 626.6 L 780.7 632.3 L 785.0 637.9 L 789.7 643.4 L 794.7 648.9 L 799.9 654.2 L 805.2 659.5 L 810.3 664.8 L 815.3 670.0 L 820.1 675.2 L 824.5 680.4 L 828.4 685.6 L 831.7 690.8 L 834.2 696.1 L 836.1 701.4 L 836.9 706.7 L 836.9 706.7 L 836.9 712.2 L 836.3 717.7 L 834.9 723.4 L 833.1 729.0 L 830.7 734.7 L 827.8 740.3 L 824.5 746.0 L 820.9 751.7 L 817.0 757.2 L 812.7 762.8 L 808.3 768.2 L 803.8 773.5 L 799.2 778.6 L 794.6 783.5 L 790.0 788.3 L 785.5 793.0 L 785.5 793.0 L 780.8 797.2 L 775.7 801.1 L 770.3 804.9 L 764.6 808.3 L 758.8 811.7 L 752.6 814.8 L 746.5 817.9 L 740.3 820.9 L 733.9 824.0 L 727.7 827.0 L 721.5 830.2 L 715.5 833.6 L 709.7 837.0 L 704.1 840.8 L 698.8 844.8 L 693.8 849.1 L 693.8 849.1 L 689.1 853.7 L 684.5 858.4 L 680.1 863.3 L 675.7 868.4 L 671.6 873.7 L 667.5 879.0 L 663.6 884.4 L 659.7 890.0 L 656.0 895.7 L 652.3 901.4 L 648.8 907.2 L 645.3 913.0 L 642.1 918.9 L 638.8 924.8 L 635.6 930.7 L 632.5 936.6 L 632.5 936.6 L 629.6 942.6 L 626.8 948.7 L 624.1 954.7 L 621.6 961.0 L 619.2 967.2 L 616.9 973.5 L 614.7 980.0 L 612.6 986.4 L 610.5 992.8 L 608.5 999.3 L 606.4 1005.8 L 604.4 1012.3 L 602.5 1018.7 L 600.5 1025.3 L 598.5 1031.7 L 596.4 1038.1 L 596.4 1038.1 L 594.2 1044.5 L 592.2 1050.9 L 590.2 1057.3 L 588.2 1063.8 L 586.2 1070.2 L 584.3 1076.6 L 582.2 1083.1 L 580.3 1089.5 L 578.4 1096.0 L 576.6 1102.5 L 574.7 1108.9 L 572.7 1115.4 L 570.9 1121.8 L 569.1 1128.4 L 567.2 1134.8 L 565.3 1141.2 L 565.3 1141.2 L 563.5 1147.8 L 561.8 1154.3 L 560.1 1160.8 L 558.3 1167.4 L 556.7 1173.9 L 555.1 1180.4 L 553.3 1186.9 L 551.7 1193.5 L 550.1 1200.0 L 548.4 1206.5 L 546.6 1213.0 L 544.9 1219.6 L 543.0 1226.0 L 541.2 1232.4 L 539.1 1238.9 L 537.0 1245.3 L 537.0 1245.3 L 534.9 1251.6 L 532.7 1258.0 L 530.5 1264.3 L 528.2 1270.6 L 525.9 1277.0 L 523.5 1283.3 L 521.1 1289.6 L 518.6 1295.9 L 516.1 1302.1 L 513.6 1308.4 L 511.0 1314.5 L 508.3 1320.8 L 505.6 1326.9 L 502.9 1333.1 L 500.3 1339.3 L 497.5 1345.3 L 497.5 1345.3 L 494.6 1351.5 L 491.8 1357.5 L 488.8 1363.7 L 485.9 1369.6 L 482.9 1375.7 L 479.8 1381.7 L 476.7 1387.7 L 473.6 1393.6 L 470.4 1399.6 L 467.2 1405.5 L 464.0 1411.5 L 460.8 1417.4 L 457.5 1423.3 L 454.3 1429.1 L 450.9 1435.1 L 447.7 1441.0 L 447.7 1441.0 L 444.4 1446.8 L 441.0 1452.7 L 437.8 1458.6 L 434.5 1464.6 L 431.2 1470.4 L 427.9 1476.4 L 424.5 1482.2 L 421.2 1488.1 L 417.7 1493.8 L 414.2 1499.7 L 410.7 1505.4 L 407.0 1511.0 L 403.4 1516.7 L 399.6 1522.2 L 395.7 1527.6 L 391.8 1533.0 L 391.8 1533.0 L 387.7 1538.5 L 383.6 1544.1 L 379.6 1549.8 L 375.5 1555.7 L 371.2 1561.5 L 367.0 1567.3 L 362.7 1573.0 L 358.3 1578.6 L 353.8 1584.0 L 349.3 1589.1 L 344.5 1593.9 L 339.7 1598.3 L 334.8 1602.2 L 329.7 1605.8 L 324.4 1608.8 L 319.0 1611.2 L 319.0 1611.2 L 313.4 1612.9 L 307.5 1613.9 L 301.3 1614.4 L 295.0 1614.4 L 288.5 1614.0 L 281.9 1613.2 L 275.1 1612.1 L 268.4 1610.7 L 261.6 1609.1 L 254.8 1607.5 L 248.2 1605.8 L 241.5 1604.2 L 235.0 1602.6 L 228.7 1601.2 L 222.6 1599.9 L 216.7 1599.1 L 216.7 1599.1 L 210.8 1598.1 L 204.6 1597.0 L 198.1 1595.5 L 191.4 1593.9 L 184.8 1592.2 L 178.2 1590.5 L 171.7 1588.9 L 165.5 1587.4 L 159.7 1586.0 L 154.2 1584.9 L 149.2 1584.1 L 144.9 1583.7 L 141.2 1583.8 L 138.4 1584.4 L 136.5 1585.6 L 135.6 1587.4 L 135.6 1587.4 L 135.8 1590.1 L 137.4 1593.8 L 140.0 1598.3 L 143.6 1603.4 L 147.9 1609.0 L 152.9 1615.1 L 158.5 1621.4 L 164.3 1628.0 L 170.2 1634.5 L 176.2 1640.9 L 182.0 1647.1 L 187.5 1652.9 L 192.5 1658.2 L 196.9 1662.9 L 200.5 1666.8 L 203.1 1669.9" fill="none" stroke="#00e5ff" stroke-width="6.0" stroke-opacity="0.9"/><path d="M 133.0 1669.5 L 130.3 1671.6 L 126.8 1674.0 L 122.8 1676.8 L 118.3 1679.9 L 113.3 1683.3 L 108.0 1686.9 L 102.5 1690.7 L 96.8 1694.8 L 91.1 1698.9 L 85.4 1703.1 L 79.9 1707.5 L 74.5 1711.9 L 69.4 1716.3 L 64.8 1720.6 L 60.6 1724.9 L 57.0 1729.1 L 57.0 1729.1 L 53.8 1733.5 L 50.5 1738.3 L 47.2 1743.3 L 44.2 1748.5 L 41.2 1754.0 L 38.4 1759.5 L 35.8 1765.0 L 33.4 1770.4 L 31.4 1775.7 L 29.7 1780.8 L 28.2 1785.6 L 27.3 1789.9 L 26.7 1793.8 L 26.6 1797.3 L 27.1 1800.1 L 28.0 1802.2 L 28.0 1802.2 L 29.8 1803.4 L 32.4 1803.8 L 35.7 1803.4 L 39.7 1802.5 L 44.2 1801.0 L 49.2 1799.1 L 54.4 1796.9 L 59.8 1794.6 L 65.4 1792.2 L 70.9 1790.0 L 76.2 1787.9 L 81.4 1786.2 L 86.1 1784.8 L 90.3 1784.1 L 94.1 1784.1 L 97.1 1784.7 L 97.1 1784.7 L 99.4 1786.2 L 101.3 1788.2 L 102.7 1790.7 L 103.9 1793.6 L 104.6 1796.7 L 105.2 1800.3 L 105.7 1804.1 L 106.0 1808.1 L 106.2 1812.2 L 106.5 1816.3 L 106.7 1820.5 L 107.0 1824.6 L 107.6 1828.6 L 108.4 1832.4 L 109.4 1836.0 L 110.8 1839.4 L 110.8 1839.4 L 112.5 1842.5 L 114.3 1845.7 L 116.4 1849.0 L 118.5 1852.3 L 120.8 1855.6 L 123.2 1858.8 L 125.6 1862.0 L 128.1 1865.2 L 130.7 1868.2 L 133.2 1871.1 L 135.7 1873.9 L 138.1 1876.5 L 140.5 1879.0 L 142.8 1881.3 L 145.0 1883.3 L 147.0 1885.1 L 147.0 1885.1 L 148.9 1886.7 L 150.7 1888.0 L 152.4 1889.1 L 153.9 1890.0 L 155.3 1890.8 L 156.9 1891.4 L 158.2 1891.9 L 159.7 1892.2 L 161.1 1892.4 L 162.6 1892.6 L 164.2 1892.7 L 165.9 1892.7 L 167.6 1892.8 L 169.5 1892.8 L 171.6 1892.8 L 173.9 1892.9 L 173.9 1892.9 L 176.3 1892.9 L 178.9 1892.7 L 181.7 1892.4 L 184.7 1892.0 L 187.7 1891.5 L 190.9 1890.9 L 194.1 1890.3 L 197.4 1889.8 L 200.6 1889.1 L 203.9 1888.6 L 207.2 1888.1 L 210.3 1887.7 L 213.5 1887.5 L 216.5 1887.5 L 219.4 1887.6 L 222.1 1887.9 L 222.1 1887.9 L 224.8 1888.7 L 227.4 1890.0 L 230.0 1891.8 L 232.6 1893.8 L 235.2 1896.1 L 237.7 1898.5 L 240.2 1900.9 L 242.6 1903.3 L 244.9 1905.5 L 247.2 1907.4 L 249.4 1909.0 L 251.5 1910.0 L 253.6 1910.5 L 255.7 1910.3 L 257.5 1909.3 L 259.3 1907.5 L 259.3 1907.5 L 260.9 1904.7 L 262.3 1901.1 L 263.3 1896.6 L 264.3 1891.5 L 265.1 1885.8 L 265.7 1879.7 L 266.4 1873.1 L 267.1 1866.4 L 267.8 1859.4 L 268.6 1852.3 L 269.6 1845.3 L 270.7 1838.3 L 272.1 1831.6 L 273.8 1825.2 L 275.8 1819.2 L 278.1 1813.7 L 278.1 1813.7 L 280.9 1808.5 L 283.9 1803.5 L 287.1 1798.6 L 290.6 1793.8 L 294.3 1789.0 L 298.3 1784.3 L 302.3 1779.8 L 306.5 1775.3 L 310.8 1770.8 L 315.2 1766.5 L 319.6 1762.1 L 324.0 1757.8 L 328.4 1753.4 L 332.8 1749.2 L 337.3 1744.9 L 341.6 1740.6 L 341.6 1740.6 L 345.8 1736.3 L 350.2 1732.1 L 354.5 1727.9 L 359.0 1723.8 L 363.5 1719.6 L 368.0 1715.6 L 372.6 1711.6 L 377.1 1707.5 L 381.7 1703.6 L 386.3 1699.7 L 391.0 1695.7 L 395.6 1691.8 L 400.2 1687.9 L 404.9 1683.9 L 409.5 1680.0 L 414.1 1676.1 L 414.1 1676.1 L 418.9 1672.2 L 423.6 1668.4 L 428.3 1664.5 L 433.1 1660.8 L 437.9 1657.0 L 442.8 1653.4 L 447.6 1649.7 L 452.4 1645.9 L 457.2 1642.3 L 462.0 1638.5 L 466.8 1634.7 L 471.5 1630.8 L 476.1 1627.0 L 480.7 1623.1 L 485.2 1619.0 L 489.7 1614.9 L 489.7 1614.9 L 494.0 1610.8 L 498.4 1606.6 L 502.9 1602.4 L 507.2 1598.1 L 511.5 1593.9 L 515.7 1589.5 L 520.0 1585.1 L 524.2 1580.7 L 528.3 1576.2 L 532.4 1571.7 L 536.4 1567.2 L 540.3 1562.6 L 544.1 1557.9 L 548.0 1553.2 L 551.6 1548.4 L 555.2 1543.6 L 555.2 1543.6 L 558.6 1538.6 L 562.0 1533.6 L 565.3 1528.6 L 568.6 1523.4 L 571.8 1518.2 L 574.9 1513.0 L 577.8 1507.8 L 580.8 1502.4 L 583.7 1497.0 L 586.5 1491.6 L 589.3 1486.3 L 591.9 1480.8 L 594.6 1475.3 L 597.2 1469.8 L 599.7 1464.3 L 602.3 1458.8 L 602.3 1458.8 L 604.7 1453.2 L 607.1 1447.7 L 609.3 1442.1 L 611.5 1436.4 L 613.7 1430.8 L 615.7 1425.0 L 617.8 1419.4 L 619.8 1413.6 L 621.7 1407.8 L 623.6 1402.1 L 625.5 1396.2 L 627.4 1390.5 L 629.2 1384.7 L 631.0 1378.8 L 632.9 1373.1 L 634.8 1367.3 L 634.8 1367.3 L 636.6 1361.5 L 638.4 1355.7 L 640.2 1349.9 L 642.0 1344.1 L 643.7 1338.3 L 645.4 1332.5 L 647.1 1326.6 L 648.9 1320.9 L 650.5 1315.0 L 652.1 1309.1 L 653.8 1303.3 L 655.4 1297.4 L 656.9 1291.6 L 658.6 1285.7 L 660.1 1279.8 L 661.6 1273.9 L 661.6 1273.9 L 663.1 1268.1 L 664.4 1262.0 L 665.7 1256.0 L 666.8 1249.8 L 668.0 1243.7 L 669.0 1237.5 L 670.1 1231.4 L 671.2 1225.3 L 672.4 1219.2 L 673.5 1213.2 L 674.9 1207.3 L 676.3 1201.4 L 677.8 1195.7 L 679.5 1190.1 L 681.3 1184.6 L 683.4 1179.3 L 683.4 1179.3 L 685.7 1173.9 L 688.2 1168.1 L 690.8 1162.1 L 693.7 1155.9 L 696.7 1149.7 L 699.7 1143.5 L 702.8 1137.5 L 706.1 1131.7 L 709.3 1126.4 L 712.5 1121.5 L 715.8 1117.0 L 719.0 1113.3 L 722.2 1110.3 L 725.2 1108.2 L 728.2 1107.1 L 731.0 1107.0 L 731.0 1107.0 L 733.7 1107.9 L 736.5 1110.1 L 739.2 1113.2 L 741.8 1117.2 L 744.5 1122.1 L 747.1 1127.5 L 749.7 1133.6 L 752.3 1140.0 L 754.8 1146.7 L 757.3 1153.7 L 759.7 1160.8 L 762.1 1167.8 L 764.5 1174.7 L 766.9 1181.4 L 769.3 1187.7 L 771.6 1193.6 L 771.6 1193.6 L 773.8 1199.1 L 775.9 1204.8 L 778.0 1210.5 L 780.0 1216.2 L 782.0 1221.9 L 783.9 1227.6 L 785.9 1233.4 L 787.8 1239.3 L 789.7 1245.0 L 791.5 1250.8 L 793.5 1256.5 L 795.5 1262.3 L 797.5 1268.1 L 799.6 1273.8 L 801.7 1279.5 L 803.9 1285.1 L 803.9 1285.1 L 806.2 1290.7 L 808.5 1296.3 L 810.9 1301.8 L 813.4 1307.4 L 815.8 1313.0 L 818.4 1318.6 L 820.9 1324.0 L 823.5 1329.5 L 826.1 1335.1 L 828.6 1340.5 L 831.2 1346.1 L 833.8 1351.6 L 836.3 1357.1 L 838.8 1362.6 L 841.2 1368.2 L 843.7 1373.8 L 843.7 1373.8 L 846.1 1379.3 L 848.5 1384.9 L 850.9 1390.5 L 853.3 1396.0 L 855.7 1401.6 L 858.1 1407.3 L 860.5 1412.8 L 862.8 1418.4 L 865.2 1424.1 L 867.5 1429.6 L 869.7 1435.3 L 872.0 1440.9 L 874.1 1446.5 L 876.3 1452.3 L 878.3 1457.9 L 880.3 1463.6 L 880.3 1463.6 L 882.3 1469.4 L 884.2 1475.1 L 886.1 1480.9 L 887.8 1486.7 L 889.6 1492.5 L 891.4 1498.4 L 893.0 1504.2 L 894.6 1510.0 L 896.3 1515.8 L 897.9 1521.8 L 899.4 1527.6 L 901.0 1533.5 L 902.5 1539.4 L 903.9 1545.3 L 905.5 1551.2 L 906.9 1557.0 L 906.9 1557.0 L 908.4 1563.0 L 909.8 1568.8 L 911.1 1574.8 L 912.5 1580.6 L 913.7 1586.6 L 915.0 1592.5 L 916.2 1598.5 L 917.5 1604.4 L 918.7 1610.4 L 920.0 1616.3 L 921.1 1622.3 L 922.4 1628.2 L 923.6 1634.2 L 924.8 1640.2 L 926.0 1646.1 L 927.3 1652.1 L 927.3 1652.1 L 928.6 1657.9 L 929.9 1663.9 L 931.1 1669.8 L 932.4 1675.8 L 933.6 1681.7 L 934.8 1687.7 L 936.0 1693.6 L 937.3 1699.6 L 938.5 1705.5 L 939.8 1711.5 L 941.1 1717.3 L 942.3 1723.3 L 943.7 1729.2 L 945.0 1735.2 L 946.4 1741.0 L 947.7 1747.0 L 947.7 1747.0 L 949.2 1752.9 L 950.6 1758.8 L 952.1 1764.7 L 953.7 1770.5 L 955.2 1776.4 L 956.7 1782.2 L 958.4 1788.2 L 959.9 1794.0 L 961.5 1799.9 L 963.1 1805.8 L 964.6 1811.6 L 966.1 1817.5 L 967.7 1823.3 L 969.1 1829.3 L 970.6 1835.1 L 971.9 1841.1 L 971.9 1841.1 L 973.3 1846.9 L 974.6 1852.9 L 975.9 1858.8 L 977.2 1864.8 L 978.4 1870.6 L 979.7 1876.6 L 980.9 1882.6 L 982.2 1888.5 L 983.3 1894.5 L 984.5 1900.4 L 985.6 1906.4 L 986.8 1912.4 L 987.9 1918.4 L 989.0 1924.3 L 990.1 1930.3 L 991.1 1936.2 L 991.1 1936.2 L 992.2 1942.3 L 993.1 1948.2 L 994.1 1954.3 L 994.9 1960.2 L 995.8 1966.3 L 996.6 1972.3 L 997.4 1978.3 L 998.2 1984.3 L 999.1 1990.4 L 999.8 1996.4 L 1000.0 1997.6" fill="none" stroke="#00e5ff" stroke-width="6.0" stroke-opacity="0.9"/><path d="M 930.4 572.7 L 929.0 572.8 L 927.2 573.0 L 925.2 573.1 L 922.9 573.3 L 920.5 573.4 L 917.9 573.6 L 915.1 573.8 L 912.2 574.1 L 909.2 574.3 L 906.1 574.5 L 903.1 574.7 L 900.1 574.9 L 897.1 575.2 L 894.1 575.4 L 891.4 575.7 L 888.7 575.9 L 888.7 575.9 L 886.1 576.2 L 883.5 576.4 L 880.9 576.6 L 878.3 576.9 L 875.6 577.0 L 873.0 577.3 L 870.4 577.6 L 867.8 577.8 L 865.3 578.1 L 862.7 578.4 L 860.1 578.7 L 857.5 579.0 L 854.9 579.4 L 852.3 579.6 L 849.7 580.0 L 847.1 580.4 L 847.1 580.4 L 844.4 580.8 L 841.6 581.3 L 838.8 581.8 L 835.9 582.3 L 832.8 582.9 L 829.8 583.5 L 826.9 584.1 L 824.0 584.6 L 821.2 585.2 L 818.4 585.8 L 815.8 586.4 L 813.4 586.8 L 811.2 587.3 L 809.3 587.7 L 807.6 588.1 L 806.1 588.4" fill="none" stroke="#00e5ff" stroke-width="6.0" stroke-opacity="0.9"/></g><g id="clips"><circle cx="1000.0" cy="383.9" r="2" fill="none" stroke="#0b5" stroke-width="0.6"/><circle cx="203.1" cy="1669.9" r="2" fill="none" stroke="#0b5" stroke-width="0.6"/><circle cx="133.0" cy="1669.5" r="2" fill="none" stroke="#0b5" stroke-width="0.6"/><circle cx="1000.0" cy="1997.6" r="2" fill="none" stroke="#0b5" stroke-width="0.6"/><circle cx="930.4" cy="572.7" r="2" fill="none" stroke="#0b5" stroke-width="0.6"/><circle cx="806.1" cy="588.4" r="2" fill="none" stroke="#0b5" stroke-width="0.6"/></g><g id="power"><circle cx="1000.0" cy="1997.6" r="5" fill="none" stroke="#e33" stroke-width="1"/><circle cx="1000.0" cy="383.9" r="5" fill="none" stroke="#e33" stroke-width="1"/></g><g id="bridges"></g></svg>