<svg xmlns="http://www.w3.org/2000/svg" width="2000mm" height="1000mm" viewBox="0 0 2000 1000"><g id="outline"><rect x="0" y="0" width="2000" height="1000" fill="none" stroke="#000" stroke-width="1"/></g><g id="channels"><path d="M 1391.6 0.0 L 1392.2 1.6 L 1394.4 7.6 L 1396.6 13.5 L 1398.7 19.5 L 1400.8 25.4 L 1400.8 25.4 L 1402.8 31.4 L 1404.7 37.4 L 1406.4 43.4 L 1408.1 49.5 L 1409.7 55.6 L 1411.2 61.8 L 1412.7 67.9 L 1414.1 74.1 L 1415.5 80.3 L 1416.9 86.5 L 1418.2 92.7 L 1419.6 98.9 L 1421.0 105.1 L 1422.3 111.3 L 1423.8 117.4 L 1425.2 123.6 L 1425.2 123.6 L 1426.7 129.8 L 1428.0 136.0 L 1429.2 142.3 L 1430.4 148.6 L 1431.6 154.9 L 1432.7 161.3 L 1433.8 167.6 L 1435.0 173.9 L 1436.3 180.2 L 1437.6 186.4 L 1439.0 192.6 L 1440.5 198.7 L 1442.2 204.7 L 1444.1 210.6 L 1446.2 216.4 L 1448.4 222.1 L 1448.4 222.1 L 1450.9 227.7 L 1453.3 233.5 L 1455.9 239.3 L 1458.6 245.1 L 1461.3 250.9 L 1464.2 256.7 L 1467.2 262.3 L 1470.4 267.9 L 1473.7 273.2 L 1477.1 278.4 L 1480.7 283.3 L 1484.5 287.9 L 1488.5 292.2 L 1492.8 296.2 L 1497.2 299.7 L 1501.9 302.9 L 1501.9 302.9 L 1507.0 305.5 L 1512.8 307.7 L 1519.1 309.5 L 1525.9 311.0 L 1532.9 312.1 L 1540.2 312.9 L 1547.6 313.5 L 1555.0 313.9 L 1562.3 314.1 L 1569.4 314.2 L 1576.2 314.3 L 1582.5 314.3 L 1588.3 314.3 L 1593.5 314.3 L 1598.0 314.5 L 1601.5 314.8" fill="none" stroke="#00e5ff" stroke-width="6.0" stroke-opacity="0.9"/><path d="M 1620.4 296.6 L 1621.2 293.9 L 1622.4 290.7 L 1623.9 287.0 L 1625.6 283.0 L 1627.5 278.5 L 1629.5 273.8 L 1631.5 268.8 L 1633.5 263.5 L 1635.3 258.1 L 1637.1 252.5 L 1638.6 246.7 L 1639.8 241.0 L 1640.7 235.2 L 1641.2 229.4 L 1641.1 223.7 L 1640.6 218.1 L 1640.6 218.1 L 1639.4 212.5 L 1637.7 206.8 L 1635.6 201.0 L 1633.0 195.1 L 1630.0 189.1 L 1626.8 183.0 L 1623.3 176.8 L 1619.7 170.6 L 1616.0 164.3 L 1612.3 158.0 L 1608.6 151.7 L 1605.0 145.3 L 1601.6 138.9 L 1598.4 132.5 L 1595.5 126.1 L 1593.0 119.7 L 1593.0 119.7 L 1590.8 113.3 L 1588.8 106.7 L 1587.0 100.1 L 1585.4 93.4 L 1583.9 86.7 L 1582.5 79.9 L 1581.1 73.2 L 1579.8 66.4 L 1578.5 59.6 L 1577.1 52.9 L 1575.6 46.2 L 1574.0 39.5 L 1572.2 33.0 L 1570.3 26.5 L 1568.1 20.2 L 1565.7 13.9 L 1565.7 13.9 L 1563.0 7.8 L 1560.3 1.7 L 1559.5 0.0" fill="none" stroke="#00e5ff" stroke-width="6.0" stroke-opacity="0.9"/><path d="M 1993.6 0.0 L 1995.5 2.3 L 1999.9 7.5 L 2000.0 7.6" fill="none" stroke="#00e5ff" stroke-width="6.0" stroke-opacity="0.9"/></g><g id="clips"><circle cx="1391.6" cy="0.0" r="2" fill="none" stroke="#0b5" stroke-width="0.6"/><circle cx="1601.5" cy="314.8" r="2" fill="none" stroke="#0b5" stroke-width="0.6"/><circle cx="1620.4" cy="296.6" r="2" fill="none" stroke="#0b5" stroke-width="0.6"/><circle cx="1559.5" cy="0.0" r="2" fill="none" stroke="#0b5" stroke-width="0.6"/><circle cx="1993.6" cy="0.0" r="2" fill="none" stroke="#0b5" stroke-width="0.6"/></g><g id="power"><circle cx="1391.6" cy="0.0" r="5" fill="none" stroke="#e33" stroke-width="1"/><circle cx="1559.5" cy="0.0" r="5" fill="none" stroke="#e33" stroke-width="1"/><circle cx="1993.5" cy="0.0" r="5" fill="none" stroke="#e33" stroke-width="1"/><circle cx="2000.0" cy="7.6" r="5" fill="none" stroke="#e33" stroke-width="1"/></g></svg>