<svg xmlns="http://www.w3.org/2000/svg" width="2000mm" height="1000mm" viewBox="0 0 2000 1000"><g id="outline"><rect x="0" y="0" width="2000" height="1000" fill="none" stroke="#000" stroke-width="1"/></g><g id="channels"><path d="M 758.7 1000.0 L 759.0 999.4 L 761.8 993.5 L 764.6 987.6 L 767.3 981.6 L 770.1 975.7 L 772.8 969.7 L 775.4 963.7 L 778.1 957.7 L 780.8 951.7 L 783.4 945.7 L 786.0 939.7 L 788.6 933.7 L 791.2 927.6 L 793.7 921.6 L 796.3 915.6 L 796.3 915.6 L 798.8 909.5 L 801.4 903.5 L 803.9 897.4 L 806.4 891.4 L 808.9 885.3 L 811.4 879.2 L 813.9 873.2 L 816.3 867.1 L 818.8 861.0 L 821.2 854.9 L 823.5 848.8 L 825.9 842.7 L 828.2 836.5 L 830.4 830.4 L 832.6 824.2 L 834.8 818.0 L 834.8 818.0 L 836.9 811.8 L 839.1 805.6 L 841.1 799.4 L 843.2 793.2 L 845.2 787.0 L 847.2 780.7 L 849.1 774.4 L 851.0 768.2 L 852.9 761.9 L 854.8 755.6 L 856.6 749.3 L 858.4 743.0 L 860.1 736.7 L 861.9 730.4 L 863.6 724.0 L 865.2 717.7 L 865.2 717.7 L 866.8 711.3 L 868.3 705.0 L 869.8 698.6 L 871.2 692.2 L 872.6 685.8 L 873.9 679.4 L 875.2 672.9 L 876.5 666.5 L 877.7 660.1 L 879.0 653.6 L 880.3 647.2 L 881.6 640.8 L 883.0 634.3 L 884.4 627.9 L 885.8 621.6 L 887.3 615.2 L 887.3 615.2 L 888.9 608.8 L 890.3 602.4 L 891.8 596.0 L 893.2 589.5 L 894.6 583.0 L 896.0 576.6 L 897.5 570.2 L 899.0 563.7 L 900.6 557.3 L 902.3 551.0 L 904.0 544.7 L 905.9 538.4 L 907.9 532.2 L 910.1 526.1 L 912.4 520.1 L 915.0 514.1 L 915.0 514.1 L 917.7 508.3 L 920.6 502.5 L 923.7 496.8 L 926.9 491.2 L 930.3 485.7 L 933.8 480.2 L 937.4 474.7 L 941.1 469.3 L 944.9 463.9 L 948.6 458.6 L 952.5 453.2 L 956.3 447.9 L 960.1 442.6 L 963.9 437.2 L 967.7 431.9 L 971.4 426.5 L 971.4 426.5 L 975.1 421.2 L 978.9 415.9 L 982.9 410.7 L 986.9 405.5 L 991.0 400.3 L 995.1 395.2 L 999.2 390.1 L 1003.3 384.9 L 1007.4 379.8 L 1011.3 374.6 L 1015.2 369.3 L 1018.9 364.0 L 1022.4 358.6 L 1025.8 353.1 L 1029.0 347.5 L 1031.9 341.7 L 1031.9 341.7 L 1034.6 335.9 L 1036.9 329.8 L 1039.0 323.7 L 1040.8 317.4 L 1042.5 311.0 L 1044.0 304.6 L 1045.5 298.1 L 1046.9 291.6 L 1048.3 285.1 L 1049.7 278.6 L 1051.2 272.2 L 1052.8 265.8 L 1054.5 259.4 L 1056.5 253.2 L 1058.7 247.1 L 1061.1 241.1 L 1061.1 241.1 L 1063.8 235.2 L 1066.6 229.3 L 1069.5 223.5 L 1072.5 217.7 L 1075.5 211.9 L 1078.7 206.2 L 1082.0 200.5 L 1085.4 194.9 L 1088.9 189.4 L 1092.4 183.9 L 1096.1 178.5 L 1099.9 173.2 L 1103.7 167.9 L 1107.7 162.8 L 1111.7 157.7 L 1115.9 152.8 L 1115.9 152.8 L 1120.3 148.0 L 1125.0 143.4 L 1130.0 139.0 L 1135.3 134.7 L 1140.7 130.5 L 1146.3 126.5 L 1151.9 122.4 L 1157.5 118.5 L 1163.0 114.5 L 1168.5 110.5 L 1173.7 106.4 L 1178.8 102.3 L 1183.5 98.1 L 1187.9 93.7 L 1191.9 89.2 L 1195.4 84.5 L 1195.4 84.5 L 1198.7 79.5 L 1202.0 74.1 L 1205.3 68.5 L 1208.5 62.7 L 1211.6 56.7 L 1214.5 50.6 L 1217.1 44.5 L 1219.4 38.5 L 1221.4 32.5 L 1222.9 26.7 L 1224.0 21.2 L 1224.6 15.9 L 1224.6 11.0 L 1223.9 6.5 L 1222.6 2.4 L 1221.2 0.0" fill="none" stroke="#39ff88" stroke-width="6.0" stroke-opacity="0.9"/><path d="M 997.5 0.0 L 996.7 1.0 L 993.3 6.3 L 990.1 11.9 L 987.0 17.9 L 984.2 24.1 L 981.4 30.5 L 978.8 37.0 L 976.1 43.5 L 973.6 50.1 L 971.0 56.6 L 968.3 63.0 L 965.6 69.2 L 962.8 75.2 L 962.8 75.2 L 959.9 81.1 L 957.0 86.9 L 954.2 92.8 L 951.5 98.8 L 948.7 104.7 L 946.0 110.7 L 943.4 116.7 L 940.7 122.7 L 938.1 128.7 L 935.5 134.8 L 933.0 140.8 L 930.5 146.9 L 928.0 153.0 L 925.5 159.1 L 923.1 165.2 L 920.7 171.3 L 920.7 171.3 L 918.3 177.4 L 916.0 183.5 L 913.7 189.6 L 911.4 195.8 L 909.2 201.9 L 907.0 208.1 L 904.8 214.3 L 902.7 220.5 L 900.6 226.7 L 898.5 232.9 L 896.4 239.1 L 894.3 245.4 L 892.2 251.6 L 890.1 257.8 L 888.1 264.0 L 886.0 270.2 L 886.0 270.2 L 883.9 276.4 L 881.9 282.7 L 879.9 288.9 L 877.9 295.2 L 876.0 301.5 L 874.1 307.7 L 872.2 314.0 L 870.2 320.3 L 868.3 326.5 L 866.3 332.8 L 864.3 339.0 L 862.3 345.3 L 860.2 351.5 L 858.1 357.7 L 855.8 363.8 L 853.6 370.0 L 853.6 370.0 L 851.2 376.1 L 848.8 382.2 L 846.4 388.2 L 843.9 394.3 L 841.4 400.4 L 838.9 406.4 L 836.3 412.4 L 833.7 418.5 L 831.0 424.5 L 828.4 430.4 L 825.6 436.4 L 822.9 442.3 L 820.1 448.3 L 817.3 454.2 L 814.4 460.1 L 811.5 465.9 L 811.5 465.9 L 808.6 471.8 L 805.6 477.6 L 802.6 483.4 L 799.5 489.2 L 796.4 495.0 L 793.2 500.8 L 790.1 506.5 L 786.9 512.2 L 783.6 517.9 L 780.4 523.6 L 777.1 529.3 L 773.8 535.0 L 770.5 540.6 L 767.2 546.3 L 763.8 551.9 L 760.5 557.6 L 760.5 557.6 L 757.1 563.2 L 753.7 568.8 L 750.3 574.4 L 746.8 579.9 L 743.3 585.5 L 739.8 591.0 L 736.3 596.5 L 732.7 602.1 L 729.2 607.6 L 725.6 613.1 L 722.1 618.6 L 718.5 624.1 L 714.9 629.6 L 711.3 635.0 L 707.7 640.5 L 704.2 646.0 L 704.2 646.0 L 700.6 651.5 L 697.0 657.0 L 693.4 662.5 L 689.7 667.9 L 686.1 673.4 L 682.5 678.8 L 678.8 684.3 L 675.2 689.7 L 671.5 695.2 L 667.9 700.6 L 664.2 706.1 L 660.6 711.5 L 657.0 717.0 L 653.4 722.5 L 649.8 727.9 L 646.2 733.4 L 646.2 733.4 L 642.6 738.9 L 639.1 744.5 L 635.6 750.0 L 632.0 755.5 L 628.5 761.0 L 625.0 766.6 L 621.5 772.1 L 618.0 777.7 L 614.5 783.2 L 611.0 788.7 L 607.5 794.3 L 604.0 799.9 L 600.6 805.4 L 597.1 811.0 L 593.6 816.5 L 590.1 822.1 L 590.1 822.1 L 586.7 827.6 L 583.2 833.2 L 579.8 838.8 L 576.4 844.4 L 573.0 850.0 L 569.5 855.6 L 566.1 861.2 L 562.7 866.8 L 559.3 872.4 L 555.9 878.0 L 552.4 883.6 L 549.0 889.1 L 545.5 894.7 L 542.0 900.2 L 538.4 905.7 L 534.8 911.2 L 534.8 911.2 L 531.2 916.6 L 527.5 922.1 L 523.9 927.5 L 520.2 932.9 L 516.5 938.4 L 512.8 943.7 L 509.0 949.1 L 505.3 954.5 L 501.5 959.9 L 497.7 965.2 L 493.9 970.5 L 490.0 975.8 L 486.2 981.1 L 482.3 986.4 L 478.4 991.7 L 474.5 996.9 L 474.5 996.9 L 472.1 1000.0" fill="none" stroke="#39ff88" stroke-width="6.0" stroke-opacity="0.9"/><path d="M 1275.6 1000.0 L 1280.3 995.4 L 1285.5 990.3 L 1290.7 985.3 L 1295.9 980.2 L 1301.1 975.2 L 1306.3 970.3 L 1311.6 965.3 L 1316.9 960.4 L 1322.2 955.5 L 1327.6 950.7 L 1333.0 945.9 L 1338.4 941.2 L 1338.4 941.2 L 1343.9 936.5 L 1349.3 931.7 L 1354.7 926.9 L 1360.2 922.0 L 1365.7 917.2 L 1371.2 912.4 L 1376.7 907.6 L 1382.3 902.9 L 1387.9 898.3 L 1393.6 893.8 L 1399.3 889.5 L 1405.1 885.2 L 1411.0 881.2 L 1417.0 877.3 L 1423.1 873.7 L 1429.3 870.3 L 1429.3 870.3 L 1435.7 867.2 L 1442.3 864.4 L 1449.0 862.0 L 1455.9 859.8 L 1462.8 857.8 L 1469.9 856.0 L 1477.0 854.3 L 1484.1 852.7 L 1491.3 851.1 L 1498.4 849.4 L 1505.4 847.6 L 1512.4 845.7 L 1519.3 843.7 L 1526.0 841.4 L 1532.6 838.8 L 1539.0 835.8 L 1539.0 835.8 L 1545.3 832.6 L 1551.5 829.3 L 1557.6 825.9 L 1563.6 822.2 L 1569.6 818.5 L 1575.5 814.7 L 1581.3 810.7 L 1587.1 806.6 L 1592.8 802.4 L 1598.4 798.2 L 1604.0 793.8 L 1609.4 789.3 L 1614.9 784.8 L 1620.2 780.2 L 1625.5 775.5 L 1630.7 770.7 L 1630.7 770.7 L 1635.8 765.8 L 1640.8 760.8 L 1645.7 755.6 L 1650.4 750.2 L 1655.1 744.7 L 1659.7 739.2 L 1664.2 733.5 L 1668.7 727.8 L 1673.1 722.1 L 1677.6 716.4 L 1682.1 710.6 L 1686.5 704.9 L 1691.1 699.2 L 1695.6 693.6 L 1700.3 688.0 L 1705.0 682.6 L 1705.0 682.6 L 1709.9 677.3 L 1715.0 672.1 L 1720.3 666.9 L 1725.8 661.9 L 1731.3 656.9 L 1736.8 651.9 L 1742.3 646.9 L 1747.8 641.9 L 1753.2 636.9 L 1758.4 631.7 L 1763.4 626.5 L 1768.1 621.2 L 1772.6 615.8 L 1776.7 610.2 L 1780.4 604.4 L 1783.7 598.4 L 1783.7 598.4 L 1786.7 592.2 L 1789.5 585.7 L 1792.2 579.0 L 1794.7 572.1 L 1796.9 565.0 L 1799.0 557.8 L 1800.8 550.5 L 1802.3 543.2 L 1803.6 535.9 L 1804.5 528.6 L 1805.2 521.4 L 1805.4 514.4 L 1805.4 507.5 L 1804.9 500.8 L 1804.1 494.3 L 1802.8 488.1 L 1802.8 488.1 L 1801.0 481.9 L 1798.6 475.3 L 1795.7 468.5 L 1792.4 461.6 L 1788.6 454.6 L 1784.5 447.7 L 1780.1 441.0 L 1775.4 434.6 L 1770.5 428.5 L 1765.6 422.9 L 1760.5 418.0 L 1755.4 413.7 L 1750.4 410.2 L 1745.5 407.6 L 1740.7 406.0 L 1736.1 405.5 L 1736.1 405.5 L 1731.6 406.2 L 1727.0 408.0 L 1722.4 410.9 L 1717.6 414.8 L 1712.9 419.4 L 1708.1 424.8 L 1703.2 430.7 L 1698.4 437.1 L 1693.5 443.9 L 1688.6 450.8 L 1683.8 457.9 L 1679.0 464.9 L 1674.2 471.8 L 1669.5 478.5 L 1664.8 484.8 L 1660.2 490.6 L 1660.2 490.6 L 1655.7 496.2 L 1651.4 501.9 L 1647.1 507.7 L 1642.9 513.6 L 1638.7 519.6 L 1634.6 525.5 L 1630.4 531.5 L 1626.3 537.5 L 1622.1 543.4 L 1617.9 549.3 L 1613.7 555.2 L 1609.3 560.9 L 1604.8 566.5 L 1600.2 572.0 L 1595.4 577.4 L 1590.5 582.6 L 1590.5 582.6 L 1585.4 587.6 L 1580.2 592.5 L 1574.8 597.2 L 1569.4 601.9 L 1563.8 606.4 L 1558.1 610.9 L 1552.4 615.3 L 1546.6 619.6 L 1540.8 623.9 L 1534.9 628.1 L 1529.0 632.3 L 1523.1 636.5 L 1517.2 640.7 L 1511.3 645.0 L 1505.4 649.2 L 1499.6 653.5 L 1499.6 653.5 L 1493.8 657.8 L 1488.0 662.0 L 1482.2 666.3 L 1476.3 670.5 L 1470.4 674.7 L 1464.5 678.8 L 1458.6 683.0 L 1452.7 687.2 L 1446.8 691.3 L 1440.9 695.4 L 1434.9 699.5 L 1429.0 703.7 L 1423.1 707.8 L 1417.1 711.9 L 1411.2 716.0 L 1405.3 720.1 L 1405.3 720.1 L 1399.4 724.3 L 1393.4 728.4 L 1387.5 732.5 L 1381.6 736.7 L 1375.7 740.8 L 1369.8 745.0 L 1363.9 749.1 L 1358.0 753.2 L 1352.0 757.4 L 1346.1 761.5 L 1340.1 765.5 L 1334.1 769.6 L 1328.1 773.6 L 1322.1 777.6 L 1316.1 781.5 L 1310.0 785.4 L 1310.0 785.4 L 1303.9 789.3 L 1297.8 793.1 L 1291.7 796.9 L 1285.5 800.7 L 1279.3 804.4 L 1273.1 808.2 L 1266.9 811.9 L 1260.7 815.5 L 1254.5 819.2 L 1248.2 822.8 L 1242.0 826.5 L 1235.8 830.1 L 1229.5 833.7 L 1223.3 837.4 L 1217.0 841.0 L 1210.8 844.7 L 1210.8 844.7 L 1204.6 848.3 L 1198.3 851.9 L 1192.1 855.5 L 1185.8 859.1 L 1179.5 862.7 L 1173.2 866.2 L 1166.9 869.8 L 1160.6 873.4 L 1154.4 876.9 L 1148.1 880.5 L 1141.8 884.1 L 1135.6 887.7 L 1129.3 891.4 L 1123.1 895.0 L 1116.9 898.7 L 1110.8 902.5 L 1110.8 902.5 L 1104.6 906.3 L 1098.5 910.1 L 1092.4 914.0 L 1086.3 917.8 L 1080.2 921.7 L 1074.2 925.7 L 1068.1 929.6 L 1062.1 933.6 L 1056.1 937.6 L 1050.0 941.5 L 1044.0 945.5 L 1038.0 949.5 L 1032.0 953.5 L 1025.9 957.5 L 1019.9 961.4 L 1013.9 965.4 L 1013.9 965.4 L 1007.8 969.3 L 1001.8 973.3 L 995.7 977.2 L 989.7 981.2 L 983.6 985.2 L 977.6 989.1 L 971.6 993.1 L 965.5 997.0 L 961.0 1000.0" fill="none" stroke="#39ff88" stroke-width="6.0" stroke-opacity="0.9"/></g><g id="clips"><circle cx="758.7" cy="1000.0" r="2" fill="none" stroke="#0b5" stroke-width="0.6"/><circle cx="1221.2" cy="0.0" r="2" fill="none" stroke="#0b5" stroke-width="0.6"/><circle cx="997.5" cy="0.0" r="2" fill="none" stroke="#0b5" stroke-width="0.6"/><circle cx="472.1" cy="1000.0" r="2" fill="none" stroke="#0b5" stroke-width="0.6"/><circle cx="1275.6" cy="1000.0" r="2" fill="none" stroke="#0b5" stroke-width="0.6"/><circle cx="961.0" cy="1000.0" r="2" fill="none" stroke="#0b5" stroke-width="0.6"/></g><g id="power"><circle cx="758.7" cy="1000.0" r="5" fill="none" stroke="#e33" stroke-width="1"/><circle cx="472.2" cy="1000.0" r="5" fill="none" stroke="#e33" stroke-width="1"/><circle cx="1275.7" cy="1000.0" r="5" fill="none" stroke="#e33" stroke-width="1"/><circle cx="961.1" cy="1000.0" r="5" fill="none" stroke="#e33" stroke-width="1"/><circle cx="1221.2" cy="0.0" r="5" fill="none" stroke="#e33" stroke-width="1"/><circle cx="997.5" cy="0.0" r="5" fill="none" stroke="#e33" stroke-width="1"/></g></svg>