<svg xmlns="http://www.w3.org/2000/svg" width="2000mm" height="1000mm" viewBox="0 0 2000 1000"><g id="outline"><rect x="0" y="0" width="2000" height="1000" fill="none" stroke="#000" stroke-width="1"/></g><g id="channels"><path d="M 833.6 1000.0 L 833.3 998.0 L 832.7 991.6 L 832.3 985.1 L 832.3 985.1 L 832.1 978.7 L 832.2 972.2 L 832.3 965.7 L 832.7 959.2 L 833.2 952.7 L 833.8 946.2 L 834.5 939.7 L 835.3 933.2 L 836.3 926.7 L 837.3 920.2 L 838.4 913.7 L 839.5 907.2 L 840.7 900.7 L 841.9 894.3 L 843.1 887.8 L 844.4 881.4 L 844.4 881.4 L 845.7 875.0 L 847.1 868.7 L 848.7 862.3 L 850.3 856.0 L 852.0 849.6 L 853.7 843.3 L 855.6 837.0 L 857.4 830.7 L 859.3 824.4 L 861.2 818.1 L 863.1 811.8 L 865.1 805.6 L 866.9 799.3 L 868.8 793.0 L 870.6 786.7 L 872.4 780.3 L 872.4 780.3 L 874.2 774.0 L 875.9 767.7 L 877.7 761.4 L 879.4 755.1 L 881.2 748.8 L 882.9 742.4 L 884.7 736.1 L 886.4 729.8 L 888.2 723.5 L 889.9 717.2 L 891.7 710.9 L 893.4 704.5 L 895.1 698.2 L 896.9 691.9 L 898.6 685.6 L 900.3 679.2 L 900.3 679.2 L 902.0 672.9 L 903.7 666.6 L 905.4 660.3 L 907.1 653.9 L 908.8 647.6 L 910.5 641.3 L 912.2 634.9 L 913.9 628.6 L 915.6 622.3 L 917.3 615.9 L 918.9 609.6 L 920.6 603.2 L 922.2 596.9 L 923.9 590.5 L 925.5 584.2 L 927.1 577.8 L 927.1 577.8 L 928.7 571.5 L 930.2 565.1 L 931.8 558.7 L 933.2 552.3 L 934.7 545.9 L 936.1 539.5 L 937.6 533.1 L 939.0 526.7 L 940.5 520.3 L 942.0 513.9 L 943.5 507.6 L 945.1 501.2 L 946.7 494.9 L 948.4 488.5 L 950.1 482.2 L 952.0 475.9 L 952.0 475.9 L 953.8 469.7 L 955.7 463.4 L 957.5 457.1 L 959.4 450.8 L 961.3 444.5 L 963.2 438.2 L 965.2 431.9 L 967.2 425.6 L 969.3 419.4 L 971.5 413.2 L 973.7 407.1 L 976.1 401.0 L 978.5 394.9 L 981.1 388.9 L 983.7 383.0 L 986.6 377.2 L 986.6 377.2 L 989.5 371.4 L 992.7 365.7 L 995.9 360.0 L 999.3 354.5 L 1002.8 348.9 L 1006.4 343.5 L 1010.1 338.0 L 1013.8 332.6 L 1017.6 327.3 L 1021.4 321.9 L 1025.2 316.6 L 1029.1 311.2 L 1032.9 305.9 L 1036.7 300.5 L 1040.5 295.1 L 1044.2 289.8 L 1044.2 289.8 L 1048.0 284.4 L 1051.7 279.0 L 1055.6 273.7 L 1059.4 268.4 L 1063.3 263.1 L 1067.2 257.8 L 1071.1 252.5 L 1075.0 247.2 L 1078.8 241.9 L 1082.7 236.6 L 1086.5 231.3 L 1090.3 225.9 L 1093.9 220.5 L 1097.6 215.1 L 1101.1 209.6 L 1104.6 204.0 L 1104.6 204.0 L 1108.0 198.4 L 1111.3 192.8 L 1114.5 187.1 L 1117.7 181.4 L 1120.9 175.7 L 1124.0 169.9 L 1127.0 164.1 L 1130.0 158.3 L 1133.0 152.4 L 1136.0 146.6 L 1138.9 140.7 L 1141.8 134.8 L 1144.7 128.9 L 1147.6 123.0 L 1150.5 117.1 L 1153.3 111.2 L 1153.3 111.2 L 1156.2 105.3 L 1159.0 99.4 L 1161.8 93.5 L 1164.6 87.6 L 1167.3 81.6 L 1170.1 75.7 L 1172.8 69.7 L 1175.4 63.7 L 1178.1 57.7 L 1180.8 51.7 L 1183.4 45.7 L 1186.0 39.7 L 1188.6 33.7 L 1191.2 27.6 L 1193.7 21.6 L 1196.3 15.6 L 1196.3 15.6 L 1198.8 9.5 L 1201.4 3.5 L 1202.8 0.0" fill="none" stroke="#39ff88" stroke-width="6.0" stroke-opacity="0.9"/><path d="M 942.1 0.0 L 942.0 0.2 L 938.4 5.7 L 934.8 11.2 L 934.8 11.2 L 931.2 16.6 L 927.5 22.1 L 923.9 27.5 L 920.2 32.9 L 916.5 38.4 L 912.8 43.7 L 909.0 49.1 L 905.3 54.5 L 901.5 59.9 L 897.7 65.2 L 893.9 70.5 L 890.0 75.8 L 886.2 81.1 L 882.3 86.4 L 878.4 91.7 L 874.5 96.9 L 874.5 96.9 L 870.5 102.1 L 866.5 107.3 L 862.4 112.4 L 858.3 117.5 L 854.1 122.6 L 849.9 127.6 L 845.7 132.7 L 841.5 137.7 L 837.3 142.8 L 833.1 147.8 L 828.9 152.9 L 824.9 158.0 L 820.8 163.2 L 816.8 168.4 L 813.0 173.6 L 809.2 179.0 L 809.2 179.0 L 805.4 184.3 L 801.8 189.8 L 798.1 195.2 L 794.5 200.7 L 791.0 206.2 L 787.5 211.7 L 784.0 217.3 L 780.6 222.9 L 777.2 228.5 L 773.9 234.1 L 770.6 239.8 L 767.3 245.5 L 764.1 251.2 L 760.9 256.9 L 757.8 262.7 L 754.7 268.4 L 754.7 268.4 L 751.6 274.2 L 748.6 280.0 L 745.7 285.9 L 742.8 291.8 L 740.0 297.7 L 737.2 303.6 L 734.4 309.6 L 731.7 315.5 L 729.0 321.5 L 726.3 327.5 L 723.6 333.5 L 721.0 339.5 L 718.3 345.5 L 715.6 351.5 L 712.9 357.4 L 710.2 363.4 L 710.2 363.4 L 707.5 369.4 L 704.8 375.4 L 702.1 381.3 L 699.4 387.3 L 696.8 393.3 L 694.1 399.3 L 691.4 405.3 L 688.8 411.3 L 686.1 417.2 L 683.4 423.2 L 680.8 429.2 L 678.2 435.2 L 675.5 441.2 L 672.9 447.2 L 670.3 453.3 L 667.6 459.3 L 667.6 459.3 L 665.0 465.3 L 662.4 471.3 L 659.8 477.3 L 657.1 483.3 L 654.5 489.3 L 651.9 495.3 L 649.3 501.3 L 646.7 507.3 L 644.1 513.3 L 641.5 519.4 L 638.9 525.4 L 636.3 531.4 L 633.8 537.5 L 631.2 543.5 L 628.7 549.5 L 626.1 555.6 L 626.1 555.6 L 623.6 561.6 L 621.1 567.7 L 618.6 573.7 L 616.1 579.8 L 613.6 585.9 L 611.1 591.9 L 608.6 598.0 L 606.1 604.1 L 603.7 610.1 L 601.2 616.2 L 598.8 622.3 L 596.4 628.4 L 594.0 634.5 L 591.6 640.6 L 589.2 646.7 L 586.9 652.8 L 586.9 652.8 L 584.6 659.0 L 582.3 665.1 L 580.0 671.2 L 577.7 677.4 L 575.5 683.6 L 573.3 689.7 L 571.1 695.9 L 568.9 702.1 L 566.7 708.3 L 564.6 714.5 L 562.4 720.6 L 560.2 726.8 L 558.0 733.0 L 555.9 739.2 L 553.7 745.4 L 551.5 751.6 L 551.5 751.6 L 549.3 757.7 L 547.1 763.9 L 545.0 770.1 L 542.8 776.3 L 540.6 782.5 L 538.5 788.7 L 536.3 794.9 L 534.2 801.1 L 532.0 807.2 L 529.9 813.4 L 527.7 819.6 L 525.5 825.8 L 523.4 832.0 L 521.2 838.2 L 519.0 844.4 L 516.8 850.5 L 516.8 850.5 L 514.6 856.7 L 512.4 862.9 L 510.2 869.0 L 507.9 875.2 L 505.7 881.4 L 503.4 887.5 L 501.2 893.7 L 499.0 899.9 L 496.7 906.0 L 494.5 912.2 L 492.2 918.3 L 490.0 924.5 L 487.7 930.6 L 485.5 936.8 L 483.2 943.0 L 481.0 949.1 L 481.0 949.1 L 478.8 955.3 L 476.5 961.4 L 474.3 967.6 L 472.1 973.8 L 469.8 979.9 L 467.6 986.1 L 465.3 992.2 L 463.1 998.4 L 462.5 1000.0" fill="none" stroke="#39ff88" stroke-width="6.0" stroke-opacity="0.9"/><path d="M 958.9 1000.0 L 960.3 995.6 L 962.7 988.9 L 965.3 982.2 L 968.0 975.6 L 971.0 969.0 L 974.1 962.5 L 977.3 956.0 L 980.6 949.6 L 984.1 943.2 L 987.6 936.8 L 991.2 930.5 L 994.8 924.3 L 998.5 918.0 L 1002.2 911.9 L 1002.2 911.9 L 1005.9 905.8 L 1009.8 899.8 L 1013.9 893.9 L 1018.0 888.0 L 1022.3 882.2 L 1026.7 876.5 L 1031.2 870.8 L 1035.7 865.1 L 1040.2 859.4 L 1044.8 853.8 L 1049.4 848.1 L 1053.9 842.5 L 1058.4 836.8 L 1062.9 831.1 L 1067.2 825.3 L 1071.5 819.5 L 1071.5 819.5 L 1075.7 813.6 L 1080.0 807.8 L 1084.2 801.9 L 1088.4 796.0 L 1092.7 790.2 L 1096.9 784.3 L 1101.1 778.4 L 1105.2 772.5 L 1109.4 766.6 L 1113.5 760.7 L 1117.6 754.7 L 1121.6 748.8 L 1125.7 742.8 L 1129.6 736.7 L 1133.6 730.7 L 1137.4 724.6 L 1137.4 724.6 L 1141.3 718.5 L 1145.0 712.3 L 1148.8 706.2 L 1152.4 699.9 L 1156.1 693.7 L 1159.7 687.4 L 1163.2 681.2 L 1166.8 674.9 L 1170.3 668.6 L 1173.8 662.2 L 1177.3 655.9 L 1180.8 649.6 L 1184.3 643.3 L 1187.8 637.0 L 1191.3 630.6 L 1194.8 624.3 L 1194.8 624.3 L 1198.3 618.0 L 1201.8 611.7 L 1205.3 605.4 L 1208.7 599.0 L 1212.1 592.7 L 1215.6 586.3 L 1219.0 579.9 L 1222.4 573.6 L 1225.8 567.2 L 1229.3 560.9 L 1232.7 554.5 L 1236.2 548.2 L 1239.7 541.9 L 1243.2 535.6 L 1246.7 529.3 L 1250.3 523.0 L 1250.3 523.0 L 1253.9 516.7 L 1257.5 510.4 L 1261.0 504.1 L 1264.5 497.8 L 1268.1 491.4 L 1271.6 485.1 L 1275.2 478.8 L 1278.8 472.5 L 1282.4 466.3 L 1286.1 460.1 L 1289.9 453.9 L 1293.7 447.8 L 1297.6 441.7 L 1301.6 435.7 L 1305.7 429.9 L 1309.9 424.0 L 1309.9 424.0 L 1314.2 418.3 L 1318.6 412.6 L 1323.0 406.9 L 1327.5 401.2 L 1332.1 395.6 L 1336.7 390.1 L 1341.4 384.6 L 1346.1 379.1 L 1350.9 373.8 L 1355.9 368.5 L 1360.8 363.3 L 1365.9 358.1 L 1371.0 353.1 L 1376.2 348.2 L 1381.5 343.3 L 1386.9 338.6 L 1386.9 338.6 L 1392.4 334.0 L 1398.0 329.6 L 1403.8 325.4 L 1409.7 321.3 L 1415.7 317.3 L 1421.8 313.4 L 1428.0 309.6 L 1434.2 305.8 L 1440.4 302.1 L 1446.6 298.3 L 1452.8 294.6 L 1459.0 290.8 L 1465.2 286.9 L 1471.3 283.0 L 1477.2 278.9 L 1483.1 274.8 L 1483.1 274.8 L 1489.0 270.5 L 1494.8 266.3 L 1500.6 262.0 L 1506.4 257.7 L 1512.2 253.3 L 1517.9 248.9 L 1523.6 244.5 L 1529.3 240.1 L 1535.0 235.6 L 1540.6 231.1 L 1546.2 226.6 L 1551.8 222.0 L 1557.3 217.3 L 1562.8 212.6 L 1568.2 207.9 L 1573.6 203.1 L 1573.6 203.1 L 1578.9 198.3 L 1584.2 193.3 L 1589.3 188.3 L 1594.5 183.2 L 1599.5 178.1 L 1604.5 172.9 L 1609.5 167.7 L 1614.5 162.4 L 1619.5 157.2 L 1624.4 151.9 L 1629.4 146.6 L 1634.4 141.4 L 1639.4 136.1 L 1644.4 131.0 L 1649.5 125.8 L 1654.6 120.7 L 1654.6 120.7 L 1659.7 115.7 L 1664.9 110.6 L 1670.0 105.5 L 1675.2 100.4 L 1680.3 95.4 L 1685.5 90.3 L 1690.7 85.3 L 1695.9 80.2 L 1701.1 75.2 L 1706.3 70.3 L 1711.6 65.3 L 1716.9 60.4 L 1722.2 55.5 L 1727.6 50.7 L 1733.0 45.9 L 1738.4 41.2 L 1738.4 41.2 L 1743.9 36.5 L 1749.3 31.7 L 1754.7 26.9 L 1760.2 22.0 L 1765.7 17.2 L 1771.2 12.4 L 1776.7 7.6 L 1782.3 2.9 L 1785.8 0.0" fill="none" stroke="#39ff88" stroke-width="6.0" stroke-opacity="0.9"/><path d="M 1514.8 0.0 L 1510.8 2.5 L 1510.8 2.5 L 1504.6 6.3 L 1498.5 10.1 L 1492.4 14.0 L 1486.3 17.8 L 1480.2 21.7 L 1474.2 25.7 L 1468.1 29.6 L 1462.1 33.6 L 1456.1 37.6 L 1450.0 41.5 L 1444.0 45.5 L 1438.0 49.5 L 1432.0 53.5 L 1425.9 57.5 L 1419.9 61.4 L 1413.9 65.4 L 1413.9 65.4 L 1407.8 69.3 L 1401.8 73.3 L 1395.7 77.2 L 1389.7 81.2 L 1383.6 85.2 L 1377.6 89.1 L 1371.6 93.1 L 1365.5 97.0 L 1359.5 101.0 L 1353.5 105.0 L 1347.4 109.0 L 1341.4 113.0 L 1335.4 116.9 L 1329.4 120.9 L 1323.4 124.9 L 1317.4 128.9 L 1317.4 128.9 L 1311.3 132.9 L 1305.3 136.9 L 1299.2 140.8 L 1293.2 144.7 L 1287.1 148.7 L 1281.0 152.6 L 1274.9 156.5 L 1268.8 160.4 L 1262.8 164.4 L 1256.8 168.4 L 1250.8 172.5 L 1244.9 176.6 L 1239.0 180.7 L 1233.2 185.0 L 1227.5 189.3 L 1221.8 193.8 L 1221.8 193.8 L 1216.2 198.3 L 1210.6 202.9 L 1205.1 207.6 L 1199.7 212.3 L 1194.3 217.1 L 1189.0 221.9 L 1183.7 226.8 L 1178.4 231.8 L 1173.2 236.8 L 1168.0 241.8 L 1162.8 246.8 L 1157.6 251.9 L 1152.5 257.0 L 1147.4 262.1 L 1142.2 267.2 L 1137.1 272.3 L 1137.1 272.3 L 1132.1 277.4 L 1127.0 282.5 L 1122.0 287.7 L 1117.0 293.0 L 1112.1 298.2 L 1107.1 303.5 L 1102.2 308.8 L 1097.3 314.1 L 1092.4 319.4 L 1087.6 324.8 L 1082.7 330.1 L 1077.9 335.5 L 1073.0 340.8 L 1068.1 346.2 L 1063.3 351.5 L 1058.4 356.8 L 1058.4 356.8 L 1053.4 362.3 L 1048.1 368.1 L 1042.7 374.1 L 1037.1 380.2 L 1031.5 386.4 L 1025.8 392.7 L 1020.2 398.9 L 1014.7 405.0 L 1009.4 410.9 L 1004.2 416.6 L 999.4 422.1 L 994.8 427.1 L 990.6 431.8 L 986.9 435.9 L 983.6 439.5 L 980.9 442.5" fill="none" stroke="#39ff88" stroke-width="6.0" stroke-opacity="0.9"/></g><g id="clips"><circle cx="833.6" cy="1000.0" r="2" fill="none" stroke="#0b5" stroke-width="0.6"/><circle cx="1202.8" cy="0.0" r="2" fill="none" stroke="#0b5" stroke-width="0.6"/><circle cx="942.1" cy="0.0" r="2" fill="none" stroke="#0b5" stroke-width="0.6"/><circle cx="462.5" cy="1000.0" r="2" fill="none" stroke="#0b5" stroke-width="0.6"/><circle cx="958.9" cy="1000.0" r="2" fill="none" stroke="#0b5" stroke-width="0.6"/><circle cx="1785.8" cy="0.0" r="2" fill="none" stroke="#0b5" stroke-width="0.6"/><circle cx="1514.8" cy="0.0" r="2" fill="none" stroke="#0b5" stroke-width="0.6"/><circle cx="980.9" cy="442.5" r="2" fill="none" stroke="#0b5" stroke-width="0.6"/></g><g id="power"><circle cx="462.5" cy="1000.0" r="5" fill="none" stroke="#e33" stroke-width="1"/><circle cx="833.6" cy="1000.0" r="5" fill="none" stroke="#e33" stroke-width="1"/><circle cx="958.9" cy="1000.0" r="5" fill="none" stroke="#e33" stroke-width="1"/><circle cx="942.1" cy="0.0" r="5" fill="none" stroke="#e33" stroke-width="1"/><circle cx="1202.8" cy="0.0" r="5" fill="none" stroke="#e33" stroke-width="1"/><circle cx="1514.8" cy="0.0" r="5" fill="none" stroke="#e33" stroke-width="1"/><circle cx="1785.8" cy="0.0" r="5" fill="none" stroke="#e33" stroke-width="1"/></g><g id="bridges"><circle cx="970.1" cy="446.7" r="9" fill="none" stroke="#e6a817" stroke-width="1.5"/><circle cx="972.4" cy="442.0" r="9" fill="none" stroke="#e6a817" stroke-width="1.5"/></g></svg>