<svg xmlns="http://www.w3.org/2000/svg" width="2000mm" height="1000mm" viewBox="0 0 2000 1000"><g id="outline"><rect x="0" y="0" width="2000" height="1000" fill="none" stroke="#000" stroke-width="1"/></g><g id="channels"><path d="M 2000.0 766.8 L 1999.1 765.8 L 1994.8 760.9 L 1990.5 756.0 L 1986.3 751.1 L 1982.1 746.2 L 1978.0 741.2 L 1973.9 736.2 L 1969.9 731.2 L 1965.9 726.1 L 1962.0 721.0 L 1958.2 715.8 L 1954.5 710.5 L 1954.5 710.5 L 1950.9 705.2 L 1947.3 699.9 L 1943.8 694.5 L 1940.4 689.0 L 1937.0 683.5 L 1933.7 677.9 L 1930.4 672.4 L 1927.2 666.8 L 1924.1 661.1 L 1920.9 655.4 L 1917.9 649.7 L 1914.8 644.0 L 1911.8 638.3 L 1908.9 632.6 L 1905.9 626.8 L 1903.0 621.1 L 1903.0 621.1 L 1900.1 615.3 L 1897.3 609.5 L 1894.6 603.7 L 1891.9 597.8 L 1889.2 591.9 L 1886.6 586.0 L 1884.0 580.1 L 1881.4 574.2 L 1878.9 568.2 L 1876.4 562.3 L 1873.9 556.3 L 1871.4 550.3 L 1869.0 544.3 L 1866.5 538.4 L 1864.1 532.4 L 1861.7 526.4 L 1861.7 526.4 L 1859.3 520.4 L 1856.9 514.4 L 1854.7 508.3 L 1852.4 502.3 L 1850.2 496.2 L 1848.1 490.1 L 1845.9 484.0 L 1843.7 477.9 L 1841.6 471.8 L 1839.4 465.7 L 1837.1 459.7 L 1834.8 453.6 L 1832.5 447.6 L 1830.1 441.6 L 1827.6 435.7 L 1825.1 429.8 L 1825.1 429.8 L 1822.4 423.9 L 1819.8 418.0 L 1817.1 412.1 L 1814.4 406.2 L 1811.7 400.3 L 1809.0 394.4 L 1806.2 388.6 L 1803.3 382.7 L 1800.4 377.0 L 1797.4 371.2 L 1794.4 365.5 L 1791.2 359.9 L 1788.0 354.3 L 1784.7 348.8 L 1781.3 343.4 L 1777.8 338.0 L 1777.8 338.0 L 1774.2 332.7 L 1770.5 327.4 L 1766.7 322.2 L 1762.9 317.1 L 1758.9 311.9 L 1754.9 306.9 L 1750.8 301.9 L 1746.7 296.9 L 1742.4 292.0 L 1738.1 287.2 L 1733.8 282.4 L 1729.3 277.7 L 1724.9 273.1 L 1720.3 268.5 L 1715.7 264.0 L 1711.1 259.6 L 1711.1 259.6 L 1706.3 255.2 L 1701.5 251.1 L 1696.5 247.0 L 1691.4 243.1 L 1686.2 239.2 L 1681.0 235.4 L 1675.7 231.7 L 1670.4 228.0 L 1665.1 224.3 L 1659.7 220.6 L 1654.4 216.9 L 1649.1 213.1 L 1643.8 209.3 L 1638.6 205.5 L 1633.5 201.6 L 1628.5 197.5 L 1628.5 197.5 L 1623.5 193.4 L 1618.5 189.4 L 1613.4 185.3 L 1608.4 181.2 L 1603.4 177.1 L 1598.4 173.0 L 1593.4 168.8 L 1588.5 164.6 L 1583.6 160.4 L 1578.8 156.1 L 1574.0 151.7 L 1569.4 147.2 L 1564.8 142.7 L 1560.4 138.1 L 1556.1 133.4 L 1551.9 128.5 L 1551.9 128.5 L 1547.9 123.6 L 1544.0 118.5 L 1540.2 113.4 L 1536.5 108.1 L 1532.9 102.8 L 1529.4 97.4 L 1525.9 91.9 L 1522.6 86.3 L 1519.3 80.8 L 1516.0 75.1 L 1512.8 69.5 L 1509.7 63.8 L 1506.5 58.1 L 1503.4 52.5 L 1500.3 46.8 L 1497.2 41.1 L 1497.2 41.1 L 1494.1 35.5 L 1491.2 29.8 L 1488.3 24.0 L 1485.4 18.2 L 1482.6 12.4 L 1479.9 6.5 L 1477.2 0.7 L 1476.9 0.0" fill="none" stroke="#00e5ff" stroke-width="6.0" stroke-opacity="0.9"/><path d="M 707.9 0.0 L 708.1 0.7 L 709.8 6.8 L 711.5 12.9 L 713.3 19.0 L 715.2 25.0 L 717.1 31.0 L 719.0 37.0 L 719.0 37.0 L 721.0 43.0 L 723.1 49.0 L 725.2 54.9 L 727.4 60.9 L 729.6 66.8 L 731.9 72.7 L 734.2 78.6 L 736.6 84.5 L 739.0 90.3 L 741.4 96.2 L 743.9 102.0 L 746.3 107.8 L 748.9 113.6 L 751.4 119.4 L 754.0 125.2 L 756.6 130.9 L 756.6 130.9 L 759.2 136.7 L 761.9 142.4 L 764.6 148.1 L 767.4 153.8 L 770.1 159.5 L 772.9 165.2 L 775.8 170.8 L 778.7 176.4 L 781.6 182.1 L 784.5 187.7 L 787.4 193.3 L 790.4 198.9 L 793.4 204.4 L 796.4 210.0 L 799.4 215.6 L 802.4 221.1 L 802.4 221.1 L 805.5 226.7 L 808.5 232.2 L 811.6 237.7 L 814.7 243.2 L 817.8 248.7 L 821.0 254.2 L 824.1 259.7 L 827.3 265.2 L 830.5 270.6 L 833.8 276.1 L 837.0 281.5 L 840.3 286.9 L 843.6 292.3 L 846.9 297.7 L 850.2 303.1 L 853.6 308.4 L 853.6 308.4 L 857.0 313.8 L 860.4 319.1 L 863.9 324.4 L 867.3 329.6 L 870.9 334.9 L 874.4 340.1 L 877.9 345.4 L 881.5 350.6 L 885.1 355.8 L 888.7 361.0 L 892.3 366.2 L 895.9 371.4 L 899.5 376.6 L 903.2 381.7 L 906.8 386.9 L 910.4 392.1 L 910.4 392.1 L 914.1 397.2 L 917.8 402.3 L 921.6 407.4 L 925.4 412.5 L 929.2 417.5 L 933.0 422.6 L 936.9 427.6 L 940.7 432.7 L 944.5 437.7 L 948.3 442.8 L 952.1 447.8 L 955.8 453.0 L 959.4 458.1 L 963.0 463.3 L 966.6 468.5 L 970.0 473.8 L 970.0 473.8 L 973.4 479.1 L 976.7 484.5 L 979.8 490.0 L 983.0 495.5 L 986.0 501.0 L 989.0 506.6 L 992.0 512.2 L 995.0 517.8 L 998.0 523.4 L 1000.9 529.0 L 1003.9 534.5 L 1007.0 540.1 L 1010.0 545.6 L 1013.1 551.1 L 1016.3 556.6 L 1019.6 562.0 L 1019.6 562.0 L 1022.9 567.4 L 1026.3 572.7 L 1029.6 578.1 L 1033.0 583.5 L 1036.4 588.8 L 1039.8 594.1 L 1043.2 599.4 L 1046.7 604.7 L 1050.2 610.0 L 1053.8 615.2 L 1057.4 620.4 L 1061.0 625.6 L 1064.8 630.7 L 1068.5 635.7 L 1072.3 640.8 L 1076.2 645.7 L 1076.2 645.7 L 1080.2 650.6 L 1084.2 655.5 L 1088.2 660.3 L 1092.4 665.1 L 1096.6 669.8 L 1100.8 674.5 L 1105.1 679.2 L 1109.4 683.8 L 1113.8 688.4 L 1118.2 693.0 L 1122.6 697.5 L 1127.0 702.1 L 1131.4 706.6 L 1135.9 711.1 L 1140.3 715.6 L 1144.8 720.0 L 1144.8 720.0 L 1149.3 724.5 L 1153.8 728.9 L 1158.3 733.3 L 1162.9 737.7 L 1167.5 742.1 L 1172.1 746.4 L 1176.7 750.7 L 1181.4 755.0 L 1186.0 759.3 L 1190.7 763.5 L 1195.4 767.8 L 1200.1 772.0 L 1204.8 776.3 L 1209.5 780.5 L 1214.1 784.8 L 1218.8 789.0 L 1218.8 789.0 L 1223.5 793.3 L 1228.3 797.4 L 1233.1 801.6 L 1237.9 805.7 L 1242.7 809.8 L 1247.5 813.9 L 1252.4 818.0 L 1257.2 822.1 L 1262.0 826.2 L 1266.8 830.4 L 1271.6 834.5 L 1276.3 838.8 L 1280.9 843.0 L 1285.5 847.4 L 1290.0 851.7 L 1294.5 856.2 L 1294.5 856.2 L 1298.9 860.7 L 1303.3 865.3 L 1307.7 869.8 L 1312.0 874.4 L 1316.4 879.1 L 1320.7 883.8 L 1324.9 888.5 L 1329.1 893.2 L 1333.3 898.0 L 1337.3 902.9 L 1341.3 907.8 L 1345.2 912.8 L 1348.9 917.8 L 1352.6 922.9 L 1356.1 928.1 L 1359.5 933.4 L 1359.5 933.4 L 1362.8 938.7 L 1365.9 944.1 L 1369.0 949.6 L 1371.9 955.2 L 1374.7 960.8 L 1377.5 966.5 L 1380.1 972.3 L 1382.7 978.1 L 1385.2 983.9 L 1387.6 989.8 L 1389.9 995.7 L 1391.6 1000.0" fill="none" stroke="#00e5ff" stroke-width="6.0" stroke-opacity="0.9"/><path d="M 1559.5 1000.0 L 1557.4 995.6 L 1554.5 989.6 L 1551.4 983.6 L 1548.2 977.7 L 1544.9 971.9 L 1541.5 966.1 L 1538.0 960.3 L 1534.4 954.7 L 1530.6 949.1 L 1526.8 943.7 L 1522.8 938.3 L 1518.7 933.0 L 1514.5 927.8 L 1510.2 922.8 L 1510.2 922.8 L 1505.7 917.9 L 1500.9 913.2 L 1495.9 908.7 L 1490.6 904.4 L 1485.2 900.2 L 1479.7 896.2 L 1474.0 892.1 L 1468.4 888.1 L 1462.7 884.2 L 1457.0 880.1 L 1451.4 876.1 L 1445.9 871.9 L 1440.6 867.6 L 1435.4 863.1 L 1430.4 858.5 L 1425.7 853.6 L 1425.7 853.6 L 1421.3 848.6 L 1416.9 843.4 L 1412.7 838.1 L 1408.5 832.7 L 1404.5 827.2 L 1400.6 821.6 L 1396.7 816.0 L 1393.0 810.2 L 1389.3 804.5 L 1385.6 798.6 L 1382.0 792.8 L 1378.5 786.9 L 1374.9 781.0 L 1371.4 775.1 L 1367.9 769.2 L 1364.4 763.4 L 1364.4 763.4 L 1361.0 757.5 L 1357.6 751.6 L 1354.2 745.6 L 1350.9 739.6 L 1347.7 733.6 L 1344.5 727.6 L 1341.4 721.5 L 1338.2 715.4 L 1335.1 709.3 L 1332.1 703.2 L 1329.0 697.0 L 1326.0 690.9 L 1322.9 684.8 L 1319.9 678.6 L 1316.9 672.5 L 1313.8 666.4 L 1313.8 666.4 L 1310.8 660.3 L 1307.7 654.2 L 1304.7 648.0 L 1301.7 641.9 L 1298.7 635.7 L 1295.7 629.6 L 1292.8 623.4 L 1289.8 617.2 L 1286.9 611.1 L 1284.0 604.9 L 1281.0 598.7 L 1278.1 592.5 L 1275.2 586.3 L 1272.3 580.1 L 1269.4 574.0 L 1266.6 567.8 L 1266.6 567.8 L 1263.7 561.5 L 1260.9 555.3 L 1258.2 549.0 L 1255.5 542.7 L 1252.9 536.4 L 1250.2 530.0 L 1247.6 523.7 L 1244.9 517.4 L 1242.2 511.1 L 1239.5 504.8 L 1236.7 498.6 L 1233.9 492.4 L 1230.9 486.2 L 1227.9 480.1 L 1224.8 474.0 L 1221.6 468.1 L 1221.6 468.1 L 1218.3 462.1 L 1214.9 456.2 L 1211.5 450.2 L 1208.1 444.3 L 1204.6 438.5 L 1201.0 432.6 L 1197.4 426.8 L 1193.7 421.1 L 1190.0 415.4 L 1186.1 409.7 L 1182.2 404.1 L 1178.2 398.6 L 1174.1 393.2 L 1170.0 387.8 L 1165.7 382.6 L 1161.3 377.4 L 1161.3 377.4 L 1156.8 372.4 L 1152.0 367.6 L 1147.0 362.9 L 1141.8 358.4 L 1136.5 354.0 L 1131.1 349.7 L 1125.7 345.4 L 1120.2 341.2 L 1114.8 336.9 L 1109.4 332.6 L 1104.0 328.2 L 1098.8 323.8 L 1093.8 319.2 L 1088.9 314.5 L 1084.2 309.6 L 1079.8 304.5 L 1079.8 304.5 L 1075.6 299.3 L 1071.6 293.9 L 1067.6 288.4 L 1063.7 282.8 L 1060.0 277.2 L 1056.3 271.4 L 1052.8 265.6 L 1049.3 259.7 L 1046.0 253.8 L 1042.8 247.7 L 1039.6 241.7 L 1036.5 235.6 L 1033.6 229.4 L 1030.7 223.3 L 1027.9 217.1 L 1025.2 210.9 L 1025.2 210.9 L 1022.6 204.6 L 1020.2 198.3 L 1017.9 191.9 L 1015.8 185.5 L 1013.7 178.9 L 1011.7 172.4 L 1009.9 165.8 L 1008.1 159.2 L 1006.3 152.5 L 1004.6 145.8 L 1003.0 139.2 L 1001.4 132.5 L 999.7 125.8 L 998.1 119.1 L 996.5 112.5 L 994.8 105.8 L 994.8 105.8 L 993.1 99.2 L 991.4 92.6 L 989.8 86.0 L 988.1 79.3 L 986.5 72.7 L 984.9 66.0 L 983.3 59.4 L 981.7 52.7 L 980.2 46.0 L 978.8 39.3 L 977.4 32.7 L 976.0 26.0 L 974.7 19.3 L 973.4 12.5 L 972.3 5.8 L 971.3 0.0" fill="none" stroke="#00e5ff" stroke-width="6.0" stroke-opacity="0.9"/><path d="M 1211.8 0.0 L 1213.2 2.1 L 1213.2 2.1 L 1217.0 7.7 L 1220.8 13.4 L 1224.7 19.1 L 1228.5 24.7 L 1232.4 30.3 L 1236.3 35.9 L 1240.2 41.6 L 1244.1 47.2 L 1248.1 52.7 L 1252.1 58.3 L 1256.1 63.8 L 1260.1 69.4 L 1264.1 74.9 L 1268.2 80.4 L 1272.2 85.9 L 1276.3 91.3 L 1276.3 91.3 L 1280.5 96.8 L 1284.7 102.2 L 1288.9 107.6 L 1293.1 112.9 L 1297.4 118.2 L 1301.7 123.6 L 1306.0 128.9 L 1310.3 134.2 L 1314.7 139.4 L 1319.0 144.7 L 1323.4 150.0 L 1327.7 155.3 L 1332.0 160.6 L 1336.3 165.9 L 1340.6 171.2 L 1344.9 176.5 L 1344.9 176.5 L 1349.2 181.9 L 1353.5 187.2 L 1357.7 192.6 L 1362.0 197.9 L 1366.3 203.2 L 1370.6 208.5 L 1374.9 213.9 L 1379.1 219.2 L 1383.4 224.6 L 1387.6 229.9 L 1391.9 235.3 L 1396.1 240.7 L 1400.3 246.1 L 1404.5 251.5 L 1408.7 256.9 L 1412.8 262.3 L 1412.8 262.3 L 1416.9 267.8 L 1421.0 273.2 L 1425.1 278.7 L 1429.2 284.2 L 1433.3 289.7 L 1437.4 295.2 L 1441.4 300.7 L 1445.4 306.2 L 1449.4 311.7 L 1453.4 317.3 L 1457.4 322.8 L 1461.4 328.4 L 1465.3 334.0 L 1469.2 339.6 L 1473.1 345.3 L 1476.9 350.9 L 1476.9 350.9 L 1480.7 356.6 L 1484.4 362.3 L 1488.1 368.1 L 1491.7 374.0 L 1495.2 379.8 L 1498.7 385.7 L 1502.3 391.6 L 1505.8 397.5 L 1509.3 403.4 L 1512.9 409.2 L 1516.5 415.0 L 1520.1 420.8 L 1523.9 426.5 L 1527.7 432.1 L 1531.6 437.7 L 1535.6 443.2 L 1535.6 443.2 L 1539.8 448.6 L 1543.9 454.0 L 1548.1 459.4 L 1552.4 464.7 L 1556.7 470.0 L 1561.1 475.2 L 1565.5 480.4 L 1570.0 485.6 L 1574.5 490.7 L 1579.1 495.8 L 1583.8 500.7 L 1588.5 505.7 L 1593.3 510.5 L 1598.1 515.3 L 1603.0 520.0 L 1608.0 524.6 L 1608.0 524.6 L 1613.0 529.1 L 1618.3 533.5 L 1623.6 537.7 L 1629.0 541.9 L 1634.6 545.9 L 1640.1 549.9 L 1645.8 553.8 L 1651.4 557.7 L 1657.1 561.5 L 1662.8 565.4 L 1668.4 569.3 L 1674.0 573.3 L 1679.6 577.3 L 1685.1 581.4 L 1690.4 585.6 L 1695.7 589.9 L 1695.7 589.9 L 1700.9 594.3 L 1706.1 598.8 L 1711.4 603.2 L 1716.7 607.6 L 1721.9 612.1 L 1727.1 616.6 L 1732.3 621.1 L 1737.4 625.7 L 1742.4 630.4 L 1747.4 635.1 L 1752.2 640.0 L 1756.9 644.9 L 1761.5 649.9 L 1765.9 655.0 L 1770.1 660.2 L 1774.2 665.6 L 1774.2 665.6 L 1778.0 671.1 L 1781.7 676.7 L 1785.2 682.5 L 1788.5 688.4 L 1791.7 694.4 L 1794.7 700.4 L 1797.7 706.6 L 1800.6 712.8 L 1803.3 719.1 L 1806.1 725.4 L 1808.8 731.7 L 1811.5 738.1 L 1814.2 744.4 L 1816.9 750.7 L 1819.6 757.0 L 1822.4 763.2 L 1822.4 763.2 L 1825.1 769.5 L 1827.7 775.8 L 1830.1 782.3 L 1832.5 788.7 L 1834.8 795.3 L 1837.0 801.8 L 1839.3 808.3 L 1841.6 814.9 L 1843.9 821.3 L 1846.3 827.7 L 1848.9 834.1 L 1851.5 840.3 L 1854.4 846.4 L 1857.5 852.4 L 1860.8 858.2 L 1864.4 863.9 L 1864.4 863.9 L 1868.2 869.3 L 1872.4 874.6 L 1876.7 879.7 L 1881.3 884.7 L 1886.1 889.5 L 1891.0 894.2 L 1896.0 898.9 L 1901.1 903.5 L 1906.3 908.1 L 1911.5 912.6 L 1916.7 917.2 L 1921.8 921.8 L 1926.9 926.4 L 1931.9 931.1 L 1936.8 935.9 L 1941.6 940.8 L 1941.6 940.8 L 1946.2 945.8 L 1950.8 950.8 L 1955.3 955.9 L 1959.9 961.0 L 1964.4 966.1 L 1968.9 971.2 L 1973.3 976.4 L 1977.8 981.6 L 1982.2 986.8 L 1986.6 991.9 L 1991.1 997.1 L 1993.6 1000.0" fill="none" stroke="#00e5ff" stroke-width="6.0" stroke-opacity="0.9"/></g><g id="clips"><circle cx="2000.0" cy="766.8" r="2" fill="none" stroke="#0b5" stroke-width="0.6"/><circle cx="1476.9" cy="0.0" r="2" fill="none" stroke="#0b5" stroke-width="0.6"/><circle cx="707.9" cy="0.0" r="2" fill="none" stroke="#0b5" stroke-width="0.6"/><circle cx="1391.6" cy="1000.0" r="2" fill="none" stroke="#0b5" stroke-width="0.6"/><circle cx="1559.5" cy="1000.0" r="2" fill="none" stroke="#0b5" stroke-width="0.6"/><circle cx="971.3" cy="0.0" r="2" fill="none" stroke="#0b5" stroke-width="0.6"/><circle cx="1211.8" cy="0.0" r="2" fill="none" stroke="#0b5" stroke-width="0.6"/><circle cx="1993.6" cy="1000.0" r="2" fill="none" stroke="#0b5" stroke-width="0.6"/></g><g id="power"><circle cx="2000.0" cy="766.8" r="5" fill="none" stroke="#e33" stroke-width="1"/><circle cx="1476.9" cy="0.0" r="5" fill="none" stroke="#e33" stroke-width="1"/><circle cx="707.9" cy="0.0" r="5" fill="none" stroke="#e33" stroke-width="1"/><circle cx="1391.6" cy="1000.0" r="5" fill="none" stroke="#e33" stroke-width="1"/><circle cx="1559.5" cy="1000.0" r="5" fill="none" stroke="#e33" stroke-width="1"/><circle cx="971.3" cy="0.0" r="5" fill="none" stroke="#e33" stroke-width="1"/><circle cx="1211.8" cy="0.0" r="5" fill="none" stroke="#e33" stroke-width="1"/><circle cx="1993.5" cy="1000.0" r="5" fill="none" stroke="#e33" stroke-width="1"/></g></svg>