<svg xmlns="http://www.w3.org/2000/svg" width="2000mm" height="1000mm" viewBox="0 0 2000 1000"><g id="outline"><rect x="0" y="0" width="2000" height="1000" fill="none" stroke="#000" stroke-width="1"/></g><g id="channels"><path d="M 1644.1 1000.0 L 1644.2 997.9 L 1644.6 991.2 L 1645.0 984.5 L 1645.4 977.9 L 1645.9 971.2 L 1646.3 964.5 L 1646.7 957.9 L 1646.7 957.9 L 1647.0 951.2 L 1647.4 944.6 L 1647.9 938.0 L 1648.4 931.3 L 1648.9 924.7 L 1649.4 918.1 L 1650.0 911.5 L 1650.6 904.8 L 1651.2 898.2 L 1651.9 891.6 L 1652.5 885.0 L 1653.2 878.3 L 1653.8 871.7 L 1654.5 865.1 L 1655.2 858.5 L 1655.8 851.9 L 1655.8 851.9 L 1656.5 845.2 L 1657.2 838.6 L 1657.9 832.0 L 1658.6 825.4 L 1659.4 818.8 L 1660.1 812.2 L 1660.9 805.6 L 1661.7 799.0 L 1662.4 792.4 L 1663.2 785.8 L 1664.0 779.2 L 1664.8 772.6 L 1665.6 765.9 L 1666.3 759.3 L 1667.1 752.7 L 1667.9 746.1 L 1667.9 746.1 L 1668.6 739.5 L 1669.5 732.9 L 1670.4 726.3 L 1671.3 719.7 L 1672.2 713.1 L 1673.1 706.5 L 1674.0 699.9 L 1674.9 693.3 L 1675.8 686.7 L 1676.6 680.1 L 1677.4 673.5 L 1678.0 666.9 L 1678.7 660.3 L 1679.2 653.6 L 1679.6 647.0 L 1679.9 640.4 L 1679.9 640.4 L 1680.1 633.8 L 1680.2 627.2 L 1680.2 620.5 L 1680.2 613.9 L 1680.1 607.3 L 1679.9 600.6 L 1679.6 594.0 L 1679.3 587.3 L 1678.9 580.7 L 1678.5 574.1 L 1678.1 567.4 L 1677.6 560.8 L 1677.1 554.2 L 1676.6 547.5 L 1676.1 540.9 L 1675.5 534.3 L 1675.5 534.3 L 1674.9 527.7 L 1674.2 521.1 L 1673.3 514.5 L 1672.4 507.9 L 1671.4 501.3 L 1670.4 494.7 L 1669.4 488.1 L 1668.4 481.5 L 1667.3 474.9 L 1666.3 468.3 L 1665.4 461.7 L 1664.5 455.2 L 1663.8 448.6 L 1663.1 442.0 L 1662.6 435.4 L 1662.2 428.7 L 1662.2 428.7 L 1661.8 421.9 L 1661.5 414.8 L 1661.2 407.3 L 1660.9 399.7 L 1660.7 392.0 L 1660.5 384.3 L 1660.4 376.6 L 1660.4 369.0 L 1660.5 361.7 L 1660.7 354.6 L 1661.1 347.9 L 1661.6 341.6 L 1662.3 335.9 L 1663.2 330.8 L 1664.3 326.3 L 1665.6 322.7 L 1665.6 322.7 L 1667.2 319.9 L 1669.0 318.2 L 1671.1 317.4 L 1673.4 317.2 L 1675.9 317.7 L 1678.5 318.7 L 1681.3 319.9 L 1684.2 321.4 L 1687.2 322.9 L 1690.2 324.4 L 1693.2 325.7 L 1696.3 326.6 L 1699.3 327.0 L 1702.3 326.8 L 1705.2 325.9 L 1708.0 324.2 L 1708.0 324.2 L 1710.8 321.4 L 1713.7 317.8 L 1716.7 313.4 L 1719.7 308.4 L 1722.8 302.9 L 1726.0 297.1 L 1729.1 291.1 L 1732.2 285.0 L 1735.2 278.9 L 1738.1 273.1 L 1741.0 267.7 L 1743.8 262.7 L 1746.4 258.3 L 1748.8 254.6 L 1751.0 251.9 L 1753.1 250.2 L 1753.1 250.2 L 1754.8 249.5 L 1756.3 249.9 L 1757.6 251.2 L 1758.7 253.2 L 1759.6 255.9 L 1760.3 259.0 L 1761.0 262.4 L 1761.7 266.1 L 1762.3 269.8 L 1762.9 273.5 L 1763.7 276.9 L 1764.5 280.1 L 1765.4 282.8 L 1766.6 284.9 L 1767.9 286.2 L 1769.5 286.7 L 1769.5 286.7 L 1771.4 286.3 L 1773.5 285.0 L 1775.8 283.0 L 1778.3 280.5 L 1780.9 277.6 L 1783.6 274.3 L 1786.3 270.8 L 1789.1 267.2 L 1791.9 263.6 L 1794.7 260.3 L 1797.4 257.2 L 1800.0 254.6 L 1802.5 252.4 L 1804.8 251.0 L 1806.9 250.3 L 1808.8 250.6 L 1808.8 250.6 L 1810.4 251.8 L 1811.8 253.8 L 1813.1 256.5 L 1814.2 259.9 L 1815.2 263.8 L 1816.2 268.1 L 1817.0 272.7 L 1817.8 277.6 L 1818.6 282.5 L 1819.3 287.3 L 1820.2 292.1 L 1821.0 296.6 L 1822.0 300.8 L 1823.0 304.6 L 1824.2 307.8 L 1825.6 310.4 L 1825.6 310.4 L 1827.2 312.2 L 1829.0 313.4 L 1831.0 314.2 L 1833.1 314.4 L 1835.3 314.4 L 1837.6 314.1 L 1839.9 313.8 L 1842.2 313.3 L 1844.4 313.0 L 1846.6 312.8 L 1848.6 312.9 L 1850.4 313.3 L 1852.1 314.3 L 1853.4 315.7 L 1854.5 317.9 L 1855.2 320.8 L 1855.2 320.8 L 1855.6 324.5 L 1855.7 328.8 L 1855.6 333.8 L 1855.2 339.3 L 1854.6 345.3 L 1853.8 351.6 L 1852.9 358.2 L 1851.9 365.0 L 1850.8 371.8 L 1849.7 378.8 L 1848.5 385.6 L 1847.4 392.4 L 1846.3 398.9 L 1845.3 405.1 L 1844.4 411.0 L 1843.6 416.3 L 1843.6 416.3 L 1843.0 421.3 L 1842.5 426.0 L 1842.2 430.5 L 1841.9 434.8 L 1841.7 439.0 L 1841.5 443.0 L 1841.3 447.0 L 1841.0 450.9 L 1840.7 454.8 L 1840.2 458.7 L 1839.6 462.6 L 1838.8 466.7 L 1837.7 470.9 L 1836.4 475.2 L 1834.8 479.7 L 1832.8 484.5 L 1832.8 484.5 L 1830.4 489.4 L 1827.6 494.5 L 1824.3 499.6 L 1820.7 504.8 L 1816.9 510.1 L 1812.8 515.5 L 1808.6 520.9 L 1804.3 526.4 L 1800.0 532.0 L 1795.8 537.7 L 1791.7 543.4 L 1787.9 549.2 L 1784.2 555.1 L 1781.0 561.0 L 1778.1 567.0 L 1775.7 573.0 L 1775.7 573.0 L 1773.7 579.1 L 1772.0 585.4 L 1770.6 591.7 L 1769.3 598.2 L 1768.3 604.7 L 1767.5 611.3 L 1766.9 617.9 L 1766.3 624.6 L 1765.9 631.3 L 1765.6 638.0 L 1765.4 644.8 L 1765.2 651.6 L 1765.0 658.3 L 1764.8 665.0 L 1764.6 671.7 L 1764.4 678.4 L 1764.4 678.4 L 1764.2 685.0 L 1764.0 691.6 L 1763.9 698.3 L 1763.9 704.9 L 1764.0 711.5 L 1764.1 718.2 L 1764.2 724.9 L 1764.4 731.5 L 1764.7 738.2 L 1764.9 744.8 L 1765.2 751.5 L 1765.5 758.2 L 1765.8 764.8 L 1766.1 771.5 L 1766.4 778.1 L 1766.7 784.8 L 1766.7 784.8 L 1767.0 791.4 L 1767.2 798.0 L 1767.5 804.7 L 1767.8 811.3 L 1768.1 818.0 L 1768.4 824.6 L 1768.8 831.3 L 1769.1 837.9 L 1769.5 844.6 L 1769.9 851.2 L 1770.4 857.8 L 1770.9 864.5 L 1771.4 871.1 L 1771.9 877.7 L 1772.5 884.3 L 1773.2 890.9 L 1773.2 890.9 L 1773.8 897.6 L 1774.4 904.2 L 1775.0 910.9 L 1775.6 917.6 L 1776.2 924.3 L 1776.8 931.0 L 1777.4 937.7 L 1778.2 944.4 L 1779.0 951.0 L 1779.8 957.7 L 1780.9 964.2 L 1782.0 970.8 L 1783.3 977.3 L 1784.7 983.7 L 1786.4 990.0 L 1788.2 996.2 L 1788.2 996.2 L 1789.4 1000.0" fill="none" stroke="#ffd23d" stroke-width="6.0" stroke-opacity="0.9"/></g><g id="clips"><circle cx="1644.1" cy="1000.0" r="2" fill="none" stroke="#0b5" stroke-width="0.6"/><circle cx="1789.4" cy="1000.0" r="2" fill="none" stroke="#0b5" stroke-width="0.6"/></g><g id="power"><circle cx="1644.1" cy="1000.0" r="5" fill="none" stroke="#e33" stroke-width="1"/><circle cx="1789.4" cy="1000.0" r="5" fill="none" stroke="#e33" stroke-width="1"/></g></svg>