<svg xmlns="http://www.w3.org/2000/svg" width="500mm" height="1000mm" viewBox="0 0 500 1000"><g id="outline"><rect x="0" y="0" width="500" height="1000" fill="none" stroke="#000" stroke-width="1"/></g><g id="channels"><path d="M 0.0 492.9 L 0.0 492.9 L 3.0 498.8 L 3.0 498.8 L 6.0 504.7 L 8.9 510.7 L 11.8 516.7 L 14.7 522.7 L 17.5 528.7 L 20.3 534.7 L 23.1 540.8 L 25.9 546.8 L 28.6 552.9 L 31.4 558.9 L 34.1 565.0 L 36.8 571.1 L 39.5 577.2 L 42.2 583.2 L 44.9 589.3 L 47.6 595.4 L 47.6 595.4 L 50.3 601.5 L 53.0 607.6 L 55.6 613.7 L 58.2 619.8 L 60.8 625.9 L 63.3 632.1 L 65.9 638.2 L 68.5 644.3 L 71.1 650.5 L 73.6 656.6 L 76.2 662.7 L 78.9 668.8 L 81.5 674.9 L 84.2 681.0 L 87.0 687.0 L 89.8 693.1 L 89.8 693.1 L 92.6 699.1 L 95.5 705.1 L 98.5 711.0 L 101.5 716.9 L 104.5 722.9 L 107.6 728.8 L 110.7 734.7 L 113.8 740.6 L 116.9 746.4 L 120.0 752.3 L 123.0 758.2 L 126.1 764.1 L 129.1 770.1 L 132.1 776.0 L 135.0 782.0 L 137.9 788.0 L 137.9 788.0 L 140.8 794.0 L 143.7 800.0 L 146.5 806.0 L 149.4 812.0 L 152.2 818.0 L 155.1 824.0 L 157.9 830.1 L 160.7 836.1 L 163.4 842.2 L 166.1 848.3 L 168.8 854.4 L 171.4 860.5 L 173.9 866.6 L 176.4 872.8 L 178.8 879.0 L 181.1 885.2 L 181.1 885.2 L 183.3 891.4 L 185.5 897.7 L 187.7 904.0 L 189.8 910.3 L 191.8 916.6 L 193.8 923.0 L 195.7 929.3 L 197.6 935.7 L 199.4 942.1 L 201.2 948.6 L 202.9 955.0 L 204.6 961.4 L 206.2 967.9 L 207.8 974.3 L 209.3 980.8 L 210.8 987.3 L 210.8 987.3 L 212.2 993.8 L 213.4 1000.0" fill="none" stroke="#ffd23d" stroke-width="6.0" stroke-opacity="0.9"/></g><g id="clips"><circle cx="0.0" cy="492.9" r="2" fill="none" stroke="#0b5" stroke-width="0.6"/><circle cx="213.4" cy="1000.0" r="2" fill="none" stroke="#0b5" stroke-width="0.6"/></g><g id="power"><circle cx="0.0" cy="492.8" r="5" fill="none" stroke="#e33" stroke-width="1"/><circle cx="213.4" cy="1000.0" r="5" fill="none" stroke="#e33" stroke-width="1"/></g><g id="bridges"></g></svg>