<svg xmlns="http://www.w3.org/2000/svg" width="2000mm" height="1000mm" viewBox="0 0 2000 1000"><g id="outline"><rect x="0" y="0" width="2000" height="1000" fill="none" stroke="#000" stroke-width="1"/></g><g id="channels"><path d="M 56.1 1000.0 L 54.7 997.8 L 54.7 997.8 L 51.4 992.1 L 48.2 986.4 L 45.1 980.5 L 42.1 974.4 L 39.2 968.3 L 36.5 962.1 L 33.9 955.8 L 31.5 949.4 L 29.3 943.0 L 27.4 936.6 L 25.7 930.2 L 24.3 923.7 L 23.2 917.3 L 22.3 911.0 L 21.9 904.7 L 21.7 898.4 L 21.7 898.4 L 21.9 892.2 L 22.5 885.8 L 23.3 879.4 L 24.4 872.8 L 25.8 866.3 L 27.5 859.7 L 29.4 853.1 L 31.6 846.6 L 34.0 840.2 L 36.6 833.9 L 39.4 827.7 L 42.4 821.7 L 45.7 815.9 L 49.1 810.3 L 52.6 805.0 L 56.4 799.9 L 56.4 799.9 L 60.3 795.1 L 64.6 790.2 L 69.2 785.5 L 74.0 780.9 L 79.0 776.4 L 84.3 772.1 L 89.8 768.0 L 95.4 764.0 L 101.2 760.2 L 107.0 756.7 L 113.0 753.4 L 119.0 750.4 L 125.1 747.7 L 131.1 745.3 L 137.1 743.2 L 143.1 741.4 L 143.1 741.4 L 149.2 740.1 L 155.4 739.1 L 161.7 738.4 L 168.1 738.0 L 174.6 737.9 L 181.2 738.1 L 187.9 738.6 L 194.6 739.2 L 201.3 740.1 L 208.0 741.1 L 214.7 742.4 L 221.3 743.7 L 227.9 745.2 L 234.4 746.7 L 240.8 748.4 L 247.1 750.1 L 247.1 750.1 L 253.4 751.9 L 259.6 753.9 L 265.8 756.1 L 272.1 758.4 L 278.3 760.9 L 284.4 763.6 L 290.5 766.4 L 296.6 769.3 L 302.6 772.3 L 308.6 775.5 L 314.5 778.8 L 320.3 782.2 L 326.1 785.6 L 331.8 789.2 L 337.3 792.8 L 342.8 796.4 L 342.8 796.4 L 348.2 800.2 L 353.6 804.0 L 359.1 808.0 L 364.4 812.0 L 369.8 816.2 L 375.0 820.5 L 380.2 824.8 L 385.3 829.3 L 390.3 833.8 L 395.1 838.5 L 399.8 843.2 L 404.4 848.1 L 408.7 853.1 L 412.8 858.1 L 416.8 863.3 L 420.5 868.5 L 420.5 868.5 L 423.9 873.9 L 427.1 879.5 L 430.0 885.2 L 432.8 891.1 L 435.3 897.1 L 437.7 903.2 L 439.9 909.4 L 442.1 915.6 L 444.1 921.9 L 446.0 928.3 L 447.9 934.6 L 449.7 941.0 L 451.5 947.4 L 453.4 953.8 L 455.3 960.1 L 457.2 966.3 L 457.2 966.3 L 459.0 972.8 L 460.7 979.7 L 462.1 987.0 L 463.5 994.5 L 464.4 1000.0" fill="none" stroke="#ffd23d" stroke-width="6.0" stroke-opacity="0.9"/><path d="M 552.2 1000.0 L 552.0 998.0 L 551.1 990.9 L 550.0 983.6 L 548.8 976.2 L 547.5 968.8 L 546.3 961.4 L 545.2 954.0 L 544.2 946.8 L 543.3 939.8 L 542.7 933.0 L 542.7 933.0 L 542.2 926.4 L 541.7 919.8 L 541.2 913.2 L 540.6 906.5 L 540.1 899.9 L 539.5 893.3 L 538.9 886.7 L 538.4 880.0 L 537.8 873.4 L 537.3 866.8 L 536.8 860.2 L 536.3 853.5 L 535.9 846.9 L 535.6 840.3 L 535.2 833.6 L 535.0 827.0 L 535.0 827.0 L 534.8 820.3 L 534.7 813.7 L 534.7 807.0 L 534.7 800.4 L 534.8 793.7 L 534.9 787.1 L 535.1 780.4 L 535.2 773.8 L 535.4 767.1 L 535.5 760.5 L 535.6 753.8 L 535.7 747.1 L 535.8 740.5 L 535.8 733.8 L 535.7 727.2 L 535.5 720.6 L 535.5 720.6 L 535.3 713.9 L 535.2 707.3 L 535.0 700.6 L 534.9 693.9 L 534.7 687.2 L 534.6 680.5 L 534.4 673.8 L 534.1 667.1 L 533.7 660.5 L 533.3 653.8 L 532.8 647.2 L 532.2 640.6 L 531.4 634.0 L 530.5 627.5 L 529.5 621.0 L 528.2 614.5 L 528.2 614.5 L 526.9 608.1 L 525.4 601.7 L 523.7 595.3 L 522.0 588.9 L 520.1 582.5 L 518.2 576.1 L 516.1 569.8 L 513.9 563.5 L 511.7 557.2 L 509.3 551.0 L 506.9 544.8 L 504.3 538.6 L 501.7 532.5 L 499.0 526.5 L 496.2 520.4 L 493.4 514.5 L 493.4 514.5 L 490.5 508.6 L 487.4 502.8 L 484.1 497.0 L 480.8 491.3 L 477.3 485.6 L 473.8 480.0 L 470.1 474.4 L 466.5 468.8 L 462.7 463.3 L 459.0 457.8 L 455.2 452.3 L 451.4 446.8 L 447.6 441.3 L 443.8 435.7 L 440.1 430.2 L 436.5 424.6 L 436.5 424.6 L 432.8 419.1 L 429.2 413.5 L 425.5 408.0 L 421.7 402.5 L 418.0 397.0 L 414.3 391.5 L 410.5 386.0 L 406.8 380.5 L 403.0 375.0 L 399.3 369.5 L 395.6 364.0 L 391.9 358.4 L 388.2 352.9 L 384.6 347.3 L 381.0 341.7 L 377.5 336.1 L 377.5 336.1 L 374.0 330.5 L 370.5 324.8 L 367.0 319.1 L 363.6 313.4 L 360.2 307.7 L 356.8 302.0 L 353.4 296.3 L 350.0 290.5 L 346.7 284.8 L 343.4 279.0 L 340.1 273.2 L 336.8 267.4 L 333.6 261.6 L 330.3 255.8 L 327.1 250.0 L 323.9 244.2 L 323.9 244.2 L 320.7 238.3 L 317.6 232.4 L 314.7 226.4 L 311.7 220.4 L 308.8 214.4 L 306.0 208.3 L 303.1 202.3 L 300.2 196.2 L 297.3 190.2 L 294.4 184.2 L 291.4 178.3 L 288.3 172.4 L 285.1 166.6 L 281.8 160.9 L 278.3 155.3 L 274.7 149.8 L 274.7 149.8 L 271.0 144.3 L 267.3 138.8 L 263.5 133.2 L 259.7 127.5 L 255.9 121.9 L 251.9 116.4 L 247.9 110.9 L 243.8 105.5 L 239.5 100.3 L 235.2 95.2 L 230.7 90.4 L 226.1 85.8 L 221.3 81.5 L 216.4 77.4 L 211.3 73.7 L 206.0 70.4 L 206.0 70.4 L 200.3 67.6 L 194.1 65.4 L 187.3 63.6 L 180.3 62.3 L 172.9 61.3 L 165.4 60.6 L 157.8 60.0 L 150.2 59.5 L 142.8 59.1 L 135.6 58.6 L 128.7 57.9 L 122.3 57.1 L 116.3 55.9 L 111.0 54.4 L 106.4 52.4 L 102.7 49.8 L 102.7 49.8 L 99.8 46.8 L 97.9 43.5 L 96.8 39.8 L 96.3 35.8 L 96.5 31.7 L 97.0 27.3 L 97.8 22.7 L 98.9 18.0 L 100.0 13.2 L 101.0 8.4 L 101.9 3.5 L 102.3 0.0" fill="none" stroke="#ffd23d" stroke-width="6.0" stroke-opacity="0.9"/><path d="M 317.0 0.0 L 320.0 5.6 L 323.1 11.4 L 326.3 17.3 L 329.5 23.1 L 332.7 29.0 L 336.0 34.8 L 339.3 40.5 L 342.6 46.3 L 346.1 52.0 L 349.5 57.6 L 353.1 63.2 L 353.1 63.2 L 356.7 68.8 L 360.4 74.3 L 364.2 79.8 L 368.0 85.2 L 371.8 90.7 L 375.7 96.1 L 379.6 101.4 L 383.5 106.8 L 387.5 112.1 L 391.5 117.4 L 395.6 122.7 L 399.7 128.0 L 403.7 133.2 L 407.8 138.5 L 411.9 143.7 L 416.0 148.9 L 416.0 148.9 L 420.2 154.1 L 424.3 159.3 L 428.5 164.5 L 432.7 169.6 L 437.0 174.8 L 441.2 179.9 L 445.5 184.9 L 449.8 190.0 L 454.1 195.1 L 458.5 200.1 L 462.8 205.2 L 467.2 210.2 L 471.5 215.2 L 475.9 220.3 L 480.2 225.3 L 484.6 230.3 L 484.6 230.3 L 488.9 235.4 L 493.3 240.3 L 497.8 245.3 L 502.2 250.2 L 506.7 255.2 L 511.2 260.1 L 515.7 265.0 L 520.2 269.9 L 524.7 274.8 L 529.1 279.8 L 533.6 284.7 L 538.0 289.7 L 542.4 294.7 L 546.7 299.8 L 550.9 304.8 L 555.1 310.0 L 555.1 310.0 L 559.3 315.2 L 563.5 320.3 L 567.6 325.5 L 571.7 330.8 L 575.8 336.0 L 579.9 341.3 L 583.9 346.6 L 587.9 351.9 L 591.9 357.2 L 595.8 362.6 L 599.7 368.0 L 603.5 373.5 L 607.2 379.0 L 610.9 384.5 L 614.6 390.0 L 618.1 395.6 L 618.1 395.6 L 621.6 401.2 L 625.1 406.9 L 628.5 412.6 L 631.8 418.4 L 635.1 424.2 L 638.3 430.0 L 641.5 435.8 L 644.7 441.7 L 647.8 447.6 L 650.8 453.5 L 653.8 459.5 L 656.7 465.5 L 659.6 471.5 L 662.5 477.5 L 665.3 483.5 L 668.1 489.5 L 668.1 489.5 L 670.8 495.6 L 673.5 501.6 L 676.2 507.7 L 678.9 513.8 L 681.6 520.0 L 684.2 526.1 L 686.8 532.3 L 689.3 538.5 L 691.7 544.7 L 694.0 550.9 L 696.3 557.2 L 698.4 563.4 L 700.5 569.8 L 702.4 576.1 L 704.2 582.4 L 705.8 588.8 L 705.8 588.8 L 707.3 595.3 L 708.5 601.7 L 709.7 608.2 L 710.7 614.8 L 711.6 621.3 L 712.3 627.9 L 713.0 634.5 L 713.6 641.2 L 714.2 647.8 L 714.7 654.5 L 715.2 661.1 L 715.7 667.8 L 716.2 674.4 L 716.7 681.1 L 717.3 687.7 L 717.9 694.3 L 717.9 694.3 L 718.5 700.9 L 719.1 707.5 L 719.7 714.2 L 720.2 720.8 L 720.7 727.4 L 721.1 734.1 L 721.6 740.7 L 722.1 747.3 L 722.6 754.0 L 723.1 760.6 L 723.6 767.2 L 724.2 773.8 L 724.9 780.4 L 725.6 787.0 L 726.5 793.6 L 727.4 800.2 L 727.4 800.2 L 728.4 806.8 L 729.5 813.3 L 730.7 819.8 L 732.0 826.4 L 733.3 832.9 L 734.7 839.4 L 736.2 845.9 L 737.6 852.4 L 739.1 858.9 L 740.6 865.4 L 742.0 871.9 L 743.5 878.4 L 744.8 884.9 L 746.2 891.4 L 747.4 897.9 L 748.6 904.5 L 748.6 904.5 L 749.7 911.0 L 750.8 917.6 L 751.8 924.2 L 752.7 930.8 L 753.6 937.4 L 754.5 943.9 L 755.3 950.5 L 756.2 957.2 L 757.0 963.8 L 757.9 970.3 L 758.8 976.9 L 759.7 983.5 L 760.7 990.1 L 761.7 996.7 L 762.3 1000.0" fill="none" stroke="#ffd23d" stroke-width="6.0" stroke-opacity="0.9"/></g><g id="clips"><circle cx="56.1" cy="1000.0" r="2" fill="none" stroke="#0b5" stroke-width="0.6"/><circle cx="464.4" cy="1000.0" r="2" fill="none" stroke="#0b5" stroke-width="0.6"/><circle cx="552.2" cy="1000.0" r="2" fill="none" stroke="#0b5" stroke-width="0.6"/><circle cx="102.3" cy="0.0" r="2" fill="none" stroke="#0b5" stroke-width="0.6"/><circle cx="317.0" cy="0.0" r="2" fill="none" stroke="#0b5" stroke-width="0.6"/><circle cx="762.3" cy="1000.0" r="2" fill="none" stroke="#0b5" stroke-width="0.6"/></g><g id="power"><circle cx="56.1" cy="1000.0" r="5" fill="none" stroke="#e33" stroke-width="1"/><circle cx="464.4" cy="1000.0" r="5" fill="none" stroke="#e33" stroke-width="1"/><circle cx="552.2" cy="1000.0" r="5" fill="none" stroke="#e33" stroke-width="1"/><circle cx="762.3" cy="1000.0" r="5" fill="none" stroke="#e33" stroke-width="1"/><circle cx="102.3" cy="0.0" r="5" fill="none" stroke="#e33" stroke-width="1"/><circle cx="316.9" cy="0.0" r="5" fill="none" stroke="#e33" stroke-width="1"/></g></svg>