<svg xmlns="http://www.w3.org/2000/svg" width="2000mm" height="1000mm" viewBox="0 0 2000 1000"><g id="outline"><rect x="0" y="0" width="2000" height="1000" fill="none" stroke="#000" stroke-width="1"/></g><g id="channels"><path d="M 1476.9 1000.0 L 1474.5 994.8 L 1471.8 988.9 L 1469.1 983.0 L 1466.4 977.1 L 1463.7 971.3 L 1461.0 965.4 L 1458.2 959.6 L 1455.3 953.8 L 1452.4 948.0 L 1452.4 948.0 L 1449.5 942.2 L 1446.6 936.5 L 1443.6 930.7 L 1440.7 925.0 L 1437.7 919.3 L 1434.7 913.6 L 1431.7 907.8 L 1428.7 902.1 L 1425.6 896.4 L 1422.5 890.8 L 1419.4 885.1 L 1416.3 879.4 L 1413.2 873.8 L 1410.0 868.2 L 1406.8 862.6 L 1403.6 857.0 L 1403.6 857.0 L 1400.3 851.4 L 1396.9 845.9 L 1393.5 840.5 L 1390.0 835.0 L 1386.4 829.6 L 1382.9 824.2 L 1379.3 818.8 L 1375.7 813.4 L 1372.1 808.0 L 1368.6 802.6 L 1365.1 797.2 L 1361.6 791.7 L 1358.2 786.2 L 1354.9 780.7 L 1351.7 775.1 L 1348.6 769.5 L 1348.6 769.5 L 1345.5 763.8 L 1342.6 758.1 L 1339.7 752.3 L 1336.9 746.5 L 1334.2 740.7 L 1331.5 734.8 L 1328.9 728.9 L 1326.3 723.0 L 1323.7 717.1 L 1321.1 711.2 L 1318.5 705.2 L 1315.9 699.3 L 1313.4 693.4 L 1310.7 687.5 L 1308.1 681.6 L 1305.4 675.8 L 1305.4 675.8 L 1302.7 669.9 L 1300.1 664.0 L 1297.5 658.1 L 1295.0 652.1 L 1292.4 646.2 L 1289.9 640.2 L 1287.3 634.3 L 1284.8 628.3 L 1282.2 622.4 L 1279.5 616.5 L 1276.8 610.7 L 1274.0 604.9 L 1271.1 599.1 L 1268.1 593.4 L 1265.0 587.8 L 1261.8 582.2 L 1261.8 582.2 L 1258.5 576.8 L 1255.0 571.4 L 1251.4 566.0 L 1247.8 560.7 L 1244.0 555.5 L 1240.2 550.3 L 1236.3 545.1 L 1232.4 540.0 L 1228.4 534.9 L 1224.4 529.8 L 1220.3 524.7 L 1216.3 519.7 L 1212.2 514.6 L 1208.2 509.6 L 1204.1 504.5 L 1200.1 499.4 L 1200.1 499.4 L 1196.1 494.4 L 1192.1 489.3 L 1188.0 484.3 L 1183.9 479.3 L 1179.8 474.4 L 1175.6 469.4 L 1171.5 464.5 L 1167.3 459.5 L 1163.2 454.6 L 1159.0 449.6 L 1154.8 444.7 L 1150.7 439.7 L 1146.6 434.7 L 1142.5 429.7 L 1138.5 424.7 L 1134.5 419.6 L 1134.5 419.6 L 1130.5 414.6 L 1126.4 409.5 L 1122.4 404.5 L 1118.4 399.4 L 1114.3 394.3 L 1110.3 389.3 L 1106.3 384.2 L 1102.3 379.1 L 1098.4 373.9 L 1094.5 368.8 L 1090.6 363.6 L 1086.8 358.4 L 1083.1 353.1 L 1079.5 347.8 L 1075.9 342.4 L 1072.5 337.0 L 1072.5 337.0 L 1069.1 331.6 L 1065.7 326.0 L 1062.4 320.5 L 1059.2 314.9 L 1056.0 309.3 L 1052.9 303.6 L 1049.9 297.9 L 1046.9 292.2 L 1043.9 286.4 L 1041.1 280.6 L 1038.3 274.8 L 1035.5 268.9 L 1032.8 263.1 L 1030.2 257.2 L 1027.7 251.3 L 1025.2 245.3 L 1025.2 245.3 L 1022.8 239.3 L 1020.6 233.3 L 1018.5 227.2 L 1016.4 221.1 L 1014.5 215.0 L 1012.6 208.8 L 1010.8 202.6 L 1009.0 196.4 L 1007.2 190.2 L 1005.5 183.9 L 1003.8 177.7 L 1002.0 171.5 L 1000.2 165.2 L 998.4 159.0 L 996.5 152.9 L 994.5 146.7 L 994.5 146.7 L 992.5 140.6 L 990.5 134.4 L 988.6 128.3 L 986.6 122.1 L 984.6 116.0 L 982.7 109.8 L 980.7 103.6 L 978.7 97.5 L 976.6 91.4 L 974.5 85.3 L 972.4 79.2 L 970.2 73.1 L 968.0 67.1 L 965.7 61.0 L 963.4 55.0 L 960.9 49.1 L 960.9 49.1 L 958.3 43.2 L 955.5 37.3 L 952.6 31.5 L 949.6 25.8 L 946.4 20.0 L 943.2 14.3 L 940.0 8.6 L 936.8 2.9 L 935.2 0.0" fill="none" stroke="#00e5ff" stroke-width="6.0" stroke-opacity="0.9"/><path d="M 1076.2 0.0 L 1080.3 4.2 L 1084.8 8.8 L 1089.3 13.5 L 1093.8 18.1 L 1098.3 22.7 L 1102.8 27.3 L 1107.4 31.9 L 1111.8 36.6 L 1116.3 41.2 L 1120.8 45.9 L 1120.8 45.9 L 1125.3 50.6 L 1129.8 55.2 L 1134.4 59.8 L 1138.9 64.3 L 1143.6 68.9 L 1148.2 73.4 L 1152.8 78.0 L 1157.3 82.6 L 1161.9 87.2 L 1166.4 91.8 L 1170.8 96.5 L 1175.2 101.3 L 1179.4 106.1 L 1183.6 111.0 L 1187.6 116.0 L 1191.6 121.0 L 1191.6 121.0 L 1195.4 126.2 L 1199.1 131.4 L 1202.7 136.8 L 1206.2 142.2 L 1209.6 147.6 L 1213.0 153.1 L 1216.3 158.7 L 1219.5 164.3 L 1222.7 169.9 L 1225.9 175.5 L 1229.0 181.2 L 1232.1 186.9 L 1235.2 192.6 L 1238.2 198.3 L 1241.3 204.0 L 1244.3 209.7 L 1244.3 209.7 L 1247.4 215.4 L 1250.3 221.1 L 1253.3 226.9 L 1256.1 232.7 L 1258.9 238.5 L 1261.7 244.3 L 1264.5 250.1 L 1267.2 256.0 L 1270.0 261.8 L 1272.7 267.7 L 1275.5 273.5 L 1278.3 279.4 L 1281.1 285.2 L 1283.9 291.0 L 1286.8 296.8 L 1289.8 302.5 L 1289.8 302.5 L 1292.8 308.2 L 1295.8 313.9 L 1298.9 319.6 L 1302.1 325.2 L 1305.2 330.9 L 1308.4 336.5 L 1311.5 342.1 L 1314.7 347.7 L 1317.9 353.3 L 1321.1 359.0 L 1324.3 364.6 L 1327.5 370.2 L 1330.7 375.8 L 1333.9 381.4 L 1337.0 387.1 L 1340.1 392.7 L 1340.1 392.7 L 1343.3 398.4 L 1346.5 404.0 L 1349.8 409.6 L 1353.1 415.2 L 1356.5 420.8 L 1359.9 426.4 L 1363.2 432.0 L 1366.5 437.6 L 1369.7 443.2 L 1372.9 448.9 L 1376.0 454.6 L 1378.9 460.3 L 1381.7 466.1 L 1384.3 471.9 L 1386.8 477.8 L 1389.0 483.7 L 1389.0 483.7 L 1391.1 489.7 L 1393.0 495.8 L 1394.9 502.0 L 1396.6 508.2 L 1398.2 514.4 L 1399.7 520.7 L 1401.1 527.0 L 1402.4 533.3 L 1403.5 539.7 L 1404.6 546.0 L 1405.5 552.4 L 1406.3 558.8 L 1406.9 565.2 L 1407.5 571.6 L 1407.9 578.0 L 1408.2 584.3 L 1408.2 584.3 L 1408.2 590.8 L 1407.8 597.4 L 1407.1 604.1 L 1406.2 610.9 L 1405.0 617.8 L 1403.7 624.7 L 1402.4 631.5 L 1401.0 638.4 L 1399.6 645.1 L 1398.3 651.7 L 1397.2 658.2 L 1396.4 664.4 L 1395.8 670.5 L 1395.5 676.3 L 1395.7 681.8 L 1396.3 687.0 L 1396.3 687.0 L 1397.3 691.8 L 1398.8 696.2 L 1400.5 700.2 L 1402.6 704.0 L 1404.9 707.6 L 1407.5 710.9 L 1410.2 714.1 L 1413.0 717.2 L 1416.0 720.3 L 1419.0 723.4 L 1422.0 726.5 L 1424.9 729.7 L 1427.8 733.0 L 1430.6 736.5 L 1433.2 740.3 L 1435.6 744.3 L 1435.6 744.3 L 1438.0 748.7 L 1440.2 753.4 L 1442.5 758.4 L 1444.8 763.6 L 1447.0 769.0 L 1449.2 774.4 L 1451.4 779.9 L 1453.6 785.4 L 1455.7 790.8 L 1457.9 796.0 L 1460.0 801.1 L 1462.1 805.9 L 1464.2 810.4 L 1466.2 814.6 L 1468.2 818.3 L 1470.3 821.5 L 1470.3 821.5 L 1472.2 824.3 L 1474.1 826.6 L 1476.0 828.5 L 1477.8 830.0 L 1479.5 831.3 L 1481.2 832.3 L 1483.0 833.1 L 1484.7 833.7 L 1486.4 834.3 L 1488.2 834.8 L 1489.9 835.3 L 1491.8 835.9 L 1493.7 836.6 L 1495.7 837.5 L 1497.7 838.5 L 1499.9 839.9 L 1499.9 839.9 L 1502.1 841.5 L 1504.5 843.5 L 1507.0 845.6 L 1509.5 848.0 L 1512.1 850.5 L 1514.7 853.0 L 1517.4 855.5 L 1520.1 858.0 L 1522.9 860.4 L 1525.6 862.6 L 1528.2 864.5 L 1530.9 866.2 L 1533.5 867.5 L 1536.0 868.4 L 1538.4 868.8 L 1540.7 868.7 L 1540.7 868.7 L 1543.0 868.0 L 1545.2 866.6 L 1547.3 864.7 L 1549.3 862.3 L 1551.4 859.6 L 1553.4 856.5 L 1555.3 853.2 L 1557.3 849.8 L 1559.2 846.3 L 1561.1 842.8 L 1563.0 839.5 L 1564.9 836.4 L 1566.9 833.5 L 1568.8 831.1 L 1570.8 829.0 L 1572.8 827.5 L 1572.8 827.5 L 1575.0 826.7 L 1577.3 826.4 L 1579.8 826.7 L 1582.4 827.5 L 1585.0 828.5 L 1587.7 829.7 L 1590.3 831.1 L 1592.9 832.4 L 1595.3 833.6 L 1597.7 834.6 L 1599.8 835.3 L 1601.7 835.5 L 1603.3 835.2 L 1604.6 834.3 L 1605.5 832.6 L 1606.0 830.0 L 1606.0 830.0 L 1606.1 826.5 L 1605.9 822.3 L 1605.4 817.4 L 1604.7 812.0 L 1603.6 806.0 L 1602.4 799.6 L 1600.9 792.9 L 1599.3 785.9 L 1597.5 778.7 L 1595.5 771.4 L 1593.5 764.1 L 1591.4 756.8 L 1589.2 749.7 L 1587.0 742.8 L 1584.7 736.2 L 1582.5 730.0 L 1582.5 730.0 L 1580.2 724.0 L 1577.6 718.2 L 1574.9 712.3 L 1572.0 706.6 L 1569.0 700.9 L 1565.9 695.2 L 1562.8 689.5 L 1559.6 683.9 L 1556.3 678.3 L 1553.1 672.6 L 1549.9 667.0 L 1546.7 661.3 L 1543.6 655.6 L 1540.7 649.8 L 1537.8 644.0 L 1535.2 638.1 L 1535.2 638.1 L 1532.7 632.2 L 1530.3 626.2 L 1527.9 620.2 L 1525.7 614.2 L 1523.5 608.1 L 1521.4 602.0 L 1519.3 595.9 L 1517.2 589.8 L 1515.2 583.7 L 1513.1 577.5 L 1511.1 571.4 L 1509.0 565.3 L 1506.9 559.2 L 1504.7 553.1 L 1502.5 547.0 L 1500.2 541.0 L 1500.2 541.0 L 1497.9 535.0 L 1495.5 529.0 L 1493.1 523.0 L 1490.6 517.0 L 1488.2 511.1 L 1485.7 505.1 L 1483.2 499.2 L 1480.7 493.2 L 1478.1 487.3 L 1475.6 481.3 L 1473.1 475.4 L 1470.6 469.4 L 1468.1 463.5 L 1465.6 457.5 L 1463.1 451.6 L 1460.7 445.6 L 1460.7 445.6 L 1458.2 439.6 L 1455.8 433.6 L 1453.4 427.6 L 1451.0 421.6 L 1448.6 415.6 L 1446.2 409.6 L 1443.8 403.6 L 1441.4 397.6 L 1439.0 391.6 L 1436.6 385.6 L 1434.2 379.6 L 1431.8 373.7 L 1429.4 367.7 L 1427.0 361.7 L 1424.6 355.7 L 1422.2 349.7 L 1422.2 349.7 L 1419.7 343.7 L 1417.3 337.7 L 1414.9 331.7 L 1412.5 325.8 L 1410.0 319.8 L 1407.6 313.8 L 1405.2 307.8 L 1402.7 301.8 L 1400.3 295.9 L 1397.8 289.9 L 1395.4 283.9 L 1392.9 277.9 L 1390.4 272.0 L 1387.9 266.0 L 1385.4 260.1 L 1382.9 254.1 L 1382.9 254.1 L 1380.4 248.2 L 1377.8 242.2 L 1375.3 236.3 L 1372.8 230.4 L 1370.2 224.4 L 1367.6 218.5 L 1365.1 212.6 L 1362.5 206.6 L 1359.9 200.7 L 1357.3 194.8 L 1354.7 188.9 L 1352.1 183.0 L 1349.5 177.1 L 1346.8 171.2 L 1344.2 165.3 L 1341.5 159.4 L 1341.5 159.4 L 1338.9 153.5 L 1336.2 147.6 L 1333.6 141.7 L 1331.0 135.8 L 1328.4 129.9 L 1325.7 124.0 L 1323.1 118.1 L 1320.4 112.2 L 1317.7 106.3 L 1315.0 100.5 L 1312.3 94.6 L 1309.5 88.8 L 1306.6 83.0 L 1303.7 77.3 L 1300.7 71.5 L 1297.7 65.9 L 1297.7 65.9 L 1294.6 60.2 L 1291.4 54.6 L 1288.2 49.0 L 1284.9 43.5 L 1281.6 37.9 L 1278.2 32.4 L 1274.8 26.9 L 1271.4 21.5 L 1267.9 16.0 L 1264.4 10.6 L 1260.8 5.2 L 1257.4 0.0" fill="none" stroke="#00e5ff" stroke-width="6.0" stroke-opacity="0.9"/><path d="M 237.6 0.0 L 236.3 4.4 L 234.4 11.1 L 234.4 11.1 L 232.5 17.9 L 230.7 24.7 L 228.9 31.5 L 227.1 38.3 L 225.4 45.1 L 223.7 51.9 L 221.9 58.7 L 220.2 65.5 L 218.5 72.3 L 216.7 79.1 L 214.9 85.9 L 213.1 92.7 L 211.1 99.4 L 209.2 106.1 L 207.1 112.8 L 204.9 119.5 L 204.9 119.5 L 202.7 126.1 L 200.4 132.7 L 198.1 139.3 L 195.7 145.9 L 193.3 152.5 L 190.8 159.1 L 188.3 165.6 L 185.7 172.2 L 183.1 178.7 L 180.5 185.2 L 177.8 191.6 L 175.0 198.1 L 172.2 204.5 L 169.4 211.0 L 166.6 217.4 L 163.7 223.7 L 163.7 223.7 L 160.7 230.1 L 157.8 236.4 L 154.7 242.8 L 151.6 249.0 L 148.5 255.3 L 145.3 261.6 L 142.1 267.8 L 138.8 274.0 L 135.5 280.2 L 132.2 286.4 L 128.8 292.6 L 125.5 298.8 L 122.1 304.9 L 118.7 311.0 L 115.2 317.2 L 111.8 323.3 L 111.8 323.3 L 108.4 329.4 L 104.9 335.5 L 101.5 341.7 L 98.1 347.9 L 94.7 354.0 L 91.2 360.2 L 87.7 366.3 L 84.2 372.4 L 80.6 378.4 L 77.0 384.5 L 73.3 390.4 L 69.5 396.3 L 65.7 402.2 L 61.7 407.9 L 57.7 413.6 L 53.6 419.2 L 53.6 419.2 L 49.4 424.9 L 45.1 430.7 L 40.9 436.7 L 36.6 442.8 L 32.2 448.9 L 27.8 454.9 L 23.3 460.9 L 18.7 466.7 L 14.0 472.3 L 9.3 477.6 L 4.4 482.6 L 0.0 486.6" fill="none" stroke="#00e5ff" stroke-width="6.0" stroke-opacity="0.9"/><path d="M 0.0 636.7 L 1.3 635.4 L 1.3 635.4 L 5.7 631.0 L 10.3 626.6 L 14.8 622.2 L 19.5 617.9 L 24.1 613.6 L 28.8 609.4 L 33.6 605.2 L 38.3 601.0 L 43.1 596.9 L 47.9 592.8 L 52.8 588.7 L 57.6 584.6 L 62.4 580.5 L 67.3 576.4 L 72.1 572.3 L 76.9 568.2 L 76.9 568.2 L 81.8 564.2 L 86.7 560.2 L 91.6 556.2 L 96.6 552.3 L 101.6 548.4 L 106.7 544.6 L 111.7 540.7 L 116.7 536.8 L 121.7 533.0 L 126.7 529.1 L 131.7 525.1 L 136.6 521.1 L 141.4 517.1 L 146.2 513.0 L 150.9 508.8 L 155.6 504.5 L 155.6 504.5 L 160.1 500.2 L 164.7 495.9 L 169.3 491.5 L 173.8 487.0 L 178.3 482.6 L 182.7 478.0 L 187.2 473.5 L 191.5 468.9 L 195.8 464.2 L 200.1 459.5 L 204.2 454.8 L 208.3 450.0 L 212.3 445.1 L 216.3 440.2 L 220.1 435.2 L 223.8 430.2 L 223.8 430.2 L 227.4 425.0 L 230.9 419.8 L 234.4 414.6 L 237.8 409.2 L 241.1 403.8 L 244.3 398.4 L 247.4 392.9 L 250.5 387.3 L 253.5 381.7 L 256.4 376.1 L 259.3 370.5 L 262.1 364.8 L 264.9 359.1 L 267.6 353.3 L 270.2 347.6 L 272.9 341.9 L 272.9 341.9 L 275.4 336.1 L 277.9 330.3 L 280.2 324.5 L 282.5 318.6 L 284.8 312.7 L 286.9 306.7 L 289.0 300.8 L 291.1 294.8 L 293.1 288.8 L 295.1 282.8 L 297.1 276.7 L 299.0 270.7 L 300.9 264.7 L 302.8 258.6 L 304.8 252.6 L 306.7 246.6 L 306.7 246.6 L 308.6 240.5 L 310.5 234.5 L 312.4 228.5 L 314.2 222.4 L 316.0 216.4 L 317.8 210.3 L 319.6 204.2 L 321.4 198.2 L 323.1 192.1 L 324.8 186.0 L 326.5 179.9 L 328.2 173.8 L 329.8 167.7 L 331.5 161.6 L 333.1 155.4 L 334.7 149.3 L 334.7 149.3 L 336.2 143.2 L 337.6 136.9 L 338.9 130.6 L 340.1 124.2 L 341.3 117.8 L 342.4 111.4 L 343.5 105.0 L 344.7 98.7 L 345.9 92.3 L 347.1 86.1 L 348.5 79.9 L 350.0 73.8 L 351.5 67.8 L 353.3 62.0 L 355.2 56.3 L 357.4 50.7 L 357.4 50.7 L 359.8 45.1 L 362.4 39.1 L 365.1 32.8 L 368.1 26.4 L 371.2 19.9 L 374.3 13.5 L 377.6 7.2 L 381.0 1.2 L 381.7 0.0" fill="none" stroke="#00e5ff" stroke-width="6.0" stroke-opacity="0.9"/><path d="M 425.1 0.0 L 426.4 3.1 L 429.1 9.8 L 431.7 16.8 L 434.3 24.1 L 436.8 31.5 L 439.4 38.8 L 441.9 46.0 L 444.3 52.9 L 446.8 59.5 L 449.2 65.6 L 449.2 65.6 L 451.5 71.4 L 453.7 77.3 L 455.9 83.2 L 458.0 89.2 L 460.1 95.1 L 462.1 101.1 L 464.1 107.1 L 466.1 113.2 L 468.1 119.2 L 470.0 125.2 L 472.1 131.2 L 474.1 137.2 L 476.2 143.2 L 478.4 149.2 L 480.6 155.1 L 482.9 161.0 L 482.9 161.0 L 485.3 166.8 L 487.7 172.6 L 490.2 178.4 L 492.8 184.2 L 495.3 190.0 L 498.0 195.8 L 500.6 201.5 L 503.3 207.2 L 506.0 213.0 L 508.6 218.7 L 511.3 224.5 L 514.0 230.2 L 516.6 236.0 L 519.2 241.7 L 521.7 247.5 L 524.3 253.3 L 524.3 253.3 L 526.8 259.1 L 529.3 264.9 L 531.8 270.7 L 534.3 276.5 L 536.8 282.3 L 539.3 288.2 L 541.8 294.0 L 544.2 299.8 L 546.7 305.7 L 549.1 311.5 L 551.4 317.4 L 553.8 323.2 L 556.0 329.1 L 558.3 335.1 L 560.4 341.0 L 562.5 346.9 L 562.5 346.9 L 564.6 352.9 L 566.5 358.9 L 568.5 364.9 L 570.3 371.0 L 572.2 377.0 L 574.0 383.1 L 575.7 389.2 L 577.4 395.2 L 579.1 401.3 L 580.8 407.5 L 582.4 413.6 L 584.0 419.7 L 585.6 425.8 L 587.1 432.0 L 588.7 438.1 L 590.2 444.2 L 590.2 444.2 L 591.7 450.4 L 593.2 456.5 L 594.6 462.7 L 596.0 468.8 L 597.3 475.0 L 598.6 481.2 L 599.9 487.4 L 601.2 493.6 L 602.5 499.8 L 603.8 506.0 L 605.0 512.2 L 606.3 518.4 L 607.6 524.6 L 608.8 530.8 L 610.1 537.0 L 611.4 543.2 L 611.4 543.2 L 612.8 549.3 L 614.1 555.5 L 615.4 561.7 L 616.7 567.9 L 618.0 574.1 L 619.2 580.3 L 620.5 586.5 L 621.8 592.7 L 623.1 598.9 L 624.5 605.1 L 625.8 611.2 L 627.1 617.4 L 628.5 623.6 L 629.9 629.8 L 631.3 635.9 L 632.7 642.1 L 632.7 642.1 L 634.2 648.2 L 635.7 654.4 L 637.3 660.5 L 638.9 666.6 L 640.5 672.7 L 642.1 678.8 L 643.8 685.0 L 645.4 691.1 L 647.1 697.2 L 648.7 703.3 L 650.3 709.4 L 651.9 715.5 L 653.5 721.6 L 655.0 727.8 L 656.5 733.9 L 657.9 740.1 L 657.9 740.1 L 659.3 746.2 L 660.7 752.4 L 662.1 758.6 L 663.4 764.8 L 664.7 770.9 L 666.0 777.1 L 667.3 783.3 L 668.6 789.5 L 669.8 795.7 L 671.0 801.9 L 672.2 808.1 L 673.4 814.4 L 674.6 820.6 L 675.7 826.8 L 676.8 833.0 L 677.9 839.2 L 677.9 839.2 L 679.0 845.5 L 680.0 851.7 L 681.0 858.0 L 681.9 864.2 L 682.8 870.5 L 683.6 876.8 L 684.5 883.0 L 685.3 889.3 L 686.2 895.6 L 687.0 901.9 L 688.0 908.1 L 688.9 914.4 L 689.9 920.6 L 691.0 926.8 L 692.1 933.0 L 693.4 939.2 L 693.4 939.2 L 694.7 945.4 L 696.0 951.6 L 697.4 957.8 L 698.8 963.9 L 700.2 970.1 L 701.7 976.2 L 703.3 982.4 L 704.8 988.5 L 706.4 994.6 L 707.9 1000.0" fill="none" stroke="#00e5ff" stroke-width="6.0" stroke-opacity="0.9"/><path d="M 971.3 1000.0 L 971.2 999.1 L 971.2 999.1 L 970.1 992.3 L 969.2 985.6 L 968.3 978.8 L 967.5 972.0 L 966.8 965.2 L 966.1 958.4 L 965.4 951.6 L 964.8 944.8 L 964.2 938.0 L 963.7 931.2 L 963.1 924.4 L 962.6 917.5 L 962.1 910.7 L 961.5 903.9 L 961.0 897.1 L 960.4 890.3 L 960.4 890.3 L 959.7 883.3 L 958.7 876.2 L 957.7 868.8 L 956.5 861.4 L 955.2 853.9 L 953.9 846.3 L 952.7 838.8 L 951.6 831.4 L 950.6 824.1 L 949.8 817.0 L 949.3 810.2 L 949.0 803.6 L 949.1 797.4 L 949.6 791.5 L 950.6 786.1 L 952.0 781.2 L 952.0 781.2 L 954.0 776.6 L 956.4 772.2 L 959.3 767.9 L 962.6 763.8 L 966.1 759.9 L 970.0 756.2 L 974.1 752.9 L 978.5 749.9 L 983.0 747.3 L 987.6 745.0 L 992.3 743.3 L 997.0 741.9 L 1001.7 741.1 L 1006.4 740.9 L 1010.9 741.2 L 1015.3 742.1 L 1015.3 742.1 L 1019.7 743.8 L 1024.2 746.3 L 1028.9 749.5 L 1033.6 753.3 L 1038.3 757.7 L 1043.2 762.7 L 1048.0 768.0 L 1052.9 773.6 L 1057.8 779.5 L 1062.6 785.6 L 1067.4 791.7 L 1072.2 797.9 L 1076.9 804.0 L 1081.6 810.0 L 1086.1 815.7 L 1090.5 821.1 L 1090.5 821.1 L 1094.8 826.4 L 1099.1 831.7 L 1103.3 837.1 L 1107.4 842.5 L 1111.5 848.0 L 1115.5 853.5 L 1119.5 859.0 L 1123.5 864.6 L 1127.4 870.2 L 1131.4 875.8 L 1135.2 881.5 L 1139.1 887.1 L 1143.0 892.8 L 1146.8 898.5 L 1150.6 904.1 L 1154.5 909.8 L 1154.5 909.8 L 1158.3 915.5 L 1162.0 921.2 L 1165.7 926.9 L 1169.4 932.7 L 1173.1 938.5 L 1176.7 944.3 L 1180.3 950.1 L 1183.9 955.9 L 1187.5 961.7 L 1191.1 967.5 L 1194.7 973.3 L 1198.3 979.1 L 1202.0 984.9 L 1205.7 990.7 L 1209.4 996.4 L 1211.8 1000.0" fill="none" stroke="#00e5ff" stroke-width="6.0" stroke-opacity="0.9"/></g><g id="clips"><circle cx="1476.9" cy="1000.0" r="2" fill="none" stroke="#0b5" stroke-width="0.6"/><circle cx="935.2" cy="0.0" r="2" fill="none" stroke="#0b5" stroke-width="0.6"/><circle cx="1076.2" cy="0.0" r="2" fill="none" stroke="#0b5" stroke-width="0.6"/><circle cx="1257.4" cy="0.0" r="2" fill="none" stroke="#0b5" stroke-width="0.6"/><circle cx="237.6" cy="0.0" r="2" fill="none" stroke="#0b5" stroke-width="0.6"/><circle cx="0.0" cy="486.6" r="2" fill="none" stroke="#0b5" stroke-width="0.6"/><circle cx="0.0" cy="636.7" r="2" fill="none" stroke="#0b5" stroke-width="0.6"/><circle cx="381.7" cy="0.0" r="2" fill="none" stroke="#0b5" stroke-width="0.6"/><circle cx="425.1" cy="0.0" r="2" fill="none" stroke="#0b5" stroke-width="0.6"/><circle cx="707.9" cy="1000.0" r="2" fill="none" stroke="#0b5" stroke-width="0.6"/><circle cx="971.3" cy="1000.0" r="2" fill="none" stroke="#0b5" stroke-width="0.6"/><circle cx="1211.8" cy="1000.0" r="2" fill="none" stroke="#0b5" stroke-width="0.6"/></g><g id="power"><circle cx="1476.9" cy="1000.0" r="5" fill="none" stroke="#e33" stroke-width="1"/><circle cx="935.1" cy="0.0" r="5" fill="none" stroke="#e33" stroke-width="1"/><circle cx="1076.1" cy="0.0" r="5" fill="none" stroke="#e33" stroke-width="1"/><circle cx="1257.4" cy="0.0" r="5" fill="none" stroke="#e33" stroke-width="1"/><circle cx="237.6" cy="0.0" r="5" fill="none" stroke="#e33" stroke-width="1"/><circle cx="0.0" cy="486.6" r="5" fill="none" stroke="#e33" stroke-width="1"/><circle cx="0.0" cy="636.7" r="5" fill="none" stroke="#e33" stroke-width="1"/><circle cx="381.7" cy="0.0" r="5" fill="none" stroke="#e33" stroke-width="1"/><circle cx="425.1" cy="0.0" r="5" fill="none" stroke="#e33" stroke-width="1"/><circle cx="707.9" cy="1000.0" r="5" fill="none" stroke="#e33" stroke-width="1"/><circle cx="971.3" cy="1000.0" r="5" fill="none" stroke="#e33" stroke-width="1"/><circle cx="1211.8" cy="1000.0" r="5" fill="none" stroke="#e33" stroke-width="1"/></g></svg>