<svg xmlns="http://www.w3.org/2000/svg" width="1000mm" height="2000mm" viewBox="0 0 1000 2000"><g id="outline"><rect x="0" y="0" width="1000" height="2000" fill="none" stroke="#000" stroke-width="1"/></g><g id="channels"><path d="M 1000.0 1496.3 L 996.6 1494.6 L 991.2 1491.7 L 985.9 1488.9 L 980.5 1485.9 L 975.1 1483.1 L 975.1 1483.1 L 969.7 1480.1 L 964.4 1477.2 L 958.9 1474.2 L 953.6 1471.3 L 948.3 1468.4 L 942.8 1465.4 L 937.5 1462.5 L 932.2 1459.5 L 926.7 1456.6 L 921.4 1453.6 L 916.1 1450.7 L 910.7 1447.7 L 905.4 1444.7 L 900.0 1441.7 L 894.7 1438.7 L 889.4 1435.7 L 889.4 1435.7 L 884.0 1432.7 L 878.7 1429.7 L 873.3 1426.8 L 867.8 1423.8 L 862.4 1421.0 L 857.0 1418.0 L 851.6 1415.1 L 846.2 1412.1 L 840.8 1409.1 L 835.6 1406.1 L 830.2 1402.9 L 825.1 1399.7 L 819.9 1396.4 L 814.9 1393.1 L 810.0 1389.6 L 805.1 1385.9 L 805.1 1385.9 L 800.3 1382.2 L 795.4 1378.5 L 790.6 1374.6 L 785.7 1370.7 L 780.9 1366.8 L 776.1 1362.8 L 771.4 1358.7 L 766.8 1354.6 L 762.3 1350.3 L 758.0 1345.9 L 753.9 1341.5 L 749.9 1337.0 L 746.1 1332.3 L 742.5 1327.5 L 739.2 1322.6 L 736.2 1317.7 L 736.2 1317.7 L 733.4 1312.4 L 730.9 1307.1 L 728.6 1301.7 L 726.6 1296.0 L 724.7 1290.2 L 723.0 1284.4 L 721.5 1278.4 L 720.2 1272.4 L 718.9 1266.3 L 717.8 1260.2 L 716.8 1254.0 L 716.0 1247.8 L 715.1 1241.8 L 714.3 1235.6 L 713.7 1229.5 L 712.9 1223.5 L 712.9 1223.5 L 712.4 1217.5 L 711.9 1211.4 L 711.6 1205.3 L 711.4 1199.3 L 711.4 1193.2 L 711.5 1187.0 L 711.6 1181.0 L 711.9 1174.8 L 712.2 1168.6 L 712.5 1162.5 L 712.9 1156.3 L 713.3 1150.1 L 713.7 1144.1 L 714.1 1137.9 L 714.5 1131.7 L 714.8 1125.7 L 714.8 1125.7 L 715.1 1119.5 L 715.5 1113.4 L 716.0 1107.4 L 716.4 1101.2 L 716.9 1095.1 L 717.3 1089.0 L 717.9 1083.0 L 718.4 1076.8 L 719.0 1070.7 L 719.6 1064.7 L 720.2 1058.6 L 720.8 1052.4 L 721.4 1046.4 L 722.0 1040.3 L 722.7 1034.2 L 723.2 1028.1 L 723.2 1028.1 L 723.9 1022.0 L 724.5 1015.9 L 725.2 1009.8 L 725.8 1003.8 L 726.5 997.7 L 727.2 991.6 L 727.9 985.5 L 728.6 979.5 L 729.3 973.4 L 730.0 967.3 L 730.8 961.3 L 731.5 955.2 L 732.2 949.0 L 732.9 942.9 L 733.6 936.9 L 734.4 930.8 L 734.4 930.8 L 735.0 924.7 L 735.8 918.7 L 736.7 912.6 L 737.5 906.5 L 738.3 900.4 L 739.1 894.4 L 740.0 888.3 L 740.8 882.2 L 741.6 876.2 L 742.4 870.1 L 743.1 864.0 L 743.6 857.9 L 744.3 851.9 L 744.7 845.7 L 745.1 839.6 L 745.4 833.6 L 745.4 833.6 L 745.6 827.5 L 745.7 821.4 L 745.7 815.3 L 745.7 809.2 L 745.6 803.1 L 745.4 796.9 L 745.1 790.9 L 744.8 784.7 L 744.5 778.6 L 744.1 772.6 L 743.7 766.4 L 743.3 760.3 L 742.8 754.3 L 742.4 748.1 L 741.9 742.0 L 741.3 735.9 L 741.3 735.9 L 740.8 729.9 L 740.1 723.8 L 739.3 717.7 L 738.5 711.7 L 737.6 705.6 L 736.7 699.5 L 735.7 693.4 L 734.8 687.4 L 733.8 681.3 L 732.9 675.2 L 732.1 669.2 L 731.2 663.2 L 730.6 657.1 L 729.9 651.0 L 729.5 645.0 L 729.1 638.8 L 729.1 638.8 L 728.7 632.5 L 728.5 626.0 L 728.2 619.1 L 727.9 612.1 L 727.7 605.0 L 727.5 597.9 L 727.5 590.9 L 727.5 583.9 L 727.5 577.2 L 727.7 570.6 L 728.1 564.5 L 728.6 558.7 L 729.2 553.4 L 730.0 548.7 L 731.0 544.6 L 732.2 541.3 L 732.2 541.3 L 733.7 538.7 L 735.4 537.1 L 737.3 536.4 L 739.4 536.2 L 741.7 536.7 L 744.1 537.6 L 746.7 538.7 L 749.3 540.1 L 752.1 541.5 L 754.9 542.8 L 757.6 544.0 L 760.5 544.9 L 763.2 545.2 L 766.0 545.0 L 768.7 544.2 L 771.2 542.7 L 771.2 542.7 L 773.8 540.1 L 776.5 536.8 L 779.2 532.7 L 782.0 528.1 L 784.9 523.1 L 787.8 517.7 L 790.7 512.2 L 793.5 506.6 L 796.3 501.0 L 798.9 495.6 L 801.6 490.7 L 804.2 486.1 L 806.6 482.0 L 808.8 478.6 L 810.8 476.1 L 812.7 474.6 L 812.7 474.6 L 814.3 473.9 L 815.7 474.3 L 816.9 475.5 L 817.9 477.3 L 818.7 479.8 L 819.4 482.7 L 820.0 485.8 L 820.6 489.2 L 821.2 492.6 L 821.8 496.0 L 822.5 499.1 L 823.2 502.1 L 824.1 504.6 L 825.2 506.5 L 826.4 507.7 L 827.8 508.2 L 827.8 508.2 L 829.6 507.8 L 831.5 506.6 L 833.6 504.8 L 835.9 502.5 L 838.3 499.8 L 840.8 496.7 L 843.3 493.5 L 845.9 490.2 L 848.4 486.9 L 851.0 483.9 L 853.5 481.0 L 855.9 478.6 L 858.2 476.6 L 860.3 475.3 L 862.2 474.7 L 864.0 474.9 L 864.0 474.9 L 865.5 476.0 L 866.7 477.9 L 867.9 480.4 L 868.9 483.5 L 869.9 487.1 L 870.8 491.0 L 871.5 495.3 L 872.3 499.8 L 873.0 504.3 L 873.6 508.7 L 874.5 513.1 L 875.2 517.3 L 876.1 521.1 L 877.0 524.6 L 878.1 527.6 L 879.4 530.0 L 879.4 530.0 L 880.9 531.6 L 882.6 532.7 L 884.4 533.5 L 886.3 533.6 L 888.4 533.6 L 890.5 533.4 L 892.6 533.1 L 894.7 532.6 L 896.7 532.4 L 898.8 532.2 L 900.6 532.3 L 902.3 532.6 L 903.8 533.5 L 905.0 534.8 L 906.0 536.9 L 906.7 539.5 L 906.7 539.5 L 907.0 542.9 L 907.1 546.9 L 907.0 551.5 L 906.7 556.5 L 906.1 562.1 L 905.4 567.9 L 904.6 573.9 L 903.6 580.2 L 902.6 586.4 L 901.6 592.9 L 900.5 599.1 L 899.5 605.4 L 898.5 611.4 L 897.6 617.1 L 896.7 622.5 L 896.0 627.4 L 896.0 627.4 L 895.4 632.0 L 895.0 636.3 L 894.7 640.5 L 894.4 644.4 L 894.2 648.3 L 894.1 652.0 L 893.9 655.6 L 893.6 659.2 L 893.3 662.8 L 892.9 666.4 L 892.3 670.0 L 891.6 673.8 L 890.6 677.6 L 889.4 681.6 L 887.9 685.7 L 886.1 690.1 L 886.1 690.1 L 883.9 694.6 L 881.3 699.3 L 878.2 704.0 L 874.9 708.8 L 871.4 713.7 L 867.7 718.7 L 863.8 723.6 L 859.8 728.7 L 855.9 733.8 L 852.0 739.1 L 848.2 744.3 L 844.8 749.7 L 841.3 755.1 L 838.4 760.5 L 835.7 766.0 L 833.5 771.6 L 833.5 771.6 L 831.7 777.2 L 830.1 783.0 L 828.8 788.8 L 827.6 794.7 L 826.7 800.7 L 826.0 806.8 L 825.4 812.9 L 824.9 819.0 L 824.5 825.2 L 824.2 831.4 L 824.1 837.6 L 823.9 843.9 L 823.7 850.0 L 823.5 856.2 L 823.3 862.4 L 823.1 868.5 L 823.1 868.5 L 822.9 874.6 L 822.8 880.7 L 822.7 886.8 L 822.7 892.9 L 822.8 899.0 L 822.9 905.1 L 822.9 911.3 L 823.1 917.4 L 823.4 923.5 L 823.6 929.6 L 823.9 935.8 L 824.1 941.9 L 824.4 948.0 L 824.7 954.2 L 825.0 960.2 L 825.2 966.4 L 825.2 966.4 L 825.5 972.5 L 825.7 978.6 L 826.0 984.7 L 826.3 990.8 L 826.5 997.0 L 826.8 1003.0 L 827.2 1009.2 L 827.5 1015.3 L 827.8 1021.4 L 828.2 1027.5 L 828.7 1033.6 L 829.1 1039.7 L 829.6 1045.8 L 830.0 1051.9 L 830.6 1057.9 L 831.2 1064.0 L 831.2 1064.0 L 831.8 1070.2 L 832.3 1076.3 L 832.9 1082.4 L 833.4 1088.6 L 834.0 1094.7 L 834.5 1100.9 L 835.1 1107.1 L 835.8 1113.2 L 836.6 1119.3 L 837.3 1125.5 L 838.3 1131.5 L 839.3 1137.5 L 840.5 1143.5 L 841.8 1149.4 L 843.4 1155.2 L 845.0 1160.9 L 845.0 1160.9 L 846.9 1166.7 L 848.8 1172.4 L 850.8 1178.2 L 852.9 1183.9 L 855.2 1189.7 L 857.5 1195.3 L 860.0 1201.0 L 862.6 1206.5 L 865.4 1212.0 L 868.2 1217.5 L 871.2 1222.7 L 874.4 1227.9 L 877.7 1232.8 L 881.2 1237.7 L 884.8 1242.4 L 888.5 1246.9 L 888.5 1246.9 L 892.6 1251.2 L 896.8 1255.3 L 901.3 1259.2 L 906.0 1263.0 L 910.8 1266.7 L 915.9 1270.2 L 921.0 1273.6 L 926.3 1276.9 L 931.5 1280.1 L 936.9 1283.3 L 942.4 1286.4 L 947.8 1289.4 L 953.2 1292.5 L 958.6 1295.6 L 964.0 1298.6 L 969.3 1301.7 L 969.3 1301.7 L 974.6 1304.8 L 979.9 1307.8 L 985.2 1310.7 L 990.7 1313.6 L 996.1 1316.4 L 1000.0 1318.4" fill="none" stroke="#ffd23d" stroke-width="6.0" stroke-opacity="0.9"/></g><g id="clips"><circle cx="1000.0" cy="1496.3" r="2" fill="none" stroke="#0b5" stroke-width="0.6"/><circle cx="825.0" cy="1399.6" r="2" fill="none" stroke="#0b5" stroke-width="0.6"/><circle cx="715.3" cy="1242.8" r="2" fill="none" stroke="#0b5" stroke-width="0.6"/><circle cx="721.7" cy="1043.4" r="2" fill="none" stroke="#0b5" stroke-width="0.6"/><circle cx="744.8" cy="844.8" r="2" fill="none" stroke="#0b5" stroke-width="0.6"/><circle cx="729.5" cy="645.7" r="2" fill="none" stroke="#0b5" stroke-width="0.6"/><circle cx="797.4" cy="498.7" r="2" fill="none" stroke="#0b5" stroke-width="0.6"/><circle cx="900.4" cy="532.3" r="2" fill="none" stroke="#0b5" stroke-width="0.6"/><circle cx="866.0" cy="720.9" r="2" fill="none" stroke="#0b5" stroke-width="0.6"/><circle cx="822.9" cy="910.2" r="2" fill="none" stroke="#0b5" stroke-width="0.6"/><circle cx="835.4" cy="1109.7" r="2" fill="none" stroke="#0b5" stroke-width="0.6"/><circle cx="928.3" cy="1278.1" r="2" fill="none" stroke="#0b5" stroke-width="0.6"/><circle cx="1000.0" cy="1318.4" r="2" fill="none" stroke="#0b5" stroke-width="0.6"/></g><g id="power"><circle cx="1000.0" cy="1496.3" r="5" fill="none" stroke="#e33" stroke-width="1"/><circle cx="1000.0" cy="1318.4" r="5" fill="none" stroke="#e33" stroke-width="1"/></g><g id="bridges"></g></svg>