<svg xmlns="http://www.w3.org/2000/svg" width="2000mm" height="1000mm" viewBox="0 0 2000 1000"><g id="outline"><rect x="0" y="0" width="2000" height="1000" fill="none" stroke="#000" stroke-width="1"/></g><g id="channels"><path d="M 935.2 1000.0 L 933.6 997.2 L 930.5 991.5 L 927.5 985.8 L 924.5 980.1 L 921.8 974.3 L 919.2 968.4 L 916.9 962.6 L 914.8 956.6 L 914.8 956.6 L 912.8 950.4 L 910.6 943.7 L 908.4 936.6 L 906.2 929.2 L 904.1 921.7 L 902.0 914.2 L 900.1 906.6 L 898.4 899.3 L 896.9 892.1 L 895.8 885.3 L 895.0 879.0 L 894.6 873.3 L 894.7 868.2 L 895.3 863.8 L 896.4 860.3 L 898.2 857.8 L 898.2 857.8 L 900.7 856.3 L 904.0 855.5 L 908.0 855.5 L 912.5 856.2 L 917.6 857.4 L 923.0 859.3 L 928.8 861.6 L 934.9 864.3 L 941.1 867.3 L 947.4 870.7 L 953.7 874.2 L 959.9 877.9 L 965.9 881.7 L 971.7 885.5 L 977.1 889.2 L 982.0 892.9 L 982.0 892.9 L 986.7 896.6 L 991.2 900.6 L 995.6 904.9 L 999.9 909.5 L 1004.1 914.3 L 1008.3 919.3 L 1012.4 924.4 L 1016.4 929.6 L 1020.5 934.9 L 1024.5 940.3 L 1028.5 945.7 L 1032.5 951.0 L 1036.6 956.3 L 1040.8 961.4 L 1045.0 966.5 L 1049.3 971.4 L 1049.3 971.4 L 1053.6 976.1 L 1058.0 980.9 L 1062.4 985.6 L 1066.9 990.3 L 1071.3 994.9 L 1075.8 999.6 L 1076.2 1000.0" fill="none" stroke="#00e5ff" stroke-width="6.0" stroke-opacity="0.9"/><path d="M 1257.4 1000.0 L 1257.3 999.8 L 1253.7 994.4 L 1250.1 989.0 L 1246.5 983.7 L 1242.8 978.3 L 1242.8 978.3 L 1239.2 973.0 L 1235.5 967.7 L 1231.7 962.5 L 1228.0 957.3 L 1224.1 952.1 L 1220.3 946.9 L 1216.4 941.7 L 1212.5 936.5 L 1208.6 931.4 L 1204.7 926.2 L 1200.8 921.1 L 1196.9 915.9 L 1193.0 910.8 L 1189.2 905.6 L 1185.3 900.4 L 1181.5 895.2 L 1181.5 895.2 L 1177.6 890.0 L 1173.8 884.8 L 1170.0 879.6 L 1166.2 874.4 L 1162.4 869.2 L 1158.6 863.9 L 1154.8 858.7 L 1151.0 853.5 L 1147.1 848.3 L 1143.3 843.1 L 1139.5 837.8 L 1135.7 832.6 L 1131.9 827.4 L 1128.1 822.2 L 1124.3 817.0 L 1120.5 811.7 L 1120.5 811.7 L 1116.7 806.5 L 1113.0 801.3 L 1109.2 796.0 L 1105.5 790.7 L 1101.7 785.5 L 1098.0 780.2 L 1094.2 774.9 L 1090.5 769.7 L 1086.7 764.4 L 1083.0 759.2 L 1079.2 753.9 L 1075.4 748.7 L 1071.5 743.5 L 1067.6 738.4 L 1063.7 733.3 L 1059.8 728.2 L 1059.8 728.2 L 1055.8 723.1 L 1051.8 718.0 L 1047.8 712.9 L 1043.8 707.8 L 1039.8 702.7 L 1035.8 697.6 L 1031.7 692.6 L 1027.6 687.5 L 1023.5 682.6 L 1019.3 677.6 L 1015.1 672.7 L 1010.8 667.9 L 1006.5 663.1 L 1002.1 658.4 L 997.6 653.8 L 993.1 649.2 L 993.1 649.2 L 988.5 644.7 L 983.9 640.2 L 979.3 635.6 L 974.6 631.0 L 969.8 626.4 L 965.1 621.9 L 960.2 617.5 L 955.3 613.1 L 950.4 608.9 L 945.3 604.8 L 940.2 600.9 L 935.0 597.1 L 929.8 593.5 L 924.4 590.2 L 918.9 587.1 L 913.4 584.3 L 913.4 584.3 L 907.6 581.8 L 901.8 579.7 L 895.8 577.8 L 889.6 576.2 L 883.4 574.8 L 877.1 573.7 L 870.7 572.6 L 864.2 571.7 L 857.8 570.9 L 851.3 570.0 L 844.8 569.2 L 838.3 568.3 L 831.9 567.4 L 825.6 566.3 L 819.3 565.1 L 813.1 563.6 L 813.1 563.6 L 806.9 562.2 L 800.4 560.9 L 793.7 559.8 L 786.9 558.7 L 780.0 557.6 L 773.1 556.6 L 766.3 555.4 L 759.6 554.2 L 753.1 552.8 L 746.8 551.2 L 740.9 549.4 L 735.3 547.2 L 730.1 544.8 L 725.4 541.9 L 721.2 538.6 L 717.7 534.9 L 717.7 534.9 L 714.8 530.4 L 712.5 525.1 L 710.7 519.2 L 709.4 512.6 L 708.5 505.6 L 708.0 498.3 L 707.8 490.8 L 707.9 483.3 L 708.1 475.8 L 708.5 468.4 L 708.9 461.4 L 709.3 454.8 L 709.7 448.8 L 710.0 443.4 L 710.1 438.9 L 710.0 435.3" fill="none" stroke="#00e5ff" stroke-width="6.0" stroke-opacity="0.9"/><path d="M 738.5 359.3 L 737.7 355.6 L 736.9 351.0 L 736.1 345.7 L 735.2 339.7 L 734.3 333.2 L 733.2 326.3 L 732.1 319.0 L 730.8 311.4 L 729.3 303.8 L 727.7 296.0 L 725.8 288.4 L 723.7 280.9 L 721.4 273.6 L 718.7 266.7 L 715.8 260.3 L 712.6 254.4 L 712.6 254.4 L 709.0 248.9 L 705.1 243.3 L 700.9 237.8 L 696.4 232.4 L 691.6 227.0 L 686.7 221.8 L 681.5 216.7 L 676.1 211.7 L 670.6 207.0 L 664.9 202.5 L 659.1 198.2 L 653.2 194.2 L 647.3 190.5 L 641.3 187.1 L 635.3 184.1 L 629.2 181.5 L 629.2 181.5 L 623.0 179.1 L 616.6 177.0 L 609.8 175.1 L 602.9 173.4 L 595.8 172.0 L 588.6 170.8 L 581.3 169.9 L 574.0 169.3 L 566.7 169.0 L 559.5 169.0 L 552.4 169.3 L 545.4 170.0 L 538.6 170.9 L 532.0 172.3 L 525.7 173.9 L 519.7 176.0 L 519.7 176.0 L 513.9 178.5 L 508.1 181.5 L 502.5 184.9 L 496.9 188.7 L 491.4 193.0 L 486.1 197.5 L 480.9 202.3 L 475.8 207.5 L 471.0 212.8 L 466.3 218.3 L 461.8 224.0 L 457.5 229.8 L 453.5 235.6 L 449.7 241.5 L 446.2 247.4 L 443.0 253.3 L 443.0 253.3 L 440.1 259.3 L 437.4 265.5 L 434.9 271.9 L 432.6 278.5 L 430.6 285.3 L 428.8 292.2 L 427.2 299.2 L 425.8 306.3 L 424.6 313.4 L 423.6 320.6 L 422.8 327.8 L 422.3 335.0 L 421.9 342.1 L 421.7 349.1 L 421.7 356.1 L 421.8 362.9 L 421.8 362.9 L 422.2 369.6 L 422.9 376.4 L 423.7 383.2 L 424.8 390.0 L 426.1 396.8 L 427.6 403.6 L 429.3 410.4 L 431.2 417.2 L 433.2 423.9 L 435.4 430.6 L 437.8 437.2 L 440.3 443.7 L 442.9 450.2 L 445.6 456.5 L 448.5 462.8 L 451.4 469.0 L 451.4 469.0 L 454.8 475.0 L 458.7 481.0 L 463.2 486.8 L 468.1 492.5 L 473.3 498.2 L 478.7 503.8 L 484.2 509.3 L 489.6 514.8 L 494.8 520.2 L 499.8 525.6 L 504.3 531.1 L 508.4 536.5 L 511.8 541.9 L 514.5 547.4 L 516.4 552.9 L 517.3 558.5 L 517.3 558.5 L 517.3 564.2 L 516.6 569.9 L 515.2 575.8 L 513.3 581.7 L 510.8 587.6 L 507.8 593.5 L 504.4 599.4 L 500.6 605.3 L 496.5 611.1 L 492.1 616.9 L 487.5 622.5 L 482.8 628.0 L 478.0 633.4 L 473.2 638.5 L 468.4 643.5 L 463.7 648.3 L 463.7 648.3 L 458.8 652.7 L 453.5 656.8 L 447.9 660.7 L 442.0 664.3 L 435.9 667.8 L 429.5 671.1 L 423.1 674.3 L 416.6 677.4 L 410.0 680.6 L 403.5 683.8 L 397.1 687.1 L 390.8 690.6 L 384.8 694.2 L 378.9 698.1 L 373.4 702.3 L 368.2 706.8 L 368.2 706.8 L 363.3 711.6 L 358.5 716.5 L 353.9 721.6 L 349.4 726.9 L 345.1 732.4 L 340.8 737.9 L 336.7 743.6 L 332.7 749.4 L 328.8 755.3 L 325.0 761.3 L 321.3 767.3 L 317.7 773.4 L 314.3 779.5 L 310.9 785.6 L 307.6 791.8 L 304.4 797.9 L 304.4 797.9 L 301.3 804.2 L 298.4 810.5 L 295.6 816.8 L 293.0 823.3 L 290.5 829.8 L 288.1 836.4 L 285.8 843.1 L 283.6 849.8 L 281.4 856.5 L 279.3 863.2 L 277.2 870.0 L 275.1 876.8 L 273.1 883.5 L 271.0 890.3 L 268.9 897.0 L 266.7 903.7 L 266.7 903.7 L 264.5 910.3 L 262.4 917.0 L 260.3 923.7 L 258.2 930.4 L 256.1 937.1 L 254.1 943.8 L 252.0 950.5 L 250.0 957.2 L 248.0 964.0 L 246.1 970.7 L 244.1 977.4 L 242.1 984.2 L 240.2 990.9 L 238.3 997.7 L 237.6 1000.0" fill="none" stroke="#00e5ff" stroke-width="6.0" stroke-opacity="0.9"/><path d="M 381.7 1000.0 L 384.3 995.6 L 387.7 990.5 L 391.1 985.9 L 394.5 982.0 L 397.8 978.9 L 400.9 976.7 L 404.0 975.5 L 407.0 975.4 L 407.0 975.4 L 409.8 976.4 L 412.7 978.7 L 415.5 981.9 L 418.2 986.1 L 421.0 991.2 L 423.7 996.8 L 425.1 1000.0" fill="none" stroke="#00e5ff" stroke-width="6.0" stroke-opacity="0.9"/><path d="M 614.7 418.9 L 613.2 419.0 L 611.3 419.2 L 609.2 419.3 L 606.9 419.5 L 604.3 419.6 L 601.6 419.8 L 598.7 420.0 L 595.7 420.3 L 592.6 420.5 L 589.4 420.7 L 586.2 421.0 L 583.1 421.2 L 580.0 421.5 L 576.9 421.7 L 574.0 422.0 L 571.2 422.2 L 571.2 422.2 L 568.5 422.5 L 565.8 422.7 L 563.1 422.9 L 560.4 423.2 L 557.6 423.4 L 554.9 423.7 L 552.2 424.0 L 549.5 424.2 L 546.8 424.5 L 544.1 424.8 L 541.4 425.1 L 538.7 425.4 L 536.0 425.8 L 533.3 426.1 L 530.6 426.5 L 527.9 426.9 L 527.9 426.9 L 525.1 427.3 L 522.2 427.8 L 519.2 428.3 L 516.2 428.9 L 513.0 429.5 L 509.9 430.1 L 506.8 430.7 L 503.8 431.3 L 500.9 431.9 L 498.0 432.5 L 495.3 433.1 L 492.8 433.6 L 490.5 434.1 L 488.5 434.5 L 486.7 434.9 L 485.2 435.2" fill="none" stroke="#00e5ff" stroke-width="6.0" stroke-opacity="0.9"/></g><g id="clips"><circle cx="935.2" cy="1000.0" r="2" fill="none" stroke="#0b5" stroke-width="0.6"/><circle cx="1076.2" cy="1000.0" r="2" fill="none" stroke="#0b5" stroke-width="0.6"/><circle cx="1257.4" cy="1000.0" r="2" fill="none" stroke="#0b5" stroke-width="0.6"/><circle cx="710.0" cy="435.3" r="2" fill="none" stroke="#0b5" stroke-width="0.6"/><circle cx="738.5" cy="359.3" r="2" fill="none" stroke="#0b5" stroke-width="0.6"/><circle cx="237.6" cy="1000.0" r="2" fill="none" stroke="#0b5" stroke-width="0.6"/><circle cx="381.7" cy="1000.0" r="2" fill="none" stroke="#0b5" stroke-width="0.6"/><circle cx="614.7" cy="418.9" r="2" fill="none" stroke="#0b5" stroke-width="0.6"/><circle cx="485.2" cy="435.2" r="2" fill="none" stroke="#0b5" stroke-width="0.6"/></g><g id="power"><circle cx="935.1" cy="1000.0" r="5" fill="none" stroke="#e33" stroke-width="1"/><circle cx="1076.1" cy="1000.0" r="5" fill="none" stroke="#e33" stroke-width="1"/><circle cx="1257.4" cy="1000.0" r="5" fill="none" stroke="#e33" stroke-width="1"/><circle cx="237.6" cy="1000.0" r="5" fill="none" stroke="#e33" stroke-width="1"/><circle cx="381.7" cy="1000.0" r="5" fill="none" stroke="#e33" stroke-width="1"/><circle cx="425.1" cy="1000.0" r="5" fill="none" stroke="#e33" stroke-width="1"/></g></svg>