<svg xmlns="http://www.w3.org/2000/svg" width="2000mm" height="1000mm" viewBox="0 0 2000 1000"><g id="outline"><rect x="0" y="0" width="2000" height="1000" fill="none" stroke="#000" stroke-width="1"/></g><g id="channels"><path d="M 1181.9 208.9 L 1184.5 206.4 L 1187.6 203.5 L 1191.2 200.1 L 1195.1 196.3 L 1199.5 192.2 L 1204.1 187.8 L 1209.0 183.2 L 1214.1 178.3 L 1219.4 173.4 L 1224.7 168.3 L 1230.1 163.2 L 1235.4 158.1 L 1240.7 153.1 L 1245.9 148.3 L 1250.8 143.6 L 1255.6 139.1 L 1255.6 139.1 L 1260.2 134.7 L 1264.8 130.3 L 1269.4 125.9 L 1273.9 121.5 L 1278.5 117.1 L 1283.1 112.7 L 1287.6 108.2 L 1292.2 103.8 L 1296.8 99.4 L 1301.4 95.1 L 1306.1 90.7 L 1310.7 86.4 L 1315.4 82.1 L 1320.2 77.9 L 1325.0 73.7 L 1329.8 69.6 L 1329.8 69.6 L 1334.7 65.5 L 1339.5 61.5 L 1344.5 57.5 L 1349.4 53.5 L 1354.4 49.5 L 1359.4 45.5 L 1364.4 41.6 L 1369.5 37.8 L 1374.6 33.9 L 1379.7 30.1 L 1384.8 26.4 L 1390.0 22.7 L 1395.2 19.0 L 1400.4 15.4 L 1405.7 11.8 L 1411.0 8.3 L 1411.0 8.3 L 1416.3 4.9 L 1421.6 1.4 L 1423.8 0.0" fill="none" stroke="#a05bff" stroke-width="6.0" stroke-opacity="0.9"/><path d="M 1196.9 0.0 L 1195.1 1.2 L 1189.4 4.9 L 1183.7 8.6 L 1178.0 12.3 L 1172.3 15.9 L 1166.6 19.6 L 1161.0 23.4 L 1155.4 27.2 L 1149.9 31.1 L 1144.6 35.1 L 1139.4 39.2 L 1134.3 43.5 L 1129.4 47.9 L 1129.4 47.9 L 1124.3 52.5 L 1119.0 57.3 L 1113.5 62.2 L 1107.8 67.3 L 1102.2 72.5 L 1096.5 77.8 L 1091.0 83.2 L 1085.7 88.5 L 1080.8 93.9 L 1076.3 99.3 L 1072.2 104.7 L 1068.8 109.9 L 1066.0 115.1 L 1064.0 120.2 L 1062.9 125.2 L 1062.7 130.0 L 1062.7 130.0 L 1063.7 134.8 L 1066.0 139.7 L 1069.4 144.7 L 1073.7 149.7 L 1078.8 154.7 L 1084.5 159.7 L 1090.7 164.6 L 1097.1 169.4 L 1103.7 174.1 L 1110.3 178.5 L 1116.6 182.7 L 1122.6 186.6 L 1128.1 190.2 L 1132.9 193.4 L 1136.9 196.2 L 1139.9 198.6" fill="none" stroke="#a05bff" stroke-width="6.0" stroke-opacity="0.9"/></g><g id="clips"><circle cx="1181.9" cy="208.9" r="2" fill="none" stroke="#0b5" stroke-width="0.6"/><circle cx="1423.8" cy="0.0" r="2" fill="none" stroke="#0b5" stroke-width="0.6"/><circle cx="1196.9" cy="0.0" r="2" fill="none" stroke="#0b5" stroke-width="0.6"/><circle cx="1139.9" cy="198.6" r="2" fill="none" stroke="#0b5" stroke-width="0.6"/></g><g id="power"><circle cx="1196.9" cy="0.0" r="5" fill="none" stroke="#e33" stroke-width="1"/><circle cx="1423.8" cy="0.0" r="5" fill="none" stroke="#e33" stroke-width="1"/></g><g id="bridges"></g></svg>