<svg xmlns="http://www.w3.org/2000/svg" width="2000mm" height="1000mm" viewBox="0 0 2000 1000"><g id="outline"><rect x="0" y="0" width="2000" height="1000" fill="none" stroke="#000" stroke-width="1"/></g><g id="channels"><path d="M 1930.1 901.7 L 1929.2 898.1 L 1928.0 893.8 L 1926.6 888.9 L 1925.0 883.3 L 1923.3 877.3 L 1921.5 870.9 L 1919.6 864.1 L 1917.6 857.0 L 1915.6 849.7 L 1913.6 842.3 L 1911.7 834.8 L 1909.8 827.3 L 1908.1 819.9 L 1906.4 812.7 L 1904.9 805.7 L 1903.6 799.0 L 1903.6 799.0 L 1902.5 792.5 L 1901.5 785.9 L 1900.6 779.3 L 1899.8 772.8 L 1899.0 766.2 L 1898.3 759.5 L 1897.7 752.9 L 1897.1 746.3 L 1896.5 739.6 L 1896.0 733.0 L 1895.4 726.3 L 1894.8 719.7 L 1894.2 713.1 L 1893.6 706.4 L 1892.9 699.8 L 1892.2 693.2 L 1892.2 693.2 L 1891.4 686.6 L 1890.6 680.0 L 1889.8 673.4 L 1889.0 666.8 L 1888.1 660.2 L 1887.3 653.6 L 1886.5 647.0 L 1885.6 640.4 L 1884.8 633.8 L 1883.9 627.2 L 1883.1 620.6 L 1882.2 614.0 L 1881.3 607.4 L 1880.4 600.8 L 1879.6 594.2 L 1878.7 587.6 L 1878.7 587.6 L 1877.8 581.1 L 1876.9 574.5 L 1875.9 567.9 L 1875.0 561.3 L 1874.0 554.7 L 1873.1 548.1 L 1872.1 541.5 L 1871.2 535.0 L 1870.2 528.4 L 1869.2 521.8 L 1868.3 515.2 L 1867.4 508.6 L 1866.5 502.0 L 1865.6 495.5 L 1864.7 488.9 L 1863.9 482.3 L 1863.9 482.3 L 1863.1 475.7 L 1862.4 469.0 L 1861.8 462.4 L 1861.2 455.8 L 1860.7 449.1 L 1860.2 442.5 L 1859.6 435.8 L 1859.1 429.2 L 1858.5 422.5 L 1857.9 415.9 L 1857.3 409.3 L 1856.5 402.7 L 1855.7 396.1 L 1854.8 389.5 L 1853.7 383.0 L 1852.5 376.5 L 1852.5 376.5 L 1851.2 370.0 L 1849.8 363.5 L 1848.3 357.0 L 1846.8 350.6 L 1845.1 344.2 L 1843.4 337.7 L 1841.6 331.3 L 1839.8 324.9 L 1837.9 318.6 L 1836.0 312.2 L 1834.0 305.8 L 1832.0 299.5 L 1829.9 293.2 L 1827.8 286.9 L 1825.7 280.6 L 1823.6 274.3 L 1823.6 274.3 L 1821.4 268.0 L 1819.2 261.8 L 1816.9 255.5 L 1814.5 249.3 L 1812.1 243.1 L 1809.6 237.0 L 1807.1 230.8 L 1804.6 224.6 L 1802.1 218.5 L 1799.5 212.3 L 1796.9 206.2 L 1794.4 200.0 L 1791.8 193.9 L 1789.3 187.7 L 1786.8 181.6 L 1784.3 175.4 L 1784.3 175.4 L 1781.8 169.2 L 1779.3 163.1 L 1776.8 156.9 L 1774.4 150.7 L 1771.9 144.5 L 1769.4 138.4 L 1766.9 132.2 L 1764.4 126.0 L 1761.9 119.9 L 1759.4 113.7 L 1757.0 107.5 L 1754.5 101.4 L 1752.0 95.2 L 1749.5 89.0 L 1747.1 82.8 L 1744.6 76.6 L 1744.6 76.6 L 1742.2 70.5 L 1739.6 64.3 L 1737.1 58.2 L 1734.5 52.0 L 1731.9 45.9 L 1729.3 39.7 L 1726.8 33.6 L 1724.2 27.4 L 1721.7 21.2 L 1719.2 15.1 L 1716.8 8.9 L 1714.4 2.7 L 1713.5 0.0" fill="none" stroke="#ffd23d" stroke-width="6.0" stroke-opacity="0.9"/><path d="M 1015.7 0.0 L 1017.0 4.8 L 1018.8 11.2 L 1020.6 17.6 L 1022.4 24.0 L 1024.2 30.4 L 1026.0 36.8 L 1027.8 43.2 L 1029.6 49.6 L 1031.4 56.0 L 1033.3 62.4 L 1035.2 68.7 L 1037.2 75.1 L 1039.3 81.4 L 1039.3 81.4 L 1041.3 87.7 L 1043.3 94.1 L 1045.3 100.5 L 1047.2 106.9 L 1049.2 113.3 L 1051.2 119.6 L 1053.2 126.0 L 1055.3 132.4 L 1057.5 138.7 L 1059.7 145.0 L 1062.0 151.2 L 1064.4 157.4 L 1067.0 163.5 L 1069.6 169.5 L 1072.5 175.4 L 1075.5 181.3 L 1075.5 181.3 L 1078.6 187.0 L 1081.9 192.7 L 1085.3 198.4 L 1088.9 204.0 L 1092.5 209.5 L 1096.3 215.0 L 1100.1 220.4 L 1104.1 225.8 L 1108.1 231.1 L 1112.2 236.4 L 1116.4 241.6 L 1120.6 246.7 L 1124.9 251.8 L 1129.2 256.9 L 1133.6 261.9 L 1137.9 266.9 L 1137.9 266.9 L 1142.4 271.7 L 1147.1 276.4 L 1152.0 281.0 L 1157.0 285.4 L 1162.0 289.8 L 1167.2 294.1 L 1172.4 298.4 L 1177.6 302.7 L 1182.8 307.0 L 1187.9 311.3 L 1193.0 315.6 L 1197.9 320.1 L 1202.7 324.7 L 1207.3 329.4 L 1211.8 334.2 L 1215.9 339.2 L 1215.9 339.2 L 1220.0 344.4 L 1223.9 349.6 L 1227.8 355.0 L 1231.5 360.4 L 1235.2 365.9 L 1238.8 371.5 L 1242.2 377.1 L 1245.6 382.9 L 1248.8 388.7 L 1252.0 394.5 L 1255.0 400.4 L 1257.9 406.3 L 1260.6 412.3 L 1263.3 418.3 L 1265.8 424.4 L 1268.2 430.5 L 1268.2 430.5 L 1270.4 436.7 L 1272.3 442.9 L 1274.0 449.3 L 1275.4 455.7 L 1276.8 462.2 L 1278.0 468.8 L 1279.1 475.4 L 1280.1 482.0 L 1281.1 488.7 L 1282.1 495.3 L 1283.2 502.0 L 1284.3 508.6 L 1285.5 515.2 L 1286.8 521.7 L 1288.4 528.2 L 1290.1 534.6 L 1290.1 534.6 L 1292.0 541.0 L 1293.9 547.3 L 1295.9 553.6 L 1297.9 560.0 L 1300.0 566.3 L 1302.2 572.5 L 1304.4 578.8 L 1306.7 585.1 L 1309.1 591.3 L 1311.5 597.5 L 1313.9 603.6 L 1316.5 609.8 L 1319.0 615.9 L 1321.7 622.0 L 1324.4 628.0 L 1327.2 634.1 L 1327.2 634.1 L 1330.1 640.0 L 1333.2 645.9 L 1336.4 651.7 L 1339.8 657.5 L 1343.3 663.3 L 1346.8 669.0 L 1350.4 674.7 L 1354.0 680.3 L 1357.6 686.0 L 1361.1 691.7 L 1364.6 697.4 L 1368.0 703.1 L 1371.2 708.9 L 1374.2 714.7 L 1377.1 720.6 L 1379.7 726.6 L 1379.7 726.6 L 1382.3 732.8 L 1385.2 739.3 L 1388.3 746.0 L 1391.4 752.9 L 1394.5 760.0 L 1397.6 767.1 L 1400.5 774.2 L 1403.1 781.1 L 1405.5 788.0 L 1407.5 794.6 L 1409.1 800.9 L 1410.1 806.9 L 1410.5 812.4 L 1410.2 817.5 L 1409.2 822.0 L 1407.3 825.9 L 1407.3 825.9 L 1404.4 829.2 L 1400.6 832.2 L 1395.9 834.9 L 1390.4 837.2 L 1384.3 839.1 L 1377.6 840.8 L 1370.5 842.1 L 1363.0 843.0 L 1355.4 843.7 L 1347.7 844.0 L 1339.9 844.0 L 1332.3 843.8 L 1325.0 843.2 L 1318.0 842.3 L 1311.4 841.1 L 1305.5 839.7 L 1305.5 839.7 L 1299.9 837.8 L 1294.3 835.6 L 1288.7 832.8 L 1283.3 829.8 L 1277.9 826.3 L 1272.6 822.6 L 1267.4 818.5 L 1262.3 814.2 L 1257.3 809.7 L 1252.4 805.0 L 1247.7 800.1 L 1243.2 795.2 L 1238.8 790.1 L 1234.6 785.0 L 1230.5 779.9 L 1226.7 774.8 L 1226.7 774.8 L 1223.1 769.5 L 1219.8 764.1 L 1216.8 758.4 L 1214.0 752.5 L 1211.3 746.4 L 1208.9 740.2 L 1206.5 733.9 L 1204.3 727.5 L 1202.1 721.1 L 1200.0 714.6 L 1197.8 708.1 L 1195.6 701.7 L 1193.3 695.2 L 1191.0 688.9 L 1188.5 682.7 L 1185.8 676.5 L 1185.8 676.5 L 1183.0 670.5 L 1180.2 664.5 L 1177.3 658.5 L 1174.3 652.6 L 1171.3 646.6 L 1168.3 640.7 L 1165.3 634.8 L 1162.3 628.8 L 1159.2 622.9 L 1156.2 617.0 L 1153.1 611.1 L 1150.1 605.2 L 1147.1 599.2 L 1144.1 593.3 L 1141.2 587.3 L 1138.3 581.3 L 1138.3 581.3 L 1135.4 575.3 L 1132.6 569.3 L 1129.8 563.3 L 1127.1 557.2 L 1124.3 551.1 L 1121.6 545.1 L 1118.9 539.0 L 1116.2 532.9 L 1113.5 526.8 L 1110.8 520.8 L 1108.0 514.7 L 1105.2 508.7 L 1102.4 502.6 L 1099.6 496.6 L 1096.7 490.7 L 1093.7 484.7 L 1093.7 484.7 L 1090.8 478.8 L 1087.7 472.8 L 1084.7 466.9 L 1081.7 461.0 L 1078.6 455.1 L 1075.5 449.2 L 1072.4 443.3 L 1069.3 437.5 L 1066.1 431.6 L 1062.9 425.8 L 1059.7 420.0 L 1056.4 414.2 L 1053.1 408.4 L 1049.7 402.7 L 1046.3 397.0 L 1042.9 391.3 L 1042.9 391.3 L 1039.4 385.7 L 1035.8 380.0 L 1032.2 374.5 L 1028.6 368.9 L 1024.9 363.4 L 1021.2 357.9 L 1017.4 352.4 L 1013.6 346.9 L 1009.8 341.5 L 1006.0 336.0 L 1002.1 330.6 L 998.3 325.2 L 994.4 319.7 L 990.6 314.3 L 986.8 308.8 L 982.9 303.4 L 982.9 303.4 L 979.1 298.0 L 975.3 292.5 L 971.4 287.1 L 967.6 281.7 L 963.7 276.3 L 959.8 270.9 L 955.9 265.5 L 952.0 260.1 L 948.1 254.7 L 944.2 249.3 L 940.3 243.9 L 936.5 238.5 L 932.6 233.1 L 928.7 227.7 L 924.9 222.3 L 921.0 216.8 L 921.0 216.8 L 917.2 211.4 L 913.4 206.0 L 909.5 200.5 L 905.7 195.1 L 901.9 189.7 L 898.0 184.2 L 894.2 178.8 L 890.4 173.3 L 886.6 167.9 L 882.8 162.4 L 879.0 156.9 L 875.3 151.5 L 871.5 146.0 L 867.8 140.5 L 864.1 134.9 L 860.4 129.4 L 860.4 129.4 L 856.7 123.9 L 853.0 118.3 L 849.4 112.7 L 845.8 107.2 L 842.2 101.6 L 838.6 96.0 L 835.1 90.3 L 831.5 84.7 L 828.0 79.1 L 824.4 73.5 L 820.9 67.8 L 817.3 62.2 L 813.8 56.6 L 810.2 51.0 L 806.7 45.3 L 803.1 39.7 L 803.1 39.7 L 799.6 34.1 L 796.0 28.5 L 792.5 22.8 L 789.0 17.2 L 785.4 11.6 L 781.9 5.9 L 778.4 0.3 L 778.2 0.0" fill="none" stroke="#ffd23d" stroke-width="6.0" stroke-opacity="0.9"/><path d="M 1986.6 0.0 L 1986.8 1.6 L 1987.5 8.2 L 1988.1 14.8 L 1988.5 21.5 L 1988.9 28.1 L 1989.2 34.7 L 1989.2 34.7 L 1989.4 41.3 L 1989.4 47.9 L 1989.3 54.6 L 1989.1 61.2 L 1988.8 67.8 L 1988.5 74.5 L 1988.0 81.1 L 1987.6 87.7 L 1987.0 94.4 L 1986.5 101.0 L 1985.9 107.7 L 1985.4 114.3 L 1984.8 121.0 L 1984.3 127.6 L 1983.8 134.3 L 1983.4 140.9 L 1983.4 140.9 L 1982.9 147.5 L 1982.4 154.2 L 1981.9 160.8 L 1981.4 167.4 L 1980.8 174.1 L 1980.2 180.7 L 1979.6 187.3 L 1979.1 194.0 L 1978.5 200.6 L 1978.0 207.3 L 1977.5 213.9 L 1977.1 220.5 L 1976.8 227.2 L 1976.5 233.8 L 1976.3 240.4 L 1976.2 247.1 L 1976.2 247.1 L 1976.1 253.7 L 1976.1 260.3 L 1976.0 267.0 L 1976.0 273.7 L 1976.1 280.4 L 1976.1 287.0 L 1976.3 293.7 L 1976.5 300.4 L 1976.7 307.0 L 1977.1 313.7 L 1977.5 320.3 L 1978.1 326.9 L 1978.8 333.5 L 1979.6 340.1 L 1980.5 346.6 L 1981.6 353.1 L 1981.6 353.1 L 1982.9 359.6 L 1984.3 366.0 L 1986.0 372.4 L 1987.9 378.7 L 1989.8 385.1 L 1991.9 391.4 L 1994.1 397.7 L 1996.4 403.9 L 1998.6 410.2 L 2000.0 414.0" fill="none" stroke="#ffd23d" stroke-width="6.0" stroke-opacity="0.9"/><path d="M 2000.0 914.7 L 1999.3 915.5 L 1995.5 919.6 L 1991.9 923.5 L 1988.8 927.0 L 1986.1 930.0 L 1983.9 932.6" fill="none" stroke="#ffd23d" stroke-width="6.0" stroke-opacity="0.9"/></g><g id="clips"><circle cx="1930.1" cy="901.7" r="2" fill="none" stroke="#0b5" stroke-width="0.6"/><circle cx="1713.5" cy="0.0" r="2" fill="none" stroke="#0b5" stroke-width="0.6"/><circle cx="1015.7" cy="0.0" r="2" fill="none" stroke="#0b5" stroke-width="0.6"/><circle cx="778.2" cy="0.0" r="2" fill="none" stroke="#0b5" stroke-width="0.6"/><circle cx="1986.6" cy="0.0" r="2" fill="none" stroke="#0b5" stroke-width="0.6"/><circle cx="2000.0" cy="414.0" r="2" fill="none" stroke="#0b5" stroke-width="0.6"/><circle cx="2000.0" cy="914.7" r="2" fill="none" stroke="#0b5" stroke-width="0.6"/></g><g id="power"><circle cx="1713.4" cy="0.0" r="5" fill="none" stroke="#e33" stroke-width="1"/><circle cx="1015.6" cy="0.0" r="5" fill="none" stroke="#e33" stroke-width="1"/><circle cx="778.2" cy="0.0" r="5" fill="none" stroke="#e33" stroke-width="1"/><circle cx="1986.6" cy="0.0" r="5" fill="none" stroke="#e33" stroke-width="1"/><circle cx="2000.0" cy="413.9" r="5" fill="none" stroke="#e33" stroke-width="1"/><circle cx="2000.0" cy="914.8" r="5" fill="none" stroke="#e33" stroke-width="1"/></g></svg>