<svg xmlns="http://www.w3.org/2000/svg" width="2000mm" height="1000mm" viewBox="0 0 2000 1000"><g id="outline"><rect x="0" y="0" width="2000" height="1000" fill="none" stroke="#000" stroke-width="1"/></g><g id="channels"><path d="M 923.8 1000.0 L 927.0 998.0 L 932.4 994.7 L 937.8 991.3 L 943.3 988.1 L 948.8 984.8 L 954.3 981.7 L 959.8 978.5 L 965.4 975.4 L 971.0 972.4 L 976.6 969.4 L 982.2 966.5 L 987.9 963.7 L 993.6 960.9 L 999.3 958.2 L 999.3 958.2 L 1005.1 955.5 L 1010.9 953.0 L 1016.7 950.5 L 1022.6 948.1 L 1028.5 945.8 L 1034.4 943.5 L 1040.4 941.3 L 1046.4 939.1 L 1052.4 936.9 L 1058.4 934.8 L 1064.4 932.7 L 1070.4 930.7 L 1076.5 928.6 L 1082.5 926.6 L 1088.5 924.5 L 1094.5 922.4 L 1094.5 922.4 L 1100.6 920.4 L 1106.6 918.5 L 1112.7 916.6 L 1118.8 914.8 L 1124.9 913.0 L 1131.0 911.2 L 1137.2 909.5 L 1143.3 907.7 L 1149.4 906.0 L 1155.5 904.2 L 1161.6 902.3 L 1167.7 900.5 L 1173.7 898.5 L 1179.8 896.5 L 1185.7 894.4 L 1191.7 892.2 L 1191.7 892.2 L 1197.6 890.0 L 1203.6 887.7 L 1209.5 885.4 L 1215.5 883.1 L 1221.4 880.8 L 1227.4 878.4 L 1233.3 876.0 L 1239.2 873.5 L 1245.0 870.9 L 1250.8 868.3 L 1256.5 865.5 L 1262.2 862.7 L 1267.8 859.8 L 1273.4 856.8 L 1278.8 853.6 L 1284.2 850.4 L 1284.2 850.4 L 1289.5 847.0 L 1294.7 843.4 L 1299.9 839.8 L 1304.9 836.0 L 1310.0 832.1 L 1314.9 828.2 L 1319.8 824.1 L 1324.7 820.0 L 1329.5 815.8 L 1334.2 811.5 L 1338.9 807.3 L 1343.6 802.9 L 1348.3 798.6 L 1352.9 794.2 L 1357.5 789.8 L 1362.1 785.4 L 1362.1 785.4 L 1366.6 781.0 L 1371.0 776.4 L 1375.3 771.7 L 1379.5 766.9 L 1383.7 762.1 L 1387.8 757.2 L 1391.9 752.3 L 1395.9 747.3 L 1400.0 742.4 L 1404.2 737.5 L 1408.3 732.7 L 1412.6 728.0 L 1416.9 723.3 L 1421.3 718.8 L 1425.8 714.4 L 1430.5 710.1 L 1430.5 710.1 L 1435.2 706.0 L 1440.1 701.9 L 1445.0 697.9 L 1450.0 694.0 L 1455.0 690.1 L 1460.1 686.3 L 1465.2 682.6 L 1470.4 678.9 L 1475.7 675.3 L 1481.0 671.8 L 1486.3 668.3 L 1491.7 664.9 L 1497.1 661.6 L 1502.6 658.4 L 1508.0 655.2 L 1513.6 652.2 L 1513.6 652.2 L 1519.1 649.2 L 1524.8 646.4 L 1530.5 643.6 L 1536.3 641.0 L 1542.1 638.5 L 1548.0 636.1 L 1553.9 633.7 L 1559.8 631.4 L 1565.8 629.1 L 1571.7 626.8 L 1577.7 624.5 L 1583.7 622.2 L 1589.6 619.9 L 1595.5 617.6 L 1601.4 615.2 L 1607.3 612.7 L 1607.3 612.7 L 1613.2 610.2 L 1619.0 607.7 L 1624.8 605.2 L 1630.7 602.7 L 1636.5 600.2 L 1642.4 597.7 L 1648.2 595.2 L 1654.1 592.6 L 1659.9 590.1 L 1665.7 587.5 L 1671.5 585.0 L 1677.3 582.4 L 1683.1 579.8 L 1688.9 577.1 L 1694.7 574.5 L 1700.4 571.8 L 1700.4 571.8 L 1706.2 569.0 L 1711.9 566.2 L 1717.5 563.3 L 1723.2 560.4 L 1728.8 557.4 L 1734.5 554.5 L 1740.1 551.5 L 1745.7 548.5 L 1751.3 545.5 L 1757.0 542.5 L 1762.6 539.6 L 1768.3 536.7 L 1774.0 533.9 L 1779.7 531.2 L 1785.5 528.5 L 1791.3 525.9 L 1791.3 525.9 L 1797.1 523.4 L 1803.0 521.1 L 1808.9 518.8 L 1814.9 516.5 L 1820.8 514.4 L 1826.8 512.3 L 1832.9 510.2 L 1838.9 508.1 L 1844.9 506.0 L 1850.9 504.0 L 1856.9 501.9 L 1862.9 499.8 L 1868.9 497.6 L 1874.9 495.4 L 1880.8 493.1 L 1886.7 490.7 L 1886.7 490.7 L 1892.5 488.2 L 1898.4 485.8 L 1904.2 483.3 L 1910.1 480.9 L 1915.9 478.4 L 1921.8 475.8 L 1927.6 473.3 L 1933.4 470.7 L 1939.2 468.0 L 1944.9 465.3 L 1950.7 462.6 L 1956.4 459.8 L 1962.0 456.9 L 1967.6 454.0 L 1973.2 451.0 L 1978.7 447.9 L 1978.7 447.9 L 1984.2 444.7 L 1989.6 441.5 L 1995.0 438.1 L 2000.0 434.8" fill="none" stroke="#a05bff" stroke-width="6.0" stroke-opacity="0.9"/><path d="M 2000.0 584.3 L 1994.3 585.6 L 1988.1 586.8 L 1981.9 587.9 L 1975.6 588.8 L 1969.4 589.5 L 1963.2 589.9 L 1963.2 589.9 L 1957.0 590.1 L 1950.6 589.9 L 1944.2 589.3 L 1937.8 588.4 L 1931.3 587.4 L 1924.7 586.1 L 1918.2 584.8 L 1911.7 583.4 L 1905.3 582.0 L 1898.9 580.7 L 1892.5 579.4 L 1886.3 578.4 L 1880.1 577.6 L 1874.1 577.1 L 1868.3 576.9 L 1862.5 577.1 L 1862.5 577.1 L 1857.0 577.7 L 1851.7 578.6 L 1846.5 579.7 L 1841.4 581.0 L 1836.5 582.5 L 1831.7 584.2 L 1826.9 586.0 L 1822.2 587.9 L 1817.5 589.9 L 1812.7 592.0 L 1808.0 594.1 L 1803.2 596.2 L 1798.3 598.3 L 1793.3 600.3 L 1788.1 602.2 L 1782.8 604.1 L 1782.8 604.1 L 1777.2 605.8 L 1771.2 607.5 L 1764.9 609.2 L 1758.4 610.9 L 1751.7 612.5 L 1744.9 614.2 L 1738.1 615.8 L 1731.4 617.5 L 1724.9 619.3 L 1718.6 621.1 L 1712.6 623.0 L 1707.0 625.0 L 1701.9 627.1 L 1697.3 629.3 L 1693.4 631.6 L 1690.2 634.1 L 1690.2 634.1 L 1687.7 636.8 L 1685.9 639.6 L 1684.7 642.6 L 1684.0 645.8 L 1683.8 649.0 L 1684.0 652.4 L 1684.5 655.8 L 1685.2 659.3 L 1686.1 662.8 L 1687.2 666.3 L 1688.3 669.8 L 1689.3 673.2 L 1690.2 676.5 L 1691.0 679.8 L 1691.5 683.0 L 1691.7 686.0 L 1691.7 686.0 L 1691.6 689.0 L 1691.1 692.0 L 1690.4 695.0 L 1689.6 698.0 L 1688.7 701.1 L 1687.7 704.0 L 1686.8 707.0 L 1685.9 709.9 L 1685.3 712.6 L 1684.8 715.3 L 1684.7 717.9 L 1684.9 720.3 L 1685.5 722.6 L 1686.7 724.7 L 1688.4 726.6 L 1690.7 728.2 L 1690.7 728.2 L 1693.6 729.8 L 1697.1 731.2 L 1701.2 732.5 L 1705.7 733.7 L 1710.6 734.7 L 1715.9 735.6 L 1721.5 736.4 L 1727.3 737.1 L 1733.4 737.6 L 1739.5 737.9 L 1745.7 738.1 L 1752.0 738.1 L 1758.2 737.9 L 1764.3 737.6 L 1770.3 737.0 L 1776.1 736.3 L 1776.1 736.3 L 1781.8 735.3 L 1787.5 734.0 L 1793.3 732.4 L 1799.2 730.5 L 1805.1 728.5 L 1811.1 726.2 L 1817.1 723.9 L 1823.1 721.4 L 1829.2 718.8 L 1835.2 716.2 L 1841.3 713.6 L 1847.4 711.0 L 1853.5 708.5 L 1859.5 706.1 L 1865.6 703.8 L 1871.6 701.7 L 1871.6 701.7 L 1877.7 699.7 L 1883.7 697.7 L 1889.7 695.7 L 1895.8 693.8 L 1901.9 691.9 L 1907.9 690.1 L 1914.0 688.2 L 1920.1 686.4 L 1926.2 684.5 L 1932.3 682.7 L 1938.4 680.8 L 1944.4 679.0 L 1950.5 677.1 L 1956.6 675.3 L 1962.7 673.4 L 1968.7 671.5 L 1968.7 671.5 L 1974.8 669.6 L 1980.9 667.6 L 1986.9 665.7 L 1993.0 663.8 L 1999.0 661.8 L 2000.0 661.5" fill="none" stroke="#a05bff" stroke-width="6.0" stroke-opacity="0.9"/><path d="M 1517.8 0.0 L 1513.7 1.5 L 1513.7 1.5 L 1507.8 3.6 L 1502.0 5.8 L 1496.2 8.0 L 1490.5 10.3 L 1484.7 12.6 L 1479.0 15.0 L 1473.2 17.4 L 1467.5 19.8 L 1461.8 22.3 L 1456.1 24.8 L 1450.4 27.3 L 1444.8 29.8 L 1439.1 32.4 L 1433.5 34.9 L 1427.8 37.5 L 1422.2 40.1 L 1422.2 40.1 L 1416.6 42.7 L 1410.9 45.4 L 1405.3 48.0 L 1399.7 50.7 L 1394.2 53.4 L 1388.6 56.2 L 1383.0 58.9 L 1377.5 61.7 L 1371.9 64.5 L 1366.4 67.4 L 1360.9 70.2 L 1355.4 73.1 L 1349.9 76.0 L 1344.4 79.0 L 1339.0 81.9 L 1333.6 84.9 L 1333.6 84.9 L 1328.1 88.0 L 1322.8 91.1 L 1317.4 94.2 L 1312.1 97.4 L 1306.8 100.7 L 1301.6 104.0 L 1296.3 107.3 L 1291.0 110.6 L 1285.8 113.9 L 1280.5 117.2 L 1275.3 120.5 L 1270.0 123.8 L 1264.7 127.0 L 1259.4 130.2 L 1254.0 133.4 L 1248.7 136.5 L 1248.7 136.5 L 1243.3 139.6 L 1237.9 142.6 L 1232.5 145.6 L 1227.0 148.6 L 1221.6 151.6 L 1216.1 154.5 L 1210.7 157.5 L 1205.2 160.4 L 1199.7 163.3 L 1194.2 166.2 L 1188.7 169.1 L 1183.2 172.0 L 1177.7 174.9 L 1172.3 177.8 L 1166.8 180.7 L 1161.3 183.6 L 1161.3 183.6 L 1155.8 186.5 L 1150.3 189.3 L 1144.7 192.1 L 1139.2 194.8 L 1133.6 197.6 L 1128.0 200.3 L 1122.4 203.1 L 1116.8 205.8 L 1111.3 208.6 L 1105.7 211.4 L 1100.2 214.3 L 1094.8 217.2 L 1089.3 220.2 L 1084.0 223.2 L 1078.6 226.4 L 1073.4 229.6 L 1073.4 229.6 L 1068.2 233.0 L 1063.0 236.4 L 1057.9 239.8 L 1052.8 243.4 L 1047.7 247.0 L 1042.7 250.6 L 1037.7 254.3 L 1032.7 258.0 L 1027.8 261.8 L 1022.9 265.6 L 1018.0 269.5 L 1013.1 273.3 L 1008.3 277.2 L 1003.5 281.2 L 998.7 285.1 L 993.9 289.1 L 993.9 289.1 L 989.1 293.0 L 984.4 297.1 L 979.8 301.2 L 975.1 305.3 L 970.5 309.5 L 966.0 313.6 L 961.4 317.9 L 956.9 322.1 L 952.4 326.4 L 947.9 330.7 L 943.3 334.9 L 938.8 339.2 L 934.3 343.5 L 929.8 347.7 L 925.3 352.0 L 920.7 356.2 L 920.7 356.2 L 916.2 360.5 L 911.7 364.8 L 907.3 369.1 L 902.8 373.5 L 898.4 377.9 L 894.0 382.3 L 889.6 386.7 L 885.2 391.1 L 880.7 395.4 L 876.2 399.8 L 871.7 404.0 L 867.1 408.2 L 862.5 412.3 L 857.8 416.3 L 853.1 420.2 L 848.2 424.0 L 848.2 424.0 L 843.3 427.8 L 838.3 431.5 L 833.3 435.1 L 828.2 438.7 L 823.1 442.3 L 818.0 445.8 L 812.8 449.3 L 807.6 452.6 L 802.3 455.9 L 796.9 459.1 L 791.6 462.2 L 786.1 465.2 L 780.7 468.1 L 775.2 470.8 L 769.6 473.5 L 764.0 476.0 L 764.0 476.0 L 758.3 478.3 L 752.6 480.5 L 746.8 482.6 L 741.0 484.5 L 735.0 486.4 L 729.1 488.1 L 723.1 489.7 L 717.1 491.3 L 711.0 492.7 L 704.9 494.1 L 698.8 495.5 L 692.7 496.8 L 686.6 498.1 L 680.5 499.4 L 674.4 500.7 L 668.4 502.0 L 668.4 502.0 L 662.3 503.2 L 656.2 504.3 L 650.0 505.3 L 643.9 506.2 L 637.7 507.0 L 631.5 507.8 L 625.3 508.5 L 619.1 509.2 L 612.9 510.0 L 606.7 510.8 L 600.6 511.6 L 594.4 512.5 L 588.3 513.5 L 582.2 514.7 L 576.2 515.9 L 570.2 517.3 L 570.2 517.3 L 564.2 518.8 L 557.9 520.2 L 551.6 521.5 L 545.2 522.8 L 538.7 524.2 L 532.2 525.6 L 525.8 527.1 L 519.5 528.7 L 513.3 530.5 L 507.3 532.4 L 501.6 534.6 L 496.1 537.0 L 490.9 539.7 L 486.1 542.8 L 481.7 546.1 L 477.7 549.9 L 477.7 549.9 L 474.2 554.3 L 471.1 559.4 L 468.3 565.1 L 465.9 571.3 L 463.8 577.9 L 461.9 584.8 L 460.3 591.9 L 458.8 599.0 L 457.6 606.1 L 456.5 613.0 L 455.5 619.5 L 454.6 625.7 L 453.8 631.4 L 453.1 636.4 L 452.3 640.7 L 451.5 644.1" fill="none" stroke="#a05bff" stroke-width="6.0" stroke-opacity="0.9"/><path d="M 463.6 668.7 L 466.7 669.1 L 470.5 669.6 L 474.8 670.3 L 479.6 671.1 L 484.9 671.9 L 490.5 672.9 L 496.4 673.8 L 502.6 674.7 L 509.0 675.5 L 515.5 676.3 L 522.1 676.9 L 528.7 677.3 L 535.3 677.5 L 541.8 677.5 L 548.2 677.2 L 554.4 676.6 L 554.4 676.6 L 560.4 675.7 L 566.6 674.5 L 572.8 673.0 L 579.1 671.2 L 585.5 669.3 L 591.9 667.2 L 598.3 665.0 L 604.8 662.7 L 611.3 660.2 L 617.8 657.8 L 624.3 655.3 L 630.9 652.9 L 637.4 650.6 L 643.9 648.3 L 650.4 646.1 L 656.8 644.1 L 656.8 644.1 L 663.3 642.3 L 669.8 640.7 L 676.4 639.2 L 683.1 637.8 L 689.8 636.4 L 696.5 635.1 L 703.2 633.8 L 709.9 632.4 L 716.5 631.0 L 723.0 629.4 L 729.5 627.7 L 735.9 625.8 L 742.1 623.7 L 748.2 621.3 L 754.2 618.7 L 759.9 615.7 L 759.9 615.7 L 765.5 612.3 L 770.9 608.6 L 776.0 604.5 L 781.1 600.2 L 785.9 595.6 L 790.7 590.9 L 795.4 586.0 L 800.1 581.0 L 804.7 576.0 L 809.4 570.9 L 814.0 565.9 L 818.7 560.9 L 823.5 556.0 L 828.4 551.3 L 833.4 546.8 L 838.6 542.6 L 838.6 542.6 L 843.9 538.5 L 849.2 534.4 L 854.6 530.4 L 860.0 526.5 L 865.5 522.6 L 871.0 518.8 L 876.5 515.0 L 882.1 511.3 L 887.8 507.6 L 893.5 504.0 L 899.2 500.5 L 904.9 497.0 L 910.7 493.6 L 916.5 490.2 L 922.3 486.9 L 928.2 483.7 L 928.2 483.7 L 934.1 480.6 L 940.1 477.5 L 946.1 474.6 L 952.2 471.7 L 958.3 468.9 L 964.5 466.2 L 970.7 463.5 L 976.9 460.9 L 983.1 458.3 L 989.3 455.7 L 995.6 453.2 L 1001.9 450.7 L 1008.1 448.2 L 1014.4 445.6 L 1020.6 443.1 L 1026.9 440.6 L 1026.9 440.6 L 1033.1 438.0 L 1039.3 435.5 L 1045.6 433.1 L 1051.9 430.6 L 1058.2 428.2 L 1064.4 425.8 L 1070.7 423.4 L 1077.0 421.0 L 1083.3 418.6 L 1089.6 416.3 L 1095.9 413.9 L 1102.2 411.5 L 1108.5 409.1 L 1114.8 406.7 L 1121.1 404.3 L 1127.3 401.8 L 1127.3 401.8 L 1133.6 399.4 L 1139.9 397.0 L 1146.3 394.7 L 1152.7 392.4 L 1159.0 390.2 L 1165.4 387.9 L 1171.8 385.6 L 1178.2 383.3 L 1184.5 380.9 L 1190.8 378.5 L 1197.0 376.0 L 1203.2 373.4 L 1209.3 370.6 L 1215.3 367.8 L 1221.3 364.7 L 1227.1 361.5 L 1227.1 361.5 L 1232.8 358.1 L 1238.5 354.6 L 1244.0 350.8 L 1249.4 346.9 L 1254.8 342.9 L 1260.1 338.8 L 1265.3 334.6 L 1270.5 330.4 L 1275.7 326.1 L 1280.9 321.7 L 1286.1 317.4 L 1291.3 313.1 L 1296.5 308.9 L 1301.8 304.7 L 1307.1 300.6 L 1312.5 296.6 L 1312.5 296.6 L 1317.9 292.6 L 1323.2 288.6 L 1328.6 284.5 L 1333.9 280.3 L 1339.2 276.2 L 1344.5 272.0 L 1349.9 267.9 L 1355.3 263.8 L 1360.7 259.8 L 1366.1 255.9 L 1371.6 252.1 L 1377.2 248.5 L 1382.8 245.0 L 1388.6 241.7 L 1394.4 238.6 L 1400.4 235.8 L 1400.4 235.8 L 1406.4 233.1 L 1412.6 230.7 L 1418.8 228.5 L 1425.2 226.4 L 1431.6 224.5 L 1438.1 222.7 L 1444.7 221.1 L 1451.2 219.5 L 1457.9 218.0 L 1464.5 216.7 L 1471.2 215.3 L 1477.9 214.0 L 1484.6 212.8 L 1491.2 211.5 L 1497.9 210.2 L 1504.5 208.9 L 1504.5 208.9 L 1511.0 207.6 L 1517.6 206.3 L 1524.3 205.1 L 1530.9 203.9 L 1537.5 202.8 L 1544.2 201.7 L 1550.8 200.6 L 1557.5 199.6 L 1564.2 198.7 L 1570.8 197.7 L 1577.5 196.9 L 1584.2 196.1 L 1590.9 195.3 L 1597.6 194.6 L 1604.3 193.9 L 1610.9 193.3 L 1610.9 193.3 L 1617.6 192.7 L 1624.4 192.2 L 1631.1 191.8 L 1637.8 191.3 L 1644.5 191.0 L 1651.3 190.7 L 1658.0 190.4 L 1664.7 190.2 L 1671.5 190.0 L 1678.2 189.9 L 1685.0 189.8 L 1691.7 189.8 L 1698.4 189.8 L 1705.1 189.8 L 1711.8 189.9 L 1718.5 190.1 L 1718.5 190.1 L 1725.5 190.1 L 1732.9 190.1 L 1740.6 189.9 L 1748.6 189.6 L 1756.8 189.3 L 1764.9 189.1 L 1773.0 188.9 L 1780.9 188.9 L 1788.5 189.0 L 1795.7 189.4 L 1802.5 190.0 L 1808.6 190.9 L 1814.1 192.2 L 1818.7 193.8 L 1822.4 195.9 L 1825.1 198.5 L 1825.1 198.5 L 1826.8 201.7 L 1827.6 205.5 L 1827.7 209.8 L 1827.0 214.6 L 1825.7 219.8 L 1823.8 225.3 L 1821.4 231.0 L 1818.5 236.9 L 1815.3 242.9 L 1811.7 248.9 L 1807.9 254.9 L 1803.9 260.8 L 1799.8 266.5 L 1795.6 271.9 L 1791.5 277.0 L 1787.4 281.7 L 1787.4 281.7 L 1783.3 286.1 L 1778.8 290.3 L 1773.9 294.4 L 1768.8 298.4 L 1763.4 302.3 L 1757.9 306.1 L 1752.1 309.8 L 1746.2 313.4 L 1740.2 317.0 L 1734.1 320.5 L 1728.0 324.0 L 1721.8 327.5 L 1715.7 330.9 L 1709.7 334.4 L 1703.7 337.9 L 1697.9 341.3 L 1697.9 341.3 L 1692.1 344.8 L 1686.3 348.2 L 1680.5 351.5 L 1674.6 354.8 L 1668.7 358.1 L 1662.8 361.3 L 1656.9 364.5 L 1650.9 367.7 L 1645.0 370.8 L 1639.1 374.0 L 1633.1 377.2 L 1627.2 380.4 L 1621.3 383.6 L 1615.4 386.8 L 1609.5 390.1 L 1603.7 393.4 L 1603.7 393.4 L 1597.8 396.8 L 1592.0 400.2 L 1586.2 403.5 L 1580.4 406.9 L 1574.5 410.3 L 1568.7 413.7 L 1562.9 417.1 L 1557.1 420.6 L 1551.4 424.0 L 1545.6 427.5 L 1539.8 431.0 L 1534.1 434.5 L 1528.4 438.0 L 1522.7 441.6 L 1517.0 445.1 L 1511.3 448.8 L 1511.3 448.8 L 1505.7 452.4 L 1500.1 456.1 L 1494.5 459.9 L 1488.9 463.6 L 1483.3 467.4 L 1477.8 471.2 L 1472.3 475.1 L 1466.8 478.9 L 1461.2 482.8 L 1455.7 486.7 L 1450.2 490.5 L 1444.7 494.4 L 1439.2 498.2 L 1433.6 502.1 L 1428.1 505.9 L 1422.5 509.7 L 1422.5 509.7 L 1416.9 513.4 L 1411.4 517.2 L 1405.8 521.0 L 1400.2 524.8 L 1394.7 528.6 L 1389.1 532.4 L 1383.5 536.1 L 1378.0 539.9 L 1372.4 543.6 L 1366.8 547.4 L 1361.2 551.1 L 1355.5 554.8 L 1349.9 558.4 L 1344.2 562.1 L 1338.5 565.7 L 1332.8 569.2 L 1332.8 569.2 L 1327.1 572.8 L 1321.3 576.2 L 1315.5 579.6 L 1309.7 583.0 L 1303.9 586.4 L 1298.0 589.7 L 1292.2 593.0 L 1286.3 596.3 L 1280.4 599.6 L 1274.6 602.9 L 1268.7 606.2 L 1262.8 609.5 L 1257.0 612.9 L 1251.2 616.2 L 1245.4 619.6 L 1239.6 623.1 L 1239.6 623.1 L 1233.8 626.6 L 1228.0 630.0 L 1222.2 633.4 L 1216.4 636.7 L 1210.5 640.1 L 1204.7 643.5 L 1198.8 646.9 L 1193.0 650.4 L 1187.3 653.8 L 1181.6 657.4 L 1175.9 661.0 L 1170.3 664.7 L 1164.8 668.5 L 1159.4 672.4 L 1154.0 676.4 L 1148.8 680.6 L 1148.8 680.6 L 1143.7 684.9 L 1138.8 689.4 L 1133.9 694.0 L 1129.2 698.7 L 1124.5 703.6 L 1119.9 708.5 L 1115.4 713.5 L 1110.9 718.5 L 1106.4 723.6 L 1102.0 728.7 L 1097.5 733.7 L 1093.0 738.8 L 1088.5 743.8 L 1083.9 748.7 L 1079.3 753.6 L 1074.5 758.4 L 1074.5 758.4 L 1069.8 763.1 L 1065.0 767.9 L 1060.3 772.8 L 1055.6 777.6 L 1050.9 782.5 L 1046.2 787.4 L 1041.4 792.3 L 1036.7 797.0 L 1031.8 801.8 L 1026.9 806.4 L 1022.0 810.9 L 1016.9 815.3 L 1011.8 819.5 L 1006.6 823.6 L 1001.2 827.5 L 995.7 831.2 L 995.7 831.2 L 990.1 834.6 L 984.3 837.9 L 978.4 840.9 L 972.4 843.7 L 966.3 846.4 L 960.1 849.0 L 953.8 851.4 L 947.5 853.8 L 941.1 856.1 L 934.7 858.4 L 928.3 860.6 L 922.0 862.9 L 915.6 865.2 L 909.3 867.6 L 903.0 870.0 L 896.8 872.6 L 896.8 872.6 L 890.6 875.2 L 884.4 877.7 L 878.1 880.1 L 871.8 882.5 L 865.5 884.9 L 859.2 887.3 L 852.9 889.7 L 846.7 892.2 L 840.4 894.7 L 834.2 897.2 L 828.1 899.9 L 822.0 902.7 L 816.1 905.6 L 810.2 908.7 L 804.4 911.9 L 798.7 915.3 L 798.7 915.3 L 793.2 919.0 L 787.7 922.8 L 782.5 926.9 L 777.3 931.1 L 772.2 935.5 L 767.2 940.0 L 762.2 944.5 L 757.2 949.2 L 752.3 953.9 L 747.4 958.5 L 742.5 963.2 L 737.5 967.9 L 732.5 972.4 L 727.5 976.9 L 722.3 981.3 L 717.1 985.5 L 717.1 985.5 L 711.7 989.6 L 706.3 993.5 L 700.7 997.4 L 696.9 1000.0" fill="none" stroke="#a05bff" stroke-width="6.0" stroke-opacity="0.9"/></g><g id="clips"><circle cx="923.8" cy="1000.0" r="2" fill="none" stroke="#0b5" stroke-width="0.6"/><circle cx="2000.0" cy="434.8" r="2" fill="none" stroke="#0b5" stroke-width="0.6"/><circle cx="2000.0" cy="584.3" r="2" fill="none" stroke="#0b5" stroke-width="0.6"/><circle cx="1517.8" cy="0.0" r="2" fill="none" stroke="#0b5" stroke-width="0.6"/><circle cx="451.5" cy="644.1" r="2" fill="none" stroke="#0b5" stroke-width="0.6"/><circle cx="463.6" cy="668.7" r="2" fill="none" stroke="#0b5" stroke-width="0.6"/><circle cx="696.9" cy="1000.0" r="2" fill="none" stroke="#0b5" stroke-width="0.6"/></g><g id="power"><circle cx="2000.0" cy="661.5" r="5" fill="none" stroke="#e33" stroke-width="1"/><circle cx="2000.0" cy="584.3" r="5" fill="none" stroke="#e33" stroke-width="1"/><circle cx="2000.0" cy="434.8" r="5" fill="none" stroke="#e33" stroke-width="1"/><circle cx="923.9" cy="1000.0" r="5" fill="none" stroke="#e33" stroke-width="1"/><circle cx="696.9" cy="1000.0" r="5" fill="none" stroke="#e33" stroke-width="1"/><circle cx="1518.0" cy="0.0" r="5" fill="none" stroke="#e33" stroke-width="1"/></g></svg>