<svg xmlns="http://www.w3.org/2000/svg" width="2000mm" height="1000mm" viewBox="0 0 2000 1000"><g id="outline"><rect x="0" y="0" width="2000" height="1000" fill="none" stroke="#000" stroke-width="1"/></g><g id="channels"><path d="M 702.8 1000.0 L 703.9 997.4 L 706.4 991.4 L 708.9 985.3 L 711.4 979.2 L 713.9 973.2 L 716.3 967.1 L 718.8 961.0 L 721.2 954.9 L 723.5 948.8 L 725.9 942.7 L 728.2 936.5 L 730.4 930.4 L 732.6 924.2 L 734.8 918.0 L 734.8 918.0 L 736.9 911.8 L 739.1 905.6 L 741.1 899.4 L 743.2 893.2 L 745.2 887.0 L 747.2 880.7 L 749.1 874.4 L 751.0 868.2 L 752.9 861.9 L 754.8 855.6 L 756.6 849.3 L 758.4 843.0 L 760.1 836.7 L 761.9 830.4 L 763.6 824.0 L 765.2 817.7 L 765.2 817.7 L 766.8 811.3 L 768.3 805.0 L 769.8 798.6 L 771.2 792.2 L 772.6 785.8 L 773.9 779.4 L 775.2 772.9 L 776.5 766.5 L 777.7 760.1 L 779.0 753.6 L 780.3 747.2 L 781.6 740.8 L 783.0 734.3 L 784.4 727.9 L 785.8 721.6 L 787.3 715.2 L 787.3 715.2 L 788.9 708.8 L 790.3 702.4 L 791.8 696.0 L 793.2 689.5 L 794.6 683.0 L 796.0 676.6 L 797.5 670.2 L 799.0 663.7 L 800.6 657.3 L 802.3 651.0 L 804.0 644.7 L 805.9 638.4 L 807.9 632.2 L 810.1 626.1 L 812.4 620.1 L 815.0 614.1 L 815.0 614.1 L 817.7 608.3 L 820.6 602.5 L 823.7 596.8 L 826.9 591.2 L 830.3 585.7 L 833.8 580.2 L 837.4 574.7 L 841.1 569.3 L 844.9 563.9 L 848.6 558.6 L 852.5 553.2 L 856.3 547.9 L 860.1 542.6 L 863.9 537.2 L 867.7 531.9 L 871.4 526.5 L 871.4 526.5 L 875.1 521.2 L 878.9 515.9 L 882.9 510.7 L 886.9 505.5 L 891.0 500.3 L 895.1 495.2 L 899.2 490.1 L 903.3 484.9 L 907.4 479.8 L 911.3 474.6 L 915.2 469.3 L 918.9 464.0 L 922.4 458.6 L 925.8 453.1 L 929.0 447.5 L 931.9 441.7 L 931.9 441.7 L 934.6 435.9 L 936.9 429.8 L 939.0 423.7 L 940.8 417.4 L 942.5 411.0 L 944.0 404.6 L 945.5 398.1 L 946.9 391.6 L 948.3 385.1 L 949.7 378.6 L 951.2 372.2 L 952.8 365.8 L 954.5 359.4 L 956.5 353.2 L 958.7 347.1 L 961.1 341.1 L 961.1 341.1 L 963.8 335.2 L 966.6 329.3 L 969.5 323.5 L 972.5 317.7 L 975.5 311.9 L 978.7 306.2 L 982.0 300.5 L 985.4 294.9 L 988.9 289.4 L 992.4 283.9 L 996.1 278.5 L 999.9 273.2 L 1003.7 267.9 L 1007.7 262.8 L 1011.7 257.7 L 1015.9 252.8 L 1015.9 252.8 L 1020.3 248.0 L 1025.0 243.4 L 1030.0 239.0 L 1035.3 234.7 L 1040.7 230.5 L 1046.3 226.5 L 1051.9 222.4 L 1057.5 218.5 L 1063.0 214.5 L 1068.5 210.5 L 1073.7 206.4 L 1078.8 202.3 L 1083.5 198.1 L 1087.9 193.7 L 1091.9 189.2 L 1095.4 184.5 L 1095.4 184.5 L 1098.7 179.5 L 1102.0 174.1 L 1105.3 168.5 L 1108.5 162.7 L 1111.6 156.7 L 1114.5 150.6 L 1117.1 144.5 L 1119.4 138.5 L 1121.4 132.5 L 1122.9 126.7 L 1124.0 121.2 L 1124.6 115.9 L 1124.6 111.0 L 1123.9 106.5 L 1122.6 102.4 L 1120.6 99.0 L 1120.6 99.0 L 1117.6 96.0 L 1113.8 93.5 L 1109.2 91.4 L 1103.8 89.6 L 1097.8 88.2 L 1091.3 87.0 L 1084.3 86.1 L 1077.0 85.4 L 1069.4 84.9 L 1061.7 84.5 L 1053.9 84.2 L 1046.1 83.9 L 1038.5 83.7 L 1031.1 83.4 L 1024.0 83.1 L 1017.3 82.7 L 1017.3 82.7 L 1010.7 82.2 L 1003.9 81.5 L 997.0 80.7 L 990.1 79.9 L 983.0 79.0 L 976.0 78.3 L 968.9 77.6 L 962.0 77.1 L 955.1 76.7 L 948.4 76.7 L 941.9 76.9 L 935.6 77.6 L 929.5 78.6 L 923.7 80.1 L 918.3 82.1 L 913.3 84.7 L 913.3 84.7 L 908.7 87.9 L 904.4 91.7 L 900.4 96.1 L 896.7 101.0 L 893.3 106.3 L 890.1 111.9 L 887.0 117.9 L 884.2 124.1 L 881.4 130.5 L 878.8 137.0 L 876.1 143.5 L 873.6 150.1 L 871.0 156.6 L 868.3 163.0 L 865.6 169.2 L 862.8 175.2 L 862.8 175.2 L 859.9 181.1 L 857.0 186.9 L 854.2 192.8 L 851.5 198.8 L 848.7 204.7 L 846.0 210.7 L 843.4 216.7 L 840.7 222.7 L 838.1 228.7 L 835.5 234.8 L 833.0 240.8 L 830.5 246.9 L 828.0 253.0 L 825.5 259.1 L 823.1 265.2 L 820.7 271.3 L 820.7 271.3 L 818.3 277.4 L 816.0 283.5 L 813.7 289.6 L 811.4 295.8 L 809.2 301.9 L 807.0 308.1 L 804.8 314.3 L 802.7 320.5 L 800.6 326.7 L 798.5 332.9 L 796.4 339.1 L 794.3 345.4 L 792.2 351.6 L 790.1 357.8 L 788.1 364.0 L 786.0 370.2 L 786.0 370.2 L 783.9 376.4 L 781.9 382.7 L 779.9 388.9 L 777.9 395.2 L 776.0 401.5 L 774.1 407.7 L 772.2 414.0 L 770.2 420.3 L 768.3 426.5 L 766.3 432.8 L 764.3 439.0 L 762.3 445.3 L 760.2 451.5 L 758.1 457.7 L 755.8 463.8 L 753.6 470.0 L 753.6 470.0 L 751.2 476.1 L 748.8 482.2 L 746.4 488.2 L 743.9 494.3 L 741.4 500.4 L 738.9 506.4 L 736.3 512.4 L 733.7 518.5 L 731.0 524.5 L 728.4 530.4 L 725.6 536.4 L 722.9 542.3 L 720.1 548.3 L 717.3 554.2 L 714.4 560.1 L 711.5 565.9 L 711.5 565.9 L 708.6 571.8 L 705.6 577.6 L 702.6 583.4 L 699.5 589.2 L 696.4 595.0 L 693.2 600.8 L 690.1 606.5 L 686.9 612.2 L 683.6 617.9 L 680.4 623.6 L 677.1 629.3 L 673.8 635.0 L 670.5 640.6 L 667.2 646.3 L 663.8 651.9 L 660.5 657.6 L 660.5 657.6 L 657.1 663.2 L 653.7 668.8 L 650.3 674.4 L 646.8 679.9 L 643.3 685.5 L 639.8 691.0 L 636.3 696.5 L 632.7 702.1 L 629.2 707.6 L 625.6 713.1 L 622.1 718.6 L 618.5 724.1 L 614.9 729.6 L 611.3 735.0 L 607.7 740.5 L 604.2 746.0 L 604.2 746.0 L 600.6 751.5 L 597.0 757.0 L 593.4 762.5 L 589.7 767.9 L 586.1 773.4 L 582.5 778.8 L 578.8 784.3 L 575.2 789.7 L 571.5 795.2 L 567.9 800.6 L 564.2 806.1 L 560.6 811.5 L 557.0 817.0 L 553.4 822.5 L 549.8 827.9 L 546.2 833.4 L 546.2 833.4 L 542.6 838.9 L 539.1 844.5 L 535.6 850.0 L 532.0 855.5 L 528.5 861.0 L 525.0 866.6 L 521.5 872.1 L 518.0 877.7 L 514.5 883.2 L 511.0 888.7 L 507.5 894.3 L 504.0 899.9 L 500.6 905.4 L 497.1 911.0 L 493.6 916.5 L 490.1 922.1 L 490.1 922.1 L 486.7 927.6 L 483.2 933.2 L 479.8 938.8 L 476.4 944.4 L 473.0 950.0 L 469.5 955.6 L 466.1 961.2 L 462.7 966.8 L 459.3 972.4 L 455.9 978.0 L 452.4 983.6 L 449.0 989.1 L 445.5 994.7 L 442.1 1000.0" fill="none" stroke="#39ff88" stroke-width="6.0" stroke-opacity="0.9"/><path d="M 1285.8 1000.0 L 1287.9 998.3 L 1293.6 993.8 L 1299.3 989.5 L 1305.1 985.2 L 1311.0 981.2 L 1317.0 977.3 L 1323.1 973.7 L 1329.3 970.3 L 1329.3 970.3 L 1335.7 967.2 L 1342.3 964.4 L 1349.0 962.0 L 1355.9 959.8 L 1362.8 957.8 L 1369.9 956.0 L 1377.0 954.3 L 1384.1 952.7 L 1391.3 951.1 L 1398.4 949.4 L 1405.4 947.6 L 1412.4 945.7 L 1419.3 943.7 L 1426.0 941.4 L 1432.6 938.8 L 1439.0 935.8 L 1439.0 935.8 L 1445.3 932.6 L 1451.5 929.3 L 1457.6 925.9 L 1463.6 922.2 L 1469.6 918.5 L 1475.5 914.7 L 1481.3 910.7 L 1487.1 906.6 L 1492.8 902.4 L 1498.4 898.2 L 1504.0 893.8 L 1509.4 889.3 L 1514.9 884.8 L 1520.2 880.2 L 1525.5 875.5 L 1530.7 870.7 L 1530.7 870.7 L 1535.8 865.8 L 1540.8 860.8 L 1545.7 855.6 L 1550.4 850.2 L 1555.1 844.7 L 1559.7 839.2 L 1564.2 833.5 L 1568.7 827.8 L 1573.1 822.1 L 1577.6 816.4 L 1582.1 810.6 L 1586.5 804.9 L 1591.1 799.2 L 1595.6 793.6 L 1600.3 788.0 L 1605.0 782.6 L 1605.0 782.6 L 1609.9 777.3 L 1615.0 772.1 L 1620.3 766.9 L 1625.8 761.9 L 1631.3 756.9 L 1636.8 751.9 L 1642.3 746.9 L 1647.8 741.9 L 1653.2 736.9 L 1658.4 731.7 L 1663.4 726.5 L 1668.1 721.2 L 1672.6 715.8 L 1676.7 710.2 L 1680.4 704.4 L 1683.7 698.4 L 1683.7 698.4 L 1686.7 692.2 L 1689.5 685.7 L 1692.2 679.0 L 1694.7 672.1 L 1696.9 665.0 L 1699.0 657.8 L 1700.8 650.5 L 1702.3 643.2 L 1703.6 635.9 L 1704.5 628.6 L 1705.2 621.4 L 1705.4 614.4 L 1705.4 607.5 L 1704.9 600.8 L 1704.1 594.3 L 1702.8 588.1 L 1702.8 588.1 L 1701.0 581.9 L 1698.6 575.3 L 1695.7 568.5 L 1692.4 561.6 L 1688.6 554.6 L 1684.5 547.7 L 1680.1 541.0 L 1675.4 534.6 L 1670.5 528.5 L 1665.6 522.9 L 1660.5 518.0 L 1655.4 513.7 L 1650.4 510.2 L 1645.5 507.6 L 1640.7 506.0 L 1636.1 505.5 L 1636.1 505.5 L 1631.6 506.2 L 1627.0 508.0 L 1622.4 510.9 L 1617.6 514.8 L 1612.9 519.4 L 1608.1 524.8 L 1603.2 530.7 L 1598.4 537.1 L 1593.5 543.9 L 1588.6 550.8 L 1583.8 557.9 L 1579.0 564.9 L 1574.2 571.8 L 1569.5 578.5 L 1564.8 584.8 L 1560.2 590.6 L 1560.2 590.6 L 1555.7 596.2 L 1551.4 601.9 L 1547.1 607.7 L 1542.9 613.6 L 1538.7 619.6 L 1534.6 625.5 L 1530.4 631.5 L 1526.3 637.5 L 1522.1 643.4 L 1517.9 649.3 L 1513.7 655.2 L 1509.3 660.9 L 1504.8 666.5 L 1500.2 672.0 L 1495.4 677.4 L 1490.5 682.6 L 1490.5 682.6 L 1485.4 687.6 L 1480.2 692.5 L 1474.8 697.2 L 1469.4 701.9 L 1463.8 706.4 L 1458.1 710.9 L 1452.4 715.3 L 1446.6 719.6 L 1440.8 723.9 L 1434.9 728.1 L 1429.0 732.3 L 1423.1 736.5 L 1417.2 740.7 L 1411.3 745.0 L 1405.4 749.2 L 1399.6 753.5 L 1399.6 753.5 L 1393.8 757.8 L 1388.0 762.0 L 1382.2 766.3 L 1376.3 770.5 L 1370.4 774.7 L 1364.5 778.8 L 1358.6 783.0 L 1352.7 787.2 L 1346.8 791.3 L 1340.9 795.4 L 1334.9 799.5 L 1329.0 803.7 L 1323.1 807.8 L 1317.1 811.9 L 1311.2 816.0 L 1305.3 820.1 L 1305.3 820.1 L 1299.4 824.3 L 1293.4 828.4 L 1287.5 832.5 L 1281.6 836.7 L 1275.7 840.8 L 1269.8 845.0 L 1263.9 849.1 L 1258.0 853.2 L 1252.0 857.4 L 1246.1 861.5 L 1240.1 865.5 L 1234.1 869.6 L 1228.1 873.6 L 1222.1 877.6 L 1216.1 881.5 L 1210.0 885.4 L 1210.0 885.4 L 1203.9 889.3 L 1197.8 893.1 L 1191.7 896.9 L 1185.5 900.7 L 1179.3 904.4 L 1173.1 908.2 L 1166.9 911.9 L 1160.7 915.5 L 1154.5 919.2 L 1148.2 922.8 L 1142.0 926.5 L 1135.8 930.1 L 1129.5 933.7 L 1123.3 937.4 L 1117.0 941.0 L 1110.8 944.7 L 1110.8 944.7 L 1104.6 948.3 L 1098.3 951.9 L 1092.1 955.5 L 1085.8 959.1 L 1079.5 962.7 L 1073.2 966.2 L 1066.9 969.8 L 1060.6 973.4 L 1054.4 976.9 L 1048.1 980.5 L 1041.8 984.1 L 1035.6 987.7 L 1029.3 991.4 L 1023.1 995.0 L 1016.9 998.7 L 1014.8 1000.0" fill="none" stroke="#39ff88" stroke-width="6.0" stroke-opacity="0.9"/></g><g id="clips"><circle cx="702.8" cy="1000.0" r="2" fill="none" stroke="#0b5" stroke-width="0.6"/><circle cx="442.1" cy="1000.0" r="2" fill="none" stroke="#0b5" stroke-width="0.6"/><circle cx="1285.8" cy="1000.0" r="2" fill="none" stroke="#0b5" stroke-width="0.6"/><circle cx="1014.8" cy="1000.0" r="2" fill="none" stroke="#0b5" stroke-width="0.6"/></g><g id="power"><circle cx="442.1" cy="1000.0" r="5" fill="none" stroke="#e33" stroke-width="1"/><circle cx="702.8" cy="1000.0" r="5" fill="none" stroke="#e33" stroke-width="1"/><circle cx="1014.8" cy="1000.0" r="5" fill="none" stroke="#e33" stroke-width="1"/><circle cx="1285.8" cy="1000.0" r="5" fill="none" stroke="#e33" stroke-width="1"/></g><g id="bridges"></g></svg>