<svg xmlns="http://www.w3.org/2000/svg" width="2000mm" height="1000mm" viewBox="0 0 2000 1000"><g id="outline"><rect x="0" y="0" width="2000" height="1000" fill="none" stroke="#000" stroke-width="1"/></g><g id="channels"><path d="M 1713.5 1000.0 L 1712.2 996.4 L 1710.0 990.2 L 1707.9 983.9 L 1705.9 977.6 L 1705.9 977.6 L 1704.0 971.2 L 1702.1 964.8 L 1700.3 958.4 L 1698.6 952.0 L 1696.9 945.6 L 1695.3 939.1 L 1693.7 932.7 L 1692.2 926.2 L 1690.8 919.7 L 1689.4 913.2 L 1688.1 906.7 L 1686.9 900.1 L 1685.8 893.6 L 1684.7 887.1 L 1683.7 880.5 L 1682.7 873.9 L 1682.7 873.9 L 1681.9 867.4 L 1681.2 860.8 L 1680.7 854.2 L 1680.3 847.6 L 1679.9 840.9 L 1679.7 834.3 L 1679.4 827.6 L 1679.3 820.9 L 1679.1 814.3 L 1679.0 807.6 L 1678.8 800.9 L 1678.6 794.3 L 1678.4 787.6 L 1678.1 781.0 L 1677.7 774.3 L 1677.2 767.7 L 1677.2 767.7 L 1676.7 761.1 L 1676.2 754.4 L 1675.7 747.8 L 1675.3 741.1 L 1674.8 734.5 L 1674.3 727.8 L 1673.7 721.2 L 1673.1 714.5 L 1672.5 707.9 L 1671.8 701.3 L 1671.0 694.7 L 1670.1 688.1 L 1669.1 681.6 L 1668.0 675.0 L 1666.8 668.5 L 1665.4 662.1 L 1665.4 662.1 L 1663.9 655.7 L 1662.2 649.3 L 1660.4 642.9 L 1658.5 636.5 L 1656.5 630.2 L 1654.4 623.9 L 1652.3 617.6 L 1650.0 611.4 L 1647.7 605.1 L 1645.3 598.9 L 1642.9 592.6 L 1640.5 586.4 L 1638.1 580.2 L 1635.6 574.0 L 1633.1 567.9 L 1630.7 561.7 L 1630.7 561.7 L 1628.2 555.5 L 1625.7 549.4 L 1623.1 543.3 L 1620.4 537.2 L 1617.8 531.1 L 1615.0 525.0 L 1612.3 518.9 L 1609.5 512.9 L 1606.7 506.8 L 1603.9 500.8 L 1601.1 494.8 L 1598.3 488.7 L 1595.5 482.7 L 1592.7 476.7 L 1589.9 470.6 L 1587.2 464.6 L 1587.2 464.6 L 1584.4 458.5 L 1581.6 452.5 L 1578.9 446.4 L 1576.1 440.4 L 1573.4 434.3 L 1570.6 428.3 L 1567.8 422.2 L 1565.1 416.2 L 1562.3 410.1 L 1559.5 404.1 L 1556.7 398.1 L 1553.9 392.0 L 1551.0 386.0 L 1548.2 380.0 L 1545.4 374.0 L 1542.5 368.0 L 1542.5 368.0 L 1539.6 362.0 L 1536.8 356.0 L 1533.9 349.9 L 1531.1 343.9 L 1528.3 337.9 L 1525.4 331.9 L 1522.6 325.8 L 1519.7 319.8 L 1516.8 313.8 L 1513.9 307.9 L 1510.9 301.9 L 1507.9 296.0 L 1504.8 290.1 L 1501.7 284.2 L 1498.6 278.4 L 1495.3 272.6 L 1495.3 272.6 L 1492.1 266.7 L 1488.9 260.7 L 1485.7 254.5 L 1482.6 248.2 L 1479.4 241.8 L 1476.2 235.5 L 1472.9 229.3 L 1469.6 223.1 L 1466.1 217.1 L 1462.6 211.3 L 1458.9 205.7 L 1455.1 200.4 L 1451.2 195.5 L 1447.0 191.0 L 1442.6 186.9 L 1438.0 183.2 L 1438.0 183.2 L 1433.1 180.0 L 1427.9 176.9 L 1422.4 174.0 L 1416.6 171.3 L 1410.6 168.9 L 1404.5 166.8 L 1398.3 164.9 L 1392.0 163.4 L 1385.6 162.2 L 1379.3 161.4 L 1373.1 160.9 L 1367.0 160.8 L 1361.1 161.2 L 1355.4 162.0 L 1349.9 163.3 L 1344.7 165.0 L 1344.7 165.0 L 1339.8 167.4 L 1335.1 170.5 L 1330.5 174.2 L 1326.1 178.5 L 1321.7 183.2 L 1317.5 188.3 L 1313.4 193.9 L 1309.4 199.6 L 1305.4 205.6 L 1301.5 211.8 L 1297.6 218.0 L 1293.8 224.2 L 1290.0 230.3 L 1286.1 236.3 L 1282.3 242.1 L 1278.4 247.6 L 1278.4 247.6 L 1274.5 253.0 L 1270.7 258.5 L 1267.0 263.9 L 1263.3 269.5 L 1259.7 275.0 L 1256.1 280.6 L 1252.5 286.2 L 1248.9 291.9 L 1245.4 297.5 L 1241.8 303.1 L 1238.3 308.8 L 1234.7 314.4 L 1231.1 320.0 L 1227.4 325.6 L 1223.8 331.1 L 1220.1 336.6 L 1220.1 336.6 L 1216.3 342.1 L 1212.6 347.6 L 1208.8 353.1 L 1205.0 358.6 L 1201.3 364.1 L 1197.5 369.5 L 1193.7 375.0 L 1189.9 380.4 L 1186.0 385.9 L 1182.2 391.3 L 1178.3 396.7 L 1174.4 402.1 L 1170.5 407.4 L 1166.5 412.8 L 1162.5 418.1 L 1158.5 423.4 L 1158.5 423.4 L 1154.4 428.6 L 1150.3 433.9 L 1146.2 439.1 L 1142.0 444.2 L 1137.8 449.4 L 1133.6 454.5 L 1129.3 459.7 L 1125.1 464.8 L 1120.8 469.9 L 1116.5 474.9 L 1112.2 480.0 L 1107.9 485.1 L 1103.5 490.1 L 1099.2 495.2 L 1094.9 500.2 L 1090.6 505.3 L 1090.6 505.3 L 1086.2 510.3 L 1081.8 515.3 L 1077.4 520.3 L 1072.9 525.2 L 1068.4 530.2 L 1063.9 535.1 L 1059.4 540.0 L 1055.0 544.9 L 1050.5 549.8 L 1046.0 554.8 L 1041.6 559.7 L 1037.2 564.7 L 1032.8 569.7 L 1028.5 574.8 L 1024.3 579.9 L 1020.1 585.1 L 1020.1 585.1 L 1016.0 590.3 L 1011.7 595.4 L 1007.3 600.6 L 1002.9 605.8 L 998.5 611.0 L 994.2 616.2 L 989.8 621.4 L 985.6 626.7 L 981.5 632.0 L 977.5 637.4 L 973.7 642.9 L 970.2 648.4 L 966.8 654.0 L 963.7 659.7 L 961.0 665.5 L 958.6 671.4 L 958.6 671.4 L 956.4 677.4 L 954.5 683.6 L 952.9 689.8 L 951.4 696.2 L 950.2 702.7 L 949.2 709.2 L 948.3 715.8 L 947.7 722.5 L 947.2 729.2 L 946.9 735.9 L 946.7 742.6 L 946.7 749.3 L 946.9 755.9 L 947.1 762.6 L 947.5 769.1 L 948.0 775.6 L 948.0 775.6 L 948.7 782.1 L 949.7 788.5 L 950.9 795.0 L 952.3 801.4 L 953.8 807.8 L 955.6 814.2 L 957.5 820.7 L 959.5 827.1 L 961.5 833.5 L 963.7 839.9 L 965.8 846.2 L 968.0 852.6 L 970.2 859.0 L 972.3 865.4 L 974.4 871.7 L 976.3 878.1 L 976.3 878.1 L 978.3 884.5 L 980.3 890.8 L 982.3 897.1 L 984.4 903.5 L 986.4 909.8 L 988.5 916.1 L 990.7 922.4 L 992.8 928.7 L 994.9 935.0 L 997.1 941.3 L 999.2 947.6 L 1001.3 953.9 L 1003.4 960.2 L 1005.4 966.6 L 1007.5 972.9 L 1009.5 979.2 L 1009.5 979.2 L 1011.4 985.6 L 1013.3 992.0 L 1015.2 998.4 L 1015.7 1000.0" fill="none" stroke="#ffd23d" stroke-width="6.0" stroke-opacity="0.9"/><path d="M 778.2 1000.0 L 774.9 994.6 L 771.3 989.0 L 767.8 983.4 L 764.2 977.7 L 760.7 972.1 L 757.1 966.5 L 753.5 960.9 L 749.9 955.3 L 746.3 949.7 L 746.3 949.7 L 742.6 944.2 L 738.9 938.7 L 735.1 933.2 L 731.2 927.8 L 727.3 922.3 L 723.3 916.9 L 719.4 911.5 L 715.5 906.1 L 711.6 900.6 L 707.8 895.2 L 704.1 889.7 L 700.4 884.1 L 696.8 878.6 L 693.4 872.9 L 690.1 867.2 L 686.9 861.4 L 686.9 861.4 L 683.8 855.6 L 680.6 849.7 L 677.4 843.7 L 674.2 837.7 L 671.0 831.7 L 667.9 825.6 L 664.9 819.5 L 662.0 813.3 L 659.3 807.1 L 656.8 800.9 L 654.5 794.7 L 652.5 788.5 L 650.8 782.3 L 649.5 776.0 L 648.4 769.8 L 647.8 763.6 L 647.8 763.6 L 647.6 757.3 L 647.8 751.0 L 648.3 744.7 L 649.1 738.3 L 650.3 731.9 L 651.7 725.4 L 653.3 719.0 L 655.1 712.5 L 657.2 706.1 L 659.3 699.7 L 661.6 693.3 L 664.0 687.0 L 666.5 680.7 L 669.0 674.5 L 671.5 668.3 L 674.0 662.3 L 674.0 662.3 L 676.6 656.3 L 679.5 650.4 L 682.5 644.5 L 685.7 638.7 L 689.0 633.0 L 692.5 627.3 L 696.0 621.6 L 699.6 616.0 L 703.2 610.3 L 706.9 604.7 L 710.5 599.1 L 714.1 593.4 L 717.7 587.7 L 721.1 582.0 L 724.5 576.2 L 727.7 570.4 L 727.7 570.4 L 730.8 564.5 L 733.8 558.6 L 736.8 552.7 L 739.7 546.7 L 742.6 540.7 L 745.5 534.7 L 748.3 528.7 L 751.2 522.7 L 754.0 516.6 L 756.8 510.6 L 759.6 504.6 L 762.5 498.6 L 765.4 492.6 L 768.3 486.6 L 771.3 480.6 L 774.3 474.7 L 774.3 474.7 L 777.3 468.8 L 780.4 462.9 L 783.5 457.0 L 786.6 451.1 L 789.7 445.3 L 792.9 439.4 L 796.0 433.6 L 799.2 427.7 L 802.4 421.9 L 805.6 416.0 L 808.8 410.2 L 812.0 404.4 L 815.3 398.6 L 818.5 392.8 L 821.8 387.0 L 825.0 381.2 L 825.0 381.2 L 828.3 375.4 L 831.6 369.6 L 834.9 363.9 L 838.2 358.1 L 841.6 352.4 L 844.9 346.6 L 848.3 340.9 L 851.7 335.1 L 855.0 329.4 L 858.4 323.7 L 861.8 318.0 L 865.3 312.3 L 868.7 306.6 L 872.1 300.9 L 875.6 295.2 L 879.1 289.5 L 879.1 289.5 L 882.5 283.9 L 886.0 278.2 L 889.5 272.5 L 893.0 266.8 L 896.5 261.2 L 900.0 255.5 L 903.5 249.9 L 907.0 244.2 L 910.6 238.6 L 914.2 233.0 L 917.8 227.4 L 921.4 221.8 L 925.1 216.3 L 928.8 210.8 L 932.5 205.3 L 936.3 199.8 L 936.3 199.8 L 940.1 194.4 L 944.0 189.0 L 947.8 183.6 L 951.7 178.2 L 955.7 172.8 L 959.6 167.5 L 963.6 162.1 L 967.6 156.8 L 971.7 151.6 L 975.7 146.3 L 979.8 141.1 L 984.0 135.9 L 988.1 130.7 L 992.3 125.5 L 996.5 120.3 L 1000.7 115.2 L 1000.7 115.2 L 1005.1 110.2 L 1009.5 105.2 L 1014.0 100.3 L 1018.7 95.4 L 1023.4 90.7 L 1028.1 85.9 L 1032.8 81.1 L 1037.5 76.4 L 1042.2 71.6 L 1046.9 66.8 L 1051.4 61.9 L 1055.9 57.0 L 1060.2 52.0 L 1064.3 46.9 L 1068.3 41.6 L 1072.1 36.3 L 1072.1 36.3 L 1075.8 30.9 L 1079.5 25.3 L 1083.2 19.8 L 1086.9 14.1 L 1090.5 8.4 L 1094.0 2.6 L 1095.5 0.0" fill="none" stroke="#ffd23d" stroke-width="6.0" stroke-opacity="0.9"/><path d="M 1813.4 0.0 L 1813.5 0.3 L 1814.8 6.8 L 1816.0 13.3 L 1817.2 19.9 L 1818.3 26.4 L 1819.3 33.0 L 1820.3 39.6 L 1821.3 46.1 L 1822.2 52.7 L 1823.2 59.3 L 1824.1 65.9 L 1824.9 72.5 L 1825.8 79.1 L 1826.7 85.7 L 1827.6 92.3 L 1827.6 92.3 L 1828.4 98.9 L 1829.2 105.5 L 1830.0 112.1 L 1830.8 118.7 L 1831.5 125.3 L 1832.2 131.9 L 1832.8 138.6 L 1833.5 145.2 L 1834.1 151.8 L 1834.8 158.4 L 1835.4 165.0 L 1836.1 171.7 L 1836.7 178.3 L 1837.4 184.9 L 1838.1 191.5 L 1838.8 198.1 L 1838.8 198.1 L 1839.6 204.7 L 1840.3 211.3 L 1841.0 218.0 L 1841.8 224.6 L 1842.5 231.2 L 1843.3 237.8 L 1844.0 244.4 L 1844.8 251.0 L 1845.5 257.6 L 1846.3 264.2 L 1847.0 270.8 L 1847.8 277.4 L 1848.6 284.0 L 1849.3 290.6 L 1850.1 297.3 L 1850.9 303.9 L 1850.9 303.9 L 1851.7 310.5 L 1852.5 317.1 L 1853.3 323.7 L 1854.1 330.3 L 1854.9 336.9 L 1855.7 343.5 L 1856.5 350.1 L 1857.3 356.7 L 1858.1 363.3 L 1859.0 369.9 L 1859.8 376.5 L 1860.7 383.1 L 1861.5 389.7 L 1862.4 396.3 L 1863.3 402.9 L 1864.2 409.4 L 1864.2 409.4 L 1865.1 416.0 L 1866.0 422.6 L 1866.9 429.2 L 1867.8 435.8 L 1868.7 442.4 L 1869.7 449.0 L 1870.6 455.6 L 1871.5 462.2 L 1872.5 468.7 L 1873.5 475.3 L 1874.5 481.9 L 1875.5 488.5 L 1876.6 495.0 L 1877.7 501.6 L 1878.8 508.1 L 1880.0 514.7 L 1880.0 514.7 L 1881.2 521.2 L 1882.4 527.8 L 1883.6 534.3 L 1884.9 540.8 L 1886.2 547.3 L 1887.5 553.9 L 1888.8 560.4 L 1890.2 566.9 L 1891.6 573.4 L 1893.0 579.9 L 1894.4 586.4 L 1895.9 592.9 L 1897.3 599.4 L 1898.8 605.9 L 1900.3 612.3 L 1901.8 618.8 L 1901.8 618.8 L 1903.3 625.3 L 1904.9 631.7 L 1906.5 638.2 L 1908.2 644.6 L 1909.9 651.1 L 1911.6 657.5 L 1913.3 663.9 L 1915.0 670.3 L 1916.7 676.8 L 1918.5 683.2 L 1920.2 689.6 L 1921.9 696.0 L 1923.6 702.5 L 1925.3 708.9 L 1927.0 715.3 L 1928.6 721.8 L 1928.6 721.8 L 1930.2 728.2 L 1931.8 734.7 L 1933.4 741.2 L 1935.0 747.6 L 1936.5 754.1 L 1938.1 760.6 L 1939.6 767.0 L 1941.2 773.5 L 1942.7 780.0 L 1944.3 786.4 L 1945.8 792.9 L 1947.3 799.4 L 1948.8 805.9 L 1950.3 812.3 L 1951.8 818.8 L 1953.3 825.3 L 1953.3 825.3 L 1954.8 831.8 L 1956.3 838.3 L 1957.8 844.7 L 1959.4 851.2 L 1960.9 857.7 L 1962.4 864.2 L 1963.9 870.7 L 1965.4 877.2 L 1966.9 883.6 L 1968.3 890.1 L 1969.8 896.6 L 1971.1 903.1 L 1972.5 909.7 L 1973.7 916.2 L 1975.0 922.7 L 1976.1 929.2 L 1976.1 929.2 L 1977.2 935.8 L 1978.3 942.3 L 1979.4 948.9 L 1980.5 955.5 L 1981.6 962.1 L 1982.6 968.6 L 1983.5 975.2 L 1984.4 981.8 L 1985.3 988.4 L 1986.1 995.0 L 1986.6 1000.0" fill="none" stroke="#ffd23d" stroke-width="6.0" stroke-opacity="0.9"/></g><g id="clips"><circle cx="1713.5" cy="1000.0" r="2" fill="none" stroke="#0b5" stroke-width="0.6"/><circle cx="1015.7" cy="1000.0" r="2" fill="none" stroke="#0b5" stroke-width="0.6"/><circle cx="778.2" cy="1000.0" r="2" fill="none" stroke="#0b5" stroke-width="0.6"/><circle cx="1095.5" cy="0.0" r="2" fill="none" stroke="#0b5" stroke-width="0.6"/><circle cx="1813.4" cy="0.0" r="2" fill="none" stroke="#0b5" stroke-width="0.6"/><circle cx="1986.6" cy="1000.0" r="2" fill="none" stroke="#0b5" stroke-width="0.6"/></g><g id="power"><circle cx="1713.4" cy="1000.0" r="5" fill="none" stroke="#e33" stroke-width="1"/><circle cx="1015.6" cy="1000.0" r="5" fill="none" stroke="#e33" stroke-width="1"/><circle cx="778.2" cy="1000.0" r="5" fill="none" stroke="#e33" stroke-width="1"/><circle cx="1095.5" cy="0.0" r="5" fill="none" stroke="#e33" stroke-width="1"/><circle cx="1813.4" cy="0.0" r="5" fill="none" stroke="#e33" stroke-width="1"/><circle cx="1986.6" cy="1000.0" r="5" fill="none" stroke="#e33" stroke-width="1"/></g></svg>