<svg xmlns="http://www.w3.org/2000/svg" width="1000mm" height="2000mm" viewBox="0 0 1000 2000"><g id="outline"><rect x="0" y="0" width="1000" height="2000" fill="none" stroke="#000" stroke-width="1"/></g><g id="channels"><path d="M 0.0 497.6 L 0.8 502.4 L 1.7 508.4 L 2.6 514.4 L 3.7 520.3 L 4.7 526.3 L 6.0 532.2 L 6.0 532.2 L 7.2 538.2 L 8.5 544.1 L 9.8 550.1 L 11.2 555.9 L 12.5 561.9 L 14.0 567.7 L 15.5 573.7 L 16.9 579.5 L 18.5 585.4 L 20.1 591.3 L 21.7 597.1 L 23.4 603.0 L 25.1 608.8 L 26.9 614.6 L 28.7 620.3 L 30.6 626.1 L 30.6 626.1 L 32.5 631.9 L 34.5 637.6 L 36.5 643.3 L 38.6 649.0 L 40.7 654.7 L 42.9 660.4 L 45.2 666.0 L 47.5 671.7 L 49.8 677.3 L 52.1 682.9 L 54.5 688.5 L 56.8 694.1 L 59.3 699.6 L 61.7 705.2 L 64.2 710.8 L 66.7 716.2 L 66.7 716.2 L 69.2 721.8 L 71.7 727.3 L 74.3 732.8 L 77.0 738.2 L 79.6 743.7 L 82.3 749.2 L 85.1 754.6 L 87.9 759.9 L 90.7 765.4 L 93.4 770.8 L 96.2 776.2 L 99.1 781.5 L 102.0 786.8 L 104.9 792.2 L 107.7 797.6 L 110.6 802.8 L 110.6 802.8 L 113.6 808.2 L 116.5 813.5 L 119.5 818.8 L 122.4 824.1 L 125.4 829.3 L 128.5 834.6 L 131.5 839.9 L 134.5 845.2 L 137.6 850.4 L 140.8 855.6 L 143.8 860.8 L 147.0 866.0 L 150.2 871.2 L 153.3 876.4 L 156.5 881.6 L 159.8 886.6 L 159.8 886.6 L 163.0 891.8 L 166.3 896.9 L 169.7 902.0 L 172.9 907.0 L 176.4 912.1 L 179.7 917.1 L 183.1 922.2 L 186.6 927.2 L 190.0 932.2 L 193.5 937.1 L 196.9 942.1 L 200.4 947.1 L 203.8 952.1 L 207.4 957.0 L 210.9 962.0 L 214.3 967.0 L 214.3 967.0 L 217.9 971.9 L 221.4 976.8 L 225.1 981.7 L 228.7 986.6 L 232.4 991.4 L 236.0 996.3 L 239.7 1001.1 L 243.4 1006.0 L 247.0 1010.8 L 250.7 1015.7 L 254.3 1020.5 L 257.9 1025.5 L 261.3 1030.4 L 264.8 1035.4 L 268.3 1040.3 L 271.5 1045.4 L 271.5 1045.4 L 274.8 1050.5 L 278.0 1055.7 L 280.9 1061.0 L 284.0 1066.3 L 286.9 1071.5 L 289.8 1076.9 L 292.6 1082.3 L 295.5 1087.7 L 298.4 1093.0 L 301.2 1098.4 L 304.1 1103.7 L 307.0 1109.1 L 309.9 1114.4 L 312.9 1119.6 L 316.0 1124.9 L 319.1 1130.1 L 319.1 1130.1 L 322.3 1135.3 L 325.6 1140.4 L 328.7 1145.6 L 332.0 1150.7 L 335.3 1155.8 L 338.5 1160.9 L 341.8 1166.0 L 345.2 1171.1 L 348.5 1176.2 L 352.0 1181.2 L 355.4 1186.2 L 358.9 1191.2 L 362.5 1196.1 L 366.1 1200.9 L 369.7 1205.8 L 373.5 1210.5 L 373.5 1210.5 L 377.3 1215.2 L 381.2 1219.9 L 385.0 1224.5 L 389.0 1229.1 L 393.1 1233.6 L 397.1 1238.1 L 401.2 1242.6 L 405.3 1247.0 L 409.6 1251.4 L 413.8 1255.9 L 418.0 1260.2 L 422.2 1264.6 L 426.5 1268.9 L 430.8 1273.2 L 435.0 1277.6 L 439.3 1281.8 L 439.3 1281.8 L 443.7 1286.1 L 448.0 1290.3 L 452.3 1294.6 L 456.7 1298.8 L 461.1 1303.0 L 465.5 1307.1 L 470.0 1311.3 L 474.5 1315.4 L 478.9 1319.5 L 483.4 1323.5 L 487.9 1327.7 L 492.4 1331.7 L 496.9 1335.8 L 501.4 1339.9 L 505.9 1344.0 L 510.4 1348.0 L 510.4 1348.0 L 514.9 1352.2 L 519.5 1356.1 L 524.1 1360.1 L 528.7 1364.1 L 533.3 1368.0 L 537.9 1371.9 L 542.6 1375.9 L 547.2 1379.8 L 551.8 1383.7 L 556.5 1387.8 L 561.1 1391.7 L 565.6 1395.8 L 570.0 1399.9 L 574.4 1404.1 L 578.7 1408.2 L 583.0 1412.5 L 583.0 1412.5 L 587.3 1416.9 L 591.5 1421.3 L 595.7 1425.6 L 599.8 1430.0 L 604.1 1434.5 L 608.2 1439.0 L 612.2 1443.5 L 616.3 1448.1 L 620.3 1452.7 L 624.1 1457.4 L 628.0 1462.1 L 631.7 1466.9 L 635.3 1471.7 L 638.8 1476.6 L 642.2 1481.6 L 645.4 1486.6 L 645.4 1486.6 L 648.6 1491.7 L 651.6 1496.9 L 654.6 1502.2 L 657.3 1507.6 L 660.0 1513.0 L 662.7 1518.4 L 665.2 1524.0 L 667.7 1529.6 L 670.1 1535.1 L 672.4 1540.8 L 674.6 1546.5 L 676.8 1552.1 L 678.9 1557.9 L 681.1 1563.5 L 683.1 1569.3 L 685.1 1575.0 L 685.1 1575.0 L 687.0 1580.7 L 688.8 1586.5 L 690.5 1592.2 L 692.1 1598.1 L 693.6 1604.0 L 695.1 1609.9 L 696.5 1615.8 L 697.9 1621.7 L 699.2 1627.7 L 700.5 1633.6 L 701.8 1639.6 L 703.1 1645.5 L 704.5 1651.5 L 705.7 1657.4 L 707.2 1663.3 L 708.5 1669.2 L 708.5 1669.2 L 710.0 1675.2 L 711.2 1681.1 L 712.4 1687.2 L 713.5 1693.2 L 714.7 1699.3 L 715.7 1705.4 L 716.8 1711.5 L 717.9 1717.5 L 719.2 1723.6 L 720.4 1729.5 L 721.8 1735.5 L 723.2 1741.3 L 724.8 1747.1 L 726.7 1752.8 L 728.7 1758.3 L 730.8 1763.8 L 730.8 1763.8 L 733.2 1769.2 L 735.5 1774.7 L 738.0 1780.3 L 740.6 1785.9 L 743.2 1791.4 L 746.0 1797.0 L 748.8 1802.4 L 751.9 1807.8 L 755.1 1812.9 L 758.3 1817.8 L 761.8 1822.6 L 765.4 1827.0 L 769.3 1831.1 L 773.4 1834.9 L 777.6 1838.3 L 782.1 1841.4 L 782.1 1841.4 L 787.0 1843.9 L 792.6 1846.0 L 798.7 1847.7 L 805.2 1849.1 L 811.9 1850.2 L 818.9 1851.0 L 826.0 1851.5 L 833.1 1851.9 L 840.1 1852.1 L 846.9 1852.2 L 853.5 1852.3 L 859.5 1852.3 L 865.1 1852.3 L 870.1 1852.3 L 874.4 1852.5 L 877.8 1852.8 L 895.9 1835.3 L 896.7 1832.7 L 897.8 1829.7 L 899.3 1826.1 L 900.9 1822.3 L 902.7 1817.9 L 904.6 1813.4 L 906.6 1808.6 L 908.5 1803.5 L 910.2 1798.4 L 911.9 1793.0 L 913.4 1787.4 L 914.5 1781.9 L 915.4 1776.4 L 915.9 1770.8 L 915.8 1765.3 L 915.3 1760.0 L 915.3 1760.0 L 914.1 1754.6 L 912.5 1749.1 L 910.5 1743.5 L 908.0 1737.9 L 905.1 1732.1 L 902.1 1726.3 L 898.7 1720.3 L 895.2 1714.4 L 891.7 1708.3 L 888.1 1702.3 L 884.6 1696.2 L 881.1 1690.1 L 877.9 1683.9 L 874.8 1677.8 L 872.0 1671.6 L 869.6 1665.5 L 869.6 1665.5 L 867.5 1659.4 L 865.6 1653.0 L 863.8 1646.7 L 862.3 1640.2 L 860.9 1633.8 L 859.5 1627.3 L 858.2 1620.9 L 856.9 1614.3 L 855.7 1607.8 L 854.3 1601.4 L 852.9 1594.9 L 851.4 1588.5 L 849.6 1582.3 L 847.8 1576.0 L 845.7 1570.0 L 843.4 1563.9 L 843.4 1563.9 L 840.8 1558.1 L 838.2 1552.2 L 835.4 1546.4 L 832.6 1540.6 L 829.7 1534.8 L 826.6 1529.2 L 823.4 1523.6 L 820.2 1518.0 L 816.8 1512.5 L 813.3 1507.1 L 809.7 1501.7 L 806.1 1496.5 L 802.2 1491.4 L 798.3 1486.3 L 794.2 1481.3 L 790.1 1476.5 L 790.1 1476.5 L 785.8 1471.8 L 781.2 1467.3 L 776.4 1462.9 L 771.3 1458.8 L 766.1 1454.8 L 760.8 1450.9 L 755.4 1447.0 L 750.0 1443.2 L 744.5 1439.4 L 739.0 1435.5 L 733.7 1431.6 L 728.4 1427.6 L 723.3 1423.5 L 718.3 1419.2 L 713.5 1414.7 L 709.0 1410.0 L 709.0 1410.0 L 704.8 1405.2 L 700.5 1400.2 L 696.5 1395.2 L 692.5 1390.0 L 688.6 1384.7 L 684.9 1379.3 L 681.2 1373.9 L 677.6 1368.4 L 674.1 1362.9 L 670.5 1357.2 L 667.0 1351.7 L 663.7 1346.0 L 660.2 1340.3 L 656.9 1334.7 L 653.5 1329.0 L 650.1 1323.4 L 650.1 1323.4 L 646.9 1317.8 L 643.6 1312.1 L 640.4 1306.4 L 637.2 1300.6 L 634.1 1294.8 L 631.0 1289.1 L 628.1 1283.2 L 625.0 1277.4 L 622.0 1271.5 L 619.1 1265.7 L 616.2 1259.7 L 613.3 1253.8 L 610.3 1248.0 L 607.4 1242.0 L 604.5 1236.2 L 601.6 1230.3 L 601.6 1230.3 L 598.7 1224.5 L 595.7 1218.6 L 592.8 1212.7 L 590.0 1206.8 L 587.1 1200.9 L 584.2 1195.0 L 581.4 1189.0 L 578.5 1183.1 L 575.7 1177.2 L 573.0 1171.3 L 570.1 1165.3 L 567.3 1159.4 L 564.5 1153.4 L 561.7 1147.5 L 558.9 1141.6 L 556.3 1135.7 L 556.3 1135.7 L 553.5 1129.6 L 550.8 1123.7 L 548.2 1117.6 L 545.6 1111.6 L 543.1 1105.5 L 540.5 1099.4 L 538.0 1093.3 L 535.4 1087.3 L 532.8 1081.2 L 530.2 1075.2 L 527.6 1069.2 L 524.9 1063.3 L 522.0 1057.3 L 519.1 1051.5 L 516.1 1045.6 L 513.1 1040.0 L 513.1 1040.0 L 509.9 1034.2 L 506.6 1028.5 L 503.4 1022.8 L 500.1 1017.1 L 496.7 1011.5 L 493.3 1005.9 L 489.8 1000.3 L 486.3 994.8 L 482.7 989.4 L 479.0 983.9 L 475.2 978.5 L 471.4 973.2 L 467.5 968.1 L 463.5 962.9 L 459.4 957.9 L 455.2 952.9 L 455.2 952.9 L 450.9 948.1 L 446.2 943.5 L 441.4 939.0 L 436.5 934.6 L 431.4 930.4 L 426.2 926.3 L 421.0 922.2 L 415.7 918.1 L 410.5 914.0 L 405.3 909.9 L 400.2 905.7 L 395.2 901.4 L 390.4 897.0 L 385.7 892.5 L 381.2 887.8 L 376.9 882.9 L 376.9 882.9 L 372.9 877.9 L 369.1 872.7 L 365.2 867.4 L 361.5 862.1 L 357.9 856.7 L 354.4 851.1 L 351.0 845.6 L 347.7 839.9 L 344.5 834.2 L 341.4 828.4 L 338.3 822.6 L 335.4 816.8 L 332.6 810.8 L 329.8 805.0 L 327.1 799.0 L 324.5 793.0 L 324.5 793.0 L 322.0 787.0 L 319.7 781.0 L 317.5 774.8 L 315.5 768.7 L 313.5 762.3 L 311.6 756.1 L 309.8 749.8 L 308.1 743.4 L 306.4 737.0 L 304.7 730.6 L 303.2 724.2 L 301.7 717.8 L 300.0 711.4 L 298.5 704.9 L 297.0 698.6 L 295.3 692.2 L 295.3 692.2 L 293.7 685.8 L 292.1 679.5 L 290.5 673.1 L 288.9 666.7 L 287.4 660.4 L 285.8 653.9 L 284.3 647.6 L 282.8 641.2 L 281.3 634.7 L 280.0 628.3 L 278.6 622.0 L 277.3 615.5 L 276.0 609.1 L 274.8 602.6 L 273.7 596.2 L 272.7 589.7 L 272.7 589.7 L 271.6 583.2 L 270.8 576.8 L 269.9 570.2 L 269.1 563.7 L 268.5 557.2 L 267.8 550.6 L 267.1 544.1 L 266.5 537.6 L 266.0 531.1 L 265.5 524.5 L 264.9 518.0 L 264.4 511.4 L 263.9 504.9 L 263.4 498.3 L 262.9 491.8 L 262.3 485.3 L 262.3 485.3 L 261.6 478.6 L 260.7 471.7 L 259.7 464.6 L 258.6 457.5 L 257.3 450.3 L 256.1 443.0 L 254.9 435.8 L 253.9 428.7 L 252.9 421.7 L 252.1 414.9 L 251.7 408.4 L 251.4 402.0 L 251.5 396.1 L 251.9 390.4 L 252.9 385.2 L 254.2 380.5 L 254.2 380.5 L 256.2 376.1 L 258.5 371.9 L 261.3 367.8 L 264.4 363.8 L 267.8 360.1 L 271.5 356.5 L 275.5 353.4 L 279.7 350.5 L 284.0 348.0 L 288.4 345.8 L 292.9 344.2 L 297.4 342.8 L 302.0 342.0 L 306.5 341.8 L 310.8 342.1 L 315.0 343.0 L 315.0 343.0 L 319.2 344.6 L 323.6 347.0 L 328.1 350.1 L 332.6 353.8 L 337.1 358.0 L 341.8 362.8 L 346.4 367.9 L 351.1 373.2 L 355.8 378.9 L 360.4 384.8 L 365.0 390.6 L 369.6 396.6 L 374.1 402.4 L 378.7 408.2 L 383.0 413.7 L 387.2 418.8 L 387.2 418.8 L 391.3 423.9 L 395.5 429.0 L 399.5 434.2 L 403.4 439.4 L 407.4 444.7 L 411.2 449.9 L 415.0 455.2 L 418.9 460.6 L 422.6 466.0 L 426.5 471.4 L 430.1 476.8 L 433.9 482.2 L 437.6 487.7 L 441.3 493.1 L 444.9 498.5 L 448.6 504.0 L 448.6 504.0 L 452.3 509.5 L 455.8 514.9 L 459.4 520.4 L 462.9 526.0 L 466.5 531.5 L 470.0 537.1 L 473.4 542.7 L 476.9 548.2 L 480.3 553.8 L 483.8 559.4 L 487.2 565.0 L 490.7 570.5 L 494.2 576.1 L 497.8 581.7 L 501.3 587.1 L 505.0 592.6 L 505.0 592.6 L 508.6 598.0 L 512.3 603.4 L 516.0 608.9 L 519.7 614.3 L 523.4 619.7 L 527.2 625.0 L 530.9 630.5 L 534.7 635.9 L 538.5 641.2 L 542.3 646.6 L 546.2 651.8 L 550.0 657.2 L 553.9 662.5 L 557.8 667.8 L 561.6 673.0 L 565.6 678.2 L 565.6 678.2 L 569.6 683.5 L 573.6 688.7 L 577.7 693.9 L 581.7 699.0 L 585.8 704.1 L 590.0 709.2 L 594.1 714.3 L 598.2 719.4 L 602.4 724.4 L 606.6 729.5 L 610.8 734.6 L 614.9 739.7 L 619.0 744.8 L 623.2 749.8 L 627.3 754.9 L 631.4 760.0 L 631.4 760.0 L 635.6 765.2 L 639.7 770.3 L 643.7 775.5 L 647.8 780.6 L 652.0 785.7 L 656.1 790.7 L 660.2 795.9 L 664.3 801.0 L 668.4 806.2 L 672.4 811.3 L 676.5 816.5 L 680.6 821.7 L 684.6 826.8 L 688.6 832.0 L 692.7 837.2 L 696.6 842.4 L 696.6 842.4 L 700.5 847.7 L 704.5 852.9 L 708.4 858.1 L 712.4 863.4 L 716.3 868.7 L 720.2 874.0 L 724.1 879.3 L 727.9 884.5 L 731.7 889.8 L 735.6 895.2 L 739.4 900.5 L 743.3 905.8 L 747.0 911.2 L 750.8 916.6 L 754.5 922.1 L 758.1 927.4 L 758.1 927.4 L 761.8 932.9 L 765.3 938.4 L 768.9 944.0 L 772.4 949.6 L 775.7 955.2 L 779.1 960.9 L 782.5 966.5 L 785.9 972.2 L 789.3 977.8 L 792.7 983.4 L 796.2 989.0 L 799.6 994.6 L 803.3 1000.0 L 806.9 1005.4 L 810.7 1010.8 L 814.5 1016.1 L 814.5 1016.1 L 818.5 1021.2 L 822.5 1026.4 L 826.5 1031.6 L 830.6 1036.7 L 834.8 1041.8 L 839.0 1046.8 L 843.2 1051.8 L 847.5 1056.8 L 851.8 1061.7 L 856.3 1066.6 L 860.8 1071.3 L 865.3 1076.1 L 869.9 1080.7 L 874.5 1085.3 L 879.2 1089.8 L 884.0 1094.2 L 884.0 1094.2 L 888.8 1098.5 L 893.9 1102.7 L 899.0 1106.8 L 904.2 1110.8 L 909.5 1114.6 L 914.8 1118.5 L 920.3 1122.2 L 925.7 1126.0 L 931.1 1129.6 L 936.6 1133.4 L 942.0 1137.1 L 947.4 1141.0 L 952.7 1144.8 L 958.0 1148.7 L 963.1 1152.8 L 968.2 1156.9 L 968.2 1156.9 L 973.2 1161.1 L 978.2 1165.4 L 983.3 1169.7 L 988.4 1173.9 L 993.3 1178.2 L 998.3 1182.5 L 1000.0 1184.0" fill="none" stroke="#00e5ff" stroke-width="6.0" stroke-opacity="0.9"/><path d="M 1000.0 856.7 L 996.2 852.8 L 991.8 848.3 L 987.4 844.0 L 983.0 839.8 L 983.0 839.8 L 978.4 835.6 L 973.8 831.6 L 969.0 827.7 L 964.1 824.0 L 959.1 820.2 L 954.1 816.6 L 949.0 813.0 L 943.9 809.5 L 938.8 805.9 L 933.6 802.4 L 928.5 798.8 L 923.5 795.2 L 918.4 791.5 L 913.4 787.9 L 908.5 784.1 L 903.7 780.2 L 903.7 780.2 L 898.9 776.2 L 894.1 772.4 L 889.2 768.5 L 884.4 764.5 L 879.6 760.6 L 874.8 756.7 L 870.0 752.6 L 865.3 748.6 L 860.6 744.6 L 856.0 740.4 L 851.4 736.2 L 846.9 731.9 L 842.5 727.6 L 838.3 723.2 L 834.2 718.6 L 830.1 713.9 L 830.1 713.9 L 826.3 709.2 L 822.6 704.3 L 818.9 699.4 L 815.4 694.4 L 811.9 689.3 L 808.5 684.1 L 805.2 678.8 L 802.0 673.4 L 798.9 668.2 L 795.7 662.7 L 792.6 657.3 L 789.6 651.8 L 786.6 646.4 L 783.6 641.0 L 780.6 635.5 L 777.6 630.0 L 777.6 630.0 L 774.7 624.7 L 771.9 619.2 L 769.1 613.6 L 766.3 608.1 L 763.6 602.5 L 761.0 596.8 L 758.4 591.3 L 755.8 585.6 L 753.3 579.9 L 750.7 574.3 L 748.1 568.6 L 745.5 563.0 L 742.9 557.4 L 740.2 551.8 L 737.4 546.2 L 734.6 540.7 L 734.6 540.7 L 731.8 535.1 L 729.1 529.6 L 726.2 524.1 L 723.4 518.6 L 720.5 513.1 L 717.6 507.6 L 714.8 502.1 L 711.9 496.6 L 708.9 491.1 L 705.9 485.8 L 702.9 480.3 L 700.0 474.8 L 697.0 469.4 L 693.9 464.1 L 690.9 458.7 L 687.8 453.3 L 687.8 453.3 L 684.6 447.9 L 681.3 442.6 L 678.1 437.5 L 674.7 432.2 L 671.3 427.0 L 667.9 421.8 L 664.5 416.6 L 661.0 411.4 L 657.5 406.3 L 654.2 401.1 L 650.8 395.9 L 647.5 390.6 L 644.2 385.3 L 641.0 380.1 L 638.0 374.7 L 635.0 369.3 L 635.0 369.3 L 632.0 363.8 L 629.2 358.4 L 626.4 352.8 L 623.7 347.2 L 621.2 341.7 L 618.6 336.0 L 616.1 330.3 L 613.6 324.7 L 611.1 319.0 L 608.6 313.3 L 606.1 307.6 L 603.6 301.9 L 601.2 296.2 L 598.6 290.6 L 596.1 284.9 L 593.5 279.4 L 593.5 279.4 L 590.9 273.7 L 588.4 268.0 L 585.9 262.4 L 583.5 256.6 L 581.0 250.9 L 578.6 245.2 L 576.1 239.5 L 573.7 233.8 L 571.2 228.1 L 568.6 222.4 L 566.1 216.9 L 563.4 211.3 L 560.6 205.7 L 557.7 200.2 L 554.7 194.9 L 551.7 189.5 L 551.7 189.5 L 548.5 184.3 L 545.1 179.1 L 541.7 173.9 L 538.2 168.9 L 534.6 163.9 L 530.9 158.9 L 527.2 153.9 L 523.4 149.0 L 519.6 144.1 L 515.7 139.2 L 511.8 134.3 L 508.0 129.5 L 504.0 124.6 L 500.2 119.8 L 496.3 114.9 L 492.4 110.0 L 492.4 110.0 L 488.6 105.2 L 484.7 100.3 L 480.8 95.5 L 476.9 90.7 L 472.9 86.0 L 468.9 81.2 L 465.0 76.5 L 460.9 71.7 L 457.0 67.0 L 453.0 62.2 L 448.9 57.5 L 445.0 52.7 L 441.1 47.9 L 437.1 43.1 L 433.3 38.3 L 429.4 33.4 L 429.4 33.4 L 425.6 28.6 L 421.7 23.7 L 417.8 18.9 L 414.0 14.0 L 410.1 9.1 L 406.2 4.3 L 402.9 0.0" fill="none" stroke="#00e5ff" stroke-width="6.0" stroke-opacity="0.9"/><path d="M 622.6 0.0 L 623.8 2.2 L 626.8 7.6 L 626.8 7.6 L 629.9 13.0 L 633.0 18.4 L 636.1 23.8 L 639.3 29.2 L 642.6 34.6 L 645.8 39.9 L 649.0 45.3 L 652.2 50.7 L 655.2 56.1 L 658.3 61.5 L 661.3 67.0 L 664.1 72.5 L 666.8 78.0 L 669.3 83.6 L 671.7 89.3 L 673.8 94.9 L 673.8 94.9 L 675.8 100.7 L 677.6 106.6 L 679.4 112.5 L 681.1 118.5 L 682.6 124.4 L 684.0 130.5 L 685.4 136.5 L 686.6 142.6 L 687.7 148.7 L 688.7 154.7 L 689.6 160.9 L 690.4 167.0 L 690.9 173.2 L 691.5 179.3 L 691.9 185.5 L 692.2 191.5 L 692.2 191.5 L 692.2 197.8 L 691.8 204.1 L 691.1 210.5 L 690.3 217.0 L 689.1 223.7 L 687.9 230.3 L 686.6 236.8 L 685.3 243.4 L 683.9 249.9 L 682.7 256.2 L 681.6 262.5 L 680.9 268.4 L 680.3 274.3 L 680.0 279.8 L 680.2 285.1 L 680.8 290.1 L 680.8 290.1 L 681.7 294.7 L 683.2 298.9 L 684.8 302.8 L 686.8 306.4 L 689.0 309.9 L 691.5 313.0 L 694.1 316.1 L 696.8 319.1 L 699.7 322.1 L 702.6 325.0 L 705.4 328.0 L 708.2 331.1 L 711.0 334.3 L 713.7 337.6 L 716.2 341.3 L 718.5 345.1 L 718.5 345.1 L 720.8 349.3 L 722.9 353.8 L 725.1 358.6 L 727.3 363.6 L 729.4 368.8 L 731.6 374.0 L 733.7 379.3 L 735.8 384.6 L 737.8 389.8 L 739.9 394.7 L 741.9 399.6 L 743.9 404.2 L 746.0 408.6 L 747.9 412.6 L 749.8 416.2 L 751.8 419.2 L 751.8 419.2 L 753.6 421.9 L 755.5 424.1 L 757.3 425.9 L 759.0 427.4 L 760.6 428.6 L 762.3 429.6 L 764.0 430.4 L 765.6 430.9 L 767.3 431.5 L 769.0 432.0 L 770.6 432.5 L 772.5 433.0 L 774.3 433.7 L 776.2 434.6 L 778.1 435.5 L 780.2 436.9 L 780.2 436.9 L 782.3 438.4 L 784.6 440.3 L 787.0 442.4 L 789.4 444.7 L 791.9 447.1 L 794.4 449.5 L 797.0 451.9 L 799.6 454.3 L 802.3 456.6 L 804.9 458.7 L 807.4 460.5 L 810.0 462.1 L 812.5 463.4 L 814.9 464.2 L 817.2 464.6 L 819.4 464.5 L 819.4 464.5 L 821.6 463.9 L 823.7 462.5 L 825.7 460.7 L 827.7 458.4 L 829.7 455.8 L 831.6 452.8 L 833.4 449.7 L 835.3 446.4 L 837.2 443.0 L 839.0 439.7 L 840.8 436.5 L 842.6 433.5 L 844.5 430.7 L 846.4 428.4 L 848.3 426.4 L 850.2 425.0 L 850.2 425.0 L 852.3 424.2 L 854.5 423.9 L 856.9 424.2 L 859.4 425.0 L 861.9 425.9 L 864.5 427.1 L 867.0 428.4 L 869.5 429.7 L 871.8 430.8 L 874.1 431.8 L 876.1 432.5 L 878.0 432.7 L 879.5 432.4 L 880.7 431.5 L 881.6 429.9 L 882.1 427.4 L 882.1 427.4 L 882.2 424.0 L 882.0 420.0 L 881.5 415.3 L 880.8 410.1 L 879.8 404.3 L 878.6 398.2 L 877.2 391.8 L 875.7 385.0 L 873.9 378.1 L 872.0 371.1 L 870.1 364.1 L 868.1 357.1 L 866.0 350.3 L 863.8 343.7 L 861.6 337.3 L 859.5 331.4 L 859.5 331.4 L 857.3 325.6 L 854.8 320.1 L 852.2 314.4 L 849.4 308.9 L 846.6 303.4 L 843.6 298.0 L 840.6 292.5 L 837.5 287.1 L 834.4 281.8 L 831.3 276.3 L 828.2 270.9 L 825.2 265.4 L 822.2 260.0 L 819.4 254.4 L 816.6 248.8 L 814.1 243.2 L 814.1 243.2 L 811.7 237.5 L 809.4 231.7 L 807.1 226.0 L 805.0 220.2 L 802.9 214.4 L 800.9 208.5 L 798.9 202.6 L 796.8 196.8 L 794.9 190.9 L 792.9 185.0 L 791.0 179.1 L 789.0 173.3 L 786.9 167.4 L 784.8 161.6 L 782.7 155.7 L 780.5 149.9 L 780.5 149.9 L 778.3 144.2 L 776.0 138.4 L 773.7 132.7 L 771.3 126.9 L 769.0 121.2 L 766.6 115.5 L 764.2 109.8 L 761.8 104.1 L 759.3 98.4 L 756.9 92.6 L 754.5 87.0 L 752.1 81.2 L 749.7 75.5 L 747.3 69.8 L 744.9 64.1 L 742.6 58.4 L 742.6 58.4 L 740.2 52.6 L 737.9 46.8 L 735.6 41.1 L 733.3 35.3 L 731.0 29.6 L 728.7 23.8 L 726.4 18.0 L 724.1 12.3 L 721.8 6.5 L 719.5 0.8 L 719.2 0.0" fill="none" stroke="#00e5ff" stroke-width="6.0" stroke-opacity="0.9"/></g><g id="clips"><circle cx="0.0" cy="497.6" r="2" fill="none" stroke="#0b5" stroke-width="0.6"/><circle cx="54.8" cy="689.3" r="2" fill="none" stroke="#0b5" stroke-width="0.6"/><circle cx="147.3" cy="866.5" r="2" fill="none" stroke="#0b5" stroke-width="0.6"/><circle cx="261.4" cy="1030.6" r="2" fill="none" stroke="#0b5" stroke-width="0.6"/><circle cx="366.0" cy="1200.8" r="2" fill="none" stroke="#0b5" stroke-width="0.6"/><circle cx="505.6" cy="1343.7" r="2" fill="none" stroke="#0b5" stroke-width="0.6"/><circle cx="645.0" cy="1486.0" r="2" fill="none" stroke="#0b5" stroke-width="0.6"/><circle cx="709.7" cy="1674.1" r="2" fill="none" stroke="#0b5" stroke-width="0.6"/><circle cx="794.3" cy="1846.5" r="2" fill="none" stroke="#0b5" stroke-width="0.6"/><circle cx="912.2" cy="1748.3" r="2" fill="none" stroke="#0b5" stroke-width="0.6"/><circle cx="842.7" cy="1562.4" r="2" fill="none" stroke="#0b5" stroke-width="0.6"/><circle cx="713.3" cy="1414.5" r="2" fill="none" stroke="#0b5" stroke-width="0.6"/><circle cx="608.8" cy="1244.8" r="2" fill="none" stroke="#0b5" stroke-width="0.6"/><circle cx="524.9" cy="1063.3" r="2" fill="none" stroke="#0b5" stroke-width="0.6"/><circle cx="402.9" cy="907.9" r="2" fill="none" stroke="#0b5" stroke-width="0.6"/><circle cx="306.3" cy="736.5" r="2" fill="none" stroke="#0b5" stroke-width="0.6"/><circle cx="266.8" cy="540.7" r="2" fill="none" stroke="#0b5" stroke-width="0.6"/><circle cx="278.5" cy="351.3" r="2" fill="none" stroke="#0b5" stroke-width="0.6"/><circle cx="420.7" cy="463.2" r="2" fill="none" stroke="#0b5" stroke-width="0.6"/><circle cx="530.7" cy="630.2" r="2" fill="none" stroke="#0b5" stroke-width="0.6"/><circle cx="653.7" cy="787.8" r="2" fill="none" stroke="#0b5" stroke-width="0.6"/><circle cx="772.0" cy="948.9" r="2" fill="none" stroke="#0b5" stroke-width="0.6"/><circle cx="896.0" cy="1104.4" r="2" fill="none" stroke="#0b5" stroke-width="0.6"/><circle cx="1000.0" cy="1184.0" r="2" fill="none" stroke="#0b5" stroke-width="0.6"/><circle cx="1000.0" cy="856.7" r="2" fill="none" stroke="#0b5" stroke-width="0.6"/><circle cx="845.4" cy="730.4" r="2" fill="none" stroke="#0b5" stroke-width="0.6"/><circle cx="743.8" cy="559.3" r="2" fill="none" stroke="#0b5" stroke-width="0.6"/><circle cx="644.6" cy="385.9" r="2" fill="none" stroke="#0b5" stroke-width="0.6"/><circle cx="560.1" cy="204.8" r="2" fill="none" stroke="#0b5" stroke-width="0.6"/><circle cx="439.3" cy="45.8" r="2" fill="none" stroke="#0b5" stroke-width="0.6"/><circle cx="622.6" cy="0.0" r="2" fill="none" stroke="#0b5" stroke-width="0.6"/><circle cx="691.9" cy="184.8" r="2" fill="none" stroke="#0b5" stroke-width="0.6"/><circle cx="729.4" cy="368.7" r="2" fill="none" stroke="#0b5" stroke-width="0.6"/><circle cx="860.1" cy="425.3" r="2" fill="none" stroke="#0b5" stroke-width="0.6"/><circle cx="825.4" cy="265.8" r="2" fill="none" stroke="#0b5" stroke-width="0.6"/><circle cx="751.6" cy="80.1" r="2" fill="none" stroke="#0b5" stroke-width="0.6"/><circle cx="719.2" cy="0.0" r="2" fill="none" stroke="#0b5" stroke-width="0.6"/></g><g id="power"><circle cx="402.8" cy="0.0" r="5" fill="none" stroke="#e33" stroke-width="1"/><circle cx="622.6" cy="0.0" r="5" fill="none" stroke="#e33" stroke-width="1"/><circle cx="719.2" cy="0.0" r="5" fill="none" stroke="#e33" stroke-width="1"/><circle cx="1000.0" cy="1184.0" r="5" fill="none" stroke="#e33" stroke-width="1"/><circle cx="1000.0" cy="856.7" r="5" fill="none" stroke="#e33" stroke-width="1"/><circle cx="0.0" cy="497.6" r="5" fill="none" stroke="#e33" stroke-width="1"/></g><g id="bridges"></g></svg>