<svg xmlns="http://www.w3.org/2000/svg" width="2000mm" height="1000mm" viewBox="0 0 2000 1000"><g id="outline"><rect x="0" y="0" width="2000" height="1000" fill="none" stroke="#000" stroke-width="1"/></g><g id="channels"><path d="M 1602.3 1000.0 L 1602.5 998.6 L 1602.7 993.8 L 1602.3 989.0 L 1601.2 984.3 L 1599.4 979.8 L 1599.4 979.8 L 1596.7 975.3 L 1593.2 970.6 L 1589.1 965.8 L 1584.4 960.9 L 1579.4 956.0 L 1574.0 951.0 L 1568.4 946.1 L 1562.8 941.2 L 1557.3 936.4 L 1551.9 931.7 L 1546.8 927.1 L 1542.2 922.7 L 1538.1 918.5 L 1534.7 914.6 L 1532.0 910.9 L 1530.3 907.5 L 1530.3 907.5 L 1529.5 904.6 L 1529.7 902.1 L 1530.7 899.9 L 1532.4 898.1 L 1534.7 896.5 L 1537.3 895.1 L 1540.3 893.9 L 1543.4 892.6 L 1546.6 891.4 L 1549.7 890.1 L 1552.6 888.7 L 1555.1 887.1 L 1557.2 885.2 L 1558.7 883.0 L 1559.5 880.4 L 1559.4 877.3 L 1559.4 877.3 L 1558.4 873.7 L 1556.6 869.6 L 1553.9 865.0 L 1550.7 860.0 L 1547.0 854.7 L 1543.0 849.2 L 1538.8 843.6 L 1534.5 838.0 L 1530.2 832.4 L 1526.2 826.9 L 1522.5 821.7 L 1519.2 816.8 L 1516.5 812.2 L 1514.6 808.2 L 1513.4 804.7 L 1513.3 801.8 L 1513.3 801.8 L 1514.2 799.6 L 1515.9 798.1 L 1518.3 797.1 L 1521.4 796.5 L 1525.1 796.4 L 1529.1 796.6 L 1533.6 796.9 L 1538.2 797.5 L 1543.1 798.0 L 1547.9 798.6 L 1552.8 799.0 L 1557.4 799.3 L 1561.9 799.3 L 1565.9 798.9 L 1569.6 798.1 L 1572.7 796.8 L 1572.7 796.8 L 1575.3 795.0 L 1577.7 792.7 L 1579.8 790.0 L 1581.7 787.0 L 1583.5 783.7 L 1585.1 780.2 L 1586.6 776.7 L 1588.1 773.1 L 1589.6 769.5 L 1591.1 766.0 L 1592.6 762.6 L 1594.3 759.5 L 1596.1 756.7 L 1598.0 754.3 L 1600.2 752.3 L 1602.6 750.8 L 1602.6 750.8 L 1605.2 749.8 L 1608.1 749.0 L 1611.0 748.6 L 1614.1 748.4 L 1617.4 748.5 L 1620.7 748.8 L 1624.0 749.3 L 1627.5 749.9 L 1630.9 750.7 L 1634.4 751.6 L 1637.9 752.6 L 1641.3 753.6 L 1644.7 754.7 L 1648.0 755.8 L 1651.2 756.9 L 1654.3 757.9 L 1654.3 757.9 L 1657.3 758.9 L 1660.2 759.8 L 1663.1 760.6 L 1666.0 761.4 L 1668.8 762.2 L 1671.6 763.1 L 1674.4 764.1 L 1677.2 765.2 L 1679.9 766.5 L 1682.7 768.0 L 1685.4 769.7 L 1688.2 771.7 L 1691.0 774.1 L 1693.8 776.8 L 1696.7 779.9 L 1699.6 783.4 L 1699.6 783.4 L 1702.6 787.4 L 1705.5 791.9 L 1708.4 796.9 L 1711.4 802.3 L 1714.4 808.0 L 1717.4 814.0 L 1720.4 820.2 L 1723.4 826.6 L 1726.4 833.1 L 1729.4 839.7 L 1732.5 846.4 L 1735.6 853.0 L 1738.6 859.5 L 1741.8 865.9 L 1744.9 872.2 L 1748.0 878.1 L 1748.0 878.1 L 1751.2 884.0 L 1754.4 889.8 L 1757.7 895.6 L 1760.9 901.4 L 1764.2 907.2 L 1767.5 913.0 L 1770.9 918.7 L 1774.2 924.5 L 1777.5 930.2 L 1780.9 936.0 L 1784.2 941.7 L 1787.6 947.5 L 1790.9 953.2 L 1794.2 959.0 L 1797.5 964.8 L 1800.8 970.6 L 1800.8 970.6 L 1804.1 976.3 L 1807.3 982.2 L 1810.5 988.0 L 1813.7 993.9 L 1816.8 999.7 L 1817.0 1000.0" fill="none" stroke="#ffd23d" stroke-width="6.0" stroke-opacity="0.9"/></g><g id="clips"><circle cx="1602.3" cy="1000.0" r="2" fill="none" stroke="#0b5" stroke-width="0.6"/><circle cx="1817.0" cy="1000.0" r="2" fill="none" stroke="#0b5" stroke-width="0.6"/></g><g id="power"><circle cx="1602.3" cy="1000.0" r="5" fill="none" stroke="#e33" stroke-width="1"/><circle cx="1816.9" cy="1000.0" r="5" fill="none" stroke="#e33" stroke-width="1"/></g></svg>