<svg xmlns="http://www.w3.org/2000/svg" width="2000mm" height="1000mm" viewBox="0 0 2000 1000"><g id="outline"><rect x="0" y="0" width="2000" height="1000" fill="none" stroke="#000" stroke-width="1"/></g><g id="channels"><path d="M 1095.5 1000.0 L 1097.3 996.8 L 1100.6 990.9 L 1103.7 984.9 L 1106.6 978.9 L 1109.3 972.9 L 1111.7 966.8 L 1113.9 960.7 L 1115.8 954.6 L 1117.4 948.4 L 1118.6 942.2 L 1118.6 942.2 L 1119.5 935.9 L 1120.1 929.6 L 1120.3 923.1 L 1120.3 916.6 L 1119.9 910.1 L 1119.4 903.5 L 1118.6 896.8 L 1117.6 890.2 L 1116.5 883.5 L 1115.3 876.8 L 1113.9 870.2 L 1112.5 863.5 L 1111.0 856.9 L 1109.5 850.3 L 1108.1 843.8 L 1106.6 837.3 L 1106.6 837.3 L 1105.1 830.9 L 1103.6 824.5 L 1101.9 818.1 L 1100.1 811.7 L 1098.2 805.3 L 1096.3 798.9 L 1094.2 792.5 L 1092.1 786.2 L 1089.9 779.9 L 1087.7 773.6 L 1085.4 767.3 L 1083.0 761.1 L 1080.6 754.8 L 1078.2 748.6 L 1075.7 742.5 L 1073.2 736.3 L 1073.2 736.3 L 1070.7 730.2 L 1068.1 724.0 L 1065.5 717.9 L 1062.9 711.7 L 1060.2 705.6 L 1057.5 699.5 L 1054.8 693.4 L 1051.9 687.4 L 1049.0 681.4 L 1046.0 675.4 L 1042.9 669.5 L 1039.7 663.7 L 1036.4 658.0 L 1033.0 652.3 L 1029.5 646.8 L 1025.8 641.4 L 1025.8 641.4 L 1022.0 636.0 L 1018.0 630.7 L 1013.9 625.6 L 1009.7 620.5 L 1005.4 615.4 L 1001.0 610.5 L 996.5 605.6 L 991.9 600.8 L 987.2 596.0 L 982.5 591.3 L 977.7 586.6 L 972.9 582.0 L 968.0 577.4 L 963.1 572.9 L 958.2 568.4 L 953.3 563.9 L 953.3 563.9 L 948.4 559.6 L 943.3 555.3 L 938.2 551.1 L 933.0 547.0 L 927.7 542.9 L 922.4 538.9 L 917.0 535.0 L 911.6 531.1 L 906.2 527.1 L 900.8 523.2 L 895.4 519.3 L 890.0 515.4 L 884.7 511.4 L 879.4 507.4 L 874.1 503.3 L 869.0 499.1 L 869.0 499.1 L 863.8 494.9 L 858.7 490.6 L 853.6 486.3 L 848.6 482.0 L 843.5 477.7 L 838.5 473.4 L 833.5 469.0 L 828.5 464.6 L 823.5 460.2 L 818.5 455.8 L 813.6 451.4 L 808.6 446.9 L 803.7 442.5 L 798.7 438.0 L 793.8 433.6 L 788.9 429.1 L 788.9 429.1 L 784.0 424.6 L 779.1 420.0 L 774.3 415.4 L 769.6 410.8 L 764.8 406.1 L 760.1 401.4 L 755.4 396.6 L 750.7 391.9 L 745.9 387.3 L 741.2 382.6 L 736.4 378.0 L 731.5 373.5 L 726.6 369.0 L 721.6 364.6 L 716.6 360.3 L 711.4 356.2 L 711.4 356.2 L 706.2 352.1 L 700.9 348.1 L 695.6 344.1 L 690.2 340.3 L 684.8 336.5 L 679.3 332.7 L 673.8 329.0 L 668.2 325.3 L 662.6 321.7 L 657.0 318.1 L 651.4 314.6 L 645.7 311.1 L 640.1 307.6 L 634.4 304.1 L 628.7 300.7 L 623.0 297.2 L 623.0 297.2 L 617.3 293.8 L 611.6 290.5 L 605.8 287.2 L 600.0 284.0 L 594.2 280.8 L 588.3 277.6 L 582.5 274.5 L 576.6 271.3 L 570.7 268.2 L 564.8 265.1 L 558.9 262.0 L 553.0 258.9 L 547.1 255.8 L 541.3 252.7 L 535.4 249.5 L 529.6 246.4 L 529.6 246.4 L 523.7 243.2 L 517.9 240.0 L 512.0 236.8 L 506.2 233.6 L 500.4 230.4 L 494.5 227.2 L 488.7 224.0 L 482.9 220.8 L 477.0 217.6 L 471.2 214.4 L 465.4 211.2 L 459.6 207.9 L 453.8 204.7 L 448.0 201.4 L 442.2 198.2 L 436.4 194.9 L 436.4 194.9 L 430.6 191.6 L 424.8 188.4 L 418.9 185.2 L 413.0 182.0 L 407.1 178.9 L 401.2 175.7 L 395.3 172.5 L 389.5 169.3 L 383.6 166.0 L 377.9 162.7 L 372.1 159.3 L 366.5 155.8 L 360.9 152.2 L 355.4 148.6 L 350.1 144.8 L 344.8 140.8 L 344.8 140.8 L 339.6 136.8 L 334.3 132.7 L 329.0 128.5 L 323.7 124.3 L 318.5 120.0 L 313.3 115.7 L 308.2 111.2 L 303.2 106.7 L 298.3 102.1 L 293.6 97.3 L 289.1 92.5 L 284.8 87.6 L 280.7 82.5 L 276.8 77.3 L 273.2 72.0 L 269.9 66.6 L 269.9 66.6 L 266.9 60.9 L 264.2 55.1 L 261.7 49.2 L 259.5 43.0 L 257.4 36.8 L 255.6 30.4 L 253.9 23.9 L 252.5 17.4 L 251.1 10.8 L 249.9 4.1 L 249.2 0.0" fill="none" stroke="#ffd23d" stroke-width="6.0" stroke-opacity="0.9"/><path d="M 445.9 0.0 L 449.4 3.1 L 454.5 7.2 L 459.7 11.2 L 465.2 15.0 L 470.8 18.7 L 476.5 22.3 L 482.2 25.8 L 488.1 29.2 L 494.0 32.6 L 499.9 35.9 L 505.8 39.2 L 511.7 42.6 L 517.5 45.9 L 523.3 49.3 L 523.3 49.3 L 529.0 52.6 L 534.8 55.9 L 540.6 59.0 L 546.5 62.2 L 552.4 65.2 L 558.3 68.2 L 564.2 71.2 L 570.2 74.2 L 576.2 77.1 L 582.2 80.1 L 588.2 83.0 L 594.1 85.9 L 600.1 88.9 L 606.0 91.9 L 611.9 95.0 L 617.8 98.1 L 617.8 98.1 L 623.6 101.3 L 629.5 104.5 L 635.2 107.8 L 641.0 111.2 L 646.8 114.5 L 652.5 117.9 L 658.3 121.2 L 664.0 124.6 L 669.8 127.9 L 675.6 131.3 L 681.3 134.6 L 687.1 137.8 L 693.0 141.0 L 698.8 144.1 L 704.7 147.1 L 710.7 150.0 L 710.7 150.0 L 716.7 152.9 L 722.7 155.9 L 728.7 158.9 L 734.7 161.9 L 740.7 164.9 L 746.8 167.8 L 752.9 170.7 L 759.0 173.5 L 765.1 176.2 L 771.3 178.8 L 777.5 181.2 L 783.7 183.5 L 789.9 185.6 L 796.1 187.5 L 802.4 189.1 L 808.7 190.5 L 808.7 190.5 L 815.3 191.7 L 822.2 193.0 L 829.5 194.3 L 837.0 195.4 L 844.7 196.5 L 852.4 197.4 L 860.1 198.2 L 867.6 198.7 L 874.9 198.9 L 882.0 198.8 L 888.6 198.4 L 894.8 197.7 L 900.4 196.5 L 905.3 194.8 L 909.5 192.6 L 912.8 189.9 L 912.8 189.9 L 915.4 186.5 L 917.4 182.4 L 918.8 177.5 L 919.7 172.1 L 920.1 166.2 L 920.1 159.8 L 919.6 153.2 L 918.7 146.4 L 917.5 139.4 L 915.9 132.4 L 914.0 125.5 L 911.8 118.7 L 909.4 112.1 L 906.8 105.9 L 904.1 100.2 L 901.1 94.9 L 901.1 94.9 L 897.9 90.0 L 894.2 85.4 L 890.0 80.9 L 885.4 76.6 L 880.5 72.4 L 875.3 68.3 L 869.8 64.4 L 864.1 60.5 L 858.3 56.7 L 852.4 53.0 L 846.4 49.3 L 840.4 45.7 L 834.5 42.1 L 828.6 38.4 L 822.9 34.7 L 817.3 31.0 L 817.3 31.0 L 811.9 27.4 L 806.3 23.8 L 800.6 20.4 L 794.8 17.1 L 789.1 13.8 L 783.2 10.5 L 777.4 7.3 L 771.6 4.1 L 765.8 0.8 L 764.4 0.0" fill="none" stroke="#ffd23d" stroke-width="6.0" stroke-opacity="0.9"/><path d="M 1383.6 0.0 L 1383.8 0.7 L 1385.5 7.1 L 1387.3 13.5 L 1387.3 13.5 L 1389.1 19.9 L 1390.9 26.3 L 1392.8 32.7 L 1394.8 39.0 L 1396.8 45.4 L 1398.8 51.7 L 1400.9 58.0 L 1403.0 64.3 L 1405.1 70.6 L 1407.3 76.9 L 1409.5 83.2 L 1411.7 89.5 L 1414.0 95.7 L 1416.3 102.0 L 1418.6 108.2 L 1420.9 114.5 L 1420.9 114.5 L 1423.3 120.7 L 1425.7 126.9 L 1428.1 133.0 L 1430.6 139.2 L 1433.1 145.4 L 1435.6 151.5 L 1438.2 157.7 L 1440.8 163.8 L 1443.4 169.9 L 1446.0 176.0 L 1448.7 182.1 L 1451.3 188.2 L 1453.9 194.3 L 1456.6 200.4 L 1459.2 206.5 L 1461.9 212.7 L 1461.9 212.7 L 1464.5 218.8 L 1467.2 224.9 L 1469.8 231.0 L 1472.5 237.1 L 1475.2 243.1 L 1477.8 249.2 L 1480.5 255.3 L 1483.2 261.4 L 1485.9 267.5 L 1488.7 273.5 L 1491.4 279.6 L 1494.2 285.7 L 1496.9 291.7 L 1499.7 297.7 L 1502.5 303.8 L 1505.3 309.8 L 1505.3 309.8 L 1508.1 315.8 L 1511.0 321.8 L 1513.8 327.9 L 1516.7 333.9 L 1519.5 339.9 L 1522.4 345.9 L 1525.3 351.8 L 1528.2 357.8 L 1531.2 363.8 L 1534.1 369.8 L 1537.1 375.7 L 1540.0 381.7 L 1543.0 387.6 L 1546.0 393.5 L 1549.1 399.5 L 1552.1 405.4 L 1552.1 405.4 L 1555.2 411.3 L 1558.3 417.1 L 1561.5 423.0 L 1564.7 428.8 L 1567.9 434.6 L 1571.2 440.4 L 1574.4 446.2 L 1577.7 452.0 L 1581.0 457.8 L 1584.2 463.6 L 1587.4 469.4 L 1590.7 475.3 L 1593.8 481.1 L 1596.9 487.0 L 1600.0 492.9 L 1603.0 498.8 L 1603.0 498.8 L 1606.0 504.7 L 1608.9 510.7 L 1611.8 516.7 L 1614.7 522.7 L 1617.5 528.7 L 1620.3 534.7 L 1623.1 540.8 L 1625.9 546.8 L 1628.6 552.9 L 1631.4 558.9 L 1634.1 565.0 L 1636.8 571.1 L 1639.5 577.2 L 1642.2 583.2 L 1644.9 589.3 L 1647.6 595.4 L 1647.6 595.4 L 1650.3 601.5 L 1653.0 607.6 L 1655.6 613.7 L 1658.2 619.8 L 1660.8 625.9 L 1663.3 632.1 L 1665.9 638.2 L 1668.5 644.3 L 1671.1 650.5 L 1673.6 656.6 L 1676.2 662.7 L 1678.9 668.8 L 1681.5 674.9 L 1684.2 681.0 L 1687.0 687.0 L 1689.8 693.1 L 1689.8 693.1 L 1692.6 699.1 L 1695.5 705.1 L 1698.5 711.0 L 1701.5 716.9 L 1704.5 722.9 L 1707.6 728.8 L 1710.7 734.7 L 1713.8 740.6 L 1716.9 746.4 L 1720.0 752.3 L 1723.0 758.2 L 1726.1 764.1 L 1729.1 770.1 L 1732.1 776.0 L 1735.0 782.0 L 1737.9 788.0 L 1737.9 788.0 L 1740.8 794.0 L 1743.7 800.0 L 1746.5 806.0 L 1749.4 812.0 L 1752.2 818.0 L 1755.1 824.0 L 1757.9 830.1 L 1760.7 836.1 L 1763.4 842.2 L 1766.1 848.3 L 1768.8 854.4 L 1771.4 860.5 L 1773.9 866.6 L 1776.4 872.8 L 1778.8 879.0 L 1781.1 885.2 L 1781.1 885.2 L 1783.3 891.4 L 1785.5 897.7 L 1787.7 904.0 L 1789.8 910.3 L 1791.8 916.6 L 1793.8 923.0 L 1795.7 929.3 L 1797.6 935.7 L 1799.4 942.1 L 1801.2 948.6 L 1802.9 955.0 L 1804.6 961.4 L 1806.2 967.9 L 1807.8 974.3 L 1809.3 980.8 L 1810.8 987.3 L 1810.8 987.3 L 1812.2 993.8 L 1813.4 1000.0" fill="none" stroke="#ffd23d" stroke-width="6.0" stroke-opacity="0.9"/></g><g id="clips"><circle cx="1095.5" cy="1000.0" r="2" fill="none" stroke="#0b5" stroke-width="0.6"/><circle cx="249.2" cy="0.0" r="2" fill="none" stroke="#0b5" stroke-width="0.6"/><circle cx="445.9" cy="0.0" r="2" fill="none" stroke="#0b5" stroke-width="0.6"/><circle cx="764.4" cy="0.0" r="2" fill="none" stroke="#0b5" stroke-width="0.6"/><circle cx="1383.6" cy="0.0" r="2" fill="none" stroke="#0b5" stroke-width="0.6"/><circle cx="1813.4" cy="1000.0" r="2" fill="none" stroke="#0b5" stroke-width="0.6"/></g><g id="power"><circle cx="1095.5" cy="1000.0" r="5" fill="none" stroke="#e33" stroke-width="1"/><circle cx="249.2" cy="0.0" r="5" fill="none" stroke="#e33" stroke-width="1"/><circle cx="445.8" cy="0.0" r="5" fill="none" stroke="#e33" stroke-width="1"/><circle cx="764.3" cy="0.0" r="5" fill="none" stroke="#e33" stroke-width="1"/><circle cx="1383.6" cy="0.0" r="5" fill="none" stroke="#e33" stroke-width="1"/><circle cx="1813.4" cy="1000.0" r="5" fill="none" stroke="#e33" stroke-width="1"/></g></svg>