<svg xmlns="http://www.w3.org/2000/svg" width="1000mm" height="1500mm" viewBox="0 0 1000 1500"><g id="outline"><rect x="0" y="0" width="1000" height="1500" fill="none" stroke="#000" stroke-width="1"/></g><g id="channels"><path d="M 402.9 1500.0 L 402.4 1499.4 L 398.5 1494.5 L 394.8 1489.5 L 391.0 1484.6 L 387.3 1479.6 L 383.7 1474.6 L 380.1 1469.6 L 376.6 1464.5 L 373.2 1459.3 L 369.9 1454.1 L 369.9 1454.1 L 366.7 1448.9 L 363.4 1443.5 L 360.2 1438.3 L 357.2 1432.9 L 354.1 1427.5 L 351.1 1422.0 L 348.2 1416.6 L 345.3 1411.1 L 342.5 1405.5 L 339.8 1400.0 L 337.1 1394.4 L 334.4 1388.7 L 331.8 1383.2 L 329.3 1377.5 L 326.9 1371.8 L 324.5 1366.1 L 324.5 1366.1 L 322.2 1360.3 L 320.1 1354.6 L 318.1 1348.7 L 316.1 1342.8 L 314.2 1337.0 L 312.4 1331.0 L 310.7 1325.1 L 309.0 1319.1 L 307.2 1313.2 L 305.6 1307.1 L 304.0 1301.2 L 302.2 1295.2 L 300.5 1289.2 L 298.8 1283.2 L 297.0 1277.4 L 295.0 1271.4 L 295.0 1271.4 L 293.1 1265.6 L 291.2 1259.6 L 289.4 1253.8 L 287.5 1247.8 L 285.5 1241.9 L 283.7 1236.0 L 281.8 1230.0 L 279.9 1224.2 L 277.9 1218.3 L 275.8 1212.5 L 273.8 1206.6 L 271.7 1200.8 L 269.6 1195.0 L 267.4 1189.1 L 265.2 1183.4 L 262.8 1177.7 L 262.8 1177.7 L 260.3 1172.1 L 257.6 1166.4 L 254.8 1160.8 L 251.9 1155.4 L 248.9 1149.8 L 245.8 1144.3 L 242.7 1138.8 L 239.7 1133.4 L 236.6 1127.9 L 233.6 1122.4 L 230.7 1117.0 L 227.8 1111.5 L 225.3 1105.9 L 222.8 1100.2 L 220.5 1094.7 L 218.5 1088.9 L 218.5 1088.9 L 216.6 1083.0 L 214.5 1076.5 L 212.4 1069.7 L 210.3 1062.6 L 208.3 1055.4 L 206.2 1048.2 L 204.4 1040.9 L 202.8 1033.9 L 201.3 1027.0 L 200.3 1020.5 L 199.5 1014.4 L 199.1 1009.0 L 199.2 1004.1 L 199.8 999.8 L 200.9 996.5 L 202.6 994.1 L 202.6 994.1 L 205.0 992.6 L 208.2 991.9 L 212.0 991.9 L 216.3 992.5 L 221.2 993.7 L 226.4 995.5 L 232.0 997.7 L 237.8 1000.3 L 243.8 1003.2 L 249.8 1006.5 L 255.9 1009.8 L 261.8 1013.4 L 267.6 1017.0 L 273.2 1020.7 L 278.3 1024.2 L 283.0 1027.8 L 283.0 1027.8 L 287.6 1031.3 L 291.9 1035.2 L 296.1 1039.3 L 300.2 1043.7 L 304.3 1048.3 L 308.3 1053.1 L 312.2 1058.0 L 316.1 1063.0 L 320.0 1068.1 L 323.8 1073.3 L 327.7 1078.5 L 331.5 1083.5 L 335.5 1088.6 L 339.5 1093.5 L 343.5 1098.4 L 347.7 1103.1 L 347.7 1103.1 L 351.8 1107.6 L 356.0 1112.2 L 360.2 1116.8 L 364.5 1121.3 L 368.8 1125.7 L 373.1 1130.2 L 377.4 1134.6 L 381.7 1139.0 L 386.1 1143.5 L 390.4 1148.0 L 394.7 1152.4 L 399.0 1156.8 L 403.4 1161.2 L 407.7 1165.7 L 412.0 1170.1 L 416.3 1174.6 L 416.3 1174.6 L 420.6 1179.2 L 424.9 1183.6 L 429.3 1188.0 L 433.7 1192.3 L 438.2 1196.7 L 442.6 1201.0 L 447.0 1205.5 L 451.3 1209.9 L 455.7 1214.3 L 460.1 1218.7 L 464.3 1223.2 L 468.5 1227.8 L 472.5 1232.4 L 476.6 1237.1 L 480.4 1241.9 L 484.3 1246.7 L 484.3 1246.7 L 487.9 1251.7 L 491.5 1256.7 L 494.9 1261.9 L 498.3 1267.1 L 501.5 1272.3 L 504.8 1277.6 L 508.0 1282.9 L 511.0 1288.3 L 514.1 1293.7 L 517.2 1299.1 L 520.2 1304.5 L 523.1 1310.0 L 526.1 1315.5 L 529.0 1321.0 L 532.0 1326.4 L 534.9 1331.9 L 534.9 1331.9 L 537.8 1337.4 L 540.6 1342.8 L 543.5 1348.4 L 546.2 1354.0 L 548.9 1359.5 L 551.6 1365.1 L 554.2 1370.7 L 556.8 1376.3 L 559.5 1381.9 L 562.1 1387.6 L 564.8 1393.1 L 567.5 1398.8 L 570.2 1404.4 L 572.9 1409.9 L 575.7 1415.5 L 578.5 1421.0 L 578.5 1421.0 L 581.4 1426.5 L 584.3 1431.9 L 587.3 1437.4 L 590.3 1442.8 L 593.3 1448.2 L 596.4 1453.6 L 599.4 1459.0 L 602.4 1464.4 L 605.5 1469.8 L 608.6 1475.2 L 611.7 1480.6 L 614.7 1486.0 L 617.8 1491.4 L 620.9 1496.7 L 622.6 1500.0" fill="none" stroke="#00e5ff" stroke-width="6.0" stroke-opacity="0.9"/><path d="M 719.2 1500.0 L 717.2 1495.0 L 714.9 1489.3 L 712.5 1483.6 L 710.2 1477.8 L 707.9 1472.1 L 705.6 1466.3 L 705.6 1466.3 L 703.2 1460.5 L 700.9 1454.8 L 698.6 1449.0 L 696.3 1443.4 L 693.9 1437.6 L 691.6 1431.8 L 689.3 1426.1 L 686.9 1420.3 L 684.6 1414.6 L 682.2 1408.9 L 679.9 1403.1 L 677.5 1397.4 L 675.1 1391.7 L 672.7 1385.9 L 670.3 1380.3 L 667.9 1374.5 L 667.9 1374.5 L 665.5 1368.9 L 663.0 1363.1 L 660.6 1357.4 L 658.2 1351.8 L 655.7 1346.0 L 653.2 1340.3 L 650.8 1334.7 L 648.3 1328.9 L 645.8 1323.3 L 643.3 1317.6 L 640.8 1311.9 L 638.3 1306.3 L 635.8 1300.6 L 633.3 1294.9 L 630.8 1289.3 L 628.2 1283.6 L 628.2 1283.6 L 625.7 1277.9 L 623.1 1272.3 L 620.6 1266.6 L 618.1 1261.0 L 615.6 1255.3 L 613.0 1249.6 L 610.5 1244.0 L 607.9 1238.3 L 605.3 1232.6 L 602.7 1227.1 L 600.1 1221.4 L 597.4 1215.8 L 594.7 1210.3 L 591.9 1204.8 L 589.0 1199.2 L 586.1 1193.8 L 586.1 1193.8 L 583.1 1188.4 L 580.1 1183.0 L 577.0 1177.6 L 573.8 1172.3 L 570.7 1167.0 L 567.4 1161.7 L 564.1 1156.4 L 560.9 1151.2 L 557.5 1145.9 L 554.1 1140.8 L 550.7 1135.6 L 547.3 1130.4 L 543.9 1125.2 L 540.4 1120.0 L 537.0 1114.9 L 533.4 1109.8 L 533.4 1109.8 L 530.0 1104.7 L 526.4 1099.6 L 522.8 1094.6 L 519.2 1089.6 L 515.5 1084.6 L 511.8 1079.6 L 508.1 1074.6 L 504.3 1069.6 L 500.6 1064.7 L 496.8 1059.7 L 493.1 1054.8 L 489.3 1049.8 L 485.6 1045.0 L 482.0 1040.0 L 478.2 1035.0 L 474.6 1030.0 L 474.6 1030.0 L 470.8 1025.0 L 467.2 1020.0 L 463.5 1015.0 L 459.9 1010.0 L 456.2 1005.0 L 452.6 999.9 L 448.9 994.9 L 445.3 989.9 L 441.5 985.0 L 437.9 980.0 L 434.2 974.9 L 430.6 969.9 L 426.9 964.9 L 423.3 959.9 L 419.7 954.9 L 416.0 949.8 L 416.0 949.8 L 412.4 944.8 L 408.8 939.8 L 405.2 934.7 L 401.6 929.7 L 398.0 924.7 L 394.4 919.6 L 390.8 914.5 L 387.2 909.5 L 383.6 904.4 L 380.0 899.4 L 376.4 894.3 L 372.7 889.3 L 369.0 884.3 L 365.2 879.4 L 361.5 874.6 L 357.7 869.7 L 357.7 869.7 L 353.9 864.8 L 350.1 859.9 L 346.2 855.0 L 342.4 850.1 L 338.5 845.2 L 334.7 840.3 L 330.8 835.5 L 326.8 830.6 L 322.9 825.9 L 318.9 821.1 L 314.8 816.4 L 310.7 811.8 L 306.6 807.2 L 302.3 802.6 L 298.0 798.2 L 293.7 793.8 L 293.7 793.8 L 289.3 789.5 L 284.9 785.2 L 280.5 780.8 L 275.9 776.3 L 271.3 771.9 L 266.8 767.6 L 262.1 763.4 L 257.4 759.2 L 252.7 755.1 L 247.8 751.2 L 242.9 747.4 L 237.9 743.8 L 232.9 740.3 L 227.7 737.2 L 222.5 734.2 L 217.2 731.5 L 217.2 731.5 L 211.6 729.1 L 206.1 727.1 L 200.3 725.3 L 194.3 723.7 L 188.4 722.4 L 182.3 721.3 L 176.2 720.3 L 170.0 719.4 L 163.8 718.6 L 157.6 717.8 L 151.3 717.0 L 145.1 716.2 L 138.9 715.3 L 132.9 714.2 L 126.9 713.1 L 120.9 711.6 L 120.9 711.6 L 114.9 710.3 L 108.7 709.0 L 102.3 708.0 L 95.7 706.9 L 89.1 705.9 L 82.5 704.9 L 76.0 703.8 L 69.5 702.6 L 63.3 701.3 L 57.3 699.7 L 51.6 698.0 L 46.2 695.9 L 41.2 693.6 L 36.7 690.8 L 32.7 687.6 L 29.3 684.1 L 29.3 684.1 L 26.5 679.8 L 24.3 674.7 L 22.6 669.0 L 21.3 662.7 L 20.5 656.0 L 20.0 649.0 L 19.8 641.8 L 19.9 634.6 L 20.1 627.4 L 20.5 620.2 L 20.9 613.5 L 21.3 607.2 L 21.6 601.4 L 21.9 596.2 L 22.0 591.9 L 21.9 588.5" fill="none" stroke="#00e5ff" stroke-width="6.0" stroke-opacity="0.9"/><path d="M 49.3 515.5 L 48.5 512.0 L 47.7 507.5 L 47.0 502.5 L 46.1 496.7 L 45.3 490.5 L 44.2 483.8 L 43.1 476.8 L 41.9 469.5 L 40.5 462.2 L 38.9 454.7 L 37.1 447.4 L 35.1 440.2 L 32.9 433.2 L 30.3 426.6 L 27.5 420.5 L 24.4 414.8 L 24.4 414.8 L 21.0 409.5 L 17.2 404.2 L 13.2 398.9 L 8.9 393.7 L 4.3 388.5 L 0.0 383.9" fill="none" stroke="#00e5ff" stroke-width="6.0" stroke-opacity="0.9"/></g><g id="clips"><circle cx="402.9" cy="1500.0" r="2" fill="none" stroke="#0b5" stroke-width="0.6"/><circle cx="622.6" cy="1500.0" r="2" fill="none" stroke="#0b5" stroke-width="0.6"/><circle cx="719.2" cy="1500.0" r="2" fill="none" stroke="#0b5" stroke-width="0.6"/><circle cx="21.9" cy="588.5" r="2" fill="none" stroke="#0b5" stroke-width="0.6"/><circle cx="49.3" cy="515.5" r="2" fill="none" stroke="#0b5" stroke-width="0.6"/><circle cx="0.0" cy="383.9" r="2" fill="none" stroke="#0b5" stroke-width="0.6"/></g><g id="power"><circle cx="402.8" cy="1500.0" r="5" fill="none" stroke="#e33" stroke-width="1"/><circle cx="622.6" cy="1500.0" r="5" fill="none" stroke="#e33" stroke-width="1"/><circle cx="719.2" cy="1500.0" r="5" fill="none" stroke="#e33" stroke-width="1"/><circle cx="0.0" cy="383.9" r="5" fill="none" stroke="#e33" stroke-width="1"/></g><g id="bridges"></g></svg>