<svg xmlns="http://www.w3.org/2000/svg" width="1000mm" height="2000mm" viewBox="0 0 1000 2000"><g id="outline"><rect x="0" y="0" width="1000" height="2000" fill="none" stroke="#000" stroke-width="1"/></g><g id="channels"><path d="M 1000.0 723.2 L 999.4 721.6 L 997.1 715.9 L 994.9 710.2 L 992.6 704.5 L 990.3 698.9 L 988.1 693.2 L 988.1 693.2 L 985.8 687.5 L 983.5 681.8 L 981.1 676.2 L 978.7 670.6 L 976.3 665.0 L 973.7 659.4 L 971.2 653.8 L 968.6 648.3 L 966.0 642.6 L 963.5 637.1 L 960.9 631.6 L 958.3 626.0 L 955.7 620.5 L 953.2 615.0 L 950.6 609.3 L 948.1 603.8 L 948.1 603.8 L 945.5 598.2 L 943.0 592.7 L 940.5 587.1 L 937.9 581.6 L 935.4 575.9 L 932.8 570.4 L 930.3 564.8 L 927.8 559.3 L 925.2 553.7 L 922.6 548.2 L 920.0 542.6 L 917.5 537.0 L 914.8 531.5 L 912.2 526.0 L 909.7 520.5 L 907.0 515.0 L 907.0 515.0 L 904.3 509.4 L 901.7 503.9 L 899.1 498.3 L 896.5 492.8 L 893.9 487.3 L 891.3 481.7 L 888.7 476.1 L 886.0 470.6 L 883.3 465.1 L 880.7 459.7 L 877.9 454.1 L 875.2 448.7 L 872.3 443.3 L 869.4 437.9 L 866.6 432.5 L 863.6 427.2 L 863.6 427.2 L 860.6 421.8 L 857.7 416.2 L 854.7 410.5 L 851.9 404.7 L 848.9 398.8 L 846.0 393.1 L 843.0 387.3 L 839.9 381.6 L 836.7 376.1 L 833.5 370.8 L 830.1 365.6 L 826.6 360.8 L 823.0 356.3 L 819.1 352.1 L 815.1 348.3 L 810.8 344.9 L 810.8 344.9 L 806.3 342.0 L 801.6 339.1 L 796.5 336.5 L 791.2 334.0 L 785.6 331.8 L 780.0 329.8 L 774.3 328.1 L 768.5 326.7 L 762.6 325.6 L 756.8 324.9 L 751.1 324.4 L 745.5 324.3 L 740.1 324.7 L 734.9 325.4 L 729.8 326.6 L 725.0 328.2 L 725.0 328.2 L 720.5 330.4 L 716.2 333.3 L 711.9 336.7 L 707.9 340.6 L 703.8 344.9 L 700.0 349.6 L 696.2 354.8 L 692.5 360.0 L 688.9 365.5 L 685.3 371.2 L 681.7 377.0 L 678.2 382.7 L 674.7 388.3 L 671.1 393.8 L 667.6 399.1 L 664.0 404.2 L 664.0 404.2 L 660.4 409.2 L 656.9 414.2 L 653.5 419.2 L 650.1 424.3 L 646.8 429.4 L 643.5 434.5 L 640.2 439.7 L 636.9 444.9 L 633.7 450.1 L 630.3 455.2 L 627.1 460.5 L 623.8 465.6 L 620.5 470.8 L 617.1 475.9 L 613.8 481.0 L 610.4 486.1 L 610.4 486.1 L 606.9 491.1 L 603.5 496.2 L 600.0 501.2 L 596.5 506.3 L 593.1 511.4 L 589.6 516.3 L 586.1 521.4 L 582.6 526.4 L 579.0 531.4 L 575.5 536.4 L 571.9 541.4 L 568.3 546.3 L 564.7 551.2 L 561.1 556.2 L 557.4 561.0 L 553.7 565.9 L 553.7 565.9 L 549.9 570.7 L 546.2 575.6 L 542.4 580.4 L 538.5 585.1 L 534.7 589.8 L 530.8 594.5 L 526.8 599.3 L 523.0 604.0 L 519.0 608.7 L 515.1 613.3 L 511.1 618.0 L 507.2 622.7 L 503.1 627.3 L 499.1 632.0 L 495.2 636.6 L 491.2 641.3 L 491.2 641.3 L 487.2 645.9 L 483.1 650.5 L 479.1 655.1 L 475.0 659.6 L 470.8 664.2 L 466.7 668.7 L 462.5 673.2 L 458.5 677.7 L 454.3 682.2 L 450.2 686.8 L 446.2 691.3 L 442.1 695.9 L 438.1 700.5 L 434.1 705.2 L 430.2 709.9 L 426.4 714.7 L 426.4 714.7 L 422.6 719.5 L 418.6 724.2 L 414.6 728.9 L 410.6 733.7 L 406.5 738.5 L 402.5 743.3 L 398.5 748.1 L 394.6 753.0 L 390.9 757.8 L 387.2 762.8 L 383.7 767.9 L 380.5 772.9 L 377.3 778.1 L 374.5 783.3 L 372.0 788.7 L 369.8 794.1 L 369.8 794.1 L 367.8 799.6 L 366.0 805.3 L 364.6 811.0 L 363.2 816.9 L 362.1 822.9 L 361.1 828.9 L 360.3 834.9 L 359.8 841.1 L 359.3 847.3 L 359.0 853.4 L 358.8 859.6 L 358.8 865.7 L 359.0 871.8 L 359.2 878.0 L 359.6 884.0 L 360.0 889.9 L 360.0 889.9 L 360.7 895.9 L 361.6 901.8 L 362.7 907.8 L 364.0 913.7 L 365.4 919.6 L 367.0 925.5 L 368.8 931.4 L 370.6 937.3 L 372.5 943.2 L 374.5 949.1 L 376.4 954.9 L 378.4 960.8 L 380.5 966.7 L 382.4 972.6 L 384.3 978.4 L 386.1 984.2 L 386.1 984.2 L 387.9 990.1 L 389.8 995.9 L 391.6 1001.7 L 393.5 1007.6 L 395.4 1013.4 L 397.3 1019.2 L 399.3 1025.0 L 401.3 1030.8 L 403.2 1036.6 L 405.2 1042.4 L 407.1 1048.2 L 409.1 1054.0 L 411.0 1059.8 L 412.9 1065.7 L 414.8 1071.5 L 416.6 1077.3 L 416.6 1077.3 L 418.4 1083.1 L 420.1 1089.0 L 421.9 1094.9 L 423.5 1100.8 L 425.2 1106.7 L 426.8 1112.6 L 428.5 1118.5 L 430.1 1124.4 L 431.8 1130.2 L 433.5 1136.1 L 435.1 1142.0 L 436.8 1147.9 L 438.5 1153.8 L 440.3 1159.6 L 442.1 1165.5 L 444.0 1171.3 L 444.0 1171.3 L 445.9 1177.1 L 447.7 1183.0 L 449.6 1188.9 L 451.3 1194.7 L 453.1 1200.6 L 455.0 1206.4 L 456.8 1212.3 L 458.8 1218.2 L 460.8 1224.0 L 462.8 1229.8 L 464.9 1235.5 L 467.1 1241.2 L 469.5 1246.8 L 471.9 1252.3 L 474.6 1257.8 L 477.3 1263.2 L 477.3 1263.2 L 480.2 1268.4 L 483.2 1273.7 L 486.4 1278.9 L 489.7 1284.1 L 493.0 1289.1 L 496.5 1294.2 L 500.0 1299.2 L 503.7 1304.1 L 507.3 1309.0 L 511.1 1313.9 L 515.0 1318.7 L 518.8 1323.4 L 522.8 1328.0 L 526.7 1332.7 L 530.8 1337.3 L 534.8 1341.9 L 534.8 1341.9 L 538.9 1346.4 L 543.2 1350.7 L 547.7 1354.9 L 552.3 1359.0 L 556.9 1363.0 L 561.7 1367.0 L 566.5 1370.9 L 571.3 1374.9 L 576.1 1378.8 L 580.8 1382.8 L 585.4 1386.7 L 590.0 1390.9 L 594.4 1395.1 L 598.6 1399.4 L 602.7 1403.9 L 606.5 1408.5 L 606.5 1408.5 L 610.3 1413.2 L 613.9 1418.0 L 617.5 1423.0 L 620.9 1428.0 L 624.3 1433.0 L 627.6 1438.2 L 630.7 1443.3 L 633.8 1448.7 L 636.8 1454.0 L 639.7 1459.3 L 642.5 1464.8 L 645.2 1470.2 L 647.6 1475.7 L 650.1 1481.2 L 652.4 1486.8 L 654.6 1492.5 L 654.6 1492.5 L 656.7 1498.2 L 658.4 1503.9 L 660.0 1509.7 L 661.3 1515.6 L 662.5 1521.6 L 663.6 1527.7 L 664.7 1533.8 L 665.6 1539.8 L 666.5 1546.0 L 667.4 1552.1 L 668.4 1558.2 L 669.4 1564.3 L 670.5 1570.4 L 671.7 1576.4 L 673.2 1582.3 L 674.8 1588.2 L 674.8 1588.2 L 676.5 1594.1 L 678.3 1599.9 L 680.1 1605.7 L 682.0 1611.6 L 683.9 1617.4 L 685.9 1623.1 L 687.9 1628.9 L 690.0 1634.7 L 692.3 1640.4 L 694.5 1646.1 L 696.7 1651.7 L 699.1 1657.4 L 701.4 1663.0 L 703.8 1668.6 L 706.3 1674.2 L 708.9 1679.8 L 708.9 1679.8 L 711.6 1685.2 L 714.4 1690.6 L 717.4 1696.0 L 720.5 1701.3 L 723.7 1706.6 L 726.9 1711.9 L 730.3 1717.1 L 733.6 1722.3 L 736.9 1727.5 L 740.1 1732.8 L 743.3 1738.0 L 746.4 1743.2 L 749.4 1748.6 L 752.1 1753.9 L 754.8 1759.3 L 757.2 1764.9 L 757.2 1764.9 L 759.6 1770.6 L 762.3 1776.5 L 765.1 1782.7 L 768.0 1789.1 L 770.8 1795.6 L 773.7 1802.1 L 776.3 1808.7 L 778.7 1815.0 L 780.9 1821.4 L 782.8 1827.4 L 784.3 1833.2 L 785.2 1838.7 L 785.5 1843.8 L 785.3 1848.5 L 784.3 1852.6 L 782.6 1856.2 L 782.6 1856.2 L 779.9 1859.3 L 776.4 1862.0 L 772.1 1864.5 L 767.1 1866.6 L 761.4 1868.4 L 755.3 1869.9 L 748.7 1871.1 L 741.8 1872.0 L 734.9 1872.6 L 727.8 1872.9 L 720.6 1872.9 L 713.6 1872.7 L 706.9 1872.1 L 700.4 1871.3 L 694.4 1870.2 L 688.9 1868.9 L 688.9 1868.9 L 683.8 1867.2 L 678.6 1865.1 L 673.5 1862.6 L 668.5 1859.8 L 663.6 1856.6 L 658.7 1853.2 L 653.9 1849.4 L 649.2 1845.5 L 644.6 1841.3 L 640.1 1837.0 L 635.8 1832.5 L 631.6 1828.0 L 627.6 1823.3 L 623.7 1818.6 L 619.9 1813.9 L 616.4 1809.2 L 616.4 1809.2 L 613.1 1804.3 L 610.1 1799.4 L 607.3 1794.1 L 604.8 1788.7 L 602.3 1783.1 L 600.1 1777.4 L 597.9 1771.6 L 595.8 1765.7 L 593.8 1759.8 L 591.9 1753.8 L 589.9 1747.8 L 587.8 1742.0 L 585.7 1736.0 L 583.6 1730.2 L 581.3 1724.5 L 578.8 1718.8 L 578.8 1718.8 L 576.2 1713.3 L 573.7 1707.7 L 571.0 1702.2 L 568.2 1696.8 L 565.5 1691.3 L 562.7 1685.8 L 560.0 1680.4 L 557.2 1674.9 L 554.3 1669.5 L 551.6 1664.0 L 548.7 1658.6 L 546.0 1653.2 L 543.2 1647.7 L 540.5 1642.2 L 537.8 1636.7 L 535.1 1631.2 L 535.1 1631.2 L 532.5 1625.7 L 529.9 1620.1 L 527.3 1614.6 L 524.8 1609.0 L 522.2 1603.4 L 519.8 1597.9 L 517.3 1592.3 L 514.8 1586.7 L 512.3 1581.0 L 509.8 1575.5 L 507.2 1569.9 L 504.7 1564.4 L 502.1 1558.8 L 499.5 1553.3 L 496.8 1547.8 L 494.1 1542.3 L 494.1 1542.3 L 491.4 1536.9 L 488.6 1531.4 L 485.8 1525.9 L 483.0 1520.5 L 480.2 1515.1 L 477.3 1509.7 L 474.5 1504.2 L 471.6 1498.9 L 468.7 1493.5 L 465.8 1488.1 L 462.8 1482.8 L 459.8 1477.5 L 456.7 1472.1 L 453.6 1466.9 L 450.5 1461.6 L 447.4 1456.4 L 447.4 1456.4 L 444.1 1451.2 L 440.8 1446.0 L 437.5 1440.9 L 434.2 1435.8 L 430.8 1430.7 L 427.4 1425.7 L 423.9 1420.6 L 420.4 1415.5 L 416.9 1410.6 L 413.4 1405.5 L 409.8 1400.5 L 406.3 1395.6 L 402.7 1390.5 L 399.2 1385.5 L 395.7 1380.5 L 392.2 1375.5 L 392.2 1375.5 L 388.7 1370.6 L 385.2 1365.5 L 381.6 1360.5 L 378.1 1355.6 L 374.5 1350.6 L 370.9 1345.6 L 367.3 1340.7 L 363.7 1335.7 L 360.1 1330.7 L 356.5 1325.7 L 353.0 1320.8 L 349.5 1315.8 L 345.9 1310.8 L 342.3 1305.9 L 338.8 1300.9 L 335.2 1295.8 L 335.2 1295.8 L 331.7 1290.9 L 328.2 1285.9 L 324.6 1280.9 L 321.1 1275.9 L 317.6 1270.9 L 314.0 1265.9 L 310.5 1260.9 L 307.1 1255.8 L 303.6 1250.9 L 300.1 1245.8 L 296.6 1240.7 L 293.2 1235.8 L 289.7 1230.7 L 286.3 1225.7 L 282.9 1220.5 L 279.5 1215.4 L 279.5 1215.4 L 276.0 1210.4 L 272.6 1205.2 L 269.3 1200.1 L 266.0 1195.0 L 262.7 1189.9 L 259.4 1184.7 L 256.2 1179.5 L 252.9 1174.3 L 249.6 1169.2 L 246.3 1164.0 L 243.1 1158.8 L 239.8 1153.6 L 236.6 1148.5 L 233.3 1143.3 L 230.0 1138.1 L 226.7 1132.9 L 226.7 1132.9 L 223.5 1127.8 L 220.2 1122.6 L 217.0 1117.4 L 213.8 1112.2 L 210.5 1107.1 L 207.2 1101.8 L 204.0 1096.7 L 200.8 1091.4 L 197.5 1086.3 L 194.3 1081.1 L 190.9 1075.9 L 187.7 1070.7 L 184.4 1065.6 L 181.1 1060.4 L 177.8 1055.3 L 174.5 1050.1 L 174.5 1050.1 L 171.1 1045.1 L 167.7 1040.0 L 164.2 1034.9 L 160.6 1030.0 L 157.0 1024.9 L 153.3 1019.9 L 149.7 1015.0 L 146.1 1010.0 L 142.6 1004.9 L 139.1 1000.0 L 135.7 994.9 L 132.3 989.8 L 128.9 984.7 L 125.8 979.5 L 122.8 974.2 L 119.8 968.9 L 119.8 968.9 L 117.0 963.5 L 114.0 958.1 L 111.1 952.6 L 108.1 947.1 L 105.2 941.6 L 102.4 935.9 L 99.6 930.3 L 96.9 924.6 L 94.4 918.9 L 92.1 913.2 L 90.0 907.5 L 88.2 901.8 L 86.6 896.1 L 85.4 890.3 L 84.4 884.6 L 83.9 878.9 L 83.9 878.9 L 83.7 873.1 L 83.9 867.3 L 84.3 861.5 L 85.1 855.6 L 86.2 849.7 L 87.4 843.8 L 88.9 837.9 L 90.6 831.9 L 92.5 826.0 L 94.4 820.1 L 96.6 814.2 L 98.8 808.4 L 101.1 802.6 L 103.4 796.9 L 105.7 791.2 L 108.0 785.7 L 108.0 785.7 L 110.4 780.2 L 113.0 774.8 L 115.8 769.3 L 118.7 764.0 L 121.8 758.8 L 125.0 753.5 L 128.2 748.3 L 131.5 743.1 L 134.8 737.9 L 138.2 732.7 L 141.5 727.6 L 144.9 722.3 L 148.2 717.1 L 151.3 711.8 L 154.4 706.5 L 157.4 701.2 L 157.4 701.2 L 160.2 695.7 L 163.0 690.3 L 165.7 684.9 L 168.4 679.4 L 171.1 673.8 L 173.7 668.3 L 176.3 662.8 L 179.0 657.3 L 181.6 651.7 L 184.1 646.1 L 186.7 640.6 L 189.4 635.1 L 192.1 629.6 L 194.7 624.1 L 197.5 618.5 L 200.2 613.1 L 200.2 613.1 L 203.0 607.7 L 205.9 602.3 L 208.7 596.8 L 211.6 591.4 L 214.4 586.1 L 217.4 580.6 L 220.2 575.3 L 223.1 569.9 L 226.1 564.5 L 229.0 559.1 L 232.0 553.8 L 234.9 548.4 L 238.0 543.1 L 240.9 537.8 L 243.9 532.4 L 246.9 527.1 L 246.9 527.1 L 249.9 521.8 L 253.0 516.4 L 256.0 511.2 L 259.0 505.8 L 262.2 500.6 L 265.2 495.3 L 268.3 490.0 L 271.4 484.7 L 274.5 479.4 L 277.6 474.2 L 280.7 469.0 L 284.0 463.7 L 287.1 458.5 L 290.2 453.2 L 293.4 448.0 L 296.7 442.7 L 296.7 442.7 L 299.8 437.6 L 303.0 432.3 L 306.2 427.1 L 309.4 421.8 L 312.7 416.7 L 315.9 411.5 L 319.1 406.3 L 322.3 401.1 L 325.6 395.9 L 328.9 390.8 L 332.3 385.6 L 335.6 380.4 L 339.0 375.4 L 342.4 370.3 L 345.8 365.3 L 349.3 360.2 L 349.3 360.2 L 352.8 355.2 L 356.4 350.3 L 359.9 345.3 L 363.4 340.3 L 367.1 335.4 L 370.7 330.5 L 374.4 325.5 L 378.1 320.6 L 381.8 315.9 L 385.5 311.0 L 389.3 306.2 L 393.2 301.4 L 396.9 296.6 L 400.8 291.9 L 404.7 287.1 L 408.5 282.4 L 408.5 282.4 L 412.6 277.8 L 416.6 273.2 L 420.8 268.7 L 425.1 264.2 L 429.4 259.8 L 433.7 255.4 L 438.1 251.0 L 442.4 246.7 L 446.7 242.3 L 451.0 237.8 L 455.2 233.3 L 459.3 228.8 L 463.3 224.2 L 467.0 219.5 L 470.7 214.7 L 474.2 209.8 L 474.2 209.8 L 477.6 204.8 L 481.0 199.7 L 484.4 194.6 L 487.8 189.4 L 491.1 184.1 L 494.4 178.8 L 497.4 173.4 L 500.4 168.0 L 503.3 162.5 L 506.0 157.0 L 508.4 151.5 L 510.6 145.8 L 512.7 140.2 L 514.4 134.6 L 515.9 128.9 L 517.0 123.2 L 517.0 123.2 L 517.8 117.4 L 518.4 111.6 L 518.6 105.6 L 518.6 99.7 L 518.2 93.7 L 517.7 87.6 L 517.0 81.4 L 516.1 75.4 L 515.1 69.2 L 514.0 63.0 L 512.7 57.0 L 511.4 50.8 L 510.0 44.7 L 508.6 38.7 L 507.3 32.7 L 506.0 26.7 L 506.0 26.7 L 504.6 20.8 L 503.2 14.9 L 501.6 9.0 L 500.0 3.2 L 499.0 0.0" fill="none" stroke="#ffd23d" stroke-width="6.0" stroke-opacity="0.9"/></g><g id="clips"><circle cx="1000.0" cy="723.2" r="2" fill="none" stroke="#0b5" stroke-width="0.6"/><circle cx="499.0" cy="0.0" r="2" fill="none" stroke="#0b5" stroke-width="0.6"/></g><g id="power"><circle cx="499.0" cy="0.0" r="5" fill="none" stroke="#e33" stroke-width="1"/><circle cx="1000.0" cy="723.2" r="5" fill="none" stroke="#e33" stroke-width="1"/></g><g id="bridges"></g></svg>