<svg xmlns="http://www.w3.org/2000/svg" width="2000mm" height="1000mm" viewBox="0 0 2000 1000"><g id="outline"><rect x="0" y="0" width="2000" height="1000" fill="none" stroke="#000" stroke-width="1"/></g><g id="channels"><path d="M 249.2 1000.0 L 248.8 997.4 L 247.9 990.7 L 247.0 984.1 L 246.1 977.4 L 245.4 970.8 L 244.6 964.2 L 244.6 964.2 L 244.0 957.7 L 243.5 951.1 L 243.2 944.5 L 243.0 937.9 L 243.0 931.3 L 243.1 924.6 L 243.2 918.0 L 243.5 911.3 L 243.8 904.6 L 244.2 897.9 L 244.6 891.2 L 245.0 884.5 L 245.4 877.9 L 245.9 871.2 L 246.3 864.5 L 246.7 857.9 L 246.7 857.9 L 247.0 851.2 L 247.4 844.6 L 247.9 838.0 L 248.4 831.3 L 248.9 824.7 L 249.4 818.1 L 250.0 811.5 L 250.6 804.8 L 251.2 798.2 L 251.9 791.6 L 252.5 785.0 L 253.2 778.3 L 253.8 771.7 L 254.5 765.1 L 255.2 758.5 L 255.8 751.9 L 255.8 751.9 L 256.5 745.2 L 257.2 738.6 L 257.9 732.0 L 258.6 725.4 L 259.4 718.8 L 260.1 712.2 L 260.9 705.6 L 261.7 699.0 L 262.4 692.4 L 263.2 685.8 L 264.0 679.2 L 264.8 672.6 L 265.6 665.9 L 266.3 659.3 L 267.1 652.7 L 267.9 646.1 L 267.9 646.1 L 268.6 639.5 L 269.5 632.9 L 270.4 626.3 L 271.3 619.7 L 272.2 613.1 L 273.1 606.5 L 274.0 599.9 L 274.9 593.3 L 275.8 586.7 L 276.6 580.1 L 277.4 573.5 L 278.0 566.9 L 278.7 560.3 L 279.2 553.6 L 279.6 547.0 L 279.9 540.4 L 279.9 540.4 L 280.1 533.8 L 280.2 527.2 L 280.2 520.5 L 280.2 513.9 L 280.1 507.3 L 279.9 500.6 L 279.6 494.0 L 279.3 487.3 L 278.9 480.7 L 278.5 474.1 L 278.1 467.4 L 277.6 460.8 L 277.1 454.2 L 276.6 447.5 L 276.1 440.9 L 275.5 434.3 L 275.5 434.3 L 274.9 427.7 L 274.2 421.1 L 273.3 414.5 L 272.4 407.9 L 271.4 401.3 L 270.4 394.7 L 269.4 388.1 L 268.4 381.5 L 267.3 374.9 L 266.3 368.3 L 265.4 361.7 L 264.5 355.2 L 263.8 348.6 L 263.1 342.0 L 262.6 335.4 L 262.2 328.7 L 262.2 328.7 L 261.8 321.9 L 261.5 314.8 L 261.2 307.3 L 260.9 299.7 L 260.7 292.0 L 260.5 284.3 L 260.4 276.6 L 260.4 269.0 L 260.5 261.7 L 260.7 254.6 L 261.1 247.9 L 261.6 241.6 L 262.3 235.9 L 263.2 230.8 L 264.3 226.3 L 265.6 222.7 L 265.6 222.7 L 267.2 219.9 L 269.0 218.2 L 271.1 217.4 L 273.4 217.2 L 275.9 217.7 L 278.5 218.7 L 281.3 219.9 L 284.2 221.4 L 287.2 222.9 L 290.2 224.4 L 293.2 225.7 L 296.3 226.6 L 299.3 227.0 L 302.3 226.8 L 305.2 225.9 L 308.0 224.2 L 308.0 224.2 L 310.8 221.4 L 313.7 217.8 L 316.7 213.4 L 319.7 208.4 L 322.8 202.9 L 326.0 197.1 L 329.1 191.1 L 332.2 185.0 L 335.2 178.9 L 338.1 173.1 L 341.0 167.7 L 343.8 162.7 L 346.4 158.3 L 348.8 154.6 L 351.0 151.9 L 353.1 150.2 L 353.1 150.2 L 354.8 149.5 L 356.3 149.9 L 357.6 151.2 L 358.7 153.2 L 359.6 155.9 L 360.3 159.0 L 361.0 162.4 L 361.7 166.1 L 362.3 169.8 L 362.9 173.5 L 363.7 176.9 L 364.5 180.1 L 365.4 182.8 L 366.6 184.9 L 367.9 186.2 L 369.5 186.7 L 369.5 186.7 L 371.4 186.3 L 373.5 185.0 L 375.8 183.0 L 378.3 180.5 L 380.9 177.6 L 383.6 174.3 L 386.3 170.8 L 389.1 167.2 L 391.9 163.6 L 394.7 160.3 L 397.4 157.2 L 400.0 154.6 L 402.5 152.4 L 404.8 151.0 L 406.9 150.3 L 408.8 150.6 L 408.8 150.6 L 410.4 151.8 L 411.8 153.8 L 413.1 156.5 L 414.2 159.9 L 415.2 163.8 L 416.2 168.1 L 417.0 172.7 L 417.8 177.6 L 418.6 182.5 L 419.3 187.3 L 420.2 192.1 L 421.0 196.6 L 422.0 200.8 L 423.0 204.6 L 424.2 207.8 L 425.6 210.4 L 425.6 210.4 L 427.2 212.2 L 429.0 213.4 L 431.0 214.2 L 433.1 214.4 L 435.3 214.4 L 437.6 214.1 L 439.9 213.8 L 442.2 213.3 L 444.4 213.0 L 446.6 212.8 L 448.6 212.9 L 450.4 213.3 L 452.1 214.3 L 453.4 215.7 L 454.5 217.9 L 455.2 220.8 L 455.2 220.8 L 455.6 224.5 L 455.7 228.8 L 455.6 233.8 L 455.2 239.3 L 454.6 245.3 L 453.8 251.6 L 452.9 258.2 L 451.9 265.0 L 450.8 271.8 L 449.7 278.8 L 448.5 285.6 L 447.4 292.4 L 446.3 298.9 L 445.3 305.1 L 444.4 311.0 L 443.6 316.3 L 443.6 316.3 L 443.0 321.3 L 442.5 326.0 L 442.2 330.5 L 441.9 334.8 L 441.7 339.0 L 441.5 343.0 L 441.3 347.0 L 441.0 350.9 L 440.7 354.8 L 440.2 358.7 L 439.6 362.6 L 438.8 366.7 L 437.7 370.9 L 436.4 375.2 L 434.8 379.7 L 432.8 384.5 L 432.8 384.5 L 430.4 389.4 L 427.6 394.5 L 424.3 399.6 L 420.7 404.8 L 416.9 410.1 L 412.8 415.5 L 408.6 420.9 L 404.3 426.4 L 400.0 432.0 L 395.8 437.7 L 391.7 443.4 L 387.9 449.2 L 384.2 455.1 L 381.0 461.0 L 378.1 467.0 L 375.7 473.0 L 375.7 473.0 L 373.7 479.1 L 372.0 485.4 L 370.6 491.7 L 369.3 498.2 L 368.3 504.7 L 367.5 511.3 L 366.9 517.9 L 366.3 524.6 L 365.9 531.3 L 365.6 538.0 L 365.4 544.8 L 365.2 551.6 L 365.0 558.3 L 364.8 565.0 L 364.6 571.7 L 364.4 578.4 L 364.4 578.4 L 364.2 585.0 L 364.0 591.6 L 363.9 598.3 L 363.9 604.9 L 364.0 611.5 L 364.1 618.2 L 364.2 624.9 L 364.4 631.5 L 364.7 638.2 L 364.9 644.8 L 365.2 651.5 L 365.5 658.2 L 365.8 664.8 L 366.1 671.5 L 366.4 678.1 L 366.7 684.8 L 366.7 684.8 L 367.0 691.4 L 367.2 698.0 L 367.5 704.7 L 367.8 711.3 L 368.1 718.0 L 368.4 724.6 L 368.8 731.3 L 369.1 737.9 L 369.5 744.6 L 369.9 751.2 L 370.4 757.8 L 370.9 764.5 L 371.4 771.1 L 371.9 777.7 L 372.5 784.3 L 373.2 790.9 L 373.2 790.9 L 373.8 797.6 L 374.4 804.2 L 375.0 810.9 L 375.6 817.6 L 376.2 824.3 L 376.8 831.0 L 377.4 837.7 L 378.2 844.4 L 379.0 851.0 L 379.8 857.7 L 380.9 864.2 L 382.0 870.8 L 383.3 877.3 L 384.7 883.7 L 386.4 890.0 L 388.2 896.2 L 388.2 896.2 L 390.2 902.5 L 392.3 908.7 L 394.5 915.0 L 396.8 921.2 L 399.3 927.5 L 401.8 933.6 L 404.5 939.8 L 407.3 945.8 L 410.3 951.8 L 413.4 957.7 L 416.7 963.4 L 420.1 969.0 L 423.7 974.4 L 427.5 979.7 L 431.4 984.8 L 435.5 989.7 L 435.5 989.7 L 439.9 994.4 L 444.5 998.8 L 445.9 1000.0" fill="none" stroke="#ffd23d" stroke-width="6.0" stroke-opacity="0.9"/><path d="M 764.4 1000.0 L 760.0 997.5 L 754.3 994.1 L 748.6 990.6 L 743.1 987.0 L 737.7 983.3 L 732.4 979.4 L 727.2 975.4 L 727.2 975.4 L 722.1 971.1 L 717.0 966.9 L 711.9 962.5 L 706.9 958.0 L 701.9 953.5 L 697.0 948.8 L 692.1 944.1 L 687.4 939.3 L 682.7 934.4 L 678.2 929.4 L 673.8 924.3 L 669.6 919.2 L 665.6 914.0 L 661.8 908.6 L 658.1 903.2 L 654.7 897.8 L 654.7 897.8 L 651.4 892.1 L 648.2 886.4 L 645.1 880.5 L 642.1 874.4 L 639.2 868.3 L 636.5 862.1 L 633.9 855.8 L 631.5 849.4 L 629.3 843.0 L 627.4 836.6 L 625.7 830.2 L 624.3 823.7 L 623.2 817.3 L 622.3 811.0 L 621.9 804.7 L 621.7 798.4 L 621.7 798.4 L 621.9 792.2 L 622.5 785.8 L 623.3 779.4 L 624.4 772.8 L 625.8 766.3 L 627.5 759.7 L 629.4 753.1 L 631.6 746.6 L 634.0 740.2 L 636.6 733.9 L 639.4 727.7 L 642.4 721.7 L 645.7 715.9 L 649.1 710.3 L 652.6 705.0 L 656.4 699.9 L 656.4 699.9 L 660.3 695.1 L 664.6 690.2 L 669.2 685.5 L 674.0 680.9 L 679.0 676.4 L 684.3 672.1 L 689.8 668.0 L 695.4 664.0 L 701.2 660.2 L 707.0 656.7 L 713.0 653.4 L 719.0 650.4 L 725.1 647.7 L 731.1 645.3 L 737.1 643.2 L 743.1 641.4 L 743.1 641.4 L 749.2 640.1 L 755.4 639.1 L 761.7 638.4 L 768.1 638.0 L 774.6 637.9 L 781.2 638.1 L 787.9 638.6 L 794.6 639.2 L 801.3 640.1 L 808.0 641.1 L 814.7 642.4 L 821.3 643.7 L 827.9 645.2 L 834.4 646.7 L 840.8 648.4 L 847.1 650.1 L 847.1 650.1 L 853.4 651.9 L 859.6 653.9 L 865.8 656.1 L 872.1 658.4 L 878.3 660.9 L 884.4 663.6 L 890.5 666.4 L 896.6 669.3 L 902.6 672.3 L 908.6 675.5 L 914.5 678.8 L 920.3 682.2 L 926.1 685.6 L 931.8 689.2 L 937.3 692.8 L 942.8 696.4 L 942.8 696.4 L 948.2 700.2 L 953.6 704.0 L 959.1 708.0 L 964.4 712.0 L 969.8 716.2 L 975.0 720.5 L 980.2 724.8 L 985.3 729.3 L 990.3 733.8 L 995.1 738.5 L 999.8 743.2 L 1004.4 748.1 L 1008.7 753.1 L 1012.8 758.1 L 1016.8 763.3 L 1020.5 768.5 L 1020.5 768.5 L 1023.9 773.9 L 1027.1 779.5 L 1030.0 785.2 L 1032.8 791.1 L 1035.3 797.1 L 1037.7 803.2 L 1039.9 809.4 L 1042.1 815.6 L 1044.1 821.9 L 1046.0 828.3 L 1047.9 834.6 L 1049.7 841.0 L 1051.5 847.4 L 1053.4 853.8 L 1055.3 860.1 L 1057.2 866.3 L 1057.2 866.3 L 1059.0 872.8 L 1060.7 879.7 L 1062.1 887.0 L 1063.5 894.5 L 1064.7 902.1 L 1065.9 909.8 L 1067.1 917.5 L 1068.3 925.0 L 1069.5 932.2 L 1070.9 939.1 L 1072.3 945.6 L 1074.0 951.5 L 1075.9 956.8 L 1078.0 961.3 L 1080.4 965.0 L 1083.1 967.8 L 1083.1 967.8 L 1086.3 969.7 L 1090.0 970.9 L 1094.2 971.5 L 1098.7 971.5 L 1103.5 971.0 L 1108.5 969.9 L 1113.6 968.4 L 1118.7 966.3 L 1123.7 963.9 L 1128.6 961.2 L 1133.2 958.1 L 1137.6 954.7 L 1141.5 951.0 L 1145.0 947.2 L 1147.8 943.2 L 1150.1 939.0 L 1150.1 939.0 L 1151.6 934.5 L 1152.7 929.5 L 1153.3 923.9 L 1153.5 917.9 L 1153.3 911.6 L 1152.8 904.9 L 1152.0 898.0 L 1151.1 890.9 L 1150.0 883.6 L 1148.8 876.2 L 1147.5 868.8 L 1146.3 861.4 L 1145.2 854.0 L 1144.2 846.8 L 1143.3 839.8 L 1142.7 833.0 L 1142.7 833.0 L 1142.2 826.4 L 1141.7 819.8 L 1141.2 813.2 L 1140.6 806.5 L 1140.1 799.9 L 1139.5 793.3 L 1138.9 786.7 L 1138.4 780.0 L 1137.8 773.4 L 1137.3 766.8 L 1136.8 760.2 L 1136.3 753.5 L 1135.9 746.9 L 1135.6 740.3 L 1135.2 733.6 L 1135.0 727.0 L 1135.0 727.0 L 1134.8 720.3 L 1134.7 713.7 L 1134.7 707.0 L 1134.7 700.4 L 1134.8 693.7 L 1134.9 687.1 L 1135.1 680.4 L 1135.2 673.8 L 1135.4 667.1 L 1135.5 660.5 L 1135.6 653.8 L 1135.7 647.1 L 1135.8 640.5 L 1135.8 633.8 L 1135.7 627.2 L 1135.5 620.6 L 1135.5 620.6 L 1135.3 613.9 L 1135.2 607.3 L 1135.0 600.6 L 1134.9 593.9 L 1134.7 587.2 L 1134.6 580.5 L 1134.4 573.8 L 1134.1 567.1 L 1133.7 560.5 L 1133.3 553.8 L 1132.8 547.2 L 1132.2 540.6 L 1131.4 534.0 L 1130.5 527.5 L 1129.5 521.0 L 1128.2 514.5 L 1128.2 514.5 L 1126.9 508.1 L 1125.4 501.7 L 1123.7 495.3 L 1122.0 488.9 L 1120.1 482.5 L 1118.2 476.1 L 1116.1 469.8 L 1113.9 463.5 L 1111.7 457.2 L 1109.3 451.0 L 1106.9 444.8 L 1104.3 438.6 L 1101.7 432.5 L 1099.0 426.5 L 1096.2 420.4 L 1093.4 414.5 L 1093.4 414.5 L 1090.5 408.6 L 1087.4 402.8 L 1084.1 397.0 L 1080.8 391.3 L 1077.3 385.6 L 1073.8 380.0 L 1070.1 374.4 L 1066.5 368.8 L 1062.7 363.3 L 1059.0 357.8 L 1055.2 352.3 L 1051.4 346.8 L 1047.6 341.3 L 1043.8 335.7 L 1040.1 330.2 L 1036.5 324.6 L 1036.5 324.6 L 1032.8 319.1 L 1029.2 313.5 L 1025.5 308.0 L 1021.7 302.5 L 1018.0 297.0 L 1014.3 291.5 L 1010.5 286.0 L 1006.8 280.5 L 1003.0 275.0 L 999.3 269.5 L 995.6 264.0 L 991.9 258.4 L 988.2 252.9 L 984.6 247.3 L 981.0 241.7 L 977.5 236.1 L 977.5 236.1 L 974.0 230.5 L 970.5 224.8 L 967.0 219.1 L 963.6 213.4 L 960.2 207.7 L 956.8 202.0 L 953.4 196.3 L 950.0 190.5 L 946.7 184.8 L 943.4 179.0 L 940.1 173.2 L 936.8 167.4 L 933.6 161.6 L 930.3 155.8 L 927.1 150.0 L 923.9 144.2 L 923.9 144.2 L 920.7 138.3 L 917.6 132.4 L 914.7 126.4 L 911.7 120.4 L 908.8 114.4 L 906.0 108.3 L 903.1 102.3 L 900.2 96.2 L 897.3 90.2 L 894.4 84.2 L 891.4 78.3 L 888.3 72.4 L 885.1 66.6 L 881.8 60.9 L 878.3 55.3 L 874.7 49.8 L 874.7 49.8 L 871.0 44.3 L 867.3 38.8 L 863.5 33.2 L 859.7 27.5 L 855.9 21.9 L 851.9 16.4 L 847.9 10.9 L 843.8 5.5 L 839.5 0.3 L 839.2 0.0" fill="none" stroke="#ffd23d" stroke-width="6.0" stroke-opacity="0.9"/><path d="M 978.6 0.0 L 979.6 1.4 L 983.5 6.8 L 987.5 12.1 L 991.5 17.4 L 995.6 22.7 L 999.7 28.0 L 1003.7 33.2 L 1007.8 38.5 L 1011.9 43.7 L 1016.0 48.9 L 1016.0 48.9 L 1020.2 54.1 L 1024.3 59.3 L 1028.5 64.5 L 1032.7 69.6 L 1037.0 74.8 L 1041.2 79.9 L 1045.5 84.9 L 1049.8 90.0 L 1054.1 95.1 L 1058.5 100.1 L 1062.8 105.2 L 1067.2 110.2 L 1071.5 115.2 L 1075.9 120.3 L 1080.2 125.3 L 1084.6 130.3 L 1084.6 130.3 L 1088.9 135.4 L 1093.3 140.3 L 1097.8 145.3 L 1102.2 150.2 L 1106.7 155.2 L 1111.2 160.1 L 1115.7 165.0 L 1120.2 169.9 L 1124.7 174.8 L 1129.1 179.8 L 1133.6 184.7 L 1138.0 189.7 L 1142.4 194.7 L 1146.7 199.8 L 1150.9 204.8 L 1155.1 210.0 L 1155.1 210.0 L 1159.3 215.2 L 1163.5 220.3 L 1167.6 225.5 L 1171.7 230.8 L 1175.8 236.0 L 1179.9 241.3 L 1183.9 246.6 L 1187.9 251.9 L 1191.9 257.2 L 1195.8 262.6 L 1199.7 268.0 L 1203.5 273.5 L 1207.2 279.0 L 1210.9 284.5 L 1214.6 290.0 L 1218.1 295.6 L 1218.1 295.6 L 1221.6 301.2 L 1225.1 306.9 L 1228.5 312.6 L 1231.8 318.4 L 1235.1 324.2 L 1238.3 330.0 L 1241.5 335.8 L 1244.7 341.7 L 1247.8 347.6 L 1250.8 353.5 L 1253.8 359.5 L 1256.7 365.5 L 1259.6 371.5 L 1262.5 377.5 L 1265.3 383.5 L 1268.1 389.5 L 1268.1 389.5 L 1270.8 395.6 L 1273.5 401.6 L 1276.2 407.7 L 1278.9 413.8 L 1281.6 420.0 L 1284.2 426.1 L 1286.8 432.3 L 1289.3 438.5 L 1291.7 444.7 L 1294.0 450.9 L 1296.3 457.2 L 1298.4 463.4 L 1300.5 469.8 L 1302.4 476.1 L 1304.2 482.4 L 1305.8 488.8 L 1305.8 488.8 L 1307.3 495.3 L 1308.5 501.7 L 1309.7 508.2 L 1310.7 514.8 L 1311.6 521.3 L 1312.3 527.9 L 1313.0 534.5 L 1313.6 541.2 L 1314.2 547.8 L 1314.7 554.5 L 1315.2 561.1 L 1315.7 567.8 L 1316.2 574.4 L 1316.7 581.1 L 1317.3 587.7 L 1317.9 594.3 L 1317.9 594.3 L 1318.5 600.9 L 1319.1 607.5 L 1319.7 614.2 L 1320.2 620.8 L 1320.7 627.4 L 1321.1 634.1 L 1321.6 640.7 L 1322.1 647.3 L 1322.6 654.0 L 1323.1 660.6 L 1323.6 667.2 L 1324.2 673.8 L 1324.9 680.4 L 1325.6 687.0 L 1326.5 693.6 L 1327.4 700.2 L 1327.4 700.2 L 1328.4 706.8 L 1329.5 713.3 L 1330.7 719.8 L 1332.0 726.4 L 1333.3 732.9 L 1334.7 739.4 L 1336.2 745.9 L 1337.6 752.4 L 1339.1 758.9 L 1340.6 765.4 L 1342.0 771.9 L 1343.5 778.4 L 1344.8 784.9 L 1346.2 791.4 L 1347.4 797.9 L 1348.6 804.5 L 1348.6 804.5 L 1349.7 811.0 L 1350.8 817.6 L 1351.8 824.2 L 1352.7 830.8 L 1353.6 837.4 L 1354.5 843.9 L 1355.3 850.5 L 1356.2 857.2 L 1357.0 863.8 L 1357.9 870.3 L 1358.8 876.9 L 1359.7 883.5 L 1360.7 890.1 L 1361.7 896.7 L 1362.8 903.2 L 1364.0 909.8 L 1364.0 909.8 L 1365.2 916.3 L 1366.4 922.8 L 1367.7 929.4 L 1369.0 935.9 L 1370.3 942.4 L 1371.7 948.9 L 1373.1 955.4 L 1374.5 961.9 L 1375.9 968.4 L 1377.4 974.9 L 1379.0 981.4 L 1380.5 987.8 L 1382.2 994.3 L 1383.6 1000.0" fill="none" stroke="#ffd23d" stroke-width="6.0" stroke-opacity="0.9"/><path d="M 908.8 977.7 L 909.5 977.1 L 910.4 976.4 L 911.5 975.5 L 912.6 974.6 L 913.8 973.6 L 915.2 972.5 L 916.6 971.4 L 918.1 970.2 L 919.6 968.9 L 921.1 967.7 L 922.6 966.4 L 924.1 965.2 L 925.6 963.9 L 927.1 962.7 L 928.5 961.5 L 929.8 960.4 L 929.8 960.4 L 931.1 959.3 L 932.4 958.1 L 933.7 957.0 L 935.0 955.9 L 936.3 954.8 L 937.5 953.7 L 938.8 952.5 L 940.1 951.4 L 941.4 950.2 L 942.6 949.1 L 943.9 948.0 L 945.1 946.8 L 946.4 945.7 L 947.6 944.5 L 948.9 943.3 L 950.1 942.2 L 950.1 942.2 L 951.4 941.0 L 952.8 939.7 L 954.2 938.4 L 955.6 937.1 L 957.0 935.7 L 958.4 934.3 L 959.8 933.0 L 961.2 931.6 L 962.6 930.3 L 963.9 929.0 L 965.1 927.8 L 966.3 926.7 L 967.3 925.7 L 968.3 924.8 L 969.1 924.0 L 969.8 923.3" fill="none" stroke="#ffd23d" stroke-width="6.0" stroke-opacity="0.9"/></g><g id="clips"><circle cx="249.2" cy="1000.0" r="2" fill="none" stroke="#0b5" stroke-width="0.6"/><circle cx="445.9" cy="1000.0" r="2" fill="none" stroke="#0b5" stroke-width="0.6"/><circle cx="764.4" cy="1000.0" r="2" fill="none" stroke="#0b5" stroke-width="0.6"/><circle cx="839.2" cy="0.0" r="2" fill="none" stroke="#0b5" stroke-width="0.6"/><circle cx="978.6" cy="0.0" r="2" fill="none" stroke="#0b5" stroke-width="0.6"/><circle cx="1383.6" cy="1000.0" r="2" fill="none" stroke="#0b5" stroke-width="0.6"/><circle cx="908.8" cy="977.7" r="2" fill="none" stroke="#0b5" stroke-width="0.6"/><circle cx="969.8" cy="923.3" r="2" fill="none" stroke="#0b5" stroke-width="0.6"/></g><g id="power"><circle cx="249.2" cy="1000.0" r="5" fill="none" stroke="#e33" stroke-width="1"/><circle cx="445.8" cy="1000.0" r="5" fill="none" stroke="#e33" stroke-width="1"/><circle cx="764.3" cy="1000.0" r="5" fill="none" stroke="#e33" stroke-width="1"/><circle cx="839.2" cy="0.0" r="5" fill="none" stroke="#e33" stroke-width="1"/><circle cx="978.5" cy="0.0" r="5" fill="none" stroke="#e33" stroke-width="1"/><circle cx="1383.6" cy="1000.0" r="5" fill="none" stroke="#e33" stroke-width="1"/></g></svg>