<svg xmlns="http://www.w3.org/2000/svg" width="1000mm" height="2000mm" viewBox="0 0 1000 2000"><g id="outline"><rect x="0" y="0" width="1000" height="2000" fill="none" stroke="#000" stroke-width="1"/></g><g id="channels"><path d="M 499.0 2000.0 L 498.2 1997.3 L 496.5 1991.4 L 494.5 1985.5 L 492.6 1979.7 L 490.6 1973.9 L 488.6 1968.1 L 486.5 1962.3 L 484.2 1956.6 L 482.0 1950.8 L 479.8 1945.1 L 477.5 1939.5 L 475.2 1933.8 L 475.2 1933.8 L 472.9 1928.2 L 470.5 1922.5 L 468.1 1916.9 L 465.8 1911.2 L 463.3 1905.5 L 460.8 1899.9 L 458.3 1894.3 L 455.6 1888.8 L 453.0 1883.3 L 450.2 1877.8 L 447.4 1872.3 L 444.4 1867.0 L 441.4 1861.8 L 438.2 1856.5 L 435.0 1851.4 L 431.6 1846.5 L 431.6 1846.5 L 428.1 1841.5 L 424.4 1836.6 L 420.7 1831.9 L 416.8 1827.3 L 412.9 1822.6 L 408.8 1818.1 L 404.7 1813.5 L 400.4 1809.1 L 396.1 1804.7 L 391.8 1800.4 L 387.4 1796.1 L 383.0 1791.8 L 378.4 1787.6 L 373.9 1783.5 L 369.4 1779.3 L 364.9 1775.2 L 364.9 1775.2 L 360.4 1771.2 L 355.7 1767.3 L 351.0 1763.4 L 346.2 1759.6 L 341.4 1755.9 L 336.5 1752.2 L 331.5 1748.6 L 326.6 1745.0 L 321.6 1741.3 L 316.6 1737.7 L 311.7 1734.1 L 306.7 1730.6 L 301.8 1726.9 L 296.9 1723.2 L 292.1 1719.4 L 287.4 1715.6 L 287.4 1715.6 L 282.6 1711.7 L 277.9 1707.7 L 273.2 1703.8 L 268.6 1699.8 L 263.9 1695.9 L 259.3 1691.9 L 254.7 1687.9 L 250.1 1683.8 L 245.5 1679.8 L 240.9 1675.7 L 236.4 1671.7 L 231.8 1667.5 L 227.3 1663.5 L 222.7 1659.4 L 218.2 1655.3 L 213.7 1651.2 L 213.7 1651.2 L 209.2 1647.0 L 204.7 1642.8 L 200.2 1638.6 L 195.9 1634.3 L 191.5 1630.0 L 187.2 1625.7 L 182.9 1621.3 L 178.5 1616.9 L 174.1 1612.7 L 169.8 1608.4 L 165.4 1604.2 L 160.9 1600.0 L 156.4 1595.9 L 151.8 1591.8 L 147.2 1587.9 L 142.4 1584.1 L 142.4 1584.1 L 137.6 1580.3 L 132.7 1576.6 L 127.8 1573.0 L 122.9 1569.5 L 117.9 1566.0 L 112.8 1562.5 L 107.8 1559.1 L 102.6 1555.7 L 97.5 1552.4 L 92.3 1549.0 L 87.2 1545.8 L 81.9 1542.6 L 76.8 1539.4 L 71.5 1536.2 L 66.3 1533.0 L 61.0 1529.8 L 61.0 1529.8 L 55.8 1526.7 L 50.6 1523.7 L 45.2 1520.6 L 39.9 1517.7 L 34.5 1514.7 L 29.1 1511.8 L 23.8 1508.9 L 18.4 1506.0 L 12.9 1503.1 L 7.5 1500.3 L 2.1 1497.4 L 0.0 1496.3" fill="none" stroke="#ffd23d" stroke-width="6.0" stroke-opacity="0.9"/><path d="M 0.0 1318.4 L 1.5 1319.1 L 6.9 1321.9 L 12.5 1324.7 L 18.0 1327.3 L 23.5 1330.1 L 29.0 1332.8 L 34.5 1335.4 L 40.0 1338.2 L 45.4 1340.9 L 50.8 1343.8 L 56.3 1346.6 L 56.3 1346.6 L 61.6 1349.6 L 67.0 1352.5 L 72.3 1355.6 L 77.6 1358.7 L 82.9 1361.7 L 88.2 1364.9 L 93.5 1367.9 L 98.8 1371.0 L 104.1 1374.1 L 109.4 1377.2 L 114.7 1380.2 L 120.0 1383.2 L 125.4 1386.1 L 130.8 1389.0 L 136.2 1391.7 L 141.7 1394.4 L 141.7 1394.4 L 147.2 1397.1 L 152.8 1399.8 L 158.3 1402.6 L 163.8 1405.3 L 169.3 1408.1 L 174.9 1410.8 L 180.6 1413.4 L 186.2 1416.0 L 191.8 1418.5 L 197.5 1420.9 L 203.2 1423.1 L 208.9 1425.2 L 214.6 1427.1 L 220.3 1428.9 L 226.1 1430.4 L 231.9 1431.7 L 231.9 1431.7 L 238.0 1432.8 L 244.3 1434.0 L 251.0 1435.1 L 257.9 1436.2 L 265.0 1437.2 L 272.1 1438.0 L 279.2 1438.7 L 286.1 1439.2 L 292.8 1439.4 L 299.3 1439.3 L 305.4 1438.9 L 311.1 1438.3 L 316.3 1437.2 L 320.8 1435.6 L 324.6 1433.6 L 327.7 1431.1 L 327.7 1431.1 L 330.1 1428.0 L 331.9 1424.2 L 333.2 1419.7 L 334.0 1414.7 L 334.4 1409.3 L 334.4 1403.4 L 333.9 1397.3 L 333.1 1391.1 L 332.0 1384.6 L 330.5 1378.2 L 328.8 1371.9 L 326.7 1365.6 L 324.5 1359.5 L 322.1 1353.8 L 319.7 1348.6 L 316.9 1343.7 L 316.9 1343.7 L 314.0 1339.2 L 310.5 1335.0 L 306.7 1330.8 L 302.5 1326.9 L 297.9 1323.0 L 293.2 1319.2 L 288.1 1315.6 L 282.9 1312.1 L 277.5 1308.6 L 272.1 1305.2 L 266.6 1301.7 L 261.1 1298.4 L 255.6 1295.1 L 250.2 1291.7 L 245.0 1288.3 L 239.8 1284.9 L 239.8 1284.9 L 234.8 1281.6 L 229.7 1278.3 L 224.4 1275.2 L 219.1 1272.1 L 213.9 1269.1 L 208.4 1266.1 L 203.1 1263.1 L 197.8 1260.2 L 192.4 1257.1 L 187.1 1254.1 L 181.8 1251.0 L 176.6 1247.7 L 171.5 1244.4 L 166.6 1241.0 L 161.7 1237.4 L 156.9 1233.8 L 156.9 1233.8 L 152.2 1229.8 L 147.5 1225.9 L 142.8 1221.9 L 138.2 1217.8 L 133.6 1213.6 L 129.1 1209.3 L 124.6 1205.0 L 120.3 1200.5 L 116.0 1196.0 L 111.8 1191.4 L 107.8 1186.7 L 103.9 1182.1 L 100.2 1177.3 L 96.7 1172.3 L 93.3 1167.3 L 90.2 1162.4 L 90.2 1162.4 L 87.2 1157.1 L 84.2 1151.9 L 81.4 1146.5 L 78.6 1140.8 L 75.9 1135.2 L 73.5 1129.5 L 71.1 1123.7 L 68.9 1117.8 L 66.8 1112.0 L 65.1 1106.1 L 63.5 1100.2 L 62.2 1094.2 L 61.2 1088.3 L 60.4 1082.5 L 60.0 1076.7 L 59.8 1070.9 L 59.8 1070.9 L 60.0 1065.2 L 60.6 1059.3 L 61.3 1053.4 L 62.3 1047.4 L 63.6 1041.4 L 65.2 1035.3 L 66.9 1029.2 L 69.0 1023.3 L 71.2 1017.4 L 73.6 1011.6 L 76.1 1005.9 L 78.9 1000.4 L 81.9 995.0 L 85.1 989.9 L 88.3 985.0 L 91.8 980.3 L 91.8 980.3 L 95.4 975.9 L 99.3 971.4 L 103.5 967.1 L 108.0 962.8 L 112.6 958.7 L 117.4 954.7 L 122.5 951.0 L 127.7 947.3 L 133.0 943.8 L 138.3 940.6 L 143.8 937.5 L 149.4 934.8 L 155.0 932.3 L 160.5 930.1 L 166.0 928.1 L 171.5 926.5 L 171.5 926.5 L 177.1 925.3 L 182.9 924.4 L 188.6 923.7 L 194.5 923.4 L 200.5 923.3 L 206.6 923.4 L 212.8 923.9 L 218.9 924.5 L 225.1 925.3 L 231.2 926.2 L 237.4 927.4 L 243.5 928.6 L 249.6 930.0 L 255.5 931.4 L 261.4 932.9 L 267.2 934.5 L 267.2 934.5 L 273.0 936.1 L 278.7 938.0 L 284.4 940.0 L 290.2 942.1 L 295.9 944.4 L 301.5 946.9 L 307.1 949.5 L 312.8 952.1 L 318.3 954.9 L 323.8 957.9 L 329.2 960.9 L 334.6 964.0 L 339.9 967.1 L 345.1 970.5 L 350.2 973.8 L 355.3 977.1 L 355.3 977.1 L 360.2 980.6 L 365.2 984.1 L 370.3 987.8 L 375.1 991.4 L 380.1 995.3 L 384.9 999.3 L 389.7 1003.2 L 394.4 1007.3 L 399.0 1011.5 L 403.4 1015.8 L 407.7 1020.1 L 411.9 1024.6 L 415.9 1029.2 L 419.7 1033.8 L 423.3 1038.6 L 426.7 1043.4 L 426.7 1043.4 L 429.9 1048.4 L 432.8 1053.5 L 435.5 1058.8 L 438.1 1064.2 L 440.4 1069.7 L 442.6 1075.3 L 444.6 1081.0 L 446.6 1086.7 L 448.5 1092.5 L 450.2 1098.4 L 452.0 1104.2 L 453.6 1110.1 L 455.3 1116.0 L 457.0 1121.9 L 458.8 1127.7 L 460.5 1133.4 L 460.5 1133.4 L 462.2 1139.4 L 463.7 1145.7 L 465.0 1152.4 L 466.3 1159.3 L 467.4 1166.3 L 468.5 1173.4 L 469.6 1180.5 L 470.7 1187.4 L 471.8 1194.0 L 473.1 1200.4 L 474.4 1206.3 L 476.0 1211.8 L 477.7 1216.6 L 479.6 1220.8 L 481.9 1224.2 L 484.3 1226.8 L 484.3 1226.8 L 487.3 1228.5 L 490.7 1229.6 L 494.5 1230.2 L 498.7 1230.2 L 503.1 1229.7 L 507.7 1228.7 L 512.4 1227.3 L 517.1 1225.4 L 521.7 1223.2 L 526.2 1220.7 L 530.4 1217.8 L 534.5 1214.7 L 538.1 1211.3 L 541.3 1207.8 L 543.9 1204.1 L 546.0 1200.3 L 546.0 1200.3 L 547.4 1196.1 L 548.4 1191.5 L 548.9 1186.4 L 549.1 1180.9 L 548.9 1175.1 L 548.5 1168.9 L 547.7 1162.6 L 546.9 1156.0 L 545.9 1149.3 L 544.8 1142.5 L 543.6 1135.7 L 542.5 1128.9 L 541.5 1122.1 L 540.5 1115.4 L 539.7 1109.0 L 539.2 1102.8 L 539.2 1102.8 L 538.7 1096.7 L 538.2 1090.6 L 537.8 1084.5 L 537.2 1078.4 L 536.8 1072.3 L 536.2 1066.2 L 535.7 1060.2 L 535.2 1054.0 L 534.7 1047.9 L 534.2 1041.8 L 533.7 1035.8 L 533.3 1029.6 L 532.9 1023.5 L 532.6 1017.5 L 532.3 1011.3 L 532.1 1005.2 L 532.1 1005.2 L 531.9 999.1 L 531.8 993.0 L 531.8 986.8 L 531.8 980.8 L 531.9 974.6 L 532.0 968.5 L 532.2 962.4 L 532.3 956.3 L 532.5 950.1 L 532.5 944.1 L 532.6 937.9 L 532.7 931.7 L 532.8 925.7 L 532.8 919.5 L 532.7 913.4 L 532.5 907.3 L 532.5 907.3 L 532.4 901.2 L 532.3 895.1 L 532.1 888.9 L 532.0 882.8 L 531.8 876.6 L 531.7 870.5 L 531.5 864.3 L 531.3 858.1 L 530.9 852.1 L 530.5 845.9 L 530.1 839.8 L 529.5 833.7 L 528.8 827.7 L 527.9 821.7 L 527.0 815.7 L 525.8 809.7 L 525.8 809.7 L 524.6 803.8 L 523.3 798.0 L 521.7 792.1 L 520.1 786.2 L 518.4 780.3 L 516.6 774.4 L 514.7 768.6 L 512.7 762.8 L 510.6 757.0 L 508.4 751.3 L 506.2 745.6 L 503.8 739.9 L 501.4 734.3 L 499.0 728.8 L 496.4 723.2 L 493.8 717.7 L 493.8 717.7 L 491.1 712.3 L 488.3 707.0 L 485.3 701.6 L 482.2 696.4 L 479.0 691.1 L 475.8 686.0 L 472.4 680.8 L 469.1 675.7 L 465.6 670.6 L 462.2 665.6 L 458.7 660.5 L 455.2 655.4 L 451.7 650.4 L 448.2 645.2 L 444.8 640.2 L 441.5 635.0 L 441.5 635.0 L 438.1 630.0 L 434.7 624.8 L 431.3 619.8 L 427.8 614.7 L 424.4 609.6 L 421.0 604.6 L 417.5 599.5 L 414.1 594.5 L 410.6 589.4 L 407.2 584.3 L 403.8 579.3 L 400.4 574.1 L 397.0 569.1 L 393.7 563.9 L 390.4 558.8 L 387.2 553.6 L 387.2 553.6 L 384.0 548.5 L 380.7 543.2 L 377.5 538.0 L 374.4 532.7 L 371.3 527.5 L 368.1 522.2 L 365.0 517.0 L 361.9 511.7 L 358.8 506.4 L 355.8 501.1 L 352.8 495.7 L 349.7 490.4 L 346.8 485.1 L 343.8 479.7 L 340.8 474.4 L 337.9 469.1 L 337.9 469.1 L 334.9 463.6 L 332.1 458.2 L 329.4 452.7 L 326.6 447.2 L 324.0 441.6 L 321.4 436.0 L 318.7 430.5 L 316.1 424.9 L 313.4 419.4 L 310.7 413.9 L 308.0 408.4 L 305.1 403.0 L 302.2 397.7 L 299.1 392.4 L 295.9 387.3 L 292.6 382.2 L 292.6 382.2 L 289.2 377.1 L 285.8 372.1 L 282.3 366.9 L 278.8 361.7 L 275.3 356.5 L 271.6 351.5 L 268.0 346.4 L 264.2 341.5 L 260.2 336.7 L 256.3 332.0 L 252.1 327.6 L 247.9 323.3 L 243.5 319.4 L 239.0 315.6 L 234.3 312.2 L 229.4 309.2 L 229.4 309.2 L 224.2 306.6 L 218.5 304.6 L 212.2 302.9 L 205.8 301.7 L 199.0 300.8 L 192.1 300.1 L 185.1 299.6 L 178.1 299.1 L 171.3 298.8 L 164.6 298.3 L 158.3 297.7 L 152.4 296.9 L 146.9 295.8 L 142.0 294.4 L 137.8 292.6 L 134.4 290.2 L 134.4 290.2 L 131.7 287.4 L 130.0 284.4 L 128.9 281.0 L 128.5 277.3 L 128.7 273.6 L 129.1 269.5 L 129.9 265.3 L 130.9 261.0 L 131.9 256.5 L 132.8 252.1 L 133.6 247.6 L 134.2 243.1 L 134.4 238.7 L 134.0 234.3 L 133.0 229.9 L 131.3 225.8 L 131.3 225.8 L 128.8 221.7 L 125.6 217.3 L 121.9 212.9 L 117.5 208.4 L 112.9 203.9 L 108.0 199.3 L 102.8 194.8 L 97.7 190.3 L 92.6 185.9 L 87.6 181.6 L 82.9 177.3 L 78.7 173.3 L 74.9 169.4 L 71.8 165.8 L 69.3 162.4 L 67.8 159.3 L 67.8 159.3 L 67.0 156.6 L 67.2 154.3 L 68.1 152.3 L 69.7 150.6 L 71.8 149.2 L 74.2 147.9 L 77.0 146.8 L 79.8 145.6 L 82.8 144.5 L 85.6 143.3 L 88.3 142.0 L 90.6 140.5 L 92.5 138.8 L 93.9 136.8 L 94.6 134.4 L 94.5 131.5 L 94.5 131.5 L 93.6 128.2 L 92.0 124.4 L 89.5 120.2 L 86.5 115.6 L 83.1 110.7 L 79.4 105.7 L 75.6 100.5 L 71.6 95.4 L 67.7 90.2 L 64.0 85.1 L 60.6 80.4 L 57.5 75.8 L 55.1 71.6 L 53.3 67.9 L 52.2 64.7 L 52.1 62.0 L 52.1 62.0 L 52.9 60.0 L 54.5 58.6 L 56.7 57.7 L 59.6 57.2 L 63.0 57.1 L 66.7 57.3 L 70.8 57.5 L 75.0 58.1 L 79.5 58.6 L 84.0 59.1 L 88.5 59.5 L 92.7 59.7 L 96.8 59.7 L 100.5 59.4 L 103.9 58.6 L 106.8 57.4 L 106.8 57.4 L 109.2 55.8 L 111.4 53.7 L 113.3 51.2 L 115.0 48.4 L 116.7 45.4 L 118.2 42.2 L 119.6 39.0 L 120.9 35.6 L 122.3 32.3 L 123.7 29.1 L 125.1 26.0 L 126.6 23.1 L 128.3 20.6 L 130.0 18.3 L 132.1 16.5 L 134.3 15.1 L 134.3 15.1 L 136.7 14.2 L 139.3 13.5 L 142.0 13.1 L 144.9 12.9 L 147.9 13.0 L 150.9 13.3 L 154.0 13.7 L 157.2 14.3 L 160.3 15.0 L 163.5 15.9 L 166.8 16.8 L 169.9 17.7 L 173.0 18.7 L 176.0 19.7 L 179.0 20.7 L 181.8 21.7 L 181.8 21.7 L 184.6 22.6 L 187.3 23.4 L 189.9 24.1 L 192.6 24.9 L 195.2 25.6 L 197.8 26.4 L 200.3 27.4 L 202.9 28.4 L 205.4 29.6 L 208.0 31.0 L 210.5 32.5 L 213.0 34.4 L 215.6 36.6 L 218.2 39.0 L 220.8 41.9 L 223.5 45.1 L 223.5 45.1 L 226.3 48.8 L 228.9 52.9 L 231.6 57.5 L 234.4 62.5 L 237.1 67.8 L 239.9 73.3 L 242.7 79.0 L 245.4 84.9 L 248.2 90.8 L 250.9 96.9 L 253.8 103.1 L 256.6 109.2 L 259.4 115.1 L 262.3 121.0 L 265.2 126.8 L 268.0 132.2 L 268.0 132.2 L 271.0 137.7 L 273.9 143.0 L 277.0 148.3 L 279.9 153.7 L 282.9 159.0 L 286.0 164.4 L 289.1 169.6 L 292.1 174.9 L 295.2 180.2 L 298.3 185.5 L 301.3 190.8 L 304.5 196.1 L 307.5 201.3 L 310.5 206.7 L 313.6 212.0 L 316.6 217.3 L 316.6 217.3 L 319.7 222.6 L 322.6 228.0 L 325.5 233.4 L 328.5 238.8 L 331.3 244.1 L 334.3 249.5 L 337.1 254.9 L 340.1 260.3 L 343.0 265.6 L 346.0 271.1 L 349.0 276.4 L 352.0 281.7 L 355.1 287.0 L 358.3 292.2 L 361.4 297.4 L 364.7 302.5 L 364.7 302.5 L 368.0 307.7 L 371.5 312.7 L 374.9 317.8 L 378.4 322.8 L 381.9 327.8 L 385.5 332.8 L 389.1 337.7 L 392.7 342.6 L 396.4 347.5 L 400.1 352.4 L 403.8 357.3 L 407.6 362.2 L 411.3 366.9 L 415.1 371.8 L 418.8 376.6 L 422.6 381.4 L 422.6 381.4 L 426.5 386.2 L 430.2 390.9 L 434.1 395.7 L 438.0 400.4 L 441.9 405.2 L 445.8 409.9 L 449.7 414.5 L 453.7 419.2 L 457.7 423.9 L 461.7 428.5 L 465.7 433.2 L 469.7 437.8 L 473.7 442.4 L 477.7 447.1 L 481.7 451.7 L 485.7 456.3 L 485.7 456.3 L 489.7 461.0 L 493.7 465.5 L 497.9 470.1 L 501.9 474.6 L 506.0 479.2 L 510.2 483.7 L 514.3 488.2 L 518.5 492.7 L 522.6 497.2 L 526.7 501.8 L 530.8 506.3 L 534.8 510.9 L 538.9 515.5 L 542.8 520.2 L 546.7 524.8 L 550.6 529.6 L 550.6 529.6 L 554.4 534.4 L 558.3 539.1 L 562.1 543.9 L 565.8 548.7 L 569.6 553.5 L 573.4 558.4 L 577.1 563.3 L 580.8 568.1 L 584.4 573.0 L 588.0 578.0 L 591.6 583.0 L 595.1 588.0 L 598.5 593.1 L 601.9 598.1 L 605.3 603.2 L 608.5 608.3 L 608.5 608.3 L 611.8 613.5 L 615.0 618.7 L 618.1 624.0 L 621.1 629.3 L 624.2 634.7 L 627.1 640.0 L 630.1 645.3 L 633.0 650.8 L 635.9 656.2 L 638.6 661.6 L 641.4 667.1 L 644.0 672.7 L 646.7 678.2 L 649.4 683.7 L 652.0 689.2 L 654.5 694.7 L 654.5 694.7 L 657.0 700.3 L 659.5 705.9 L 662.0 711.5 L 664.5 717.1 L 667.0 722.8 L 669.3 728.4 L 671.7 734.1 L 674.0 739.8 L 676.2 745.5 L 678.4 751.2 L 680.5 757.0 L 682.4 762.7 L 684.3 768.6 L 686.1 774.4 L 687.7 780.2 L 689.2 786.1 L 689.2 786.1 L 690.6 792.1 L 691.7 798.0 L 692.8 803.9 L 693.7 810.0 L 694.6 816.0 L 695.2 822.1 L 695.8 828.1 L 696.4 834.3 L 696.9 840.4 L 697.4 846.5 L 697.9 852.6 L 698.3 858.8 L 698.8 864.8 L 699.2 871.0 L 699.8 877.1 L 700.4 883.1 L 700.4 883.1 L 700.9 889.2 L 701.5 895.3 L 702.0 901.5 L 702.5 907.5 L 702.9 913.6 L 703.3 919.8 L 703.8 925.8 L 704.2 931.9 L 704.7 938.1 L 705.1 944.1 L 705.6 950.2 L 706.1 956.3 L 706.8 962.4 L 707.4 968.4 L 708.3 974.5 L 709.1 980.6 L 709.1 980.6 L 710.0 986.6 L 711.0 992.6 L 712.1 998.6 L 713.3 1004.7 L 714.5 1010.7 L 715.8 1016.6 L 717.2 1022.6 L 718.5 1028.6 L 719.9 1034.6 L 721.2 1040.6 L 722.5 1046.5 L 723.9 1052.5 L 725.1 1058.5 L 726.4 1064.5 L 727.5 1070.5 L 728.6 1076.5 L 728.6 1076.5 L 729.6 1082.5 L 730.6 1088.6 L 731.5 1094.7 L 732.4 1100.7 L 733.2 1106.8 L 734.0 1112.8 L 734.8 1118.9 L 735.6 1125.0 L 736.3 1131.1 L 737.2 1137.1 L 738.0 1143.1 L 738.8 1149.2 L 739.7 1155.3 L 740.6 1161.4 L 741.7 1167.3 L 742.8 1173.4 L 742.8 1173.4 L 743.9 1179.4 L 745.0 1185.4 L 746.2 1191.4 L 747.4 1197.4 L 748.6 1203.4 L 749.8 1209.4 L 751.1 1215.4 L 752.4 1221.3 L 753.7 1227.3 L 755.1 1233.3 L 756.6 1239.3 L 757.9 1245.2 L 759.5 1251.1 L 761.0 1257.0 L 762.5 1262.9 L 764.2 1268.8 L 764.2 1268.8 L 765.9 1274.7 L 767.5 1280.6 L 769.3 1286.5 L 771.1 1292.3 L 772.9 1298.2 L 774.8 1304.0 L 776.7 1309.8 L 778.6 1315.5 L 780.6 1321.3 L 782.6 1327.1 L 784.6 1332.9 L 786.6 1338.7 L 788.8 1344.4 L 790.9 1350.2 L 793.0 1355.9 L 795.1 1361.7 L 795.1 1361.7 L 797.3 1367.4 L 799.5 1373.1 L 801.7 1378.8 L 804.0 1384.5 L 806.3 1390.2 L 808.6 1395.8 L 811.0 1401.5 L 813.4 1407.1 L 815.8 1412.7 L 818.2 1418.3 L 820.7 1423.9 L 823.1 1429.5 L 825.5 1435.1 L 828.0 1440.8 L 830.3 1446.4 L 832.8 1452.1 L 832.8 1452.1 L 835.2 1457.7 L 837.7 1463.3 L 840.1 1468.9 L 842.6 1474.5 L 845.1 1480.0 L 847.5 1485.7 L 849.9 1491.3 L 852.4 1496.9 L 854.9 1502.5 L 857.5 1508.0 L 860.0 1513.6 L 862.5 1519.2 L 865.0 1524.8 L 867.6 1530.3 L 870.2 1535.9 L 872.8 1541.4 L 872.8 1541.4 L 875.3 1546.9 L 878.0 1552.4 L 880.6 1558.1 L 883.2 1563.6 L 885.8 1569.1 L 888.5 1574.6 L 891.2 1580.0 L 893.8 1585.6 L 896.6 1591.1 L 899.3 1596.6 L 902.0 1602.0 L 904.7 1607.6 L 907.4 1613.0 L 910.2 1618.4 L 913.1 1623.9 L 915.8 1629.4 L 915.8 1629.4 L 918.7 1634.8 L 921.5 1640.1 L 924.5 1645.6 L 927.4 1650.9 L 930.4 1656.2 L 933.4 1661.6 L 936.3 1666.9 L 939.4 1672.2 L 942.4 1677.6 L 945.3 1682.9 L 948.3 1688.2 L 951.3 1693.7 L 954.2 1699.0 L 957.0 1704.4 L 959.9 1709.9 L 962.6 1715.3 L 962.6 1715.3 L 965.4 1720.7 L 968.1 1726.2 L 970.7 1731.8 L 973.4 1737.3 L 976.0 1742.8 L 978.6 1748.3 L 981.1 1753.9 L 983.7 1759.4 L 986.2 1765.1 L 988.8 1770.6 L 991.3 1776.2 L 993.7 1781.8 L 996.2 1787.4 L 998.7 1792.9 L 1000.0 1795.8" fill="none" stroke="#ffd23d" stroke-width="6.0" stroke-opacity="0.9"/><path d="M 324.0 1235.9 L 324.6 1235.3 L 325.5 1234.7 L 326.5 1233.9 L 327.5 1233.0 L 328.6 1232.1 L 329.9 1231.1 L 331.2 1230.1 L 332.5 1229.0 L 333.9 1227.8 L 335.3 1226.7 L 336.7 1225.5 L 338.1 1224.4 L 339.4 1223.2 L 340.8 1222.1 L 342.1 1221.0 L 343.3 1220.0 L 343.3 1220.0 L 344.5 1218.9 L 345.7 1217.8 L 346.9 1216.8 L 348.1 1215.8 L 349.3 1214.8 L 350.4 1213.8 L 351.6 1212.7 L 352.8 1211.7 L 354.0 1210.6 L 355.1 1209.6 L 356.3 1208.6 L 357.4 1207.4 L 358.6 1206.4 L 359.7 1205.3 L 360.9 1204.2 L 362.0 1203.2 L 362.0 1203.2 L 363.2 1202.1 L 364.5 1200.9 L 365.7 1199.7 L 367.0 1198.5 L 368.3 1197.2 L 369.6 1195.9 L 370.9 1194.8 L 372.2 1193.5 L 373.5 1192.3 L 374.7 1191.1 L 375.8 1190.0 L 376.9 1189.0 L 377.8 1188.0 L 378.7 1187.2 L 379.5 1186.5 L 380.1 1185.8" fill="none" stroke="#ffd23d" stroke-width="6.0" stroke-opacity="0.9"/></g><g id="clips"><circle cx="499.0" cy="2000.0" r="2" fill="none" stroke="#0b5" stroke-width="0.6"/><circle cx="0.0" cy="1496.3" r="2" fill="none" stroke="#0b5" stroke-width="0.6"/><circle cx="0.0" cy="1318.4" r="2" fill="none" stroke="#0b5" stroke-width="0.6"/><circle cx="1000.0" cy="1795.8" r="2" fill="none" stroke="#0b5" stroke-width="0.6"/><circle cx="324.0" cy="1235.9" r="2" fill="none" stroke="#0b5" stroke-width="0.6"/></g><g id="power"><circle cx="499.0" cy="2000.0" r="5" fill="none" stroke="#e33" stroke-width="1"/><circle cx="1000.0" cy="1795.8" r="5" fill="none" stroke="#e33" stroke-width="1"/><circle cx="0.0" cy="1496.3" r="5" fill="none" stroke="#e33" stroke-width="1"/><circle cx="0.0" cy="1318.4" r="5" fill="none" stroke="#e33" stroke-width="1"/></g><g id="bridges"></g></svg>