<svg xmlns="http://www.w3.org/2000/svg" width="2000mm" height="1000mm" viewBox="0 0 2000 1000"><g id="outline"><rect x="0" y="0" width="2000" height="1000" fill="none" stroke="#000" stroke-width="1"/></g><g id="channels"><path d="M 839.2 1000.0 L 835.2 995.2 L 830.7 990.4 L 826.1 985.8 L 821.3 981.5 L 816.4 977.4 L 811.3 973.7 L 806.0 970.4 L 806.0 970.4 L 800.3 967.6 L 794.1 965.4 L 787.3 963.6 L 780.3 962.3 L 772.9 961.3 L 765.4 960.6 L 757.8 960.0 L 750.2 959.5 L 742.8 959.1 L 735.6 958.6 L 728.7 957.9 L 722.3 957.1 L 716.3 955.9 L 711.0 954.4 L 706.4 952.4 L 702.7 949.8 L 702.7 949.8 L 699.8 946.8 L 697.9 943.5 L 696.8 939.8 L 696.3 935.8 L 696.5 931.7 L 697.0 927.3 L 697.8 922.7 L 698.9 918.0 L 700.0 913.2 L 701.0 908.4 L 701.9 903.5 L 702.5 898.6 L 702.7 893.8 L 702.3 889.0 L 701.2 884.3 L 699.4 879.8 L 699.4 879.8 L 696.7 875.3 L 693.2 870.6 L 689.1 865.8 L 684.4 860.9 L 679.4 856.0 L 674.0 851.0 L 668.4 846.1 L 662.8 841.2 L 657.3 836.4 L 651.9 831.7 L 646.8 827.1 L 642.2 822.7 L 638.1 818.5 L 634.7 814.6 L 632.0 810.9 L 630.3 807.5 L 630.3 807.5 L 629.5 804.6 L 629.7 802.1 L 630.7 799.9 L 632.4 798.1 L 634.7 796.5 L 637.3 795.1 L 640.3 793.9 L 643.4 792.6 L 646.6 791.4 L 649.7 790.1 L 652.6 788.7 L 655.1 787.1 L 657.2 785.2 L 658.7 783.0 L 659.5 780.4 L 659.4 777.3 L 659.4 777.3 L 658.4 773.7 L 656.6 769.6 L 653.9 765.0 L 650.7 760.0 L 647.0 754.7 L 643.0 749.2 L 638.8 743.6 L 634.5 738.0 L 630.2 732.4 L 626.2 726.9 L 622.5 721.7 L 619.2 716.8 L 616.5 712.2 L 614.6 708.2 L 613.4 704.7 L 613.3 701.8 L 613.3 701.8 L 614.2 699.6 L 615.9 698.1 L 618.3 697.1 L 621.4 696.5 L 625.1 696.4 L 629.1 696.6 L 633.6 696.9 L 638.2 697.5 L 643.1 698.0 L 647.9 698.6 L 652.8 699.0 L 657.4 699.3 L 661.9 699.3 L 665.9 698.9 L 669.6 698.1 L 672.7 696.8 L 672.7 696.8 L 675.3 695.0 L 677.7 692.7 L 679.8 690.0 L 681.7 687.0 L 683.5 683.7 L 685.1 680.2 L 686.6 676.7 L 688.1 673.1 L 689.6 669.5 L 691.1 666.0 L 692.6 662.6 L 694.3 659.5 L 696.1 656.7 L 698.0 654.3 L 700.2 652.3 L 702.6 650.8 L 702.6 650.8 L 705.2 649.8 L 708.1 649.0 L 711.0 648.6 L 714.1 648.4 L 717.4 648.5 L 720.7 648.8 L 724.0 649.3 L 727.5 649.9 L 730.9 650.7 L 734.4 651.6 L 737.9 652.6 L 741.3 653.6 L 744.7 654.7 L 748.0 655.8 L 751.2 656.9 L 754.3 657.9 L 754.3 657.9 L 757.3 658.9 L 760.2 659.8 L 763.1 660.6 L 766.0 661.4 L 768.8 662.2 L 771.6 663.1 L 774.4 664.1 L 777.2 665.2 L 779.9 666.5 L 782.7 668.0 L 785.4 669.7 L 788.2 671.7 L 791.0 674.1 L 793.8 676.8 L 796.7 679.9 L 799.6 683.4 L 799.6 683.4 L 802.6 687.4 L 805.5 691.9 L 808.4 696.9 L 811.4 702.3 L 814.4 708.0 L 817.4 714.0 L 820.4 720.2 L 823.4 726.6 L 826.4 733.1 L 829.4 739.7 L 832.5 746.4 L 835.6 753.0 L 838.6 759.5 L 841.8 765.9 L 844.9 772.2 L 848.0 778.1 L 848.0 778.1 L 851.2 784.0 L 854.4 789.8 L 857.7 795.6 L 860.9 801.4 L 864.2 807.2 L 867.5 813.0 L 870.9 818.7 L 874.2 824.5 L 877.5 830.2 L 880.9 836.0 L 884.2 841.7 L 887.6 847.5 L 890.9 853.2 L 894.2 859.0 L 897.5 864.8 L 900.8 870.6 L 900.8 870.6 L 904.1 876.3 L 907.3 882.2 L 910.5 888.0 L 913.7 893.9 L 916.8 899.7 L 920.0 905.6 L 923.1 911.4 L 926.3 917.3 L 929.5 923.1 L 932.7 929.0 L 936.0 934.8 L 939.3 940.5 L 942.6 946.3 L 946.1 952.0 L 949.5 957.6 L 953.1 963.2 L 953.1 963.2 L 956.7 968.8 L 960.4 974.3 L 964.2 979.8 L 968.0 985.2 L 971.8 990.7 L 975.7 996.1 L 978.6 1000.0" fill="none" stroke="#ffd23d" stroke-width="6.0" stroke-opacity="0.9"/></g><g id="clips"><circle cx="839.2" cy="1000.0" r="2" fill="none" stroke="#0b5" stroke-width="0.6"/><circle cx="978.6" cy="1000.0" r="2" fill="none" stroke="#0b5" stroke-width="0.6"/></g><g id="power"><circle cx="839.2" cy="1000.0" r="5" fill="none" stroke="#e33" stroke-width="1"/><circle cx="978.5" cy="1000.0" r="5" fill="none" stroke="#e33" stroke-width="1"/></g></svg>