<svg xmlns="http://www.w3.org/2000/svg" width="2000mm" height="1000mm" viewBox="0 0 2000 1000"><g id="outline"><rect x="0" y="0" width="2000" height="1000" fill="none" stroke="#000" stroke-width="1"/></g><g id="channels"><path d="M 1253.0 415.7 L 1256.2 417.0 L 1260.1 418.6 L 1264.5 420.5 L 1269.4 422.7 L 1274.8 425.1 L 1280.6 427.6 L 1286.7 430.3 L 1293.0 433.0 L 1299.6 435.7 L 1306.3 438.4 L 1313.0 441.0 L 1319.7 443.4 L 1326.4 445.7 L 1333.0 447.8 L 1339.3 449.5 L 1345.5 451.0 L 1345.5 451.0 L 1351.6 452.1 L 1358.0 453.0 L 1364.6 453.5 L 1371.3 453.9 L 1378.1 454.1 L 1385.0 454.1 L 1391.8 454.1 L 1398.6 454.0 L 1405.3 453.9 L 1411.8 453.9 L 1418.1 453.9 L 1424.1 454.1 L 1429.8 454.5 L 1435.1 455.0 L 1439.9 455.8 L 1444.3 456.9 L 1444.3 456.9 L 1448.4 458.3 L 1452.5 459.9 L 1456.4 461.8 L 1460.2 463.8 L 1463.8 466.0 L 1467.2 468.3 L 1470.3 470.7 L 1473.0 473.1 L 1475.4 475.6 L 1477.3 478.1 L 1478.8 480.5 L 1479.7 482.9 L 1480.1 485.2 L 1479.8 487.4 L 1478.9 489.4 L 1477.3 491.2 L 1477.3 491.2 L 1474.6 492.9 L 1470.5 494.3 L 1465.3 495.7 L 1459.2 496.9 L 1452.3 498.0 L 1444.9 499.1 L 1437.1 500.1 L 1429.0 501.1 L 1421.0 502.2 L 1413.2 503.3 L 1405.7 504.4 L 1398.8 505.7 L 1392.7 507.1 L 1387.5 508.6 L 1383.5 510.3 L 1380.7 512.2 L 1380.7 512.2 L 1379.3 514.3 L 1378.9 516.6 L 1379.4 519.1 L 1380.7 521.6 L 1382.7 524.3 L 1385.2 527.1 L 1388.1 530.0 L 1391.3 532.9 L 1394.7 535.9 L 1398.2 538.9 L 1401.6 541.9 L 1404.8 544.8 L 1407.6 547.7 L 1410.1 550.6 L 1411.9 553.3 L 1413.1 556.0 L 1413.1 556.0 L 1413.9 558.6 L 1414.5 561.3 L 1415.0 564.0 L 1415.4 566.7 L 1415.7 569.4 L 1415.8 572.1 L 1415.8 574.8 L 1415.5 577.4 L 1415.1 580.0 L 1414.5 582.5 L 1413.7 584.9 L 1412.7 587.3 L 1411.5 589.5 L 1410.0 591.6 L 1408.2 593.6 L 1406.2 595.4 L 1406.2 595.4 L 1403.7 596.9 L 1400.4 598.2 L 1396.5 599.1 L 1392.0 599.8 L 1387.2 600.4 L 1382.1 600.8 L 1376.9 601.2 L 1371.7 601.6 L 1366.6 602.0 L 1361.8 602.6 L 1357.3 603.4 L 1353.4 604.3 L 1350.0 605.6 L 1347.5 607.1 L 1345.7 609.1 L 1345.0 611.6 L 1345.0 611.6 L 1345.6 614.6 L 1347.4 618.4 L 1350.4 622.8 L 1354.2 627.6 L 1358.8 632.9 L 1363.8 638.3 L 1369.2 643.9 L 1374.8 649.5 L 1380.3 655.0 L 1385.5 660.3 L 1390.3 665.3 L 1394.5 669.8 L 1397.8 673.8 L 1400.1 677.0 L 1401.2 679.5 L 1400.9 681.1 L 1400.9 681.1 L 1399.2 681.7 L 1396.2 681.4 L 1392.3 680.3 L 1387.4 678.6 L 1381.7 676.4 L 1375.5 673.6 L 1368.7 670.6 L 1361.7 667.3 L 1354.4 663.9 L 1347.1 660.5 L 1339.9 657.2 L 1332.9 654.1 L 1326.3 651.3 L 1320.3 648.9 L 1314.9 647.0 L 1310.4 645.8 L 1310.4 645.8 L 1306.5 645.1 L 1302.9 644.6 L 1299.7 644.3 L 1296.7 644.3 L 1293.9 644.5 L 1291.4 644.8 L 1289.0 645.3 L 1286.8 645.9 L 1284.7 646.6 L 1282.7 647.4 L 1280.7 648.3 L 1278.7 649.3 L 1276.6 650.3 L 1274.5 651.2 L 1272.3 652.2 L 1270.0 653.1 L 1270.0 653.1 L 1267.7 654.3 L 1265.6 655.8 L 1263.5 657.6 L 1261.6 659.6 L 1259.7 661.7 L 1257.9 664.0 L 1256.1 666.2 L 1254.2 668.4 L 1252.2 670.5 L 1250.1 672.3 L 1247.9 673.9 L 1245.5 675.2 L 1242.9 676.0 L 1240.1 676.3 L 1236.9 676.1 L 1233.5 675.2 L 1233.5 675.2 L 1229.8 673.7 L 1225.8 671.5 L 1221.5 668.7 L 1217.1 665.3 L 1212.4 661.6 L 1207.6 657.5 L 1202.7 653.2 L 1197.6 648.6 L 1192.4 644.0 L 1187.1 639.3 L 1181.7 634.7 L 1176.3 630.1 L 1170.9 625.8 L 1165.5 621.8 L 1160.0 618.1 L 1154.7 614.8 L 1154.7 614.8 L 1149.3 611.9 L 1143.8 609.0 L 1138.3 606.3 L 1132.7 603.6 L 1127.1 601.0 L 1121.4 598.6 L 1115.7 596.2 L 1109.9 593.9 L 1104.0 591.7 L 1098.2 589.6 L 1092.3 587.6 L 1086.4 585.7 L 1080.5 583.9 L 1074.5 582.3 L 1068.5 580.7 L 1062.6 579.2 L 1062.6 579.2 L 1056.6 577.8 L 1050.6 576.7 L 1044.5 575.7 L 1038.4 574.8 L 1032.2 574.1 L 1026.0 573.4 L 1019.8 572.9 L 1013.6 572.4 L 1007.4 572.0 L 1001.2 571.6 L 994.9 571.2 L 988.7 570.8 L 982.5 570.4 L 976.2 569.9 L 970.0 569.3 L 963.8 568.7 L 963.8 568.7 L 957.7 568.0 L 951.5 567.4 L 945.3 566.8 L 939.1 566.2 L 933.0 565.5 L 926.8 564.9 L 920.6 564.3 L 914.4 563.7 L 908.2 563.0 L 902.1 562.3 L 895.9 561.6 L 889.7 560.9 L 883.6 560.1 L 877.4 559.3 L 871.3 558.4 L 865.2 557.5 L 865.2 557.5 L 859.0 556.5 L 852.9 555.5 L 846.8 554.4 L 840.7 553.2 L 834.6 552.0 L 828.5 550.8 L 822.5 549.5 L 816.4 548.2 L 810.3 546.9 L 804.2 545.6 L 798.1 544.3 L 792.1 543.0 L 786.0 541.8 L 779.9 540.5 L 773.8 539.3 L 767.7 538.1 L 767.7 538.1 L 761.6 536.9 L 755.5 535.7 L 749.4 534.5 L 743.3 533.3 L 737.3 532.0 L 731.2 530.8 L 725.1 529.6 L 719.0 528.4 L 712.9 527.3 L 706.8 526.1 L 700.7 525.0 L 694.6 523.9 L 688.4 522.8 L 682.3 521.8 L 676.2 520.8 L 670.1 519.9 L 670.1 519.9 L 663.9 519.0 L 657.8 518.1 L 651.6 517.3 L 645.5 516.5 L 639.3 515.7 L 633.1 514.9 L 627.0 514.2 L 620.8 513.5 L 614.6 512.9 L 608.4 512.2 L 602.2 511.6 L 596.1 511.0 L 589.9 510.5 L 583.7 510.0 L 577.5 509.5 L 571.3 509.0 L 571.3 509.0 L 565.1 508.5 L 558.9 508.1 L 552.7 507.7 L 546.5 507.4 L 540.3 507.0 L 534.1 506.7 L 527.9 506.4 L 521.7 506.2 L 515.5 505.9 L 509.3 505.7 L 503.1 505.6 L 496.9 505.4 L 490.7 505.3 L 484.5 505.2 L 478.3 505.1 L 472.0 505.0 L 472.0 505.0 L 465.8 505.0 L 459.6 505.1 L 453.4 505.2 L 447.2 505.3 L 441.0 505.5 L 434.8 505.8 L 428.6 506.0 L 422.4 506.3 L 416.2 506.5 L 410.0 506.8 L 403.8 507.0 L 397.5 507.2 L 391.3 507.4 L 385.1 507.5 L 378.9 507.6 L 372.7 507.6 L 372.7 507.6 L 366.5 507.6 L 360.3 507.6 L 354.1 507.6 L 347.9 507.6 L 341.7 507.6 L 335.4 507.6 L 329.2 507.5 L 323.0 507.4 L 316.8 507.3 L 310.6 507.1 L 304.4 506.9 L 298.2 506.7 L 292.0 506.4 L 285.8 506.0 L 279.6 505.6 L 273.4 505.1 L 273.4 505.1 L 267.3 504.6 L 261.1 504.0 L 254.9 503.4 L 248.7 502.7 L 242.6 502.0 L 236.4 501.3 L 230.2 500.5 L 224.1 499.6 L 217.9 498.8 L 211.8 497.8 L 205.6 496.9 L 199.5 495.9 L 193.4 494.8 L 187.3 493.7 L 181.2 492.6 L 175.1 491.4 L 175.1 491.4 L 169.0 490.2 L 162.9 489.0 L 156.7 487.8 L 150.6 486.6 L 144.5 485.4 L 138.3 484.1 L 132.2 482.8 L 126.1 481.4 L 120.1 479.9 L 114.0 478.4 L 108.0 476.7 L 102.1 475.0 L 96.2 473.1 L 90.4 471.1 L 84.6 468.9 L 79.0 466.6 L 79.0 466.6 L 73.3 464.2 L 67.7 461.7 L 62.1 459.0 L 56.6 456.3 L 51.0 453.4 L 45.5 450.5 L 40.1 447.4 L 34.7 444.2 L 29.4 441.0 L 24.2 437.6 L 19.0 434.1 L 14.0 430.5 L 9.0 426.8 L 4.2 423.1 L 0.0 419.6" fill="none" stroke="#ff7a1a" stroke-width="6.0" stroke-opacity="0.9"/><path d="M 166.9 0.0 L 171.4 5.1 L 176.1 10.4 L 180.7 15.8 L 185.2 21.3 L 185.2 21.3 L 189.6 26.9 L 193.9 32.5 L 198.2 38.2 L 202.3 44.0 L 206.4 49.8 L 210.4 55.7 L 214.4 61.6 L 218.3 67.6 L 222.2 73.6 L 226.0 79.6 L 229.9 85.6 L 233.7 91.6 L 237.5 97.7 L 241.3 103.7 L 245.1 109.7 L 248.9 115.7 L 248.9 115.7 L 252.7 121.8 L 256.4 127.9 L 260.0 134.0 L 263.6 140.2 L 267.1 146.4 L 270.7 152.7 L 274.2 158.9 L 277.7 165.2 L 281.2 171.4 L 284.8 177.6 L 288.4 183.7 L 292.1 189.8 L 295.9 195.8 L 299.8 201.7 L 303.8 207.6 L 307.9 213.4 L 307.9 213.4 L 312.1 219.1 L 316.4 224.8 L 320.7 230.5 L 325.1 236.2 L 329.5 241.9 L 334.0 247.5 L 338.6 253.0 L 343.2 258.5 L 348.0 263.9 L 352.8 269.2 L 357.7 274.4 L 362.7 279.5 L 367.8 284.4 L 373.0 289.1 L 378.3 293.7 L 383.7 298.1 L 383.7 298.1 L 389.3 302.4 L 395.0 306.5 L 400.8 310.5 L 406.8 314.4 L 412.9 318.2 L 419.0 321.8 L 425.3 325.3 L 431.6 328.7 L 438.0 332.0 L 444.4 335.1 L 451.0 338.1 L 457.5 341.0 L 464.1 343.7 L 470.7 346.3 L 477.4 348.7 L 484.0 351.0 L 484.0 351.0 L 490.7 353.1 L 497.5 355.0 L 504.3 356.7 L 511.2 358.2 L 518.2 359.5 L 525.2 360.8 L 532.3 361.9 L 539.4 362.8 L 546.5 363.7 L 553.6 364.6 L 560.8 365.3 L 567.9 366.1 L 575.1 366.8 L 582.2 367.5 L 589.3 368.3 L 596.4 369.1 L 596.4 369.1 L 603.5 369.8 L 610.6 370.5 L 617.7 371.1 L 624.8 371.6 L 631.9 372.1 L 639.0 372.5 L 646.1 372.9 L 653.3 373.2 L 660.4 373.6 L 667.5 374.0 L 674.6 374.3 L 681.8 374.7 L 688.9 375.2 L 696.0 375.7 L 703.1 376.2 L 710.2 376.8 L 710.2 376.8 L 717.3 377.5 L 724.4 378.2 L 731.5 378.9 L 738.6 379.6 L 745.7 380.3 L 752.8 381.0 L 759.9 381.8 L 767.0 382.6 L 774.1 383.4 L 781.1 384.3 L 788.2 385.2 L 795.3 386.1 L 802.4 387.0 L 809.4 388.0 L 816.5 389.0 L 823.5 390.0 L 823.5 390.0 L 830.6 391.1 L 837.6 392.3 L 844.6 393.5 L 851.6 394.9 L 858.6 396.2 L 865.6 397.6 L 872.6 399.0 L 879.6 400.4 L 886.6 401.9 L 893.6 403.3 L 900.6 404.6 L 907.6 406.0 L 914.7 407.2 L 921.7 408.5 L 928.7 409.6 L 935.7 410.7 L 935.7 410.7 L 942.8 411.7 L 949.9 413.0 L 957.1 414.3 L 964.3 415.6 L 971.5 417.0 L 978.7 418.4 L 985.9 419.7 L 993.1 420.9 L 1000.3 421.9 L 1007.4 422.8 L 1014.5 423.5 L 1021.5 423.9 L 1028.5 424.0 L 1035.3 423.7 L 1042.1 423.1 L 1048.8 422.1 L 1048.8 422.1 L 1055.4 420.7 L 1062.1 419.0 L 1068.7 417.0 L 1075.2 414.7 L 1081.8 412.1 L 1088.2 409.3 L 1094.6 406.2 L 1101.0 402.9 L 1107.3 399.5 L 1113.4 395.8 L 1119.5 392.0 L 1125.5 388.1 L 1131.3 384.0 L 1137.0 379.9 L 1142.6 375.6 L 1148.1 371.3 L 1148.1 371.3 L 1153.4 366.5 L 1158.7 361.1 L 1163.9 355.0 L 1169.1 348.6 L 1174.2 341.7 L 1179.2 334.7 L 1184.0 327.7 L 1188.8 320.7 L 1193.4 313.9 L 1197.8 307.5 L 1202.1 301.5 L 1206.2 296.1 L 1210.0 291.4 L 1213.7 287.6 L 1217.1 284.8 L 1220.3 283.1 L 1220.3 283.1 L 1223.3 282.5 L 1226.2 282.6 L 1228.9 283.6 L 1231.5 285.2 L 1233.9 287.4 L 1236.2 290.3 L 1238.2 293.6 L 1240.0 297.4 L 1241.7 301.6 L 1243.1 306.1 L 1244.2 310.9 L 1245.2 315.8 L 1245.8 320.9 L 1246.2 326.0 L 1246.3 331.2 L 1246.1 336.3 L 1246.1 336.3 L 1245.5 341.7 L 1244.3 347.9 L 1242.6 354.7 L 1240.4 361.9 L 1238.0 369.6 L 1235.3 377.5 L 1232.4 385.5 L 1229.3 393.6 L 1226.2 401.5 L 1223.1 409.3 L 1220.2 416.6 L 1217.4 423.6 L 1214.8 429.9 L 1212.5 435.5 L 1210.7 440.4 L 1209.3 444.2" fill="none" stroke="#ff7a1a" stroke-width="6.0" stroke-opacity="0.9"/><path d="M 104.5 501.3 L 104.0 505.1 L 103.2 509.7 L 102.2 515.0 L 101.2 521.0 L 100.0 527.5 L 98.7 534.4 L 97.4 541.7 L 96.2 549.3 L 94.9 557.1 L 93.7 565.1 L 92.6 573.0 L 91.7 581.0 L 90.9 588.8 L 90.3 596.4 L 89.9 603.8 L 89.9 610.8 L 89.9 610.8 L 89.9 617.6 L 90.0 624.5 L 90.1 631.4 L 90.3 638.4 L 90.6 645.5 L 91.0 652.5 L 91.6 659.5 L 92.3 666.4 L 93.2 673.3 L 94.3 680.1 L 95.6 686.8 L 97.1 693.4 L 99.0 699.8 L 101.1 706.0 L 103.6 712.1 L 106.3 717.9 L 106.3 717.9 L 109.5 723.7 L 113.0 729.4 L 116.8 735.0 L 120.9 740.6 L 125.3 746.1 L 129.9 751.5 L 134.7 756.8 L 139.8 761.9 L 145.0 766.8 L 150.4 771.5 L 155.9 776.0 L 161.6 780.2 L 167.3 784.2 L 173.0 787.9 L 178.8 791.2 L 184.6 794.3 L 184.6 794.3 L 190.6 797.0 L 196.7 799.6 L 203.2 801.9 L 209.8 804.1 L 216.5 806.0 L 223.4 807.6 L 230.4 809.0 L 237.4 810.2 L 244.5 811.1 L 251.5 811.7 L 258.5 812.1 L 265.5 812.1 L 272.3 811.9 L 279.0 811.3 L 285.5 810.5 L 291.9 809.3 L 291.9 809.3 L 298.1 807.7 L 304.4 805.7 L 310.6 803.4 L 316.9 800.8 L 323.1 797.8 L 329.3 794.5 L 335.4 791.0 L 341.4 787.2 L 347.2 783.1 L 353.0 778.9 L 358.6 774.5 L 364.0 770.0 L 369.2 765.3 L 374.1 760.5 L 378.9 755.7 L 383.3 750.7 L 383.3 750.7 L 387.5 745.7 L 391.5 740.3 L 395.3 734.7 L 398.9 728.9 L 402.3 722.9 L 405.5 716.8 L 408.5 710.5 L 411.4 704.1 L 414.1 697.5 L 416.8 690.9 L 419.3 684.3 L 421.7 677.6 L 424.0 670.9 L 426.2 664.3 L 428.4 657.7 L 430.5 651.1 L 430.5 651.1 L 432.5 644.4 L 434.4 637.2 L 436.2 629.8 L 437.9 622.1 L 439.4 614.2 L 440.9 606.3 L 442.2 598.4 L 443.4 590.6 L 444.6 583.0 L 445.6 575.7 L 446.6 568.8 L 447.5 562.3 L 448.3 556.3 L 449.1 551.0 L 449.8 546.4 L 450.4 542.6" fill="none" stroke="#ff7a1a" stroke-width="6.0" stroke-opacity="0.9"/><path d="M 201.6 606.3 L 200.9 605.6 L 200.0 604.8 L 198.9 603.9 L 197.7 603.0 L 196.3 601.9 L 194.9 600.8 L 193.4 599.6 L 191.8 598.3 L 190.3 597.0 L 188.8 595.6 L 187.4 594.2 L 186.1 592.8 L 184.9 591.3 L 183.8 589.8 L 183.0 588.4 L 182.3 586.9 L 182.3 586.9 L 181.8 585.3 L 181.4 583.7 L 181.2 582.0 L 181.0 580.3 L 180.9 578.5 L 180.9 576.7 L 181.0 574.9 L 181.2 573.0 L 181.4 571.1 L 181.7 569.2 L 182.0 567.3 L 182.4 565.5 L 182.8 563.6 L 183.2 561.8 L 183.7 560.1 L 184.1 558.4 L 184.1 558.4 L 184.7 556.7 L 185.4 554.9 L 186.2 553.1 L 187.0 551.2 L 188.0 549.4 L 189.0 547.5 L 190.0 545.7 L 191.1 543.9 L 192.1 542.2 L 193.1 540.6 L 194.1 539.0 L 195.0 537.5 L 195.9 536.2 L 196.6 535.0 L 197.2 533.9 L 197.7 533.1" fill="none" stroke="#ff7a1a" stroke-width="6.0" stroke-opacity="0.9"/><path d="M 1090.5 391.1 L 1089.6 389.2 L 1088.8 386.7 L 1088.0 383.6 L 1087.2 380.2 L 1086.3 376.4 L 1085.3 372.4 L 1084.2 368.3 L 1082.9 364.2 L 1081.4 360.1 L 1079.7 356.1 L 1077.7 352.4 L 1075.3 349.1 L 1072.6 346.2 L 1069.5 343.8 L 1066.0 342.0 L 1062.0 341.0 L 1062.0 341.0 L 1057.5 340.8 L 1052.4 341.2 L 1046.9 342.3 L 1040.9 343.8 L 1034.5 345.8 L 1027.8 348.2 L 1020.9 350.8 L 1013.7 353.5 L 1006.3 356.4 L 998.9 359.2 L 991.4 361.9 L 983.9 364.5 L 976.5 366.8 L 969.1 368.7 L 962.0 370.2 L 955.0 371.1 L 955.0 371.1 L 948.2 371.6 L 941.3 371.9 L 934.4 372.0 L 927.5 371.8 L 920.6 371.4 L 913.6 370.9 L 906.6 370.3 L 899.6 369.5 L 892.6 368.6 L 885.6 367.7 L 878.7 366.7 L 871.7 365.7 L 864.7 364.6 L 857.7 363.6 L 850.8 362.7 L 843.8 361.7 L 843.8 361.7 L 836.9 360.8 L 830.0 359.9 L 823.1 358.8 L 816.2 357.7 L 809.3 356.6 L 802.4 355.4 L 795.6 354.2 L 788.7 353.0 L 781.8 351.7 L 774.9 350.5 L 768.0 349.2 L 761.1 347.9 L 754.3 346.7 L 747.4 345.5 L 740.5 344.3 L 733.6 343.1 L 733.6 343.1 L 726.7 342.0 L 719.8 340.8 L 712.9 339.7 L 706.0 338.5 L 699.1 337.3 L 692.3 336.1 L 685.4 335.0 L 678.5 333.8 L 671.6 332.7 L 664.7 331.6 L 657.8 330.5 L 650.9 329.4 L 644.0 328.3 L 637.1 327.3 L 630.1 326.4 L 623.2 325.4 L 623.2 325.4 L 616.3 324.6 L 609.4 323.8 L 602.4 323.1 L 595.4 322.4 L 588.5 321.8 L 581.5 321.2 L 574.5 320.6 L 567.6 320.0 L 560.6 319.5 L 553.6 318.9 L 546.7 318.3 L 539.7 317.6 L 532.8 316.9 L 525.8 316.2 L 518.9 315.3 L 512.0 314.4 L 512.0 314.4 L 504.9 313.4 L 497.4 312.3 L 489.7 311.1 L 481.8 309.8 L 473.8 308.4 L 465.8 307.0 L 457.8 305.6 L 450.0 304.2 L 442.4 302.8 L 435.1 301.5 L 428.1 300.2 L 421.6 299.0 L 415.7 297.9 L 410.4 296.9 L 405.7 296.1 L 401.9 295.4" fill="none" stroke="#ff7a1a" stroke-width="6.0" stroke-opacity="0.9"/></g><g id="clips"><circle cx="1253.0" cy="415.7" r="2" fill="none" stroke="#0b5" stroke-width="0.6"/><circle cx="0.0" cy="419.6" r="2" fill="none" stroke="#0b5" stroke-width="0.6"/><circle cx="166.9" cy="0.0" r="2" fill="none" stroke="#0b5" stroke-width="0.6"/><circle cx="1209.3" cy="444.2" r="2" fill="none" stroke="#0b5" stroke-width="0.6"/><circle cx="104.5" cy="501.3" r="2" fill="none" stroke="#0b5" stroke-width="0.6"/><circle cx="450.4" cy="542.6" r="2" fill="none" stroke="#0b5" stroke-width="0.6"/><circle cx="201.6" cy="606.3" r="2" fill="none" stroke="#0b5" stroke-width="0.6"/><circle cx="1090.5" cy="391.1" r="2" fill="none" stroke="#0b5" stroke-width="0.6"/><circle cx="401.9" cy="295.4" r="2" fill="none" stroke="#0b5" stroke-width="0.6"/></g><g id="power"><circle cx="0.0" cy="419.6" r="5" fill="none" stroke="#e33" stroke-width="1"/><circle cx="166.8" cy="0.0" r="5" fill="none" stroke="#e33" stroke-width="1"/></g></svg>