<svg xmlns="http://www.w3.org/2000/svg" width="2000mm" height="1000mm" viewBox="0 0 2000 1000"><g id="outline"><rect x="0" y="0" width="2000" height="1000" fill="none" stroke="#000" stroke-width="1"/></g><g id="channels"><path d="M 1685.3 1000.0 L 1686.1 998.2 L 1688.3 992.1 L 1690.1 986.0 L 1691.3 980.0 L 1691.3 980.0 L 1692.2 973.9 L 1692.6 967.5 L 1692.6 960.9 L 1692.2 954.2 L 1691.5 947.3 L 1690.5 940.4 L 1689.1 933.4 L 1687.4 926.5 L 1685.3 919.7 L 1683.0 913.0 L 1680.4 906.5 L 1677.6 900.2 L 1674.4 894.2 L 1671.1 888.6 L 1667.5 883.3 L 1663.6 878.4 L 1663.6 878.4 L 1659.5 873.9 L 1654.8 869.6 L 1649.8 865.5 L 1644.4 861.6 L 1638.6 857.9 L 1632.6 854.4 L 1626.3 851.2 L 1619.8 848.2 L 1613.1 845.4 L 1606.4 842.8 L 1599.5 840.4 L 1592.7 838.3 L 1585.8 836.4 L 1579.1 834.7 L 1572.4 833.2 L 1565.9 832.0 L 1565.9 832.0 L 1559.5 831.0 L 1552.9 830.4 L 1546.3 830.0 L 1539.5 829.8 L 1532.7 829.9 L 1525.9 830.3 L 1519.1 830.8 L 1512.2 831.6 L 1505.4 832.5 L 1498.5 833.6 L 1491.7 834.9 L 1484.9 836.3 L 1478.2 837.8 L 1471.6 839.4 L 1465.0 841.2 L 1458.6 843.0 L 1458.6 843.0 L 1452.2 845.2 L 1445.8 848.1 L 1439.4 851.4 L 1433.1 855.2 L 1426.8 859.3 L 1420.5 863.6 L 1414.3 868.0 L 1408.1 872.3 L 1402.0 876.4 L 1395.9 880.3 L 1389.9 883.8 L 1384.0 886.8 L 1378.2 889.2 L 1372.5 890.8 L 1366.9 891.7 L 1361.4 891.5 L 1361.4 891.5 L 1356.0 890.4 L 1350.7 888.6 L 1345.5 886.1 L 1340.3 882.9 L 1335.3 879.2 L 1330.3 874.9 L 1325.4 870.3 L 1320.6 865.4 L 1315.9 860.1 L 1311.2 854.7 L 1306.6 849.1 L 1302.0 843.5 L 1297.5 837.9 L 1293.1 832.4 L 1288.6 827.0 L 1284.3 821.9 L 1284.3 821.9 L 1280.0 816.8 L 1276.0 811.5 L 1272.1 805.9 L 1268.4 800.1 L 1264.8 794.3 L 1261.2 788.3 L 1257.7 782.3 L 1254.2 776.3 L 1250.7 770.3 L 1247.0 764.3 L 1243.3 758.5 L 1239.5 752.8 L 1235.4 747.3 L 1231.2 742.1 L 1226.7 737.1 L 1222.0 732.4 L 1222.0 732.4 L 1217.0 727.9 L 1211.8 723.7 L 1206.4 719.7 L 1200.8 715.8 L 1195.1 712.1 L 1189.2 708.5 L 1183.3 705.0 L 1177.2 701.7 L 1171.1 698.4 L 1164.9 695.2 L 1158.7 692.1 L 1152.4 689.1 L 1146.2 686.0 L 1139.9 683.0 L 1133.7 680.1 L 1127.5 677.1 L 1127.5 677.1 L 1121.4 674.1 L 1115.1 671.2 L 1108.9 668.5 L 1102.6 665.8 L 1096.2 663.1 L 1089.9 660.6 L 1083.5 658.0 L 1077.1 655.6 L 1070.6 653.1 L 1064.2 650.7 L 1057.7 648.3 L 1051.3 645.9 L 1044.8 643.5 L 1038.3 641.2 L 1031.9 638.8 L 1025.5 636.3 L 1025.5 636.3 L 1019.0 633.9 L 1012.6 631.6 L 1006.1 629.3 L 999.6 627.0 L 993.1 624.8 L 986.6 622.5 L 980.1 620.3 L 973.6 618.1 L 967.1 615.9 L 960.6 613.6 L 954.1 611.3 L 947.7 609.0 L 941.2 606.6 L 934.8 604.2 L 928.4 601.7 L 922.1 599.1 L 922.1 599.1 L 915.7 596.5 L 909.4 593.8 L 903.1 591.1 L 896.8 588.4 L 890.5 585.6 L 884.2 582.8 L 878.0 580.0 L 871.8 577.1 L 865.5 574.2 L 859.3 571.2 L 853.2 568.2 L 847.0 565.1 L 840.9 562.0 L 834.8 558.9 L 828.7 555.7 L 822.7 552.4 L 822.7 552.4 L 816.7 549.1 L 810.7 545.8 L 804.8 542.4 L 798.8 538.9 L 792.9 535.4 L 787.0 531.9 L 781.2 528.3 L 775.3 524.7 L 769.5 521.0 L 763.7 517.3 L 757.9 513.5 L 752.2 509.8 L 746.5 506.0 L 740.8 502.1 L 735.1 498.3 L 729.4 494.4 L 729.4 494.4 L 723.7 490.5 L 717.9 486.7 L 712.0 482.9 L 706.1 479.1 L 700.1 475.3 L 694.2 471.4 L 688.3 467.5 L 682.5 463.6 L 676.8 459.6 L 671.2 455.5 L 665.8 451.3 L 660.5 446.9 L 655.5 442.5 L 650.7 437.9 L 646.1 433.1 L 641.9 428.1 L 641.9 428.1 L 637.8 423.0 L 633.8 417.6 L 629.8 412.1 L 625.9 406.5 L 622.1 400.7 L 618.5 394.8 L 615.2 388.7 L 612.0 382.6 L 609.1 376.5 L 606.5 370.2 L 604.2 364.0 L 602.2 357.7 L 600.7 351.5 L 599.5 345.3 L 598.9 339.1 L 598.7 332.9 L 598.7 332.9 L 599.3 326.6 L 600.9 319.8 L 603.5 312.6 L 606.7 305.2 L 610.5 297.6 L 614.8 290.0 L 619.2 282.4 L 623.7 275.0 L 628.2 267.9 L 632.4 261.0 L 636.2 254.7 L 639.4 248.9 L 641.9 243.7 L 643.6 239.3 L 644.2 235.7 L 643.6 233.2 L 643.6 233.2 L 641.7 231.6 L 638.7 231.2 L 634.5 231.6 L 629.6 232.8 L 623.9 234.8 L 617.6 237.3 L 611.0 240.2 L 604.1 243.4 L 597.1 246.9 L 590.2 250.4 L 583.5 253.9 L 577.2 257.1 L 571.4 260.1 L 566.3 262.7 L 562.1 264.8 L 558.9 266.2" fill="none" stroke="#a05bff" stroke-width="6.0" stroke-opacity="0.9"/><path d="M 556.1 202.4 L 553.9 199.5 L 551.1 195.7 L 547.9 191.2 L 544.3 186.1 L 540.3 180.5 L 536.1 174.6 L 531.6 168.5 L 527.1 162.2 L 522.5 156.1 L 517.9 150.1 L 513.4 144.3 L 509.1 139.1 L 505.0 134.4 L 501.3 130.4 L 497.9 127.2 L 494.9 124.9 L 494.9 124.9 L 492.4 123.6 L 490.3 122.9 L 488.5 122.9 L 486.9 123.4 L 485.6 124.4 L 484.4 125.8 L 483.3 127.5 L 482.3 129.6 L 481.3 131.8 L 480.2 134.2 L 479.1 136.6 L 477.7 139.1 L 476.2 141.4 L 474.4 143.7 L 472.3 145.7 L 469.8 147.4 L 469.8 147.4 L 467.0 149.0 L 463.9 150.7 L 460.6 152.3 L 457.1 154.0 L 453.5 155.7 L 449.7 157.4 L 445.8 159.2 L 441.7 160.9 L 437.7 162.7 L 433.5 164.5 L 429.3 166.4 L 425.2 168.2 L 421.0 170.1 L 416.9 171.9 L 412.8 173.8 L 408.9 175.7 L 408.9 175.7 L 404.8 177.6 L 400.3 179.4 L 395.6 181.3 L 390.7 183.1 L 385.7 184.9 L 380.7 186.7 L 375.6 188.6 L 370.7 190.5 L 366.0 192.4 L 361.6 194.4 L 357.5 196.4 L 353.8 198.6 L 350.7 200.8 L 348.1 203.2 L 346.2 205.6 L 345.0 208.2 L 345.0 208.2 L 344.7 211.0 L 345.4 213.9 L 347.0 216.9 L 349.3 220.1 L 352.1 223.4 L 355.4 226.8 L 359.1 230.2 L 362.8 233.7 L 366.7 237.2 L 370.4 240.7 L 373.9 244.2 L 377.0 247.7 L 379.6 251.0 L 381.6 254.3 L 382.8 257.5 L 383.1 260.6 L 383.1 260.6 L 382.3 263.6 L 380.5 266.5 L 377.9 269.4 L 374.5 272.3 L 370.6 275.2 L 366.3 278.0 L 361.8 280.8 L 357.3 283.5 L 352.8 286.2 L 348.7 288.9 L 344.9 291.5 L 341.8 294.1 L 339.3 296.7 L 337.8 299.2 L 337.4 301.7 L 338.2 304.1 L 338.2 304.1 L 340.3 306.4 L 343.4 308.5 L 347.4 310.4 L 352.2 312.2 L 357.8 313.9 L 363.9 315.6 L 370.4 317.3 L 377.3 319.0 L 384.4 320.7 L 391.7 322.5 L 398.9 324.5 L 405.9 326.6 L 412.8 328.9 L 419.2 331.4 L 425.2 334.3 L 430.5 337.4 L 430.5 337.4 L 435.4 340.8 L 440.2 344.5 L 444.9 348.4 L 449.4 352.5 L 453.8 356.8 L 458.2 361.2 L 462.4 365.8 L 466.6 370.5 L 470.7 375.3 L 474.7 380.1 L 478.7 385.1 L 482.7 390.0 L 486.6 394.9 L 490.5 399.8 L 494.5 404.7 L 498.4 409.5 L 498.4 409.5 L 502.3 414.3 L 506.1 419.2 L 509.9 424.1 L 513.6 429.1 L 517.2 434.1 L 520.9 439.1 L 524.4 444.2 L 528.0 449.3 L 531.5 454.4 L 535.1 459.5 L 538.6 464.6 L 542.2 469.7 L 545.8 474.8 L 549.4 479.8 L 553.1 484.8 L 556.8 489.8 L 556.8 489.8 L 560.6 494.8 L 564.3 499.7 L 568.0 504.8 L 571.7 509.8 L 575.3 514.8 L 579.0 519.8 L 582.8 524.8 L 586.5 529.8 L 590.3 534.7 L 594.1 539.6 L 598.0 544.5 L 602.0 549.2 L 606.0 553.9 L 610.2 558.5 L 614.4 563.0 L 618.7 567.3 L 618.7 567.3 L 623.2 571.6 L 627.7 575.8 L 632.3 580.0 L 636.9 584.0 L 641.7 588.0 L 646.5 592.0 L 651.3 595.9 L 656.3 599.7 L 661.2 603.4 L 666.3 607.1 L 671.3 610.7 L 676.5 614.2 L 681.6 617.7 L 686.8 621.1 L 692.0 624.4 L 697.3 627.6 L 697.3 627.6 L 702.6 630.8 L 707.9 633.9 L 713.3 636.8 L 718.8 639.7 L 724.3 642.5 L 729.9 645.3 L 735.5 648.0 L 741.2 650.6 L 746.8 653.1 L 752.5 655.7 L 758.2 658.1 L 764.0 660.6 L 769.7 663.0 L 775.4 665.4 L 781.2 667.9 L 786.9 670.3 L 786.9 670.3 L 792.6 672.6 L 798.4 675.0 L 804.1 677.2 L 809.9 679.5 L 815.7 681.7 L 821.5 683.9 L 827.4 686.0 L 833.2 688.1 L 839.0 690.2 L 844.9 692.3 L 850.8 694.4 L 856.6 696.4 L 862.5 698.4 L 868.4 700.5 L 874.2 702.5 L 880.1 704.6 L 880.1 704.6 L 886.1 706.6 L 892.4 708.4 L 898.9 710.2 L 905.6 712.0 L 912.4 713.6 L 919.2 715.3 L 925.9 717.0 L 932.6 718.7 L 939.1 720.4 L 945.3 722.2 L 951.3 724.1 L 956.9 726.1 L 962.1 728.3 L 966.7 730.6 L 970.9 733.1 L 974.4 735.8 L 974.4 735.8 L 977.4 738.7 L 980.1 742.0 L 982.6 745.5 L 984.7 749.2 L 986.5 753.1 L 987.9 757.1 L 989.0 761.1 L 989.8 765.2 L 990.2 769.3 L 990.2 773.4 L 989.8 777.3 L 989.0 781.1 L 987.8 784.7 L 986.1 788.1 L 984.0 791.2 L 981.5 794.1 L 981.5 794.1 L 978.3 796.6 L 974.4 798.9 L 969.9 800.9 L 964.8 802.8 L 959.1 804.5 L 953.1 806.1 L 946.6 807.5 L 940.0 808.9 L 933.1 810.3 L 926.1 811.6 L 919.0 812.9 L 912.0 814.2 L 905.1 815.6 L 898.4 817.1 L 891.9 818.7 L 885.8 820.5 L 885.8 820.5 L 879.8 822.3 L 873.9 824.2 L 868.0 826.1 L 862.1 828.0 L 856.2 830.0 L 850.4 832.0 L 844.5 834.0 L 838.6 836.0 L 832.8 838.1 L 826.9 840.1 L 821.0 842.1 L 815.2 844.2 L 809.3 846.2 L 803.4 848.2 L 797.6 850.2 L 791.7 852.2 L 791.7 852.2 L 785.8 854.2 L 779.9 856.2 L 774.0 858.2 L 768.2 860.3 L 762.3 862.3 L 756.4 864.4 L 750.6 866.4 L 744.7 868.4 L 738.8 870.5 L 732.9 872.4 L 727.1 874.4 L 721.1 876.3 L 715.2 878.1 L 709.3 879.9 L 703.3 881.6 L 697.4 883.3 L 697.4 883.3 L 691.4 884.9 L 685.4 886.4 L 679.3 887.9 L 673.3 889.3 L 667.3 890.7 L 661.2 892.0 L 655.1 893.3 L 649.0 894.6 L 642.9 895.8 L 636.9 897.0 L 630.8 898.1 L 624.6 899.3 L 618.5 900.4 L 612.4 901.5 L 606.3 902.6 L 600.2 903.7 L 600.2 903.7 L 594.1 904.7 L 588.0 905.7 L 581.8 906.6 L 575.7 907.5 L 569.5 908.4 L 563.4 909.2 L 557.2 910.0 L 551.1 910.8 L 544.9 911.6 L 538.7 912.3 L 532.6 913.1 L 526.4 913.9 L 520.3 914.7 L 514.1 915.5 L 508.0 916.4 L 501.8 917.3 L 501.8 917.3 L 495.7 918.2 L 489.5 919.1 L 483.4 920.0 L 477.3 921.0 L 471.1 921.9 L 465.0 922.8 L 458.9 923.8 L 452.7 924.7 L 446.6 925.7 L 440.5 926.7 L 434.3 927.6 L 428.2 928.6 L 422.1 929.6 L 415.9 930.5 L 409.8 931.5 L 403.7 932.5 L 403.7 932.5 L 397.5 933.4 L 391.4 934.4 L 385.3 935.5 L 379.2 936.5 L 373.0 937.5 L 366.9 938.6 L 360.8 939.6 L 354.7 940.7 L 348.6 941.7 L 342.4 942.7 L 336.3 943.7 L 330.2 944.7 L 324.0 945.6 L 317.9 946.5 L 311.7 947.3 L 305.6 948.2 L 305.6 948.2 L 299.4 948.9 L 293.3 949.6 L 287.1 950.2 L 280.9 950.8 L 274.7 951.3 L 268.5 951.8 L 262.3 952.3 L 256.2 952.8 L 250.0 953.3 L 243.8 953.8 L 237.6 954.3 L 231.4 954.9 L 225.2 955.4 L 219.0 956.0 L 212.9 956.7 L 206.7 957.4 L 206.7 957.4 L 200.6 958.2 L 194.4 959.0 L 188.2 959.7 L 182.1 960.5 L 175.9 961.3 L 169.7 962.1 L 163.6 963.0 L 157.4 963.8 L 151.3 964.8 L 145.2 965.7 L 139.0 966.7 L 132.9 967.8 L 126.8 968.9 L 120.8 970.1 L 114.7 971.4 L 108.6 972.7 L 108.6 972.7 L 102.6 974.1 L 96.6 975.6 L 90.6 977.1 L 84.6 978.7 L 78.6 980.4 L 72.6 982.1 L 66.7 983.8 L 60.7 985.6 L 54.8 987.5 L 48.9 989.4 L 43.0 991.3 L 37.1 993.3 L 31.2 995.3 L 25.3 997.3 L 19.5 999.4 L 17.8 1000.0" fill="none" stroke="#a05bff" stroke-width="6.0" stroke-opacity="0.9"/><path d="M 1480.3 981.5 L 1480.3 980.3 L 1480.3 978.9 L 1480.3 977.3 L 1480.3 975.5 L 1480.3 973.6 L 1480.3 971.5 L 1480.3 969.2 L 1480.2 966.9 L 1480.2 964.6 L 1480.2 962.2 L 1480.2 959.7 L 1480.1 957.3 L 1480.1 954.9 L 1480.1 952.6 L 1480.0 950.3 L 1480.0 948.2 L 1480.0 948.2 L 1479.9 946.1 L 1479.8 944.0 L 1479.8 942.0 L 1479.7 939.9 L 1479.7 937.8 L 1479.6 935.7 L 1479.5 933.6 L 1479.4 931.6 L 1479.3 929.5 L 1479.2 927.4 L 1479.1 925.3 L 1479.0 923.2 L 1478.9 921.2 L 1478.8 919.1 L 1478.6 917.0 L 1478.5 914.9 L 1478.5 914.9 L 1478.3 912.8 L 1478.1 910.5 L 1477.9 908.2 L 1477.7 905.9 L 1477.5 903.4 L 1477.2 901.0 L 1477.0 898.6 L 1476.7 896.3 L 1476.5 894.0 L 1476.2 891.8 L 1476.0 889.7 L 1475.8 887.7 L 1475.6 886.0 L 1475.4 884.3 L 1475.2 883.0 L 1475.1 881.8" fill="none" stroke="#a05bff" stroke-width="6.0" stroke-opacity="0.9"/></g><g id="clips"><circle cx="1685.3" cy="1000.0" r="2" fill="none" stroke="#0b5" stroke-width="0.6"/><circle cx="558.9" cy="266.2" r="2" fill="none" stroke="#0b5" stroke-width="0.6"/><circle cx="556.1" cy="202.4" r="2" fill="none" stroke="#0b5" stroke-width="0.6"/><circle cx="17.8" cy="1000.0" r="2" fill="none" stroke="#0b5" stroke-width="0.6"/><circle cx="1480.3" cy="981.5" r="2" fill="none" stroke="#0b5" stroke-width="0.6"/><circle cx="1475.1" cy="881.8" r="2" fill="none" stroke="#0b5" stroke-width="0.6"/></g><g id="power"><circle cx="1685.3" cy="1000.0" r="5" fill="none" stroke="#e33" stroke-width="1"/><circle cx="18.0" cy="1000.0" r="5" fill="none" stroke="#e33" stroke-width="1"/></g></svg>