<svg xmlns="http://www.w3.org/2000/svg" width="2000mm" height="1000mm" viewBox="0 0 2000 1000"><g id="outline"><rect x="0" y="0" width="2000" height="1000" fill="none" stroke="#000" stroke-width="1"/></g><g id="channels"><path d="M 0.0 434.8 L 0.3 434.6 L 5.6 431.1 L 10.8 427.5 L 16.1 423.9 L 21.3 420.2 L 26.5 416.5 L 31.6 412.7 L 36.8 409.0 L 42.0 405.3 L 47.2 401.6 L 52.4 397.9 L 57.6 394.3 L 62.9 390.7 L 62.9 390.7 L 68.1 387.1 L 73.4 383.5 L 78.6 379.9 L 83.8 376.2 L 89.0 372.5 L 94.2 368.8 L 99.4 365.2 L 104.6 361.5 L 109.9 357.9 L 115.1 354.3 L 120.4 350.8 L 125.7 347.3 L 131.1 343.8 L 136.4 340.5 L 141.9 337.2 L 147.4 334.0 L 147.4 334.0 L 152.9 330.9 L 158.4 327.9 L 164.0 324.8 L 169.6 321.8 L 175.3 318.9 L 180.9 316.0 L 186.6 313.1 L 192.4 310.3 L 198.1 307.6 L 203.9 305.0 L 209.7 302.4 L 215.5 299.9 L 221.4 297.4 L 227.3 295.1 L 233.2 292.8 L 239.1 290.6 L 239.1 290.6 L 245.1 288.5 L 251.1 286.6 L 257.2 284.8 L 263.3 283.1 L 269.4 281.5 L 275.6 279.9 L 281.8 278.5 L 288.0 277.1 L 294.2 275.7 L 300.5 274.3 L 306.7 272.9 L 312.9 271.5 L 319.1 270.1 L 325.3 268.6 L 331.5 267.1 L 337.7 265.5 L 337.7 265.5 L 343.8 263.8 L 349.9 262.1 L 356.1 260.5 L 362.2 258.8 L 368.3 257.1 L 374.5 255.5 L 380.6 253.8 L 386.7 252.0 L 392.8 250.3 L 398.9 248.6 L 405.0 246.8 L 411.1 245.0 L 417.2 243.2 L 423.3 241.3 L 429.3 239.4 L 435.4 237.5 L 435.4 237.5 L 441.5 235.3 L 447.8 232.9 L 454.2 230.3 L 460.6 227.5 L 467.1 224.5 L 473.6 221.6 L 480.1 218.6 L 486.5 215.7 L 492.8 213.0 L 498.9 210.4 L 504.9 208.2 L 510.7 206.2 L 516.2 204.7 L 521.5 203.6 L 526.4 203.0 L 531.0 203.0 L 531.0 203.0 L 535.4 203.6 L 539.9 204.6 L 544.3 206.1 L 548.7 208.0 L 552.9 210.3 L 557.0 212.9 L 560.8 215.8 L 564.4 218.9 L 567.6 222.2 L 570.4 225.6 L 572.7 229.2 L 574.6 232.8 L 575.9 236.5 L 576.6 240.1 L 576.7 243.7 L 576.0 247.2 L 576.0 247.2 L 574.5 250.7 L 572.2 254.3 L 569.0 258.1 L 565.2 262.0 L 560.8 266.0 L 555.9 270.1 L 550.5 274.2 L 544.8 278.5 L 538.9 282.7 L 532.8 287.0 L 526.7 291.3 L 520.6 295.5 L 514.5 299.8 L 508.7 304.0 L 503.2 308.1 L 498.1 312.2 L 498.1 312.2 L 493.2 316.2 L 488.3 320.2 L 483.3 324.3 L 478.4 328.3 L 473.5 332.3 L 468.5 336.3 L 463.6 340.3 L 458.6 344.3 L 453.7 348.3 L 448.7 352.2 L 443.8 356.2 L 438.8 360.2 L 433.8 364.2 L 428.8 368.1 L 423.9 372.1 L 418.9 376.0 L 418.9 376.0 L 413.9 380.0 L 409.0 384.0 L 404.1 388.1 L 399.2 392.2 L 394.3 396.2 L 389.4 400.3 L 384.5 404.4 L 379.6 408.5 L 374.6 412.5 L 369.6 416.4 L 364.6 420.3 L 359.5 424.2 L 354.4 427.9 L 349.2 431.5 L 344.0 435.0 L 338.7 438.4 L 338.7 438.4 L 333.3 441.7 L 327.8 444.9 L 322.2 447.9 L 316.6 450.9 L 311.0 453.8 L 305.3 456.6 L 299.5 459.3 L 293.8 462.0 L 288.0 464.6 L 282.1 467.2 L 276.3 469.8 L 270.5 472.4 L 264.6 474.9 L 258.8 477.5 L 253.0 480.0 L 247.2 482.6 L 247.2 482.6 L 241.4 485.2 L 235.5 487.8 L 229.7 490.3 L 223.9 492.8 L 218.0 495.2 L 212.1 497.7 L 206.2 500.1 L 200.3 502.5 L 194.4 504.9 L 188.6 507.3 L 182.7 509.7 L 176.8 512.1 L 170.9 514.6 L 165.1 517.1 L 159.2 519.6 L 153.4 522.2 L 153.4 522.2 L 147.6 524.8 L 141.9 527.5 L 136.1 530.3 L 130.4 533.1 L 124.7 536.0 L 119.0 538.9 L 113.3 541.8 L 107.6 544.6 L 101.9 547.5 L 96.2 550.3 L 90.4 553.0 L 84.7 555.7 L 78.9 558.3 L 73.0 560.7 L 67.2 563.1 L 61.2 565.3 L 61.2 565.3 L 55.3 567.4 L 49.3 569.5 L 43.3 571.6 L 37.2 573.6 L 31.1 575.6 L 25.0 577.5 L 18.9 579.4 L 12.8 581.1 L 6.6 582.7 L 0.4 584.2 L 0.0 584.3" fill="none" stroke="#a05bff" stroke-width="6.0" stroke-opacity="0.9"/><path d="M 0.0 661.5 L 5.1 659.9 L 11.1 657.9 L 17.2 656.0 L 23.2 654.0 L 29.3 652.0 L 35.3 650.1 L 41.4 648.1 L 47.4 646.2 L 53.5 644.2 L 59.5 642.3 L 65.6 640.3 L 65.6 640.3 L 71.6 638.4 L 77.7 636.5 L 83.8 634.5 L 89.8 632.6 L 95.9 630.7 L 101.9 628.8 L 108.0 626.9 L 114.1 624.9 L 120.1 623.0 L 126.2 621.1 L 132.3 619.2 L 138.3 617.2 L 144.4 615.3 L 150.4 613.3 L 156.5 611.3 L 162.5 609.4 L 162.5 609.4 L 168.5 607.4 L 174.6 605.4 L 180.6 603.4 L 186.6 601.3 L 192.7 599.3 L 198.7 597.3 L 204.7 595.3 L 210.8 593.2 L 216.8 591.2 L 222.8 589.1 L 228.8 587.1 L 234.8 585.0 L 240.8 582.9 L 246.8 580.8 L 252.8 578.7 L 258.8 576.6 L 258.8 576.6 L 264.8 574.5 L 270.9 572.5 L 276.9 570.4 L 282.9 568.3 L 288.9 566.2 L 294.9 564.1 L 300.9 562.1 L 306.9 559.9 L 312.9 557.8 L 318.9 555.7 L 324.9 553.5 L 330.8 551.2 L 336.8 549.0 L 342.7 546.7 L 348.6 544.3 L 354.5 541.9 L 354.5 541.9 L 360.3 539.4 L 366.2 536.9 L 372.0 534.4 L 377.8 531.8 L 383.6 529.2 L 389.4 526.5 L 395.1 523.8 L 400.9 521.1 L 406.6 518.4 L 412.4 515.6 L 418.1 512.8 L 423.7 509.9 L 429.4 507.0 L 435.0 504.1 L 440.6 501.1 L 446.2 498.1 L 446.2 498.1 L 451.8 495.0 L 457.3 491.9 L 462.8 488.7 L 468.3 485.5 L 473.7 482.2 L 479.1 478.9 L 484.5 475.5 L 489.9 472.1 L 495.3 468.7 L 500.7 465.3 L 506.0 461.9 L 511.4 458.5 L 516.8 455.0 L 522.2 451.6 L 527.5 448.2 L 532.9 444.9 L 532.9 444.9 L 538.4 441.5 L 543.8 438.2 L 549.2 434.8 L 554.6 431.5 L 560.0 428.1 L 565.4 424.8 L 570.8 421.4 L 576.2 418.1 L 581.6 414.7 L 587.0 411.3 L 592.4 408.0 L 597.8 404.6 L 603.1 401.2 L 608.5 397.8 L 613.9 394.4 L 619.3 391.1 L 619.3 391.1 L 624.7 387.7 L 630.1 384.3 L 635.5 381.0 L 640.9 377.6 L 646.4 374.3 L 651.8 371.0 L 657.2 367.6 L 662.6 364.3 L 668.0 360.9 L 673.4 357.5 L 678.8 354.1 L 684.1 350.7 L 689.4 347.2 L 694.7 343.6 L 699.9 340.0 L 705.1 336.3 L 705.1 336.3 L 710.3 332.7 L 715.5 329.0 L 720.8 325.3 L 726.0 321.6 L 731.3 317.9 L 736.5 314.2 L 741.8 310.4 L 746.9 306.6 L 752.0 302.7 L 757.0 298.8 L 761.9 294.7 L 766.7 290.6 L 771.4 286.4 L 775.9 282.0 L 780.3 277.6 L 784.5 273.0 L 784.5 273.0 L 788.6 268.2 L 792.5 263.4 L 796.3 258.4 L 800.0 253.3 L 803.6 248.2 L 807.1 242.9 L 810.5 237.6 L 813.8 232.1 L 816.9 226.6 L 820.0 221.1 L 823.0 215.5 L 825.8 209.8 L 828.6 204.2 L 831.3 198.4 L 833.8 192.7 L 836.3 187.0 L 836.3 187.0 L 838.5 181.0 L 840.3 174.8 L 841.8 168.3 L 843.1 161.6 L 844.1 154.8 L 845.0 147.9 L 845.9 141.0 L 846.7 134.1 L 847.7 127.4 L 848.8 120.9 L 850.1 114.6 L 851.7 108.6 L 853.6 103.0 L 856.0 97.9 L 858.8 93.2 L 862.2 89.1 L 862.2 89.1 L 866.3 85.6 L 871.1 82.5 L 876.6 79.8 L 882.7 77.5 L 889.1 75.6 L 895.8 73.9 L 902.8 72.6 L 909.7 71.4 L 916.7 70.4 L 923.4 69.6 L 929.9 68.9 L 936.0 68.3 L 941.6 67.7 L 946.5 67.2 L 950.7 66.6 L 954.1 65.9" fill="none" stroke="#a05bff" stroke-width="6.0" stroke-opacity="0.9"/><path d="M 1028.3 99.1 L 1032.0 98.2 L 1036.5 97.2 L 1041.8 96.1 L 1047.7 95.0 L 1054.2 93.8 L 1061.1 92.5 L 1068.3 91.1 L 1075.8 89.5 L 1083.4 87.7 L 1091.0 85.8 L 1098.5 83.6 L 1105.8 81.2 L 1112.8 78.5 L 1119.4 75.6 L 1125.4 72.3 L 1130.9 68.8 L 1130.9 68.8 L 1136.0 64.9 L 1141.1 60.6 L 1146.1 55.9 L 1151.0 51.0 L 1155.8 45.8 L 1160.5 40.3 L 1165.0 34.7 L 1169.2 28.8 L 1173.3 22.8 L 1177.0 16.8 L 1180.4 10.6 L 1183.4 4.4 L 1185.3 0.0" fill="none" stroke="#a05bff" stroke-width="6.0" stroke-opacity="0.9"/></g><g id="clips"><circle cx="0.0" cy="434.8" r="2" fill="none" stroke="#0b5" stroke-width="0.6"/><circle cx="0.0" cy="584.3" r="2" fill="none" stroke="#0b5" stroke-width="0.6"/><circle cx="0.0" cy="661.5" r="2" fill="none" stroke="#0b5" stroke-width="0.6"/><circle cx="954.1" cy="65.9" r="2" fill="none" stroke="#0b5" stroke-width="0.6"/><circle cx="1028.3" cy="99.1" r="2" fill="none" stroke="#0b5" stroke-width="0.6"/><circle cx="1185.3" cy="0.0" r="2" fill="none" stroke="#0b5" stroke-width="0.6"/></g><g id="power"><circle cx="0.0" cy="661.5" r="5" fill="none" stroke="#e33" stroke-width="1"/><circle cx="0.0" cy="584.3" r="5" fill="none" stroke="#e33" stroke-width="1"/><circle cx="0.0" cy="434.8" r="5" fill="none" stroke="#e33" stroke-width="1"/><circle cx="1185.3" cy="0.0" r="5" fill="none" stroke="#e33" stroke-width="1"/></g><g id="bridges"></g></svg>