<svg xmlns="http://www.w3.org/2000/svg" width="1000mm" height="1000mm" viewBox="0 0 1000 1000"><g id="outline"><rect x="0" y="0" width="1000" height="1000" fill="none" stroke="#000" stroke-width="1"/></g><g id="channels"><path d="M 1000.0 118.2 L 997.3 116.6 L 992.4 113.5 L 987.8 110.6 L 983.7 108.1 L 980.1 105.9 L 977.2 104.1" fill="none" stroke="#ff7a1a" stroke-width="6.0" stroke-opacity="0.9"/><path d="M 874.7 52.9 L 870.7 52.4 L 865.9 52.0 L 860.3 51.6 L 854.1 51.1 L 847.3 50.6 L 840.0 50.1 L 832.3 49.5 L 824.4 48.8 L 816.3 48.0 L 808.0 47.1 L 799.8 46.1 L 791.6 44.8 L 783.7 43.4 L 775.9 41.8 L 768.6 40.0 L 761.7 38.0 L 761.7 38.0 L 755.1 35.7 L 748.6 33.3 L 742.0 30.7 L 735.5 27.9 L 729.0 24.9 L 722.6 21.8 L 716.3 18.6 L 710.0 15.2 L 703.8 11.6 L 697.7 8.0 L 691.6 4.2 L 685.7 0.2 L 685.4 0.0" fill="none" stroke="#ff7a1a" stroke-width="6.0" stroke-opacity="0.9"/><path d="M 850.1 78.6 L 848.3 78.4 L 846.1 78.3 L 843.6 78.1 L 840.8 77.9 L 837.8 77.7 L 834.6 77.5 L 831.1 77.2 L 827.6 77.0 L 823.9 76.7 L 820.2 76.3 L 816.5 76.0 L 812.8 75.6 L 809.1 75.2 L 805.5 74.8 L 802.1 74.3 L 798.8 73.8 L 798.8 73.8 L 795.7 73.3 L 792.5 72.8 L 789.4 72.2 L 786.2 71.6 L 783.0 71.0 L 779.9 70.3 L 776.7 69.7 L 773.6 68.9 L 770.4 68.2 L 767.3 67.5 L 764.2 66.7 L 761.1 65.8 L 758.0 65.0 L 754.9 64.1 L 751.8 63.2 L 748.8 62.2 L 748.8 62.2 L 745.6 61.2 L 742.4 60.0 L 739.0 58.7 L 735.6 57.4 L 732.1 56.0 L 728.7 54.6 L 725.3 53.1 L 721.9 51.7 L 718.6 50.3 L 715.5 48.9 L 712.5 47.6 L 709.7 46.3 L 707.2 45.2 L 704.9 44.2 L 702.9 43.3 L 701.3 42.6" fill="none" stroke="#ff7a1a" stroke-width="6.0" stroke-opacity="0.9"/></g><g id="clips"><circle cx="1000.0" cy="118.2" r="2" fill="none" stroke="#0b5" stroke-width="0.6"/><circle cx="874.7" cy="52.9" r="2" fill="none" stroke="#0b5" stroke-width="0.6"/><circle cx="685.4" cy="0.0" r="2" fill="none" stroke="#0b5" stroke-width="0.6"/><circle cx="850.1" cy="78.6" r="2" fill="none" stroke="#0b5" stroke-width="0.6"/><circle cx="701.3" cy="42.6" r="2" fill="none" stroke="#0b5" stroke-width="0.6"/></g><g id="power"><circle cx="1000.0" cy="118.2" r="5" fill="none" stroke="#e33" stroke-width="1"/><circle cx="685.3" cy="0.0" r="5" fill="none" stroke="#e33" stroke-width="1"/></g></svg>