<svg xmlns="http://www.w3.org/2000/svg" width="2000mm" height="1000mm" viewBox="0 0 2000 1000"><g id="outline"><rect x="0" y="0" width="2000" height="1000" fill="none" stroke="#000" stroke-width="1"/></g><g id="channels"><path d="M 0.0 835.5 L 4.5 839.3 L 9.9 843.9 L 15.3 848.5 L 20.7 853.2 L 26.0 857.9 L 26.0 857.9 L 31.3 862.7 L 36.6 867.5 L 41.8 872.4 L 46.9 877.3 L 52.0 882.3 L 57.0 887.3 L 62.0 892.4 L 67.0 897.5 L 72.0 902.7 L 76.9 907.8 L 81.9 913.0 L 86.8 918.2 L 91.7 923.3 L 96.7 928.5 L 101.6 933.6 L 106.6 938.7 L 106.6 938.7 L 111.6 943.8 L 116.6 948.9 L 121.6 953.9 L 126.7 959.0 L 131.8 964.0 L 136.9 969.1 L 141.9 974.1 L 146.9 979.2 L 152.0 984.3 L 156.9 989.4 L 161.8 994.6 L 166.7 999.8 L 166.9 1000.0" fill="none" stroke="#ff7a1a" stroke-width="6.0" stroke-opacity="0.9"/></g><g id="clips"><circle cx="0.0" cy="835.5" r="2" fill="none" stroke="#0b5" stroke-width="0.6"/><circle cx="166.9" cy="1000.0" r="2" fill="none" stroke="#0b5" stroke-width="0.6"/></g><g id="power"><circle cx="0.0" cy="835.5" r="5" fill="none" stroke="#e33" stroke-width="1"/><circle cx="166.8" cy="1000.0" r="5" fill="none" stroke="#e33" stroke-width="1"/></g></svg>