<svg xmlns="http://www.w3.org/2000/svg" width="2000mm" height="1000mm" viewBox="0 0 2000 1000"><g id="outline"><rect x="0" y="0" width="2000" height="1000" fill="none" stroke="#000" stroke-width="1"/></g><g id="channels"><path d="M 1653.0 515.7 L 1656.2 517.0 L 1660.1 518.6 L 1664.5 520.5 L 1669.4 522.7 L 1674.8 525.1 L 1680.6 527.6 L 1686.7 530.3 L 1693.0 533.0 L 1699.6 535.7 L 1706.3 538.4 L 1713.0 541.0 L 1719.7 543.4 L 1726.4 545.7 L 1733.0 547.8 L 1739.3 549.5 L 1745.5 551.0 L 1745.5 551.0 L 1751.6 552.1 L 1758.0 553.0 L 1764.6 553.5 L 1771.3 553.9 L 1778.1 554.1 L 1785.0 554.1 L 1791.8 554.1 L 1798.6 554.0 L 1805.3 553.9 L 1811.8 553.9 L 1818.1 553.9 L 1824.1 554.1 L 1829.8 554.5 L 1835.1 555.0 L 1839.9 555.8 L 1844.3 556.9 L 1844.3 556.9 L 1848.4 558.3 L 1852.5 559.9 L 1856.4 561.8 L 1860.2 563.8 L 1863.8 566.0 L 1867.2 568.3 L 1870.3 570.7 L 1873.0 573.1 L 1875.4 575.6 L 1877.3 578.1 L 1878.8 580.5 L 1879.7 582.9 L 1880.1 585.2 L 1879.8 587.4 L 1878.9 589.4 L 1877.3 591.2 L 1877.3 591.2 L 1874.6 592.9 L 1870.5 594.3 L 1865.3 595.7 L 1859.2 596.9 L 1852.3 598.0 L 1844.9 599.1 L 1837.1 600.1 L 1829.0 601.1 L 1821.0 602.2 L 1813.2 603.3 L 1805.7 604.4 L 1798.8 605.7 L 1792.7 607.1 L 1787.5 608.6 L 1783.5 610.3 L 1780.7 612.2 L 1780.7 612.2 L 1779.3 614.3 L 1778.9 616.6 L 1779.4 619.1 L 1780.7 621.6 L 1782.7 624.3 L 1785.2 627.1 L 1788.1 630.0 L 1791.3 632.9 L 1794.7 635.9 L 1798.2 638.9 L 1801.6 641.9 L 1804.8 644.8 L 1807.6 647.7 L 1810.1 650.6 L 1811.9 653.3 L 1813.1 656.0 L 1813.1 656.0 L 1813.9 658.6 L 1814.5 661.3 L 1815.0 664.0 L 1815.4 666.7 L 1815.7 669.4 L 1815.8 672.1 L 1815.8 674.8 L 1815.5 677.4 L 1815.1 680.0 L 1814.5 682.5 L 1813.7 684.9 L 1812.7 687.3 L 1811.5 689.5 L 1810.0 691.6 L 1808.2 693.6 L 1806.2 695.4 L 1806.2 695.4 L 1803.7 696.9 L 1800.4 698.2 L 1796.5 699.1 L 1792.0 699.8 L 1787.2 700.4 L 1782.1 700.8 L 1776.9 701.2 L 1771.7 701.6 L 1766.6 702.0 L 1761.8 702.6 L 1757.3 703.4 L 1753.4 704.3 L 1750.0 705.6 L 1747.5 707.1 L 1745.7 709.1 L 1745.0 711.6 L 1745.0 711.6 L 1745.6 714.6 L 1747.4 718.4 L 1750.4 722.8 L 1754.2 727.6 L 1758.8 732.9 L 1763.8 738.3 L 1769.2 743.9 L 1774.8 749.5 L 1780.3 755.0 L 1785.5 760.3 L 1790.3 765.3 L 1794.5 769.8 L 1797.8 773.8 L 1800.1 777.0 L 1801.2 779.5 L 1800.9 781.1 L 1800.9 781.1 L 1799.2 781.7 L 1796.2 781.4 L 1792.3 780.3 L 1787.4 778.6 L 1781.7 776.4 L 1775.5 773.6 L 1768.7 770.6 L 1761.7 767.3 L 1754.4 763.9 L 1747.1 760.5 L 1739.9 757.2 L 1732.9 754.1 L 1726.3 751.3 L 1720.3 748.9 L 1714.9 747.0 L 1710.4 745.8 L 1710.4 745.8 L 1706.5 745.1 L 1702.9 744.6 L 1699.7 744.3 L 1696.7 744.3 L 1693.9 744.5 L 1691.4 744.8 L 1689.0 745.3 L 1686.8 745.9 L 1684.7 746.6 L 1682.7 747.4 L 1680.7 748.3 L 1678.7 749.3 L 1676.6 750.3 L 1674.5 751.2 L 1672.3 752.2 L 1670.0 753.1 L 1670.0 753.1 L 1667.7 754.3 L 1665.6 755.8 L 1663.5 757.6 L 1661.6 759.6 L 1659.7 761.7 L 1657.9 764.0 L 1656.1 766.2 L 1654.2 768.4 L 1652.2 770.5 L 1650.1 772.3 L 1647.9 773.9 L 1645.5 775.2 L 1642.9 776.0 L 1640.1 776.3 L 1636.9 776.1 L 1633.5 775.2 L 1633.5 775.2 L 1629.8 773.7 L 1625.8 771.5 L 1621.5 768.7 L 1617.1 765.3 L 1612.4 761.6 L 1607.6 757.5 L 1602.7 753.2 L 1597.6 748.6 L 1592.4 744.0 L 1587.1 739.3 L 1581.7 734.7 L 1576.3 730.1 L 1570.9 725.8 L 1565.5 721.8 L 1560.0 718.1 L 1554.7 714.8 L 1554.7 714.8 L 1549.3 711.9 L 1543.8 709.0 L 1538.3 706.3 L 1532.7 703.6 L 1527.1 701.0 L 1521.4 698.6 L 1515.7 696.2 L 1509.9 693.9 L 1504.0 691.7 L 1498.2 689.6 L 1492.3 687.6 L 1486.4 685.7 L 1480.5 683.9 L 1474.5 682.3 L 1468.5 680.7 L 1462.6 679.2 L 1462.6 679.2 L 1456.6 677.8 L 1450.6 676.7 L 1444.5 675.7 L 1438.4 674.8 L 1432.2 674.1 L 1426.0 673.4 L 1419.8 672.9 L 1413.6 672.4 L 1407.4 672.0 L 1401.2 671.6 L 1394.9 671.2 L 1388.7 670.8 L 1382.5 670.4 L 1376.2 669.9 L 1370.0 669.3 L 1363.8 668.7 L 1363.8 668.7 L 1357.7 668.0 L 1351.5 667.4 L 1345.3 666.8 L 1339.1 666.2 L 1333.0 665.5 L 1326.8 664.9 L 1320.6 664.3 L 1314.4 663.7 L 1308.2 663.0 L 1302.1 662.3 L 1295.9 661.6 L 1289.7 660.9 L 1283.6 660.1 L 1277.4 659.3 L 1271.3 658.4 L 1265.2 657.5 L 1265.2 657.5 L 1259.0 656.5 L 1252.9 655.5 L 1246.8 654.4 L 1240.7 653.2 L 1234.6 652.0 L 1228.5 650.8 L 1222.5 649.5 L 1216.4 648.2 L 1210.3 646.9 L 1204.2 645.6 L 1198.1 644.3 L 1192.1 643.0 L 1186.0 641.8 L 1179.9 640.5 L 1173.8 639.3 L 1167.7 638.1 L 1167.7 638.1 L 1161.6 636.9 L 1155.5 635.7 L 1149.4 634.5 L 1143.3 633.3 L 1137.3 632.0 L 1131.2 630.8 L 1125.1 629.6 L 1119.0 628.4 L 1112.9 627.3 L 1106.8 626.1 L 1100.7 625.0 L 1094.6 623.9 L 1088.4 622.8 L 1082.3 621.8 L 1076.2 620.8 L 1070.1 619.9 L 1070.1 619.9 L 1063.9 619.0 L 1057.8 618.1 L 1051.6 617.3 L 1045.5 616.5 L 1039.3 615.7 L 1033.1 614.9 L 1027.0 614.2 L 1020.8 613.5 L 1014.6 612.9 L 1008.4 612.2 L 1002.2 611.6 L 996.1 611.0 L 989.9 610.5 L 983.7 610.0 L 977.5 609.5 L 971.3 609.0 L 971.3 609.0 L 965.1 608.5 L 958.9 608.1 L 952.7 607.7 L 946.5 607.4 L 940.3 607.0 L 934.1 606.7 L 927.9 606.4 L 921.7 606.2 L 915.5 605.9 L 909.3 605.7 L 903.1 605.6 L 896.9 605.4 L 890.7 605.3 L 884.5 605.2 L 878.3 605.1 L 872.0 605.0 L 872.0 605.0 L 865.8 605.0 L 859.6 605.1 L 853.4 605.2 L 847.2 605.3 L 841.0 605.5 L 834.8 605.8 L 828.6 606.0 L 822.4 606.3 L 816.2 606.5 L 810.0 606.8 L 803.8 607.0 L 797.5 607.2 L 791.3 607.4 L 785.1 607.5 L 778.9 607.6 L 772.7 607.6 L 772.7 607.6 L 766.5 607.6 L 760.3 607.6 L 754.1 607.6 L 747.9 607.6 L 741.7 607.6 L 735.4 607.6 L 729.2 607.5 L 723.0 607.4 L 716.8 607.3 L 710.6 607.1 L 704.4 606.9 L 698.2 606.7 L 692.0 606.4 L 685.8 606.0 L 679.6 605.6 L 673.4 605.1 L 673.4 605.1 L 667.3 604.6 L 661.1 604.0 L 654.9 603.4 L 648.7 602.7 L 642.6 602.0 L 636.4 601.3 L 630.2 600.5 L 624.1 599.6 L 617.9 598.8 L 611.8 597.8 L 605.6 596.9 L 599.5 595.9 L 593.4 594.8 L 587.3 593.7 L 581.2 592.6 L 575.1 591.4 L 575.1 591.4 L 569.0 590.2 L 562.9 589.0 L 556.7 587.8 L 550.6 586.6 L 544.5 585.4 L 538.3 584.1 L 532.2 582.8 L 526.1 581.4 L 520.1 579.9 L 514.0 578.4 L 508.0 576.7 L 502.1 575.0 L 496.2 573.1 L 490.4 571.1 L 484.6 568.9 L 479.0 566.6 L 479.0 566.6 L 473.3 564.2 L 467.7 561.7 L 462.1 559.0 L 456.6 556.3 L 451.0 553.4 L 445.5 550.5 L 440.1 547.4 L 434.7 544.2 L 429.4 541.0 L 424.2 537.6 L 419.0 534.1 L 414.0 530.5 L 409.0 526.8 L 404.2 523.1 L 399.5 519.2 L 394.9 515.2 L 394.9 515.2 L 390.4 511.0 L 386.0 506.7 L 381.8 502.3 L 377.7 497.7 L 373.7 493.0 L 369.8 488.2 L 366.0 483.3 L 362.3 478.3 L 358.6 473.2 L 354.9 468.1 L 351.4 463.0 L 347.8 457.8 L 344.3 452.6 L 340.8 447.4 L 337.3 442.3 L 333.7 437.2 L 333.7 437.2 L 330.3 432.0 L 326.9 426.8 L 323.6 421.6 L 320.4 416.3 L 317.3 410.9 L 314.1 405.5 L 311.1 400.1 L 308.0 394.7 L 304.9 389.3 L 301.8 383.9 L 298.7 378.5 L 295.6 373.1 L 292.3 367.8 L 289.1 362.5 L 285.7 357.3 L 282.2 352.2 L 282.2 352.2 L 278.7 347.1 L 275.2 342.0 L 271.6 336.9 L 268.0 331.8 L 264.4 326.7 L 260.8 321.7 L 257.1 316.7 L 253.3 311.7 L 249.5 306.8 L 245.7 301.9 L 241.8 297.1 L 237.8 292.3 L 233.8 287.6 L 229.7 283.0 L 225.5 278.4 L 221.3 274.0 L 221.3 274.0 L 216.9 269.6 L 212.5 265.3 L 208.0 261.0 L 203.4 256.9 L 198.8 252.8 L 194.1 248.7 L 189.3 244.8 L 184.5 240.8 L 179.6 236.9 L 174.7 233.1 L 169.8 229.3 L 164.8 225.5 L 159.8 221.8 L 154.9 218.1 L 149.9 214.4 L 144.9 210.7 L 144.9 210.7 L 139.9 207.1 L 134.8 203.5 L 129.7 200.0 L 124.5 196.5 L 119.4 193.1 L 114.2 189.7 L 108.9 186.3 L 103.7 183.0 L 98.4 179.7 L 93.1 176.4 L 87.9 173.1 L 82.6 169.8 L 77.3 166.5 L 72.0 163.3 L 66.8 160.0 L 61.5 156.6 L 61.5 156.6 L 56.1 153.2 L 50.4 149.6 L 44.6 145.9 L 38.5 142.2 L 32.4 138.3 L 26.3 134.5 L 20.1 130.7 L 14.1 127.0 L 8.3 123.3 L 2.7 119.9 L 0.0 118.2" fill="none" stroke="#ff7a1a" stroke-width="6.0" stroke-opacity="0.9"/><path d="M 469.4 0.0 L 472.0 2.7 L 476.9 7.8 L 481.9 13.0 L 486.8 18.2 L 491.7 23.3 L 496.7 28.5 L 501.6 33.6 L 506.6 38.7 L 506.6 38.7 L 511.6 43.8 L 516.6 48.9 L 521.6 53.9 L 526.7 59.0 L 531.8 64.0 L 536.9 69.1 L 541.9 74.1 L 546.9 79.2 L 552.0 84.3 L 556.9 89.4 L 561.8 94.6 L 566.7 99.8 L 571.4 105.1 L 576.1 110.4 L 580.7 115.8 L 585.2 121.3 L 585.2 121.3 L 589.6 126.9 L 593.9 132.5 L 598.2 138.2 L 602.3 144.0 L 606.4 149.8 L 610.4 155.7 L 614.4 161.6 L 618.3 167.6 L 622.2 173.6 L 626.0 179.6 L 629.9 185.6 L 633.7 191.6 L 637.5 197.7 L 641.3 203.7 L 645.1 209.7 L 648.9 215.7 L 648.9 215.7 L 652.7 221.8 L 656.4 227.9 L 660.0 234.0 L 663.6 240.2 L 667.1 246.4 L 670.7 252.7 L 674.2 258.9 L 677.7 265.2 L 681.2 271.4 L 684.8 277.6 L 688.4 283.7 L 692.1 289.8 L 695.9 295.8 L 699.8 301.7 L 703.8 307.6 L 707.9 313.4 L 707.9 313.4 L 712.1 319.1 L 716.4 324.8 L 720.7 330.5 L 725.1 336.2 L 729.5 341.9 L 734.0 347.5 L 738.6 353.0 L 743.2 358.5 L 748.0 363.9 L 752.8 369.2 L 757.7 374.4 L 762.7 379.5 L 767.8 384.4 L 773.0 389.1 L 778.3 393.7 L 783.7 398.1 L 783.7 398.1 L 789.3 402.4 L 795.0 406.5 L 800.8 410.5 L 806.8 414.4 L 812.9 418.2 L 819.0 421.8 L 825.3 425.3 L 831.6 428.7 L 838.0 432.0 L 844.4 435.1 L 851.0 438.1 L 857.5 441.0 L 864.1 443.7 L 870.7 446.3 L 877.4 448.7 L 884.0 451.0 L 884.0 451.0 L 890.7 453.1 L 897.5 455.0 L 904.3 456.7 L 911.2 458.2 L 918.2 459.5 L 925.2 460.8 L 932.3 461.9 L 939.4 462.8 L 946.5 463.7 L 953.6 464.6 L 960.8 465.3 L 967.9 466.1 L 975.1 466.8 L 982.2 467.5 L 989.3 468.3 L 996.4 469.1 L 996.4 469.1 L 1003.5 469.8 L 1010.6 470.5 L 1017.7 471.1 L 1024.8 471.6 L 1031.9 472.1 L 1039.0 472.5 L 1046.1 472.9 L 1053.3 473.2 L 1060.4 473.6 L 1067.5 474.0 L 1074.6 474.3 L 1081.8 474.7 L 1088.9 475.2 L 1096.0 475.7 L 1103.1 476.2 L 1110.2 476.8 L 1110.2 476.8 L 1117.3 477.5 L 1124.4 478.2 L 1131.5 478.9 L 1138.6 479.6 L 1145.7 480.3 L 1152.8 481.0 L 1159.9 481.8 L 1167.0 482.6 L 1174.1 483.4 L 1181.1 484.3 L 1188.2 485.2 L 1195.3 486.1 L 1202.4 487.0 L 1209.4 488.0 L 1216.5 489.0 L 1223.5 490.0 L 1223.5 490.0 L 1230.6 491.1 L 1237.6 492.3 L 1244.6 493.5 L 1251.6 494.9 L 1258.6 496.2 L 1265.6 497.6 L 1272.6 499.0 L 1279.6 500.4 L 1286.6 501.9 L 1293.6 503.3 L 1300.6 504.6 L 1307.6 506.0 L 1314.7 507.2 L 1321.7 508.5 L 1328.7 509.6 L 1335.7 510.7 L 1335.7 510.7 L 1342.8 511.7 L 1349.9 513.0 L 1357.1 514.3 L 1364.3 515.6 L 1371.5 517.0 L 1378.7 518.4 L 1385.9 519.7 L 1393.1 520.9 L 1400.3 521.9 L 1407.4 522.8 L 1414.5 523.5 L 1421.5 523.9 L 1428.5 524.0 L 1435.3 523.7 L 1442.1 523.1 L 1448.8 522.1 L 1448.8 522.1 L 1455.4 520.7 L 1462.1 519.0 L 1468.7 517.0 L 1475.2 514.7 L 1481.8 512.1 L 1488.2 509.3 L 1494.6 506.2 L 1501.0 502.9 L 1507.3 499.5 L 1513.4 495.8 L 1519.5 492.0 L 1525.5 488.1 L 1531.3 484.0 L 1537.0 479.9 L 1542.6 475.6 L 1548.1 471.3 L 1548.1 471.3 L 1553.4 466.5 L 1558.7 461.1 L 1563.9 455.0 L 1569.1 448.6 L 1574.2 441.7 L 1579.2 434.7 L 1584.0 427.7 L 1588.8 420.7 L 1593.4 413.9 L 1597.8 407.5 L 1602.1 401.5 L 1606.2 396.1 L 1610.0 391.4 L 1613.7 387.6 L 1617.1 384.8 L 1620.3 383.1 L 1620.3 383.1 L 1623.3 382.5 L 1626.2 382.6 L 1628.9 383.6 L 1631.5 385.2 L 1633.9 387.4 L 1636.2 390.3 L 1638.2 393.6 L 1640.0 397.4 L 1641.7 401.6 L 1643.1 406.1 L 1644.2 410.9 L 1645.2 415.8 L 1645.8 420.9 L 1646.2 426.0 L 1646.3 431.2 L 1646.1 436.3 L 1646.1 436.3 L 1645.5 441.7 L 1644.3 447.9 L 1642.6 454.7 L 1640.4 461.9 L 1638.0 469.6 L 1635.3 477.5 L 1632.4 485.5 L 1629.3 493.6 L 1626.2 501.5 L 1623.1 509.3 L 1620.2 516.6 L 1617.4 523.6 L 1614.8 529.9 L 1612.5 535.5 L 1610.7 540.4 L 1609.3 544.2" fill="none" stroke="#ff7a1a" stroke-width="6.0" stroke-opacity="0.9"/><path d="M 504.5 601.3 L 504.0 605.1 L 503.2 609.7 L 502.2 615.0 L 501.2 621.0 L 500.0 627.5 L 498.7 634.4 L 497.4 641.7 L 496.2 649.3 L 494.9 657.1 L 493.7 665.1 L 492.6 673.0 L 491.7 681.0 L 490.9 688.8 L 490.3 696.4 L 489.9 703.8 L 489.9 710.8 L 489.9 710.8 L 489.9 717.6 L 490.0 724.5 L 490.1 731.4 L 490.3 738.4 L 490.6 745.5 L 491.0 752.5 L 491.6 759.5 L 492.3 766.4 L 493.2 773.3 L 494.3 780.1 L 495.6 786.8 L 497.1 793.4 L 499.0 799.8 L 501.1 806.0 L 503.6 812.1 L 506.3 817.9 L 506.3 817.9 L 509.5 823.7 L 513.0 829.4 L 516.8 835.0 L 520.9 840.6 L 525.3 846.1 L 529.9 851.5 L 534.7 856.8 L 539.8 861.9 L 545.0 866.8 L 550.4 871.5 L 555.9 876.0 L 561.6 880.2 L 567.3 884.2 L 573.0 887.9 L 578.8 891.2 L 584.6 894.3 L 584.6 894.3 L 590.6 897.0 L 596.7 899.6 L 603.2 901.9 L 609.8 904.1 L 616.5 906.0 L 623.4 907.6 L 630.4 909.0 L 637.4 910.2 L 644.5 911.1 L 651.5 911.7 L 658.5 912.1 L 665.5 912.1 L 672.3 911.9 L 679.0 911.3 L 685.5 910.5 L 691.9 909.3 L 691.9 909.3 L 698.1 907.7 L 704.4 905.7 L 710.6 903.4 L 716.9 900.8 L 723.1 897.8 L 729.3 894.5 L 735.4 891.0 L 741.4 887.2 L 747.2 883.1 L 753.0 878.9 L 758.6 874.5 L 764.0 870.0 L 769.2 865.3 L 774.1 860.5 L 778.9 855.7 L 783.3 850.7 L 783.3 850.7 L 787.5 845.7 L 791.5 840.3 L 795.3 834.7 L 798.9 828.9 L 802.3 822.9 L 805.5 816.8 L 808.5 810.5 L 811.4 804.1 L 814.1 797.5 L 816.8 790.9 L 819.3 784.3 L 821.7 777.6 L 824.0 770.9 L 826.2 764.3 L 828.4 757.7 L 830.5 751.1 L 830.5 751.1 L 832.5 744.4 L 834.4 737.2 L 836.2 729.8 L 837.9 722.1 L 839.4 714.2 L 840.9 706.3 L 842.2 698.4 L 843.4 690.6 L 844.6 683.0 L 845.6 675.7 L 846.6 668.8 L 847.5 662.3 L 848.3 656.3 L 849.1 651.0 L 849.8 646.4 L 850.4 642.6" fill="none" stroke="#ff7a1a" stroke-width="6.0" stroke-opacity="0.9"/><path d="M 601.6 706.3 L 600.9 705.6 L 600.0 704.8 L 598.9 703.9 L 597.7 703.0 L 596.3 701.9 L 594.9 700.8 L 593.4 699.6 L 591.8 698.3 L 590.3 697.0 L 588.8 695.6 L 587.4 694.2 L 586.1 692.8 L 584.9 691.3 L 583.8 689.8 L 583.0 688.4 L 582.3 686.9 L 582.3 686.9 L 581.8 685.3 L 581.4 683.7 L 581.2 682.0 L 581.0 680.3 L 580.9 678.5 L 580.9 676.7 L 581.0 674.9 L 581.2 673.0 L 581.4 671.1 L 581.7 669.2 L 582.0 667.3 L 582.4 665.5 L 582.8 663.6 L 583.2 661.8 L 583.7 660.1 L 584.1 658.4 L 584.1 658.4 L 584.7 656.7 L 585.4 654.9 L 586.2 653.1 L 587.0 651.2 L 588.0 649.4 L 589.0 647.5 L 590.0 645.7 L 591.1 643.9 L 592.1 642.2 L 593.1 640.6 L 594.1 639.0 L 595.0 637.5 L 595.9 636.2 L 596.6 635.0 L 597.2 633.9 L 597.7 633.1" fill="none" stroke="#ff7a1a" stroke-width="6.0" stroke-opacity="0.9"/><path d="M 1490.5 491.1 L 1489.6 489.2 L 1488.8 486.7 L 1488.0 483.6 L 1487.2 480.2 L 1486.3 476.4 L 1485.3 472.4 L 1484.2 468.3 L 1482.9 464.2 L 1481.4 460.1 L 1479.7 456.1 L 1477.7 452.4 L 1475.3 449.1 L 1472.6 446.2 L 1469.5 443.8 L 1466.0 442.0 L 1462.0 441.0 L 1462.0 441.0 L 1457.5 440.8 L 1452.4 441.2 L 1446.9 442.3 L 1440.9 443.8 L 1434.5 445.8 L 1427.8 448.2 L 1420.9 450.8 L 1413.7 453.5 L 1406.3 456.4 L 1398.9 459.2 L 1391.4 461.9 L 1383.9 464.5 L 1376.5 466.8 L 1369.1 468.7 L 1362.0 470.2 L 1355.0 471.1 L 1355.0 471.1 L 1348.2 471.6 L 1341.3 471.9 L 1334.4 472.0 L 1327.5 471.8 L 1320.6 471.4 L 1313.6 470.9 L 1306.6 470.3 L 1299.6 469.5 L 1292.6 468.6 L 1285.6 467.7 L 1278.7 466.7 L 1271.7 465.7 L 1264.7 464.6 L 1257.7 463.6 L 1250.8 462.7 L 1243.8 461.7 L 1243.8 461.7 L 1236.9 460.8 L 1230.0 459.9 L 1223.1 458.8 L 1216.2 457.7 L 1209.3 456.6 L 1202.4 455.4 L 1195.6 454.2 L 1188.7 453.0 L 1181.8 451.7 L 1174.9 450.5 L 1168.0 449.2 L 1161.1 447.9 L 1154.3 446.7 L 1147.4 445.5 L 1140.5 444.3 L 1133.6 443.1 L 1133.6 443.1 L 1126.7 442.0 L 1119.8 440.8 L 1112.9 439.7 L 1106.0 438.5 L 1099.1 437.3 L 1092.3 436.1 L 1085.4 435.0 L 1078.5 433.8 L 1071.6 432.7 L 1064.7 431.6 L 1057.8 430.5 L 1050.9 429.4 L 1044.0 428.3 L 1037.1 427.3 L 1030.1 426.4 L 1023.2 425.4 L 1023.2 425.4 L 1016.3 424.6 L 1009.4 423.8 L 1002.4 423.1 L 995.4 422.4 L 988.5 421.8 L 981.5 421.2 L 974.5 420.6 L 967.6 420.0 L 960.6 419.5 L 953.6 418.9 L 946.7 418.3 L 939.7 417.6 L 932.8 416.9 L 925.8 416.2 L 918.9 415.3 L 912.0 414.4 L 912.0 414.4 L 904.9 413.4 L 897.4 412.3 L 889.7 411.1 L 881.8 409.8 L 873.8 408.4 L 865.8 407.0 L 857.8 405.6 L 850.0 404.2 L 842.4 402.8 L 835.1 401.5 L 828.1 400.2 L 821.6 399.0 L 815.7 397.9 L 810.4 396.9 L 805.7 396.1 L 801.9 395.4" fill="none" stroke="#ff7a1a" stroke-width="6.0" stroke-opacity="0.9"/></g><g id="clips"><circle cx="1653.0" cy="515.7" r="2" fill="none" stroke="#0b5" stroke-width="0.6"/><circle cx="0.0" cy="118.2" r="2" fill="none" stroke="#0b5" stroke-width="0.6"/><circle cx="469.4" cy="0.0" r="2" fill="none" stroke="#0b5" stroke-width="0.6"/><circle cx="1609.3" cy="544.2" r="2" fill="none" stroke="#0b5" stroke-width="0.6"/><circle cx="504.5" cy="601.3" r="2" fill="none" stroke="#0b5" stroke-width="0.6"/><circle cx="850.4" cy="642.6" r="2" fill="none" stroke="#0b5" stroke-width="0.6"/><circle cx="601.6" cy="706.3" r="2" fill="none" stroke="#0b5" stroke-width="0.6"/><circle cx="1490.5" cy="491.1" r="2" fill="none" stroke="#0b5" stroke-width="0.6"/><circle cx="801.9" cy="395.4" r="2" fill="none" stroke="#0b5" stroke-width="0.6"/></g><g id="power"><circle cx="0.0" cy="118.2" r="5" fill="none" stroke="#e33" stroke-width="1"/><circle cx="469.4" cy="0.0" r="5" fill="none" stroke="#e33" stroke-width="1"/></g></svg>