<svg xmlns="http://www.w3.org/2000/svg" width="2000mm" height="1000mm" viewBox="0 0 2000 1000"><g id="outline"><rect x="0" y="0" width="2000" height="1000" fill="none" stroke="#000" stroke-width="1"/></g><g id="channels"><path d="M 1739.2 1000.0 L 1735.2 995.2 L 1730.7 990.4 L 1726.1 985.8 L 1721.3 981.5 L 1716.4 977.4 L 1711.3 973.7 L 1706.0 970.4 L 1706.0 970.4 L 1700.3 967.6 L 1694.1 965.4 L 1687.3 963.6 L 1680.3 962.3 L 1672.9 961.3 L 1665.4 960.6 L 1657.8 960.0 L 1650.2 959.5 L 1642.8 959.1 L 1635.6 958.6 L 1628.7 957.9 L 1622.3 957.1 L 1616.3 955.9 L 1611.0 954.4 L 1606.4 952.4 L 1602.7 949.8 L 1602.7 949.8 L 1599.8 946.8 L 1597.9 943.5 L 1596.8 939.8 L 1596.3 935.8 L 1596.5 931.7 L 1597.0 927.3 L 1597.8 922.7 L 1598.9 918.0 L 1600.0 913.2 L 1601.0 908.4 L 1601.9 903.5 L 1602.5 898.6 L 1602.7 893.8 L 1602.3 889.0 L 1601.2 884.3 L 1599.4 879.8 L 1599.4 879.8 L 1596.7 875.3 L 1593.2 870.6 L 1589.1 865.8 L 1584.4 860.9 L 1579.4 856.0 L 1574.0 851.0 L 1568.4 846.1 L 1562.8 841.2 L 1557.3 836.4 L 1551.9 831.7 L 1546.8 827.1 L 1542.2 822.7 L 1538.1 818.5 L 1534.7 814.6 L 1532.0 810.9 L 1530.3 807.5 L 1530.3 807.5 L 1529.5 804.6 L 1529.7 802.1 L 1530.7 799.9 L 1532.4 798.1 L 1534.7 796.5 L 1537.3 795.1 L 1540.3 793.9 L 1543.4 792.6 L 1546.6 791.4 L 1549.7 790.1 L 1552.6 788.7 L 1555.1 787.1 L 1557.2 785.2 L 1558.7 783.0 L 1559.5 780.4 L 1559.4 777.3 L 1559.4 777.3 L 1558.4 773.7 L 1556.6 769.6 L 1553.9 765.0 L 1550.7 760.0 L 1547.0 754.7 L 1543.0 749.2 L 1538.8 743.6 L 1534.5 738.0 L 1530.2 732.4 L 1526.2 726.9 L 1522.5 721.7 L 1519.2 716.8 L 1516.5 712.2 L 1514.6 708.2 L 1513.4 704.7 L 1513.3 701.8 L 1513.3 701.8 L 1514.2 699.6 L 1515.9 698.1 L 1518.3 697.1 L 1521.4 696.5 L 1525.1 696.4 L 1529.1 696.6 L 1533.6 696.9 L 1538.2 697.5 L 1543.1 698.0 L 1547.9 698.6 L 1552.8 699.0 L 1557.4 699.3 L 1561.9 699.3 L 1565.9 698.9 L 1569.6 698.1 L 1572.7 696.8 L 1572.7 696.8 L 1575.3 695.0 L 1577.7 692.7 L 1579.8 690.0 L 1581.7 687.0 L 1583.5 683.7 L 1585.1 680.2 L 1586.6 676.7 L 1588.1 673.1 L 1589.6 669.5 L 1591.1 666.0 L 1592.6 662.6 L 1594.3 659.5 L 1596.1 656.7 L 1598.0 654.3 L 1600.2 652.3 L 1602.6 650.8 L 1602.6 650.8 L 1605.2 649.8 L 1608.1 649.0 L 1611.0 648.6 L 1614.1 648.4 L 1617.4 648.5 L 1620.7 648.8 L 1624.0 649.3 L 1627.5 649.9 L 1630.9 650.7 L 1634.4 651.6 L 1637.9 652.6 L 1641.3 653.6 L 1644.7 654.7 L 1648.0 655.8 L 1651.2 656.9 L 1654.3 657.9 L 1654.3 657.9 L 1657.3 658.9 L 1660.2 659.8 L 1663.1 660.6 L 1666.0 661.4 L 1668.8 662.2 L 1671.6 663.1 L 1674.4 664.1 L 1677.2 665.2 L 1679.9 666.5 L 1682.7 668.0 L 1685.4 669.7 L 1688.2 671.7 L 1691.0 674.1 L 1693.8 676.8 L 1696.7 679.9 L 1699.6 683.4 L 1699.6 683.4 L 1702.6 687.4 L 1705.5 691.9 L 1708.4 696.9 L 1711.4 702.3 L 1714.4 708.0 L 1717.4 714.0 L 1720.4 720.2 L 1723.4 726.6 L 1726.4 733.1 L 1729.4 739.7 L 1732.5 746.4 L 1735.6 753.0 L 1738.6 759.5 L 1741.8 765.9 L 1744.9 772.2 L 1748.0 778.1 L 1748.0 778.1 L 1751.2 784.0 L 1754.4 789.8 L 1757.7 795.6 L 1760.9 801.4 L 1764.2 807.2 L 1767.5 813.0 L 1770.9 818.7 L 1774.2 824.5 L 1777.5 830.2 L 1780.9 836.0 L 1784.2 841.7 L 1787.6 847.5 L 1790.9 853.2 L 1794.2 859.0 L 1797.5 864.8 L 1800.8 870.6 L 1800.8 870.6 L 1804.1 876.3 L 1807.3 882.2 L 1810.5 888.0 L 1813.7 893.9 L 1816.8 899.7 L 1820.0 905.6 L 1823.1 911.4 L 1826.3 917.3 L 1829.5 923.1 L 1832.7 929.0 L 1836.0 934.8 L 1839.3 940.5 L 1842.6 946.3 L 1846.1 952.0 L 1849.5 957.6 L 1853.1 963.2 L 1853.1 963.2 L 1856.7 968.8 L 1860.4 974.3 L 1864.2 979.8 L 1868.0 985.2 L 1871.8 990.7 L 1875.7 996.1 L 1878.6 1000.0" fill="none" stroke="#ffd23d" stroke-width="6.0" stroke-opacity="0.9"/></g><g id="clips"><circle cx="1739.2" cy="1000.0" r="2" fill="none" stroke="#0b5" stroke-width="0.6"/><circle cx="1878.6" cy="1000.0" r="2" fill="none" stroke="#0b5" stroke-width="0.6"/></g><g id="power"><circle cx="1739.2" cy="1000.0" r="5" fill="none" stroke="#e33" stroke-width="1"/><circle cx="1878.6" cy="1000.0" r="5" fill="none" stroke="#e33" stroke-width="1"/></g><g id="bridges"></g></svg>