<svg xmlns="http://www.w3.org/2000/svg" width="997mm" height="2000mm" viewBox="0 0 997 2000"><g id="outline"><rect x="0" y="0" width="997" height="2000" fill="none" stroke="#000" stroke-width="1"/></g><g id="channels"><path d="M 0.0 684.0 L 3.3 686.8 L 8.2 691.3 L 13.0 695.8 L 17.8 700.3 L 22.4 705.0 L 26.9 709.7 L 31.4 714.5 L 35.6 719.4 L 39.6 724.4 L 43.6 729.6 L 43.6 729.6 L 47.2 734.8 L 50.8 740.2 L 54.1 745.8 L 57.3 751.4 L 60.4 757.2 L 63.2 763.0 L 66.1 768.9 L 68.9 774.9 L 71.5 780.9 L 74.2 787.0 L 76.8 793.0 L 79.4 799.2 L 82.0 805.2 L 84.5 811.3 L 87.1 817.3 L 89.8 823.3 L 89.8 823.3 L 92.4 829.3 L 94.9 835.4 L 97.2 841.6 L 99.5 847.7 L 101.7 854.1 L 103.8 860.3 L 106.1 866.6 L 108.3 872.9 L 110.5 879.0 L 112.8 885.2 L 115.3 891.3 L 117.8 897.3 L 120.5 903.1 L 123.5 908.9 L 126.7 914.5 L 130.1 919.9 L 130.1 919.9 L 133.8 925.1 L 137.8 930.2 L 142.0 935.1 L 146.4 939.9 L 151.0 944.5 L 155.7 949.0 L 160.5 953.5 L 165.4 957.9 L 170.4 962.4 L 175.4 966.7 L 180.4 971.1 L 185.3 975.5 L 190.1 979.9 L 194.9 984.4 L 199.7 989.0 L 204.3 993.8 L 204.3 993.8 L 208.7 998.6 L 213.1 1003.4 L 217.4 1008.2 L 221.8 1013.1 L 226.1 1018.0 L 230.5 1022.9 L 234.7 1027.9 L 239.0 1032.9 L 243.2 1037.9 L 247.5 1042.8 L 251.8 1047.8 L 256.0 1052.8 L 260.2 1057.8 L 264.5 1062.8 L 268.8 1067.8 L 273.1 1072.7 L 273.1 1072.7 L 277.3 1077.8 L 281.5 1082.9 L 285.8 1088.2 L 289.8 1093.6 L 293.9 1099.0 L 298.1 1104.4 L 302.2 1109.9 L 306.3 1115.2 L 310.4 1120.5 L 314.7 1125.7 L 319.0 1130.6 L 323.3 1135.4 L 327.8 1140.0 L 332.3 1144.2 L 337.0 1148.1 L 341.9 1151.8 L 341.9 1151.8 L 347.0 1155.2 L 352.3 1158.7 L 357.9 1162.1 L 363.5 1165.6 L 369.4 1168.9 L 375.3 1172.0 L 381.3 1174.9 L 387.3 1177.5 L 393.3 1179.8 L 399.1 1181.7 L 404.9 1183.2 L 410.6 1184.2 L 415.9 1184.7 L 421.1 1184.5 L 426.1 1183.7 L 430.6 1182.3 L 430.6 1182.3 L 435.0 1179.9 L 439.4 1176.3 L 443.5 1171.8 L 447.6 1166.5 L 451.6 1160.5 L 455.4 1154.0 L 459.0 1147.1 L 462.5 1140.0 L 465.9 1132.8 L 469.0 1125.7 L 471.9 1118.8 L 474.7 1112.4 L 477.2 1106.6 L 479.5 1101.4 L 481.5 1097.0 L 483.2 1093.7 L 491.4 1055.8 L 489.1 1053.3 L 486.2 1050.3 L 482.9 1046.8 L 479.3 1043.0 L 475.4 1038.8 L 471.1 1034.3 L 466.6 1029.6 L 462.0 1024.6 L 457.2 1019.6 L 452.2 1014.4 L 447.3 1009.3 L 442.3 1004.2 L 437.3 999.2 L 432.5 994.4 L 427.7 989.8 L 423.0 985.5 L 423.0 985.5 L 418.4 981.4 L 413.8 977.3 L 409.1 973.4 L 404.3 969.5 L 399.4 965.6 L 394.5 961.8 L 389.6 957.9 L 384.7 954.2 L 379.8 950.4 L 374.9 946.5 L 370.1 942.7 L 365.3 938.7 L 360.5 934.8 L 355.8 930.8 L 351.2 926.6 L 346.7 922.4 L 346.7 922.4 L 342.2 918.1 L 337.9 913.8 L 333.5 909.4 L 329.3 904.9 L 325.0 900.3 L 320.8 895.7 L 316.6 891.1 L 312.5 886.5 L 308.3 881.9 L 304.3 877.2 L 300.2 872.5 L 296.1 867.8 L 292.1 863.1 L 288.1 858.4 L 283.9 853.7 L 279.9 849.1 L 279.9 849.1 L 275.9 844.4 L 271.7 839.7 L 267.6 835.1 L 263.5 830.4 L 259.5 825.8 L 255.3 821.0 L 251.2 816.3 L 247.2 811.6 L 243.1 806.9 L 239.2 802.1 L 235.3 797.3 L 231.4 792.5 L 227.6 787.6 L 223.8 782.7 L 220.2 777.8 L 216.6 772.7 L 216.6 772.7 L 213.2 767.6 L 209.7 762.5 L 206.4 757.3 L 203.1 752.0 L 199.8 746.7 L 196.7 741.4 L 193.5 736.1 L 190.4 730.7 L 187.5 725.2 L 184.4 719.8 L 181.5 714.3 L 178.5 708.8 L 175.7 703.4 L 172.9 697.9 L 170.0 692.3 L 167.2 686.8 L 167.2 686.8 L 164.4 681.3 L 161.7 675.7 L 159.1 670.1 L 156.5 664.5 L 154.0 658.8 L 151.5 653.1 L 149.0 647.5 L 146.5 641.8 L 144.1 636.1 L 141.7 630.4 L 139.3 624.6 L 136.9 618.9 L 134.6 613.1 L 132.2 607.4 L 129.9 601.7 L 127.6 595.9 L 127.6 595.9 L 125.3 590.2 L 122.9 584.4 L 120.8 578.6 L 118.6 572.8 L 116.5 566.9 L 114.5 561.1 L 112.4 555.2 L 110.3 549.4 L 108.3 543.5 L 106.1 537.7 L 103.9 531.9 L 101.7 526.0 L 99.5 520.3 L 97.2 514.5 L 94.8 508.9 L 92.4 503.2 L 92.4 503.2 L 89.8 497.5 L 87.3 491.9 L 84.7 486.2 L 82.1 480.5 L 79.6 474.9 L 77.0 469.2 L 74.3 463.6 L 71.5 458.0 L 68.7 452.5 L 65.8 446.9 L 62.9 441.5 L 59.9 436.1 L 56.8 430.7 L 53.6 425.4 L 50.4 420.2 L 47.0 415.1 L 47.0 415.1 L 43.6 410.0 L 40.0 404.9 L 36.4 399.9 L 32.7 395.0 L 28.9 390.0 L 25.0 385.2 L 21.1 380.4 L 17.2 375.6 L 13.0 370.9 L 8.9 366.3 L 4.8 361.7 L 0.5 357.2 L 0.0 356.7" fill="none" stroke="#00e5ff" stroke-width="6.0" stroke-opacity="0.9"/></g><g id="clips"><circle cx="0.0" cy="684.0" r="2" fill="none" stroke="#0b5" stroke-width="0.6"/><circle cx="101.4" cy="853.2" r="2" fill="none" stroke="#0b5" stroke-width="0.6"/><circle cx="219.2" cy="1010.2" r="2" fill="none" stroke="#0b5" stroke-width="0.6"/><circle cx="352.2" cy="1158.6" r="2" fill="none" stroke="#0b5" stroke-width="0.6"/><circle cx="485.5" cy="1083.2" r="2" fill="none" stroke="#0b5" stroke-width="0.6"/><circle cx="365.6" cy="939.0" r="2" fill="none" stroke="#0b5" stroke-width="0.6"/><circle cx="230.7" cy="791.7" r="2" fill="none" stroke="#0b5" stroke-width="0.6"/><circle cx="135.9" cy="616.3" r="2" fill="none" stroke="#0b5" stroke-width="0.6"/><circle cx="57.8" cy="432.4" r="2" fill="none" stroke="#0b5" stroke-width="0.6"/><circle cx="0.0" cy="356.7" r="2" fill="none" stroke="#0b5" stroke-width="0.6"/></g><g id="power"><circle cx="0.0" cy="684.0" r="5" fill="none" stroke="#e33" stroke-width="1"/><circle cx="0.0" cy="356.7" r="5" fill="none" stroke="#e33" stroke-width="1"/></g><g id="bridges"></g></svg>