<svg xmlns="http://www.w3.org/2000/svg" width="997mm" height="2000mm" viewBox="0 0 997 2000"><g id="outline"><rect x="0" y="0" width="997" height="2000" fill="none" stroke="#000" stroke-width="1"/></g><g id="channels"><path d="M 263.6 1926.0 L 262.7 1922.6 L 261.6 1918.7 L 260.4 1914.2 L 258.9 1909.0 L 257.3 1903.5 L 255.7 1897.6 L 253.9 1891.4 L 252.1 1884.8 L 250.2 1878.1 L 248.4 1871.3 L 246.6 1864.4 L 244.9 1857.5 L 243.3 1850.7 L 241.8 1844.1 L 240.4 1837.6 L 239.2 1831.5 L 239.2 1831.5 L 238.2 1825.5 L 237.3 1819.4 L 236.4 1813.3 L 235.7 1807.4 L 235.0 1801.3 L 234.3 1795.1 L 233.8 1789.1 L 233.2 1783.0 L 232.7 1776.8 L 232.2 1770.8 L 231.7 1764.6 L 231.1 1758.5 L 230.5 1752.4 L 230.0 1746.3 L 229.4 1740.2 L 228.7 1734.1 L 228.7 1734.1 L 228.0 1728.1 L 227.2 1722.0 L 226.5 1715.9 L 225.8 1709.8 L 224.9 1703.8 L 224.2 1697.7 L 223.5 1691.6 L 222.6 1685.6 L 221.9 1679.5 L 221.1 1673.4 L 220.3 1667.3 L 219.5 1661.3 L 218.7 1655.2 L 217.9 1649.1 L 217.1 1643.1 L 216.3 1637.0 L 216.3 1637.0 L 215.5 1631.0 L 214.6 1624.9 L 213.7 1618.9 L 212.9 1612.8 L 212.0 1606.7 L 211.1 1600.6 L 210.2 1594.6 L 209.4 1588.6 L 208.5 1582.5 L 207.5 1576.4 L 206.7 1570.4 L 205.9 1564.3 L 205.1 1558.2 L 204.2 1552.3 L 203.4 1546.2 L 202.7 1540.1 L 202.7 1540.1 L 201.9 1534.0 L 201.3 1527.9 L 200.7 1521.8 L 200.2 1515.7 L 199.7 1509.6 L 199.3 1503.5 L 198.7 1497.3 L 198.3 1491.3 L 197.7 1485.1 L 197.2 1479.0 L 196.6 1472.9 L 195.9 1466.9 L 195.1 1460.8 L 194.3 1454.7 L 193.3 1448.8 L 192.2 1442.8 L 192.2 1442.8 L 191.0 1436.8 L 189.7 1430.8 L 188.3 1424.8 L 186.9 1418.9 L 185.4 1413.1 L 183.8 1407.1 L 182.2 1401.2 L 180.5 1395.3 L 178.8 1389.5 L 177.0 1383.6 L 175.2 1377.7 L 173.3 1371.9 L 171.4 1366.1 L 169.5 1360.3 L 167.5 1354.5 L 165.6 1348.7 L 165.6 1348.7 L 163.6 1343.0 L 161.5 1337.2 L 159.4 1331.5 L 157.2 1325.7 L 155.0 1320.0 L 152.7 1314.4 L 150.4 1308.7 L 148.1 1303.0 L 145.8 1297.4 L 143.4 1291.7 L 141.0 1286.1 L 138.7 1280.4 L 136.3 1274.8 L 134.0 1269.1 L 131.7 1263.5 L 129.4 1257.8 L 129.4 1257.8 L 127.1 1252.1 L 124.8 1246.4 L 122.5 1240.7 L 120.3 1235.0 L 118.0 1229.3 L 115.7 1223.7 L 113.4 1218.0 L 111.1 1212.3 L 108.8 1206.7 L 106.5 1201.0 L 104.3 1195.3 L 102.0 1189.7 L 99.7 1184.0 L 97.4 1178.3 L 95.2 1172.6 L 92.9 1166.9 L 92.9 1166.9 L 90.7 1161.3 L 88.3 1155.5 L 86.0 1149.9 L 83.6 1144.2 L 81.2 1138.6 L 78.8 1132.9 L 76.5 1127.3 L 74.1 1121.6 L 71.8 1115.9 L 69.5 1110.3 L 67.3 1104.6 L 65.1 1098.9 L 63.1 1093.1 L 61.1 1087.4 L 59.2 1081.6 L 57.3 1075.8 L 57.3 1075.8 L 55.6 1069.9 L 53.8 1064.0 L 52.2 1058.1 L 50.6 1052.2 L 49.0 1046.3 L 47.6 1040.4 L 46.1 1034.5 L 44.7 1028.5 L 43.4 1022.5 L 42.1 1016.5 L 40.9 1010.6 L 39.8 1004.5 L 38.8 998.5 L 37.8 992.5 L 36.9 986.5 L 36.0 980.4 L 36.0 980.4 L 35.2 974.4 L 34.6 968.3 L 34.1 962.3 L 33.8 956.2 L 33.4 950.0 L 33.2 943.9 L 32.9 937.8 L 32.8 931.6 L 32.7 925.5 L 32.6 919.4 L 32.4 913.2 L 32.2 907.1 L 32.0 901.0 L 31.7 894.9 L 31.4 888.7 L 30.9 882.7 L 30.9 882.7 L 30.4 876.6 L 30.0 870.4 L 29.5 864.4 L 29.2 858.2 L 28.7 852.1 L 28.2 846.0 L 27.7 839.9 L 27.1 833.7 L 26.6 827.7 L 25.9 821.6 L 25.2 815.5 L 24.4 809.4 L 23.5 803.5 L 22.4 797.4 L 21.3 791.4 L 20.1 785.5 L 20.1 785.5 L 18.7 779.6 L 17.1 773.7 L 15.5 767.9 L 13.7 762.0 L 11.9 756.2 L 9.9 750.4 L 8.0 744.6 L 5.9 738.9 L 3.8 733.1 L 1.6 727.4 L 0.0 723.2" fill="none" stroke="#ffd23d" stroke-width="6.0" stroke-opacity="0.9"/><path d="M 95.7 0.0 L 97.3 3.4 L 99.9 9.0 L 102.6 14.5 L 105.2 20.1 L 107.7 25.6 L 110.2 31.2 L 112.7 36.8 L 115.2 42.4 L 117.6 48.1 L 119.9 53.7 L 122.2 59.4 L 124.4 65.1 L 126.5 70.8 L 126.5 70.8 L 128.5 76.5 L 130.5 82.3 L 132.6 88.1 L 134.5 93.9 L 136.3 99.7 L 138.2 105.6 L 139.9 111.3 L 141.7 117.2 L 143.3 123.1 L 145.0 129.1 L 146.6 135.0 L 148.1 140.9 L 149.6 146.9 L 151.1 152.7 L 152.4 158.7 L 153.8 164.7 L 153.8 164.7 L 155.1 170.7 L 156.3 176.7 L 157.5 182.6 L 158.6 188.6 L 159.7 194.7 L 160.7 200.7 L 161.6 206.8 L 162.6 212.8 L 163.5 218.8 L 164.3 224.9 L 165.2 230.9 L 166.1 237.0 L 166.8 243.1 L 167.6 249.2 L 168.4 255.2 L 169.3 261.3 L 169.3 261.3 L 170.0 267.4 L 170.7 273.5 L 171.5 279.5 L 172.2 285.6 L 172.9 291.7 L 173.5 297.7 L 174.1 303.9 L 174.7 310.0 L 175.3 316.0 L 175.9 322.1 L 176.5 328.2 L 177.1 334.4 L 177.6 340.4 L 178.3 346.5 L 178.9 352.6 L 179.6 358.6 L 179.6 358.6 L 180.3 364.7 L 181.0 370.8 L 181.6 377.0 L 182.3 383.0 L 183.0 389.1 L 183.7 395.2 L 184.4 401.2 L 185.1 407.3 L 185.7 413.4 L 186.5 419.5 L 187.1 425.5 L 187.9 431.6 L 188.6 437.7 L 189.2 443.7 L 190.0 449.9 L 190.7 456.0 L 190.7 456.0 L 191.4 462.1 L 192.2 468.1 L 192.9 474.2 L 193.7 480.3 L 194.4 486.3 L 195.1 492.4 L 195.9 498.5 L 196.6 504.6 L 197.3 510.6 L 198.2 516.7 L 198.9 522.8 L 199.7 528.8 L 200.5 534.9 L 201.3 541.0 L 202.1 547.1 L 202.9 553.0 L 202.9 553.0 L 203.8 559.1 L 204.6 565.2 L 205.4 571.3 L 206.3 577.3 L 207.1 583.4 L 208.0 589.5 L 208.8 595.5 L 209.7 601.6 L 210.6 607.6 L 211.5 613.7 L 212.4 619.7 L 213.3 625.8 L 214.4 631.8 L 215.4 637.9 L 216.4 643.8 L 217.5 649.9 L 217.5 649.9 L 218.6 655.9 L 219.7 662.0 L 220.8 667.9 L 222.0 673.9 L 223.2 679.9 L 224.4 686.0 L 225.6 692.0 L 226.9 697.9 L 228.2 703.9 L 229.4 709.9 L 230.7 715.9 L 232.1 721.9 L 233.4 727.8 L 234.8 733.8 L 236.2 739.7 L 237.5 745.7 L 237.5 745.7 L 238.9 751.7 L 240.4 757.6 L 241.9 763.5 L 243.4 769.4 L 245.0 775.4 L 246.6 781.3 L 248.1 787.2 L 249.7 793.1 L 251.2 799.0 L 252.9 804.9 L 254.5 810.8 L 256.0 816.7 L 257.6 822.7 L 259.2 828.6 L 260.7 834.5 L 262.2 840.4 L 262.2 840.4 L 263.7 846.3 L 265.1 852.3 L 266.6 858.3 L 268.1 864.2 L 269.5 870.2 L 270.9 876.1 L 272.3 882.0 L 273.8 888.0 L 275.2 894.0 L 276.6 899.9 L 278.0 905.9 L 279.4 911.8 L 280.8 917.8 L 282.2 923.7 L 283.5 929.7 L 284.9 935.7 L 284.9 935.7 L 286.3 941.6 L 287.7 947.6 L 289.1 953.5 L 290.5 959.5 L 291.9 965.5 L 293.3 971.5 L 294.7 977.4 L 296.1 983.4 L 297.4 989.3 L 298.7 995.3 L 300.1 1001.3 L 301.3 1007.2 L 302.6 1013.3 L 303.7 1019.3 L 304.9 1025.3 L 305.9 1031.3 L 305.9 1031.3 L 306.9 1037.3 L 307.9 1043.3 L 308.9 1049.4 L 309.9 1055.5 L 311.0 1061.5 L 311.9 1067.5 L 312.7 1073.6 L 313.5 1079.6 L 314.4 1085.7 L 315.1 1091.8 L 315.7 1097.9 L 316.4 1103.9 L 316.9 1110.0 L 317.3 1116.2 L 317.7 1122.2 L 317.9 1128.3 L 317.9 1128.3 L 318.1 1134.4 L 318.1 1140.5 L 318.0 1146.6 L 317.9 1152.7 L 317.6 1158.8 L 317.3 1164.9 L 316.8 1171.0 L 316.5 1177.1 L 315.9 1183.2 L 315.5 1189.3 L 314.9 1195.5 L 314.5 1201.5 L 313.9 1207.7 L 313.4 1213.8 L 313.0 1219.9 L 312.6 1226.0 L 312.6 1226.0 L 312.2 1232.1 L 311.7 1238.3 L 311.2 1244.3 L 310.8 1250.4 L 310.2 1256.6 L 309.7 1262.6 L 309.1 1268.7 L 308.7 1274.9 L 308.1 1280.9 L 307.6 1287.1 L 307.2 1293.2 L 306.8 1299.3 L 306.5 1305.4 L 306.3 1311.5 L 306.1 1317.6 L 306.0 1323.7 L 306.0 1323.7 L 305.9 1329.8 L 305.9 1335.9 L 305.8 1342.0 L 305.8 1348.2 L 305.9 1354.4 L 305.9 1360.4 L 306.1 1366.6 L 306.3 1372.8 L 306.4 1378.8 L 306.8 1385.0 L 307.2 1391.1 L 307.7 1397.1 L 308.4 1403.2 L 309.1 1409.3 L 309.9 1415.3 L 311.0 1421.2 L 311.0 1421.2 L 312.2 1427.2 L 313.4 1433.1 L 315.0 1439.0 L 316.8 1444.8 L 318.5 1450.7 L 320.4 1456.5 L 322.5 1462.3 L 324.6 1468.0 L 326.6 1473.8 L 328.7 1479.6 L 330.8 1485.4 L 332.9 1491.2 L 334.8 1497.0 L 336.7 1502.8 L 338.5 1508.6 L 340.1 1514.5 L 340.1 1514.5 L 341.7 1520.4 L 343.2 1526.3 L 344.6 1532.2 L 346.1 1538.2 L 347.5 1544.1 L 348.8 1550.0 L 350.1 1556.0 L 351.4 1561.9 L 352.7 1567.9 L 353.9 1573.9 L 355.2 1579.9 L 356.4 1585.8 L 357.6 1591.8 L 358.8 1597.8 L 359.9 1603.8 L 361.1 1609.8 L 361.1 1609.8 L 362.2 1615.7 L 363.2 1621.8 L 364.1 1627.8 L 365.1 1633.9 L 365.9 1639.9 L 366.8 1646.0 L 367.5 1652.1 L 368.5 1658.1 L 369.3 1664.1 L 370.1 1670.2 L 371.1 1676.2 L 372.1 1682.2 L 373.1 1688.2 L 374.3 1694.2 L 375.6 1700.1 L 377.1 1706.0 L 377.1 1706.0 L 378.8 1711.9 L 380.8 1717.8 L 383.1 1723.6 L 385.6 1729.4 L 388.2 1735.3 L 391.0 1741.1 L 393.8 1746.9 L 396.4 1752.7 L 399.0 1758.5 L 401.5 1764.2 L 403.7 1769.9 L 405.5 1775.6 L 407.1 1781.3 L 408.2 1787.0 L 408.8 1792.6 L 408.8 1798.3 L 408.8 1798.3 L 408.4 1804.0 L 407.6 1809.6 L 406.2 1815.3 L 404.5 1820.9 L 402.5 1826.6 L 400.2 1832.2 L 397.6 1837.9 L 394.9 1843.4 L 392.0 1849.0 L 388.9 1854.5 L 385.8 1859.9 L 382.5 1865.2 L 379.3 1870.6 L 376.1 1875.7 L 372.9 1880.8 L 369.8 1885.7 L 369.8 1885.7 L 366.7 1890.6 L 363.2 1895.7 L 359.5 1900.7 L 355.6 1905.8 L 351.5 1910.9 L 347.4 1915.8 L 343.2 1920.7 L 339.0 1925.5 L 335.0 1930.1 L 331.0 1934.5 L 327.2 1938.7 L 323.7 1942.4 L 320.4 1946.0 L 317.6 1949.2 L 315.1 1952.0 L 313.1 1954.4 L 263.6 1926.0" fill="none" stroke="#ffd23d" stroke-width="6.0" stroke-opacity="0.9"/></g><g id="clips"><circle cx="263.6" cy="1926.0" r="2" fill="none" stroke="#0b5" stroke-width="0.6"/><circle cx="228.2" cy="1729.8" r="2" fill="none" stroke="#0b5" stroke-width="0.6"/><circle cx="201.7" cy="1531.5" r="2" fill="none" stroke="#0b5" stroke-width="0.6"/><circle cx="161.3" cy="1336.6" r="2" fill="none" stroke="#0b5" stroke-width="0.6"/><circle cx="86.5" cy="1151.1" r="2" fill="none" stroke="#0b5" stroke-width="0.6"/><circle cx="33.9" cy="959.2" r="2" fill="none" stroke="#0b5" stroke-width="0.6"/><circle cx="13.4" cy="760.9" r="2" fill="none" stroke="#0b5" stroke-width="0.6"/><circle cx="95.7" cy="0.0" r="2" fill="none" stroke="#0b5" stroke-width="0.6"/><circle cx="158.7" cy="189.1" r="2" fill="none" stroke="#0b5" stroke-width="0.6"/><circle cx="182.8" cy="387.6" r="2" fill="none" stroke="#0b5" stroke-width="0.6"/><circle cx="207.5" cy="586.0" r="2" fill="none" stroke="#0b5" stroke-width="0.6"/><circle cx="246.8" cy="782.0" r="2" fill="none" stroke="#0b5" stroke-width="0.6"/><circle cx="294.4" cy="976.2" r="2" fill="none" stroke="#0b5" stroke-width="0.6"/><circle cx="316.6" cy="1174.2" r="2" fill="none" stroke="#0b5" stroke-width="0.6"/><circle cx="306.3" cy="1373.7" r="2" fill="none" stroke="#0b5" stroke-width="0.6"/><circle cx="352.6" cy="1567.5" r="2" fill="none" stroke="#0b5" stroke-width="0.6"/><circle cx="399.9" cy="1760.6" r="2" fill="none" stroke="#0b5" stroke-width="0.6"/><circle cx="329.9" cy="1935.7" r="2" fill="none" stroke="#0b5" stroke-width="0.6"/></g><g id="power"><circle cx="95.7" cy="0.0" r="5" fill="none" stroke="#e33" stroke-width="1"/><circle cx="0.0" cy="723.2" r="5" fill="none" stroke="#e33" stroke-width="1"/></g><g id="bridges"><circle cx="263.6" cy="1926.0" r="9" fill="none" stroke="#e6a817" stroke-width="1.5"/><circle cx="261.2" cy="1917.5" r="9" fill="none" stroke="#e6a817" stroke-width="1.5"/></g></svg>