<svg xmlns="http://www.w3.org/2000/svg" width="2000mm" height="1000mm" viewBox="0 0 2000 1000"><g id="outline"><rect x="0" y="0" width="2000" height="1000" fill="none" stroke="#000" stroke-width="1"/></g><g id="channels"><path d="M 240.7 5.4 L 238.3 2.8 L 235.6 0.0" fill="none" stroke="#00e5ff" stroke-width="6.0" stroke-opacity="0.9"/><path d="M 0.0 7.6 L 4.4 12.7 L 8.8 17.9 L 13.3 23.0 L 13.3 23.0 L 17.7 28.3 L 22.1 33.7 L 26.5 39.2 L 30.7 44.8 L 35.0 50.4 L 39.3 56.1 L 43.6 61.8 L 47.9 67.3 L 52.2 72.8 L 56.6 78.2 L 61.1 83.4 L 65.6 88.3 L 70.3 93.1 L 75.0 97.5 L 79.9 101.6 L 85.0 105.4 L 85.0 105.4 L 90.3 109.0 L 95.8 112.6 L 101.6 116.2 L 107.5 119.8 L 113.6 123.2 L 119.8 126.5 L 126.0 129.5 L 132.3 132.2 L 138.5 134.6 L 144.6 136.6 L 150.6 138.1 L 156.5 139.2 L 162.1 139.7 L 167.5 139.5 L 172.7 138.7 L 177.4 137.2 L 177.4 137.2 L 182.0 134.7 L 186.5 131.0 L 190.8 126.3 L 195.1 120.7 L 199.2 114.5 L 203.2 107.7 L 207.0 100.5 L 210.6 93.1 L 214.1 85.6 L 217.4 78.2 L 220.4 71.1 L 223.3 64.4 L 225.9 58.3 L 228.3 52.9 L 230.4 48.4 L 232.2 44.9" fill="none" stroke="#00e5ff" stroke-width="6.0" stroke-opacity="0.9"/></g><g id="clips"><circle cx="240.7" cy="5.4" r="2" fill="none" stroke="#0b5" stroke-width="0.6"/><circle cx="0.0" cy="7.6" r="2" fill="none" stroke="#0b5" stroke-width="0.6"/><circle cx="232.2" cy="44.9" r="2" fill="none" stroke="#0b5" stroke-width="0.6"/></g><g id="power"><circle cx="235.5" cy="0.0" r="5" fill="none" stroke="#e33" stroke-width="1"/><circle cx="0.0" cy="7.6" r="5" fill="none" stroke="#e33" stroke-width="1"/></g></svg>