<svg xmlns="http://www.w3.org/2000/svg" width="2000mm" height="1000mm" viewBox="0 0 2000 1000"><g id="outline"><rect x="0" y="0" width="2000" height="1000" fill="none" stroke="#000" stroke-width="1"/></g><g id="channels"><path d="M 235.6 1000.0 L 235.3 999.7 L 231.9 996.1 L 228.1 992.1 L 224.0 987.7 L 219.6 983.0 L 214.9 978.1 L 210.1 972.9 L 205.1 967.7 L 199.9 962.3 L 194.8 957.0 L 189.6 951.7 L 184.4 946.5 L 179.3 941.5 L 174.3 936.7 L 169.5 932.2 L 169.5 932.2 L 164.7 927.9 L 159.9 923.7 L 155.0 919.6 L 150.0 915.5 L 144.9 911.5 L 139.8 907.5 L 134.7 903.5 L 129.6 899.6 L 124.5 895.6 L 119.4 891.6 L 114.4 887.6 L 109.3 883.5 L 104.4 879.4 L 99.5 875.2 L 94.7 870.9 L 90.0 866.5 L 90.0 866.5 L 85.3 862.0 L 80.8 857.5 L 76.2 852.9 L 71.8 848.2 L 67.4 843.5 L 63.0 838.7 L 58.6 833.9 L 54.3 829.1 L 50.0 824.3 L 45.8 819.4 L 41.5 814.5 L 37.3 809.6 L 33.1 804.7 L 28.9 799.8 L 24.6 794.9 L 20.4 790.1 L 20.4 790.1 L 16.2 785.2 L 11.9 780.3 L 7.6 775.5 L 3.3 770.6 L 0.0 766.8" fill="none" stroke="#00e5ff" stroke-width="6.0" stroke-opacity="0.9"/></g><g id="clips"><circle cx="235.6" cy="1000.0" r="2" fill="none" stroke="#0b5" stroke-width="0.6"/><circle cx="0.0" cy="766.8" r="2" fill="none" stroke="#0b5" stroke-width="0.6"/></g><g id="power"><circle cx="235.5" cy="1000.0" r="5" fill="none" stroke="#e33" stroke-width="1"/><circle cx="0.0" cy="766.8" r="5" fill="none" stroke="#e33" stroke-width="1"/></g></svg>