<svg xmlns="http://www.w3.org/2000/svg" width="2000mm" height="1000mm" viewBox="0 0 2000 1000"><g id="outline"><rect x="0" y="0" width="2000" height="1000" fill="none" stroke="#000" stroke-width="1"/></g><g id="channels"><path d="M 1685.4 1000.0 L 1679.9 996.2 L 1674.1 992.1 L 1668.5 987.8 L 1663.0 983.5 L 1663.0 983.5 L 1657.7 978.9 L 1652.6 974.1 L 1647.7 969.0 L 1643.0 963.8 L 1638.4 958.4 L 1633.9 952.8 L 1629.5 947.2 L 1625.1 941.4 L 1620.7 935.7 L 1616.3 929.9 L 1611.9 924.2 L 1607.4 918.5 L 1602.9 913.0 L 1598.2 907.6 L 1593.4 902.3 L 1588.4 897.3 L 1588.4 897.3 L 1583.2 892.4 L 1578.0 887.6 L 1572.6 883.0 L 1567.2 878.3 L 1561.8 873.8 L 1556.2 869.3 L 1550.7 864.9 L 1545.0 860.5 L 1539.4 856.2 L 1533.7 851.9 L 1528.0 847.5 L 1522.4 843.2 L 1516.7 838.9 L 1511.0 834.6 L 1505.4 830.2 L 1499.8 825.8 L 1499.8 825.8 L 1494.2 821.4 L 1488.6 817.0 L 1483.0 812.6 L 1477.4 808.2 L 1471.7 803.9 L 1466.0 799.6 L 1460.4 795.2 L 1454.7 790.9 L 1449.1 786.5 L 1443.4 782.2 L 1437.8 777.8 L 1432.2 773.4 L 1426.6 769.0 L 1421.1 764.5 L 1415.5 760.0 L 1410.0 755.5 L 1410.0 755.5 L 1404.6 750.9 L 1399.1 746.3 L 1393.8 741.6 L 1388.4 736.8 L 1383.1 732.1 L 1377.8 727.3 L 1372.5 722.5 L 1367.3 717.7 L 1362.0 712.9 L 1356.7 708.1 L 1351.4 703.3 L 1346.1 698.6 L 1340.7 693.9 L 1335.3 689.2 L 1329.8 684.7 L 1324.4 680.1 L 1324.4 680.1 L 1318.8 675.6 L 1313.4 671.0 L 1307.9 666.3 L 1302.4 661.5 L 1297.0 656.8 L 1291.5 652.1 L 1285.9 647.4 L 1280.4 642.8 L 1274.8 638.3 L 1269.1 633.9 L 1263.4 629.7 L 1257.5 625.7 L 1251.6 621.9 L 1245.6 618.4 L 1239.5 615.1 L 1233.3 612.1 L 1233.3 612.1 L 1226.9 609.4 L 1220.4 607.0 L 1213.7 604.9 L 1207.0 603.0 L 1200.2 601.3 L 1193.3 599.8 L 1186.3 598.5 L 1179.2 597.3 L 1172.2 596.2 L 1165.0 595.2 L 1157.9 594.3 L 1150.8 593.4 L 1143.6 592.5 L 1136.5 591.6 L 1129.4 590.7 L 1122.4 589.8 L 1122.4 589.8 L 1115.4 588.9 L 1108.3 588.1 L 1101.2 587.5 L 1094.1 587.0 L 1087.0 586.6 L 1079.9 586.2 L 1072.7 585.9 L 1065.6 585.6 L 1058.5 585.3 L 1051.3 584.9 L 1044.2 584.5 L 1037.1 584.0 L 1030.0 583.4 L 1022.9 582.6 L 1015.9 581.7 L 1008.9 580.6 L 1008.9 580.6 L 1001.9 579.3 L 994.9 577.8 L 988.0 576.2 L 981.1 574.5 L 974.2 572.7 L 967.3 570.9 L 960.5 568.9 L 953.6 566.9 L 946.8 564.9 L 939.9 562.8 L 933.1 560.8 L 926.2 558.7 L 919.4 556.7 L 912.5 554.8 L 905.6 552.9 L 898.7 551.1 L 898.7 551.1 L 891.8 549.4 L 884.9 547.6 L 878.0 545.7 L 871.1 543.9 L 864.2 542.1 L 857.3 540.3 L 850.4 538.5 L 843.4 536.7 L 836.5 535.0 L 829.6 533.3 L 822.7 531.7 L 815.7 530.1 L 808.7 528.7 L 801.8 527.3 L 794.8 526.0 L 787.8 524.8 L 787.8 524.8 L 780.7 523.8 L 773.7 522.8 L 766.6 521.9 L 759.5 521.1 L 752.5 520.3 L 745.4 519.7 L 738.2 519.0 L 731.1 518.5 L 724.0 518.0 L 716.9 517.5 L 709.7 517.1 L 702.6 516.8 L 695.5 516.5 L 688.3 516.2 L 681.2 515.9 L 674.1 515.7 L 674.1 515.7 L 667.0 515.5 L 659.9 515.2 L 652.7 515.0 L 645.6 514.8 L 638.4 514.7 L 631.3 514.6 L 624.1 514.5 L 616.9 514.5 L 609.8 514.6 L 602.7 514.7 L 595.5 514.9 L 588.4 515.3 L 581.3 515.7 L 574.3 516.3 L 567.2 517.0 L 560.2 517.9 L 560.2 517.9 L 553.1 519.0 L 546.1 520.5 L 539.1 522.3 L 532.1 524.3 L 525.1 526.6 L 518.1 528.9 L 511.1 531.3 L 504.1 533.7 L 497.2 536.1 L 490.3 538.3 L 483.4 540.3 L 476.5 542.0 L 469.7 543.4 L 462.9 544.5 L 456.2 545.0 L 449.5 545.1 L 449.5 545.1 L 442.9 544.8 L 436.2 544.1 L 429.5 543.2 L 422.8 542.0 L 416.2 540.6 L 409.6 538.9 L 403.0 537.0 L 396.4 534.9 L 390.0 532.6 L 383.6 530.0 L 377.3 527.3 L 371.0 524.4 L 364.9 521.3 L 358.9 518.1 L 353.0 514.7 L 347.2 511.2 L 347.2 511.2 L 341.7 507.4 L 336.3 503.2 L 331.1 498.6 L 326.1 493.7 L 321.2 488.6 L 316.4 483.3 L 311.7 477.9 L 307.0 472.3 L 302.4 466.7 L 297.7 461.1 L 292.9 455.5 L 288.1 450.1 L 283.2 444.7 L 278.2 439.6 L 272.9 434.7 L 267.5 430.1 L 267.5 430.1 L 261.9 425.8 L 256.1 421.7 L 250.1 417.8 L 243.9 414.1 L 237.7 410.5 L 231.3 407.0 L 224.9 403.6 L 218.5 400.1 L 212.2 396.7 L 205.9 393.2 L 199.7 389.6 L 193.6 385.9 L 187.6 382.0 L 181.9 378.0 L 176.4 373.7 L 171.2 369.1 L 171.2 369.1 L 166.0 364.4 L 160.8 359.5 L 155.5 354.4 L 150.2 349.3 L 145.0 344.0 L 139.8 338.6 L 134.9 333.1 L 130.1 327.5 L 125.5 321.8 L 121.3 316.0 L 117.4 310.1 L 113.9 304.2 L 110.8 298.2 L 108.2 292.2 L 106.1 286.1 L 104.6 279.9 L 104.6 279.9 L 103.7 273.4 L 103.2 266.4 L 103.2 258.8 L 103.7 251.0 L 104.5 242.8 L 105.7 234.6 L 107.3 226.4 L 109.2 218.3 L 111.4 210.5 L 113.9 203.0 L 116.7 195.9 L 119.6 189.5 L 122.8 183.8 L 126.2 178.9 L 129.7 175.0 L 133.3 172.1 L 133.3 172.1 L 137.2 170.2 L 141.5 169.3 L 146.2 169.2 L 151.2 169.8 L 156.5 171.1 L 162.0 173.0 L 167.8 175.4 L 173.7 178.1 L 179.7 181.3 L 185.9 184.7 L 192.1 188.2 L 198.3 191.9 L 204.4 195.5 L 210.5 199.1 L 216.5 202.5 L 222.3 205.7 L 222.3 205.7 L 228.0 208.9 L 233.8 212.3 L 239.6 215.9 L 245.4 219.7 L 251.2 223.7 L 257.1 227.8 L 263.0 231.9 L 268.8 236.2 L 274.8 240.5 L 280.7 244.8 L 286.6 249.1 L 292.5 253.5 L 298.5 257.7 L 304.5 261.9 L 310.4 266.0 L 316.4 269.9 L 316.4 269.9 L 322.3 273.9 L 328.3 277.8 L 334.2 281.8 L 340.2 285.9 L 346.1 289.9 L 352.0 293.9 L 358.0 297.9 L 364.0 301.9 L 370.0 305.8 L 376.0 309.6 L 382.1 313.4 L 388.2 317.0 L 394.4 320.5 L 400.6 323.8 L 406.9 327.0 L 413.3 330.1 L 413.3 330.1 L 419.8 333.0 L 426.3 335.8 L 432.8 338.5 L 439.4 341.1 L 446.1 343.6 L 452.8 346.0 L 459.6 348.3 L 466.4 350.5 L 473.2 352.6 L 480.1 354.5 L 487.0 356.4 L 493.9 358.1 L 500.8 359.8 L 507.7 361.3 L 514.6 362.7 L 521.6 364.0 L 521.6 364.0 L 528.5 365.1 L 535.5 366.0 L 542.6 366.8 L 549.6 367.4 L 556.7 367.9 L 563.9 368.3 L 571.0 368.6 L 578.1 368.8 L 585.3 368.9 L 592.5 368.9 L 599.7 369.0 L 606.8 368.9 L 614.0 368.9 L 621.2 368.8 L 628.3 368.8 L 635.4 368.7 L 635.4 368.7 L 642.5 368.7 L 649.7 368.5 L 656.8 368.3 L 663.9 368.1 L 671.0 367.8 L 678.2 367.4 L 685.3 367.1 L 692.4 366.6 L 699.5 366.2 L 706.7 365.8 L 713.8 365.4 L 720.9 364.9 L 728.0 364.5 L 735.1 364.2 L 742.3 363.8 L 749.4 363.5 L 749.4 363.5 L 756.5 363.2 L 763.7 363.0 L 770.8 362.8 L 777.9 362.5 L 785.0 362.3 L 792.2 362.1 L 799.3 361.9 L 806.4 361.8 L 813.5 361.6 L 820.7 361.4 L 827.8 361.1 L 834.9 360.9 L 842.1 360.7 L 849.2 360.4 L 856.3 360.1 L 863.4 359.8 L 863.4 359.8 L 870.6 359.5 L 877.7 359.2 L 884.8 358.9 L 891.9 358.5 L 899.1 358.2 L 906.2 357.8 L 913.3 357.5 L 920.4 357.1 L 927.5 356.7 L 934.7 356.3 L 941.8 355.8 L 948.9 355.4 L 956.0 354.9 L 963.1 354.4 L 970.2 353.8 L 977.3 353.2 L 977.3 353.2 L 984.4 352.6 L 991.5 351.8 L 998.6 350.9 L 1005.7 350.0 L 1012.8 349.0 L 1019.9 348.0 L 1027.0 347.0 L 1034.1 345.9 L 1041.2 345.0 L 1048.3 344.0 L 1055.3 343.2 L 1062.4 342.4 L 1069.5 341.7 L 1076.6 341.2 L 1083.6 340.8 L 1090.7 340.6 L 1090.7 340.6 L 1097.8 340.5 L 1104.9 340.5 L 1112.0 340.5 L 1119.1 340.6 L 1126.2 340.7 L 1133.3 341.0 L 1140.4 341.3 L 1147.5 341.7 L 1154.6 342.3 L 1161.7 342.9 L 1168.7 343.7 L 1175.8 344.5 L 1182.7 345.6 L 1189.7 346.7 L 1196.6 348.0 L 1203.5 349.5 L 1203.5 349.5 L 1210.3 351.2 L 1217.2 353.0 L 1223.9 355.1 L 1230.7 357.3 L 1237.4 359.6 L 1244.1 362.1 L 1250.7 364.7 L 1257.4 367.4 L 1264.0 370.1 L 1270.6 373.0 L 1277.2 375.8 L 1283.8 378.7 L 1290.4 381.6 L 1297.0 384.4 L 1303.6 387.3 L 1310.1 390.1 L 1310.1 390.1 L 1316.7 392.8 L 1323.2 395.7 L 1329.8 398.5 L 1336.3 401.4 L 1342.8 404.3 L 1349.3 407.2 L 1355.7 410.2 L 1362.2 413.2 L 1368.7 416.2 L 1375.1 419.2 L 1381.6 422.3 L 1388.0 425.3 L 1394.4 428.4 L 1400.9 431.5 L 1407.3 434.6 L 1413.7 437.7 L 1413.7 437.7 L 1420.1 440.8 L 1426.5 444.0 L 1432.9 447.2 L 1439.2 450.4 L 1445.6 453.7 L 1451.9 456.9 L 1458.2 460.2 L 1464.5 463.5 L 1470.9 466.8 L 1477.2 470.1 L 1483.5 473.4 L 1489.9 476.6 L 1496.2 479.8 L 1502.6 483.0 L 1509.0 486.2 L 1515.4 489.3 L 1515.4 489.3 L 1521.9 492.3 L 1528.4 495.3 L 1534.8 498.2 L 1541.4 501.1 L 1547.9 504.0 L 1554.4 506.8 L 1561.0 509.7 L 1567.5 512.5 L 1574.1 515.3 L 1580.6 518.2 L 1587.1 521.1 L 1593.7 523.9 L 1600.2 526.9 L 1606.6 529.8 L 1613.1 532.8 L 1619.5 535.9 L 1619.5 535.9 L 1625.9 539.1 L 1632.3 542.2 L 1638.7 545.5 L 1645.0 548.7 L 1651.3 552.0 L 1657.6 555.3 L 1664.0 558.7 L 1670.2 562.0 L 1676.5 565.4 L 1682.8 568.7 L 1689.1 572.1 L 1695.4 575.4 L 1701.7 578.8 L 1708.0 582.1 L 1714.4 585.4 L 1720.7 588.6 L 1720.7 588.6 L 1727.1 591.8 L 1733.4 595.1 L 1739.8 598.3 L 1746.2 601.5 L 1752.5 604.7 L 1758.9 607.9 L 1765.3 611.1 L 1771.7 614.2 L 1778.1 617.4 L 1784.5 620.6 L 1790.9 623.7 L 1797.3 626.9 L 1803.7 630.0 L 1810.1 633.1 L 1816.5 636.2 L 1822.9 639.4 L 1822.9 639.4 L 1829.3 642.5 L 1835.8 645.5 L 1842.2 648.6 L 1848.6 651.7 L 1855.1 654.7 L 1861.5 657.8 L 1868.0 660.8 L 1874.4 663.9 L 1880.9 666.9 L 1887.3 669.9 L 1893.8 672.9 L 1900.2 676.0 L 1906.7 679.0 L 1913.2 682.0 L 1919.6 685.0 L 1926.1 688.1 L 1926.1 688.1 L 1932.5 691.1 L 1939.0 694.1 L 1945.4 697.2 L 1951.9 700.2 L 1958.4 703.2 L 1964.8 706.2 L 1971.3 709.2 L 1977.7 712.2 L 1984.2 715.3 L 1990.7 718.3 L 1997.1 721.3 L 2000.0 722.6" fill="none" stroke="#ff7a1a" stroke-width="6.0" stroke-opacity="0.9"/><path d="M 1236.7 696.0 L 1233.1 697.5 L 1228.8 699.3 L 1223.9 701.2 L 1218.3 703.4 L 1212.2 705.8 L 1205.7 708.4 L 1198.9 711.1 L 1191.8 714.0 L 1184.6 717.0 L 1177.2 720.1 L 1169.9 723.3 L 1162.7 726.6 L 1155.7 730.0 L 1149.0 733.5 L 1142.6 737.0 L 1136.7 740.5 L 1136.7 740.5 L 1131.0 744.1 L 1125.2 747.7 L 1119.4 751.3 L 1113.6 755.1 L 1107.8 758.9 L 1102.1 762.8 L 1096.5 766.9 L 1091.0 771.0 L 1085.7 775.2 L 1080.5 779.6 L 1075.5 784.1 L 1070.8 788.8 L 1066.3 793.6 L 1062.2 798.6 L 1058.3 803.8 L 1054.8 809.1 L 1054.8 809.1 L 1051.8 814.8 L 1049.5 821.1 L 1047.7 827.7 L 1046.4 834.7 L 1045.4 841.9 L 1044.7 849.4 L 1044.1 856.9 L 1043.6 864.4 L 1043.1 871.8 L 1042.5 879.1 L 1041.6 886.1 L 1040.3 892.8 L 1038.7 899.1 L 1036.5 904.9 L 1033.7 910.2 L 1030.2 914.8 L 1030.2 914.8 L 1026.1 918.7 L 1021.4 922.3 L 1016.3 925.4 L 1010.7 928.1 L 1004.8 930.4 L 998.6 932.5 L 992.2 934.3 L 985.5 935.8 L 978.6 937.2 L 971.7 938.4 L 964.6 939.4 L 957.6 940.4 L 950.6 941.3 L 943.6 942.2 L 936.8 943.1 L 930.2 944.1 L 930.2 944.1 L 923.6 945.0 L 917.0 945.6 L 910.3 946.0 L 903.5 946.2 L 896.7 946.2 L 889.8 946.2 L 883.0 946.0 L 876.1 945.9 L 869.2 945.7 L 862.3 945.5 L 855.3 945.4 L 848.5 945.5 L 841.6 945.7 L 834.8 946.0 L 828.0 946.6 L 821.2 947.4 L 821.2 947.4 L 814.5 948.6 L 807.8 950.2 L 801.1 952.1 L 794.4 954.3 L 787.7 956.6 L 781.0 959.1 L 774.4 961.6 L 767.7 964.1 L 761.1 966.5 L 754.5 968.8 L 747.9 970.8 L 741.4 972.6 L 734.8 974.0 L 728.4 975.1 L 721.9 975.6 L 715.5 975.6 L 715.5 975.6 L 709.1 975.2 L 702.6 974.4 L 695.9 973.4 L 689.3 972.1 L 682.6 970.6 L 675.9 968.8 L 669.3 966.7 L 662.7 964.4 L 656.3 961.9 L 650.0 959.1 L 644.0 956.1 L 638.1 952.9 L 632.5 949.5 L 627.1 945.8 L 622.1 942.0 L 617.4 937.9 L 617.4 937.9 L 612.8 933.4 L 608.2 928.3 L 603.5 922.6 L 598.8 916.5 L 594.3 910.0 L 589.9 903.3 L 585.8 896.4 L 582.0 889.4 L 578.6 882.5 L 575.6 875.7 L 573.2 869.1 L 571.4 862.9 L 570.3 857.1 L 569.9 851.8 L 570.3 847.2 L 571.5 843.2 L 571.5 843.2 L 573.8 839.9 L 577.1 837.2 L 581.4 834.8 L 586.4 832.9 L 592.2 831.4 L 598.5 830.2 L 605.4 829.2 L 612.7 828.5 L 620.2 827.9 L 628.0 827.4 L 635.9 827.0 L 643.7 826.6 L 651.5 826.2 L 659.0 825.7 L 666.3 825.0 L 673.1 824.2 L 673.1 824.2 L 679.7 823.4 L 686.4 822.7 L 693.1 822.1 L 699.9 821.6 L 706.7 821.1 L 713.6 820.7 L 720.5 820.4 L 727.4 820.0 L 734.3 819.5 L 741.2 819.1 L 748.0 818.5 L 754.9 817.8 L 761.7 817.0 L 768.5 816.1 L 775.2 815.0 L 781.8 813.6 L 781.8 813.6 L 788.5 812.2 L 795.1 810.6 L 801.8 809.0 L 808.4 807.2 L 815.0 805.4 L 821.6 803.5 L 828.2 801.5 L 834.8 799.4 L 841.3 797.1 L 847.7 794.8 L 854.1 792.3 L 860.4 789.7 L 866.7 787.0 L 872.8 784.1 L 878.9 781.1 L 884.8 778.0 L 884.8 778.0 L 890.6 774.6 L 896.4 771.1 L 902.1 767.5 L 907.7 763.6 L 913.3 759.7 L 918.7 755.6 L 924.1 751.4 L 929.5 747.0 L 934.8 742.6 L 940.0 738.1 L 945.2 733.6 L 950.3 729.0 L 955.4 724.3 L 960.4 719.7 L 965.4 715.0 L 970.3 710.3 L 970.3 710.3 L 975.3 705.4 L 980.5 700.1 L 985.7 694.6 L 991.0 688.8 L 996.3 682.9 L 1001.5 676.9 L 1006.7 670.9 L 1011.7 664.9 L 1016.6 659.1 L 1021.3 653.5 L 1025.7 648.1 L 1029.8 643.1 L 1033.6 638.5 L 1037.0 634.4 L 1040.0 630.9 L 1042.5 628.0" fill="none" stroke="#ff7a1a" stroke-width="6.0" stroke-opacity="0.9"/><path d="M 1330.8 356.7 L 1333.8 354.1 L 1337.3 350.8 L 1341.4 346.9 L 1345.8 342.5 L 1350.7 337.7 L 1356.0 332.6 L 1361.5 327.3 L 1367.3 321.9 L 1373.3 316.5 L 1379.5 311.2 L 1385.7 306.1 L 1392.1 301.3 L 1398.4 296.9 L 1404.7 293.0 L 1410.9 289.7 L 1417.0 287.2 L 1417.0 287.2 L 1423.1 285.2 L 1429.4 283.4 L 1435.8 282.0 L 1442.4 280.8 L 1449.1 279.9 L 1455.9 279.3 L 1462.8 278.9 L 1469.6 278.8 L 1476.5 279.0 L 1483.4 279.4 L 1490.2 280.1 L 1496.9 281.1 L 1503.5 282.3 L 1510.0 283.8 L 1516.3 285.6 L 1522.5 287.6 L 1522.5 287.6 L 1528.5 290.0 L 1534.3 292.8 L 1540.1 296.0 L 1545.8 299.6 L 1551.3 303.6 L 1556.9 307.8 L 1562.3 312.2 L 1567.7 316.9 L 1573.1 321.6 L 1578.4 326.5 L 1583.7 331.4 L 1589.0 336.4 L 1594.2 341.3 L 1599.5 346.1 L 1604.8 350.8 L 1610.1 355.4 L 1610.1 355.4 L 1615.4 359.8 L 1620.6 364.3 L 1625.9 368.8 L 1631.1 373.4 L 1636.4 378.0 L 1641.5 382.6 L 1646.7 387.2 L 1651.9 391.8 L 1657.0 396.5 L 1662.1 401.2 L 1667.2 405.9 L 1672.3 410.7 L 1677.4 415.4 L 1682.4 420.2 L 1687.4 425.0 L 1692.4 429.8 L 1692.4 429.8 L 1697.4 434.6 L 1702.4 439.4 L 1707.3 444.3 L 1712.3 449.1 L 1717.2 454.0 L 1722.1 458.9 L 1727.0 463.9 L 1731.8 468.8 L 1736.7 473.8 L 1741.5 478.8 L 1746.3 483.8 L 1751.1 488.8 L 1755.9 493.8 L 1760.6 498.9 L 1765.4 503.9 L 1770.1 509.0 L 1770.1 509.0 L 1774.9 514.3 L 1780.0 519.8 L 1785.2 525.6 L 1790.4 531.5 L 1795.8 537.5 L 1801.1 543.6 L 1806.4 549.7 L 1811.6 555.6 L 1816.7 561.4 L 1821.5 567.0 L 1826.1 572.3 L 1830.4 577.2 L 1834.3 581.8 L 1837.8 585.8 L 1840.9 589.4 L 1843.4 592.3" fill="none" stroke="#ff7a1a" stroke-width="6.0" stroke-opacity="0.9"/></g><g id="clips"><circle cx="1685.4" cy="1000.0" r="2" fill="none" stroke="#0b5" stroke-width="0.6"/><circle cx="2000.0" cy="722.6" r="2" fill="none" stroke="#0b5" stroke-width="0.6"/><circle cx="1236.7" cy="696.0" r="2" fill="none" stroke="#0b5" stroke-width="0.6"/><circle cx="1042.5" cy="628.0" r="2" fill="none" stroke="#0b5" stroke-width="0.6"/><circle cx="1330.8" cy="356.7" r="2" fill="none" stroke="#0b5" stroke-width="0.6"/><circle cx="1843.4" cy="592.3" r="2" fill="none" stroke="#0b5" stroke-width="0.6"/></g><g id="power"><circle cx="2000.0" cy="722.6" r="5" fill="none" stroke="#e33" stroke-width="1"/><circle cx="1685.3" cy="1000.0" r="5" fill="none" stroke="#e33" stroke-width="1"/></g></svg>