<svg xmlns="http://www.w3.org/2000/svg" width="997mm" height="2000mm" viewBox="0 0 997 2000"><g id="outline"><rect x="0" y="0" width="997" height="2000" fill="none" stroke="#000" stroke-width="1"/></g><g id="channels"><path d="M 0.0 1795.8 L 1.2 1798.5 L 3.7 1804.2 L 3.7 1804.2 L 6.2 1809.8 L 8.6 1815.4 L 11.0 1821.0 L 13.4 1826.6 L 15.8 1832.2 L 18.1 1837.9 L 20.5 1843.5 L 22.9 1849.1 L 25.3 1854.9 L 27.6 1860.5 L 30.0 1866.1 L 32.5 1871.7 L 34.9 1877.3 L 37.3 1882.9 L 39.9 1888.4 L 42.5 1894.0 L 42.5 1894.0 L 45.1 1899.6 L 47.7 1905.1 L 50.5 1910.5 L 53.3 1915.9 L 56.0 1921.5 L 58.9 1926.9 L 61.7 1932.3 L 64.6 1937.7 L 67.4 1943.1 L 70.3 1948.5 L 73.0 1953.9 L 75.9 1959.4 L 78.7 1964.9 L 81.4 1970.3 L 84.1 1975.8 L 86.8 1981.4 L 86.8 1981.4 L 89.4 1986.9 L 92.1 1992.4 L 94.7 1997.9 L 95.7 2000.0" fill="none" stroke="#ffd23d" stroke-width="6.0" stroke-opacity="0.9"/></g><g id="clips"><circle cx="0.0" cy="1795.8" r="2" fill="none" stroke="#0b5" stroke-width="0.6"/><circle cx="95.7" cy="2000.0" r="2" fill="none" stroke="#0b5" stroke-width="0.6"/></g><g id="power"><circle cx="95.7" cy="2000.0" r="5" fill="none" stroke="#e33" stroke-width="1"/><circle cx="0.0" cy="1795.8" r="5" fill="none" stroke="#e33" stroke-width="1"/></g><g id="bridges"></g></svg>