<svg xmlns="http://www.w3.org/2000/svg" width="2000mm" height="1000mm" viewBox="0 0 2000 1000"><g id="outline"><rect x="0" y="0" width="2000" height="1000" fill="none" stroke="#000" stroke-width="1"/></g><g id="channels"><path d="M 1753.0 415.7 L 1756.2 417.0 L 1760.1 418.6 L 1764.5 420.5 L 1769.4 422.7 L 1774.8 425.1 L 1780.6 427.6 L 1786.7 430.3 L 1793.0 433.0 L 1799.6 435.7 L 1806.3 438.4 L 1813.0 441.0 L 1819.7 443.4 L 1826.4 445.7 L 1833.0 447.8 L 1839.3 449.5 L 1845.5 451.0 L 1845.5 451.0 L 1851.6 452.1 L 1858.0 453.0 L 1864.6 453.5 L 1871.3 453.9 L 1878.1 454.1 L 1885.0 454.1 L 1891.8 454.1 L 1898.6 454.0 L 1905.3 453.9 L 1911.8 453.9 L 1918.1 453.9 L 1924.1 454.1 L 1929.8 454.5 L 1935.1 455.0 L 1939.9 455.8 L 1944.3 456.9 L 1944.3 456.9 L 1948.4 458.3 L 1952.5 459.9 L 1956.4 461.8 L 1960.2 463.8 L 1963.8 466.0 L 1967.2 468.3 L 1970.3 470.7 L 1973.0 473.1 L 1975.4 475.6 L 1977.3 478.1 L 1978.8 480.5 L 1979.7 482.9 L 1980.1 485.2 L 1979.8 487.4 L 1978.9 489.4 L 1977.3 491.2 L 1977.3 491.2 L 1974.6 492.9 L 1970.5 494.3 L 1965.3 495.7 L 1959.2 496.9 L 1952.3 498.0 L 1944.9 499.1 L 1937.1 500.1 L 1929.0 501.1 L 1921.0 502.2 L 1913.2 503.3 L 1905.7 504.4 L 1898.8 505.7 L 1892.7 507.1 L 1887.5 508.6 L 1883.5 510.3 L 1880.7 512.2 L 1880.7 512.2 L 1879.3 514.3 L 1878.9 516.6 L 1879.4 519.1 L 1880.7 521.6 L 1882.7 524.3 L 1885.2 527.1 L 1888.1 530.0 L 1891.3 532.9 L 1894.7 535.9 L 1898.2 538.9 L 1901.6 541.9 L 1904.8 544.8 L 1907.6 547.7 L 1910.1 550.6 L 1911.9 553.3 L 1913.1 556.0 L 1913.1 556.0 L 1913.9 558.6 L 1914.5 561.3 L 1915.0 564.0 L 1915.4 566.7 L 1915.7 569.4 L 1915.8 572.1 L 1915.8 574.8 L 1915.5 577.4 L 1915.1 580.0 L 1914.5 582.5 L 1913.7 584.9 L 1912.7 587.3 L 1911.5 589.5 L 1910.0 591.6 L 1908.2 593.6 L 1906.2 595.4 L 1906.2 595.4 L 1903.7 596.9 L 1900.4 598.2 L 1896.5 599.1 L 1892.0 599.8 L 1887.2 600.4 L 1882.1 600.8 L 1876.9 601.2 L 1871.7 601.6 L 1866.6 602.0 L 1861.8 602.6 L 1857.3 603.4 L 1853.4 604.3 L 1850.0 605.6 L 1847.5 607.1 L 1845.7 609.1 L 1845.0 611.6 L 1845.0 611.6 L 1845.6 614.6 L 1847.4 618.4 L 1850.4 622.8 L 1854.2 627.6 L 1858.8 632.9 L 1863.8 638.3 L 1869.2 643.9 L 1874.8 649.5 L 1880.3 655.0 L 1885.5 660.3 L 1890.3 665.3 L 1894.5 669.8 L 1897.8 673.8 L 1900.1 677.0 L 1901.2 679.5 L 1900.9 681.1 L 1900.9 681.1 L 1899.2 681.7 L 1896.2 681.4 L 1892.3 680.3 L 1887.4 678.6 L 1881.7 676.4 L 1875.5 673.6 L 1868.7 670.6 L 1861.7 667.3 L 1854.4 663.9 L 1847.1 660.5 L 1839.9 657.2 L 1832.9 654.1 L 1826.3 651.3 L 1820.3 648.9 L 1814.9 647.0 L 1810.4 645.8 L 1810.4 645.8 L 1806.5 645.1 L 1802.9 644.6 L 1799.7 644.3 L 1796.7 644.3 L 1793.9 644.5 L 1791.4 644.8 L 1789.0 645.3 L 1786.8 645.9 L 1784.7 646.6 L 1782.7 647.4 L 1780.7 648.3 L 1778.7 649.3 L 1776.6 650.3 L 1774.5 651.2 L 1772.3 652.2 L 1770.0 653.1 L 1770.0 653.1 L 1767.7 654.3 L 1765.6 655.8 L 1763.5 657.6 L 1761.6 659.6 L 1759.7 661.7 L 1757.9 664.0 L 1756.1 666.2 L 1754.2 668.4 L 1752.2 670.5 L 1750.1 672.3 L 1747.9 673.9 L 1745.5 675.2 L 1742.9 676.0 L 1740.1 676.3 L 1736.9 676.1 L 1733.5 675.2 L 1733.5 675.2 L 1729.8 673.7 L 1725.8 671.5 L 1721.5 668.7 L 1717.1 665.3 L 1712.4 661.6 L 1707.6 657.5 L 1702.7 653.2 L 1697.6 648.6 L 1692.4 644.0 L 1687.1 639.3 L 1681.7 634.7 L 1676.3 630.1 L 1670.9 625.8 L 1665.5 621.8 L 1660.0 618.1 L 1654.7 614.8 L 1654.7 614.8 L 1649.3 611.9 L 1643.8 609.0 L 1638.3 606.3 L 1632.7 603.6 L 1627.1 601.0 L 1621.4 598.6 L 1615.7 596.2 L 1609.9 593.9 L 1604.0 591.7 L 1598.2 589.6 L 1592.3 587.6 L 1586.4 585.7 L 1580.5 583.9 L 1574.5 582.3 L 1568.5 580.7 L 1562.6 579.2 L 1562.6 579.2 L 1556.6 577.8 L 1550.6 576.7 L 1544.5 575.7 L 1538.4 574.8 L 1532.2 574.1 L 1526.0 573.4 L 1519.8 572.9 L 1513.6 572.4 L 1507.4 572.0 L 1501.2 571.6 L 1494.9 571.2 L 1488.7 570.8 L 1482.5 570.4 L 1476.2 569.9 L 1470.0 569.3 L 1463.8 568.7 L 1463.8 568.7 L 1457.7 568.0 L 1451.5 567.4 L 1445.3 566.8 L 1439.1 566.2 L 1433.0 565.5 L 1426.8 564.9 L 1420.6 564.3 L 1414.4 563.7 L 1408.2 563.0 L 1402.1 562.3 L 1395.9 561.6 L 1389.7 560.9 L 1383.6 560.1 L 1377.4 559.3 L 1371.3 558.4 L 1365.2 557.5 L 1365.2 557.5 L 1359.0 556.5 L 1352.9 555.5 L 1346.8 554.4 L 1340.7 553.2 L 1334.6 552.0 L 1328.5 550.8 L 1322.5 549.5 L 1316.4 548.2 L 1310.3 546.9 L 1304.2 545.6 L 1298.1 544.3 L 1292.1 543.0 L 1286.0 541.8 L 1279.9 540.5 L 1273.8 539.3 L 1267.7 538.1 L 1267.7 538.1 L 1261.6 536.9 L 1255.5 535.7 L 1249.4 534.5 L 1243.3 533.3 L 1237.3 532.0 L 1231.2 530.8 L 1225.1 529.6 L 1219.0 528.4 L 1212.9 527.3 L 1206.8 526.1 L 1200.7 525.0 L 1194.6 523.9 L 1188.4 522.8 L 1182.3 521.8 L 1176.2 520.8 L 1170.1 519.9 L 1170.1 519.9 L 1163.9 519.0 L 1157.8 518.1 L 1151.6 517.3 L 1145.5 516.5 L 1139.3 515.7 L 1133.1 514.9 L 1127.0 514.2 L 1120.8 513.5 L 1114.6 512.9 L 1108.4 512.2 L 1102.2 511.6 L 1096.1 511.0 L 1089.9 510.5 L 1083.7 510.0 L 1077.5 509.5 L 1071.3 509.0 L 1071.3 509.0 L 1065.1 508.5 L 1058.9 508.1 L 1052.7 507.7 L 1046.5 507.4 L 1040.3 507.0 L 1034.1 506.7 L 1027.9 506.4 L 1021.7 506.2 L 1015.5 505.9 L 1009.3 505.7 L 1003.1 505.6 L 996.9 505.4 L 990.7 505.3 L 984.5 505.2 L 978.3 505.1 L 972.0 505.0 L 972.0 505.0 L 965.8 505.0 L 959.6 505.1 L 953.4 505.2 L 947.2 505.3 L 941.0 505.5 L 934.8 505.8 L 928.6 506.0 L 922.4 506.3 L 916.2 506.5 L 910.0 506.8 L 903.8 507.0 L 897.5 507.2 L 891.3 507.4 L 885.1 507.5 L 878.9 507.6 L 872.7 507.6 L 872.7 507.6 L 866.5 507.6 L 860.3 507.6 L 854.1 507.6 L 847.9 507.6 L 841.7 507.6 L 835.4 507.6 L 829.2 507.5 L 823.0 507.4 L 816.8 507.3 L 810.6 507.1 L 804.4 506.9 L 798.2 506.7 L 792.0 506.4 L 785.8 506.0 L 779.6 505.6 L 773.4 505.1 L 773.4 505.1 L 767.3 504.6 L 761.1 504.0 L 754.9 503.4 L 748.7 502.7 L 742.6 502.0 L 736.4 501.3 L 730.2 500.5 L 724.1 499.6 L 717.9 498.8 L 711.8 497.8 L 705.6 496.9 L 699.5 495.9 L 693.4 494.8 L 687.3 493.7 L 681.2 492.6 L 675.1 491.4 L 675.1 491.4 L 669.0 490.2 L 662.9 489.0 L 656.7 487.8 L 650.6 486.6 L 644.5 485.4 L 638.3 484.1 L 632.2 482.8 L 626.1 481.4 L 620.1 479.9 L 614.0 478.4 L 608.0 476.7 L 602.1 475.0 L 596.2 473.1 L 590.4 471.1 L 584.6 468.9 L 579.0 466.6 L 579.0 466.6 L 573.3 464.2 L 567.7 461.7 L 562.1 459.0 L 556.6 456.3 L 551.0 453.4 L 545.5 450.5 L 540.1 447.4 L 534.7 444.2 L 529.4 441.0 L 524.2 437.6 L 519.0 434.1 L 514.0 430.5 L 509.0 426.8 L 504.2 423.1 L 499.5 419.2 L 494.9 415.2 L 494.9 415.2 L 490.4 411.0 L 486.0 406.7 L 481.8 402.3 L 477.7 397.7 L 473.7 393.0 L 469.8 388.2 L 466.0 383.3 L 462.3 378.3 L 458.6 373.2 L 454.9 368.1 L 451.4 363.0 L 447.8 357.8 L 444.3 352.6 L 440.8 347.4 L 437.3 342.3 L 433.7 337.2 L 433.7 337.2 L 430.3 332.0 L 426.9 326.8 L 423.6 321.6 L 420.4 316.3 L 417.3 310.9 L 414.1 305.5 L 411.1 300.1 L 408.0 294.7 L 404.9 289.3 L 401.8 283.9 L 398.7 278.5 L 395.6 273.1 L 392.3 267.8 L 389.1 262.5 L 385.7 257.3 L 382.2 252.2 L 382.2 252.2 L 378.7 247.1 L 375.2 242.0 L 371.6 236.9 L 368.0 231.8 L 364.4 226.7 L 360.8 221.7 L 357.1 216.7 L 353.3 211.7 L 349.5 206.8 L 345.7 201.9 L 341.8 197.1 L 337.8 192.3 L 333.8 187.6 L 329.7 183.0 L 325.5 178.4 L 321.3 174.0 L 321.3 174.0 L 316.9 169.6 L 312.5 165.3 L 308.0 161.0 L 303.4 156.9 L 298.8 152.8 L 294.1 148.7 L 289.3 144.8 L 284.5 140.8 L 279.6 136.9 L 274.7 133.1 L 269.8 129.3 L 264.8 125.5 L 259.8 121.8 L 254.9 118.1 L 249.9 114.4 L 244.9 110.7 L 244.9 110.7 L 239.9 107.1 L 234.8 103.5 L 229.7 100.0 L 224.5 96.5 L 219.4 93.1 L 214.2 89.7 L 208.9 86.3 L 203.7 83.0 L 198.4 79.7 L 193.1 76.4 L 187.9 73.1 L 182.6 69.8 L 177.3 66.5 L 172.0 63.3 L 166.8 60.0 L 161.5 56.6 L 161.5 56.6 L 156.1 53.2 L 150.4 49.6 L 144.6 45.9 L 138.5 42.2 L 132.4 38.3 L 126.3 34.5 L 120.1 30.7 L 114.1 27.0 L 108.3 23.3 L 102.7 19.9 L 97.3 16.6 L 92.4 13.5 L 87.8 10.6 L 83.7 8.1 L 80.1 5.9 L 77.2 4.1" fill="none" stroke="#ff7a1a" stroke-width="6.0" stroke-opacity="0.9"/><path d="M 666.9 0.0 L 671.4 5.1 L 676.1 10.4 L 680.7 15.8 L 685.2 21.3 L 685.2 21.3 L 689.6 26.9 L 693.9 32.5 L 698.2 38.2 L 702.3 44.0 L 706.4 49.8 L 710.4 55.7 L 714.4 61.6 L 718.3 67.6 L 722.2 73.6 L 726.0 79.6 L 729.9 85.6 L 733.7 91.6 L 737.5 97.7 L 741.3 103.7 L 745.1 109.7 L 748.9 115.7 L 748.9 115.7 L 752.7 121.8 L 756.4 127.9 L 760.0 134.0 L 763.6 140.2 L 767.1 146.4 L 770.7 152.7 L 774.2 158.9 L 777.7 165.2 L 781.2 171.4 L 784.8 177.6 L 788.4 183.7 L 792.1 189.8 L 795.9 195.8 L 799.8 201.7 L 803.8 207.6 L 807.9 213.4 L 807.9 213.4 L 812.1 219.1 L 816.4 224.8 L 820.7 230.5 L 825.1 236.2 L 829.5 241.9 L 834.0 247.5 L 838.6 253.0 L 843.2 258.5 L 848.0 263.9 L 852.8 269.2 L 857.7 274.4 L 862.7 279.5 L 867.8 284.4 L 873.0 289.1 L 878.3 293.7 L 883.7 298.1 L 883.7 298.1 L 889.3 302.4 L 895.0 306.5 L 900.8 310.5 L 906.8 314.4 L 912.9 318.2 L 919.0 321.8 L 925.3 325.3 L 931.6 328.7 L 938.0 332.0 L 944.4 335.1 L 951.0 338.1 L 957.5 341.0 L 964.1 343.7 L 970.7 346.3 L 977.4 348.7 L 984.0 351.0 L 984.0 351.0 L 990.7 353.1 L 997.5 355.0 L 1004.3 356.7 L 1011.2 358.2 L 1018.2 359.5 L 1025.2 360.8 L 1032.3 361.9 L 1039.4 362.8 L 1046.5 363.7 L 1053.6 364.6 L 1060.8 365.3 L 1067.9 366.1 L 1075.1 366.8 L 1082.2 367.5 L 1089.3 368.3 L 1096.4 369.1 L 1096.4 369.1 L 1103.5 369.8 L 1110.6 370.5 L 1117.7 371.1 L 1124.8 371.6 L 1131.9 372.1 L 1139.0 372.5 L 1146.1 372.9 L 1153.3 373.2 L 1160.4 373.6 L 1167.5 374.0 L 1174.6 374.3 L 1181.8 374.7 L 1188.9 375.2 L 1196.0 375.7 L 1203.1 376.2 L 1210.2 376.8 L 1210.2 376.8 L 1217.3 377.5 L 1224.4 378.2 L 1231.5 378.9 L 1238.6 379.6 L 1245.7 380.3 L 1252.8 381.0 L 1259.9 381.8 L 1267.0 382.6 L 1274.1 383.4 L 1281.1 384.3 L 1288.2 385.2 L 1295.3 386.1 L 1302.4 387.0 L 1309.4 388.0 L 1316.5 389.0 L 1323.5 390.0 L 1323.5 390.0 L 1330.6 391.1 L 1337.6 392.3 L 1344.6 393.5 L 1351.6 394.9 L 1358.6 396.2 L 1365.6 397.6 L 1372.6 399.0 L 1379.6 400.4 L 1386.6 401.9 L 1393.6 403.3 L 1400.6 404.6 L 1407.6 406.0 L 1414.7 407.2 L 1421.7 408.5 L 1428.7 409.6 L 1435.7 410.7 L 1435.7 410.7 L 1442.8 411.7 L 1449.9 413.0 L 1457.1 414.3 L 1464.3 415.6 L 1471.5 417.0 L 1478.7 418.4 L 1485.9 419.7 L 1493.1 420.9 L 1500.3 421.9 L 1507.4 422.8 L 1514.5 423.5 L 1521.5 423.9 L 1528.5 424.0 L 1535.3 423.7 L 1542.1 423.1 L 1548.8 422.1 L 1548.8 422.1 L 1555.4 420.7 L 1562.1 419.0 L 1568.7 417.0 L 1575.2 414.7 L 1581.8 412.1 L 1588.2 409.3 L 1594.6 406.2 L 1601.0 402.9 L 1607.3 399.5 L 1613.4 395.8 L 1619.5 392.0 L 1625.5 388.1 L 1631.3 384.0 L 1637.0 379.9 L 1642.6 375.6 L 1648.1 371.3 L 1648.1 371.3 L 1653.4 366.5 L 1658.7 361.1 L 1663.9 355.0 L 1669.1 348.6 L 1674.2 341.7 L 1679.2 334.7 L 1684.0 327.7 L 1688.8 320.7 L 1693.4 313.9 L 1697.8 307.5 L 1702.1 301.5 L 1706.2 296.1 L 1710.0 291.4 L 1713.7 287.6 L 1717.1 284.8 L 1720.3 283.1 L 1720.3 283.1 L 1723.3 282.5 L 1726.2 282.6 L 1728.9 283.6 L 1731.5 285.2 L 1733.9 287.4 L 1736.2 290.3 L 1738.2 293.6 L 1740.0 297.4 L 1741.7 301.6 L 1743.1 306.1 L 1744.2 310.9 L 1745.2 315.8 L 1745.8 320.9 L 1746.2 326.0 L 1746.3 331.2 L 1746.1 336.3 L 1746.1 336.3 L 1745.5 341.7 L 1744.3 347.9 L 1742.6 354.7 L 1740.4 361.9 L 1738.0 369.6 L 1735.3 377.5 L 1732.4 385.5 L 1729.3 393.6 L 1726.2 401.5 L 1723.1 409.3 L 1720.2 416.6 L 1717.4 423.6 L 1714.8 429.9 L 1712.5 435.5 L 1710.7 440.4 L 1709.3 444.2" fill="none" stroke="#ff7a1a" stroke-width="6.0" stroke-opacity="0.9"/><path d="M 604.5 501.3 L 604.0 505.1 L 603.2 509.7 L 602.2 515.0 L 601.2 521.0 L 600.0 527.5 L 598.7 534.4 L 597.4 541.7 L 596.2 549.3 L 594.9 557.1 L 593.7 565.1 L 592.6 573.0 L 591.7 581.0 L 590.9 588.8 L 590.3 596.4 L 589.9 603.8 L 589.9 610.8 L 589.9 610.8 L 589.9 617.6 L 590.0 624.5 L 590.1 631.4 L 590.3 638.4 L 590.6 645.5 L 591.0 652.5 L 591.6 659.5 L 592.3 666.4 L 593.2 673.3 L 594.3 680.1 L 595.6 686.8 L 597.1 693.4 L 599.0 699.8 L 601.1 706.0 L 603.6 712.1 L 606.3 717.9 L 606.3 717.9 L 609.5 723.7 L 613.0 729.4 L 616.8 735.0 L 620.9 740.6 L 625.3 746.1 L 629.9 751.5 L 634.7 756.8 L 639.8 761.9 L 645.0 766.8 L 650.4 771.5 L 655.9 776.0 L 661.6 780.2 L 667.3 784.2 L 673.0 787.9 L 678.8 791.2 L 684.6 794.3 L 684.6 794.3 L 690.6 797.0 L 696.7 799.6 L 703.2 801.9 L 709.8 804.1 L 716.5 806.0 L 723.4 807.6 L 730.4 809.0 L 737.4 810.2 L 744.5 811.1 L 751.5 811.7 L 758.5 812.1 L 765.5 812.1 L 772.3 811.9 L 779.0 811.3 L 785.5 810.5 L 791.9 809.3 L 791.9 809.3 L 798.1 807.7 L 804.4 805.7 L 810.6 803.4 L 816.9 800.8 L 823.1 797.8 L 829.3 794.5 L 835.4 791.0 L 841.4 787.2 L 847.2 783.1 L 853.0 778.9 L 858.6 774.5 L 864.0 770.0 L 869.2 765.3 L 874.1 760.5 L 878.9 755.7 L 883.3 750.7 L 883.3 750.7 L 887.5 745.7 L 891.5 740.3 L 895.3 734.7 L 898.9 728.9 L 902.3 722.9 L 905.5 716.8 L 908.5 710.5 L 911.4 704.1 L 914.1 697.5 L 916.8 690.9 L 919.3 684.3 L 921.7 677.6 L 924.0 670.9 L 926.2 664.3 L 928.4 657.7 L 930.5 651.1 L 930.5 651.1 L 932.5 644.4 L 934.4 637.2 L 936.2 629.8 L 937.9 622.1 L 939.4 614.2 L 940.9 606.3 L 942.2 598.4 L 943.4 590.6 L 944.6 583.0 L 945.6 575.7 L 946.6 568.8 L 947.5 562.3 L 948.3 556.3 L 949.1 551.0 L 949.8 546.4 L 950.4 542.6" fill="none" stroke="#ff7a1a" stroke-width="6.0" stroke-opacity="0.9"/><path d="M 701.6 606.3 L 700.9 605.6 L 700.0 604.8 L 698.9 603.9 L 697.7 603.0 L 696.3 601.9 L 694.9 600.8 L 693.4 599.6 L 691.8 598.3 L 690.3 597.0 L 688.8 595.6 L 687.4 594.2 L 686.1 592.8 L 684.9 591.3 L 683.8 589.8 L 683.0 588.4 L 682.3 586.9 L 682.3 586.9 L 681.8 585.3 L 681.4 583.7 L 681.2 582.0 L 681.0 580.3 L 680.9 578.5 L 680.9 576.7 L 681.0 574.9 L 681.2 573.0 L 681.4 571.1 L 681.7 569.2 L 682.0 567.3 L 682.4 565.5 L 682.8 563.6 L 683.2 561.8 L 683.7 560.1 L 684.1 558.4 L 684.1 558.4 L 684.7 556.7 L 685.4 554.9 L 686.2 553.1 L 687.0 551.2 L 688.0 549.4 L 689.0 547.5 L 690.0 545.7 L 691.1 543.9 L 692.1 542.2 L 693.1 540.6 L 694.1 539.0 L 695.0 537.5 L 695.9 536.2 L 696.6 535.0 L 697.2 533.9 L 697.7 533.1" fill="none" stroke="#ff7a1a" stroke-width="6.0" stroke-opacity="0.9"/><path d="M 1590.5 391.1 L 1589.6 389.2 L 1588.8 386.7 L 1588.0 383.6 L 1587.2 380.2 L 1586.3 376.4 L 1585.3 372.4 L 1584.2 368.3 L 1582.9 364.2 L 1581.4 360.1 L 1579.7 356.1 L 1577.7 352.4 L 1575.3 349.1 L 1572.6 346.2 L 1569.5 343.8 L 1566.0 342.0 L 1562.0 341.0 L 1562.0 341.0 L 1557.5 340.8 L 1552.4 341.2 L 1546.9 342.3 L 1540.9 343.8 L 1534.5 345.8 L 1527.8 348.2 L 1520.9 350.8 L 1513.7 353.5 L 1506.3 356.4 L 1498.9 359.2 L 1491.4 361.9 L 1483.9 364.5 L 1476.5 366.8 L 1469.1 368.7 L 1462.0 370.2 L 1455.0 371.1 L 1455.0 371.1 L 1448.2 371.6 L 1441.3 371.9 L 1434.4 372.0 L 1427.5 371.8 L 1420.6 371.4 L 1413.6 370.9 L 1406.6 370.3 L 1399.6 369.5 L 1392.6 368.6 L 1385.6 367.7 L 1378.7 366.7 L 1371.7 365.7 L 1364.7 364.6 L 1357.7 363.6 L 1350.8 362.7 L 1343.8 361.7 L 1343.8 361.7 L 1336.9 360.8 L 1330.0 359.9 L 1323.1 358.8 L 1316.2 357.7 L 1309.3 356.6 L 1302.4 355.4 L 1295.6 354.2 L 1288.7 353.0 L 1281.8 351.7 L 1274.9 350.5 L 1268.0 349.2 L 1261.1 347.9 L 1254.3 346.7 L 1247.4 345.5 L 1240.5 344.3 L 1233.6 343.1 L 1233.6 343.1 L 1226.7 342.0 L 1219.8 340.8 L 1212.9 339.7 L 1206.0 338.5 L 1199.1 337.3 L 1192.3 336.1 L 1185.4 335.0 L 1178.5 333.8 L 1171.6 332.7 L 1164.7 331.6 L 1157.8 330.5 L 1150.9 329.4 L 1144.0 328.3 L 1137.1 327.3 L 1130.1 326.4 L 1123.2 325.4 L 1123.2 325.4 L 1116.3 324.6 L 1109.4 323.8 L 1102.4 323.1 L 1095.4 322.4 L 1088.5 321.8 L 1081.5 321.2 L 1074.5 320.6 L 1067.6 320.0 L 1060.6 319.5 L 1053.6 318.9 L 1046.7 318.3 L 1039.7 317.6 L 1032.8 316.9 L 1025.8 316.2 L 1018.9 315.3 L 1012.0 314.4 L 1012.0 314.4 L 1004.9 313.4 L 997.4 312.3 L 989.7 311.1 L 981.8 309.8 L 973.8 308.4 L 965.8 307.0 L 957.8 305.6 L 950.0 304.2 L 942.4 302.8 L 935.1 301.5 L 928.1 300.2 L 921.6 299.0 L 915.7 297.9 L 910.4 296.9 L 905.7 296.1 L 901.9 295.4" fill="none" stroke="#ff7a1a" stroke-width="6.0" stroke-opacity="0.9"/></g><g id="clips"><circle cx="1753.0" cy="415.7" r="2" fill="none" stroke="#0b5" stroke-width="0.6"/><circle cx="77.2" cy="4.1" r="2" fill="none" stroke="#0b5" stroke-width="0.6"/><circle cx="666.9" cy="0.0" r="2" fill="none" stroke="#0b5" stroke-width="0.6"/><circle cx="1709.3" cy="444.2" r="2" fill="none" stroke="#0b5" stroke-width="0.6"/><circle cx="604.5" cy="501.3" r="2" fill="none" stroke="#0b5" stroke-width="0.6"/><circle cx="950.4" cy="542.6" r="2" fill="none" stroke="#0b5" stroke-width="0.6"/><circle cx="701.6" cy="606.3" r="2" fill="none" stroke="#0b5" stroke-width="0.6"/><circle cx="1590.5" cy="391.1" r="2" fill="none" stroke="#0b5" stroke-width="0.6"/><circle cx="901.9" cy="295.4" r="2" fill="none" stroke="#0b5" stroke-width="0.6"/></g><g id="power"><circle cx="666.9" cy="0.0" r="5" fill="none" stroke="#e33" stroke-width="1"/></g><g id="bridges"><circle cx="609.2" cy="489.8" r="9" fill="none" stroke="#e6a817" stroke-width="1.5"/><circle cx="890.1" cy="294.5" r="9" fill="none" stroke="#e6a817" stroke-width="1.5"/><circle cx="930.2" cy="313.4" r="9" fill="none" stroke="#e6a817" stroke-width="1.5"/><circle cx="1586.1" cy="401.6" r="9" fill="none" stroke="#e6a817" stroke-width="1.5"/><circle cx="1585.7" cy="400.6" r="9" fill="none" stroke="#e6a817" stroke-width="1.5"/></g></svg>