<svg xmlns="http://www.w3.org/2000/svg" width="2000mm" height="1000mm" viewBox="0 0 2000 1000"><g id="outline"><rect x="0" y="0" width="2000" height="1000" fill="none" stroke="#000" stroke-width="1"/></g><g id="channels"><path d="M 0.0 722.6 L 3.6 724.3 L 10.0 727.3 L 16.5 730.4 L 23.0 733.4 L 29.4 736.5 L 29.4 736.5 L 35.8 739.5 L 42.3 742.6 L 48.7 745.6 L 55.2 748.7 L 61.6 751.7 L 68.0 754.8 L 74.5 757.9 L 80.9 761.0 L 87.4 764.0 L 93.8 767.1 L 100.2 770.2 L 106.7 773.3 L 113.1 776.3 L 119.5 779.4 L 126.0 782.5 L 132.4 785.5 L 132.4 785.5 L 138.8 788.6 L 145.3 791.6 L 151.8 794.6 L 158.2 797.7 L 164.7 800.7 L 171.2 803.7 L 177.6 806.7 L 184.1 809.7 L 190.5 812.7 L 197.0 815.8 L 203.4 818.8 L 209.9 821.9 L 216.3 825.0 L 222.7 828.1 L 229.1 831.3 L 235.5 834.5 L 235.5 834.5 L 241.8 837.6 L 248.2 840.8 L 254.6 844.0 L 261.1 847.1 L 267.5 850.3 L 273.9 853.5 L 280.3 856.7 L 286.6 859.9 L 293.0 863.2 L 299.3 866.5 L 305.6 869.9 L 311.8 873.3 L 318.0 876.9 L 324.1 880.5 L 330.2 884.2 L 336.2 888.0 L 336.2 888.0 L 342.1 891.9 L 348.0 895.9 L 353.8 899.9 L 359.6 904.1 L 365.4 908.3 L 371.1 912.5 L 376.7 916.8 L 382.4 921.2 L 388.0 925.7 L 393.5 930.2 L 399.0 934.7 L 404.5 939.3 L 409.9 943.9 L 415.3 948.5 L 420.7 953.2 L 426.0 957.9 L 426.0 957.9 L 431.3 962.7 L 436.6 967.5 L 441.8 972.4 L 446.9 977.3 L 452.0 982.3 L 457.0 987.3 L 462.0 992.4 L 467.0 997.5 L 469.4 1000.0" fill="none" stroke="#ff7a1a" stroke-width="6.0" stroke-opacity="0.9"/></g><g id="clips"><circle cx="0.0" cy="722.6" r="2" fill="none" stroke="#0b5" stroke-width="0.6"/><circle cx="469.4" cy="1000.0" r="2" fill="none" stroke="#0b5" stroke-width="0.6"/></g><g id="power"><circle cx="0.0" cy="722.6" r="5" fill="none" stroke="#e33" stroke-width="1"/><circle cx="469.4" cy="1000.0" r="5" fill="none" stroke="#e33" stroke-width="1"/></g></svg>