<svg xmlns="http://www.w3.org/2000/svg" width="2000mm" height="1000mm" viewBox="0 0 2000 1000"><g id="outline"><rect x="0" y="0" width="2000" height="1000" fill="none" stroke="#000" stroke-width="1"/></g><g id="channels"><path d="M 0.0 414.0 L 0.9 416.5 L 3.2 422.8 L 5.4 429.1 L 7.5 435.4 L 9.6 441.7 L 11.5 448.1 L 13.3 454.5 L 13.3 454.5 L 15.0 460.9 L 16.6 467.3 L 18.2 473.7 L 19.8 480.2 L 21.3 486.6 L 22.7 493.1 L 24.2 499.6 L 25.6 506.0 L 27.0 512.5 L 28.3 519.0 L 29.7 525.5 L 31.0 532.0 L 32.3 538.5 L 33.6 545.0 L 34.8 551.5 L 36.1 558.0 L 36.1 558.0 L 37.3 564.5 L 38.4 571.1 L 39.4 577.6 L 40.4 584.2 L 41.3 590.8 L 42.3 597.4 L 43.1 604.0 L 44.1 610.5 L 45.0 617.1 L 45.9 623.7 L 47.0 630.2 L 48.1 636.8 L 49.2 643.3 L 50.5 649.8 L 51.9 656.2 L 53.5 662.6 L 53.5 662.6 L 55.3 669.0 L 57.5 675.4 L 60.0 681.8 L 62.7 688.1 L 65.6 694.5 L 68.6 700.8 L 71.6 707.1 L 74.5 713.4 L 77.3 719.7 L 80.0 725.9 L 82.4 732.1 L 84.4 738.3 L 86.1 744.5 L 87.3 750.7 L 88.0 756.8 L 88.0 762.9 L 88.0 762.9 L 87.5 769.1 L 86.6 775.2 L 85.1 781.4 L 83.3 787.5 L 81.1 793.7 L 78.6 799.8 L 75.8 806.0 L 72.8 812.0 L 69.7 818.1 L 66.3 824.0 L 62.9 829.9 L 59.4 835.7 L 55.9 841.5 L 52.4 847.1 L 48.9 852.6 L 45.6 857.9 L 45.6 857.9 L 42.2 863.3 L 38.4 868.8 L 34.4 874.3 L 30.1 879.8 L 25.7 885.3 L 21.2 890.7 L 16.6 896.0 L 12.1 901.2 L 7.7 906.2 L 3.4 911.0 L 0.0 914.7" fill="none" stroke="#ffd23d" stroke-width="6.0" stroke-opacity="0.9"/></g><g id="clips"><circle cx="0.0" cy="414.0" r="2" fill="none" stroke="#0b5" stroke-width="0.6"/><circle cx="0.0" cy="914.7" r="2" fill="none" stroke="#0b5" stroke-width="0.6"/></g><g id="power"><circle cx="0.0" cy="413.9" r="5" fill="none" stroke="#e33" stroke-width="1"/><circle cx="0.0" cy="914.8" r="5" fill="none" stroke="#e33" stroke-width="1"/></g></svg>