<svg xmlns="http://www.w3.org/2000/svg" width="2000mm" height="1000mm" viewBox="0 0 2000 1000"><g id="outline"><rect x="0" y="0" width="2000" height="1000" fill="none" stroke="#000" stroke-width="1"/></g><g id="channels"><path d="M 1974.7 952.9 L 1970.7 952.4 L 1965.9 952.0 L 1960.3 951.6 L 1954.1 951.1 L 1947.3 950.6 L 1940.0 950.1 L 1932.3 949.5 L 1924.4 948.8 L 1916.3 948.0 L 1908.0 947.1 L 1899.8 946.1 L 1891.6 944.8 L 1883.7 943.4 L 1875.9 941.8 L 1868.6 940.0 L 1861.7 938.0 L 1861.7 938.0 L 1855.1 935.7 L 1848.6 933.3 L 1842.0 930.7 L 1835.5 927.9 L 1829.0 924.9 L 1822.6 921.8 L 1816.3 918.6 L 1810.0 915.2 L 1803.8 911.6 L 1797.7 908.0 L 1791.6 904.2 L 1785.7 900.2 L 1779.9 896.2 L 1774.1 892.1 L 1768.5 887.8 L 1763.0 883.5 L 1763.0 883.5 L 1757.7 878.9 L 1752.6 874.1 L 1747.7 869.0 L 1743.0 863.8 L 1738.4 858.4 L 1733.9 852.8 L 1729.5 847.2 L 1725.1 841.4 L 1720.7 835.7 L 1716.3 829.9 L 1711.9 824.2 L 1707.4 818.5 L 1702.9 813.0 L 1698.2 807.6 L 1693.4 802.3 L 1688.4 797.3 L 1688.4 797.3 L 1683.2 792.4 L 1678.0 787.6 L 1672.6 783.0 L 1667.2 778.3 L 1661.8 773.8 L 1656.2 769.3 L 1650.7 764.9 L 1645.0 760.5 L 1639.4 756.2 L 1633.7 751.9 L 1628.0 747.5 L 1622.4 743.2 L 1616.7 738.9 L 1611.0 734.6 L 1605.4 730.2 L 1599.8 725.8 L 1599.8 725.8 L 1594.2 721.4 L 1588.6 717.0 L 1583.0 712.6 L 1577.4 708.2 L 1571.7 703.9 L 1566.0 699.6 L 1560.4 695.2 L 1554.7 690.9 L 1549.1 686.5 L 1543.4 682.2 L 1537.8 677.8 L 1532.2 673.4 L 1526.6 669.0 L 1521.1 664.5 L 1515.5 660.0 L 1510.0 655.5 L 1510.0 655.5 L 1504.6 650.9 L 1499.1 646.3 L 1493.8 641.6 L 1488.4 636.8 L 1483.1 632.1 L 1477.8 627.3 L 1472.5 622.5 L 1467.3 617.7 L 1462.0 612.9 L 1456.7 608.1 L 1451.4 603.3 L 1446.1 598.6 L 1440.7 593.9 L 1435.3 589.2 L 1429.8 584.7 L 1424.4 580.1 L 1424.4 580.1 L 1418.8 575.6 L 1413.4 571.0 L 1407.9 566.3 L 1402.4 561.5 L 1397.0 556.8 L 1391.5 552.1 L 1385.9 547.4 L 1380.4 542.8 L 1374.8 538.3 L 1369.1 533.9 L 1363.4 529.7 L 1357.5 525.7 L 1351.6 521.9 L 1345.6 518.4 L 1339.5 515.1 L 1333.3 512.1 L 1333.3 512.1 L 1326.9 509.4 L 1320.4 507.0 L 1313.7 504.9 L 1307.0 503.0 L 1300.2 501.3 L 1293.3 499.8 L 1286.3 498.5 L 1279.2 497.3 L 1272.2 496.2 L 1265.0 495.2 L 1257.9 494.3 L 1250.8 493.4 L 1243.6 492.5 L 1236.5 491.6 L 1229.4 490.7 L 1222.4 489.8 L 1222.4 489.8 L 1215.4 488.9 L 1208.3 488.1 L 1201.2 487.5 L 1194.1 487.0 L 1187.0 486.6 L 1179.9 486.2 L 1172.7 485.9 L 1165.6 485.6 L 1158.5 485.3 L 1151.3 484.9 L 1144.2 484.5 L 1137.1 484.0 L 1130.0 483.4 L 1122.9 482.6 L 1115.9 481.7 L 1108.9 480.6 L 1108.9 480.6 L 1101.9 479.3 L 1094.9 477.8 L 1088.0 476.2 L 1081.1 474.5 L 1074.2 472.7 L 1067.3 470.9 L 1060.5 468.9 L 1053.6 466.9 L 1046.8 464.9 L 1039.9 462.8 L 1033.1 460.8 L 1026.2 458.7 L 1019.4 456.7 L 1012.5 454.8 L 1005.6 452.9 L 998.7 451.1 L 998.7 451.1 L 991.8 449.4 L 984.9 447.6 L 978.0 445.7 L 971.1 443.9 L 964.2 442.1 L 957.3 440.3 L 950.4 438.5 L 943.4 436.7 L 936.5 435.0 L 929.6 433.3 L 922.7 431.7 L 915.7 430.1 L 908.7 428.7 L 901.8 427.3 L 894.8 426.0 L 887.8 424.8 L 887.8 424.8 L 880.7 423.8 L 873.7 422.8 L 866.6 421.9 L 859.5 421.1 L 852.5 420.3 L 845.4 419.7 L 838.2 419.0 L 831.1 418.5 L 824.0 418.0 L 816.9 417.5 L 809.7 417.1 L 802.6 416.8 L 795.5 416.5 L 788.3 416.2 L 781.2 415.9 L 774.1 415.7 L 774.1 415.7 L 767.0 415.5 L 759.9 415.2 L 752.7 415.0 L 745.6 414.8 L 738.4 414.7 L 731.3 414.6 L 724.1 414.5 L 716.9 414.5 L 709.8 414.6 L 702.7 414.7 L 695.5 414.9 L 688.4 415.3 L 681.3 415.7 L 674.3 416.3 L 667.2 417.0 L 660.2 417.9 L 660.2 417.9 L 653.1 419.0 L 646.1 420.5 L 639.1 422.3 L 632.1 424.3 L 625.1 426.6 L 618.1 428.9 L 611.1 431.3 L 604.1 433.7 L 597.2 436.1 L 590.3 438.3 L 583.4 440.3 L 576.5 442.0 L 569.7 443.4 L 562.9 444.5 L 556.2 445.0 L 549.5 445.1 L 549.5 445.1 L 542.9 444.8 L 536.2 444.1 L 529.5 443.2 L 522.8 442.0 L 516.2 440.6 L 509.6 438.9 L 503.0 437.0 L 496.4 434.9 L 490.0 432.6 L 483.6 430.0 L 477.3 427.3 L 471.0 424.4 L 464.9 421.3 L 458.9 418.1 L 453.0 414.7 L 447.2 411.2 L 447.2 411.2 L 441.7 407.4 L 436.3 403.2 L 431.1 398.6 L 426.1 393.7 L 421.2 388.6 L 416.4 383.3 L 411.7 377.9 L 407.0 372.3 L 402.4 366.7 L 397.7 361.1 L 392.9 355.5 L 388.1 350.1 L 383.2 344.7 L 378.2 339.6 L 372.9 334.7 L 367.5 330.1 L 367.5 330.1 L 361.9 325.8 L 356.1 321.7 L 350.1 317.8 L 343.9 314.1 L 337.7 310.5 L 331.3 307.0 L 324.9 303.6 L 318.5 300.1 L 312.2 296.7 L 305.9 293.2 L 299.7 289.6 L 293.6 285.9 L 287.6 282.0 L 281.9 278.0 L 276.4 273.7 L 271.2 269.1 L 271.2 269.1 L 266.0 264.4 L 260.8 259.5 L 255.5 254.4 L 250.2 249.3 L 245.0 244.0 L 239.8 238.6 L 234.9 233.1 L 230.1 227.5 L 225.5 221.8 L 221.3 216.0 L 217.4 210.1 L 213.9 204.2 L 210.8 198.2 L 208.2 192.2 L 206.1 186.1 L 204.6 179.9 L 204.6 179.9 L 203.7 173.4 L 203.2 166.4 L 203.2 158.8 L 203.7 151.0 L 204.5 142.8 L 205.7 134.6 L 207.3 126.4 L 209.2 118.3 L 211.4 110.5 L 213.9 103.0 L 216.7 95.9 L 219.6 89.5 L 222.8 83.8 L 226.2 78.9 L 229.7 75.0 L 233.3 72.1 L 233.3 72.1 L 237.2 70.2 L 241.5 69.3 L 246.2 69.2 L 251.2 69.8 L 256.5 71.1 L 262.0 73.0 L 267.8 75.4 L 273.7 78.1 L 279.7 81.3 L 285.9 84.7 L 292.1 88.2 L 298.3 91.9 L 304.4 95.5 L 310.5 99.1 L 316.5 102.5 L 322.3 105.7 L 322.3 105.7 L 328.0 108.9 L 333.8 112.3 L 339.6 115.9 L 345.4 119.7 L 351.2 123.7 L 357.1 127.8 L 363.0 131.9 L 368.8 136.2 L 374.8 140.5 L 380.7 144.8 L 386.6 149.1 L 392.5 153.5 L 398.5 157.7 L 404.5 161.9 L 410.4 166.0 L 416.4 169.9 L 416.4 169.9 L 422.3 173.9 L 428.3 177.8 L 434.2 181.8 L 440.2 185.9 L 446.1 189.9 L 452.0 193.9 L 458.0 197.9 L 464.0 201.9 L 470.0 205.8 L 476.0 209.6 L 482.1 213.4 L 488.2 217.0 L 494.4 220.5 L 500.6 223.8 L 506.9 227.0 L 513.3 230.1 L 513.3 230.1 L 519.8 233.0 L 526.3 235.8 L 532.8 238.5 L 539.4 241.1 L 546.1 243.6 L 552.8 246.0 L 559.6 248.3 L 566.4 250.5 L 573.2 252.6 L 580.1 254.5 L 587.0 256.4 L 593.9 258.1 L 600.8 259.8 L 607.7 261.3 L 614.6 262.7 L 621.6 264.0 L 621.6 264.0 L 628.5 265.1 L 635.5 266.0 L 642.6 266.8 L 649.6 267.4 L 656.7 267.9 L 663.9 268.3 L 671.0 268.6 L 678.1 268.8 L 685.3 268.9 L 692.5 268.9 L 699.7 269.0 L 706.8 268.9 L 714.0 268.9 L 721.2 268.8 L 728.3 268.8 L 735.4 268.7 L 735.4 268.7 L 742.5 268.7 L 749.7 268.5 L 756.8 268.3 L 763.9 268.1 L 771.0 267.8 L 778.2 267.4 L 785.3 267.1 L 792.4 266.6 L 799.5 266.2 L 806.7 265.8 L 813.8 265.4 L 820.9 264.9 L 828.0 264.5 L 835.1 264.2 L 842.3 263.8 L 849.4 263.5 L 849.4 263.5 L 856.5 263.2 L 863.7 263.0 L 870.8 262.8 L 877.9 262.5 L 885.0 262.3 L 892.2 262.1 L 899.3 261.9 L 906.4 261.8 L 913.5 261.6 L 920.7 261.4 L 927.8 261.1 L 934.9 260.9 L 942.1 260.7 L 949.2 260.4 L 956.3 260.1 L 963.4 259.8 L 963.4 259.8 L 970.6 259.5 L 977.7 259.2 L 984.8 258.9 L 991.9 258.5 L 999.1 258.2 L 1006.2 257.8 L 1013.3 257.5 L 1020.4 257.1 L 1027.5 256.7 L 1034.7 256.3 L 1041.8 255.8 L 1048.9 255.4 L 1056.0 254.9 L 1063.1 254.4 L 1070.2 253.8 L 1077.3 253.2 L 1077.3 253.2 L 1084.4 252.6 L 1091.5 251.8 L 1098.6 250.9 L 1105.7 250.0 L 1112.8 249.0 L 1119.9 248.0 L 1127.0 247.0 L 1134.1 245.9 L 1141.2 245.0 L 1148.3 244.0 L 1155.3 243.2 L 1162.4 242.4 L 1169.5 241.7 L 1176.6 241.2 L 1183.6 240.8 L 1190.7 240.6 L 1190.7 240.6 L 1197.8 240.5 L 1204.9 240.5 L 1212.0 240.5 L 1219.1 240.6 L 1226.2 240.7 L 1233.3 241.0 L 1240.4 241.3 L 1247.5 241.7 L 1254.6 242.3 L 1261.7 242.9 L 1268.7 243.7 L 1275.8 244.5 L 1282.7 245.6 L 1289.7 246.7 L 1296.6 248.0 L 1303.5 249.5 L 1303.5 249.5 L 1310.3 251.2 L 1317.2 253.0 L 1323.9 255.1 L 1330.7 257.3 L 1337.4 259.6 L 1344.1 262.1 L 1350.7 264.7 L 1357.4 267.4 L 1364.0 270.1 L 1370.6 273.0 L 1377.2 275.8 L 1383.8 278.7 L 1390.4 281.6 L 1397.0 284.4 L 1403.6 287.3 L 1410.1 290.1 L 1410.1 290.1 L 1416.7 292.8 L 1423.2 295.7 L 1429.8 298.5 L 1436.3 301.4 L 1442.8 304.3 L 1449.3 307.2 L 1455.7 310.2 L 1462.2 313.2 L 1468.7 316.2 L 1475.1 319.2 L 1481.6 322.3 L 1488.0 325.3 L 1494.4 328.4 L 1500.9 331.5 L 1507.3 334.6 L 1513.7 337.7 L 1513.7 337.7 L 1520.1 340.8 L 1526.5 344.0 L 1532.9 347.2 L 1539.2 350.4 L 1545.6 353.7 L 1551.9 356.9 L 1558.2 360.2 L 1564.5 363.5 L 1570.9 366.8 L 1577.2 370.1 L 1583.5 373.4 L 1589.9 376.6 L 1596.2 379.8 L 1602.6 383.0 L 1609.0 386.2 L 1615.4 389.3 L 1615.4 389.3 L 1621.9 392.3 L 1628.4 395.3 L 1634.8 398.2 L 1641.4 401.1 L 1647.9 404.0 L 1654.4 406.8 L 1661.0 409.7 L 1667.5 412.5 L 1674.1 415.3 L 1680.6 418.2 L 1687.1 421.1 L 1693.7 423.9 L 1700.2 426.9 L 1706.6 429.8 L 1713.1 432.8 L 1719.5 435.9 L 1719.5 435.9 L 1725.9 439.1 L 1732.3 442.2 L 1738.7 445.5 L 1745.0 448.7 L 1751.3 452.0 L 1757.6 455.3 L 1764.0 458.7 L 1770.2 462.0 L 1776.5 465.4 L 1782.8 468.7 L 1789.1 472.1 L 1795.4 475.4 L 1801.7 478.8 L 1808.0 482.1 L 1814.4 485.4 L 1820.7 488.6 L 1820.7 488.6 L 1827.1 491.8 L 1833.4 495.1 L 1839.8 498.3 L 1846.2 501.5 L 1852.5 504.7 L 1858.9 507.9 L 1865.3 511.1 L 1871.7 514.2 L 1878.1 517.4 L 1884.5 520.6 L 1890.9 523.7 L 1897.3 526.9 L 1903.7 530.0 L 1910.1 533.1 L 1916.5 536.2 L 1922.9 539.4 L 1922.9 539.4 L 1929.3 542.5 L 1935.8 545.5 L 1942.2 548.6 L 1948.6 551.7 L 1955.1 554.7 L 1961.5 557.8 L 1968.0 560.8 L 1974.4 563.9 L 1980.9 566.9 L 1987.3 569.9 L 1993.8 572.9 L 2000.0 575.9" fill="none" stroke="#ff7a1a" stroke-width="6.0" stroke-opacity="0.9"/><path d="M 1336.7 596.0 L 1333.1 597.5 L 1328.8 599.3 L 1323.9 601.2 L 1318.3 603.4 L 1312.2 605.8 L 1305.7 608.4 L 1298.9 611.1 L 1291.8 614.0 L 1284.6 617.0 L 1277.2 620.1 L 1269.9 623.3 L 1262.7 626.6 L 1255.7 630.0 L 1249.0 633.5 L 1242.6 637.0 L 1236.7 640.5 L 1236.7 640.5 L 1231.0 644.1 L 1225.2 647.7 L 1219.4 651.3 L 1213.6 655.1 L 1207.8 658.9 L 1202.1 662.8 L 1196.5 666.9 L 1191.0 671.0 L 1185.7 675.2 L 1180.5 679.6 L 1175.5 684.1 L 1170.8 688.8 L 1166.3 693.6 L 1162.2 698.6 L 1158.3 703.8 L 1154.8 709.1 L 1154.8 709.1 L 1151.8 714.8 L 1149.5 721.1 L 1147.7 727.7 L 1146.4 734.7 L 1145.4 741.9 L 1144.7 749.4 L 1144.1 756.9 L 1143.6 764.4 L 1143.1 771.8 L 1142.5 779.1 L 1141.6 786.1 L 1140.3 792.8 L 1138.7 799.1 L 1136.5 804.9 L 1133.7 810.2 L 1130.2 814.8 L 1130.2 814.8 L 1126.1 818.7 L 1121.4 822.3 L 1116.3 825.4 L 1110.7 828.1 L 1104.8 830.4 L 1098.6 832.5 L 1092.2 834.3 L 1085.5 835.8 L 1078.6 837.2 L 1071.7 838.4 L 1064.6 839.4 L 1057.6 840.4 L 1050.6 841.3 L 1043.6 842.2 L 1036.8 843.1 L 1030.2 844.1 L 1030.2 844.1 L 1023.6 845.0 L 1017.0 845.6 L 1010.3 846.0 L 1003.5 846.2 L 996.7 846.2 L 989.8 846.2 L 983.0 846.0 L 976.1 845.9 L 969.2 845.7 L 962.3 845.5 L 955.3 845.4 L 948.5 845.5 L 941.6 845.7 L 934.8 846.0 L 928.0 846.6 L 921.2 847.4 L 921.2 847.4 L 914.5 848.6 L 907.8 850.2 L 901.1 852.1 L 894.4 854.3 L 887.7 856.6 L 881.0 859.1 L 874.4 861.6 L 867.7 864.1 L 861.1 866.5 L 854.5 868.8 L 847.9 870.8 L 841.4 872.6 L 834.8 874.0 L 828.4 875.1 L 821.9 875.6 L 815.5 875.6 L 815.5 875.6 L 809.1 875.2 L 802.6 874.4 L 795.9 873.4 L 789.3 872.1 L 782.6 870.6 L 775.9 868.8 L 769.3 866.7 L 762.7 864.4 L 756.3 861.9 L 750.0 859.1 L 744.0 856.1 L 738.1 852.9 L 732.5 849.5 L 727.1 845.8 L 722.1 842.0 L 717.4 837.9 L 717.4 837.9 L 712.8 833.4 L 708.2 828.3 L 703.5 822.6 L 698.8 816.5 L 694.3 810.0 L 689.9 803.3 L 685.8 796.4 L 682.0 789.4 L 678.6 782.5 L 675.6 775.7 L 673.2 769.1 L 671.4 762.9 L 670.3 757.1 L 669.9 751.8 L 670.3 747.2 L 671.5 743.2 L 671.5 743.2 L 673.8 739.9 L 677.1 737.2 L 681.4 734.8 L 686.4 732.9 L 692.2 731.4 L 698.5 730.2 L 705.4 729.2 L 712.7 728.5 L 720.2 727.9 L 728.0 727.4 L 735.9 727.0 L 743.7 726.6 L 751.5 726.2 L 759.0 725.7 L 766.3 725.0 L 773.1 724.2 L 773.1 724.2 L 779.7 723.4 L 786.4 722.7 L 793.1 722.1 L 799.9 721.6 L 806.7 721.1 L 813.6 720.7 L 820.5 720.4 L 827.4 720.0 L 834.3 719.5 L 841.2 719.1 L 848.0 718.5 L 854.9 717.8 L 861.7 717.0 L 868.5 716.1 L 875.2 715.0 L 881.8 713.6 L 881.8 713.6 L 888.5 712.2 L 895.1 710.6 L 901.8 709.0 L 908.4 707.2 L 915.0 705.4 L 921.6 703.5 L 928.2 701.5 L 934.8 699.4 L 941.3 697.1 L 947.7 694.8 L 954.1 692.3 L 960.4 689.7 L 966.7 687.0 L 972.8 684.1 L 978.9 681.1 L 984.8 678.0 L 984.8 678.0 L 990.6 674.6 L 996.4 671.1 L 1002.1 667.5 L 1007.7 663.6 L 1013.3 659.7 L 1018.7 655.6 L 1024.1 651.4 L 1029.5 647.0 L 1034.8 642.6 L 1040.0 638.1 L 1045.2 633.6 L 1050.3 629.0 L 1055.4 624.3 L 1060.4 619.7 L 1065.4 615.0 L 1070.3 610.3 L 1070.3 610.3 L 1075.3 605.4 L 1080.5 600.1 L 1085.7 594.6 L 1091.0 588.8 L 1096.3 582.9 L 1101.5 576.9 L 1106.7 570.9 L 1111.7 564.9 L 1116.6 559.1 L 1121.3 553.5 L 1125.7 548.1 L 1129.8 543.1 L 1133.6 538.5 L 1137.0 534.4 L 1140.0 530.9 L 1142.5 528.0" fill="none" stroke="#ff7a1a" stroke-width="6.0" stroke-opacity="0.9"/><path d="M 1430.8 256.7 L 1433.8 254.1 L 1437.3 250.8 L 1441.4 246.9 L 1445.8 242.5 L 1450.7 237.7 L 1456.0 232.6 L 1461.5 227.3 L 1467.3 221.9 L 1473.3 216.5 L 1479.5 211.2 L 1485.7 206.1 L 1492.1 201.3 L 1498.4 196.9 L 1504.7 193.0 L 1510.9 189.7 L 1517.0 187.2 L 1517.0 187.2 L 1523.1 185.2 L 1529.4 183.4 L 1535.8 182.0 L 1542.4 180.8 L 1549.1 179.9 L 1555.9 179.3 L 1562.8 178.9 L 1569.6 178.8 L 1576.5 179.0 L 1583.4 179.4 L 1590.2 180.1 L 1596.9 181.1 L 1603.5 182.3 L 1610.0 183.8 L 1616.3 185.6 L 1622.5 187.6 L 1622.5 187.6 L 1628.5 190.0 L 1634.3 192.8 L 1640.1 196.0 L 1645.8 199.6 L 1651.3 203.6 L 1656.9 207.8 L 1662.3 212.2 L 1667.7 216.9 L 1673.1 221.6 L 1678.4 226.5 L 1683.7 231.4 L 1689.0 236.4 L 1694.2 241.3 L 1699.5 246.1 L 1704.8 250.8 L 1710.1 255.4 L 1710.1 255.4 L 1715.4 259.8 L 1720.6 264.3 L 1725.9 268.8 L 1731.1 273.4 L 1736.4 278.0 L 1741.5 282.6 L 1746.7 287.2 L 1751.9 291.8 L 1757.0 296.5 L 1762.1 301.2 L 1767.2 305.9 L 1772.3 310.7 L 1777.4 315.4 L 1782.4 320.2 L 1787.4 325.0 L 1792.4 329.8 L 1792.4 329.8 L 1797.4 334.6 L 1802.4 339.4 L 1807.3 344.3 L 1812.3 349.1 L 1817.2 354.0 L 1822.1 358.9 L 1827.0 363.9 L 1831.8 368.8 L 1836.7 373.8 L 1841.5 378.8 L 1846.3 383.8 L 1851.1 388.8 L 1855.9 393.8 L 1860.6 398.9 L 1865.4 403.9 L 1870.1 409.0 L 1870.1 409.0 L 1874.9 414.3 L 1880.0 419.8 L 1885.2 425.6 L 1890.4 431.5 L 1895.8 437.5 L 1901.1 443.6 L 1906.4 449.7 L 1911.6 455.6 L 1916.7 461.4 L 1921.5 467.0 L 1926.1 472.3 L 1930.4 477.2 L 1934.3 481.8 L 1937.8 485.8 L 1940.9 489.4 L 1943.4 492.3" fill="none" stroke="#ff7a1a" stroke-width="6.0" stroke-opacity="0.9"/><path d="M 1950.1 978.6 L 1948.3 978.4 L 1946.1 978.3 L 1943.6 978.1 L 1940.8 977.9 L 1937.8 977.7 L 1934.6 977.5 L 1931.1 977.2 L 1927.6 977.0 L 1923.9 976.7 L 1920.2 976.3 L 1916.5 976.0 L 1912.8 975.6 L 1909.1 975.2 L 1905.5 974.8 L 1902.1 974.3 L 1898.8 973.8 L 1898.8 973.8 L 1895.7 973.3 L 1892.5 972.8 L 1889.4 972.2 L 1886.2 971.6 L 1883.0 971.0 L 1879.9 970.3 L 1876.7 969.7 L 1873.6 968.9 L 1870.4 968.2 L 1867.3 967.5 L 1864.2 966.7 L 1861.1 965.8 L 1858.0 965.0 L 1854.9 964.1 L 1851.8 963.2 L 1848.8 962.2 L 1848.8 962.2 L 1845.6 961.2 L 1842.4 960.0 L 1839.0 958.7 L 1835.6 957.4 L 1832.1 956.0 L 1828.7 954.6 L 1825.3 953.1 L 1821.9 951.7 L 1818.6 950.3 L 1815.5 948.9 L 1812.5 947.6 L 1809.7 946.3 L 1807.2 945.2 L 1804.9 944.2 L 1802.9 943.3 L 1801.3 942.6" fill="none" stroke="#ff7a1a" stroke-width="6.0" stroke-opacity="0.9"/></g><g id="clips"><circle cx="1974.7" cy="952.9" r="2" fill="none" stroke="#0b5" stroke-width="0.6"/><circle cx="2000.0" cy="575.9" r="2" fill="none" stroke="#0b5" stroke-width="0.6"/><circle cx="1336.7" cy="596.0" r="2" fill="none" stroke="#0b5" stroke-width="0.6"/><circle cx="1142.5" cy="528.0" r="2" fill="none" stroke="#0b5" stroke-width="0.6"/><circle cx="1430.8" cy="256.7" r="2" fill="none" stroke="#0b5" stroke-width="0.6"/><circle cx="1943.4" cy="492.3" r="2" fill="none" stroke="#0b5" stroke-width="0.6"/><circle cx="1950.1" cy="978.6" r="2" fill="none" stroke="#0b5" stroke-width="0.6"/><circle cx="1801.3" cy="942.6" r="2" fill="none" stroke="#0b5" stroke-width="0.6"/></g><g id="power"><circle cx="2000.0" cy="575.9" r="5" fill="none" stroke="#e33" stroke-width="1"/></g><g id="bridges"></g></svg>