<svg xmlns="http://www.w3.org/2000/svg" width="2000mm" height="1000mm" viewBox="0 0 2000 1000"><g id="outline"><rect x="0" y="0" width="2000" height="1000" fill="none" stroke="#000" stroke-width="1"/></g><g id="channels"><path d="M 0.0 575.9 L 0.2 576.0 L 6.7 579.0 L 13.2 582.0 L 19.6 585.0 L 26.1 588.1 L 26.1 588.1 L 32.5 591.1 L 39.0 594.1 L 45.4 597.2 L 51.9 600.2 L 58.4 603.2 L 64.8 606.2 L 71.3 609.2 L 77.7 612.2 L 84.2 615.3 L 90.7 618.3 L 97.1 621.3 L 103.6 624.3 L 110.0 627.3 L 116.5 630.4 L 123.0 633.4 L 129.4 636.5 L 129.4 636.5 L 135.8 639.5 L 142.3 642.6 L 148.7 645.6 L 155.2 648.7 L 161.6 651.7 L 168.0 654.8 L 174.5 657.9 L 180.9 661.0 L 187.4 664.0 L 193.8 667.1 L 200.2 670.2 L 206.7 673.3 L 213.1 676.3 L 219.5 679.4 L 226.0 682.5 L 232.4 685.5 L 232.4 685.5 L 238.8 688.6 L 245.3 691.6 L 251.8 694.6 L 258.2 697.7 L 264.7 700.7 L 271.2 703.7 L 277.6 706.7 L 284.1 709.7 L 290.5 712.7 L 297.0 715.8 L 303.4 718.8 L 309.9 721.9 L 316.3 725.0 L 322.7 728.1 L 329.1 731.3 L 335.5 734.5 L 335.5 734.5 L 341.8 737.6 L 348.2 740.8 L 354.6 744.0 L 361.1 747.1 L 367.5 750.3 L 373.9 753.5 L 380.3 756.7 L 386.6 759.9 L 393.0 763.2 L 399.3 766.5 L 405.6 769.9 L 411.8 773.3 L 418.0 776.9 L 424.1 780.5 L 430.2 784.2 L 436.2 788.0 L 436.2 788.0 L 442.1 791.9 L 448.0 795.9 L 453.8 799.9 L 459.6 804.1 L 465.4 808.3 L 471.1 812.5 L 476.7 816.8 L 482.4 821.2 L 488.0 825.7 L 493.5 830.2 L 499.0 834.7 L 504.5 839.3 L 509.9 843.9 L 515.3 848.5 L 520.7 853.2 L 526.0 857.9 L 526.0 857.9 L 531.3 862.7 L 536.6 867.5 L 541.8 872.4 L 546.9 877.3 L 552.0 882.3 L 557.0 887.3 L 562.0 892.4 L 567.0 897.5 L 572.0 902.7 L 576.9 907.8 L 581.9 913.0 L 586.8 918.2 L 591.7 923.3 L 596.7 928.5 L 601.6 933.6 L 606.6 938.7 L 606.6 938.7 L 611.6 943.8 L 616.6 948.9 L 621.6 953.9 L 626.7 959.0 L 631.8 964.0 L 636.9 969.1 L 641.9 974.1 L 646.9 979.2 L 652.0 984.3 L 656.9 989.4 L 661.8 994.6 L 666.7 999.8 L 666.9 1000.0" fill="none" stroke="#ff7a1a" stroke-width="6.0" stroke-opacity="0.9"/></g><g id="clips"><circle cx="0.0" cy="575.9" r="2" fill="none" stroke="#0b5" stroke-width="0.6"/><circle cx="666.9" cy="1000.0" r="2" fill="none" stroke="#0b5" stroke-width="0.6"/></g><g id="power"><circle cx="0.0" cy="575.9" r="5" fill="none" stroke="#e33" stroke-width="1"/><circle cx="666.9" cy="1000.0" r="5" fill="none" stroke="#e33" stroke-width="1"/></g><g id="bridges"></g></svg>