<?xml version="1.0" encoding="UTF-8"?>
<svg id="Layer_1" xmlns="http://www.w3.org/2000/svg" version="1.1" viewBox="0 0 980.4 521.7">
  <!-- Generator: Adobe Illustrator 30.6.0, SVG Export Plug-In . SVG Version: 2.1.4 Build 109)  -->
  <defs>
    <style>
      .st0 {
        stroke: #2b6bff;
      }

      .st0, .st1, .st2, .st3, .st4, .st5, .st6, .st7 {
        fill: none;
        stroke-linejoin: round;
        stroke-width: .3px;
      }

      .st1 {
        stroke: #f2f2f2;
      }

      .st2 {
        stroke: #39ff88;
      }

      .st3 {
        stroke: #00e5ff;
      }

      .st4 {
        stroke: #a05bff;
      }

      .st5 {
        stroke: #ff3ea5;
      }

      .st6 {
        stroke: #ffd23d;
      }

      .st7 {
        stroke: #ff7a1a;
      }
    </style>
  </defs>
  <circle class="st1" cx="166.9" cy="299.9" r="62.8"/>
  <circle class="st1" cx="539.7" cy="299.9" r="62.8"/>
  <path class="st5" d="M209.8,86.9l-.4.6-1,1.4-1.2,1.5-1.3,1-1.7.7-1.6.6-1,.4-.8.5-1.6.8-1.8.9-1.3.6-.8.5-1.5.9-1.6.9-1.2.5-1.6.5-1,.6-.7.8-1.4,1.2-1.4.3-1.7.4-1.7.6-.9.4-.2.2-.6.6-1,.9-1.3,1.1-1.5,1.3-1.6,1.4-1.7,1.5-1.6,1.5-1.6,1.4-1.4,1.3-1.2,1.1-.9.8-.5.5h-.1c0,.1-.6.8-.6.8l-1.2,1.1-1.5,1.3-1.5,1.2-1.3.8-.9.3-1.3.5-1.6.6-1.8.7-1.9.8-1.8.8-1.6.7-1.3.6-.8.4-.2.2-.4.4-.8.8-1.1,1-1.3,1.2-1.4,1.4-1.5,1.5-1.5,1.5-1.5,1.5-1.4,1.4-1.2,1.2-1,1-.7.7-.4.4-.6.7-1.1,1.1-1.3,1.4-1.4,1.5-1.2,1.3-.9,1-.4.7-.6,1.5-.6,1.8-.2,1.3.3.4.7.3,1,.3,1.3.4,1.6.4,1.8.4,1.9.4,1.9.4,1.9.4,1.8.4,1.7.4,1.4.3,1.1.3,1.2.3,1.4.5,1.6.6,1.7.6,1.8.7,1.9.7,1.9.7,1.8.7,1.7.7,1.6.6,1.4.5,1.1.4.8.3h.5c0,.1.5,0,.5,0l1.5-.6,1.8-.8,1.3-.7.4-.3.5-.4.8-.7,1-.9,1.2-1,1.4-1.1,1.5-1.2,1.5-1.2,1.5-1.2,1.5-1.2,1.5-1.1,1.4-1,1.2-.8,1.1-.7,1.2-.8,1.3-1.2,1.1-1.4,1-1.5.9-1.6.7-1.5.6-1.4.4-1.1.2-.8.2-1.1.5-1.8.5-1.3.5-.6,1.3-1.1,1.5-1,1-.4,1.2-.6,1.6-.9,1.8-1.1,1.6-1,1.2-.8.5-.5.5-.8,1.1-1.4,1.2-1.6,1-1.3.6-.7,1.1-1.1,1.2-1.4.7-1,1-1.4,1.2-.6h1.4c0,.1.9,1.4.9,1.4l-.8,1.3-1,1.2.2.6,1.5-.7,1.2.3-.5,1.1-.8.8,1.2.6-1,1.4,1.1.4.3,1.3-1.1,1.1-.4,1-1.6,1-1.7.8-.6.2-.5.5-.9,1-1.1,1.3-1.3,1.5-1.3,1.5-1.3,1.4-1.1,1.1-.9.7-1.3,1.1-1.4,1.3-1.3,1.3-.9,1-.4.4-.2.4-.6.8-.8,1.2-1,1.5-1.2,1.7-1.2,1.8-1.2,1.8-1.1,1.6-.9,1.4-.7,1-.4.6-.3.5-.6.9-.9,1.2-1.1,1.5-1.2,1.6-1.3,1.7-1.3,1.7-1.3,1.6-1.1,1.4-.9,1.2-.7.9-.3.4v.2c0,0-.5.7-.5.7l-.7,1.2-1,1.4-1.2,1.5-1.3,1.4-1.5,1.1-1.6.5h-1.9c0,.1-1.6-.1-1.6-.1l-1.5-.4-1.3-.5-1.2-.4-1.1-.2h-1.4c0-.1-1.7-.2-1.7-.2h-1.9c0,0-1.8-.2-1.8-.2h-1.6c0-.1-1.1-.2-1.1-.2h-.4c0-.1-.5-.2-.5-.2h-.8c0-.1-1.1-.3-1.1-.3l-1.3-.2-1.5-.2-1.6-.3-1.8-.3-1.9-.4-1.9-.4-1.9-.4-1.9-.4-1.8-.5-1.8-.5-1.6-.5-1.5-.5-1.3-.6-1.4-.8-2.1-1-1.8-.7-1.6-.4h-1.4c0-.1-1.2,0-1.2,0l-1,.2-.8.4-.8.5-1.1.8-1.3,1-1.4,1.1-1.4,1.1-1.3,1-1.1.8-.9.6-1,1-1.2,1.2-1.2,1.4-1.1,1.4-.8,1.3-.5,1-.2.8-.3,1.1-.4,1.4-.5,1.7-.5,1.8-.6,1.8-.6,1.8-.6,1.6-.5,1.3-.5.9-.7,1.1-.8,1.5-.7,1.6-.6,1.6-.4,1.4-.2,1.1v.6s0,.9,0,.9v1.2c-.1,0-.4,1.6-.4,1.6l-.3,1.8-.3,2-.3,2.1-.3,2.1-.3,2-.3,1.8-.2,1.6-.2,1.3v.9c-.1,0-.2.6-.2.6l-.2,1.1-.4,1.5-.6,1.6-.7,1.5-.9,1.2-1.1.7-1.4.7-1.6.7-1.7.6-1.6.6-1.3.4-.8.3-.6.2-.9.3-1.3.3-1.5.4-1.7.5-1.8.5-1.9.5-1.9.5-1.8.4-1.6.4-1.4.3-1.1.2-2,.4-1.6.5-1.3.5-1,.6-.9.6-1.2.8-1.4.9-1.5.8-1.3.6-1.2.4-1.5.6-1.7.7-1.5.5-1.1.2h-1.7c0,0-1.8,0-1.8,0l-.6-.6,1-.9,1.8-.2h1.2c0-.1,1.4-.8,1.4-.8l1.5-.9-.7-.4-1.5.3-1.3.2-1.9.3-1.8.3-1.2.2h-1.6s0-.9,0-.9l1.3-.6,1.9-.7,1.2-.4,1.4-.2,1.9-.3,1-.5h-.5c0-.1-1.6.1-1.6.1l-2.1.3-1.9.3h-1.1c0,.1-1.4.1-1.4.1l-1.8-.2-.6-.9,1-.6,1.7-.3h1.7s1.2,0,1.2,0l1.2-.2,2-.4,1.4-.4v-.6s-1.7,0-1.7,0h-1.8c0-.1-1.4-.4-1.4-.4l-1.6-.4-1.4-.5-.7-1,1.2-.6,1.5.4,1.6.5h1c0,.1,1.8.3,1.8.3h1.8c0,.1,1.2.1,1.2.1h1.6c0,0,.9-.6.9-.6l-1.3-1.2-1.1-.6-1.6-.7-.3-1.4,1.3-.4,1.3.4,1.4.9.6.4,1.5.9,1.8,1,1.3.6h1.2c0,.1,1.8,0,1.8,0l1.1-.2.7-.3,1.3-.5,1.7-.7,1.9-.8,1.9-.8,1.8-.7,1.6-.6,1.2-.4.6-.2.8-.3,1.3-.7,1.6-.9,1.8-1,1.8-1,1.6-.9,1.2-.6.7-.3,1.2-.7.6-1.2.3-1.2.4-1.7.4-1.9.3-1.7.2-1.2v-.7c0,0,.2-1.2.2-1.2l.2-1.6.2-1.9.2-2,.3-1.9.3-1.7.3-1.3.3-1,.6-1.6v-1.2c0,0-.3-1-.3-1l-.6-1.5-.5-1.7-.2-1.5.3-1.3-.4-1.3-1.3-.7-1.3.2-1.2.9-1.1,1.2-.9,1.3-.8,1.3-.9,1.7-.7,1.5-.3.9.4,1.3.6,1.8.2,1v1.5s-1.3,1.2-1.3,1.2l-1.1.5-.2,1-.3,1.8-.4,1.9-.5,1.1-.7.6-1,.9-1.2,1-1.5,1-1.7.7-1.4.2h-1.6c0,0-1.6-.4-1.6-.4l-1.6-.5-1.5-.7-1.2-.8-.9-.9-.9-1.5-.9-1.6-.7-1.4-.3-1,.3-.9.7-1.6.6-1.8.2-1.3-.6-1.3-.7-1.6.2-1.1,1.4-.2,1.3-.5v-1.3c.1,0,.3-1.9.3-1.9l.2-1.5.5-.9,1.4-.8,1.4-.3,2-.4,1.6-.3h.4c0,0,.7-.4.7-.4l1.1-.8,1.1-1.3.8-1.9.2-1.9-.6-.7h-1.2c0,0-1.6.3-1.6.3l-1.8.7-1.9.9-1.9,1-1.6,1-1.2.8-.7.4h-.2c0,0-.6.3-.6.3l-1.1.4-1.5.5-1.7.6-1.9.6-1.9.7-1.8.6-1.6.6-2.2,1-1.8,1-1.3,1-.8.7-.3.3-.2.3-.5.8-.8,1.2-1,1.5-1.2,1.7-1.2,1.7-1.2,1.7-1.1,1.6-1,1.4-.8,1-.4.6-.6.7-1,1.1-1.2,1.3-1.4,1.5-1.4,1.6-1.4,1.5-1.2,1.3-.9,1-.6.6-.2.2-.3,1.3.4,2.4.3,1.2.2,1.4,1.1,1.6.8.9.9,1-.4,1.4-1.2.2-1.6-.6-.9-1.4-.9-1.4-.8-.9-1.1.6-.6,1.6-.5,1.9-.2,1.2v2.9c0,0,0,1.5,0,1.5v1.4c0,0-1.1.7-1.1.7l-.5-.9-.2-1.6-.2-2v-1.7c0,0,0-1.2,0-1.2v-1c-.1,0-1.1.7-1.1.7l-1,2-.6,1.5-.5,1.5-.3,1.3-.2,1.8-.3,1-.8.4-1.3-1.5v-1.6s.4-1.9.4-1.9l.6-1.8.5-1.2.2-.5.4-1.4-.9.4-1.4,1.5-.8,1.5-.6,1.7-.6,1.1-.9-.6-.2-1.5.4-1.3.5-1.7.7-.8,1.4-1.3,1.2-1.2-.4-.4-1.5.8-1.1,1-1.2,1.1-.8,1-1,1.1-.8-.4.3-1.5.7-1.5.8-.8,1.3-1.1,1.5-1.3,1.2-1.1.5-.5.8-1.1,1.2-1.6.9-1.1.7-.8,1.1-1.4,1-1.2.8-.6,1-1,1.2-1.3,1.1-1.4.8-1.2.5-.9.8-1.4,1-1.7,1.1-1.8,1-1.6.7-1.2.4-.6v-.3c.1,0,.6-1,.6-1l.7-1.5.9-1.7,1-1.8.9-1.7.8-1.3.8-.9,1.1-1.1,1.3-1.4,1.4-1.5,1.3-1.4,1-1,.5-.5.3-.3,1.2-.9,1.6-1.2,1.4-.8,1.3-.5,1.6-.4,1.6-.4,1.3-.5,1.4-.8,1.4-.8,1.1-.7.7-.5,1.1-.8,1.4-1,1.5-1,1.5-.8,1.6-.6,1.6-.7,1.4-.7,1.2-.7.8-.7.8-.6,1.2-.8,1.4-1,1.5-1.1,1.4-1.1,1.2-1,.7-.7.6-.6.8-.8,1-1,1.1-1.1,1.2-1.2,1.3-1.3,1.3-1.3,1.3-1.3,1.3-1.3,1.2-1.3,1.1-1.2.9-1.1.7-.9.8-1.1,1.1-1.3,1.2-1.2,1.2-1.2,1.2-1.1,1.2-1,1.1-.9.9-.8.7-.6.8-.8,1-1,1.1-1.2,1.1-1.3,1.1-1.3,1.1-1.2,1-1.1.8-.9,1-.9,1.2-1,1.3-1,1.4-1,1.4-1,1.4-.9,1.3-.8,1.1-.6.8-.3.8-.4,1-.5,1.2-.6,1.4-.7,1.5-.8,1.6-.8,1.6-.8,1.7-.9,1.7-.9,1.6-.8,1.5-.8,1.4-.8,1.3-.7,1.1-.6,1-.6,1.8-1,1.7-1,1.5-.9,1.3-.8,1-.7.8-.6.5-.4.8-.6,1.1-.8,1.4-1,1.5-1,1.6-1.1,1.6-1,1.4-.9,1.2-.8,1-.6,1.3-.8,1.4-1,1.5-1,1.4-.9,1.2-.7.9-.4,1.1-.3,1.6-.3,1.7-.4,1.5-.4,1.1-.4,1.2-.4,1.7-.5,1.8-.5,1.8-.5,1.5-.4.9-.3,1.3-.8,1.2-.9,1.5-.5.9-.9,1-1.2,1-1.3.9-1.1,1.2-1,1.3-.4,1.4-.3,1.6-.3,1.3-.5,1.5-1,1.4-1.1.9-.8.7-1,1-1.4.8-1.2,1-1.2,1.2.2.3,1.6,1-.4,1.4-.4v1.5c.1,0,1.2-.7,1.2-.7l1.3-.4v1.4s.2.6.2.6l1.1-1.5h1.4c0,0-.1,1-.1,1l-1.1,1.5-.7,1.4h1c0-.1.7-1,.7-1l1-1.5,1.3-.3,1.3,1.3-.3,1.1"/>
  <path class="st6" d="M443.5,498.5l.5-.4,1.1-.9,1.6-1.1,1.7-1,1.5-.5,1.7-.2h1.8c0,0,1.7,0,1.7,0h1.2s.7-.1.7-.1l1.2-.2,1.8-.2,2-.2,1.8-.2h1.3c0-.1.9-.3.9-.3l1.5-.3,1.9-.4,1.8-.3h1.4c0,0,1.3.1,1.3.1l1.9-.2.9-.2.7-.4,1.6-.8,1.8-.4,1.4.3,1.7.3h1.9c0,0,1.7,0,1.7,0h1c0,0,.2-.2.2-.2l.6-.2.9-.4,1.2-.5,1.5-.6,1.7-.7,1.9-.8,2-.8,2.1-.8,2.1-.8,2.1-.8,2-.8,1.8-.7,1.7-.7,1.4-.6,1.1-.5.8-.3.5-.2h.2c0,0,.7-.4.7-.4l1.3-.6,1.7-.7,1.8-.7,1.9-.7,1.7-.5,1.4-.2h.9s1.2,0,1.2,0h1.6s1.8,0,1.8,0h2s2-.1,2-.1h2c0,0,2-.2,2-.2h1.8c0,0,1.5-.2,1.5-.2h1.2c0,0,.8-.2.8-.2h.3c0,0,.4-.3.4-.3l.7-.3,1-.5,1.3-.6,1.5-.7,1.7-.8,1.8-.8,1.9-.9,2-.9,2-.9,1.9-.9,1.8-.8,1.7-.8,1.5-.7,1.3-.6,1-.5.7-.4.4-.2.8-.4,1.2-.6,1.6-.8,1.8-.9,1.8-.9,1.7-.9,1.5-.8,1.1-.6.6-.5.9-1,1.2-1.3,1.2-1.5.8-1.3.2-.8-.2-.3-.5-.5-.8-.6-1-.7-1.2-.9-1.3-.9-1.5-1-1.6-1-1.6-1.1-1.7-1.1-1.6-1.1-1.6-1-1.5-1-1.4-.9-1.3-.8-1.1-.8-.9-.6-1-.7-1.1-.8-1.2-1-1.3-1.1-1.4-1.2-1.5-1.3-1.5-1.3-1.5-1.3-1.5-1.3-1.5-1.3-1.4-1.3-1.4-1.2-1.3-1.2-1.2-1-1.1-.9-.9-.8-.8-.6-.6-.4-.4-.2h-.4s-1.3,0-1.3,0h-1.8c0,0-1.9.2-1.9.2l-1.6.2-.8.2-.4.2-.7.2-.9.3-1.2.4-1.3.5-1.5.5-1.6.5-1.7.6-1.8.6-1.8.6-1.9.6-1.9.6-1.8.6-1.8.5-1.7.5-1.6.4-1.4.3-1.2.2-1.3.2-1.6.5-1.6.7-1.6.9-1.5,1-1.4,1.1-1.4,1.2-1.2,1.2-1.1,1.1-.9,1-.7.9-.5.7-.3.5-.8,1.4-1.1,1.5-1,1.2-.6.5-1,.4-1.6.6-1.8.5-1.6.2h-.9s-1.4.1-1.4.1l-1.8.3-2,.4-2,.4-1.9.4-1.6.4-1.2.3-.5.2-.6.5-1.3.9-1.6,1.1-1.7,1.1-1.5,1-1.1.7-.8.4-1.5.7-1.7.9-1.4.8-.8.7-1.4,1-1.2.4-1.7-.3-.9-.8-.5-1.5.9-1.1,1.3-.9,1.4-.8.4-.8h-1.5c0,.1-1.9,0-1.9,0l-.8-.9.5-1.1,1.8-.3v-.7c-.1,0-1-1-1-1l1-.8.7-1.1-1.2-.8v-1.4c.1,0,1.6-.7,1.6-.7l.9-.9,1-.5,1.9-.4,2-.3h1.4c0,0,.4,0,.4,0l.7-.3,1-.6,1.4-.8,1.6-.9,1.7-1,1.8-1,1.8-1,1.6-.9,1.5-.7,1.2-.5,1.1-.4,1.6-.6,1.8-.8,1.8-.8,1.6-.8,1.2-.6.7-.4h.2c0-.1.5-.5.5-.5l.8-.6,1.1-.8,1.4-1,1.5-1.1,1.7-1.2,1.7-1.2,1.8-1.2,1.7-1.2,1.6-1.2,1.5-1,1.2-.9,1-.7.6-.5.4-.3.6-.5.9-.6,1.2-.8,1.4-.9,1.6-1,1.8-1.1,1.8-1.1,1.8-1.2,1.8-1.1,1.7-1.1,1.6-1,1.4-.9,1.2-.8.9-.6.6-.4h.2c0-.1.2-.3.2-.3l.6-.5.9-.8,1.2-1,1.4-1,1.6-1,1.7-.9,1.8-.7,1.8-.4h1.7c0,0,1.8.3,1.8.3l1.7.6,1.4.8,1.2.9,1.1.9,1,.9,1,.8.9.6,1,.5,1.3.6,1.6.7,1.7.7,1.7.7,1.7.7,1.5.6,1.1.6.7.4.3.2.4.3.6.4.8.5,1,.6,1.1.6,1.3.7,1.4.8,1.5.8,1.5.9,1.6.9,1.6,1,1.7,1,1.7,1,1.6,1.1,1.6,1.1,1.6,1.1,1.5,1.1,1.4,1,1.3,1,1.2,1,1.1,1,.9,1,1.1,1.3,1.6,1.7,1.5,1.4,1.4,1.1,1.4.9,1.3.6,1.2.4,1.1.2h1c0,0,.9,0,.9,0h.8c0-.1,1.1-.4,1.1-.4l1.3-.4,1.5-.5,1.7-.6,1.7-.6,1.7-.6,1.6-.5,1.4-.4,1.2-.3,1-.2,1.2-.5,1.4-.7,1.5-.8,1.6-.9,1.5-1,1.4-1,1.2-.9.9-.8.5-.6.5-.7.7-1,.8-1.2,1-1.4,1-1.5,1.1-1.5,1.1-1.5,1.2-1.5,1.1-1.4,1.1-1.3,1-1.1.9-.9.7-.6,1.1-.8,1.2-1.1,1.3-1.2,1.2-1.3,1.2-1.3,1-1.2.8-1.1.5-.9.2-.5.3-.6.5-.9.6-1.1.7-1.4.8-1.5.9-1.7,1-1.8,1-1.8,1-1.8,1-1.8,1-1.8.9-1.7.9-1.5.8-1.4.7-1.2.5-.9.3-.7.3-.5.6-1,.8-1.2,1-1.3,1.1-1.3,1.2-1.2,1.3-1,1.3-.6,1.3-.2h1.5c0-.1,1.7-.2,1.7-.2h1.8s1.8,0,1.8,0h1.7s1.5,0,1.5,0h1.2s.8,0,.8,0h.5s.8,0,.8,0h1.1c0,0,1.3.2,1.3.2h1.5c0,.1,1.7.3,1.7.3l1.8.2,1.9.2,1.9.2,1.9.2,1.9.2,1.8.2,1.7.2,1.6.2,1.4.2,1.1.2,1.7.3,1.9.3h1.7c0,0,1.4,0,1.4,0h1.2c0-.1,1.1-.3,1.1-.3l1.1-.3,1.3-.3,1.5-.3,1.7-.3,1.7-.3,1.5-.2h1.3s1.3,0,1.3,0h1.6s1.8,0,1.8,0h1.8s1.5,0,1.5,0l1.1.2,1.3.4,1.8.6,1.6.6.6.6-1,.9h-1.3s-1.8-.4-1.8-.4l-1.4-.4h-1s-1.9.2-1.9.2l-1.7.3v.6s1.6.5,1.6.5h1.2c0,.1,1.4.4,1.4.4l1.8.4,1.9.4,1.6.3,1.1.2,1.8.5.8.7-.6.8h-1.4c0,0-2,.1-2,.1h-1.9s-1-.1-1-.1l-1.3-.3-1.9-.4-1.7-.3-1,.2.2.3,1.2.3,1.8.4,2.1.4,2,.4,1.5.3.8.2,1.4.6,1.7.8,1.1.8-.2,1.2-1.1.2-1.8-.2-1.3-.5-1.7-.7-1.3-.5-.8-.2-1.7-.3-2-.3h-1.6c0-.1-.8.6-.8.6l.7.2,1.7.6,1.8.8,1.2.7,1.4.9,1.3.9,1.1.9,1,1-.4,1.2h-1.3c0,.1-1.3-.7-1.3-.7l-1.4-1.1-1.1-.8-.8-.4-1.5-.8-1.8-.9-1.5-.7-1-.3-1.6-.5-1.4-.5-.7.5.8,1.6.6,1.1,1.3,1.1,1.2,1.2v1.5c0,0-.9.6-.9.6l-1.6-.5-.9-.9-1.2-1.5-.4-.7-.7-.8-1.2-1.4-1.3-1.6-1.2-1.4-.8-.8-1.1-.5-1.6-.5-1.6-.4h-.9c0-.1-.8,0-.8,0h-1.2s-1.6,0-1.6,0h-1.9c0,0-2,.1-2,.1h-2.1c0,0-2.1.1-2.1.1h-2s-1.8,0-1.8,0h-1.4s-1.1,0-1.1,0h-.6c0,0-.7,0-.7,0h-1.2c0,0-1.6.3-1.6.3l-1.9.3-2,.3-2,.3-2,.3-1.8.2-1.5.2h-1c0,0-.8,0-.8,0l-1.4.2-1.2.9-.6.8-.8,1.2-.9,1.4-1,1.6-1,1.6-.8,1.5-.6,1.1-.3.6-.4.8-.6,1.2-.7,1.4-.8,1.6-.9,1.7-.9,1.8-.9,1.7-.9,1.6-.8,1.4-.7,1.1-.6.8-1.1,1.1-1,1.2-.5,1.1v1.1c0,0,0,1.4,0,1.4v3.6c0,0-.3,1.7-.3,1.7l-.5,1.2-.8,1.2-.2,1.4.6,1.3,1.3.9,1.2.2,1.4-.3,1.5-.7,1.4-.9,1.2-.9,1.1-.9,1.3-1.2,1.4-1.3,1.2-1.2.8-.9.2-.7v-1.7c0,0,.2-2,.2-2v-1.2c.1,0,.4-1,.4-1l.7-1.5,1.4-.8h1.9c0,.1.6-.3.6-.3l.6-1.1.9-1.6,1-1.7,1-1.4.9-.8.8-.3,1.1-.4,1.3-.5,1.5-.5,1.7-.4,1.9-.2h1.6s1.4.3,1.4.3l1.4.5,1.4.8,1.4.9,1.3,1.1,1.2,1.1,1,1.2.8,1.2.5,1.1.4,1.5.4,1.9.3,1.8.2,1.6v1.2s-.3.8-.3.8l-.7.8-1.1,1.2-1.3,1.5-1.1,1.4-.5,1.1v1.2c.1,0,.3,1.9.3,1.9v1.5s-.7.9-.7.9h-1.3s-1.7-.5-1.7-.5l-1,.5-.6,1.2-.8,1.7-.9,1.7-.7,1.2-.8.6-1.5.4h-1.4s-1.7-.2-1.7-.2l-2-.4-1.8-.3-1.1-.2h-.2s-.7,0-.7,0l-1.1.3-1.4.5-1.5.9-1.5,1.4-1.2,2-.4,1.3.4.8,1,.5,1.4.3h1.8c0,.1,2,0,2,0l2.1-.2,2.2-.3,2.1-.3,1.9-.3,1.6-.3,1.2-.2h.6c0-.1.2-.2.2-.2h.5s.9,0,.9,0h1.2s1.5,0,1.5,0h1.7s1.9,0,1.9,0h2s2,0,2,0h2s1.8,0,1.8,0h4c0-.1,2.2-.4,2.2-.4l1.9-.4,1.5-.4,1.1-.4.7-.3h.2c0,0,.3-.3.3-.3l.6-.5,1-.7,1.2-.9,1.5-1,1.6-1.1,1.7-1.2,1.8-1.2,1.8-1.2,1.7-1.1,1.5-1,1.4-.9,1.1-.7.8-.5.5-.3.8-.5,1.2-.6,1.5-.8,1.7-.9,1.8-.9,1.9-1,1.9-1,1.8-.9,1.6-.8,1.3-.7,1-.5.6-.3h.2c0-.1.7-.9.7-.9l.8-1.8.2-2.5v-1.2s.5-1.2.5-1.2v-1.7l-.5-1.9-.5-1.3-.4-.7-.2-1.5,1-1.2h1.2s1.4.8,1.4.8l1,1.3.3,1.6.3,1.7.3,1.2.5,1.1,1.4-.4,1.1-1.1,1.2-1.5,1-1.5.6-1.1.2-.6.6-1.5.8-1.9.6-1.5.3-1.1.9-1.4h1.2c0,.1.2,1.1.2,1.1l-.3,1.3-.5,1.8-.6,2-.5,1.7-.4,1-.7,1.4v.8c0,0,.8,0,.8,0l1.8-1.4,1.2-1.3,1.1-1.2,1-1.2.9-1.2.7-1.1.8-1.7.8-1.3.3-.3h1.1c0,0,.8,2.1.8,2.1l-.3,1.5-.8,1.6-1.1,1.6-1.2,1.5-1.1,1.2-.7.7-.3.3-1.2,1.3.4.5,1.4-.4,1.9-1,1.3-1.1,1.2-1.4,1.1-1.3.9-.8.8.4v1.6c0,0-.4,1.2-.4,1.2l-.8,1.1-1.1,1.5-1,1-1,.4-1.7.7-1.8.8-1,.7.8.5,1.8-.2,1.1-.5,1.7-.8,1.4-.6,1-.6,1.5-1.1,1.2-.4.4.9-.7,1.2-1.1,1.4-1.2,1-1,.4-1.5.5-1.9.7-1.9.7-1.5.6-.9.3-.6.4-1.3.9-1.7,1.1-1.5.9-.9.4-1.1.7-1.5,1-1.5,1-1.2.6-.9.3-1.3.6-1.5.8-1.6.9-1.5.9-1.2.8-.8.7-.9.8-1.2,1.1-1.5,1.2-1.6,1.3-1.6,1.3-1.5,1.2-1.2,1-.9.7-.4.3-.2.2-.6.6-1,.9-1.2,1.2-1.4,1.3-1.5,1.4-1.5,1.3-1.4,1.2-1.3,1-1,.6-1.1.5-1.5.7-1.7.8-1.8.9-1.8.9-1.6.8-1.4.7-1,.5-.4.2h-.4c0,.1-1.3.5-1.3.5l-1.8.5-1.9.5-1.6.3h-1.3s-1.6,0-1.6,0l-1.7-.2-1.7-.2h-1.5c0,0-1.3,0-1.3,0l-1.6.2-1.6.2-1.4.3-.9.2-.9.3-1.2.4-1.5.4-1.7.5-1.8.4-1.7.3h-1.6c0,0-1.8,0-1.8,0h-1.7c0,.1-1.6.3-1.6.3l-1.5.2-1.2.3-1,.3-.8.3-1.2.4-1.5.4-1.7.5-1.7.5-1.7.5-1.7.5-1.5.5-1.2.5-.6.3-.8.4-1,.5-1.2.5-1.3.6-1.5.6-1.6.7-1.6.7-1.7.8-1.7.8-1.7.8-1.7.8-1.6.8-1.6.8-1.5.8-1.4.7-1.2.7-1,.6-1,.7-1.4.9-1.5.8-1.5.8-1.6.7-1.5.7-1.5.6-1.5.5-1.4.5-1.3.5-1.1.4-.9.4-.9.4-1.1.5-1.3.7-1.4.7-1.5.8-1.5.8-1.5.8-1.5.8-1.4.7-1.3.6-1.1.5-1.1.5-1.3.5-1.5.5-1.6.5-1.6.5-1.7.5-1.7.4-1.6.4-1.5.3-1.4.2-1.2.2h-.9s-.8.1-.8.1h-1c0,0-1.2.2-1.2.2h-1.3c0,.1-1.5.3-1.5.3l-1.6.2-1.7.2-1.8.2-1.8.2-1.9.2-1.9.2-1.9.2-1.8.2-1.8.2-1.7.2-1.7.2-1.5.2-1.4.2-1.3.2-1.1.2-1.5.2-2,.3-1.9.3-1.8.3-1.6.3-1.5.3-1.2.3-1,.3-.8.2-.5.2-.8.2-1.1.3-1.4.4-1.6.4-1.8.4-1.8.5-1.9.5-1.8.4-1.7.4-1.6.4-1.3.3-1.1.2-1.4.3-1.6.4-1.7.4-1.7.4-1.7.4-1.5.3-1.3.2h-1.1c0,.1-.9,0-.9,0l-1.3-.2-1.6-.2-1.7-.3-1.7-.2h-1.5c0-.1-1.1-.1-1.1-.1h-1.2s-1.5-.1-1.5-.1h-1.8c0-.1-1.9-.3-1.9-.3h-1.9c0-.1-1.7-.3-1.7-.3h-1.4c0,0-1-.1-1-.1l-1.3.2-1.4.4-1.5.4h-1.6s-1.4.2-1.4.2l-1.1.7-1.4.8-1.4.9-1.1.8-1.4.7-1.5.5h-1.4s-1.3-.2-1.3-.2l-1.5-.2-1.6-.2h-1.4c0-.1-1.6,0-1.6,0l-1.8.4-1.7.5-1.3.5-.8.4-1.2.8-1.5,1-1.4.9-1.2.8-1.3.7-1.2-.5-.2-1.3v-1.4c-.1,0-1.1.2-1.1.2l-1.7.3v-1.4s.2-1.1.2-1.1l-1.5.4-1.6.5-.6-1.4,1.1-1.1v-.7c-.1,0-1.6,1-1.6,1l-1.3.5-1.2-1,.5-.8,1.4-.9,1.6-1.1.9-1-1-.4-1.4.6-.8.9-1.5,1h-1.3c0,0-1.2-.9-1.2-.9v-2.1s.7-.7.7-.7"/>
  <path class="st3" d="M202.8,521.1l1.3.5,1.3-.8.9-1.3.3,1.2h1.4c0,0,.9-.9.9-.9l.6-1.5.6-1.6.6-1.2.7-1.1,1-1.5,1.1-1.6,1.1-1.4.9-1,.6-.3.6-.4.9-.7,1.2-1,1.3-1.2,1.4-1.3,1.5-1.3,1.4-1.3,1.3-1.2,1-1,.8-.8,1-.8,1.3-.8,1.5-.7,1.6-.7,1.6-.7,1.5-.6,1.2-.6.8-.6.9-.6,1.4-.6,1.7-.6,1.8-.6,1.8-.5,1.6-.5,1.3-.4.8-.3.5-.2.8-.4,1.1-.5,1.3-.6,1.5-.7,1.5-.8,1.6-.9,1.6-1,1.5-1.1,1.4-1.1,1.2-1.2,1-1.2.8-1.3.9-1.6,1-1.6,1.1-1.6,1.2-1.5,1.1-1.4,1-1.3.9-1.1.8-.8.5-.6.2-.2.4-.2.8-.4,1.2-.6,1.5-.7,1.7-.8,1.8-.9,1.9-.9,1.9-.9,1.9-.9,1.8-.8,1.6-.8,1.3-.6,1-.5.6-.3.6-.3.9-.6,1.2-.8,1.3-1,1.4-1,1.5-1.1,1.5-1,1.4-.9,1.2-.7,1.1-.5,1.2-.4,1.3-.3,1.3-.3,1.4-.3,1.4-.4,1.5-.6,1.5-.7,1.5-1,1.5-1.2,1.3-1.2,1.4-1.2,1.4-1.2,1.5-1.2,1.5-1.2,1.5-1.2,1.4-1.1,1.3-1.1,1.2-1,1-.9.9-.7.6-.6.4-.4.4-.4,1-.6,1.4-.8,1.7-.9,1.8-.9,1.8-.9,1.6-.7,1.2-.5.6-.2h.6c0,0,1.1-.3,1.1-.3l1.5-.3,1.8-.4,1.9-.5,2-.5,1.9-.6,1.7-.6,1.4-.6,1-.5.6-.6,1.1-.8,1.5-.9,1.7-.9,1.8-.9,1.7-.8,1.4-.6.9-.3h.6s1.6.1,1.6.1l1.9.4,1.1.6-.2.7-.6,1-1,1.2-1.2,1.4-1.3,1.3-1.3,1.2-1.2,1-.9.6-1,.8-1.2.9-1.3,1-1.3,1.1-1.3,1.2-1.3,1.2-1.2,1.1-1,1-.8.9-1,1.2-1.1,1.3-1.1,1.3-1.1,1.2-1.1,1-1,.8-.7.4-.9.4-1.3.6-1.5.7-1.7.8-1.8.8-1.8.8-1.6.8-1.5.7-1.1.5-.8.4-.6.4-1,.6-1.3.8-1.5.9-1.6,1-1.7,1-1.7,1-1.6.9-1.4.8-1.2.6-.8.4-1.3.4-1.7.5-1.4.4h-1c0,0-1.2-.4-1.2-.4l-1.7-.7-1.3-.7-1.3-.4-1.8.2-1.8.2h-1.2s-.9-.3-.9-.3l-1.8-.4-1.5-.4-1.7-.2-.2.4,1,1.1,1.5,1.1,1.7.6,1.8.5.9.2-.2.7h-1.2c0,0-1.7.2-1.7.2h-1.8s-1.5-.2-1.5-.2l-1.3-.6-1.8-.7-1-.3-1,.3.9,1.2,1.4.8,1.8.5,1.8.5.6.2-1.6.5h-1.4c0,.1-2,.2-2,.2h-1.5c0,0-.5,0-.5,0l-1.5-.5-1.9-.4-1.8.7v.4l1.3.6,2.2.8,1.9.4h1.2c0,0,.7,0,.7,0h2.1s1.3,0,1.3,0l-.6.6-1.9.4-2,.4h-.7c0,.1-1.2,0-1.2,0h-2.1c0,0-2,0-2,0l-.8.3.4,1.2,1.6.4,2,.3,1.3.2h1.2c0-.1,1.5-.3,1.5-.3l1.5-.2h1.2c0-.1,1.9-.4,1.9-.4l.4.7-1.2.7-1.8.8-1.7.7-.6.3h-1c0,0-1.8.3-1.8.3l-2,.2-1.5.3-.6,1,1.1.2,2.1.4,1,.2h.9s1.9-.2,1.9-.2l2-.2,1.2-.2,1.2-.4,2-.6,1.7-.5.6-.2.7-.6,1.4-1.1,1.7-1.3,1.6-1.2,1.1-.8.6-.2,1.3-.2,1.9-.3,1.8-.2h1.4s1.9-.2,1.9-.2l.9-.5,1-1.2.7-.6,1.5-.8,1.7-.8.8-.3.9-.3,1.3-.4,1.6-.5,1.7-.6,1.8-.6,1.7-.7,1.5-.6,1.2-.6,1-.5,1.4-.6,1.6-.7,1.8-.8,1.8-.8,1.8-.8,1.7-.7,1.6-.6,1.3-.5.9-.4.5-.2h.3c0-.1.7-.5.7-.5l1-.6,1.3-.8,1.5-.9,1.6-1,1.6-1.1,1.6-1.1,1.5-1.2,1-.8,1.1-.9,1.3-1,1.5-1.1,1.6-1.1,1.6-1.2,1.7-1.2,1.6-1.2,1.6-1.1,1.5-1,1.3-.9,1.1-.8.9-.6.7-.5.3-.2.6-.6,1.1-1,1.1-1,1.1-1,1.1-1,1.1-1,1.1-1,1.1-1,.4-.3.7-.9.8-1.5.5-2.2v-3c.1,0,.1-1.6.1-1.6v-.6c0,0-.3-.6-.3-.6l-.6-1.3-.4-1.7.5-1.9.7-1.8.6-1.2.7-.2,1.6-.2,1.9-.2h1.1c0,.1,1,.5,1,.5l1.7.6,1.9.7,1.6.6.8.5.4-1.8.5.9,1,1.6,1.1,1.3,1.2,1.1h1.2s1.4-.9,1.4-.9l.7-1.2.3-1,1.3-.5,1.9-.8,1.1-.6.8-.3,1.1-.6,1.2-1.1,1.1-1.7.6-2,.5-1.7.4-1.7.3-1.6v-1.5c.1,0,0-1.3,0-1.3l-.2-1-.4-.8-.7-1-.9-1.1-1.1-1.1-1.3-1-1.5-.9-1.6-.6-2.1-.3-2.1-.2-1.8-.2-1.4-.2h-1c0-.1-.6-.3-.6-.3l-1.5-.2h-1.8l-.9.4-1.2.7-1.8.9-1.5.8-.5.5-.8,1.4-.9,1.7-.2,1.5-.5,1.2-.4.2-.9.4-1.5.2-2.3-.5-2.3-1.1-1.4-1.4-.9-1.7-.6-1.7-.3-1.6v-1.2c-.1,0-.1-.6-.1-.6l-.2-.6-1.1-1.5-1.2-1.2-1.1-1.2-.4-.6-.4-.5-.7-.7-1.1-.8-1.5-.9-2-.9-2.6-.8-1.8-.5-1.7-.5-1.7-.5-1.6-.5-1.6-.5-1.5-.5-1.4-.5-1.3-.4-1.2-.3-1.1-.3-1-.2-1.2-.2-1.5-.4-1.7-.4-1.8-.5-1.8-.5-1.8-.5-1.6-.5-1.3-.5-.9-.4-.4-.3-.5-.3-.8-.4-1-.5-1.2-.6-1.4-.7-1.5-.8-1.6-.8-1.7-.9-1.7-.9-1.6-.9-1.6-.9-1.5-1-1.3-1-1.8-1.4-2.1-1.6-1.5-1-1.1-.7-.7-.5-.4-.5-.3-1.1v-1.5c-.1,0,.8-1.3.8-1.3l1.2-1.2.5-1,.3-1.5.4-1.6.6-.8,1.3-1.4,1-1,1.1-1.2.8-1.2.3-1.3-1.2-.5-1.8.2-1.3.4-1.1,1-.7,1.3-.8,1.3-1.1.5-1.4.6-1.2,1.1-.7,1.7-.4,1.8v.8"/>
  <path class="st3" d="M318.7,333.4l-.2-.6-.4-1.4-.6-1.9-.7-1.9-.7-1.4-.8-.8-1.2-1-1.4-1.1-1.4-1-1.2-.9-.9-.6-1.6-.7-1.9-.7-1.5-.5h-.4c0-.1,0,.7,0,.7l1.8,1.6,1.3,1,1.4,1.2,1.3,1.2,1.1,1.2.8,1,.4.8v1.4c0,0-1.2,0-1.2,0l-1.6-.6-1.4-.7-1.3-1-1.3-.9-.7-.2-1.5-.2h-1.8s-1.9.8-1.9.8l.3.5,1.4.4,1.8.5,1.3.5,1.4.9,1.5,1.1.9.9v1c-.1,0-1.4-.1-1.4-.1l-1.5-.3-1.9-.3-1.9-.3-1.5-.2h-.7c0,0-1.3,0-1.3,0h-1.9c0,.1-1.8.4-1.8.4l-1.1.6.5,1.1,1,.2h3.4c0,0,1.4,0,1.4,0l1.8.2,1.9.3,1.4.3.8.6.7,1.3-.2.8-1.5.4h-3.5c0-.1-1.1-.2-1.1-.2l-1.5.4-2.5,1-1.8,1.1-.7.8-.2.6.8,1,1.4-.3,1.9-.6,1.5-.5.6-.3,1.6-.6,1.8-.4,1,.4.9.7,1.5,1,2.2,1.4,1.4,1.2.6.7.2.3.8,1.3,1.4,1.7,1.4,1.3,1.2,1,.6.4.5.5.8,1.1,1.1,1.4,1.2,1.6,1.2,1.7,1.1,1.5.9,1.3.6.8.5.6.9.8,1.2,1,1.5,1,1.6,1.1,1.6,1,1.5.9,1.3.7,1,.5.8.3,1.1.4,1.5.5,1.8.5,1.9.6,2,.6,2,.6,1.9.6,1.7.5,1.5.4,1.1.3.7.2h.2c0,0,.6.2.6.2l1.3.2,1.7.3,2,.4,2.1.4,2.1.5,1.8.5,1.4.5.8.5.2.9-.2.9-1.1.6-2.2.6-1.2.3-1.4.4-1.6.4-1.6.5-1.7.5-1.7.5-1.6.5-1.5.5-1.3.5-1.1.5-.9.5-1.1.6-1.3.7-1.5.7-1.6.7-1.6.7-1.5.7-1.4.6-1.3.5-1.1.4-1.1.4-1.4.4-1.6.4-1.8.4-1.8.4-1.7.4-1.6.3-1.3.3-1,.2-1,.2-1.5.3-1.8.4-2,.4-1.9.4-1.7.3-1.3.2h-.7c0,.1-.4.2-.4.2l-1,.4-1.4.6-1.8.6-1.9.5-1.6.3-1.5.2-1.8.3-1.9.3-1.9.3-1.9.3-1.7.2h-1.4c0,.1-1,.2-1,.2h-.5c0,0-.3,0-.3,0h-.7c0,.1-.9.4-.9.4l-1.2.4-1.4.5-1.6.6-1.7.6-1.8.7-1.8.7-1.8.8-1.8.8-1.7.8-1.6.8-1.5.8-1.3.7-1.3.8-1.7,1.1-1.7,1-1.7,1-1.6.9-1.5.8-1.3.8-1.1.6-.9.5-.6.4-.5.5-1.1,1.2-1.4,1.4-1.1,1.2-.4.5-.5.2-.8.4-1.1.5-1.4.6-1.6.7-1.7.8-1.8.9-1.7,1-1.7,1-1.2.8-1.2.9-1.2,1.1-1.3,1.2-1.3,1.2-1.3,1.3-1.3,1.3-1.2,1.3-1.1,1.2-1,1.1-.9,1-.8.9-.6.7-.5.6-.9,1-1.1,1.3-1.2,1.4-1.2,1.5-1.1,1.3-1,1.1-.7.8-.6.5-1.2.7-1.6.9-1.6.9-1.3.7-.8.4-1.1.4-1.5.5-1.7.5-1.8.4-1.6.3-1.3.2-1.4.3-1.8.4-1.9.5-1.9.5-1.7.4-1.3.3h-.6c0,.1-.8.2-.8.2l-1.7.4-1.9.6-1.3.5-1.1,1,.8.7h1.5c0,0,.4.6.4.6l-1.2.9-1.5.4-.8,1.1,1.1.3,1.7-.2,1,.5-1,1.1-1.6.3-1.1,1v.7c.1,0,2.4.2,2.4.2l-.7.3-1.6.6v1.3c-.1,0,1.5.4,1.5.4l1.2-.5"/>
  <path class="st3" d="M185.5,470.3l-.6.5-1.4,1.1-1.6,1-1.2.8v1.5c.1,0,1,1.2,1,1.2l1.7.4h1.5s.3-.2.3-.2l1.1-.5,1.5-.8,1.7-1.1,1.5-1.2,1.6-1.1,1.7-.9,1.6-.6,1.2-.4h.5c0-.1,1-.4,1-.4l1.8-.6,2-.6,1.6-.4h.8c0,.1,1.4.5,1.4.5l1.8.2,1.6-.2.8-.6.7-1,.7-1.3.7-1.5.7-1.7.6-1.6.8-1.2,1-1.1,1.2-1,1.3-.9,1.3-.8,1.2-.8.7-.4.7-.4.9-.5,1.1-.6,1.3-.7,1.4-.7,1.5-.8,1.6-.8,1.6-.8,1.7-.8,1.7-.8,1.6-.8,1.6-.8,1.5-.7,1.4-.6,1.3-.6,1.1-.5,1.5-.6,1.6-.7,1.6-.6,1.5-.6,1.4-.7,1.3-.7,1.2-.8,1-.8.9-.9.8-1,.9-1.5.9-1.5.8-1.4.8-1.2.8-1,.9-.8.9-.5.8-.3,1.1-.4,1.4-.4,1.6-.5,1.8-.5,1.9-.5,1.9-.5,1.9-.5,1.9-.5,1.7-.5,1.5-.4,1.3-.3,1-.3.7-.2h.6c0-.1,1.1-.3,1.1-.3h1.4c0-.1,1.7-.2,1.7-.2h1.9c0-.1,2-.2,2-.2h2c0-.1,1.9-.2,1.9-.2h1.8c0,0,1.6-.2,1.6-.2h1.3c0-.1.9-.2.9-.2l1.1-.3,1.7-.5,1.6-.3h1.2c0,0,.5.7.5.7v1.2c-.1,0-.7,1.5-.7,1.5l-.9,1.6-1.1,1.3-.8.7-1,.8-1.2,1-1.4,1.1-1.5,1.2-1.5,1.2-1.4,1.1-1.2,1-1,.8-.7.5-.7.5-1,.6-1.3.8-1.5.9-1.6,1-1.6,1-1.6,1-1.4.9-1.2.8-1,.6-.6.5-.8.6-1,.8-1.2,1-1.4,1.1-1.5,1.2-1.5,1.3-1.5,1.3-1.5,1.2-1.4,1.1-1.3,1-1.1.8-.8.6-.5.4-.9.6-1,.8-1.2.9-1.3,1-1.5,1.1-1.1.7-1.3.8-1.5.9-1.7,1-1.7,1-1.6.9-1.5.8-1.2.7-.8.5-.3.2-.2.3-.4.7-.6,1-.8,1.2-.9,1.4-1,1.5-1.1,1.6-1.2,1.7-1.2,1.7-1.2,1.6-1.2,1.5-1.2,1.3-1.1,1.1-1,.8-.9.5-1.5.5-1.8.6-1.7.6-1.6.6-1.5.5-1.2.4-.9.2h-.7s-1.1.1-1.1.1l-1.3.3-1.4.7-1.4,1.1-1.4,1.6-.6.8-.8,1.9-.4,1.3-.8,1.4-1.1,1-1.1.5-1.3.7-1.5.9-1.4.9-1.2.8-1,.8-1.3,1.2-1.4,1.3-1.1,1.1-.6.6-.7.9-1.1,1.5-1.2,1.6-.8,1.1-.6,1-.4,1.5.4,1.3,1.2.4,1.5-.3,1.2-1.4.8-1.6.6-.7.9,1.1-.5,1.1-1.1,1.7-.5,1.2.7.9,1.5-.2,1.4-1.7.5-.8,1,.2-.4,1.5-1.2,1.7.3.8h1.4s1-1,1-1l.8-1.2"/>
  <path class="st7" d="M874.9,441.9l-.9.4-1.8.9-1.2,1-.2.8-.3,1.4-.4,1.8-.5,2-.5,2-.4,1.7-.3,1.2-.2.8v1.8s.3,1.7.3,1.7l.2.6.7,1.3.8,1.8.4,1.5-.8,1.2-1.2.3-.8-.8-1.1-1.5-.9-1.4-.5-1.1-.4-1.8-.3-1.9v-1.2c0,0,0-.7,0-.7l.2-1.6.2-2.1v-2c0,0,0-1.4,0-1.4h-.6c0,0-.9,1.7-.9,1.7l-.4,1-.4.8-.7,1.6-.8,1.9-.6,1.6-.2,1.2v1.7c0,0-.1,1.5-.1,1.5l-1,.6-1.2-.9-.5-1.3-.3-1.9-.2-1,.2-.8.5-1.8.6-2,.5-1.4.6-1.3.7-1.8v-1c.1,0-.8.4-.8.4l-1.5,1.1-1.3,1.3-.5,1.1-.6,1.5-.8,1.8-.8,1.6-.5.9-1,.9-1.5.8-1-.6-.2-1.5.3-1.3.7-1.5.9-1.7.9-1.5.6-1,.6-.8,1.3-1.4,1.3-1.4.6-.6.9-.9,1.1-1.6-.8-.8-1.6.3-.6.6-1.2,1.3-1.4,1.4-.9,1-.8,1-1.3,1.2-1.3.2-.7-1.4v-.5c.1,0,.6-1.3.6-1.3l.8-1.7,1.1-1.6,1.3-1.2,1.5-1.2,1.5-1.2,1.1-1,.5-.5.3-1.1.8-1.7.7-1.1.5-1.5.3-1.6.4-1.6.3-1.4v-2.4s0-2,0-2v-2s0-1.7,0-1.7v-.9s0-.5,0-.5l.2-1,.3-1.4.3-1.8.4-1.9.4-2,.4-2,.4-1.8.4-1.5.3-1.2.2-.6.2-.7.2-1,.2-1.2.2-1.5.2-1.6.2-1.8.2-1.9.2-1.9.2-1.9v-1.9c.1,0,.2-1.8.2-1.8v-1.7c0,0,0-1.6,0-1.6v-1.4s-.1-1.1-.1-1.1l-.2-1.3v-1.5c-.1,0-.2-1.5-.2-1.5v-1.5c0,0,0-1.5,0-1.5v-1.5s.1-1.5.1-1.5v-1.5c.1,0,.3-1.5.3-1.5l.2-1.5.4-2.1.4-2.2.3-1.9.3-1.5.2-1.1v-.5c0,0,.2-.3.2-.3l.4-1.2.6-1.8.6-1.9.3-1.4.3-.6.7-.8,1-.9,1.2-1,1.4-1.1,1.5-1.1,1.6-1.1,1.6-1,1.5-.9,1.5-.8,1.3-.7,1.3-.6,1.7-.9,1.7-1.1,1.5-1.2,1.3-1.2,1.1-1,.7-.7.3-.3.3-.3.9-1,1.2-1.5,1.2-1.8.8-1.4.9-1.5,1-1.6.9-1.5.8-1.3.7-1,.4-.6.6-.9.9-1.4,1-1.7,1-1.7.8-1.4,1.7-2.3.5-1,.7-1.8v-1s0-1.3,0-1.3v-1.8s0-2,0-2v-1.9c0,0,.2-1.7.2-1.7l.2-1.1.4-.8.7-1.3.9-1.5,1-1.5.9-1.3.8-.8,1-.8,1.4-.9,1.6-1,1.6-1,1.4-.9,1-.6.5-.4.5-.8.6-1.2.7-1.5.8-1.6.9-1.6,1-1.5,1-1.3,1.2-1.1,1.5-1.3,1-1.1.8-1,.6-.9.7-1,1-1.2,1.2-1.4,1.2-1.2,1-.9.7-.5,1-1,1.2-1.3,1.2-1.4,1-1.4.7-1.1.5-1.4.4-1.9.2-1.6v-.5s0-.9,0-.9l-.3-1.8-.3-1.9-.2-1.4v-1c0,0,.3-1.5.3-1.5l.3-1.7.4-1.9.5-1.8.5-1.6.4-1.3.3-.9.5-1.3.5-1.7.5-1.9.5-1.8.3-1.4v-.7c.1,0,.5-1.7.5-1.7l.4-1.5v-.4s0-1,0-1v-1.6s0-2,0-2v-2.2s0-2.1,0-2.1v-1.8s0-1.3,0-1.3v-1.8c0,0,.2-1.8.2-1.8v-1.9c0,0,0-1.4,0-1.4l-.5-.8-.7-1.2-.9-1.5-.8-1.6-.6-1.3-.4-1.3-.2-1.4.2-1.5.7-1.4,1-.9,1.5-.9,1.8-.9,1.8-.8,1.5-.7,1-.4.3-.2.5-.7.7-1.5.6-2.5.6-2.2.7-1.1.6-.4,1.4-.8,1-1,.2-1.4.4-1.8.8-1,1.3-.6,1.4-.2.8-1.3,1.3-.6,1.2.8h1.4c0-.1,1.4.5,1.4.5h1c0,.1,1.7,0,1.7,0l.6,1.1-1,1.2v.8c.1,0,1.3-.6,1.3-.6l1.8-.3h1.6c0,0,1.2.7,1.2.7v1.5s-.9,1.2-.9,1.2l-1.3.7-1.7.3h-1.4s-.6,1-.6,1l-.8,1.5-.3.3-.4.7-.6,1-.7,1.3-.8,1.5-.9,1.6-1,1.7-1,1.6-1,1.5-1,1.4-1.7,2-1.2,1.7-.5,1v.6c-.1,0-.1.6-.1.6v1.1c0,0,0,1.6,0,1.6l-.5,2-.4,1.2-.2,1.4v1.7s0,1.9,0,1.9v2c.1,0,.2,2,.2,2v1.8c.1,0,.3,1.5.3,1.5v1.1c.1,0,.2.5.2.5v.4s0,1,0,1v1.5s0,1.9,0,1.9v2s0,2.1,0,2.1v2s.1,1.7.1,1.7v1.2c0,0,.2.8.2.8v1.1c.1,0,.2,1.6.2,1.6v1.9c0,0,.2,2,.2,2v2c0,0,.2,1.9.2,1.9v1.5c.1,0,.2,1,.2,1l.2.5.4,1,.5,1.5.4,1.8v1.8c0,0-.2,1.5-.2,1.5l-.4,1.1-.6,1.2-.6,1.3-.7,1.4-.7,1.5-.8,1.6-.8,2-.4,1.6v1.2c-.1,0-.4,1.1-.4,1.1l-.6,1.3-.8,1.3-.9,1.3-.9,1.4-.9,1.4-.8,1.3-.7,1.2-.4.9-.4,1-.5,1.3-.6,1.5-.7,1.6-.7,1.7-.7,1.7-.7,1.6-.7,1.5-.7,1.2-.6.9-.3.4-.3.5-.4.7-.5.9-.5,1.1-.6,1.2-.7,1.4-.7,1.5-.8,1.6-.8,1.7-.8,1.8-.9,1.8-.9,1.9-.9,1.9-.9,1.9-.9,1.9-.9,1.8-.8,1.8-.8,1.7-.8,1.7-.7,1.6-.7,1.4-.6,1.3-.6,1.2-.5,1-.4.9-.3.7-.2.5-.6,1.1-.6,1.3-.7,1.5-.7,1.6-.7,1.6-.7,1.6-.7,1.5-.6,1.3-.6,1.1-.5.9-.8,1.2-.9,1.3-1,1.4-1,1.4-1,1.2-.9,1-.8.7-1.1.9-1.3,1.1-1.4,1.3-1.3,1.2-1,1-.6.6-.4.4-.6.7-.9.9-1.1,1.1-1.2,1.2-1.3,1.3-1.4,1.2-1.5,1.2-1.5,1-1.4.9-1.4.6-1.3.5-1.4.7-1.5.8-1.5.9-1.6,1-1.5,1.1-1.5,1.1-1.4,1-1.2,1-1.1.9-.9.8-.6.6-.4.5-.5.8-.7,1.2-.7,1.4-.7,1.6-.7,1.7-.6,1.7-.4,1.6-.2,1.5v1.1s0,1,0,1v1.2s0,1.4,0,1.4v1.6c0,0-.2,1.7-.2,1.7v1.8c-.1,0-.2,1.8-.2,1.8v1.9c-.1,0-.3,1.8-.3,1.8l-.2,1.8-.2,1.7-.2,1.6-.2,1.4-.2,1.2-.2,1-.2,1.1-.3,1.4-.3,1.6-.4,1.8-.4,1.9-.4,1.9-.4,1.9-.3,1.8-.3,1.6-.2,1.4v1.1c-.1,0-.2.7-.2.7l.2.6.9,1.3,1.2,1.6,1.1,1.4.6.8.5.4,1.3.8,1.7,1,1.6,1,1.1.8.9.7,1.5.9,1.6,1,1.2,1,.4,1.2-.5,1.3-.7.3-1-.3-1.5-.6-1.8-.8-1.8-.8-1.7-.8-1.4-.6-1-.4-1.6-.3-1.7-.2-1.6-.3-1.1-.4-1.2-1-.7-1.2"/>
  <path class="st7" d="M939.4,261l-2.2-1.5-.4-.9-.6-1.3-.7-1.6-.8-1.8-.9-1.9-.8-1.9-.8-1.8-.7-1.5-.5-1.1-.5-1.2-.8-1.6-.9-1.4-1-.9-1-.3-1.1.3-1.1.7-1.5.7-2.1.5h-1.8s-1.3-.4-1.3-.4l-.9-.8-.5-1-.5-1.4-.4-1.6-.2-1.6v-1.5c0,0,.7-1.6.7-1.6l.8-1.6.7-1.4.2-1-.3-.9-.5-1.4-.6-1.7-.5-1.6-.4-1.4-.3-1.7-.3-1.8-.3-1.3-.8-.7-1.3-.9-.6-1.4.6-1.3,1.4-.9h1c0-.1.4-1.9.4-1.9l.5-1.1,1.3-.3.2-1.5,1-1.4,1.4-.8,1.1,1,.5.8.7-1.7.6-1.3,1.3-.6h1.6l1.4.6.4,1.2-.2,1.2-.6,1.4-1.1,1.9-.5,1.9v1.1s0,.4,0,.4l.4,1.4.5,1.9.3,1.8v1.2c0,0,.2,1.6.2,1.6v1.8c.1,0,.3,1.7.3,1.7l.2,1.2.4.9.5,1.2.7,1.5.9,1.5,1.1,1.3,1.1,1.3.9,1.3.8,1.1.9.9,1,.7,1.3.9,1.5,1.1,1.4,1.1,1.2,1,.7.7,1.3,1.5.7.7"/>
  <path class="st7" d="M959.7,261.1l.2.3.7.7,1,1.1,1.2,1.3,1.3,1.4,1.4,1.5,1.3,1.4,1.1,1.2,1.5,1.9.8,1.8.2,1.1v.4s-.6,1-.6,1l-1,1.7-1,1.5-.5.5-.4.4-.7.8-.9,1-1.1,1.2-1.2,1.4-1.3,1.5-1.3,1.5-1.4,1.5-1.3,1.5-1.3,1.4-1.2,1.3-1.1,1.1-.9.9-.7.7-.9.7-1.1,1-1.3,1.1-1.3,1.2-1.4,1.2-1.3,1.2-1.3,1.1-1.1,1-.9.7-4.3,2.6"/>
  <path class="st7" d="M906.6,310.2l-.5-2.9v-1.4s0-1.9,0-1.9v-2.2s.1-2.1.1-2.1v-1.7c0,0,.1-1,.1-1l.3-.8.7-1.5.9-1.7.9-1.4,1.1-1,2.3-1"/>
  <path class="st7" d="M868.1,352.8l-.5.8-1.2,1.6-1.3,1h-1.3c0-.1-1.5-.7-1.5-.7l-1.4-.7-.8-.4-.9-.4-1.2-.5-1.5-.5-1.7-.3h-1.8c0,0-1.8.2-1.8.2l-1.7.7-1.4.9-1.3,1.1-1.3,1.2-1.2,1.3-1.1,1.3-.9,1.3-.8,1.2-.6,1-.3.8v.7c-.1,0-.2,1-.2,1v1.2s.2,1.4.2,1.4l.3,1.5.5,1.6.6,1.6.8,1.5,1.1,1.4,1.3,1.2,1.7,1,2.5,1.1,1.9.6,1.4.3h1c0,0,.8,0,.8,0h.8c0,0,1.4.8,1.4.8l1.4,1,1.3.9,1.3.4,1.5-.3.6-1.2,1-.8h1.5"/>
  <path class="st7" d="M859.4,364.8l-1-.4-1.7-1.1-.6-1.7.4-1.7.7-.9,1.4-.2,1.3.4,1,1.3,1.2.9.8,1.4v1.5"/>
  <path class="st7" d="M871.4,431.3l1-1.2h1.3s.9.8.9.8l1.3,1.3,1.2,1.3.8.8,1.4.6h1.5s.3-1.2.3-1.2l-.8-1.5-.9-.9-1-1.3-.9-1.5-.7-1.2-.5-1.3-.5-1.5-.6-1.2v-.8c-.1,0,0-1.3,0-1.3l.2-1.6.3-1.8.3-1.9.3-1.8.3-1.5.2-1.1v-.9c.1,0,.3-1.3.3-1.3l.3-1.6.3-1.8.3-1.9.3-2,.3-1.9.3-1.8.3-1.6.2-1.3.2-1v-.6c.1,0,.2-1.1.2-1.1v-1.4s0-1.6,0-1.6v-3.2c0,0,.2-1.4.2-1.4l.3-1.7.3-1.8.4-1.8.4-1.7.4-1.5.4-1.2.4-.7"/>
  <path class="st4" d="M740.4,16.4l-.5,1.3.8,1.2.4.6-.9.8.7,1.2,1.4.7,1.5.7,1,.7,1.2.9,1.5,1.2,1.4,1.2,1,1,.3.6.4.7.7,1.1,1,1.4,1.2,1.5,1.2,1.6,1.2,1.5,1.1,1.3.9,1,.7.9.7,1.3.6,1.6.6,1.7.5,1.6.5,1.4.5,1,.5.8.5,1.4.5,1.7.4,1.9.4,1.8.3,1.5.2.9.2.5.3.9.5,1.2.6,1.4.7,1.6.8,1.7.9,1.6,1,1.6,1,1.4,1.1,1.2,1.2.9,1.5,1,1.5,1.1,1.5,1.2,1.4,1.2,1.3,1.2,1.1,1.1.8.8.5.5.2.2.2.6.4,1.1.6,1.4.7,1.7.7,1.9.8,2,.8,2,.7,1.9.6,1.7.5,1.4.4,1,.2.6.4.8.7,1.1.8,1.4.9,1.5.9,1.5.9,1.5.7,1.4.4,1.1.3,1.2.2,1.3.2,1.4.3,1.4.4,1.5.6,1.5.8,1.6,1.1,1.6,1,1.4,1.1,1.5,1.1,1.5,1.1,1.6,1.1,1.5,1,1.5,1,1.4.8,1.2.7,1,.6.8.4.5.4.4.6,1.1.8,1.6.8,1.9.7,1.9.6,1.7.4,1.2v.6c0,0,.1.9.1.9l.2,1.4.3,1.8.4,1.9.4,2,.5,1.9.5,1.6.5,1.2.5.7.7,1.1.8,1.6.8,1.8.7,1.8.5,1.6.3,1.1v.7s-.3,1.7-.3,1.7l-.6,1.7-.7.4-.8-.5-1.1-1-1.3-1.3-1.2-1.4-1.1-1.3-.7-1.1-.6-1-.8-1.2-.9-1.4-1-1.4-1.1-1.4-1.1-1.3-1-1.1-.8-.9-1.1-1.1-1.2-1.2-1.2-1.2-1-1.2-.8-1-.4-.8-.4-1-.5-1.4-.6-1.7-.7-1.8-.7-1.8-.7-1.7-.6-1.5-.4-1.1-.3-.6-.4-.9-.6-1.3-.8-1.6-.9-1.7-.9-1.8-.9-1.7-.8-1.6-.6-1.3-.3-.9-.3-1.4-.4-1.7-.2-1.2.3-1,.8-1.5.7-1.3.5-1.3-.2-1.9v-1.6l.2-.9.5-1.6.5-1.5.2-1.6-.7.2-1.3,1.2-.8,1.6-.7,1.8-.3.9-.6-.4v-3.2c0,0,.3-1.6.3-1.6l.6-1.2.8-1.7.3-.9-.5-.5-1.3,1.2-.6,1.5-.6,1.8-.2.5-.4-1.6v-1.8s0-1.9,0-1.9v-.6c0,0,.6-1.3.6-1.3l.5-1.8-.7-1.5-.3.5-1,1.9-.6,1.9-.2,1.3v.8s-.2,2-.2,2l-.5.5-.2-1.5-.2-2.1v-.9c0,0,0-1.3,0-1.3l.2-2.1v-1.6l-1-.2-.7,1.4-.4,1.9-.2,1.2v1.4s0,1.5,0,1.5v1.5s.1,1.6.1,1.6l-.7.5-.6-1.3-.6-1.9-.5-1.4v-.6s0-1.7,0-1.7v-2c0,0-.3-1.4-.3-1.4l-.8-.2-.4,1.7-.4,1.6v.7s0,1.9,0,1.9v2s.2,1,.2,1l.4,1.7.4,1.9v.8c.1,0,.7.8.7.8l1.1,1.6,1.2,1.8.9,1.5.3.7.2,1.2.2,1.9v1.8c0,0,0,1.6,0,1.6l.2,1.4.9.9.7.8.7,1.6.6,1.6v.7c.1,0,.4,1.2.4,1.2l.4,1.5.5,1.8.5,1.8.5,1.7.5,1.5.4,1.1.5,1.3.6,1.6.6,1.8.7,1.9.6,1.9.6,1.7.5,1.4.3,1v.5c.1,0,.3.4.3.4l.4.9.6,1.2.8,1.5.9,1.6,1,1.7,1,1.6.9,1.3.7,1.1.9,1.3,1,1.5,1,1.6,1.1,1.7,1.1,1.7,1,1.7.9,1.6.8,1.4.7,1.2.5.9.3.5.3.4,1,1.2,1,1.2,1,1.2,1,1.2,1,1.2,1,1.2.4.5.8.8,1.6.9,2.5.5,2.4.2h.8s.6-.2.6-.2l1.4-.5h1.8c0-.1,1.9.8,1.9.8l1.5.7.4.6v1.5c0,0,0,1.9,0,1.9l-.3.9-.6,1.3-.8,1.8-.8,1.7-1.3,2.5"/>
  <path class="st4" d="M829.5,199.4l-1,.5-1.6.9-1.4,1-.6,1.1.7,1.4,1.2.9.7.5.5,1.7.6,1.7.3.7.5,1.1,1,1.3,1.8,1.2,1.8.7,1.7.5,1.6.4,1.5.2h1.3s1-.2,1-.2l1-.5,1.2-.7,1.2-1,1.1-1.2.9-1.4.6-1.7.4-2.2.3-1.9.3-1.5.2-1,.2-.7.3-1.8v-1.5c-.1,0-.7-1-.7-1l-.8-1.9-.6-1.4-.7-.6-1.5-1.1-1.4-.5-1.4-.5-.2-.4-.3-1v-1.8c.1,0,1.2-2.5,1.2-2.5l1.4-1.5,1.7-.9,1.8-.4h1.5c0-.1,1-.1,1-.1h.4s1.5-.9,1.5-.9l1.2-1.1,1.2-1,.5-.3.6-.5.8-.9.9-1.4,1-2,.9-2.4.7-1.7.7-1.7.7-1.6.7-1.5.6-1.4.5-1.3.5-1.2.4-1.1.3-1,.3-1.2.5-1.5.6-1.7.6-1.8.7-1.8.6-1.6.6-1.3.5-.8.3-.4.4-.6.6-.9.7-1.2.8-1.3.9-1.5,1-1.6,1-1.6,1-1.6,1.1-1.5,1.1-1.4,1-1.2,1.9-2.1,1.3-1.6.8-1.1.6-.6.5-.3,1.4-.2,1.3.5,1.2,1.3.9.6,1.5.5,1.3.5,1.1,1.1,1.2,1.3,1,1.1,1.1.9h1.3c0,.1.2-1.3.2-1.3l-.2-1.7-.7-1.2-1.2-.9-1.2-1-.3-1.2-.6-1.5-1.4-1-1.8-.6-.9-.2"/>
  <path class="st4" d="M893.1,127h.7c0-.1,1.6-.5,1.6-.5l2-.5,1.7-.6,1-.7,1.1-1.1,1.2-1.3,1.1-1.3.8-1,.8-1.2.9-1.8.6-1.4v-.4c0,0-1.2.6-1.2.6l-1.4,1.5-1.2,1.3-1.3,1.3-1.2,1.1-1,.7-1.2.2-.6-.7.6-1.5.8-1.4,1.1-1.2.9-1.1.2-.9.3-1.8-.4-2.1h-.5s-.5,1.4-.5,1.4l-.7,1.7-.7,1.2-1.2,1.4-1.1,1h-1c0,0,.2-1.3.2-1.3l.4-1.6.5-1.9.4-1.7.2-.8v-1.2c0,0,0-1.9,0-1.9l-.2-1.7-1-.7-.5,1v1.5c-.1,0-.2,1.8-.2,1.8v1.4c-.1,0-.5,1.8-.5,1.8l-.5,1.6-.4.8-1.3.8-.8-.3-.2-1.9.2-1.8.2-1.1v-1.3c-.1,0-.9-2.3-.9-2.3l-1-1.9-.7-.7h-.8c0-.1-.4,1.1-.4,1.1l.4,1.8.5,1.6.2.7.5,1.7v1.5l-.6.8-1,1.2-1.5,2-1.3,1.2-.6.4-.7.3-1.7,1.1-1.5,1.3-1.1,1.1-.5.5-.7.5-1.3.8-1.6,1-1.8,1.1-1.6,1-1.3.8-.8.4-.7.6-1,1-1.1,1.3-1.2,1.5-1.1,1.5-1,1.4-.7,1.1-.4.8-.4,1-.6,1.4-.7,1.7-.7,1.9-.8,2-.7,1.9-.7,1.7-.5,1.4-.4,1-.2.5v.3c0,0-.3,1.1-.3,1.1l-.4,1.6-.5,2-.6,2.1-.6,2-.6,1.6-.6,1-.8.2-.8-.3-.5-1.5-.3-1.9-.2-1.3-.3-1.5-.3-1.7-.4-1.7-.4-1.7-.4-1.6-.4-1.4-.4-1.2-.4-1-.5-1.2-.6-1.4-.6-1.6-.6-1.6-.6-1.6-.5-1.5-.4-1.3-.3-1.1-.3-1.3-.3-1.6-.3-1.8-.3-1.8-.2-1.7-.2-1.5-.2-1.2v-.9c-.1,0-.3-1.4-.3-1.4l-.2-1.8-.2-2-.2-1.9-.2-1.5v-.9c0,0-.2-.4-.2-.4l-.3-1-.5-1.6-.5-1.9-.3-1.9v-1.4c-.1,0-.3-1.7-.3-1.7l-.2-1.9-.2-1.9v-1.8c-.1,0-.2-1.5-.2-1.5v-1.1s0-.5,0-.5v-.4s0-.7,0-.7l-.2-1.1-.3-1.3-.4-1.6-.5-1.7-.5-1.8-.6-1.9-.6-1.9-.7-1.8-.7-1.7-.7-1.5-.6-1.3-.8-1.5-.9-1.7-.9-1.7-.8-1.7-.7-1.5-.6-1.4-.5-1.1-.4-.8-.4-.5-1-1.1-1.3-1.4-1-1.1-.3-.3-.3-.7-.4-1.1-.5-1.4-.6-1.6-.7-1.8-.8-1.8-.8-1.8-.8-1.4-.8-1.2-1-1.3-1.1-1.4-1.2-1.4-1.2-1.4-1.2-1.3-1.1-1.2-1-1.1-.9-1-.8-.8-.6-.6-.8-.8-1.2-1.2-1.4-1.3-1.3-1.3-1.2-1.1-.9-.9-.5-.6-.6-1.2-.8-1.6-.7-1.6-.5-1.1-.3-1-.3-1.5-.3-1.7-.3-1.8-.2-1.5v-1.3c-.1,0-.3-1.7-.3-1.7l-.3-1.9-.3-1.9-.3-1.6-.2-1.1v-.5s-.3-1.5-.3-1.5l-.4-2-.4-1.3-1.1-1-.5,1.3v1.3c-.1,0-1.2-1-1.2-1l-.3-1.6-1-.8-.3,1.3v1.8s-1.1-.4-1.1-.4l-.3-1.5-.8-1.3-.7.3-.4,1.7-.3-1.4-.9-.9-.8,1.3.4,1.3"/>
  <path class="st4" d="M784.8,4.8l-.5-.7-1-1.6-.7-1.6-1.2-.6-1.4.7-.5,1.6v1.3c0,0,.2.5.2.5l.6,1.4.9,1.7,1.1,1.7,1,1.6.7,1.8.4,1.5.2.9v.6c.1,0,.6,1.7.6,1.7l.5,2,.2,1.5-.3.9-.4,1.6v1.7c0,0,.4,1,.4,1l.9.8,1.3.8,1.5.8,1.7.8,1.2.8,1.1,1.1.9,1.3.8,1.4.7,1.3.5,1,.3.7.5,1,.5,1.2.6,1.4.7,1.5.7,1.6.7,1.7.7,1.7.7,1.7.7,1.7.6,1.6.6,1.5.5,1.3.4,1.2.5,1.6.5,1.7.5,1.6.5,1.5.6,1.3.7,1.2.8,1.1.9.9,1.2.9,1.5,1,1.3.9,1.2.9.9.9.7,1,.3.8.3,1.1.3,1.4.4,1.7.4,1.8.4,1.9.4,2,.4,1.9.3,1.8.3,1.6.2,1.3.2.9v.6c0,0,.2,1,.2,1v1.4s0,1.7,0,1.7v1.9s0,2,0,2v2c0,0,0,1.9,0,1.9v1.6s0,1.2,0,1.2v.8c0,0,.4,1.6.4,1.6l.3,1.7v1.3c0,0-.7.4-.7.4l-1.2-.3-1.5-.8-1.4-1.1-.9-1-.7-1-.9-1.3-1-1.5-1.1-1.6-1-1.5-.9-1.4-.7-1.1-.5-.8-.4-.8-.6-1.2-.8-1.5-.8-1.6-.9-1.7-.8-1.6-.8-1.5-.6-1.2-.5-.8-.5-.8-.7-1.1-.9-1.3-1.1-1.5-1.1-1.6-1.2-1.6-1.1-1.6-1-1.5-.9-1.3-.7-1.1-.5-.8-.4-.8-.7-1.1-.8-1.2-.9-1.4-.9-1.4-.7-1.2-.8-1.5-.9-1.7-.9-1.8-.8-1.7-.7-1.4-.5-1-.2-.5-.2-.2-.6-.5-1-.7-1.2-.9-1.4-1.1-1.5-1.2-1.6-1.3-1.6-1.3-1.5-1.3-1.3-1.3-1.1-1.2-.8-1.1-.5-.9-.4-1.6-.5-1.8-.5-1.7-.5-1.6-.3-1.3-.2-.9v-.8s0-1.1,0-1.1l-.3-1.4-.8-1.5-1.4-1.5-.9-.7-1.7-.8-1.3-.7-1.2-1.1-.6-1.2-.5-1.3-.8-1.5-.8-1.5-.7-1.2-.9-1.3-1.1-1.5-1-1.3-.5-.6-1-.9-1.5-1.3-1.3-1.2-.8-.7-1.5-.6-1.4.4-.3,1.2.6,1.5,1.5,1.1,1,.8-.9.8-1.1-.6-1.5-1.2h-1c0-.1-.7,1-.7,1l1.4,1.8.8.6-.3.9-1.7-1-1.2-.6-.6,1.1.8,1.2,1.2.9"/>
  <path class="st2" d="M584.4,80.7h-.2s-.5-.1-.5-.1h-.7c0-.1-1-.3-1-.3l-1.2-.2-1.4-.2-1.6-.3-1.7-.3-1.8-.3-1.9-.3-2-.3-2-.3-2-.2-2-.2-1.9-.2h-1.8c0-.1-1.7-.2-1.7-.2h-1.6s-1.4,0-1.4,0h-1.2c0,0-1.1.2-1.1.2l-1.2.2-1.3.2-1.4.2-1.5.3-1.6.3-1.7.3-1.7.3-1.8.4-1.8.4-1.8.4-1.8.4-1.8.4-1.8.4-1.7.4-1.7.4-1.6.4-1.5.4-1.5.4-1.4.3-1.2.3-1.1.3-1,.3-.8.2-.8.3-1.3.5-1.4.6-1.5.7-1.6.8-1.6.9-1.6.9-1.6.9-1.6.9-1.5.8-1.4.8-1.2.6-1,.5-.8.3-.7.2-1.4.2-1.7.2h-1.8c0,.1-1.7.2-1.7.2h-1.5s-1-.1-1-.1l-.6-.3-1.1-.7-1.4-1-1.6-1.1-1.7-1.2-1.7-1.2-1.6-1.2-1.3-1-1-.7-.5-.3h-.1c0-.1-.5-.5-.5-.5l-.8-.6-1.1-.8-1.3-1-1.5-1.1-1.6-1.2-1.6-1.2-1.6-1.1-1.5-1-1.4-.9-1.3-.8-1.4-.9-1.5-1-1.5-1.1-1.4-1.1-1.3-1-1.2-.9-1.1-.7-.9-.5-.7-.2h-1.3s-1.6.2-1.6.2l-1.6.3-1.5.5-1,.6-.6.5-.8.7-1,.9-1.1,1.1-1.2,1.2-1.3,1.3-1.3,1.3-1.3,1.3-1.3,1.3-1.2,1.2-1.1,1-.9.9-1.2,1.1-1.3,1.2-1.4,1.2-1.4,1.2-1.3,1.1-1.2,1-1.1.8-.9.5-.7.2h-1.2c0,.1-1.5.2-1.5.2l-1.6.2-1.6.4-1.8.8-1.6.9-1.1.7-.8.4-1.3.9h-1.4s-1.8-.4-1.8-.4l-.9-.4-1.3-1.2-1-1.1-1.2-1.1-1.2.4v1.6c0,0,.8.9.8.9l1.2,1.2,1,1,1.6.9.9.4,1.8.4.9.7-1,.5h-1.4c0,.1-1.9.3-1.9.3h-1.4c0,.1-1.6.3-1.6.3h-1.9c0,0-1.3,0-1.3,0l-.9-.4-1.8-.6h-1.5c0,0,0,1.4,0,1.4l1.3,1.3.9.5,1.4.6,1.3.5h.9s1.9.1,1.9.1h2s1.3,0,1.3,0"/>
  <path class="st2" d="M417,99.4h-.4c0,0-1.1,0-1.1,0l-1.8.4-2.4,1.1-2.1,1.1-1.8.6-1.5.4-1.2.4-.8.6-.5,1.4,1.2.8h1.4s1.7-.5,1.7-.5h.9c0,0,2.1,0,2.1,0h1.2"/>
  <path class="st2" d="M403.6,104.6l-.9.2-1.9.3-1.7.2h-1.5c0,0-1.7-.2-1.7-.2h-.8c0,0-1.6-.1-1.6-.1l-1.9.2-1.1,1.2.3,1,1,.4,1.9.6,1.5.2h1.6c0-.1,2-.3,2-.3h1.1c0,0,1.3-.4,1.3-.4l1.5-.3,1.5-.3,1.5-.3,1.4-.3.8.7-1,1.1-1.5,1.2-1.2.5-1.5.4-1.9.5-1.7.5-1.1.3-1,.2-1.6.5-1,1.1.4,1.3,1.4.5h1.9s2-.2,2-.2l1.7-.3.9-.2h.6c0-.1,1.7-.5,1.7-.5l1.7-.6,1-.5,1.4-.8,1.6-.9,1.4-.9.9-.6.7-.6,1.1-1,1.4-1.3,1.5-1.4,1.5-1.5,1.5-1.4,1.2-1.2.9-.9.5-.4.9-.6,1.2-.8,1.2-.8,1.2-.8,1.2-.8,1.2-.8,1.2-.8,1.2-.8,1.2-.8,1.2-.8.7-.5.7-.4,1.3-.7,1.7-.9,1.9-1,1.9-1,1.7-.9,1.4-.8.9-.5,1-.7,1.5-.7h1s.9.4.9.4l1.4.7,1.7.9,1.8,1,1.7,1,1.4.9.9.6.4.4,1,.8,1.6,1.2,1.7,1.2,1.5,1,.8.6.2.2.4.5.7.8.9,1.1,1.1,1.3,1.2,1.5,1.3,1.6,1.4,1.7,1.4,1.7,1.4,1.7,1.3,1.6,1.3,1.5,1.1,1.3,1,1.1.8.8.5.5.3.2,1,.5,1.3,1,1.1,1.3.5,1.4-.5,1.6-.8,1.6-.9,1.2-.7.5h-1.3c0,.1-1.8,0-1.8,0l-1.3-.4-.9-.7-1.2-.6h-1.6s-1.7,1-1.7,1l-1.3,1.3-1.2,1.3-1,1.2-.8.9-.9.4-1.5-.2h-1.4c0,.1-.7,1-.7,1l-.3,1.4.2,1.8.7,2,.4,1v1c0,0-.4.9-.4.9l-.5,1.2-.6,1.4-.6,1.6-.5,1.8-.3,1.8v1.5s.2,1.2.2,1.2l.4,1.4.5,1.5.7,1.6.8,1.6.9,1.6,1,1.5,1,1.3,1,1.1,1.1.9,1.1.6,1.1.2h1.1c0,.1,1.2.3,1.2.3l1.3.2,1.4.2h1.4c0,.1,1.5.2,1.5.2h1.5c0-.1,1.5-.4,1.5-.4l1.5-.5,1.4-.8,1.4-1.1,1.3-1.4,1.6-2.4,1.3-2,.9-1.5.5-1.1.3-.9v-.9c.1,0,.3-.9.3-.9l.2-1.1v-1.4c0,0,0-1.5,0-1.5v-1.6c0,0,0-1.6,0-1.6v-1.6s.2-1.5.2-1.5l.4-1.6,1.1-1.6,1.3-1.2,1.3-.7.9-.3h.7c0-.1,1.4-.3,1.4-.3l1.8.2,1.3.6,1,.6,1.3.7,1.5.8,1.6.9,1.7.9,1.6.8,1.5.7,1.3.5,1,.3h.7c0,0,1,.2,1,.2l1.3.2,1.5.2,1.7.2,1.8.2,1.9.2h1.9c0,.1,1.9.3,1.9.3h1.9c0,0,1.7.1,1.7.1h2.9c0,0,1.1-.2,1.1-.2l.9-.2,1.1-.2,1.3-.2,1.4-.2,1.5-.2,1.6-.2h1.7c0-.1,1.7-.1,1.7-.1h1.7s1.7.1,1.7.1l1.6.2,1.5.3,1.4.4"/>
  <path class="st2" d="M556.2,139v.2s-.2.7-.2.7l-.2,1.1-.2,1.4-.2,1.6-.3,1.8-.3,1.9-.2,2-.2,2-.2,1.9v1.8c-.1,0-.2,1.6-.2,1.6v1.3s.2,1.9.2,1.9v1.8s0,1.7,0,1.7l-.2,1.5-.3,1.3-.4,1.2-.4,1.1-.6,1.1-.9,1.4-1.1,1.4-1,1.4-.9,1.2-.6.9-.5,1.4-.5,1.6v1c0,0,0,1.4,0,1.4v1.8c0,0,0,1.6,0,1.6l.2,1.6.7.5,1.2-.3.7-1.7v-2.4c0,0-.2-1.5-.2-1.5v-.7s1.4-.9,1.4-.9l.7.5.3,2v1.2c.1,0,.3,1.5.3,1.5l.2,1.5.2,1.5v1.5c.1,0,.3.8.3.8l.2,1.3.2,1.9v1.9c.1,0,0,1.8,0,1.8l.5,1.7.8.9.7-.2.4-1.1.4-2.3v-1.8c0,0,0-2,0-2l-.3-1.9-.3-1.5-.2-.8v-.8c0,0,.2-1.7.2-1.7l.8.4.8,1.2.5,1.7v1.7s.1,1.6.1,1.6l.2,1.9.3,1.9.2,1.6v1c.1,0-.2.9-.2.9v1.2s1.1,1.1,1.1,1.1l1.1-1.1.6-1.5.2-1.4-.2-1.1-.2-1.5-.2-1.7-.2-1.5-.2-1.3-.2-1.8-.2-1.9-.2-1.5v-.9c0,0,.8,0,.8,0l.6.7.9,1.3.8,1.8.3,2.2v2.2s0,1.6,0,1.6v1c0,0,.7.8.7.8h1.1c0-.1.3-1.1.3-1.1l.2-1.6v-1.9c.1,0,.1-1.8.1-1.8l-.2-1.4-.5-1.5-.8-1.8-.8-1.7-.5-1.1-.4-.5.6-.6,1.1,1.4.6,1.2.9,1.8.6,1.2.6.9,1-.2.4-1.3v-1.4c-.1,0-.5-1.7-.5-1.7l-.6-1.8-.7-1.7-.7-1.3-.7-.9-.9-1.1-1-1.4-.9-1.5-.8-1.4-.4-1.1v-.6s0-.9,0-.9l.2-1.3.3-1.6.4-1.8.5-1.9.5-1.9.5-1.8.5-1.7.5-1.4.5-1.1.5-1,.7-1.3.8-1.5.9-1.6.8-1.6.7-1.4.6-1.2.4-.9.2-.9.2-1.4.2-1.7v-1.9c0,0,0-1.8,0-1.8v-1.7c-.1,0-.4-1.4-.4-1.4l-.5-.9-1.2-.8-1.7-.8-1.9-.6-1.8-.5-1.4-.3h-.6c0-.1-.3-.2-.3-.2h-.9c0,0-1.4-.2-1.4-.2h-1.7c0-.1-1.9-.3-1.9-.3l-2-.2-2-.2h-1.8c0-.1-1.5-.2-1.5-.2h-1.1s-1.3,0-1.3,0h-1.6c0,0-1.8.1-1.8.1h-1.9c0,0-1.9.2-1.9.2h-1.8s-1.6,0-1.6,0h-1.3s-.9-.1-.9-.1l-.9-.5-.9-1.4v-.4s.7-.6.7-.6l1.3-1,1.6-1.2,1.6-1.2.7-.5,1-.6,1.2-.8,1.4-.9,1.6-.9,1.6-1,1.7-1,1.8-1,1.7-1,1.7-.9,1.6-.9,1.4-.7,1.2-.6,1-.4.7-.3h.5s.7,0,.7,0h1c0,.1,1.2.3,1.2.3l1.5.2,1.6.3,1.8.3,1.9.3,1.9.3,1.9.3,1.9.3,1.8.3,1.6.3,1.4.2,1.2.2,1.1.2,1.4.4,1.5.6,1.5.7,1.5.8,1.5.8,1.5.7,1.4.6,1.4.5,1.2.3h1.1s1.2-.2,1.2-.2l1.4-.2,1.6-.2,1.7-.3,1.8-.3,1.8-.4,1.7-.4,1.5-.4,1.2-.5.9-.5.7-.5,1.3-.3h1.7c0,0,2,.4,2,.4l2,.5,1.8.5,1.5.4.8.3h.2c0,0,.4.2.4.2l.7.2,1,.3,1.3.4,1.5.4,1.7.5,1.8.5,2,.5,2,.6,2.1.6,2.1.6,2,.5,1.9.5,1.8.5,1.7.4,1.5.4,1.2.3.9.2h.7c0,.1,1.4.4,1.4.4l1.6.4,1.7.4,1.7.5,1.5.5,1.3.4.9.3.7.4,1,.7,1.3,1,1.5,1.2,1.5,1.3,1.6,1.3,1.5,1.2,1.3,1.1,1.1.8.7.5.3.2.4.2.6.3.7.4.9.4,1,.5,1.2.6,1.3.6,1.4.7,1.5.7,1.6.7,1.6.7,1.7.8,1.7.8,1.8.8,1.8.7,1.8.7,1.8.7,1.8.6,1.8.6,1.7.5,1.7.5,1.6.4,1.6.3,1.5.2h1.3c0,.1.4.2.4.2l1,.2,1.5.3,1.8.4,2,.5,2.1.5,2,.5,1.7.5,1.3.5.7.4,1.2,1.1,1.2.8,1,.9.4.9.4,1.1.7,1.3,1.3,1.3,1.9,1,1.8.4h1.7c0,.1,1.6,0,1.6,0h1.4s1.1,0,1.1,0l.9.4,1.4.6,1.7.7,1.7.7,1.4.7.7.6.8,1.1,1.2,1.6,1.2,1.6.8,1.1.2.4.7,1.1,1.1,1.7,1.1,1.2,1.1.8.8,1.4,1.1.5,1.5.2h1.6c0-.1,1.1-1,1.1-1v-1.9c.1,0-.4-1.5-.4-1.5l-.8-.9-1.1-.8-1.3-.7.6-1,1.2.4,1.8.4,1.2-.5v-.8s-.8-1.2-.8-1.2l-2.2-1.2-1.1-.8h.6s1.8.3,1.8.3l1.6.7.5-.6v-1.2s-1.5-1.2-1.5-1.2l-2.1-1,.3-.5,1.6.4.9-1.1-.7-.9-1.7-.6-.2-.8h1.9c0,0,.8-.2.8-.2l.9-1-1.2-1-2.7-.3h-1.8c0-.1-.9-.1-.9-.1h-.2c0,0-.8-.6-.8-.6l-1.4-.9-1.7-1.1-1.8-1.1-1.6-.9-1.2-.4h-.9c0,0-1.3-.5-1.3-.5l-1.6-.6-1.7-.7-1.6-.6-1.4-.5-1.2-.3-1.4-.4-1.6-.5-1.6-.5-1.5-.4-1.3-.3-.6-.2-.7-.3-.9-.4-1.1-.5-1.3-.6-1.4-.7-1.5-.8-1.6-.8-1.6-.9-1.7-.9-1.6-.9-1.6-1-1.5-.9-1.4-.9-1.3-.9-1.2-.8-.9-.7-1-.7-1.2-.8-1.3-.9-1.5-.9-1.6-1-1.6-1-1.7-1.1-1.7-1.1-1.7-1.1-1.7-1.1-1.6-1-1.6-1-1.5-.9-1.4-.8-1.2-.7-1-.6-.8-.5-.6-.4-.4-.2h-.2c0-.1-.5-.5-.5-.5l-.8-.8-1.1-1-1.3-1.2-1.5-1.3-1.5-1.3-1.5-1.2-1.4-1.1-1.2-.8-.8-.4-.5-.2-.7-.3-.8-.4-1-.5-1.1-.5-1.2-.6-1.4-.6-1.5-.7-1.5-.7-1.6-.7-1.7-.7-1.7-.8-1.8-.8-1.8-.8-1.8-.8-1.8-.8-1.8-.8-1.8-.8-1.7-.7-1.7-.7-1.6-.7-1.5-.6-1.4-.6-1.4-.5-1.2-.4-1.1-.4-1-.3-.8-.2-.9-.3-1-.3-1.1-.4-1.3-.4-1.4-.5-1.5-.5-1.5-.6-1.6-.6-1.7-.6-1.7-.6-1.8-.6-1.8-.7-1.8-.7-1.8-.7-1.9-.7-1.8-.7-1.8-.7-1.8-.6-1.7-.6-1.7-.6-1.6-.6-1.6-.5-1.5-.5-1.4-.4-1.3-.4-1.2-.3-1-.3-.9-.2h-.8c0-.1-.6-.2-.6-.2h-1.7c0,0-1.3.1-1.3.1h-1.5c0,.1-1.7.3-1.7.3l-1.8.2-1.9.2-1.9.2-1.9.2-1.9.2-1.8.2-1.7.2-1.6.2-1.4.2-1.2.2-.9.2-.6.2"/>
  <path class="st2" d="M562.9,111.8h.3c0,.1.9.6.9.6l1.3.7,1.6.8,1.8.9,1.9,1,1.9,1,1.8.9,1.6.8,1.2.7.8.4.4.2.8.4,1.2.5,1.6.6,1.8.7,1.9.8,2,.8,1.9.7,1.8.7,1.5.6,1.2.4.7.2h.5c0,0,1.1,0,1.1,0h1.6c0-.1,1.9-.3,1.9-.3l2-.2,2-.2,1.9-.2,1.6-.2h1.1c0-.1.9-.1.9-.1l1.7.5,1.3.7.2.2.4.3.6.5.8.7,1,.8,1.2.9,1.3,1,1.4,1.1,1.5,1.2,1.6,1.2,1.6,1.2,1.6,1.2,1.6,1.2,1.6,1.1,1.5,1,1.4,1,1.3.8,1.2.7,1,.5.9.4,1.1.5,1.2.6,1.4.7,1.5.8,1.6.9,1.7.9,1.7,1,1.7,1,1.7,1,1.6,1,1.6,1,1.5.9,1.4.9,1.2.8,1,.7.8.6.6.4.3.3.2.4.4.6.5.9.6,1.1.7,1.2.8,1.4.8,1.5.9,1.5,1,1.6,1,1.6,1.1,1.5,1.1,1.5,1.2,1.4,1.2,1.2,1.2,1.1,1.1.9,1.1,1,1.2,1.1,1.2,1.2,1.3,1.3,1.3,1.4,1.3,1.4,1.3,1.4,1.3,1.4,1.2,1.4,1.2,1.4,1.1,1.3,1,1.2.9,1.1.8,1,.7.9.5.7.4.6.2.4v1.2c.1,0,0,1.3,0,1.3l-.3,1.5-.2,1.6.2,1.8.6,1.8.7,1.3.8,1,1.1.7,1.6.6,1.8.4,1.5.3.9.3.4.6.8,1.2,1,1.6,1,1.6.9,1.2,1.1,1.2,1.2,1,1,.9,1,1,1.2,1.1.8.9,1.3.9h1.4s1.4-.2,1.4-.2l1.5.6h1.1c0-.1,1.3-1.2,1.3-1.2l1.2-.5h1.6c0,.1,1.1-1.2,1.1-1.2l-.2-1.1v-.8c0,0,1.5.8,1.5.8h1.4c0,0,1.4-.8,1.4-.8l.6-1v-1.1c0,0-2.1-1-2.1-1l-1.9-.9-1.2-.8-.4-.3-.7-.9-1.4-1.3-1.3-.6-1.2-.6-1.5-.9-1.5-.9-1.2-.7-.9-.6-1.1-1.1-1.2-1.4-1.1-1.4-.8-1.1-.5-.8-.7-1.2-.9-1.6-1-1.6-.8-1.4-.6-1-.7-1-1-1.1-1.2-1.1-1.1-1.1-.7-.9-.8-1.2-.9-1.5-1-1.7-.9-1.7-.9-1.5-.7-1.2-.5-.7-.5-.6-.7-1.2-.9-1.6-.9-1.8-.9-1.7-.7-1.4-.5-1-.3-.5-.5-.9-.8-1.2-.9-1.5-1-1.6-1.1-1.7-1.1-1.6-1-1.5-.9-1.2-.7-.9-.5-.7-.6-.9-.7-1.2-.8-1.4-.9-1.5-.9-1.5-.9-1.5-.9-1.5-.9-1.3-.8-1.1-.6-.6-.6-.6-.8-.8-.9-.9-1.1-1-1.2-1.1-1.3-1.2-1.4-1.3-1.4-1.3-1.5-1.3-1.5-1.3-1.4-1.3-1.4-1.3-1.3-1.2-1.3-1.1-1.2-1-1-.9-.9-.8-.7-.6-.5-.5"/>
  <path class="st2" d="M488.5,135.2l1.2.5.9,1.4.4,1.6.4,1.6.3,1.1v1.6s-.5,1.7-.5,1.7l-1,.9-1.4.3-1.4-.2-1.1-1.2"/>
  <path class="st0" d="M440.7,305.4l1.1.3h1.9s1.7,0,1.7,0l1.1.3.7.9-.2,1.8-.6,1.2-.9,1.2-1.2.8h-1.6l-2.2-.9-1.5-.3h-.9s-.8-.2-.8-.2l-1-.3-1.2-.5-1.3-1-1.1-1.6-.9-2.3-1-1.9-1.1-1.1-1-.7-.8-.6-.8-.9-1.4-1.1-1.5-.9-1.1-.3h-.7c0,.1-1.3.2-1.3.2h-1.6c0,0-1.6-.5-1.6-.5l-1.4-.9-1-1.5-.4-1.9v-1.6c-.1,0,0-1.5,0-1.5l.2-1.4.3-1.4.4-1.4.4-1.4.5-1.4v-1.5c.1,0-.1-1.7-.1-1.7l-.6-1.9-.8-1.8-.8-1.7-.8-1.5-.6-1.1-.4-.6h0c0-.1-.2-.4-.2-.4l-.4-.6-.5-.8-.6-1-.8-1.2-.9-1.4-1-1.5-1-1.7-1.1-1.7-1.1-1.8-1.1-1.8-1.1-1.9-1.1-1.8-1.1-1.8-1-1.7-.9-1.6-.8-1.5-.7-1.4-.6-1.2-.5-1-.3-.8v-.6c-.1,0-.3-1-.3-1v-1.3c-.1,0-.3-1.6-.3-1.6l-.2-1.7-.2-1.9-.2-1.9-.2-1.9-.2-1.8-.2-1.7-.2-1.5-.2-1.2-.3-.9-.3-.5-.5-.6-.8-.7-1-.9-1.2-1-1.4-1.1-1.5-1.2-1.6-1.2-1.6-1.2-1.6-1.2-1.6-1.2-1.6-1.1-1.5-1.1-1.4-1-1.2-.9-1-.7-.8-.5-.6-.3-.5-.3-.8-.5-1-.7-1.3-.9-1.4-1-1.5-1.1-1.7-1.2-1.7-1.2-1.7-1.2-1.7-1.2-1.6-1.2-1.6-1.1-1.4-1-1.3-.9-1.1-.7-.8-.6-.5-.3h-.5c0-.1-1.4.8-1.4.8l-.3.5.3.5.6.8.8,1.1,1,1.3,1.1,1.5,1.2,1.6,1.3,1.7,1.3,1.7,1.3,1.7,1.2,1.6,1.1,1.5.9,1.2.7,1,.4.7.2.4.3.6.5.9.7,1.2.8,1.4,1,1.6,1,1.7,1.1,1.8,1.2,1.8,1.2,1.9,1.1,1.8,1.1,1.7,1,1.6.9,1.5.8,1.3.7,1,.5.8.3.4h0c0,.1.4.6.4.6l.6,1.2.5,2v2.9c0,0,0,2.5,0,2.5v1.8s0,1.1,0,1.1v.4s0,.3,0,.3l.3.9.4,1.3.5,1.6.6,1.8.6,1.9.5,1.9.4,1.8.3,1.5.2,1.3.2,1.5.3,1.6.3,1.7.3,1.7.3,1.7.3,1.6.2,1.4.2,1.2v.8c0,0,.3.9.3.9l.3,1.2.4,1.5.5,1.6.6,1.8.7,1.9.7,1.9.7,1.9.7,1.8.7,1.6.6,1.4.6,1.1.5.8.4.5.9.7,1.2.8,1.4.9,1.5,1,1.4,1,1.3.9,1,.9.8.7,1.2.8,1.4.9,1.6.9,1.7.9,1.6.9,1.5.8,1.2.7.9.5.9.5,1.5.6,1.8.6,1.8.6,1.5.4,1,.2h.9c0,.1,1.5.5,1.5.5l1.8.3,1.7.2h1.4s1,1.1,1,1.1l.3,1.3-.4,1.4-1.4.6-1.1.6-.8,1.4-.9,1.1h-1.6c0,0-1.7-.2-1.7-.2l-1.5-.4-1-.4"/>
  <path class="st0" d="M424.6,318.7l-.6,1.4-.9,1.4h-1.3c0-.1-1.7-.4-1.7-.4l-1.4-.5.9.8.8.9-1.4.9-1.5-.2-1.6-.6.2.7.2,1.3-1.3.9-1.4-.4-1.3-1-1-.9-1.5-1.1-1.6-1.1-1.1-.8-.3-.2-.7-.4-1.3-.7-1.6-.9-1.8-1-1.7-.9-1.5-.7-.9-.2h-.9s-1,.2-1,.2h-1.1c0,.1-1.1.2-1.1.2l-1.2-.2-1.2-.6-1.2-1.1-1.2-1.7-1.1-2.5-.9-2.7-.8-2.1-.9-2-.9-1.9-1-1.8-1-1.7-1-1.5-1-1.4-1-1.3-.9-1.2-.9-1-.8-.9-.6-.7-.5-.5-.4-.4-.2-.2h-.1c0-.1-.3-.5-.3-.5l-.4-.5-.5-.7-.6-.8-.8-1-.8-1.1-.9-1.2-.9-1.3-1-1.4-1-1.5-1-1.6-1-1.6-1-1.7-.9-1.7-.9-1.7-.8-1.8-.7-1.8-.6-1.8-.5-1.7-.4-1.7-.5-2.7-.4-2.5-.3-2.2-.3-2-.2-1.8-.2-1.6-.2-1.3v-1.1c-.1,0-.3-.9-.3-.9l-.2-.7-.2-.6-.2-.4-.2-.2-.4-.4-.5-.6-.7-.7-.8-.9-.9-1-1.1-1.1-1.2-1.2-1.2-1.4-1.3-1.4-1.4-1.5-1.4-1.5-1.5-1.6-1.4-1.6-1.5-1.6-1.4-1.6-1.4-1.5-1.4-1.5-1.3-1.4-1.2-1.3-1.1-1.2-1.1-1.1-.9-1-.8-.9-.7-.7-.5-.6-.3-.4-.3-.3-.5-.3-.6-.4-.8-.4-.9-.5-1-.5-1.1-.6-1.1-.7-1.2-.9-1.2-1-1.2-1.2-1.2-1.3-1.1-1.5-1.1-1.7-1-1.9-.9-2.2-.8-2.4-.6-2.3-.6-2.2-.6-2.2-.6-2.1-.5-2.1-.5-2-.5-2-.5-1.9-.5-1.8-.4-1.7-.4-1.6-.4-1.5-.3-1.3-.3-1.2-.3-1-.2-.9-.2-.7v-.5c-.1,0-.2-.3-.2-.3v-.2s-.1-.2-.1-.2l-.3-.6-.5-1-.7-1.3-.8-1.6-.9-1.7-1-1.8-1-1.8-1-1.8-.9-1.6-.8-1.4-.6-1.2-.5-.9-.4-1.1-.4-1.5-.4-1.7-.4-1.8-.3-1.8-.3-1.7-.3-1.5-.3-1.3-.4-.9-.8-.9-1.4-1.2-1.6-1.2-1.5-1-1-.7-.3-.2-.8-.5-1.3.6-.8,2-.2,1.1-.3,1.4-.3,1.6-.4,1.8-.4,2-.4,2-.4,2-.4,2-.3,1.9-.3,1.7-.3,1.5-.2,1.2v.9c-.1,0-.2.5-.2.5v.2s0,.8,0,.8v1.4s0,1.9,0,1.9v2s0,2,0,2l.2,1.8.3,1.4.3.7.4.7.6.9.8,1.2.9,1.4,1,1.5,1.1,1.7,1.1,1.7,1.2,1.8,1.1,1.8,1.1,1.7,1,1.6.9,1.5.8,1.3.6,1.1.4.8.2.5v.4c0,0,0,1.1,0,1.1l.3,1.6.5,1.8.6,1.8.7,1.6.8,1.1.9.6,1.2.8,1.4,1,1.4,1,1.4.9,1.2.6,1.5.4,1.6.6,1.3.7.7.8.4,1.1.5,1.4.8,1.5,1.2,1.3,1.5,1.3,1.3,1.2.8.9v.4l-.6.8-1.2.6-1.8-.5-2.2-2-1.5-1.6-.9-1-.7-.6-.8-.5-1.6-.8-.6.4.2,1,1.4,1.5,1.5,1.1,1.4,1.2,1.5,1.2,1.3,1.1,1,.8.5.4.9.5,1.5.9,1.6,1.1,1.2,1,.6,1.4-.6,1h-.8c0,.1-1.2,0-1.2,0l-1.6-.9-1.6-1.5-1.4-1.2-1.6-1.2-1.5-1.1-1.4-1-1.1-.8-.6-.4h0s.6.7.6.7l1,1.2,1.2,1.5,1.3,1.7,1.2,1.4,1.4,1.2,1.4,1.1,1.3,1.1.9,1,.2.9-.7.7-1.4-.4-1.6-1.2-1.4-1.4-.9-.9-.2-.3-.8-.8-1.3-1.3-1.5-1.4-1.4-1.2-1-.7-.6.8.3.5.8,1,1.2,1.5,1.3,1.6,1.2,1.4.8.9,1,.9,1.4,1.1.8,1.1-.6,1h-1.5c0,.1-1-.5-1-.5l-1.2-1-1.4-1.2-1.4-1.3-1-1.1-.5-.8-.8-1.2-1.1-1.4-.9-1.2-1.1-.4.4,1.3.5,1.4.5,1.4.4,1.1.5.6,1.2,1.2,1.9,1.6,1.8,1.5v.5c-.1,0-.5.2-.5.2l-.8.2h-1.1s-1.4-.4-1.4-.4l-1.6-.9-1.7-1.7-1.7-2.4-1.2-2.3-.9-2-.6-1.8-.4-1.5-.2-1.2v-.9c-.1,0-.2-.6-.2-.6l-.2-.4-.4-1-.5-1.5-.6-1.8-.7-1.7-.7-1.4-.6-.8-.8-1.1-1.1-1.5-1.2-1.6-1.2-1.7-1.1-1.6-.9-1.3-.7-.9-.3-.4v-.2c-.1,0-.5-.6-.5-.6l-.6-.9-.7-1.2-.9-1.4-1-1.6-1.1-1.7-1.1-1.8-1.1-1.9-1.1-1.8-1.1-1.8-1-1.7-.9-1.5-.8-1.3-.6-1.1-.4-.7-.2-.5-.4-1-.6-1.4-.7-1.6-.8-1.8-.8-1.8-.7-1.7-.5-1.4-.3-1.1v-.5c0,0,0-.4,0-.4v-.7s0-1,0-1v-1.2c0,0-.1-1.4-.1-1.4v-1.6c0,0-.2-1.8-.2-1.8v-1.9c-.1,0-.2-2-.2-2v-2c-.1,0-.2-2.1-.2-2.1v-2.1c0,0-.2-2.1-.2-2.1v-2.1c0,0-.2-2-.2-2v-1.9c0,0-.1-1.8-.1-1.8v-1.6s0-1.5,0-1.5v-1.3s0-1,0-1v-.8s0-.5,0-.5l.2-1,.3-1.4.4-1.6.4-1.8.5-1.9.5-1.9.5-1.8.4-1.6.4-1.3.3-.9.2-.5.4-.4.7-.6,1-.8,1.2-.9,1.4-1,1.5-1.1,1.6-1.1,1.6-1.1,1.6-1.1,1.5-1.1,1.4-1,1.3-.9,1.1-.8,1-.7,1.3-1,1.4-1.1,1.4-1.2,1.4-1.2,1.3-1.2,1.1-1.1.9-1,.6-.8.3-.6.2-.9.3-1.2.4-1.5.3-1.7.2-1.7v-1.7c0,0-.5-2.3-.5-2.3l-.5-2-.4-1.2-.2-.4"/>
  <path class="st0" d="M297.5,73.2h-.4c0,0-1,.2-1,.2h-1.4s-1.7-.3-1.7-.3l-1.7-.8-1.5-1.5-1.2-2.6-.6-2.7.2-1.7.5-.9.4-.3h1s1.5,0,1.5,0h1.5s1.5,0,1.5,0"/>
  <path class="st0" d="M291.4,62.6v-.2s.2-.7.2-.7l.2-1,.4-1.3.5-1.5.6-1.6.8-1.7,1-1.6,1.1-1.5,1.3-1.3,1.6-1.1,1.8-.7,1.5-.4,1.6-.2h1.6c0-.1,1.6-.2,1.6-.2h1.6c0,0,1.6.2,1.6.2l1.6.3,1.5.4,1.5.5,1.4.6,1.3.6,1.2.7,1,.8.9.9.8.9.8,1.5.7,1.8.5,1.9.4,1.9.2,1.9.2,1.8v1.6c0,0,.1,1.3.1,1.3v1s0,.5,0,.5v.2c0,0-.5,1.1-.5,1.1l-.7,1.7-.7,2-.6,1.8-.3,1.2-.2,1.1-.6,1.3-.9,1.3-1.2,1.2-1.5,1.3-1.4,1.3-.9.8-.4.2-1.5.5h-1.9s-.7.5-.7.5v1.8s.3,2.1.3,2.1l.2,1.2v.5c.1,0,.6,1.4.6,1.4l1,1.6,1.5,1,1.2.3,1.6.3,1.8.3,1.9.3,1.7.3,1.4.2.9.2.9.2,1.4.3,1.7.4,1.7.4,1.4.4.7.4.8.7,1,1,1.1,1.3,1.2,1.4,1.2,1.5,1.2,1.5,1.2,1.5,1.1,1.3.9,1.1.7.8.4.5.5.5.7.8.8,1,.9,1.2,1.1,1.3,1.2,1.5,1.2,1.6,1.3,1.6,1.3,1.6,1.3,1.6,1.3,1.6,1.2,1.5,1.1,1.4,1,1.3.9,1.1.8.9.6.7.4.4.5.4.7.6.9.7,1.1.8,1.3.9,1.5,1,1.8,1.1,1.8,1,1.4.7,1.6.8,1.7.9,1.8.9,1.8.9,1.8.8,1.7.8,1.5.7,1.3.6,1.1.5.8.4.4.2h.2c0,0,.7.5.7.5l1.3.7,1.6.9,1.8.9,1.8.9,1.7.7,1.3.5,1,.2,1.4.2,1.7.2,1.8.3,1.8.2h1.6c0,.1,1.3.2,1.3.2h.9c0-.1,1.5-.3,1.5-.3h1.8c0,0,1.7-.2,1.7-.2l1.2-.2.9-.7,1.2-1.3,1.1-1.2,1-.4,1.5.6.8,1.2v1.7c0,0-.5,1.8-.5,1.8l-.6,1.1-.8.3-1.2.8-1.5.9-1.6.5-1.8.4-1.4.7-.8.6-.8.5-1.5.6h-1.9"/>
  <path class="st0" d="M413.8,160.1l.3.4,1,.9,1.4,1.1,1.8.9,1.9.4,1.8.4,1.9.4,1.7.4,1.4.3.8.2,1,.3,1.4.7v.6s-.8.8-.8.8l-1.6.7h-2.4c0,0-2.1-.3-2.1-.3l-2-.5-1.9-.6-1.7-.6-1.4-.5-.9-.3h-.3c0-.1-1.3.1-1.3.1l.3.5.9.7,1.3.9,1.6,1,1.7,1,1.7.9,1.5.8,1.2.5,2,.5,1.4.5.5.8-.3.7-.9.3h-1.4s-1.8-.2-1.8-.2l-2-.6-1.9-.9-1.8-.9-1.8-.9-1.5-.8-1.2-.7-.7-.4h-.6s.2.9.2.9l1.1.8,1.5,1.1,1.7,1.2,1.6,1.1,1.3.8.6.4,1.1.2,1.8.5,1.6.6.5.7-.6.8-1.3.6h-1.8c0,.1-1.9-.4-1.9-.4l-1.3-.7-1.5-1-1.6-1.1-1.6-1.2-1.5-1.1-1.2-.9-.8-.6-.3-.3-1.2-.5-.6,1,.4.5.8.7,1.3,1.2,1.6,1.4,1.6,1.3,1.3,1.1.8.5,1.4.4,1.5.7.3.9-.7.6-1.2.3h-1.7c0-.1-1.9-.8-1.9-.8l-1.6-1-1.2-.7-1.1-.6-1.1-.7-1.1-.8-1.1-1-1.2-1.3-1.3-1.7-1.3-1.7-1.1-1.5-1-1.4-.8-1.1-.7-.9-.6-.7-.7-.6-1.5-1-1.7-1-1.3-.7-.4-.2h-.4c0-.1-.9-.4-.9-.4l-1.3-.5-1.6-.6-1.8-.7-1.9-.7-1.9-.7-1.8-.7-1.7-.7-1.4-.6-1.1-.5-.9-.5-1.2-.5-1.4-.6-1.6-.6-1.7-.6-1.7-.7-1.7-.7-1.7-.7-1.5-.7-1.4-.7-1.1-.6-.9-.6-.7-.7-1-1-1.2-1.2-1.3-1.3-1.3-1.4-1.3-1.3-1.2-1.2-1-1-.7-.7-.4-.4-.5-.6-.8-.9-1-1.1-1.1-1.3-1.2-1.4-1.3-1.5-1.3-1.5-1.3-1.4-1.2-1.3-1.1-1.1-.9-.8-.7-.5"/>
  <path class="st0" d="M328.5,109.1l.7,1.3.7,1.3.7,1.3.7,1.3.7,1.3.7,1.3.7,1.3.7,1.3.7,1.3.7,1.3.7,1.3.7,1.3.7,1.3.7,1.3v.3c.1,0,.3.6.3.6l.3,1,.4,1.3.5,1.6.6,1.8.6,1.9.6,2,.6,2,.6,2,.6,1.9.5,1.7.5,1.5.4,1.2.3.9.2.6.5.8.7,1.1.9,1.3,1,1.5,1.2,1.6,1.2,1.7,1.3,1.7,1.3,1.7,1.2,1.6,1.2,1.5,1,1.3.9,1.1.7.9.5.6.2.2h.1c0,0,.3.4.3.4l.5.5.7.6.9.8,1,.9,1.2,1,1.3,1.2,1.4,1.2,1.4,1.3,1.5,1.4,1.5,1.4,1.6,1.4,1.6,1.4,1.6,1.4,1.5,1.4,1.5,1.3,1.4,1.2,1.3,1.1,1.2,1,1.1.9,1,.8.8.6.6.5.7.5.9.7,1,.8,1.1.9,1.2,1,1.3,1.1,1.4,1.1,1.4,1.2,1.4,1.2,1.4,1.2,1.4,1.2,1.3,1.2,1.2,1.2,1.1,1.1,1,1.1.9,1,.7.9.5.8.5.9.5,1.2.6,1.5.6,1.6.7,1.8.7,1.9.7,1.9.7,1.9.7,1.9.6,1.8.6,1.7.5,1.5.4,1.3.4,1.1.2.8v.4c.1,0,.2.1.2.1v.3c0,0,.2.6.2.6l.2.9.3,1.2.4,1.4.4,1.6.4,1.7.5,1.8.5,1.9.5,2,.5,2,.5,1.9.5,1.9.5,1.8.4,1.6.4,1.5.4,1.3.3,1.2.4,1.6.4,1.8.4,1.9.4,1.9.4,1.9.4,1.9.4,1.7.3,1.6.3,1.4.2,1.1.2.8v.4c.1,0,.5.4.5.4l.9,1,1.1,1.4,1.1,1.6.9,1.5.4,1.2.5,1.1.7,1.2.9,1.3,1,1.3,1.1,1.3,1.1,1.2,1.2,1.2,1.4,1.6,1,1.3.7.9.6.5,1.5.4h1.5s1.4.5,1.4.5l.4,1.3.8,1.1.8,1.4.6,1.6v1.2"/>
</svg>